<?xml version="1.0" encoding="UTF-8"?>
<svg xmlns="http://www.w3.org/2000/svg" id="Layer_1" data-name="Layer 1" viewBox="0 0 24 24">
  <path d="M19,23c0,.552-.448,1-1,1H6c-.552,0-1-.448-1-1s.448-1,1-1h2V12h8v10h2c.552,0,1,.448,1,1Zm5-14c0,.552-.448,1-1,1H1c-.552,0-1-.448-1-1s.448-1,1-1h1v-1.5c0-1.93,1.57-3.5,3.5-3.5h3.5l1.615-2.427c.765-.765,2.005-.765,2.769,0l1.615,2.427h3.5c1.93,0,3.5,1.57,3.5,3.5v1.5h1c.552,0,1,.448,1,1ZM7,6c0-.552-.448-1-1-1s-1,.448-1,1v1c0,.552,.448,1,1,1s1-.448,1-1v-1Zm4,0c0-.552-.448-1-1-1s-1,.448-1,1v1c0,.552,.448,1,1,1s1-.448,1-1v-1Zm4,0c0-.552-.448-1-1-1s-1,.448-1,1v1c0,.552,.448,1,1,1s1-.448,1-1v-1Zm4,0c0-.552-.448-1-1-1s-1,.448-1,1v1c0,.552,.448,1,1,1s1-.448,1-1v-1Z"/>
</svg>
