<?xml version="1.0" encoding="UTF-8"?>
<svg xmlns="http://www.w3.org/2000/svg" id="Layer_1" data-name="Layer 1" viewBox="0 0 24 24">
  <path d="m23.707,18.292l-.242-.241c-1.091-1.092-2.482-1.771-3.986-1.977.332-1.035.508-2.104.518-3.073h.003c2.206,0,4-1.794,4-4,0,0-.008-4.581-.009-4.596-.023-.737-.308-1.467-.87-2.029-.663-.663-2.649-1.834-3.726-2.321-.508-.23-1.175.331-.858.79.519.752.869,1.494,1.07,2.204-.669-.209-1.408-.538-2.26-1.014-.487-.272-1.02.35-.79.858.487,1.077,1.658,3.063,2.321,3.726.845.845,2.065,1.071,3.121.697v1.686c0,1.103-.897,2-2,2h-.26c-.585-1.974-2.173-3.219-4.74-3.73v-1.27c0-.553-.448-1-1-1s-1,.447-1,1v1.026c-.323-.017-.655-.026-1-.026s-.677.009-1,.026v-1.026c0-.553-.448-1-1-1s-1,.447-1,1v1.27c-2.567.511-4.155,1.757-4.74,3.73h-.26c-1.103,0-2-.897-2-2v-1.686c1.056.373,2.277.148,3.121-.697.663-.663,1.834-2.649,2.321-3.726.23-.508-.303-1.13-.79-.858-.852.476-1.591.806-2.26,1.014.202-.71.551-1.453,1.07-2.204.317-.459-.349-1.02-.858-.79C3.528.541,1.541,1.712.879,2.374.316,2.936.031,3.667.009,4.404c0,.015-.009,4.596-.009,4.596,0,2.206,1.794,4,4,4h.004c.013.875.209,1.967.589,3.063-1.532.194-2.949.878-4.057,1.987l-.243.242c-.391.391-.392,1.023-.001,1.414.195.196.452.294.708.294s.511-.098.707-.292l.244-.243c.941-.942,2.194-1.462,3.527-1.464.513.876,1.161,1.65,1.934,2.194-.984.783-1.822,1.736-2.179,2.164-.354.425-.296,1.055.127,1.408.187.156.414.232.64.232.286,0,.571-.122.769-.359,1.174-1.406,2.685-2.641,3.232-2.641h4c.547,0,2.058,1.234,3.232,2.641.198.237.482.359.769.359.226,0,.453-.076.64-.232.424-.354.481-.983.127-1.408-.351-.421-1.168-1.349-2.13-2.124.807-.537,1.469-1.322,1.99-2.224,1.293.029,2.505.537,3.423,1.455l.243.242c.195.194.451.292.707.292s.513-.098.708-.294c.39-.391.389-1.023-.001-1.414Z"/>
</svg>
