<?xml version="1.0" encoding="UTF-8"?>
<svg xmlns="http://www.w3.org/2000/svg" id="Layer_1" data-name="Layer 1" viewBox="0 0 24 24">
  <path d="m15,8c0,1.654-1.346,3-3,3s-3-1.346-3-3,1.346-3,3-3,3,1.346,3,3Zm9,1v5.736c0,.74-.791,1.253-1.442.901-.137-.074-.268-.159-.391-.253-.673-.513-1.66-.513-2.334,0-.507.386-1.143.616-1.833.616s-1.326-.23-1.833-.616c-.673-.513-1.66-.513-2.334,0-.507.386-1.143.616-1.833.616s-1.326-.23-1.833-.616c-.673-.513-1.66-.513-2.334,0-.507.386-1.143.616-1.833.616s-1.326-.23-1.833-.616c-.673-.513-1.66-.513-2.334,0-.123.094-.254.178-.391.253-.651.352-1.442-.161-1.442-.901v-5.736c0-.496.363-.902.851-.989,1.411-.252,2.687-1.206,3.419-2.556.351-.647.658-1.209.801-1.456C6.498,1.532,9.153,0,12,0s5.502,1.532,6.929,3.999c.143.247.45.808.801,1.456.732,1.349,2.008,2.304,3.419,2.556.488.087.851.493.851.989Zm-7-1c0-2.757-2.243-5-5-5s-5,2.243-5,5,2.243,5,5,5,5-2.243,5-5ZM1.5,18c-.828,0-1.5.672-1.5,1.5s.672,1.5,1.5,1.5,1.5-.672,1.5-1.5-.672-1.5-1.5-1.5Zm5,3c-.828,0-1.5.672-1.5,1.5s.672,1.5,1.5,1.5,1.5-.672,1.5-1.5-.672-1.5-1.5-1.5Zm11,0c-.828,0-1.5.672-1.5,1.5s.672,1.5,1.5,1.5,1.5-.672,1.5-1.5-.672-1.5-1.5-1.5Zm-5.5-3c-.828,0-1.5.672-1.5,1.5s.672,1.5,1.5,1.5,1.5-.672,1.5-1.5-.672-1.5-1.5-1.5Zm10.5,0c-.828,0-1.5.672-1.5,1.5s.672,1.5,1.5,1.5,1.5-.672,1.5-1.5-.672-1.5-1.5-1.5Z"/>
</svg>
