<?xml version="1.0" encoding="UTF-8"?>
<svg xmlns="http://www.w3.org/2000/svg" id="Layer_1" data-name="Layer 1" viewBox="0 0 24 24">
  <path d="m24,9.728v9.276c0,2.757-2.243,5-5,5h-2.005l-.016-6.893,4.911-2.058c.634-.32,1.047-.935,1.103-1.643.057-.708-.253-1.379-.828-1.796-.031-.022-4.271-2.402-4.271-2.402-.626-.312-1.353-.279-1.946.087-.594.367-.948,1.003-.948,1.702v13.003H5c-2.757,0-5-2.243-5-5v-9.276c0-1.665.824-3.214,2.203-4.145L9.203.859c1.699-1.146,3.895-1.146,5.594,0l7.203,4.88c1.252.942,2,2.41,2,3.989Zm-7.028,5.219l4.082-1.708-4.096-2.259.014,3.968Z"/>
</svg>
