<?xml version="1.0" encoding="UTF-8"?>
<svg xmlns="http://www.w3.org/2000/svg" id="Layer_1" data-name="Layer 1" viewBox="0 0 24 24">
  <path d="M12,0C5.383,0,0,5.383,0,12s5.383,12,12,12,12-5.383,12-12S18.617,0,12,0Zm10,12c0,2.398-.85,4.6-2.262,6.324l-5.817-5.817c1.265-.693,2.079-2.033,2.079-3.507,0-2.206-1.794-4-4-4-1.474,0-2.814,.814-3.507,2.079l-2.817-2.817c1.725-1.412,3.927-2.262,6.324-2.262,5.514,0,10,4.486,10,10Zm-20,0c0-2.398,.85-4.6,2.262-6.324l14.062,14.062c-.526,.431-1.099,.805-1.706,1.122l-5.751-5.751c-2.463,.471-4.383,2.447-4.783,4.934-2.472-1.822-4.085-4.745-4.085-8.045Z"/>
</svg>
