<?xml version="1.0" encoding="UTF-8"?>
<svg xmlns="http://www.w3.org/2000/svg" id="Layer_1" data-name="Layer 1" viewBox="0 0 24 24">
  <path d="m12,11c-1.335,0-2.591-.521-3.535-1.465h0c-.944-.944-1.465-2.199-1.465-3.535s.521-2.592,1.465-3.535l1.68-1.701c1.03-1.007,2.682-1.006,3.698-.013l1.697,1.719c.939.938,1.46,2.194,1.46,3.53s-.521,2.592-1.465,3.535c-.943.944-2.199,1.465-3.535,1.465ZM1.5,18c-.828,0-1.5.672-1.5,1.5s.672,1.5,1.5,1.5,1.5-.672,1.5-1.5-.672-1.5-1.5-1.5Zm5,3c-.828,0-1.5.672-1.5,1.5s.672,1.5,1.5,1.5,1.5-.672,1.5-1.5-.672-1.5-1.5-1.5Zm11,0c-.828,0-1.5.672-1.5,1.5s.672,1.5,1.5,1.5,1.5-.672,1.5-1.5-.672-1.5-1.5-1.5Zm-5.5-3c-.828,0-1.5.672-1.5,1.5s.672,1.5,1.5,1.5,1.5-.672,1.5-1.5-.672-1.5-1.5-1.5Zm10.5,0c-.828,0-1.5.672-1.5,1.5s.672,1.5,1.5,1.5,1.5-.672,1.5-1.5-.672-1.5-1.5-1.5Zm-.5-9h-3.681c-.34.714-.795,1.375-1.371,1.95-1.319,1.321-3.077,2.05-4.948,2.05s-3.627-.729-4.949-2.051c-.575-.575-1.03-1.236-1.37-1.949h-3.679C.896,9,0,9.898.002,11.004l.009,4.096c.003.728.862,1.113,1.41.634.193-.168.347-.3.412-.35.673-.512,1.661-.512,2.334,0,.507.386,1.143.616,1.833.616s1.326-.23,1.833-.616c.673-.513,1.66-.513,2.334,0,.507.386,1.143.616,1.833.616s1.326-.23,1.833-.616c.673-.513,1.66-.513,2.334,0,.507.386,1.143.616,1.833.616s1.326-.23,1.833-.616c.673-.512,1.661-.512,2.334,0,.07.053.245.202.46.389.536.465,1.373.087,1.373-.623v-4.15c0-1.105-.895-2-2-2Z"/>
</svg>
