<?xml version="1.0" encoding="UTF-8"?>
<svg xmlns="http://www.w3.org/2000/svg" id="Layer_1" data-name="Layer 1" viewBox="0 0 24 24">
  <path d="m22,4h-.492l-.172-.82c-.388-1.853-2.022-3.18-3.915-3.18H6.58c-1.893,0-3.527,1.327-3.915,3.18l-.172.82h-.493c-.552,0-1,.448-1,1h0c0,.552.448,1,1,1h20c.552,0,1-.448,1-1h0c0-.552-.448-1-1-1ZM2.322,8l1.348,11.578c.293,2.521,2.429,4.422,4.966,4.422h6.728c2.538,0,4.673-1.901,4.966-4.422l1.348-11.578H2.322Zm4.184,9h10.988c.598,0,1.062.522.993,1.116h0c-.059.504-.486.884-.993.884H6.506c-.508,0-.935-.38-.993-.884h0c-.069-.594.395-1.116.993-1.116Zm-1.575-3.884h0c-.069-.594.395-1.116.993-1.116h12.152c.598,0,1.062.522.993,1.116h0c-.059.504-.486.884-.993.884H5.924c-.508,0-.935-.38-.993-.884Z"/>
</svg>
