<?xml version="1.0" encoding="UTF-8"?>
<svg xmlns="http://www.w3.org/2000/svg" id="Layer_1" data-name="Layer 1" viewBox="0 0 24 24">
  <path d="m23,6h-1.101c-.465-2.279-2.484-4-4.899-4H5v-1c0-.553-.447-1-1-1s-1,.447-1,1v1.424C1.237,3.198,0,4.955,0,7c0,2.757,2.243,5,5,5h12c2.414,0,4.434-1.721,4.899-4h1.101c.553,0,1-.447,1-1s-.447-1-1-1Zm0,0h-1.101c-.465-2.279-2.484-4-4.899-4H5v-1c0-.553-.447-1-1-1s-1,.447-1,1v1.424C1.237,3.198,0,4.955,0,7c0,2.757,2.243,5,5,5h12c2.414,0,4.434-1.721,4.899-4h1.101c.553,0,1-.447,1-1s-.447-1-1-1Zm-11,2h-7c-.553,0-1-.447-1-1s.447-1,1-1h7c.553,0,1,.447,1,1s-.447,1-1,1Zm0,0h-7c-.553,0-1-.447-1-1s.447-1,1-1h7c.553,0,1,.447,1,1s-.447,1-1,1Zm-2,7c0-.552.448-1,1-1h0c.552,0,1,.448,1,1v4c0,.552-.448,1-1,1h0c-.552,0-1-.448-1-1v-1h-3.216l-1.112,3.895c-.347,1.237-1.491,2.105-2.781,2.105-.911,0-1.75-.416-2.302-1.143-.551-.727-.726-1.646-.48-2.524l1.999-6.966c.883.403,1.86.633,2.892.633h2.925l-.571,2h2.646v-1Z"/>
</svg>
