<?xml version="1.0" encoding="UTF-8"?>
<svg xmlns="http://www.w3.org/2000/svg" id="Layer_1" data-name="Layer 1" viewBox="0 0 24 24">
  <path d="m4.579,4.902c-.166-.517-.067-1.08.264-1.506C5.821,2.131,8.5-.01,12.325-.01c2.455,0,4.452,1.941,4.639,4.39-1.645-.785-3.376-.881-4.964-.881-.553,0-1,.448-1,1s.447,1,1,1c1.637,0,3.227.108,4.659,1.008-.691,1.75-2.369,2.992-4.333,2.992-1.668,0-3.078-1.097-4.323-2.064-.833-.647-1.62-1.258-2.354-1.478-.507-.152-.906-.546-1.069-1.056Zm12.079,1.606c.545.343,1.069.79,1.56,1.405.198.247.488.375.782.375.219,0,.439-.072.624-.219.431-.345.501-.974.156-1.405-.876-1.094-1.831-1.812-2.818-2.283.009.122.036.24.036.365,0,.624-.126,1.217-.341,1.763Zm6.247,5.427h0c-.23-.489-.684-.831-1.214-.915-.547-.084-1.109.108-1.496.521-.556.592-1.321,1.124-2.132,1.686-1.309.908-2.661,1.847-3.455,3.25-.62,1.097-.773,2.368-.431,3.579.149.528.399,1.006.709,1.44,1.806-.776,2.855-2.244,3.259-3.58.16-.529.715-.828,1.246-.668.529.16.828.718.668,1.246-.484,1.601-1.656,3.327-3.581,4.425.722.391,1.501.579,2.272.579,1.669,0,3.291-.869,4.162-2.409,1.851-3.27.865-7.292-.008-9.154Zm-8.019,9.561c-.584.251-1.244.432-1.99.509-.55.057-.948.549-.891,1.098.053.514.487.896.993.896.034,0,.069-.002.104-.005,1.324-.138,2.433-.537,3.375-1.075-.012-.006-.024-.011-.036-.017-.633-.35-1.151-.837-1.556-1.406Zm-5.422-2.188c-.067.64-.13,1.244-.122,1.83.003.256.038.516.104.776.146.563-.002,1.154-.396,1.575-.309.33-.733.51-1.176.51-.102,0-.204-.009-.307-.029-1.228-.233-5.371-1.293-7.122-5.152-.99-2.181-.211-4.721,1.711-6.006-.032.241-.064.481-.064.709-.012.191-.054,1.931,2.201,4.185.195.195.451.293.707.293s.512-.098.707-.293c.391-.391.391-1.023,0-1.414-1.588-1.587-1.618-2.669-1.617-2.708,0-.472.114-1,.32-1.56.668-.051,1.343.028,1.99.267,1.201.444,2.157,1.335,2.69,2.511.687,1.51.527,3.032.374,4.504Zm-5.054-7.283c.176-.48.417-.983.736-1.503.289-.471.141-1.086-.33-1.375-.472-.29-1.087-.141-1.375.33-.726,1.184-1.147,2.31-1.285,3.335.198-.132.396-.265.618-.369.524-.244,1.077-.375,1.636-.418Z"/>
</svg>
