<?xml version="1.0" encoding="UTF-8"?>
<svg xmlns="http://www.w3.org/2000/svg" id="Layer_1" data-name="Layer 1" viewBox="0 0 24 24">
  <path d="M14.5,13c-1.381,0-2.5,1.119-2.5,2.5v3c0,1.381,1.119,2.5,2.5,2.5s2.5-1.119,2.5-2.5v-3c0-1.381-1.119-2.5-2.5-2.5Zm.9,5.5c0,.496-.404,.9-.9,.9s-.9-.404-.9-.9v-3c0-.496,.404-.9,.9-.9s.9,.404,.9,.9v3Zm-7.801-2.966v2.936c0,.479,.36,.897,.838,.929,.374,.025,.705-.18,.863-.488,.132-.258,.409-.409,.699-.409,.606,0,.989,.647,.703,1.181-.414,.771-1.222,1.3-2.154,1.317-1.401,.027-2.547-1.154-2.547-2.555v-2.886c0-1.401,1.146-2.581,2.547-2.555,.932,.018,1.74,.546,2.154,1.317,.287,.534-.097,1.181-.703,1.181-.29,0-.567-.151-.699-.409-.158-.308-.488-.514-.863-.489-.478,.032-.838,.45-.838,.929Zm12.401,7.133h1.346c.361,0,.654,.293,.654,.654v.025c0,.361-.293,.654-.654,.654h-2.692c-.361,0-.654-.293-.654-.654,0-1.506,2.667-2.346,2.667-3.346,0-.375-.31-.678-.687-.666-.248,.007-.457,.157-.566,.366-.005,.01-.01,.024-.015,.042-.091,.344-.392,.592-.748,.592h0c-.374,0-.664-.332-.607-.702,.002-.012,.004-.023,.006-.032,.194-.88,.948-1.566,1.878-1.599,1.138-.04,2.073,.87,2.073,1.999,0,1.423-1.425,2.141-2,2.667Zm4-10.167c0,1.642-.542,3.179-1.463,4.433-.753-.621-1.678-.945-2.681-.931-.295,.011-.579,.065-.856,.138v-.64c0-2.481-2.019-4.5-4.5-4.5-1.155,0-2.199,.45-2.997,1.168-.793-.713-1.821-1.142-2.917-1.163-1.182,.008-2.341,.433-3.21,1.286-.875,.857-1.376,2.048-1.376,3.268v2.887c0,.481,.099,.951,.247,1.405-2.43-.569-4.247-2.75-4.247-5.35,0-1.546,.656-3.029,1.801-4.07,.273-.248,.405-.593,.346-.901-.184-.946-.195-1.919-.033-2.89C2.66,3.35,5.225,.737,8.497,.138c3.592-.66,7.183,1.167,8.735,4.438,.14,.296,.41,.503,.742,.569,3.492,.696,6.026,3.789,6.026,7.354Z"/>
</svg>
