<?xml version="1.0" encoding="UTF-8"?>
<svg xmlns="http://www.w3.org/2000/svg" id="Layer_1" data-name="Layer 1" viewBox="0 0 24 24">
  <path d="M11.522,16.522l-2.522,2.479h-3s0,1.999,0,1.999H4v1.999c0,.552-.448,1-1,1H1C.448,24,0,23.552,0,23v-1.843c0-1.061,.422-2.078,1.172-2.828l6.143-6.142,4.207,4.335Zm10.606-4.696l-4.362,3.403c-1.45,1.131-3.515,1.004-4.815-.296l-3.871-3.871c-1.314-1.314-1.428-3.408-.263-4.857L12.348,1.81c1.667-2.073,4.676-2.407,6.782-.783,.62,.478,1.255,1.022,1.861,1.628,.785,.785,1.493,1.665,2.104,2.519,1.514,2.118,1.084,5.051-.968,6.652Zm-2.438-5.551l-2-2c-.391-.391-1.023-.391-1.414,0s-.391,1.023,0,1.414l2,2c.391,.391,1.023,.391,1.414,0s.391-1.023,0-1.414Z"/>
</svg>
