<?xml version="1.0" encoding="UTF-8"?>
<svg xmlns="http://www.w3.org/2000/svg" id="Layer_1" data-name="Layer 1" viewBox="0 0 24 24">
  <path d="m12.513,13c.552,0,1,.448,1,1s-.448,1-1,1h-1.5v-2h1.5Zm.5,4h-2v2h2c.552,0,1-.448,1-1s-.448-1-1-1Zm8.987-4v6c0,2.757-2.243,5-5,5H7c-2.757,0-5-2.243-5-5v-6c0-2.045,1.237-3.802,3-4.576v-1.424c0-3.859,3.141-7,7-7s7,3.141,7,7v1.424c1.763.774,3,2.531,3,4.576Zm-5.987,5c0-.909-.406-1.725-1.047-2.275.345-.488.547-1.083.547-1.725,0-1.487-1.09-2.716-2.512-2.951v-.062c-.009-.552-.485-1.029-1.013-.987-.548.007-.985.455-.985,1.001-1.098.006-1.99.9-1.99,1.999v6c0,1.099.892,1.993,1.99,1.999,0,.546.437.994.985,1.001h.013c.547,0,.993-.439,1-.987v-.013h.013c1.654,0,3-1.346,3-3Zm.987-11c0-2.757-2.243-5-5-5s-5,2.243-5,5v1h10v-1Z"/>
</svg>
