<?xml version="1.0" encoding="UTF-8"?>
<svg xmlns="http://www.w3.org/2000/svg" id="Layer_1" data-name="Layer 1" viewBox="0 0 24 24">
  <path d="m16.332,9.504c-.275-.478-.886-.644-1.365-.367l-.568.327c-.391-.37-.87-.642-1.399-.801v-.663c0-.552-.447-1-1-1s-1,.448-1,1v.663c-.529.159-1.007.431-1.399.801l-.568-.327c-.479-.277-1.091-.111-1.365.367-.276.479-.111,1.09.367,1.366l.567.327c-.061.259-.102.526-.102.804s.041.544.102.803l-.568.328c-.479.276-.643.888-.366,1.366.186.32.521.5.867.5.17,0,.342-.043.499-.134l.567-.328c.391.37.87.642,1.398.801v.663c0,.553.447,1,1,1s1-.447,1-1v-.663c.529-.159,1.007-.431,1.398-.801l.568.328c.157.091.329.134.498.134.346,0,.683-.18.867-.501.276-.479.111-1.09-.367-1.365l-.567-.327c.061-.259.102-.526.102-.804s-.041-.544-.102-.804l.567-.327c.479-.275.644-.887.367-1.366Zm-4.332,3.996c-.827,0-1.5-.673-1.5-1.5s.673-1.5,1.5-1.5,1.5.673,1.5,1.5-.673,1.5-1.5,1.5Zm9-4.514c-.014,0-.026.004-.04.004l-1.771-2.951c.499-.536.811-1.249.811-2.039,0-1.657-1.343-3-3-3-1.304,0-2.403.837-2.816,2h-4.367c-.413-1.163-1.512-2-2.816-2-1.657,0-3,1.343-3,3,0,.79.312,1.503.811,2.039l-1.771,2.951c-.014,0-.026-.004-.04-.004-1.657,0-3,1.343-3,3s1.343,3,3,3c.008,0,.016-.002.024-.002l1.787,2.978c-.499.536-.811,1.249-.811,2.039,0,1.657,1.343,3,3,3,1.304,0,2.403-.837,2.816-2h4.367c.413,1.163,1.512,2,2.816,2,1.657,0,3-1.343,3-3,0-.79-.312-1.503-.811-2.039l1.787-2.978c.008,0,.016.002.024.002,1.657,0,3-1.343,3-3s-1.343-3-3-3Zm-3.591,8.055c-.135-.019-.269-.041-.409-.041-1.304,0-2.403.837-2.816,2h-4.367c-.413-1.163-1.512-2-2.816-2-.14,0-.274.023-.409.041l-1.664-2.773c.651-.55,1.073-1.363,1.073-2.282,0-.914-.417-1.722-1.062-2.273l1.653-2.755c.135.019.269.041.409.041,1.304,0,2.403-.837,2.816-2h4.367c.413,1.163,1.512,2,2.816,2,.14,0,.274-.023.409-.041l1.653,2.755c-.645.55-1.062,1.359-1.062,2.273,0,.919.422,1.731,1.073,2.282l-1.664,2.773Z"/>
</svg>
