<?xml version="1.0" encoding="UTF-8"?>
<svg xmlns="http://www.w3.org/2000/svg" id="Layer_1" data-name="Layer 1" viewBox="0 0 24 24">
  <path d="m8,11v12c0,.552-.448,1-1,1s-1-.448-1-1v-11.101c-2.279-.464-4-2.485-4-4.899,0-.552.448-1,1-1s1,.448,1,1c0,1.654,1.346,3,3,3,.552,0,1,.448,1,1Zm8,9c-.552,0-1,.448-1,1v2c0,.552.448,1,1,1s1-.448,1-1v-2c0-.552-.448-1-1-1Zm7.707,2.293l-4.591-4.591c1.398-1.686,2.884-4.274,2.884-7.702,0-4.167-1.821-7.755-3.513-9.325-.661-.614-1.585-.793-2.356-.458-.698.304-1.131.987-1.131,1.783v11.586l-3.839-3.839c.537-.813.839-1.761.839-2.747V1c0-.552-.448-1-1-1s-1,.448-1,1v6c0,.45-.112.885-.302,1.284l-1.698-1.698V1c0-.552-.448-1-1-1s-1,.448-1,1v3.586l-2-2v-1.586c0-.552-.448-1-1-1-.43,0-.789.275-.93.656l-.363-.363C1.316-.098.684-.098.293.293S-.098,1.316.293,1.707l22,22c.195.195.451.293.707.293s.512-.098.707-.293c.391-.391.391-1.023,0-1.414Z"/>
</svg>
