<?xml version="1.0" encoding="UTF-8"?>
<svg xmlns="http://www.w3.org/2000/svg" id="Layer_1" data-name="Layer 1" viewBox="0 0 24 24">
  <path d="m19,1H5C2.243,1,0,3.243,0,6v2h24v-2c0-2.757-2.243-5-5-5ZM4.5,6c-.828,0-1.5-.672-1.5-1.5s.672-1.5,1.5-1.5,1.5.672,1.5,1.5-.672,1.5-1.5,1.5Zm4,0c-.828,0-1.5-.672-1.5-1.5s.672-1.5,1.5-1.5,1.5.672,1.5,1.5-.672,1.5-1.5,1.5ZM0,18c0,2.757,2.243,5,5,5h14c2.757,0,5-2.243,5-5v-8H0v8Zm15-4c0-.552.448-1,1-1s1,.448,1,1v5c0,.552-.448,1-1,1s-1-.448-1-1v-5Zm-8,0c0-.552.448-1,1-1s1,.448,1,1v3c0,.551.449,1,1,1s1-.449,1-1v-3c0-.552.448-1,1-1s1,.448,1,1v3c0,1.654-1.346,3-3,3s-3-1.346-3-3v-3Z"/>
</svg>
