<?xml version="1.0" encoding="UTF-8"?>
<svg xmlns="http://www.w3.org/2000/svg" id="Layer_1" data-name="Layer 1" viewBox="0 0 24 24">
  <path d="m20.59,19.176c2.117-2.51,3.41-5.737,3.41-9.176,0-1.654-1.346-3-3-3s-3,1.346-3,3,1.346,3,3,3c.216,0,.425-.025.628-.069-.449,1.789-1.301,3.438-2.447,4.836l-1.458-1.458c.455-.547.854-1.142,1.181-1.783-1.711-.794-2.905-2.516-2.905-4.526s1.194-3.733,2.905-4.526C17.25,2.23,13.884,0,10,0c-2.398,0-4.595.854-6.319,2.267L1.707.293C1.316-.098.684-.098.293.293S-.098,1.316.293,1.707l22,22c.195.195.451.293.707.293s.512-.098.707-.293c.391-.391.391-1.023,0-1.414l-3.117-3.117ZM10,7c1.657,0,3,1.343,3,3,0,.463-.108.9-.296,1.29l-3.994-3.994c.39-.188.826-.296,1.29-.296Zm5.515,13.81c.394-.211.875-.159,1.192.157h0c.47.47.356,1.265-.228,1.581-1.224.664-2.554,1.148-3.963,1.404-.176.032-.353.048-.528.048-.953,0-1.876-.463-2.464-1.307-.369-.529-.524-1.181-.524-1.826v-.918C3.954,19.446,0,15.177,0,10c0-1.129.191-2.213.539-3.225.234-.68,1.121-.855,1.63-.347l11.389,11.389c.531.531.297,1.418-.415,1.654-.684.227-1.402.383-2.142.457v1.062c0,.302.134.586.367.781.131.109.408.285.792.213,1.191-.216,2.319-.619,3.357-1.174Z"/>
</svg>
