<?xml version="1.0" encoding="UTF-8"?>
<svg xmlns="http://www.w3.org/2000/svg" id="Layer_1" data-name="Layer 1" viewBox="0 0 24 24">
  <path d="m7,3c-.695,0-1.366.102-2,.292v-.792c0-1.381,1.119-2.5,2.5-2.5h9c1.381,0,2.5,1.119,2.5,2.5v.792c-.634-.189-1.305-.292-2-.292H7Zm10,2H7c-2.757,0-5,2.243-5,5v9c0,2.761,2.239,5,5,5h3.549c-.705-.241-2.076-.783-2.882-1.588-.648-.648-.956-1.791-1.148-2.741-.131-.651.447-1.23,1.099-1.099.95.192,2.137.505,2.563.931.456.456.695,1.063.816,1.671v-2.529c-.013-.004-2.218-.621-3.33-1.733-.648-.648-.956-1.791-1.148-2.741-.131-.651.447-1.23,1.099-1.099.95.192,2.137.505,2.563.931.457.457.697,1.068.818,1.677v-1.929c-.499-.631-.998-1.449-.998-2.199,0-1,.545-2.007,1.132-3.047.381-.674,1.355-.674,1.735,0,.588,1.04,1.132,2.047,1.132,3.047,0,.75-.501,1.57-1.001,2.201v1.937s0-.004,0-.004c.12-.612.36-1.225.819-1.684.426-.426,1.613-.74,2.563-.931.651-.131,1.23.447,1.099,1.099-.192.95-.5,2.093-1.148,2.741-1.115,1.115-3.333,1.733-3.333,1.733h-.002s0,2.55,0,2.55l.003-.009c.12-.612.36-1.225.819-1.684.426-.426,1.613-.74,2.563-.931.651-.131,1.23.447,1.099,1.099-.192.95-.5,2.093-1.148,2.741-.806.806-2.177,1.347-2.882,1.588h3.549c2.761,0,5-2.239,5-5v-9c0-2.761-2.239-5-5-5Z"/>
</svg>
