<?xml version="1.0" encoding="UTF-8"?>
<svg xmlns="http://www.w3.org/2000/svg" id="Layer_1" data-name="Layer 1" viewBox="0 0 24 24">
  <path d="m17.012,24H7.013c-.708,0-1.191-.716-.927-1.372h0c.152-.378.519-.626.927-.626h9.999c.408,0,.775.248.927.626h0c.264.657-.219,1.372-.927,1.372Zm6.988-15.656v12.657c0,1.656-1.343,2.999-2.999,2.999h0c-.408,0-.775-.248-.928-.627h0c-.265-.657.219-1.373.928-1.373h0c.552,0,1-.447,1-1s-.448-1-1-1h-8v-5l1.6-1.2c.442-.331.531-.958.2-1.399-.33-.442-.957-.531-1.4-.2l-1.6,1.2c-.504.378-.8.971-.8,1.601v4.999H3c-.552,0-1,.447-1,1s.448,1,1,1h.023c.708,0,1.192.716.928,1.373h0c-.152.379-.52.627-.928.627h-.016C1.347,24,.003,22.653.007,20.994l.031-12.653C.039,6.429,1.155,4.657,2.883,3.832L9.883.488c1.363-.651,2.947-.651,4.31,0l7,3.344c1.731.826,2.807,2.556,2.807,4.512Zm-2-1.344c0-.553-.448-1-1-1H3c-.552,0-1,.447-1,1s.448,1,1,1h2v1c0,.553.448,1,1,1s1-.447,1-1v-1h4v1c0,.553.448,1,1,1s1-.447,1-1v-1h4v1c0,.553.448,1,1,1s1-.447,1-1v-1h2c.552,0,1-.447,1-1Z"/>
</svg>
