<?xml version="1.0" encoding="UTF-8"?>
<svg xmlns="http://www.w3.org/2000/svg" id="Layer_1" data-name="Layer 1" viewBox="0 0 24 24">
  <path d="m19,18h4.54c-.347.913-.88,1.754-1.591,2.465l-1.484,1.485c-.712.711-1.552,1.244-2.465,1.591v-4.54c0-.551.448-1,1-1Zm0-18H5C2.243,0,0,2.243,0,5v14c0,2.757,2.243,5,5,5h10.515c.163,0,.324-.013.485-.024v-4.976c0-1.654,1.346-3,3-3h4.976c.011-.161.024-.322.024-.485V5c0-2.757-2.243-5-5-5Zm-10.342,10.069c-.318,0-.582-.246-.605-.563l-.201-2.776-.644,1.416c-.216.474-.889.474-1.105,0l-.644-1.416-.201,2.776c-.023.317-.287.563-.605.563-.352,0-.631-.299-.605-.651l.338-4.659c.032-.535.358-.759.749-.759.26,0,.501.184.638.486l.883,1.942.883-1.942c.137-.302.378-.486.638-.486.391,0,.717.224.749.759l.338,4.659c.026.352-.253.651-.605.651Zm5.842-2.039c0,1.086-.914,1.967-2,1.967s-2-.881-2-1.967v-2.066c0-1.086.914-1.964,2-1.964s2,.877,2,1.964v2.066Zm3.626,1.375c-.076.364-.397.625-.768.625-.36,0-.673-.245-.761-.593l-1.171-4.652c-.096-.383.193-.755.588-.755.278,0,.521.189.588.459l.71,2.823.583-2.799c.059-.281.307-.483.594-.483h.012c.385,0,.673.354.594.731l-.969,4.645Zm-5.626-4.152c-.402.007-.747.328-.746.731,0,.048,0,1.976,0,2.024-.001.403.365.729.767.736.402-.007.725-.333.724-.736,0-.048,0-1.976,0-2.024.001-.403-.344-.725-.746-.731Z"/>
</svg>
