<?xml version="1.0" encoding="UTF-8"?>
<svg xmlns="http://www.w3.org/2000/svg" id="Layer_1" data-name="Layer 1" viewBox="0 0 24 24">
  <path d="m18,0H6c-1.657,0-3,1.343-3,3v3c0,1.657,1.343,3,3,3h2.655l2.281,1.883c.623.515,1.524.517,2.15.006l2.314-1.889h2.6c1.657,0,3-1.343,3-3v-3c0-1.657-1.343-3-3-3Zm-9.694,5.234c.312.312.312.819,0,1.132-.156.156-.36.234-.565.234s-.409-.078-.565-.234l-.734-.734-.734.734c-.156.156-.36.234-.565.234s-.409-.078-.565-.234c-.312-.312-.312-.819,0-1.132l.734-.734-.734-.734c-.312-.312-.312-.819,0-1.132.312-.312.818-.312,1.131,0l.734.734.734-.734c.312-.312.818-.312,1.131,0,.312.312.312.819,0,1.132l-.734.734.734.734Zm5.495,0c.312.312.312.819,0,1.132-.156.156-.36.234-.565.234s-.409-.078-.565-.234l-.734-.734-.734.734c-.156.156-.36.234-.565.234s-.409-.078-.565-.234c-.312-.312-.312-.819,0-1.132l.734-.734-.734-.734c-.312-.312-.312-.819,0-1.132.312-.312.818-.312,1.131,0l.734.734.734-.734c.312-.312.818-.312,1.131,0,.312.312.312.819,0,1.132l-.734.734.734.734Zm5.531,0c.312.312.312.819,0,1.131-.156.156-.36.234-.565.234s-.409-.078-.565-.234l-.735-.735-.735.735c-.156.156-.36.234-.565.234s-.409-.078-.565-.234c-.312-.312-.312-.819,0-1.131l.734-.734-.734-.734c-.312-.312-.312-.819,0-1.131s.818-.313,1.131,0l.735.735.735-.735c.312-.312.818-.312,1.131,0s.312.819,0,1.131l-.734.734.734.734Zm4.232,5.236c.276.55.435,1.151.435,1.762v7.769c0,2.209-1.791,4-4,4H4C1.791,24,0,22.209,0,20v-7.768c0-.6.156-1.193.424-1.738l7.901,7.904c.822.822,1.873,1.419,3.027,1.562,1.573.196,3.087-.329,4.184-1.426l8.027-8.063Zm-4.565.53h-2.881l-2.37,1.959c-.48.428-1.101.645-1.73.645-.646,0-1.302-.229-1.823-.692l-2.271-1.912h-2.925c-.551,0-1.077-.112-1.555-.315l6.434,6.436c1.134,1.133,3.109,1.133,4.243,0l6.395-6.424c-.468.193-.979.303-1.516.303Z"/>
</svg>
