<?xml version="1.0" encoding="UTF-8"?>
<svg xmlns="http://www.w3.org/2000/svg" id="Layer_1" data-name="Layer 1" viewBox="0 0 24 24">
  <path d="m18,12c-3.314,0-6,2.686-6,6s2.686,6,6,6,6-2.686,6-6-2.686-6-6-6Zm3.683,5.712l-2.703,2.614c-.452.446-1.052.671-1.653.671s-1.203-.225-1.663-.674l-1.354-1.332c-.395-.387-.4-1.02-.014-1.414.386-.395,1.019-.401,1.414-.014l1.354,1.331c.144.142.38.139.522-.002l2.713-2.624c.397-.381,1.031-.37,1.414.029.382.398.369,1.031-.029,1.414ZM0,8.02c0-.011,0-.022,0-.033.013-.09.025-.172.039-.262L1.209,3.627C1.822,1.48,3.784,0,6.017,0h.983v4c0,.552.448,1,1,1s1-.448,1-1V0h6v4c0,.552.447,1,1,1s1-.448,1-1V0h.982c2.232,0,4.194,1.48,4.808,3.626l1.171,4.096c.013.086.026.173.039.259.006,1.359-.669,2.556-1.7,3.284-1.243-.797-2.717-1.265-4.3-1.265-2.021,0-3.864.759-5.274,2h-1.726c-1.2,0-2.266-.542-3-1.382-.734.84-1.8,1.382-3,1.382h-1.046C1.762,12-.01,10.211,0,8.02Zm12.726,15.98h-7.726c-2.209,0-4-1.791-4-4v-6.79c.89.512,1.9.79,2.954.79h1.046c1.062,0,2.095-.288,3-.818.905.53,1.938.818,3,.818h.082c-.684,1.178-1.082,2.542-1.082,4,0,2.39,1.059,4.533,2.726,6Z"/>
</svg>
