<?xml version="1.0" encoding="UTF-8"?>
<svg xmlns="http://www.w3.org/2000/svg" id="Layer_1" data-name="Layer 1" viewBox="0 0 24 24">
  <path d="M16.072,2.485c-.15-.603-.018-1.229,.364-1.717s.956-.769,1.576-.769h1.003c.891,0,1.661,.573,1.916,1.427,.191,.641,.441,1.558,.659,2.573h-5.139l-.379-1.515Zm.82,3.515c.409,2.293,.763,4.571,.903,6.205-.564-.179-1.209-.205-1.42-.205-1.624,0-2.769,.505-3.442,.928-.584,.367-.933,1-.933,1.694v6.756c0,.693,.349,1.327,.933,1.694,.674,.423,1.818,.928,3.442,.928,2.376,0,3.706-1.071,4.021-1.36,1.631-1.247,2.604-3.21,2.604-5.265,0-3.601-.54-7.985-1.059-11.375h-5.049ZM7.55,20H2.411c.218,1.015,.468,1.932,.659,2.573,.255,.854,1.025,1.427,1.916,1.427h1.003c.62,0,1.194-.28,1.576-.769s.515-1.114,.364-1.717l-.379-1.515Zm-.441-2c-.409-2.293-.763-4.571-.903-6.205,.564,.179,1.209,.205,1.42,.205,1.624,0,2.769-.505,3.442-.928,.584-.367,.933-1,.933-1.694V2.622c0-.693-.349-1.327-.933-1.694-.674-.423-1.818-.928-3.442-.928C5.249,0,3.919,1.071,3.604,1.36,1.973,2.607,1,4.571,1,6.625c0,3.601,.54,7.985,1.059,11.375H7.108Z"/>
</svg>
