<?xml version="1.0" encoding="UTF-8"?>
<svg xmlns="http://www.w3.org/2000/svg" id="Layer_1" data-name="Layer 1" viewBox="0 0 24 24">
  <path d="M24,20c0,1.654-1.346,3-3,3,0,.552-.448,1-1,1s-1-.448-1-1h0s-.268,0-.268,0c-1.068,0-2.063-.574-2.598-1.499-.276-.478-.113-1.089,.365-1.366,.477-.277,1.09-.113,1.366,.365,.178,.308,.511,.5,.867,.5h2.268c.551,0,1-.448,1-1,0-.378-.271-.698-.644-.76l-3.042-.507c-1.341-.223-2.315-1.373-2.315-2.733,0-1.654,1.346-3,3-3,0-.552,.448-1,1-1s1,.448,1,1h0s.268,0,.268,0c1.068,0,2.063,.574,2.598,1.499,.276,.478,.113,1.089-.365,1.366-.477,.277-1.089,.113-1.366-.365-.178-.308-.511-.5-.867-.5h-2.268c-.551,0-1,.448-1,1,0,.378,.271,.698,.644,.76l3.042,.507c1.341,.223,2.315,1.373,2.315,2.733Zm-.081-12.623c-.234-.871-.584-1.708-1.038-2.487C21.513,2.543,19.278,.827,16.659,.112c-.173-.047-.559-.074-.559-.074-.138,0-.732,0-1.203,.381-.691,.544-.8,1.163-.81,1.211-.036,.151-.054,.307-.055,.462V6.919c0,1.702,1.379,3.081,3.081,3.081h4.847c.643,.002,1.248-.303,1.629-.822,.282-.38,.426-.843,.411-1.316-.008-.164-.035-.327-.08-.486Zm-9.516,15.125c-.705-1.22-.453-2.735,.523-3.669-.585-.795-.926-1.777-.926-2.833,0-1.629,.791-3.069,2.001-3.983h-2.008c-1.106,0-2.002-.896-2.002-2.002V5.283c.003-.933-.429-1.815-1.167-2.386-.7-.554-1.618-.752-2.484-.535C2.452,3.824-1.135,9.781,.326,15.667c1.029,4.147,4.371,7.321,8.566,8.135,2.104,.403,4.188,.172,6.055-.554-.2-.232-.388-.476-.544-.746Z"/>
</svg>
