<?xml version="1.0" encoding="UTF-8"?>
<svg xmlns="http://www.w3.org/2000/svg" id="Layer_1" data-name="Layer 1" viewBox="0 0 24 24">
  <path d="m18,12c-3.314,0-6,2.686-6,6s2.686,6,6,6,6-2.686,6-6-2.686-6-6-6Zm-1,3c0-.553.448-1,1-1s1,.447,1,1v2c0,.553-.448,1-1,1s-1-.447-1-1v-2Zm1,7c-.828,0-1.5-.672-1.5-1.5s.672-1.5,1.5-1.5,1.5.672,1.5,1.5-.672,1.5-1.5,1.5Zm-6.64.462c-.914.705-2.446,1.538-3.891,1.538-1.417,0-2.829-.899-3.824-2.262l-1.969,1.969c-.195.195-.451.293-.707.293h-.003c-.256,0-.512-.098-.707-.293-.391-.391-.391-1.023,0-1.414l1.97-1.97C.867,19.328-.031,17.917-.031,16.5c0-1.591,1.012-3.295,1.748-4.155.197-.23.474-.345.752-.345s.555.115.752.345c.736.86,1.748,2.564,1.748,4.155,0,.458-.103.915-.276,1.359l2.536-2.536c-1.362-.995-2.26-2.406-2.26-3.823,0-1.591,1.012-3.295,1.748-4.155.197-.23.474-.345.752-.345s.555.115.752.345c.736.86,1.748,2.564,1.748,4.155,0,.458-.103.915-.276,1.359l2.536-2.536c-1.362-.995-2.26-2.406-2.26-3.823,0-1.591,1.012-3.295,1.748-4.155.197-.23.474-.345.752-.345s.555.115.752.345c.134.156.276.34.421.546L16.293.24c.391-.391,1.023-.391,1.414,0s.391,1.023,0,1.414l-3.087,3.087c.211.57.349,1.172.349,1.759,0,.458-.103.915-.276,1.359L22.26.293c.391-.391,1.023-.391,1.414,0s.391,1.023,0,1.414l-7.569,7.569h.001c.445-.172.903-.276,1.363-.276.576,0,1.166.133,1.727.337l3.097-3.097c.391-.391,1.023-.391,1.414,0s.391,1.023,0,1.414l-2.655,2.655c.217.15.673.569.72.636-1.124-.602-2.408-.946-3.772-.946-4.418,0-8,3.582-8,8,0,.038.005.074.006.112-.501-.368-.965-.832-1.36-1.374l-2.539,2.539c.445-.174.903-.277,1.363-.277.941,0,1.919.357,2.741.799.222.965.613,1.866,1.149,2.663Z"/>
</svg>
