<?xml version="1.0" encoding="UTF-8"?>
<svg xmlns="http://www.w3.org/2000/svg" id="Layer_1" data-name="Layer 1" viewBox="0 0 24 24">
  <path d="M19,7v-2c0-2.757-2.243-5-5-5h-4c-2.757,0-5,2.243-5,5v2c-2.206,0-4,1.794-4,4v5.5c0,1.379,1.121,2.5,2.5,2.5h7.5v3H7c-.552,0-1,.447-1,1s.448,1,1,1h10c.552,0,1-.447,1-1s-.448-1-1-1h-4v-3h7.5c1.379,0,2.5-1.121,2.5-2.5v-5.5c0-2.206-1.794-4-4-4ZM10.184,2.625c.743-.573,1.695-.764,2.61-.522,1.072,.282,1.912,1.169,2.14,2.261,.279,1.337-.339,2.66-1.537,3.292-.396,.209-.619,.473-.622,.476-.199,.238-.486,.362-.775,.362-.221,0-.443-.073-.627-.222-.424-.346-.497-.963-.157-1.392,.046-.059,.478-.586,1.248-.993,.334-.176,.621-.588,.512-1.114-.072-.345-.355-.648-.689-.735-.429-.113-.737,.059-.881,.171-.254,.196-.405,.502-.405,.819,0,.552-.448,1-1,1s-1-.448-1-1c0-.932,.442-1.83,1.184-2.402Zm3.066,7.625c0,.69-.56,1.25-1.25,1.25s-1.25-.56-1.25-1.25,.56-1.25,1.25-1.25,1.25,.56,1.25,1.25Zm7.75,4.801c-.162-.033-.329-.051-.5-.051H3.5c-.171,0-.338,.018-.5,.051v-4.051c0-1.103,.897-2,2-2v4h14v-4c1.103,0,2,.897,2,2v4.051Z"/>
</svg>
