<?xml version="1.0" encoding="UTF-8"?>
<svg xmlns="http://www.w3.org/2000/svg" id="Layer_1" data-name="Layer 1" viewBox="0 0 24 24">
  <path d="m15.5,20H6c-.553,0-1-.448-1-1s.447-1,1-1h9.5c1.379,0,2.5-1.122,2.5-2.5V6c0-.552.447-1,1-1s1,.448,1,1v9.5c0,2.481-2.019,4.5-4.5,4.5Zm8.5-.5v-9.5c0-.552-.447-1-1-1s-1,.448-1,1v9.5c0,1.378-1.121,2.5-2.5,2.5h-9.5c-.553,0-1,.448-1,1s.447,1,1,1h9.5c2.481,0,4.5-2.019,4.5-4.5ZM4.5,0C2.019,0,0,2.019,0,4.5v2.983L7.39,0h-2.89Zm3.627,6.453l-2.162-2.163L0,10.33v1.17c0,.877.262,1.69.698,2.383l7.429-7.429Zm1.414-1.414L13.882.698c-.693-.436-1.505-.698-2.382-.698h-1.298l-2.832,2.868,2.171,2.172Zm-3.351,6.179l-4.08,4.08c.694.438,1.51.702,2.39.702h1.298l2.587-2.587-2.194-2.195Zm5.31,4.782c2.481,0,4.5-2.019,4.5-4.5v-2.874l-7.374,7.374h2.874Zm-3.896-6.196l2.194,2.195,6.201-6.201v-1.297c0-.88-.264-1.696-.702-2.39l-7.694,7.694Z"/>
</svg>
