<?xml version="1.0" encoding="UTF-8"?>
<svg xmlns="http://www.w3.org/2000/svg" id="Layer_1" data-name="Layer 1" viewBox="0 0 24 24">
  <path d="M24,14c0,.551-.445,.997-.995,1-.397,.015-2.559,.441-4.549,2.042l4.251,4.251c.391,.391,.391,1.023,0,1.414s-1.023,.391-1.414,0l-4.251-4.251c-1.604,1.994-2.029,4.159-2.042,4.55-.018,.54-.462,.979-1,.979h-.017c-.545-.009-.983-.44-.983-.986,0-.487,.307-2.337,1.479-4.344l-1.074-1.075,4.168-4.164,1.069,1.07c2.012-1.179,3.87-1.487,4.357-1.487,.552,0,1,.447,1,1Zm-4.163-5.672c1.927-1.92,3.337-4.296,4.135-6.895,.185-.841-.564-1.59-1.405-1.405-2.596,.797-4.973,2.204-6.892,4.128L5.344,14.479c-2.007-1.172-3.857-1.479-4.344-1.479-.546,0-.978,.438-.987,.983-.009,.546,.434,.998,.979,1.017,.391,.013,2.554,.437,4.547,2.039L1.292,21.294c-.39,.391-.389,1.023,.001,1.414,.391,.389,1.025,.39,1.415-.002l4.246-4.254c1.604,1.992,2.032,4.156,2.046,4.553,.003,.55,.45,.995,1,.995s1-.447,1-1c0-.488-.308-2.346-1.487-4.357l10.324-10.315ZM.151,1.806c.806,2.457,2.178,4.69,4.006,6.52l2.256,2.258,4.168-4.164-2.254-2.255C6.408,2.236,4.031,.827,1.433,.028,.403-.2-.32,.909,.151,1.806Z"/>
</svg>
