<?xml version="1.0" encoding="UTF-8"?>
<svg xmlns="http://www.w3.org/2000/svg" id="Layer_1" data-name="Layer 1" viewBox="0 0 24 24">
  <path d="m20,20.288v2.212c0,.828-.672,1.5-1.5,1.5s-1.5-.672-1.5-1.5v-2.212c-2.307-.654-4-2.771-4-5.288,0-1.982,1.05-3.95,2.624-4.917.382-.235.876.061.876.509v2.301c0,.996.681,1.92,1.664,2.08,1.253.204,2.336-.758,2.336-1.973v-2.408c0-.448.494-.744.876-.509,1.573.967,2.624,2.935,2.624,4.917,0,2.517-1.693,4.634-4,5.288Zm-1.5-12.788c2.176,0,4.13.933,5.5,2.413v-2.913c0-2.045-1.237-3.802-3-4.576v-1.424c0-.553-.448-1-1-1s-1,.447-1,1v1H5v-1c0-.553-.448-1-1-1s-1,.447-1,1v1.424C1.237,3.198,0,4.955,0,7v6c0,2.045,1.237,3.802,3,4.576v5.424c0,.553.448,1,1,1s1-.447,1-1v-5h6.628c-.402-.919-.628-1.933-.628-3,0-4.142,3.358-7.5,7.5-7.5Z"/>
</svg>
