<?xml version="1.0" encoding="UTF-8"?>
<svg xmlns="http://www.w3.org/2000/svg" id="Layer_1" data-name="Layer 1" viewBox="0 0 24 24">
  <path d="m4.942,20c.034.162.058.328.058.5,0,1.381-1.119,2.5-2.5,2.5s-2.5-1.119-2.5-2.5c0-.172.024-.338.058-.5h4.885ZM22.632,7.735c-.545-1.636-2.07-2.735-3.794-2.735h-.838c-1.105,0-2,.895-2,2v4h7.716c-.024-.08-1.083-3.265-1.083-3.265Zm-6.632,5.265v3H1c-.552,0-1,.448-1,1s.448,1,1,1h19.5c1.933,0,3.5-1.567,3.5-3.5v-1.5h-8Zm-9.942,7c-.034.162-.058.328-.058.5,0,1.381,1.119,2.5,2.5,2.5s2.5-1.119,2.5-2.5c0-.172-.024-.338-.058-.5h-4.885Zm9,0c-.034.162-.058.328-.058.5,0,1.381,1.119,2.5,2.5,2.5s2.5-1.119,2.5-2.5c0-.172-.024-.338-.058-.5h-4.885Z"/>
</svg>
