<?xml version="1.0" encoding="UTF-8"?>
<svg xmlns="http://www.w3.org/2000/svg" id="Layer_1" data-name="Layer 1" viewBox="0 0 24 24">
  <path d="m1.999,10.5v4c0,.827.673,1.5,1.5,1.5.71,0,1.328-.505,1.47-1.199.11-.541.639-.891,1.179-.78.542.109.891.638.781,1.179-.33,1.623-1.772,2.801-3.43,2.801C1.569,18-.001,16.43-.001,14.5v-4C-.001,8.571,1.568,7.001,3.497,7h.001c1.657,0,3.1,1.178,3.43,2.801.11.541-.239,1.069-.781,1.179-.542.109-1.069-.24-1.179-.781-.142-.695-.759-1.199-1.47-1.199-.827,0-1.5.673-1.5,1.5Zm12.501,0c0,1.057-.481,1.994-1.224,2.636l.905,3.621c.134.535-.192,1.078-.728,1.212-.082.021-.163.03-.244.03-.448,0-.855-.303-.969-.758l-.821-3.285c-.139.017-.276.042-.42.042h-1v3c0,.553-.448,1-1,1s-1-.447-1-1v-8c0-1.103.897-2,2-2h1c1.93,0,3.5,1.57,3.5,3.5Zm-2,0c0-.827-.673-1.5-1.5-1.5h-1v3h1c.827,0,1.5-.673,1.5-1.5Zm10.798-2.267c-.051-.609-.507-1.103-1.11-1.202-.604-.1-1.193.225-1.435.787l-1.136,2.647-1.146-2.666c-.24-.56-.828-.879-1.429-.781-.601.1-1.053.594-1.1,1.201l-.67,8.703c-.042.551.37,1.032.92,1.074.545.034,1.031-.369,1.074-.92l.458-5.95.974,2.267c.158.367.519.605.919.605h0c.399,0,.761-.238.918-.605l.991-2.309.496,5.997c.043.522.48.918.996.918.612,0,1.043-.532.998-1.082l-.718-8.685Z"/>
</svg>
