<?xml version="1.0" encoding="UTF-8"?>
<svg xmlns="http://www.w3.org/2000/svg" id="Layer_1" data-name="Layer 1" viewBox="0 0 24 24">
  <path d="m13,4.016c0-.552.447-1,1-1h4.076l-1.29-1.316c-.387-.395-.381-1.028.014-1.415.393-.385,1.028-.381,1.414.014l2.177,2.221c.391.39.609.917.609,1.479s-.219,1.09-.616,1.487l-2.17,2.213c-.195.2-.455.3-.714.3-.253,0-.506-.095-.7-.286-.395-.387-.4-1.02-.014-1.415l1.258-1.284h-4.044c-.553,0-1-.448-1-1Zm10.148,4.665c-.515-.469-1.186-.712-1.878-.678-.697.032-1.339.334-1.794.835l-3.541,3.737c.032.21.065.42.065.638,0,2.083-1.555,3.876-3.617,4.17l-4.252.596c-.547.078-1.053-.302-1.131-.848-.078-.547.302-1.053.848-1.131l4.162-.583c.936-.134,1.748-.806,1.94-1.732.296-1.425-.79-2.685-2.164-2.685h-2.787v-1h.376c1.447,0,2.624-1.177,2.624-2.624,0-1.288-.923-2.377-2.193-2.588l-3.285-.548c-.302-.05-.521-.309-.521-.616,0-.344.28-.624.624-.624h2.644c.356,0,.688.192.867.5.275.478.885.642,1.366.365.478-.277.642-.888.364-1.366-.534-.925-1.53-1.5-2.598-1.5h-.268c0-.552-.447-1-1-1s-1,.448-1,1h-.376c-1.447,0-2.624,1.177-2.624,2.624,0,1.288.923,2.377,2.193,2.588l3.285.548c.302.05.521.309.521.616,0,.344-.28.624-.624.624h-2.644c-.356,0-.688-.192-.867-.5-.275-.479-.886-.643-1.366-.365-.478.277-.642.888-.364,1.366.534.925,1.53,1.499,2.598,1.499h.268v1h-3c-2.209,0-4,1.791-4,4v5c0,2.209,1.791,4,4,4h4.262c2.805,0,5.48-1.178,7.374-3.246l7.702-8.409c.948-1.062.862-2.707-.189-3.665Z"/>
</svg>
