<?xml version="1.0" encoding="UTF-8"?>
<svg xmlns="http://www.w3.org/2000/svg" id="Layer_1" data-name="Layer 1" viewBox="0 0 24 24">
  <path d="M23,9c-.552,0-1-.448-1-1v-3.5c0-1.378-1.122-2.5-2.5-2.5H4.5c-1.378,0-2.5,1.122-2.5,2.5v3.5c0,.552-.448,1-1,1s-1-.448-1-1v-3.5C0,2.019,2.019,0,4.5,0h15c2.481,0,4.5,2.019,4.5,4.5v3.5c0,.552-.448,1-1,1Zm-8.183,13.863c.007-.007,.014-.015,.021-.021l6.326-6.724c.868-.867,1.117-2.11,.65-3.245-.466-1.134-1.518-1.842-2.749-1.848h-2.068l-.023-2.026c0-2.191-1.783-3.974-3.974-3.974h-1.982c-2.191,0-3.974,1.783-3.974,3.977l.005,1.998h-2.057c-1.228,.004-2.28,.712-2.747,1.846-.467,1.134-.217,2.378,.626,3.219l6.331,6.797c.775,.774,1.792,1.161,2.809,1.161s2.033-.387,2.807-1.16Zm-.707-.707h0Z"/>
</svg>
