<?xml version="1.0" encoding="UTF-8"?>
<svg xmlns="http://www.w3.org/2000/svg" id="Layer_1" data-name="Layer 1" viewBox="0 0 24 24">
  <path d="M18,12c-3.314,0-6,2.686-6,6s2.686,6,6,6,6-2.686,6-6-2.686-6-6-6Zm3.683,5.712l-2.703,2.614c-.452,.446-1.052,.671-1.653,.671s-1.203-.225-1.663-.674l-1.354-1.332c-.395-.387-.4-1.02-.014-1.414,.386-.395,1.019-.401,1.414-.014l1.354,1.331c.144,.142,.38,.139,.522-.002l2.713-2.624c.397-.381,1.031-.37,1.414,.029,.382,.398,.369,1.031-.029,1.414Zm-3.683-7.712c2.07,0,3.951,.793,5.372,2.084,.403-.618,.628-1.335,.628-2.083V4.5c0-2.481-2.019-4.5-4.5-4.5H4.5C2.019,0,0,2.019,0,4.5v5.501c0,1.473,.867,2.829,2.264,3.539,1.688,.858,2.736,2.567,2.736,4.46v5c0,.553,.448,1,1,1s1-.447,1-1v-5c0-2.668,2.107-4.836,4.741-4.974,1.466-1.842,3.722-3.026,6.259-3.026Zm.5-8h1c1.378,0,2.5,1.122,2.5,2.5v.5h-3.5V2Zm-5.5,0h3.5v3h-3.5V2Zm-7.5,3H2v-.5c0-1.378,1.122-2.5,2.5-2.5h1v3Zm2,0V2h3.5v3h-3.5Z"/>
</svg>
