<?xml version="1.0" encoding="UTF-8"?>
<svg xmlns="http://www.w3.org/2000/svg" id="Layer_1" data-name="Layer 1" viewBox="0 0 24 24">
  <path d="M17,0H7C4.239,0,2,2.239,2,5v12.025c.699-.527,1.525-.86,2.395-.964,.199-.041,.402-.061,.605-.061H22V5c0-2.761-2.239-5-5-5Zm-7.312,12c-.38,0-.71-.264-.792-.635l-.08-.359h-2.148l-.097,.401c-.084,.348-.395,.593-.753,.593-.498,0-.866-.463-.755-.948l1.072-4.664c.333-1.804,2.992-1.813,3.303,.04l1.04,4.581c.115,.508-.271,.991-.791,.991Zm3.012-3h-.4c-.442,0-.8-.358-.8-.8s.358-.8,.8-.8h.4c.442,0,.8,.358,.8,.8s-.358,.8-.8,.8Zm5.5,1.4c.442,0,.8,.358,.8,.8s-.358,.8-.8,.8h-2.444c-.721,0-1.306-.585-1.306-1.306,0-.266,.082-.526,.234-.745l2.329-3.349h-1.763c-.442,0-.8-.358-.8-.8s.358-.8,.8-.8h2.444c.721,0,1.306,.585,1.306,1.306,0,.266-.082,.527-.234,.745l-2.329,3.35h1.763ZM7.879,6.783l.583,2.624h-1.407l.646-2.678c.019-.068,.05-.122,.097-.122,.014,.01,.057,.063,.082,.176Zm-2.879,11.217H22v1c0,2.761-2.239,5-5,5H5c-1.657,0-3-1.343-3-3s1.343-3,3-3Z"/>
</svg>
