<?xml version="1.0" encoding="UTF-8"?>
<svg xmlns="http://www.w3.org/2000/svg" id="Layer_1" data-name="Layer 1" viewBox="0 0 24 24">
  <path d="m23,24H4.019c-1.426,0-2.711-.731-3.439-1.957-.728-1.226-.755-2.704-.074-3.956L10.072.521c.264-.485.87-.665,1.357-.399.485.264.664.871.4,1.356L2.262,19.044c-.341.626-.327,1.365.037,1.978s1.007.979,1.72.979h18.981c.552,0,1,.447,1,1s-.448,1-1,1Zm-1-5.038c0-1.121-.107-2.242-.318-3.333-.105-.542-.633-.9-1.172-.791-.542.104-.897.629-.792,1.172.187.965.282,1.958.282,2.952,0,.553.448,1,1,1s1-.447,1-1Zm-2.013-5.788c.504-.226.73-.816.505-1.321-.452-1.012-1.003-1.984-1.639-2.893-.316-.452-.938-.562-1.393-.246-.452.317-.562.94-.246,1.393.563.805,1.052,1.666,1.452,2.562.166.371.531.592.914.592.136,0,.275-.027.407-.087Zm-3.844-5.932c.364-.415.323-1.047-.093-1.411-.73-.641-1.515-1.222-2.333-1.727-.47-.291-1.086-.146-1.376.325-.291.47-.145,1.086.325,1.376.724.447,1.418.962,2.066,1.529.19.166.425.248.659.248.278,0,.555-.115.752-.341Z"/>
</svg>
