<?xml version="1.0" encoding="UTF-8"?>
<svg xmlns="http://www.w3.org/2000/svg" id="Layer_1" data-name="Layer 1" viewBox="0 0 24 24">
  <path d="m6,15v1c0,.552.448,1,1,1h11.405c.476,0,.886-.335.981-.802l2.573-12.705c.146-.872-.099-1.758-.67-2.432s-1.405-1.061-2.289-1.061H5.5C3.019,0,1,2.019,1,4.5v6c0,2.481,2.019,4.5,4.5,4.5h.5Zm-3-4.5v-6c0-1.378,1.122-2.5,2.5-2.5h.5v1h2c.553,0,1,.448,1,1s-.447,1-1,1h-2v2h2c.553,0,1,.448,1,1s-.447,1-1,1h-2v2h2c.553,0,1,.448,1,1s-.447,1-1,1h-2.5c-1.378,0-2.5-1.122-2.5-2.5Zm19,11.5c0,1.105-.895,2-2,2H5c-1.105,0-2-.895-2-2,0-1.657,1.343-3,3-3h13c1.657,0,3,1.343,3,3Z"/>
</svg>
