<?xml version="1.0" encoding="UTF-8"?>
<svg xmlns="http://www.w3.org/2000/svg" id="Layer_1" data-name="Layer 1" viewBox="0 0 24 24">
  <path d="m15.024,4.5c0,.276-.224.5-.5.5h-.5v-1h.5c.276,0,.5.224.5.5Zm-.5,1.5h-.5v1h.5c.276,0,.5-.224.5-.5s-.224-.5-.5-.5Zm-2.524,6.107c0-.996-.681-1.92-1.664-2.08-1.253-.204-2.336.758-2.336,1.973v8.817c-1.076-.886-2.111-1.752-2.145-1.784-.922-.861-2.373-.813-3.235.109-.863.923-.819,2.372.098,3.23l1.821,1.628h16.462v-.593c0-2.055-1.258-3.901-3.171-4.653l-5.829-2.292v-4.355Zm12-7.607v2c0,2.481-2.019,4.5-4.5,4.5h-5.65c-.415-1.506-1.651-2.696-3.193-2.947-1.168-.188-2.353.138-3.248.899-.635.541-1.078,1.257-1.282,2.047h-1.627c-2.481,0-4.5-2.019-4.5-4.5v-2C0,2.019,2.019,0,4.5,0h15c2.481,0,4.5,2.019,4.5,4.5Zm-17.187.545c-.545-.202-1.042-.42-1.055-.42-.118-.08-.114-.202-.108-.25.01-.066.057-.226.3-.299.287-.085.562-.017.761.07.2.087.432.032.573-.134.204-.24.137-.61-.142-.756-.361-.189-.89-.352-1.49-.171-.556.168-.949.606-1.027,1.144-.072.506.147.992.644,1.309,0,0,.562.251,1.185.481.132.049.557.229.506.515-.038.212-.299.432-.671.432-.258,0-.51-.069-.72-.193-.193-.114-.439-.078-.605.072-.256.232-.215.648.083.823.366.216.795.333,1.242.333.846,0,1.558-.541,1.691-1.286.1-.562-.154-1.295-1.167-1.669Zm5.187-1.545c0-.276-.224-.5-.5-.5s-.5.224-.5.5v3c0,.292-.252.526-.55.498-.26-.025-.45-.258-.45-.52v-2.978c0-.276-.224-.5-.5-.5s-.5.224-.5.5v2.957c0,.807.619,1.502,1.425,1.542.861.042,1.575-.646,1.575-1.498v-3Zm3.597,2.024c.314-.329.498-.784.401-1.299-.136-.719-.789-1.224-1.521-1.224h-.939c-.284,0-.514.23-.514.514v3.972c0,.284.23.514.514.514h.946c.77,0,1.445-.565,1.53-1.33.052-.468-.114-.905-.417-1.146Zm3.215-.478c-.545-.202-1.042-.42-1.055-.42-.118-.08-.114-.202-.108-.25.01-.066.057-.226.3-.299.287-.085.562-.017.761.07.2.087.432.032.573-.134.204-.24.137-.61-.142-.756-.361-.189-.89-.352-1.49-.171-.556.168-.949.606-1.027,1.144-.072.506.147.992.644,1.309,0,0,.562.251,1.185.481.132.049.557.229.506.515-.038.212-.299.432-.671.432-.258,0-.51-.069-.72-.193-.193-.114-.439-.078-.605.072-.256.232-.215.648.083.823.366.216.795.333,1.242.333.846,0,1.558-.541,1.691-1.286.1-.562-.154-1.295-1.167-1.669Z"/>
</svg>
