<?xml version="1.0" encoding="UTF-8"?>
<svg xmlns="http://www.w3.org/2000/svg" id="Layer_1" data-name="Layer 1" viewBox="0 0 24 24">
  <path d="m16.905,22H6.095l-.099,1.09c-.047.52-.483.91-.995.91-.03,0-.061-.001-.091-.004-.55-.05-.956-.537-.906-1.086L6.004.91c.05-.55.534-.952,1.086-.906.55.05.956.537.906,1.086l-.083.91h7.173l.455,5H7.459l-.227,2.5h8.537l.455,5H6.777l-.227,2.5h9.9l.455,5ZM2.12,3.784l-.108,1c-.061.564.12,1.129.497,1.552.255.286.588.481.949.583l.445-4.9c-.928.091-1.68.815-1.783,1.766Zm21.868,16l-.108-1c-.11-1.017-.961-1.784-1.979-1.784h-1.442l-.227-2.5h.779c.564,0,1.105-.242,1.481-.665.377-.422.558-.988.497-1.552l-.108-1c-.11-1.017-.96-1.784-1.978-1.784h-1.125l-.227-2.5h.462c.564,0,1.104-.242,1.48-.665.377-.422.558-.988.497-1.552l-.108-1c-.11-1.017-.96-1.784-1.977-1.784h-.808l-.099-1.09c-.05-.55-.533-.95-1.086-.906-.55.05-.956.537-.906,1.086l2,22c.047.52.483.91.995.91.03,0,.061-.001.091-.004.55-.05.956-.537.906-1.086l-.083-.91h1.096c.565,0,1.105-.242,1.482-.665.377-.422.558-.988.497-1.552ZM.12,18.784l-.108,1c-.061.564.12,1.129.497,1.552.377.422.917.665,1.482.665h.096l.455-5h-.442c-1.018,0-1.869.767-1.979,1.784Zm1-7.5l-.108,1c-.061.564.12,1.129.497,1.552.327.367.779.587,1.262.641l.452-4.977h-.125c-1.018,0-1.868.767-1.978,1.784Z"/>
</svg>
