<?xml version="1.0" encoding="UTF-8"?>
<svg xmlns="http://www.w3.org/2000/svg" id="Layer_1" data-name="Layer 1" viewBox="0 0 24 24">
  <path d="m24,15.211v1.289c0,4.055-2.066,5.5-4,5.5-1.016,0-1.964-.416-2.616-1.054-.713.653-1.659,1.054-2.634,1.054-1.029,0-2.025-.446-2.75-1.165-.725.718-1.721,1.165-2.75,1.165-.98,0-1.932-.405-2.646-1.064-.657.64-1.606,1.064-2.604,1.064-1.846,0-4-1.44-4-5.5v-1.289c.744.496,1.643.789,2.614.789.683,0,1.347-.145,1.973-.43,1.667-.759,4.49-1.57,7.413-1.57s5.745.811,7.413,1.57c.626.285,1.29.43,1.973.43.971,0,1.87-.294,2.614-.789Zm-6.353-12.452c-.573-.177-1.255-.33-1.987-.451l4.187,6.661c.294.468.153,1.085-.314,1.379-.165.104-.35.153-.531.153-.333,0-.657-.166-.848-.468l-5.027-7.998c-.38-.02-.759-.034-1.126-.034-.488,0-.993.019-1.499.054l3.431,5.459c.294.468.153,1.085-.314,1.379-.165.104-.35.153-.531.153-.333,0-.657-.166-.848-.468l-3.937-6.264c-.718.12-1.386.271-1.949.446-.114.035-.223.079-.334.119l3.2,5.091c.294.468.153,1.085-.314,1.379-.165.104-.35.153-.531.153-.333,0-.657-.166-.848-.468l-3.317-5.277c-.64.407-1.22.892-1.732,1.44l2.371,3.772c.294.468.153,1.085-.314,1.379-.165.104-.35.153-.531.153-.333,0-.657-.166-.848-.468l-1.948-3.1c-.769,1.365-1.205,2.944-1.205,4.619,0,1.414,1.241,2.448,2.614,2.448.379,0,.768-.079,1.145-.25,1.869-.851,4.979-1.75,8.241-1.75s6.373.899,8.241,1.75c.376.171.766.25,1.145.25,1.374,0,2.614-1.034,2.614-2.448,0-4.083-2.553-7.616-6.353-8.793Z"/>
</svg>
