<?xml version="1.0" encoding="UTF-8"?>
<svg xmlns="http://www.w3.org/2000/svg" id="Layer_1" data-name="Layer 1" viewBox="0 0 24 24">
  <path d="m10,10c0,.378.271.698.644.76l3.041.507c1.342.223,2.315,1.373,2.315,2.733,0,1.654-1.346,3-3,3v1c0,.552-.447,1-1,1s-1-.448-1-1v-1.002h-.27c-1.066,0-2.061-.574-2.596-1.496-.277-.478-.114-1.09.364-1.367.477-.276,1.089-.113,1.366.364.179.308.51.499.866.499l2.27.002c.551,0,.999-.449.999-1,0-.378-.271-.698-.644-.76l-3.041-.507c-1.342-.223-2.315-1.373-2.315-2.733,0-1.654,1.346-3,3-3v-1c0-.552.447-1,1-1s1,.448,1,1v1.003h.271c1.063,0,2.058.573,2.594,1.495.278.477.116,1.089-.361,1.367-.478.278-1.09.115-1.367-.362-.183-.312-.506-.5-.866-.5l-2.271-.003c-.551,0-.999.449-.999,1Zm11,8c-.463,0-.901.105-1.293.293l-1.5-1.5c-.391-.391-1.023-.391-1.414,0s-.391,1.023,0,1.414l1.5,1.5c-.188.392-.293.83-.293,1.293,0,1.654,1.346,3,3,3s3-1.346,3-3-1.346-3-3-3Zm-3.5-10.5c.256,0,.512-.098.707-.293l1.5-1.5c.392.188.83.293,1.293.293,1.654,0,3-1.346,3-3s-1.346-3-3-3-3,1.346-3,3c0,.463.105.901.293,1.293l-1.5,1.5c-.391.391-.391,1.023,0,1.414.195.195.451.293.707.293Zm-10.293-1.707c.391.391.391,1.023,0,1.414-.195.195-.451.293-.707.293s-.512-.098-.707-.293l-1.5-1.5c-.392.188-.83.293-1.293.293-1.654,0-3-1.346-3-3S1.346,0,3,0s3,1.346,3,3c0,.463-.105.901-.293,1.293l1.5,1.5Zm0,11c.391.391.391,1.023,0,1.414l-1.5,1.5c.188.392.293.83.293,1.293,0,1.654-1.346,3-3,3s-3-1.346-3-3,1.346-3,3-3c.463,0,.901.105,1.293.293l1.5-1.5c.391-.391,1.023-.391,1.414,0Z"/>
</svg>
