<?xml version="1.0" encoding="UTF-8"?>
<svg xmlns="http://www.w3.org/2000/svg" id="Layer_1" data-name="Layer 1" viewBox="0 0 24 24">
  <path d="m18.975,20h1v.943c-2.123,1.9-4.926,3.057-8,3.057C5.814,24,.739,19.357.054,13.38c.346.155.675.352.982.59.822.638,1.865.99,2.938.991,1.074,0,2.119-.353,2.94-.991.399-.309.816-.538,1.269-.692.533,1.582,2.029,2.721,3.791,2.721,1.47,0,2.754-.793,3.449-1.974.317.085.551.374.551.717v2.256c0,1.657,1.343,3,3,3ZM12.486.011C5.886-.263.406,4.796,0,11.233c.812.236,1.576.625,2.261,1.157.955.741,2.452.765,3.404.02.729-.571,1.518-.96,2.383-1.175.357-1.843,1.979-3.235,3.927-3.235,2.209,0,4,1.791,4,4,1.105,0,2,.895,2,2v3c0,.552.448,1,1,1h0c.552,0,1-.448,1-1v-4.002c.02-.56.459-.998,1-.998.551,0,1,.448,1,1v7c0,.552.448,1,1,1h0c.552,0,1-.448,1-1v-7.628c0-6.494-5.001-12.093-11.489-12.362Z"/>
</svg>
