<?xml version="1.0" encoding="UTF-8"?>
<svg xmlns="http://www.w3.org/2000/svg" id="Layer_1" data-name="Layer 1" viewBox="0 0 24 24">
  <path d="m17,24h-8C4.037,24,0,19.962,0,15V7c0-.552.447-1,1-1s1,.448,1,1v8c0,3.86,3.141,7,7,7h8c.553,0,1,.448,1,1s-.447,1-1,1Zm0-24h-6v5h6V0Zm7,6.267v8.733c0,2.761-2.239,5-5,5h-10c-2.761,0-5-2.239-5-5V5C4,2.243,6.243,0,9,0v5c0,1.105.895,2,2,2h6c1.105,0,2-.895,2-2V.277c.33.15.637.352.894.611l3.236,3.265c.557.562.87,1.322.87,2.114Zm-6,7.233c0-1.933-1.567-3.5-3.5-3.5s-3.5,1.567-3.5,3.5,1.567,3.5,3.5,3.5,3.5-1.567,3.5-3.5Zm-2,0c0,.828-.672,1.5-1.5,1.5s-1.5-.672-1.5-1.5.672-1.5,1.5-1.5,1.5.672,1.5,1.5Z"/>
</svg>
