<?xml version="1.0" encoding="UTF-8"?>
<svg xmlns="http://www.w3.org/2000/svg" id="Layer_1" data-name="Layer 1" viewBox="0 0 24 24">
  <path d="m8.757,16.77h0c0-.442.358-.8.8-.8h3.4c.442,0,.8.358.8.8h0c0,.442-.358.8-.8.8h-.951v5.601c0,.442-.358.8-.8.8h0c-.442,0-.8-.358-.8-.8v-5.601h-.85c-.442,0-.8-.358-.8-.8Zm15.243,0h0c0-.442-.358-.8-.8-.8h-1.9c-.442,0-.8.358-.8.8v6.4c0,.442.358.8.8.8h1.9c.442,0,.8-.358.8-.8h0c0-.442-.358-.8-.8-.8h-1.101v-1.551h1.101c.442,0,.8-.358.8-.8h0c0-.442-.358-.8-.8-.8h-1.101v-1.65h1.101c.442,0,.8-.358.8-.8Zm-6.261,4.931c0,.386-.314.7-.7.7s-.7-.314-.7-.7c0,0,0-4.931,0-4.931,0-.442-.358-.8-.8-.8h0c-.442,0-.8.358-.8.8v4.796c0,1.203.863,2.301,2.06,2.422,1.376.14,2.539-.94,2.539-2.288v-4.931c0-.442-.358-.8-.8-.8h0c-.442,0-.8.358-.8.8,0,0,0,4.931,0,4.931Zm6.261-13.7H0v-1C0,4.243,2.243,2,5,2h1v-1c0-.553.448-1,1-1s1,.447,1,1v1h8v-1c0-.553.448-1,1-1s1,.447,1,1v1h1c2.757,0,5,2.243,5,5v1Zm0,2v4h-14.069c-1.395,0-2.674.932-2.894,2.31-.212,1.325.512,2.514,1.614,3.012v3.678c0,.552-.448,1-1,1h-2.65c-2.761,0-5-2.239-5-5v-9h24Z"/>
</svg>
