<?xml version="1.0" encoding="UTF-8"?>
<svg xmlns="http://www.w3.org/2000/svg" id="Layer_1" data-name="Layer 1" viewBox="0 0 24 24">
  <path d="m12,4c1.87,0,3.627.728,4.949,2.05.391.391.391,1.024,0,1.414-.195.195-.451.293-.707.293s-.512-.098-.707-.293c-.944-.944-2.2-1.464-3.535-1.464s-2.591.52-3.535,1.464c-.391.391-1.023.391-1.414,0-.391-.39-.391-1.023,0-1.414,1.322-1.322,3.079-2.05,4.949-2.05Zm-6.364.636c3.51-3.509,9.219-3.509,12.729,0,.195.195.451.293.707.293s.512-.098.707-.293c.391-.391.391-1.023,0-1.414C15.489-1.067,8.511-1.067,4.222,3.222c-.391.391-.391,1.023,0,1.414s1.023.391,1.414,0Zm18.364,9.364v6c0,2.206-1.794,4-4,4H4c-2.206,0-4-1.794-4-4v-6c0-2.206,1.794-4,4-4h16c2.206,0,4,1.794,4,4Zm-18,6c0-.552-.447-1-1-1v-5c0-.552-.447-1-1-1s-1,.448-1,1v6c0,.552.447,1,1,1h1c.553,0,1-.448,1-1Zm3-6c0-.552-.447-1-1-1s-1,.448-1,1v6c0,.552.447,1,1,1s1-.448,1-1v-6Zm6.316-.949c-.529-.176-1.091.108-1.265.632l-1.052,3.154-1.052-3.154c-.175-.524-.737-.808-1.265-.632-.523.175-.807.741-.632,1.265l2,6c.136.408.518.684.948.684s.812-.275.948-.684l2-6c.175-.524-.108-1.09-.632-1.265Zm3.684,2.949v-1h1c.553,0,1-.448,1-1s-.447-1-1-1h-1.5c-.827,0-1.5.673-1.5,1.5v5c0,.827.673,1.5,1.5,1.5h1.5c.553,0,1-.448,1-1s-.447-1-1-1h-1v-1h1c.553,0,1-.448,1-1s-.447-1-1-1h-1Z"/>
</svg>
