<?xml version="1.0" encoding="UTF-8"?>
<svg xmlns="http://www.w3.org/2000/svg" id="Layer_1" data-name="Layer 1" viewBox="0 0 24 24">
  <path d="m14.781,9.266c-.323.345-.841.418-1.246.174-.969-.583-2.102-.583-3.07,0-.405.243-.923.17-1.246-.174l-.224-.239c-.002,1.267.005,2.95.005,2.974,0,1.654,1.346,3,3,3s3-1.346,3-3c0-.024.007-1.707.005-2.974l-.224.239Zm-2.123,3.905l-.382.191c-.174.087-.379.087-.553,0l-.382-.191c-.209-.105-.342-.319-.342-.553,0-.341.277-.618.618-.618h.764c.341,0,.618.277.618.618,0,.234-.132.448-.342.553Zm5.913-11.045L12.312.051c-.203-.067-.426-.067-.629,0l-6.26,2.075c-2.049.68-3.426,2.587-3.426,4.746v5.171c0,6.564,7.005,10.577,9.152,11.65,0,0,.484.307.85.307s.791-.24.791-.24c2.16-.869,9.207-4.283,9.207-11.717v-5.171c0-2.159-1.377-4.066-3.427-4.746Zm-1.571,9.874c0,2.757-2.243,5-5,5s-5-2.243-5-5c0,0-.007-2.085-.002-4.664.002-.551.333-1.036.845-1.237.514-.2,1.086-.072,1.462.331l.868.928c1.172-.472,2.482-.471,3.654,0l.868-.928c.376-.402.949-.531,1.462-.331.512.201.843.686.845,1.235.005,2.576-.002,4.665-.002,4.665Z"/>
</svg>
