<?xml version="1.0" encoding="UTF-8"?>
<svg xmlns="http://www.w3.org/2000/svg" id="Layer_1" data-name="Layer 1" viewBox="0 0 24 24">
  <path d="M20.001,22.968c0,.57-.463,1.032-1.033,1.032H5.032c-.57,0-1.033-.462-1.033-1.032,0-.523,.388-.97,.908-1.026,1.509-.163,4.407-.777,4.982-3.095h0c-2.661-.388-4.889-1.52-4.889-3.347,0-.435,.141-1.086,.809-1.724,.398-.381,1.033-.366,1.414,.033s.366,1.032-.033,1.414c-.149,.143-.189,.243-.189,.276,0,.295,1.009,1.01,2.944,1.334-.152-1.713-.615-2.98-1.072-3.841,.043,0,.085,.007,.129,.007,1.067,0,2.08-.227,3-.63,.92,.403,1.933,.63,3,.63,.043,0,.085-.006,.128-.006-.457,.86-.92,2.127-1.072,3.841,1.935-.324,2.944-1.04,2.944-1.334,0-.033-.04-.133-.189-.275-.4-.381-.416-1.014-.035-1.414,.381-.399,1.016-.413,1.414-.035,.67,.638,.811,1.29,.811,1.725,0,1.827-2.228,2.959-4.889,3.347h0c.575,2.317,3.473,2.932,4.982,3.095,.52,.056,.909,.504,.908,1.026Zm-.001-20.968c-.241,0-.475,.03-.704,.071-1.008-1.261-2.556-2.071-4.296-2.071-1.108,0-2.137,.33-3,.894-.863-.563-1.892-.894-3-.894-1.74,0-3.288,.81-4.296,2.071-.229-.041-.463-.071-.704-.071C1.791,2,0,3.791,0,6s1.791,4,4,4c.519,0,1.012-.106,1.468-.287,.956,.802,2.187,1.287,3.532,1.287,1.108,0,2.137-.33,3-.894,.863,.563,1.892,.894,3,.894,1.345,0,2.576-.484,3.532-1.287,.455,.18,.948,.287,1.468,.287,2.209,0,4-1.791,4-4s-1.791-4-4-4Z"/>
</svg>
