<?xml version="1.0" encoding="UTF-8"?>
<svg xmlns="http://www.w3.org/2000/svg" id="Layer_1" data-name="Layer 1" viewBox="0 0 24 24">
  <path d="M5,3h2V21h-2C2.239,21,0,18.761,0,16V8C0,5.239,2.239,3,5,3Zm14,0c2.761,0,5,2.239,5,5v8c0,2.761-2.239,5-5,5H9V3h10Zm-5,6h2v7c0,.553,.448,1,1,1s1-.447,1-1v-7h2c.552,0,1-.447,1-1,0-.553-.448-1-1-1h-6c-.552,0-1,.447-1,1s.448,1,1,1Zm-5,12h-2c0,.552-.449,1-1,1s-1,.447-1,1c0,.553,.448,1,1,1,.768,0,1.469-.29,2-.766,.531,.476,1.232,.766,2,.766,.552,0,1-.447,1-1,0-.553-.448-1-1-1s-1-.448-1-1ZM7,3h2c0-.552,.449-1,1-1s1-.447,1-1C11,.447,10.552,0,10,0c-.768,0-1.469,.29-2,.766C7.469,.29,6.768,0,6,0c-.552,0-1,.447-1,1,0,.553,.448,1,1,1s1,.448,1,1Z"/>
</svg>
