<?xml version="1.0" encoding="UTF-8"?>
<svg xmlns="http://www.w3.org/2000/svg" id="Layer_1" data-name="Layer 1" viewBox="0 0 24 24">
  <path d="m19.335,21.177c.589.66.371,1.703-.432,2.075-1.04.481-2.187.748-3.392.748-.964,0-1.619-.331-2.145-.596-.464-.234-.8-.404-1.355-.404-.473,0-.799.161-1.25.385-.553.274-1.242.615-2.25.615-1.205,0-2.352-.267-3.392-.748-.803-.372-1.021-1.415-.432-2.075,1.44-1.613,2.324-3.787,2.324-6.177,0-2.365-.871-4.545-2.289-6.164-.593-.678-.366-1.742.455-2.114,1.024-.465,2.151-.722,3.334-.722h2.449c-.272-2.835-1.608-4.269-1.666-4.329-.38-.396-.372-1.028.022-1.412.395-.382,1.021-.378,1.406.012.061.061,1.17,1.226,1.821,3.432.263-.707.653-1.416,1.236-2C14.924.56,16.548.152,17.695.009c.757-.094,1.401.55,1.307,1.307-.142,1.147-.551,2.771-1.695,3.915-1.279,1.279-3.155,1.637-4.296,1.733v1.035c0,.544.436.983.978.995,1.003-.092,2.572-.491,4.053-1.601.286-.214.626-.354.97-.354.758.008,1.152.927.62,1.466-1.614,1.639-2.62,3.944-2.62,6.493,0,2.389.884,4.564,2.324,6.177Z"/>
</svg>
