<?xml version="1.0" encoding="UTF-8"?>
<svg xmlns="http://www.w3.org/2000/svg" id="Layer_1" data-name="Layer 1" viewBox="0 0 24 24">
  <path d="m5.57,10.283l-.006.004c-.23.156-.531.154-.759-.005l-1.309-.912-1.305.912c-.23.16-.535.161-.765.002h0c-.243-.168-.347-.474-.257-.755l.465-1.456-1.219-.849c-.228-.159-.334-.441-.268-.71l.005-.02c.074-.299.342-.51.651-.51h1.595l.371-1.421c.087-.332.387-.564.731-.564h0c.344,0,.644.232.731.565l.371,1.421h1.585c.307,0,.575.209.65.507l.004.014c.067.27-.038.553-.266.712l-1.221.853.476,1.447c.094.284-.013.596-.26.764Zm17.26-.764l-.476-1.447,1.221-.853c.228-.159.334-.442.266-.712l-.004-.014c-.075-.298-.343-.507-.65-.507h-1.585l-.371-1.421c-.087-.333-.387-.565-.731-.565h0c-.344,0-.644.232-.731.564l-.371,1.421h-1.595c-.308,0-.577.21-.651.51l-.005.02c-.066.269.04.552.268.71l1.219.849-.465,1.456c-.09.281.015.587.257.755h0c.23.159.535.159.765-.002l1.305-.912,1.309.912c.228.158.529.16.759.005l.006-.004c.248-.168.354-.48.26-.764Zm-8.5-4l-.476-1.447,1.221-.853c.228-.159.334-.442.266-.712l-.004-.014c-.075-.298-.343-.507-.65-.507h-1.585l-.371-1.421c-.087-.333-.387-.565-.731-.565h0c-.344,0-.644.232-.731.564l-.371,1.421h-1.595c-.308,0-.577.21-.651.51l-.005.02c-.066.269.04.552.268.71l1.219.849-.465,1.456c-.09.281.015.587.257.755h0c.23.159.535.159.765-.002l1.305-.912,1.309.912c.228.158.529.16.759.005l.006-.004c.248-.168.354-.48.26-.764Zm8.669,7.481c0,6.075-4.925,11-11,11S1,19.075,1,13c0-.199.019-.394.03-.591.743.375,1.581.591,2.47.591,2.839,0,5.175-2.152,5.468-4.913.87.576,1.911.913,3.032.913s2.163-.337,3.032-.913c.293,2.761,2.629,4.913,5.468,4.913.889,0,1.727-.216,2.47-.591.01.197.03.391.03.591Zm-7,5c0-1.061-.553-1.994-1.386-2.528.246-.435.386-.938.386-1.472,0-1.654-1.346-3-3-3h-1c-1.103,0-2,.897-2,2v6c0,1.103.897,2,2,2h2c1.654,0,3-1.346,3-3Zm-3-1h-2v2h2c.551,0,1-.448,1-1s-.449-1-1-1Zm0-3c0-.552-.449-1-1-1h-1v2h1c.551,0,1-.448,1-1Z"/>
</svg>
