<?xml version="1.0" encoding="UTF-8"?>
<svg xmlns="http://www.w3.org/2000/svg" id="Layer_1" data-name="Layer 1" viewBox="0 0 24 24">
  <path d="m11,22c-.212,0-.423-.068-.6-.2l-4-3c-.252-.188-.4-.485-.4-.8v-3.63L.944,8.471c-.609-.71-.944-1.616-.944-2.551,0-2.162,1.758-3.92,3.92-3.92h10.16c2.162,0,3.92,1.758,3.92,3.92,0,.935-.335,1.841-.944,2.551l-5.056,5.899v6.63c0,.379-.214.725-.553.895-.142.071-.295.105-.447.105Zm13-2c0-.552-.448-1-1-1h-8c-.552,0-1,.448-1,1s.448,1,1,1h8c.552,0,1-.448,1-1Zm0-4c0-.552-.448-1-1-1h-8c-.552,0-1,.448-1,1s.448,1,1,1h8c.552,0,1-.448,1-1Zm0-4c0-.552-.448-1-1-1h-5c-.552,0-1,.448-1,1s.448,1,1,1h5c.552,0,1-.448,1-1Z"/>
</svg>
