<?xml version="1.0" encoding="UTF-8"?>
<svg xmlns="http://www.w3.org/2000/svg" id="Layer_1" data-name="Layer 1" viewBox="0 0 24 24">
  <path d="m18.573,2.126L12.315.051c-.205-.068-.425-.068-.63,0l-6.259,2.075c-2.049.68-3.426,2.587-3.426,4.746v5.171c0,6.562,7.005,10.576,9.153,11.65,0,0,.352.307.85.307s.791-.24.791-.24c2.16-.869,9.207-4.281,9.207-11.717v-5.171c0-2.159-1.377-4.066-3.427-4.746Zm-2.866,11.66c.391.391.391,1.023,0,1.414-.195.195-.451.293-.707.293s-.512-.098-.707-.293l-2.293-2.293-2.293,2.293c-.195.195-.451.293-.707.293s-.512-.098-.707-.293c-.391-.391-.391-1.023,0-1.414l2.293-2.293-2.293-2.293c-.391-.391-.391-1.023,0-1.414s1.023-.391,1.414,0l2.293,2.293,2.293-2.293c.391-.391,1.023-.391,1.414,0s.391,1.023,0,1.414l-2.293,2.293,2.293,2.293Z"/>
</svg>
