<?xml version="1.0" encoding="UTF-8"?>
<svg xmlns="http://www.w3.org/2000/svg" id="Layer_1" data-name="Layer 1" viewBox="0 0 24 24">
  <path d="m9.708,12.55c-1.007-.934-2.66-.748-3.412.498,0,0,0,0,0,0-.488.81-.35,1.855.245,2.589l1.788,2.304c.339.436.26,1.064-.177,1.403-.436.339-1.064.26-1.403-.177l-1.788-2.304c-1.122-1.383-1.285-3.345-.378-4.848.123-.204.266-.391.417-.568v-5.844c0-1.308-.941-2.499-2.242-2.63-1.496-.15-2.758,1.021-2.758,2.487v10.547c0,2.134.853,4.18,2.369,5.683l1.792,1.775c.37.343.855.533,1.36.533h7.479c.552,0,1-.448,1-1v-3.82c0-1.655-.684-3.237-1.89-4.371l-2.402-2.258ZM21.242,2.975c-1.301.13-2.242,1.322-2.242,2.63v5.844c.151.177.293.363.417.568.906,1.503.744,3.465-.378,4.848l-3.038,3.024v3.112c0,.352-.072.686-.184,1h2.664c.504,0,.99-.19,1.36-.533l1.79-1.772c1.517-1.502,2.371-3.549,2.371-5.685V5.462c0-1.466-1.261-2.637-2.758-2.487Zm-3.538,10.074s0,0,0,0c-.752-1.246-2.405-1.432-3.412-.498l-.832.782.02.019c1.141,1.073,1.921,2.464,2.283,3.968l1.695-1.682c.595-.734.733-1.78.245-2.589Zm-.701-10.298c0,2.163-2.82,4.851-4.225,5.978-.453.363-1.097.363-1.55,0-1.405-1.128-4.225-3.815-4.225-5.978-.066-1.449,1.052-2.678,2.5-2.75,1.448.072,2.566,1.301,2.5,2.75-.066-1.449,1.052-2.678,2.5-2.75,1.448.072,2.566,1.301,2.5,2.75Z"/>
</svg>
