<?xml version="1.0" encoding="UTF-8"?>
<svg xmlns="http://www.w3.org/2000/svg" id="Layer_1" data-name="Layer 1" viewBox="0 0 24 24">
  <path d="m11,12.107v5.505c0,1.058-.164,2.092-.476,3.072-.641,2.013-2.597,3.316-4.709,3.316h-3.815c-1.105,0-2-.895-2-2h0c0-.527.169-1.034.454-1.477.354-.548.546-1.19.546-1.852v-6.546c0-1.706.545-3.367,1.556-4.741L7.361.854c.633-.905,1.88-1.126,2.785-.493h0c.905.633,1.126,1.88.493,2.785l-4.229,5.7c-.083.109-1.41,1.154-1.41,3.154v3c0,.552.448,1,1,1s1-.448,1-1v-3c0-1.215,1.083-2.176,2.336-1.973.983.16,1.664,1.083,1.664,2.08Zm12,6.565v-6.546c0-1.706-.545-3.367-1.556-4.741L16.639.854c-.633-.905-1.88-1.126-2.785-.493h0c-.905.633-1.126,1.88-.493,2.785l4.229,5.7c.083.109,1.41,1.154,1.41,3.154v3c0,.552-.448,1-1,1s-1-.448-1-1v-3c0-1.215-1.083-2.176-2.336-1.973-.983.16-1.664,1.083-1.664,2.08v5.505c0,1.058.164,2.092.476,3.072.641,2.013,2.597,3.316,4.709,3.316h3.815c1.105,0,2-.895,2-2h0c0-.527-.169-1.034-.454-1.477-.354-.548-.546-1.19-.546-1.852Z"/>
</svg>
