<?xml version="1.0" encoding="UTF-8"?>
<svg xmlns="http://www.w3.org/2000/svg" id="Layer_1" data-name="Layer 1" viewBox="0 0 24 24">
  <path d="m22.332,21.489c-.34.306-.775.478-1.229.501l1.488-3.272c.685-1.469.414-3.18-.695-4.419l1.96-4.16c.354-.75.032-1.644-.717-1.996-.752-.354-1.645-.033-1.996.717l-1.961,4.162c-1.639-.081-3.147.825-3.847,2.325l-2.408,5.292c-.149-.384-.514-.64-.928-.64-.424,0-.802.267-.942.667-.265.747-1.169,1.333-2.058,1.333s-1.793-.586-2.058-1.333c-.141-.4-.519-.667-.942-.667s-.802.267-.942.667c-.265.747-1.169,1.333-2.058,1.333-.492,0-.966-.182-1.332-.511-.409-.366-1.041-.335-1.412.076-.369.41-.335,1.043.076,1.412.733.659,1.681,1.022,2.668,1.022,1.128,0,2.222-.472,3-1.226.778.754,1.872,1.226,3,1.226s2.222-.472,3-1.226c.778.754,1.872,1.226,3,1.226s2.221-.479,3-1.236c.779.757,1.87,1.236,3,1.236.987,0,1.935-.363,2.668-1.022.411-.369.445-1.002.076-1.412-.372-.413-1.003-.443-1.412-.076ZM14,3c0-.553.447-1,1-1,.889,0,1.793-.586,2.058-1.333.141-.4.519-.667.942-.667s.802.267.942.667c.265.747,1.169,1.333,2.058,1.333.492,0,.966-.182,1.332-.511.409-.367,1.04-.337,1.412.076.369.41.335,1.043-.076,1.412-.733.659-1.681,1.022-2.668,1.022-1.128,0-2.222-.472-3-1.226-.778.754-1.872,1.226-3,1.226-.553,0-1-.447-1-1Zm-13.668-.022c-.411-.369-.445-1.002-.076-1.412.371-.411,1.003-.442,1.412-.076.366.329.84.511,1.332.511.889,0,1.793-.586,2.058-1.333.183-.521.757-.795,1.275-.609.521.184.794.755.609,1.275-.546,1.546-2.204,2.667-3.942,2.667-.987,0-1.935-.363-2.668-1.022Zm14.04,11.105c-.178.344-.527.541-.89.541-.154,0-.312-.036-.458-.111-.385-.199-.721-.462-1.02-.753-.779.759-1.872,1.24-3.004,1.24s-2.222-.472-3-1.226c-.778.754-1.872,1.226-3,1.226-.987,0-1.935-.363-2.668-1.022-.411-.369-.445-1.002-.076-1.412.371-.411,1.003-.442,1.412-.076.366.329.84.511,1.332.511.462,0,.927-.161,1.305-.418l-.979-1.943,4.6-2.191c.499-.237.711-.834.473-1.332-.236-.498-.832-.712-1.332-.473l-4.64,2.21-.551-1.095c-.12-.241-.14-.52-.053-.774.087-.254.273-.463.517-.579l5.196-2.474c.326-.873,1.371-2.953,4.148-3.878.527-.175,1.09.108,1.265.632.175.524-.108,1.091-.632,1.265-1.852.617-2.594,1.92-2.849,2.529,0,0,3.47,7.172,3.476,7.19.151.43.516.818.999,1.068.49.254.683.856.43,1.348Z"/>
</svg>
