<?xml version="1.0" encoding="UTF-8"?>
<svg xmlns="http://www.w3.org/2000/svg" id="Layer_1" data-name="Layer 1" viewBox="0 0 24 24">
  <path d="m0,17.762V3.5C0,1.567,1.567,0,3.5,0h0c.828,0,1.5.672,1.5,1.5v14c0,.828-.672,1.5-1.5,1.5h-1c-.925,0-1.784.282-2.5.762Zm24-8.762v10c0,2.761-2.239,5-5,5H2.643c-1.308,0-2.499-.941-2.63-2.242-.15-1.496,1.021-2.758,2.487-2.758h1c1.933,0,3.5-1.567,3.5-3.5V4h12c2.761,0,5,2.239,5,5Zm-5-1h-3c-.552,0-1,.448-1,1h0c0,.552.448,1,1,1h3v7h-2v-3c0-.552-.448-1-1-1h0c-.552,0-1,.448-1,1v3h-3v-8c0-.552-.448-1-1-1h0c-.552,0-1,.448-1,1v8c0,1.105.895,2,2,2h7c1.105,0,2-.895,2-2v-7c0-1.105-.895-2-2-2Z"/>
</svg>
