<?xml version="1.0" encoding="UTF-8"?>
<svg xmlns="http://www.w3.org/2000/svg" id="Layer_1" data-name="Layer 1" viewBox="0 0 24 24">
  <path d="m15,17.574h0v1.426c0,2.761-2.239,5-5,5h-2.602c-1.526,0-2.99-.606-4.069-1.685l-2.743-2.616c-.859-.859-.773-2.305.257-3.047.808-.582,1.943-.411,2.647.294l.51.525v-7.929c0-.808.621-1.503,1.427-1.541.861-.041,1.573.646,1.573,1.498v5.001c0,.275.223.499.499.499h.012c.276,0,.499-.223.499-.499-.003-2.308-.006-5.451-.006-6.004,0-.827.671-1.497,1.498-1.497s1.502.675,1.498,1.505l.003,5.996c0,.275.223.498.499.498h0c.275,0,.499-.223.499-.499v-3.959c0-.808.622-1.504,1.43-1.541.861-.039,1.57.648,1.57,1.499h0s0,.007,0,.007v7.066Zm8.157-7.921c-.808-.582-1.943-.411-2.647.294l-.51.525V2.542c0-.808-.621-1.503-1.427-1.541-.861-.041-1.573.646-1.573,1.498v4.995c0,.279-.226.505-.505.505h0c-.279,0-.505-.226-.505-.505.003-2.308.006-5.446.006-5.998,0-.827-.671-1.497-1.498-1.497s-1.502.675-1.498,1.505l-.003,5.537c1.054-.148,2.197.201,2.978.984.64.641,1.001,1.486,1.022,2.389v6.564c1.382-.096,2.688-.681,3.673-1.666l2.743-2.616c.859-.859.773-2.305-.257-3.047Zm-13.656-4.652c.938,0,1.819.366,2.48,1.031.007.007.011.015.018.022v-2.554c0-.828-.672-1.499-1.5-1.499s-1.5.673-1.499,1.501h0s0,1.555,0,1.555c.166-.024.329-.057.501-.057Z"/>
</svg>
