<?xml version="1.0" encoding="UTF-8"?>
<svg xmlns="http://www.w3.org/2000/svg" id="Layer_1" data-name="Layer 1" viewBox="0 0 24 24">
  <path d="M15.463,12.227c-1.294-1.05-2.988-1.451-4.648-1.102-2.199,.463-3.906,2.278-4.249,4.518-.334,2.187,.661,4.35,2.534,5.511,.247,.153,.4,.46,.4,.846,0,1.103,.897,2,2,2h1c1.103,0,2-.897,2-2.046,0-.339,.158-.649,.412-.807,1.62-1.011,2.588-2.748,2.588-4.647,0-1.666-.742-3.223-2.037-4.273Zm-1.528,3.727c-.201,.407-.535,.727-.935,.939v3.107c0,.552-.447,1-1,1s-1-.448-1-1v-3.107c-.4-.212-.734-.532-.935-.939-.218-.44,.143-.954,.634-.954h2.602c.491,0,.852,.514,.634,.954Zm9.375-2.454c.45,.76,.69,1.61,.69,2.5,0,1.69-.86,3.25-2.27,4.17-.72,2.27-2.81,3.83-5.23,3.83-.179,.003-.353-.028-.525-.055,.245-.436,.417-.919,.488-1.435,1.912-1.409,3.037-3.615,3.037-6.01,0-2.271-1.012-4.395-2.777-5.826h0c-1.083-.878-2.369-1.42-3.723-1.601V2.01c0-1.11,.89-2.01,2-2.01,1.9,0,3.49,1.33,3.9,3.1,1.77,.41,3.1,2,3.1,3.9v.02c1.25,.94,2,2.41,2,3.98,0,.89-.24,1.74-.69,2.5Zm-15.296,10.447c-.169,.026-.338,.057-.514,.053-2.42,0-4.51-1.55-5.23-3.83-1.41-.93-2.27-2.48-2.27-4.17,0-.89,.24-1.74,.69-2.5-.45-.76-.69-1.61-.69-2.5,0-1.57,.75-3.04,2-3.98v-.02c0-1.9,1.33-3.49,3.1-3.9,.41-1.77,2-3.1,3.9-3.1,1.11,0,2,.9,2,2.01v7.067c-.199,.026-.399,.05-.598,.091-3.009,.634-5.346,3.113-5.814,6.173-.423,2.771,.721,5.516,2.943,7.164,.066,.519,.236,1.004,.482,1.442Z"/>
</svg>
