<?xml version="1.0" encoding="UTF-8"?>
<svg xmlns="http://www.w3.org/2000/svg" id="Layer_1" data-name="Layer 1" viewBox="0 0 24 24">
  <path d="m17,1c0-.552.447-1,1-1h5c.553,0,1,.448,1,1s-.447,1-1,1h-5c-.553,0-1-.448-1-1Zm6,3h-5c-.553,0-1,.448-1,1s.447,1,1,1h5c.553,0,1-.448,1-1s-.447-1-1-1Zm0,15h-5c-.553,0-1,.448-1,1s.447,1,1,1h5c.553,0,1-.448,1-1s-.447-1-1-1Zm0-8h-5c-.553,0-1,.448-1,1s.447,1,1,1h5c.553,0,1-.448,1-1s-.447-1-1-1Zm-.5-4h-4c-.828,0-1.5.671-1.5,1.5s.672,1.5,1.5,1.5h4c.828,0,1.5-.671,1.5-1.5s-.672-1.5-1.5-1.5Zm0,8h-4c-.828,0-1.5.671-1.5,1.5s.672,1.5,1.5,1.5h4c.828,0,1.5-.671,1.5-1.5s-.672-1.5-1.5-1.5Zm.5,7h-5c-.553,0-1,.448-1,1s.447,1,1,1h5c.553,0,1-.448,1-1s-.447-1-1-1ZM12.5,3h-7.277c-2.61,0-4.945,1.903-5.199,4.5-.291,2.98,2.054,5.5,4.976,5.5h7.5c1.381,0,2.5-1.119,2.5-2.5v-5c0-1.381-1.119-2.5-2.5-2.5Zm-4.5,12h-3c-.98,0-1.914-.203-2.761-.568L.113,20.757c-.41,1.318.327,2.72,1.645,3.129,1.319.41,2.72-.327,3.129-1.645l1.761-5.241h1.351c.553,0,1-.448,1-1s-.447-1-1-1Z"/>
</svg>
