<?xml version="1.0" encoding="UTF-8"?>
<svg xmlns="http://www.w3.org/2000/svg" id="Layer_1" data-name="Layer 1" viewBox="0 0 24 24">
  <path d="m20,4c-.419,0-.809-.265-.948-.684-.175-.524.108-1.091.632-1.265l3-1c.527-.176,1.09.108,1.265.632.175.524-.108,1.091-.632,1.265l-3,1c-.105.035-.212.052-.316.052Zm3.948,4.316c.175-.524-.108-1.091-.632-1.265l-3-1c-.527-.176-1.091.108-1.265.632-.175.524.108,1.091.632,1.265l3,1c.105.035.212.052.316.052.419,0,.809-.265.948-.684ZM4.948,3.316c.175-.524-.108-1.091-.632-1.265L1.316,1.052C.789.876.226,1.16.052,1.684c-.175.524.108,1.091.632,1.265l3,1c.105.035.212.052.316.052.419,0,.809-.265.948-.684Zm-3.632,5.632l3-1c.523-.174.807-.74.632-1.265-.175-.523-.735-.808-1.265-.632l-3,1c-.523.174-.807.74-.632,1.265.14.419.529.684.948.684.104,0,.211-.017.316-.052Zm16.218,14.153c-.739.617-1.704.899-2.666.899h-.038c-.458,0-.83-.371-.83-.83v-2.17c0-1.215-1.083-2.176-2.336-1.973-.983.16-1.664,1.083-1.664,2.08v2.063c0,.458-.371.83-.83.83h0c-1.162,0-2.315-.423-3.102-1.277-.948-1.029-1.288-2.424-.933-3.754l1.864-11.053V3.5c0-.141.03-.274.082-.395.171-.706.633-1.317,1.3-1.65l2.276-1.138c.845-.422,1.839-.422,2.683,0l2.276,1.138c.667.333,1.129.944,1.3,1.65.052.121.082.255.082.395v4.416l1.885,11.144c.376,1.389-.104,3.001-1.351,4.041Zm-2.534-19.101h-6v3h6v-3Z"/>
</svg>
