<?xml version="1.0" encoding="UTF-8"?>
<svg xmlns="http://www.w3.org/2000/svg" id="Layer_1" data-name="Layer 1" viewBox="0 0 24 24">
  <path d="M22.017,14.432c-.073-.556-.378-1.062-.843-1.394l-4.102-2.859c-.456-.318-1.077-.204-1.393,.249-.315,.453-.204,1.076,.248,1.392l4.068,2.94-3.42,4.631c-.856-.157-2.481-.391-4.576-.391s-3.717,.233-4.573,.391l-3.456-4.711,4.102-2.859c.452-.316,.563-.939,.248-1.392-.315-.453-.938-.566-1.393-.249l-4.11,2.865c-.456,.326-.761,.832-.834,1.387-.074,.556,.087,1.123,.411,1.517l3.605,4.881v2.17c0,.552,.447,1,1,1h10c.553,0,1-.448,1-1v-2.17l3.574-4.841c.355-.434,.517-1,.442-1.556ZM8.994,6.389c.022,.15-.021,.302-.118,.419-.247,.296-.716,.241-.888-.104l-1.142-2.32-1.363,1.437c-.289,.289-.775,.217-.968-.143l-1.812-3.624c-.147-.296-.088-.652,.145-.886L3.828,.189c.313-.313,.842-.224,1.034,.175l.966,2.24,1.428-1.428c.337-.337,.914-.163,1.009,.304l.729,4.909ZM15.735,1.48c.095-.468,.672-.642,1.009-.304l1.428,1.428,.966-2.24c.193-.399,.721-.488,1.034-.175l.979,.979c.233,.233,.292,.59,.145,.886l-1.812,3.624c-.193,.361-.679,.432-.968,.143l-1.363-1.437-1.142,2.32c-.172,.345-.641,.4-.888,.104-.097-.116-.14-.269-.118-.419l.729-4.909Zm-7.026,6.783c.881-.777,2.025-1.263,3.291-1.263s2.41,.486,3.291,1.263c-.498,.219-.933,.564-1.253,1.023-.943,1.355-.609,3.228,.718,4.156l1.526,1.103c-.872,1.464-2.454,2.456-4.282,2.456-1.839,0-3.429-1.004-4.298-2.484l1.516-1.056c1.354-.946,1.688-2.819,.743-4.175-.319-.458-.754-.802-1.252-1.022Z"/>
</svg>
