<?xml version="1.0" encoding="UTF-8"?>
<svg xmlns="http://www.w3.org/2000/svg" id="Layer_1" data-name="Layer 1" viewBox="0 0 24 24">
  <path d="m22.243,5.272l-3.515-3.515c-1.134-1.133-2.641-1.757-4.243-1.757h-4.971c-1.602,0-3.109.624-4.243,1.757l-3.515,3.515c-1.133,1.134-1.757,2.641-1.757,4.243v4.971c0,1.602.624,3.109,1.757,4.243l3.515,3.515c1.134,1.133,2.641,1.757,4.243,1.757h4.971c1.602,0,3.109-.624,4.243-1.757l3.515-3.515c1.133-1.134,1.757-2.641,1.757-4.243v-4.971c0-1.602-.624-3.109-1.757-4.243Zm-5.243,7.728H7c-.552,0-1-.448-1-1s.448-1,1-1h10c.552,0,1,.448,1,1s-.448,1-1,1Z"/>
</svg>
