<?xml version="1.0" encoding="UTF-8"?>
<svg xmlns="http://www.w3.org/2000/svg" id="Layer_1" data-name="Layer 1" viewBox="0 0 24 24">
  <path d="m8,10.5c0,.827-.673,1.5-1.5,1.5s-1.5-.673-1.5-1.5.673-1.5,1.5-1.5,1.5.673,1.5,1.5Zm9.5-1.5c-.827,0-1.5.673-1.5,1.5s.673,1.5,1.5,1.5,1.5-.673,1.5-1.5-.673-1.5-1.5-1.5Zm6.5-1v8c0,2.761-2.239,5-5,5h-1.215c-1.067,0-2.053-.566-2.591-1.487l-1.472-2.522c-.52-.895-1.378-.991-1.723-.991s-1.203.096-1.723.991l-1.471,2.521c-.538.922-1.524,1.488-2.591,1.488h-1.214c-2.761,0-5-2.239-5-5v-8C0,5.239,2.239,3,5,3h14c2.761,0,5,2.239,5,5Zm-14,2.5c0-1.93-1.57-3.5-3.5-3.5s-3.5,1.57-3.5,3.5,1.57,3.5,3.5,3.5,3.5-1.57,3.5-3.5Zm11,0c0-1.93-1.57-3.5-3.5-3.5s-3.5,1.57-3.5,3.5,1.57,3.5,3.5,3.5,3.5-1.57,3.5-3.5Z"/>
</svg>
