<?xml version="1.0" encoding="UTF-8"?>
<svg xmlns="http://www.w3.org/2000/svg" id="Layer_1" data-name="Layer 1" viewBox="0 0 24 24">
  <path d="M16,9c-1.654,0-3-1.346-3-3V0H7C4.243,0,2,2.243,2,5v14c0,2.757,2.243,5,5,5h10c2.757,0,5-2.243,5-5V9h-6Zm-3.987,13h-.027c-.821,0-1.487-.666-1.487-1.487s.666-1.487,1.487-1.487h.027c.821,0,1.487,.666,1.487,1.487s-.666,1.487-1.487,1.487Zm1.616-5.404c-.341,.18-.603,.443-.666,.671-.123,.443-.525,.733-.963,.733-.088,0-.178-.012-.268-.037-.532-.147-.844-.698-.697-1.231,.213-.768,.818-1.462,1.662-1.906,.499-.263,.93-.879,.767-1.661-.108-.522-.537-.979-1.042-1.111-.528-.138-.936,.013-1.184,.165-.359,.221-.616,.582-.704,.992-.117,.54-.65,.88-1.189,.767-.54-.117-.883-.649-.766-1.189,.203-.94,.791-1.769,1.612-2.273,.82-.504,1.792-.645,2.738-.396,1.25,.328,2.229,1.363,2.493,2.639,.325,1.559-.396,3.102-1.793,3.838ZM15,.3c.696,.245,1.341,.627,1.878,1.164l3.657,3.657c.537,.537,.919,1.182,1.164,1.878h-5.7c-.551,0-1-.449-1-1V.3Z"/>
</svg>
