<?xml version="1.0" encoding="UTF-8"?>
<svg xmlns="http://www.w3.org/2000/svg" id="Layer_1" data-name="Layer 1" viewBox="0 0 24 24">
  <path d="M23.332,19.63l-.55-.317c.129-.418,.218-.853,.218-1.312s-.089-.895-.218-1.312l.55-.317c.479-.276,.643-.887,.367-1.366-.276-.478-.887-.643-1.365-.367l-.544,.314c-.605-.652-1.393-1.126-2.289-1.331v-.621c0-.552-.448-1-1-1h0c-.552,0-1,.448-1,1v.621c-.896,.205-1.685,.678-2.289,1.331l-.544-.314c-.478-.276-1.09-.111-1.365,.367-.276,.479-.112,1.09,.367,1.366l.55,.317c-.129,.418-.218,.853-.218,1.312s.089,.895,.218,1.312l-.55,.317c-.479,.276-.643,.887-.367,1.366,.276,.478,.887,.643,1.365,.367l.544-.314c.605,.652,1.393,1.126,2.289,1.331v.621c0,.552,.448,1,1,1h0c.552,0,1-.448,1-1v-.621c.896-.205,1.685-.678,2.289-1.331l.544,.314c.478,.276,1.09,.111,1.365-.367,.276-.479,.112-1.09-.367-1.366Zm-4.832-.13c-.827,0-1.5-.673-1.5-1.5s.673-1.5,1.5-1.5,1.5,.673,1.5,1.5-.673,1.5-1.5,1.5Zm-5.279,4.5H5c-2.757,0-5-2.243-5-5v-5H11.579c-.682,1.178-1.079,2.541-1.079,4,0,2.393,1.056,4.534,2.721,6Zm0-12H0v-1c0-2.757,2.243-5,5-5h2.528c.463,0,.927,.109,1.341,.316l3.156,1.578c.138,.069,.293,.105,.447,.105h6.528c2.414,0,4.434,1.721,4.899,4h-.12c-1.409-1.241-3.254-2-5.279-2s-3.87,.759-5.279,2ZM7.528,4h-2.528v-1c0-1.657,1.343-3,3-3h6.171c.796,0,1.559,.316,2.122,.879l1.828,1.828c.563,.563,.879,1.326,.879,2.122v1.171h-6.292l-2.945-1.473c-.69-.345-1.463-.527-2.235-.527Z"/>
</svg>
