<?xml version="1.0" encoding="UTF-8"?>
<svg xmlns="http://www.w3.org/2000/svg" id="Layer_1" data-name="Layer 1" viewBox="0 0 24 24">
  <path d="M6.75,8.985c0,.398-.349,.735-.762,.735l-.231,.003-.005-1.473h.236c.413,0,.762,.336,.762,.735Zm9.25,9.015H1c-.552,0-1-.448-1-1V5.5C0,3.015,2.015,1,4.5,1h7c2.485,0,4.5,2.015,4.5,4.5v12.5ZM2.252,8.25h.623c.345,0,.625-.28,.625-.625s-.28-.625-.625-.625H1.625c-.345,0-.625,.28-.625,.625v4.75c0,.345,.28,.625,.625,.625s.625-.28,.625-.625v-1.623h.626c.345-.002,.624-.281,.624-.626h0c0-.346-.28-.626-.626-.625h-.617s-.005-1.251-.005-1.251Zm5.753,3.946l-.562-1.848c.343-.356,.557-.835,.557-1.364,0-1.094-.902-1.985-2.012-1.985h-.866c-.344,0-.623,.279-.623,.623v4.755c0,.344,.279,.623,.623,.623h.005c.344,0,.623-.279,.623-.623v-1.404l.238-.003c.121,0,.238-.015,.353-.035l.47,1.617c.077,.266,.321,.449,.598,.449,.418,0,.717-.404,.596-.804Zm2.247-3.946h.623c.345,0,.625-.28,.625-.625s-.28-.625-.625-.625h-1.25c-.345,0-.625,.28-.625,.625v4.75c0,.345,.28,.625,.625,.625h1.25c.345,0,.625-.28,.625-.625s-.28-.625-.625-.625h-.623l.004-1.067h.62c.345-.002,.624-.281,.624-.626h0c0-.346-.28-.626-.626-.625h-.617s-.005-1.182-.005-1.182Zm3.5,0h.623c.345,0,.625-.28,.625-.625s-.28-.625-.625-.625h-1.25c-.345,0-.625,.28-.625,.625v4.75c0,.345,.28,.625,.625,.625h1.25c.345,0,.625-.28,.625-.625s-.28-.625-.625-.625h-.623l.004-1.067h.62c.345-.002,.624-.281,.624-.626h0c0-.346-.28-.626-.626-.625h-.617s-.005-1.182-.005-1.182Zm8.88-.515c-.545-1.636-2.07-2.735-3.794-2.735h-.838v6h5.716c-.024-.08-1.083-3.265-1.083-3.265Zm-4.632,5.265v5h2c2.209,0,4-1.791,4-4v-1h-6ZM2.058,20c-.034,.162-.058,.328-.058,.5,0,1.381,1.119,2.5,2.5,2.5s2.5-1.119,2.5-2.5c0-.172-.024-.338-.058-.5H2.058Zm13,0c-.034,.162-.058,.328-.058,.5,0,1.381,1.119,2.5,2.5,2.5s2.5-1.119,2.5-2.5c0-.172-.024-.338-.058-.5h-4.885Z"/>
</svg>
