<?xml version="1.0" encoding="UTF-8"?>
<svg xmlns="http://www.w3.org/2000/svg" id="Layer_1" data-name="Layer 1" viewBox="0 0 24 24">
  <path d="M23.341,12.345l-7.702,8.409c-1.894,2.068-4.57,3.246-7.374,3.246H4.003C1.794,24,.003,22.209,.003,20v-5C.003,12.791,1.794,11,4.003,11h7.787c1.374,0,2.46,1.26,2.164,2.685-.193,.926-1.004,1.598-1.94,1.732l-4.162,.583c-.547,.078-.927,.585-.848,1.131,.078,.547,.585,.926,1.131,.848l4.252-.596c2.062-.294,3.617-2.087,3.617-4.17,0-.219-.032-.429-.065-.638l3.541-3.737c.908-1.04,2.665-1.12,3.672-.157,1.052,.958,1.138,2.602,.189,3.665ZM12,0c-1.988,0-3.69,1.169-4.496,2.849-.154,.061-.334,.155-.494,.315-.707,.707-1.076,1.045-1.076,1.045l-.707-.707c-.391-.391-1.024-.391-1.414,0l-.707,.707-.692-.692c-.39-.391-1.024-.391-1.414,0l-.707,.707c-.391,.391-.391,1.024,0,1.414l.549,.548c.375,.375,.884,.585,1.414,.586H7.339c.717,1.884,2.526,3.228,4.661,3.228,2.761,0,5-2.239,5-5S14.761,0,12,0Zm1.5,6.5c-.828,0-1.5-.672-1.5-1.5s.672-1.5,1.5-1.5,1.5,.672,1.5,1.5-.672,1.5-1.5,1.5Z"/>
</svg>
