<?xml version="1.0" encoding="UTF-8"?>
<svg xmlns="http://www.w3.org/2000/svg" id="Layer_1" data-name="Layer 1" viewBox="0 0 24 24">
  <path d="m8.038,19.998h8v.5c0,1.933-1.567,3.5-3.5,3.5h-1c-1.933,0-3.5-1.567-3.5-3.5v-.5Zm3.962-13.498c-1.379,0-2.5,1.122-2.5,2.5s1.121,2.5,2.5,2.5,2.5-1.122,2.5-2.5-1.121-2.5-2.5-2.5Zm9.038,2.498c0,2.59-1.118,5.055-3.068,6.763-.739.648-1.275,1.413-1.594,2.237H7.601c-.358-.877-.926-1.702-1.695-2.417-2.149-2.001-3.167-4.83-2.793-7.761C3.628,3.78,6.943.515,10.995.057c2.567-.289,5.13.522,7.038,2.227,1.91,1.707,3.006,4.154,3.006,6.714Zm-4.756-1.311l.55-.317c.479-.275.644-.887.368-1.365-.276-.479-.887-.643-1.366-.368l-.545.313c-.605-.652-1.393-1.126-2.289-1.33v-.621c0-.552-.447-1-1-1s-1,.448-1,1v.621c-.896.205-1.685.678-2.289,1.33l-.545-.313c-.479-.275-1.09-.111-1.366.368-.275.479-.11,1.09.368,1.365l.55.317c-.129.418-.218.853-.218,1.312s.089.894.218,1.312l-.55.317c-.479.275-.644.887-.368,1.365.186.322.522.501.868.501.169,0,.341-.043.498-.133l.545-.313c.605.652,1.393,1.126,2.289,1.33v.621c0,.552.447,1,1,1s1-.448,1-1v-.621c.896-.205,1.685-.678,2.289-1.33l.545.313c.157.09.329.133.498.133.346,0,.683-.18.868-.501.275-.479.11-1.09-.368-1.365l-.55-.317c.129-.418.218-.853.218-1.312s-.089-.894-.218-1.312Z"/>
</svg>
