<?xml version="1.0" encoding="UTF-8"?>
<svg xmlns="http://www.w3.org/2000/svg" id="Layer_1" data-name="Layer 1" viewBox="0 0 24 24">
  <path d="m10,16c0,.552-.448,1-1,1h-1.03l-.735,6.119c-.061.508-.493.881-.991.881-.04,0-.08-.002-.121-.007-.548-.066-.939-.563-.874-1.112l.707-5.881H1c-.552,0-1-.448-1-1s.448-1,1-1h5.196l.721-6H1.831c-.599,0-1.063-.522-.993-1.117.059-.504.486-.883.993-.883h5.326l.735-6.119c.065-.549.566-.944,1.112-.874.548.066.939.563.874,1.112l-.707,5.881h6.871l.735-6.12c.06-.502.486-.88.992-.88.599,0,1.063.523.992,1.118l-.707,5.882h4.946c.599,0,1.063.522.993,1.117-.059.504-.486.883-.993.883h-.54c-1.099-1.224-2.688-2-4.46-2-1.607,0-3.064.638-4.141,1.671-.211.203-.483.329-.776.329h-4.152l-.721,6h.79c.552,0,1,.448,1,1Zm14,2v2c0,2.206-1.794,4-4,4h-4c-2.206,0-4-1.794-4-4v-2c0-1.474.81-2.75,2-3.444v-1.556c0-2.206,1.794-4,4-4s4,1.794,4,4v1.556c1.19.694,2,1.97,2,3.444Zm-4.5,1c0-.828-.672-1.5-1.5-1.5s-1.5.672-1.5,1.5.672,1.5,1.5,1.5,1.5-.672,1.5-1.5Zm.5-6c0-1.103-.897-2-2-2s-2,.897-2,2v1h4v-1Z"/>
</svg>
