<?xml version="1.0" encoding="UTF-8"?>
<svg xmlns="http://www.w3.org/2000/svg" id="Layer_1" data-name="Layer 1" viewBox="0 0 24 24">
  <path d="M8.031,4.445c-.384-.397-.373-1.03,.023-1.414L10.598,.574c.77-.77,2.037-.768,2.816,.012l2.782,2.696c.396,.384,.406,1.018,.021,1.414-.196,.202-.457,.304-.718,.304-.251,0-.502-.094-.696-.282l-1.804-1.748v5.03c0,.553-.447,1-1,1s-1-.447-1-1V2.979l-1.555,1.49c-.397,.384-1.03,.372-1.414-.023Zm14.969,6.555h-3.431c-.742,0-1.476-.134-2.166-.406-.753-.297-1.74-.594-2.403-.594-.891,0-1.622,.296-2.288,.923l-3.369,3.302c-.371,.372-.455,.967-.181,1.347,.18,.25,.441,.4,.739,.425,.295,.025,.581-.082,.788-.29l2.309-2.142,7.188,6.436h2.814c.552,0,1-.448,1-1v-7c0-.552-.448-1-1-1Zm-10.928,6.15c-.535,.538-1.292,.85-2.084,.85-.086,0-.172-.004-.259-.012-.871-.071-1.672-.526-2.192-1.25-.843-1.167-.678-2.857,.389-3.926l2.533-2.473c-.457-.214-.956-.34-1.482-.34-.639,0-1.507,.283-2.218,.566-.713,.285-1.47,.434-2.238,.434H1c-.552,0-1,.448-1,1v7c0,.552,.448,1,1,1h3.155c.892,0,1.758,.298,2.461,.847l2.98,2.326c.687,.536,1.533,.827,2.404,.827s1.717-.291,2.404-.827l3.381-2.639-4.778-4.279-.935,.895Z"/>
</svg>
