<?xml version="1.0" encoding="UTF-8"?>
<svg xmlns="http://www.w3.org/2000/svg" id="Layer_1" data-name="Layer 1" viewBox="0 0 24 24">
  <path d="m0,13.977V5C0,2.243,2.243,0,5,0h1v10.89L0,13.977ZM13.414,0h-5.414v11.086l5.914,5.914h10.086v-6.415c-.067.072-.128.148-.198.218l-1.854,1.815c-.922.901-2.146,1.398-3.448,1.398h-.007c-1.297,0-2.52-.497-3.441-1.399l-1.831-1.792c-1.438-1.436-2.221-3.322-2.221-5.326s.781-3.888,2.198-5.304c.069-.069.145-.13.216-.196Zm-1.235,18.094l-5.37-5.37-6.809,3.504v2.773c0,2.757,2.243,5,5,5h2.75l4.43-5.906Zm-1.93,5.906h8.751c2.757,0,5-2.243,5-5h-10l-3.75,5ZM24,5.5c0,1.47-.572,2.851-1.611,3.889l-1.84,1.801c-.564.553-1.307.828-2.049.828-.742,0-1.484-.275-2.049-.828l-1.832-1.793c-1.047-1.046-1.619-2.427-1.619-3.896s.572-2.851,1.611-3.889c1.038-1.039,2.419-1.611,3.889-1.611s2.85.572,3.889,1.611c1.039,1.038,1.611,2.42,1.611,3.889Zm-4-.006c0-.828-.672-1.5-1.5-1.5s-1.5.672-1.5,1.5.672,1.5,1.5,1.5,1.5-.672,1.5-1.5Z"/>
</svg>
