<?xml version="1.0" encoding="UTF-8"?>
<svg xmlns="http://www.w3.org/2000/svg" id="Layer_1" data-name="Layer 1" viewBox="0 0 24 24">
  <path d="M24,8.996v12.854c.053,1.662-1.983,2.755-3.339,1.789l-3.964-2.644h-5.697c-1.45,0-2.747-.631-3.661-1.62l.569-.38h6.092c3.859,0,7-3.14,7-7V4.996c0-.193-.014-.383-.029-.573,1.776,.767,3.029,2.519,3.029,4.573ZM14-.004H5C2.243-.004,0,2.239,0,4.996v12.854c-.053,1.663,1.983,2.754,3.34,1.788l3.963-2.643h6.697c2.757,0,5-2.243,5-5V4.996C19,2.239,16.757-.004,14-.004Zm-5.578,12.004c-.305,0-.582-.178-.709-.456l-1.114-2.444v2.1c0,.442-.358,.8-.8,.8h0c-.442,0-.8-.358-.8-.8V5.8c0-.442,.358-.8,.8-.8h0c.442,0,.8,.358,.8,.8v1.7l1.105-2.091c.133-.251,.394-.409,.678-.409,.57,0,.941,.6,.686,1.11l-1.097,2.198,1.161,2.595c.23,.515-.147,1.097-.711,1.097Zm5.811-1.074c.19,.522-.197,1.074-.752,1.074-.336,0-.637-.211-.752-.527l-.718-1.973h-.413v1.7c0,.442-.358,.8-.8,.8s-.8-.358-.8-.8V6c0-.552,.448-1,1.157-1h1.047c1.144,0,2.142,.836,2.279,1.973,.104,.866-.287,1.642-.923,2.1l.674,1.853Zm-1.984-4.326h-.65v1.3h.65c.358,0,.65-.292,.65-.65s-.292-.65-.65-.65Z"/>
</svg>
