<?xml version="1.0" encoding="UTF-8"?>
<svg xmlns="http://www.w3.org/2000/svg" id="Layer_1" data-name="Layer 1" viewBox="0 0 24 24">
  <path d="m22.39,14.277c-2.75-2.162-3.855-4.382-4.925-6.532-.709-1.425-1.382-2.777-2.464-3.971V.867c0-.577-.556-.992-1.11-.832-1.391.401-2.471,1.658-2.792,3.082C4.198,3.921,0,8.894,0,16.5v5.5c0,1.105.895,2,2,2h10.195c1.336,0,2.217-1.39,1.649-2.598-.509-1.082-.987-2.101-1.005-2.15l-.838-2.252,8.334,3.85c.897.414,1.959.191,2.614-.549l.015-.017c.75-.845,1.122-1.976,1.021-3.102-.102-1.131-.683-2.19-1.594-2.906Zm-7.89-1.277c-.828,0-1.5-.672-1.5-1.5s.672-1.5,1.5-1.5,1.5.672,1.5,1.5-.672,1.5-1.5,1.5Z"/>
</svg>
