<?xml version="1.0" encoding="UTF-8"?>
<svg xmlns="http://www.w3.org/2000/svg" id="Layer_1" data-name="Layer 1" viewBox="0 0 24 24">
  <path d="M18,7c0-2.757-2.243-5-5-5h-.171c-.413-1.164-1.525-2-2.829-2h-2c-1.304,0-2.416,.836-2.829,2h-.171C2.243,2,0,4.243,0,7v12c0,2.757,2.243,5,5,5H13c.068,0,.131-.017,.199-.02-1.652-1.466-2.699-3.598-2.699-5.98,0-.34,.029-.672,.07-1H5c-.552,0-1-.447-1-1s.448-1,1-1h6.083c.295-.727,.697-1.398,1.181-2H5c-.552,0-1-.447-1-1s.448-1,1-1H14.657c1.004-.551,2.135-.9,3.343-.975v-3.025Zm-5,2H5c-.552,0-1-.447-1-1s.448-1,1-1H13c.552,0,1,.447,1,1s-.448,1-1,1Zm10.332,10.63l-.55-.317c.129-.418,.218-.853,.218-1.312s-.089-.895-.218-1.312l.55-.317c.479-.276,.643-.887,.367-1.366-.276-.478-.887-.643-1.365-.367l-.544,.314c-.605-.652-1.393-1.126-2.289-1.331v-.621c0-.552-.448-1-1-1h0c-.552,0-1,.448-1,1v.621c-.896,.205-1.685,.678-2.289,1.331l-.544-.314c-.478-.276-1.09-.111-1.365,.367-.276,.479-.112,1.09,.367,1.366l.55,.317c-.129,.418-.218,.853-.218,1.312s.089,.895,.218,1.312l-.55,.317c-.479,.276-.643,.887-.367,1.366,.276,.478,.887,.643,1.365,.367l.544-.314c.605,.652,1.393,1.126,2.289,1.331v.621c0,.552,.448,1,1,1h0c.552,0,1-.448,1-1v-.621c.896-.205,1.685-.678,2.289-1.331l.544,.314c.478,.276,1.09,.111,1.365-.367,.276-.479,.112-1.09-.367-1.366Zm-4.832-.13c-.827,0-1.5-.673-1.5-1.5s.673-1.5,1.5-1.5,1.5,.673,1.5,1.5-.673,1.5-1.5,1.5Z"/>
</svg>
