<?xml version="1.0" encoding="UTF-8"?>
<svg xmlns="http://www.w3.org/2000/svg" id="Layer_1" data-name="Layer 1" viewBox="0 0 24 24">
  <path d="M24.052,11c0-1.085-.379-2.574-2.096-3.747v-.492c0-1.822-1.314-3.209-3.233-3.542C18.35,1.369,16.874,.015,15.06,0h-.033C14.016,0,12.845,.371,12.003,1.167,11.167,.37,9.997,0,8.948,0,7.128,0,5.647,1.355,5.276,3.219c-1.918,.333-3.232,1.721-3.232,3.542v.492C.327,8.426-.052,9.915-.052,11c0,.954,.272,1.868,.793,2.674C.259,14.422,0,15.29,0,16.191,0,17.964,1.032,19.591,2.611,20.37c1.079,2.345,2.979,3.63,5.389,3.63,1.468,0,2.997-.813,4-2,1.003,1.188,2.532,2,4,2,2.409,0,4.31-1.285,5.389-3.63,1.579-.778,2.612-2.405,2.612-4.179,0-.901-.26-1.769-.742-2.517,.521-.806,.793-1.72,.793-2.674Zm-8.131,.249l-4.121,5.513c-.112,.15-.288,.238-.475,.238-.389,0-.672-.368-.573-.744l.859-3.256h-2.735c-.55,0-.944-.531-.785-1.058l1.812-5.033c.197-.546,.714-.91,1.294-.91h1.568c.623,0,1.052,.623,.831,1.205l-1.064,2.795h2.717c.642,0,1.025,.715,.67,1.249Z"/>
</svg>
