<?xml version="1.0" encoding="UTF-8"?>
<svg xmlns="http://www.w3.org/2000/svg" id="Layer_1" data-name="Layer 1" viewBox="0 0 24 24">
  <path d="m12,6c-4.962,0-9,4.037-9,9s4.038,9,9,9,9-4.037,9-9-4.038-9-9-9Zm1,13c0,.553-.448,1-1,1s-1-.447-1-1v-5.713l-.293.293c-.39.391-1.023.391-1.414,0s-.391-1.023,0-1.414l1.242-1.242c.415-.414,1.033-.536,1.574-.312.542.225.891.748.891,1.334v7.055Zm.706-14.855l.945-1.915c.679-1.376,2.053-2.23,3.587-2.23h2.283c.692,0,1.324.351,1.689.939.366.588.401,1.31.095,1.931l-2.281,4.622c-1.639-1.751-3.84-2.96-6.319-3.347ZM1.718,2.87c-.306-.621-.271-1.343.095-1.932.365-.588.997-.938,1.689-.938h2.26c1.534,0,2.909.854,3.587,2.23l.945,1.915c-2.471.386-4.667,1.589-6.304,3.331L1.718,2.87Z"/>
</svg>
