<?xml version="1.0" encoding="UTF-8"?>
<svg xmlns="http://www.w3.org/2000/svg" id="Layer_1" data-name="Layer 1" viewBox="0 0 24 24">
  <path d="m16.9,24H7.1c-.3,0-.584-.135-.774-.367s-.265-.538-.206-.832c.565-2.782,3.038-4.801,5.88-4.801s5.315,2.019,5.88,4.801c.06.294-.016.6-.206.832s-.474.367-.774.367Zm1.1-16c2.206,0,4-1.794,4-4s-1.794-4-4-4-4,1.794-4,4,1.794,4,4,4Zm5.707,14.293l-7.94-7.94c.153-.428.233-.884.233-1.353,0-1.068-.416-2.073-1.172-2.828-1.085-1.085-2.749-1.391-4.16-.918l-2.148-2.148c.917-.746,1.48-1.879,1.48-3.106,0-2.206-1.794-4-4-4-1.226,0-2.36.563-3.106,1.48L1.707.293C1.316-.098.684-.098.293.293S-.098,1.316.293,1.707l22,22c.195.195.451.293.707.293s.512-.098.707-.293c.391-.391.391-1.023,0-1.414Zm-11.581-6.315c.314.314.055.846-.386.796-.867-.097-1.708-.476-2.373-1.141-.665-.665-1.044-1.506-1.141-2.373-.049-.441.482-.7.796-.386l3.104,3.104Zm-6.126-2.978c0-.854.179-1.666.5-2.401l-1.147-1.147c-.25-.25-.614-.35-.957-.261C2.19,9.76.473,11.57.02,13.801c-.06.294.016.599.206.832s.474.367.774.367h5.342c-.221-.626-.342-1.299-.342-2Zm17.98.801c-.565-2.782-3.08-4.801-5.98-4.801-1,0-.975.702-.803,1,.511.883.803,1.907.803,3,0,.701-.121,1.374-.342,2h5.342c.3,0,.584-.135.774-.367s.265-.538.206-.832Z"/>
</svg>
