<?xml version="1.0" encoding="UTF-8"?>
<svg xmlns="http://www.w3.org/2000/svg" id="Layer_1" data-name="Layer 1" viewBox="0 0 24 24">
  <path d="m20.657,14.856c-1.193-1.142-3.09-1.138-4.28.006l-1.906,1.606c-3.198-1.357-5.474-3.637-6.932-6.945l1.6-1.897c.557-.579.863-1.339.863-2.145s-.304-1.559-.857-2.138c0,0-1.852-2.407-1.883-2.438-1.207-1.207-3.17-1.206-4.327-.047l-1.15,1.004C.635,3.012.001,4.565.001,6.238.001,13.874,10.127,24,17.763,24c1.673,0,3.227-.634,4.421-1.833l.912-1.05c1.205-1.207,1.205-3.171,0-4.378-.031-.03-2.439-1.883-2.439-1.883Z"/>
  <path d="m19,0c-2.761,0-5,2.239-5,5s2.239,5,5,5,5-2.239,5-5S21.761,0,19,0Zm.586,7l-1.293-1.293c-.188-.188-.293-.442-.293-.707v-2c0-.552.448-1,1-1h0c.552,0,1,.448,1,1v1.586l1,1c.39.39.39,1.024,0,1.414h0c-.39.39-1.024.39-1.414,0Z"/>
</svg>
