<?xml version="1.0" encoding="UTF-8"?>
<svg xmlns="http://www.w3.org/2000/svg" id="Layer_1" data-name="Layer 1" viewBox="0 0 24 24">
  <path d="m10,15.816v3.184h-.383l-.401,3.245c-.124,1.002-.975,1.755-1.985,1.755h-.084c-1.214,0-2.147-1.072-1.981-2.274l.366-2.646c-.112-.36-.251-.755-.396-1.172-.489-1.4-1.087-3.127-1.133-4.72-1.323,1.083-2.003,3.02-2.003,5.812,0,.552-.448,1-1,1s-1-.448-1-1c0-5.683,2.546-7.73,4.682-8.448.734-.907,2.059-1.552,3.312-1.552h.006v4c0,1.302.839,2.402,2,2.816Zm13.138-8.91c-2.098-.842-3.661-2.537-4.138-4.444V.693c0-.461-.447-.805-.888-.669-1.014.312-1.796,1.267-2.033,2.315-3.163,1.041-4.079,4.291-4.079,6.162v.5h1c.552,0,1,.448,1,1v3c0,1.302-.839,2.402-2,2.816v3.184h2v2.893c0,.996.681,1.92,1.664,2.08,1.253.204,2.336-.758,2.336-1.973v-3.395l.385-1.811c.417-1.46.615-2.416.615-3.896v-1.994c0-.514.389-.944.901-.995l2.816-.282c.729-.073,1.283-.686,1.283-1.418,0-.568-.335-1.093-.862-1.305Zm-13.138,6.094c0,.551.449,1,1,1s1-.449,1-1v-4h-2v4Z"/>
</svg>
