<?xml version="1.0" encoding="UTF-8"?>
<svg xmlns="http://www.w3.org/2000/svg" id="Layer_1" data-name="Layer 1" viewBox="0 0 24 24">
  <path d="m24,12c0,.552-.448,1-1,1h-.551c-.474,4.992-4.457,8.975-9.449,9.449v.551c0,.552-.448,1-1,1s-1-.448-1-1v-.551c-4.992-.474-8.975-4.457-9.449-9.449h-.551c-.552,0-1-.448-1-1s.448-1,1-1h.556c.264-2.786,1.615-5.349,3.813-7.141.428-.348,1.058-.286,1.407.143.349.428.285,1.058-.143,1.407-1.729,1.41-2.815,3.409-3.071,5.591h1.439c.552,0,1,.448,1,1s-.448,1-1,1h-1.436c.458,3.888,3.548,6.977,7.436,7.436v-1.436c0-.552.448-1,1-1s1,.448,1,1v1.436c3.888-.458,6.977-3.548,7.436-7.436h-1.436c-.552,0-1-.448-1-1s.448-1,1-1h1.439c-.256-2.182-1.342-4.18-3.071-5.591-.428-.349-.492-.979-.143-1.407.349-.429.98-.491,1.407-.143,2.198,1.792,3.549,4.354,3.813,7.141h.556c.552,0,1,.448,1,1Zm-7.205-4.275L13.456.876c-.326-.583-.891-.874-1.456-.876-.565.002-1.13.293-1.456.876l-3.339,6.849c-.706,1.256.535,2.725,1.812,2.145l2.983-1.355,2.983,1.355c1.277.58,2.518-.889,1.812-2.145Z"/>
</svg>
