<?xml version="1.0" encoding="UTF-8"?>
<svg xmlns="http://www.w3.org/2000/svg" id="Layer_1" data-name="Layer 1" viewBox="0 0 24 24">
  <path d="M10,23c0,.553-.447,1-1,1s-1-.447-1-1c0,0,.006-3.813,.008-4.061-3.945-.484-7.008-3.814-7.008-7.839v-3.101c-.553,0-1-.447-1-1s.447-1,1-1h3V1c0-.553,.447-1,1-1s1,.447,1,1V6h6V1c0-.553,.447-1,1-1s1,.447,1,1V6h3c.553,0,1,.447,1,1s-.447,1-1,1v2.069c-3.945,.493-7,3.852-7,7.931v5Zm8-11c-3.314,0-6,2.686-6,6s2.686,6,6,6,6-2.686,6-6-2.686-6-6-6Zm3.683,5.712l-2.703,2.614c-.452,.446-1.052,.671-1.653,.671s-1.203-.225-1.663-.674l-1.354-1.332c-.395-.387-.4-1.02-.014-1.414,.386-.395,1.019-.401,1.414-.014l1.353,1.331c.144,.142,.38,.139,.522-.002l2.713-2.624c.397-.381,1.031-.37,1.414,.029,.382,.398,.369,1.031-.029,1.414Z"/>
</svg>
