<?xml version="1.0" encoding="UTF-8"?>
<svg xmlns="http://www.w3.org/2000/svg" id="Layer_1" data-name="Layer 1" viewBox="0 0 24 24">
  <path d="M17.365,7.072c-.122-.02-.243-.028-.365-.041v-2.032c0-2.757-2.243-5-5-5S7,2.243,7,5v2.023c-.38,.042-.761,.116-1.138,.236-2.338,.748-3.925,2.973-3.86,5.411,.115,4.383,4.636,8.418,7.319,10.435,.802,.602,1.738,.902,2.676,.902s1.877-.302,2.677-.906c2.66-2.009,7.148-6.024,7.321-10.346,.114-2.828-1.833-5.217-4.63-5.682Zm-4.365,9.928c0,.552-.447,1-1,1s-1-.448-1-1v-2c0-.552,.447-1,1-1s1,.448,1,1v2Zm2-9.822c-.805,.209-1.561,.591-2.207,1.139-.297,.252-.562,.529-.789,.826-.312-.41-.688-.782-1.123-1.099-.575-.421-1.213-.713-1.881-.885v-2.159c0-1.654,1.346-3,3-3s3,1.346,3,3v2.178Z"/>
</svg>
