<?xml version="1.0" encoding="UTF-8"?>
<svg xmlns="http://www.w3.org/2000/svg" id="Layer_1" data-name="Layer 1" viewBox="0 0 24 24">
  <path d="M20.06,11.099s0,0,0,0c-.537-1.077-3.48-5.098-8.059-5.098S4.478,10.021,3.941,11.098c-.287,.574-.287,1.232,0,1.805,.538,1.077,3.482,5.097,8.059,5.097s7.522-4.021,8.06-5.099c.285-.572,.285-1.229,0-1.802Zm-8.059,3.401c-1.381,0-2.5-1.119-2.5-2.5s1.119-2.5,2.5-2.5,2.5,1.119,2.5,2.5-1.119,2.5-2.5,2.5Zm-5,9.5h-2c-2.757,0-5-2.243-5-5v-2c0-.552,.448-1,1-1s1,.448,1,1v2c0,1.654,1.346,3,3,3h2c.552,0,1,.448,1,1s-.448,1-1,1Zm12,0h-2c-.552,0-1-.448-1-1s.448-1,1-1h2c1.654,0,3-1.346,3-3v-2c0-.552,.448-1,1-1s1,.448,1,1v2c0,2.757-2.243,5-5,5Zm4-16c-.552,0-1-.448-1-1v-2c0-1.654-1.346-3-3-3h-2c-.552,0-1-.448-1-1s.448-1,1-1h2c2.757,0,5,2.243,5,5v2c0,.552-.448,1-1,1ZM1,8c-.552,0-1-.448-1-1v-2C0,2.243,2.243,0,5,0h2c.552,0,1,.448,1,1s-.448,1-1,1h-2c-1.654,0-3,1.346-3,3v2c0,.552-.448,1-1,1Z"/>
</svg>
