<?xml version="1.0" encoding="UTF-8"?>
<svg xmlns="http://www.w3.org/2000/svg" id="Layer_1" data-name="Layer 1" viewBox="0 0 24 24">
  <path d="M21,7.5v6c0,.641-.252,1.218-.651,1.661-.51-.406-1.146-.661-1.849-.661-.695,0-1.323,.25-1.831,.648-.418-.484-.669-1.123-.669-1.796V7.5c0-1.381,1.119-2.5,2.5-2.5h0c1.381,0,2.5,1.119,2.5,2.5Zm2,2.123v4.377c0,2.209-1.791,4-4,4h-1c-2.209,0-4-1.791-4-4v-4.377c-.638,.99-1,2.151-1,3.377v10c0,.552,.448,1,1,1h9c.552,0,1-.448,1-1V13c0-1.226-.362-2.386-1-3.377ZM5.5,0h0C4.119,0,3,1.119,3,2.5v5.852c0,.673,.251,1.312,.669,1.796,.507-.398,1.136-.648,1.831-.648,.703,0,1.339,.255,1.849,.661,.398-.443,.651-1.02,.651-1.661V2.5C8,1.119,6.881,0,5.5,0Zm4.5,4.623v4.377c0,2.209-1.791,4-4,4h-1c-2.209,0-4-1.791-4-4V4.623c-.638,.99-1,2.151-1,3.377v15c0,.552,.448,1,1,1H10c.552,0,1-.448,1-1V8c0-1.226-.362-2.386-1-3.377Z"/>
</svg>
