<?xml version="1.0" encoding="UTF-8"?>
<svg xmlns="http://www.w3.org/2000/svg" id="Layer_1" data-name="Layer 1" viewBox="0 0 24 24">
  <path d="M15,2.5c0-1.381,1.119-2.5,2.5-2.5s2.5,1.119,2.5,2.5-1.119,2.5-2.5,2.5-2.5-1.119-2.5-2.5Zm8.895,20.053l-1.866-3.732c-.175-.349-.446-.638-.786-.836l-3.111-1.801,.572-3.99,2.778,1.544c.157,.09,.328,.132,.496,.132,.347,0,.684-.181,.869-.503,.274-.479,.108-1.091-.371-1.365l-3.466-1.938,.094-.657c.117-.858-.143-1.726-.712-2.379-.412-.472-1.154-1.026-1.957-1.026,0,0-.505,.016-.599,.045-.984,.147-1.88,.656-2.521,1.453l-3.561,4.524c-.342,.434-.267,1.062,.167,1.404,.435,.34,1.063,.268,1.404-.168l2.695-3.423-.572,3.029c-.227,1.524,.454,3.062,1.789,3.951l5.003,2.899,1.866,3.732c.175,.351,.528,.553,.896,.553,.15,0,.303-.034,.446-.105,.494-.247,.694-.848,.447-1.342Zm-9.372-4.54c-.547-.085-1.061,.276-1.152,.82l-.711,4.122c-.091,.545,.276,1.061,.821,1.152,.056,.009,.112,.014,.167,.014,.479,0,.903-.346,.985-.834l.711-4.122c.091-.545-.276-1.061-.821-1.152Zm-9.522,1.988c-1.105,0-2,.895-2,2s.895,2,2,2,2-.895,2-2-.895-2-2-2Zm3.488-6.201l-.71-.596c-1.442-1.119-3.54-.867-4.677,.563l-2.373,2.984c-1.096,1.378-.935,3.31,.346,4.522,.344-1.859,1.97-3.273,3.926-3.273,1.267,0,2.385,.604,3.118,1.526l.918-1.205c.551-.7,.799-1.544,.696-2.376-.104-.843-.556-1.613-1.244-2.146Z"/>
</svg>
