<?xml version="1.0" encoding="UTF-8"?>
<svg xmlns="http://www.w3.org/2000/svg" id="Layer_1" data-name="Layer 1" viewBox="0 0 24 24">
  <path d="m23,2v-1c0-.553-.447-1-1-1s-1,.447-1,1v1H3v-1c0-.553-.447-1-1-1s-1,.447-1,1v1c-.553,0-1,.447-1,1s.447,1,1,1v2c0,.553.447,1,1,1s1-.447,1-1v-2h.974l5.026,7.311v11.689c0,.553.447,1,1,1s1-.447,1-1v-5h2v5c0,.553.447,1,1,1s1-.447,1-1v-11.689l5.026-7.311h.974v1c0,.553.447,1,1,1s1-.447,1-1v-1c.553,0,1-.447,1-1s-.447-1-1-1Zm-9.526,8h-2.947l-4.125-6h11.197l-4.125,6Z"/>
  <circle cx="12" cy="7" r="2"/>
</svg>
