<?xml version="1.0" encoding="UTF-8"?>
<svg xmlns="http://www.w3.org/2000/svg" id="Layer_1" data-name="Layer 1" viewBox="0 0 24 24">
  <path d="m4,24c-2.206,0-4-1.794-4-4,0-.553.448-1,1-1s1,.447,1,1c0,1.103.897,2,2,2,.552,0,1,.447,1,1s-.448,1-1,1ZM2,4c0-1.103.897-2,2-2,.552,0,1-.447,1-1s-.448-1-1-1C1.794,0,0,1.794,0,4c0,.553.448,1,1,1s1-.447,1-1Zm0,6v-2c0-.553-.448-1-1-1s-1,.447-1,1v2c0,.553.448,1,1,1s1-.447,1-1Zm0,6v-2c0-.553-.448-1-1-1s-1,.447-1,1v2c0,.553.448,1,1,1s1-.447,1-1Zm18.479,4.108l3.459-15.222c.271-1.193-.011-2.426-.774-3.382s-1.902-1.505-3.126-1.505h-4.643c-2.35,0-4.354,1.601-4.875,3.892l-3.459,15.222c-.271,1.193.011,2.426.774,3.382s1.902,1.505,3.126,1.505h4.643c2.35,0,4.354-1.601,4.875-3.892ZM10.115,1c0-.553-.448-1-1-1h-1.115c-.552,0-1,.447-1,1s.448,1,1,1h1.115c.552,0,1-.447,1-1Z"/>
</svg>
