<?xml version="1.0" encoding="UTF-8"?>
<svg xmlns="http://www.w3.org/2000/svg" id="Layer_1" data-name="Layer 1" viewBox="0 0 24 24">
  <path d="m21.932,1.788c-.584-.977-1.571-1.619-2.71-1.759-1.157-.141-2.288.246-3.108,1.066l-6.905,6.905h11.792c.553,0,1,.448,1,1s-.447,1-1,1h-9.586l6.793,6.793c.391.391.391,1.023,0,1.414-.195.195-.451.293-.707.293s-.512-.098-.707-.293l-6.793-6.793v9.586c0,.552-.448,1-1,1s-1-.448-1-1v-11.792l-6.905,6.905c-.821.822-1.21,1.956-1.066,3.111.142,1.138.783,2.125,1.76,2.708,2.339,1.396,4.937,2.077,7.518,2.077,3.796,0,7.555-1.474,10.391-4.311,4.765-4.766,5.685-12.13,2.234-17.91Z"/>
</svg>
