<?xml version="1.0" encoding="UTF-8"?>
<svg xmlns="http://www.w3.org/2000/svg" id="Layer_1" data-name="Layer 1" viewBox="0 0 24 24">
  <path d="m18.5,10c1.381,0,2.5,1.119,2.5,2.5s-1.119,2.5-2.5,2.5-2.5-1.119-2.5-2.5,1.119-2.5,2.5-2.5Zm-8.934-5.98l-2.98,2.98h-1.929c-1.335,0-2.591.52-3.535,1.464l-.829.829c-.391.391-.391,1.023,0,1.414s1.023.391,1.414,0l.829-.829c.559-.558,1.332-.878,2.121-.878h1.343v1.343c0,.79-.32,1.562-.878,2.121l-.829.829c-.391.391-.391,1.023,0,1.414.195.195.451.293.707.293s.512-.098.707-.293l.829-.829c.944-.944,1.464-2.2,1.464-3.535v-1.929l2.98-2.98c-.585-.345-1.069-.829-1.414-1.414Zm8.896,3.984l-2.062-3.93c-.715,1.17-1.999,1.931-3.451,1.912l2.008,3.771c.816-1.052,2.074-1.74,3.505-1.752Zm-3.462-6.004c0-1.105-.895-2-2-2s-2,.895-2,2,.895,2,2,2,2-.895,2-2Zm8,20h-1v-6.703c-.825,1.03-2.078,1.703-3.5,1.703s-2.675-.673-3.5-1.703v6.703h-1c-.552,0-1,.448-1,1s.448,1,1,1h9c.552,0,1-.448,1-1s-.448-1-1-1Z"/>
</svg>
