<?xml version="1.0" encoding="UTF-8"?>
<svg xmlns="http://www.w3.org/2000/svg" id="Layer_1" data-name="Layer 1" viewBox="0 0 24 24">
  <path d="M9,22c0,1.105-.895,2-2,2s-2-.895-2-2,.895-2,2-2,2,.895,2,2Zm8-2c-1.105,0-2,.895-2,2s.895,2,2,2,2-.895,2-2-.895-2-2-2ZM19,.866l3.5,2.021c.928,.536,1.5,1.526,1.5,2.598v4.041c0,1.072-.572,2.062-1.5,2.598l-3.5,2.021c-.928,.536-2.072,.536-3,0l-3.5-2.021c-.928-.536-1.5-1.526-1.5-2.598V5.485c0-1.072,.572-2.062,1.5-2.598l3.5-2.021c.928-.536,2.072-.536,3,0Zm-3.5,8.561v-3.927c0-.276-.224-.5-.5-.5h0c-.276,0-.5,.224-.5,.5v2.275l-1.376-2.481c-.101-.182-.293-.295-.501-.295h-.051c-.316,0-.573,.256-.573,.573v3.927c0,.276,.224,.5,.5,.5h0c.276,0,.5-.224,.5-.5v-2.368l1.427,2.573c.101,.182,.293,.295,.501,.295h0c.316,0,.573-.256,.573-.573Zm3.5-1.916h0c0-.276-.222-.501-.499-.501l-1.001-.003v-1.007h1c.276,0,.5-.224,.5-.5h0c0-.276-.224-.5-.5-.5h-1.5c-.276,0-.5,.224-.5,.5v4c0,.276,.224,.5,.5,.5h0c.276,0,.5-.224,.5-.5v-1.493l.999,.003c.276,0,.501-.222,.501-.499Zm4-2h0c0-.276-.224-.5-.5-.5h-2c-.276,0-.5,.224-.5,.5h0c0,.276,.224,.5,.5,.5h.5v3.489c0,.276,.224,.5,.5,.5h0c.276,0,.5-.224,.5-.5v-3.489h.5c.276,0,.5-.224,.5-.5Zm-4,11.489H9.557c-1.292,0-2.404-.826-2.82-2h6.744l-1.981-1.144c-1.542-.891-2.5-2.55-2.5-4.33V5.485c0-.886,.244-1.739,.673-2.485H5.242l-.041-.351c-.178-1.51-1.459-2.649-2.979-2.649H1C.448,0,0,.448,0,1s.448,1,1,1h1.222c.507,0,.934,.38,.993,.883l1.376,11.702c.296,2.517,2.431,4.415,4.966,4.415h9.443c.552,0,1-.447,1-1s-.448-1-1-1Z"/>
</svg>
