<?xml version="1.0" encoding="UTF-8"?>
<svg xmlns="http://www.w3.org/2000/svg" id="Layer_1" data-name="Layer 1" viewBox="0 0 24 24">
  <path d="m21,8H3c-1.657,0-3-1.343-3-3v-1C0,1.791,1.791,0,4,0h16c2.209,0,4,1.791,4,4v1c0,1.657-1.343,3-3,3Zm-3,4c-3.314,0-6,2.686-6,6s2.686,6,6,6,6-2.686,6-6-2.686-6-6-6Zm.586,8.086l-1.293-1.293c-.188-.188-.293-.442-.293-.707v-2c0-.552.448-1,1-1h0c.552,0,1,.448,1,1v1.586l1,1c.39.39.39,1.024,0,1.414h0c-.39.39-1.024.39-1.414,0ZM1,9.576v9.424c0,2.757,2.243,5,5,5h6.721c-1.665-1.466-2.721-3.607-2.721-6,0-4.418,3.582-8,8-8H3c-.712,0-1.386-.154-2-.424Z"/>
</svg>
