<?xml version="1.0" encoding="UTF-8"?>
<svg xmlns="http://www.w3.org/2000/svg" id="Layer_1" data-name="Layer 1" viewBox="0 0 24 24">
  <path d="m3.5,20c-1.105,0-2-.895-2-2s.895-2,2-2,2,.895,2,2-.895,2-2,2Zm0-16c1.105,0,2-.895,2-2S4.605,0,3.5,0,1.5.895,1.5,2s.895,2,2,2Zm17,0c1.105,0,2-.895,2-2s-.895-2-2-2-2,.895-2,2,.895,2,2,2Zm-2,14c0,1.105.895,2,2,2s2-.895,2-2-.895-2-2-2-2,.895-2,2Zm-1.241-2.447c-.266,1.419-1.505,2.447-2.949,2.447h-5.31c-1.105,0-2-.895-2-2v-4c0-1.105.895-2,2-2h.021l1.754-3.319c.144-.281.343-.491.546-.575.169-.07.342-.106.512-.106.545,0,.995.357,1.145.909.018.064.04.212-.005.479l-.464,2.612h4.027c.808,0,1.464.655,1.464,1.464,0,.091-.741,4.089-.741,4.089ZM3.5,5c-1.327,0-2.548.507-3.264,1.354-.252.298-.308.714-.144,1.066.164.354.518.579.907.579h5c.39,0,.743-.226.907-.579.164-.353.108-.769-.144-1.066-.716-.848-1.937-1.354-3.264-1.354Zm14.5,3h5c.39,0,.743-.226.907-.579.164-.353.108-.769-.144-1.066-.716-.848-1.937-1.354-3.264-1.354s-2.548.507-3.264,1.354c-.252.298-.308.714-.144,1.066.164.354.518.579.907.579ZM3.5,21c-1.327,0-2.548.507-3.264,1.354-.252.298-.308.714-.144,1.066.164.354.518.579.907.579h5c.39,0,.743-.226.907-.579.164-.353.108-.769-.144-1.066-.716-.848-1.937-1.354-3.264-1.354Zm17,0c-1.327,0-2.548.507-3.264,1.354-.252.298-.308.714-.144,1.066.164.354.518.579.907.579h5c.39,0,.743-.226.907-.579.164-.353.108-.769-.144-1.066-.716-.848-1.937-1.354-3.264-1.354Z"/>
</svg>
