<?xml version="1.0" encoding="UTF-8"?>
<svg xmlns="http://www.w3.org/2000/svg" id="Layer_1" data-name="Layer 1" viewBox="0 0 24 24">
  <path d="m23.383,20.019c-.008-.009-.015-.017-.022-.024l-3.36-3.485v-2.509c.553,0,1-.447,1-1s-.447-1-1-1h-3c-.553,0-1,.447-1,1s.447,1,1,1v2.51l-3.455,3.594c-.592.719-.712,1.688-.314,2.53.398.843,1.225,1.366,2.156,1.366h6.227c.956,0,1.791-.543,2.179-1.416.388-.874.231-1.856-.409-2.565Zm-8.895-4.605c.146.123.278.261.412.396l-2.898,3.023c-1.089,1.322-1.311,3.106-.579,4.656.085.179.182.349.287.512H1c-.318,0-1,0-1-1.077,0-4.469,1.872-6.372,3.574-7.631.637-.471,1.531-.357,2.054.238l3.376,3.663,3.312-3.623c.557-.64,1.522-.702,2.172-.156ZM.816,12.806c.534-2.25,1.12-4.713,1.409-5.921.227,2.427,1.738,4.479,3.848,5.472-1.315.323-2.548.859-3.656,1.575-.802.518-1.821-.198-1.601-1.126ZM7.794,4.283c.648-.404,1.177-.946,1.557-1.584.237-.398.721-.595,1.158-.44.006.002.013.005.019.007.588.212.871.9.553,1.438-.542.917-1.3,1.696-2.229,2.276-1.081.674-2.609,1.02-3.852,1.02-.038,0-.41,0-.69,0,.361,2.264,2.327,3.999,4.69,3.999,1.751,0,3.284-.953,4.108-2.368.045.189.367,1.471.735,2.935.643-.839,1.603-1.407,2.7-1.533-.687-2.856-1.281-5.297-1.34-5.484-.855-2.722-3.348-4.55-6.202-4.55S3.652,1.829,2.798,4.55c-.017.054-.058.211-.117.45h2.088c1.25,0,2.214-.212,3.025-.717Z"/>
</svg>
