<?xml version="1.0" encoding="UTF-8"?>
<svg xmlns="http://www.w3.org/2000/svg" id="Layer_1" data-name="Layer 1" viewBox="0 0 24 24">
  <path d="M10,17.075c.538,.663,1.385,.925,2,.925s1.462-.262,2-.925v6.925h-4v-6.925Zm-2-1.032c-.295,.055-.625,.174-.996,.385-2.47,1.409-4.004,3.928-4.004,6.572,0,.553,.448,1,1,1h4v-7.958Zm8.995,.384c-.371-.211-.7-.329-.995-.384v7.957h4c.553,0,1-.447,1-1,0-2.645-1.534-5.163-4.005-6.573ZM8.39,.585c1.096-.388,2.352-.585,3.61-.585,3.5,0,7,1.5,7,4.5,0,1.866-.326,3.289-.673,4.283-1.551-.848-5.878-3.463-9.937-8.197Zm-2.716,8.198c-.348-.994-.674-2.417-.674-4.283,0-1.252,.615-2.239,1.579-2.968,1.295,1.549,2.612,2.886,3.876,4.027-2.114,1.687-3.897,2.742-4.781,3.224Zm12.064,1.954c-.745,2.466-3.029,4.263-5.738,4.263s-4.993-1.797-5.738-4.263c.819-.424,3.039-1.656,5.734-3.85,2.695,2.196,4.92,3.428,5.741,3.85Z"/>
</svg>
