<?xml version="1.0" encoding="UTF-8"?>
<svg xmlns="http://www.w3.org/2000/svg" id="Layer_1" data-name="Layer 1" viewBox="0 0 24 24">
  <path d="M8,4c0-.553,.448-1,1-1h2.965L13.668,.445c.391-.621,1.375-.574,1.708,.072l2.371,4.309,.921-1.381c.186-.278,.498-.445,.832-.445h3.5c.552,0,1,.447,1,1s-.448,1-1,1h-2.965l-1.538,2.307c-.386,.618-1.377,.575-1.708-.072l-2.371-4.309-1.086,1.629c-.186,.278-.498,.445-.832,.445h-3.5c-.552,0-1-.447-1-1Zm-1.5,10c1.381,0,2.5-1.119,2.5-2.5s-1.119-2.5-2.5-2.5-2.5,1.119-2.5,2.5,1.119,2.5,2.5,2.5ZM2,5c0-.552-.448-1-1-1s-1,.448-1,1V23c0,.552,.448,1,1,1s1-.448,1-1v-2H22v2c0,.552,.448,1,1,1s1-.448,1-1v-7H2V5Zm18.411,3.041l-.25,.375c-.557,.836-1.49,1.336-2.496,1.336-1.056,.014-2.092-.58-2.627-1.552l-.106-.193c-2.177,.037-3.932,1.807-3.932,3.993v2h13v-2c0-2.068-1.576-3.75-3.589-3.959Z"/>
</svg>
