<?xml version="1.0" encoding="UTF-8"?>
<svg xmlns="http://www.w3.org/2000/svg" id="Layer_1" data-name="Layer 1" viewBox="0 0 24 24">
  <path d="m15.941,17.588l-.639,3.196c-.374,1.87-2.016,3.216-3.922,3.216h-6.379v-7c0-.553-.448-1-1-1s-1,.447-1,1v7h0c-1.657,0-3-1.343-3-3v-4c0-1.657,1.343-3,3-3h1.456l2.193-4.149c.18-.352.428-.614.682-.719.212-.088.427-.132.64-.132.682,0,1.244.446,1.432,1.136.022.08.05.265-.007.599l-.58,3.265h4.183c1.893,0,3.313,1.732,2.942,3.588Zm6.559-8.088c0-1.131-.252-2.204-.702-3.167l.899-.576c.465-.298.601-.916.303-1.381h0c-.298-.465-.916-.6-1.381-.303l-.902.577c-1.173-1.381-2.836-2.333-4.717-2.585V1c0-.552-.448-1-1-1h0c-.552,0-1,.448-1,1v1.067c-1.845.245-3.522,1.163-4.724,2.586l-.894-.575c-.464-.299-1.083-.165-1.381.3l-.006.009c-.297.461-.167,1.074.291,1.376l3.833,2.524c.444.292,1.03.141,1.301-.316.604-1.016,1.79-1.645,3.098-1.426,1.204.201,2.202,1.174,2.428,2.373.258,1.369-.415,2.613-1.496,3.21-.43.237-.47.826-.105,1.155.186.168.361.351.522.548.599.73.97,1.599,1.091,2.509.028.015.043.023.043.023,1.05-.463,1.974-1.16,2.707-2.021l.912.584c.465.298,1.083.162,1.381-.303h0c.298-.465.162-1.083-.303-1.381l-.906-.58c.455-.965.709-2.037.709-3.162Z"/>
</svg>
