<?xml version="1.0" encoding="UTF-8"?>
<svg xmlns="http://www.w3.org/2000/svg" id="Layer_1" data-name="Layer 1" viewBox="0 0 24 24">
  <path d="m7.942,20c.034.162.058.328.058.5,0,1.381-1.119,2.5-2.5,2.5s-2.5-1.119-2.5-2.5c0-.172.024-.338.058-.5h4.885Zm9.115,0c-.034.162-.058.328-.058.5,0,1.381,1.119,2.5,2.5,2.5s2.5-1.119,2.5-2.5c0-.172-.024-.338-.058-.5h-4.885Zm3.663-10l-1.088-3.265c-.544-1.634-2.073-2.735-3.795-2.735h-.838c-1.105,0-2,.895-2,2v4h7.72Zm.28,2h-8v4H1c-.552,0-1,.448-1,1h0c0,.552.448,1,1,1h21c1.105,0,2-.895,2-2v-1c0-1.657-1.343-3-3-3Z"/>
</svg>
