<?xml version="1.0" encoding="UTF-8"?>
<svg xmlns="http://www.w3.org/2000/svg" id="Layer_1" data-name="Layer 1" viewBox="0 0 24 24">
  <path d="m9.5,2.5c0-1.381,1.119-2.5,2.5-2.5s2.5,1.119,2.5,2.5-1.119,2.5-2.5,2.5-2.5-1.119-2.5-2.5Zm11.368,15.994c-.272.479-.882.646-1.363.375-.032-.019-3.344-1.869-7.505-1.869-4.186,0-7.471,1.85-7.504,1.868-.155.089-.326.132-.495.132-.304,0-.601-.137-.796-.393-.304-.398-.267-.96.088-1.314l3.707-3.707v-2.586c0-2.757,2.243-5,5-5,.732,0,1.451.169,2.109.477l5.184-5.184c.391-.391,1.023-.391,1.414,0s.391,1.023,0,1.414L7.927,15.488c.951-.224,2.02-.394,3.163-.458.026-.033,4.203-4.237,4.203-4.237.287-.287.716-.371,1.09-.217.374.155.617.52.617.924v4.234c2.065.596,3.405,1.346,3.496,1.398.479.273.646.883.372,1.362Zm-11.868.506c-.553,0-1,.448-1,1v3c0,.552.447,1,1,1s1-.448,1-1v-3c0-.552-.447-1-1-1Zm6,0c-.553,0-1,.448-1,1v3c0,.552.447,1,1,1s1-.448,1-1v-3c0-.552-.447-1-1-1Z"/>
</svg>
