<?xml version="1.0" encoding="UTF-8"?>
<svg xmlns="http://www.w3.org/2000/svg" id="Layer_1" data-name="Layer 1" viewBox="0 0 24 24">
  <path d="M19,20.381c0,.979-.303,1.777-.901,2.374-1.171,1.167-3.169,1.246-5.169,1.246-.431,0-.959-.003-1.392,0-2.156,.007-4.375,.013-5.636-1.245-.598-.597-.901-1.395-.901-2.374,0-2.718,3.06-7.628,6.179-9.003-.604-.559-1.157-1.434-1.674-2.398-.262-.489,.018-1.096,.56-1.216l2.694-.599c.439-.098,.88,.169,.999,.603,.37,1.354,.277,2.626-.13,3.416,2.752,1.035,5.372,6.598,5.372,9.198ZM10.922,3.241c.302,.246,.521,.599,.6,.968,.101,.47,.515,.791,.977,.791,.069,0,.14-.007,.21-.022,.54-.115,.884-.647,.769-1.187-.175-.819-.634-1.565-1.293-2.101-.317-.258-.524-.572-.6-.91-.121-.539-.656-.879-1.195-.756-.539,.121-.877,.656-.756,1.195,.175,.778,.621,1.478,1.289,2.021Zm-4.922,1.759c0,.552,.448,1,1,1s1-.448,1-1c0-1.062-.512-2.112-1.369-2.811-.407-.332-.631-.754-.631-1.189,0-.552-.448-1-1-1s-1,.448-1,1c0,1.034,.499,2.032,1.369,2.74,.389,.317,.631,.8,.631,1.26Zm11,0c0,.552,.448,1,1,1s1-.448,1-1c0-1.062-.512-2.112-1.369-2.811-.407-.332-.631-.754-.631-1.189,0-.552-.448-1-1-1s-1,.448-1,1c0,1.034,.499,2.032,1.369,2.74,.389,.317,.631,.8,.631,1.26ZM6.668,12.445c.226-.644,.366-1.572,.386-2.398,.013-.558-.48-.99-1.032-.912-.5,.071-1.104,.158-1.596,.228-.518,.074-.879,.574-.756,1.083,.16,.661,.406,1.289,.725,1.758,0,.002,0,.002-.002,.004,.001,.002,.002,.003,.003,.005C1.74,13.21,0,18.067,0,20.78c0,1.53,.747,2.623,2.161,3.16,.113,.02,.227,.04,.339,.06h1.85c-.875-.954-1.35-2.193-1.35-3.619,0-2.255,1.506-5.489,3.668-7.936Zm13.234-.102c.366-.367,.711-.847,1.004-1.357,.284-.494,.054-1.125-.484-1.311l-1.344-.466c-.693-.24-1.236,.066-1.361,.591-.076,.319-.131,.684-.166,1.134-.044,.561,.141,1.108,.459,1.571,1.843,2.6,2.99,6.005,2.99,7.875,0,1.426-.475,2.666-1.35,3.619h1.734c.109,0,.22-.018,.329-.056,1.497-.521,2.288-1.629,2.288-3.206,0-2.856-1.657-7.224-4.098-8.395Z"/>
</svg>
