<?xml version="1.0" encoding="UTF-8"?>
<svg xmlns="http://www.w3.org/2000/svg" id="Layer_1" data-name="Layer 1" viewBox="0 0 24 24">
  <path d="m8,14H0v-3h8v3Zm0,2H0v3h8v-3Zm2,5v3h9c2.045,0,3.802-1.237,4.576-3h-13.576Zm0-2h14v-3h-14v3Zm0-8v3h14v-3h-14ZM.424,21c.774,1.763,2.531,3,4.576,3h3v-3H.424Zm15.992-12.57c.379-.378.587-.881.587-1.416V.893c0-.388-.236-.724-.604-.856-.367-.131-.764-.019-1.029.308l-1.146,1.577-1.318-1.557c-.5-.495-1.32-.484-1.856.055l-1.271,1.506s-1.321-1.757-1.363-1.787c-.232-.166-.586-.188-.887-.052-.325.15-.526.467-.526.825v6.09c0,1.101.895,1.998,1.996,2l6,.014h.005c.533,0,1.034-.208,1.412-.584Zm2.587-1.416c0,.711-.2,1.386-.546,1.986h5.118c-.773-1.762-2.529-2.998-4.573-3v1.014Zm-14-.014v-1h-.003c-2.045,0-3.802,1.237-4.576,3h5.136c-.345-.591-.557-1.268-.557-2Z"/>
</svg>
