<?xml version="1.0" encoding="UTF-8"?>
<svg xmlns="http://www.w3.org/2000/svg" id="Layer_1" data-name="Layer 1" viewBox="0 0 24 24">
  <path d="m5,7c-1,0-1-1-1-1C4,1.922,6.589.618,9,.2v1.8c0,.552.448,1,1,1h0c.552,0,1-.448,1-1V.011c.37-.011.709-.011,1-.011s.63,0,1,.011v1.989c0,.552.448,1,1,1h0c.552,0,1-.448,1-1V.2c2.411.418,5,1.722,5,5.8,0,0,0,1-1,1H5Zm16.908,10.507l-1.53-7.702c-.093-.468-.504-.805-.981-.805H4.603c-.477,0-.888.337-.981.805l-1.545,7.782c-.269,1.599.177,3.226,1.225,4.464,1.047,1.238,2.578,1.948,4.199,1.948h8.999c1.634,0,3.172-.719,4.22-1.973,1.048-1.254,1.482-2.895,1.189-4.521Zm-8.408,3.493c-.828,0-1.5-.672-1.5-1.5s.672-1.5,1.5-1.5,1.5.672,1.5,1.5-.672,1.5-1.5,1.5Zm3-4c-.828,0-1.5-.672-1.5-1.5s.672-1.5,1.5-1.5,1.5.672,1.5,1.5-.672,1.5-1.5,1.5Z"/>
</svg>
