<?xml version="1.0" encoding="UTF-8"?>
<svg xmlns="http://www.w3.org/2000/svg" id="Layer_1" data-name="Layer 1" viewBox="0 0 24 24">
  <path d="M8,20c0,2.209-1.791,4-4,4S0,22.209,0,20s1.791-4,4-4,4,1.791,4,4Zm10-7c0,1.105,.895,2,2,2h.5c1.328,0,2.548,.474,3.5,1.261V4c0-2.209-1.791-4-4-4h0c-1.105,0-2,.895-2,2V13Zm-14,1c1.537,0,2.937,.586,4,1.541V4C8,1.794,6.206,0,4,0S0,1.794,0,4V15.541c1.063-.954,2.463-1.541,4-1.541Zm16.399,3h-.399c-2.209,0-4-1.791-4-4V6h-6v14c0,1.537-.586,2.937-1.541,4h12.041c2.17,0,3.885-1.986,3.425-4.235-.335-1.636-1.855-2.765-3.525-2.765Z"/>
</svg>
