<?xml version="1.0" encoding="UTF-8"?>
<svg xmlns="http://www.w3.org/2000/svg" id="Layer_1" data-name="Layer 1" viewBox="0 0 24 24">
  <path d="M18,0H6C3.243,0,1,2.243,1,5v5c0,2.757,2.243,5,5,5h3.12l1.844,1.638c.3,.238,.658,.36,1.022,.36,.376,0,.76-.13,1.091-.396l1.803-1.603h3.12c2.757,0,5-2.243,5-5V5c0-2.757-2.243-5-5-5ZM9.644,10.994c-.38,0-.71-.264-.792-.636l-.08-.358h-2.148l-.097,.401c-.084,.348-.395,.593-.753,.593-.498,0-.866-.463-.755-.948l1.072-4.664c.333-1.804,2.992-1.814,3.303,.04l1.04,4.581c.115,.508-.271,.991-.791,.991Zm3.056-2.994h-.4c-.442,0-.8-.358-.8-.8s.358-.8,.8-.8h.4c.442,0,.8,.358,.8,.8s-.358,.8-.8,.8Zm5.5,1.4c.442,0,.8,.358,.8,.8s-.358,.8-.8,.8h-2.444c-.721,0-1.306-.585-1.306-1.306,0-.266,.082-.526,.234-.745l2.329-3.349h-1.763c-.442,0-.8-.358-.8-.8s.358-.8,.8-.8h2.444c.721,0,1.306,.585,1.306,1.306,0,.266-.082,.527-.234,.745l-2.329,3.35h1.763ZM7.834,5.777l.583,2.624h-1.407l.646-2.678c.019-.068,.05-.122,.097-.122,.014,.01,.057,.063,.082,.176Zm14.166,13.223h-5.111c-2.778,0-4.242,1.334-4.944,2.748-.702-1.414-2.166-2.748-4.944-2.748H2c-1.105,0-2,.895-2,2v2c0,.552,.448,1,1,1H23c.552,0,1-.448,1-1v-2c0-1.105-.895-2-2-2Z"/>
</svg>
