<?xml version="1.0" encoding="UTF-8"?>
<svg xmlns="http://www.w3.org/2000/svg" id="Layer_1" data-name="Layer 1" viewBox="0 0 24 24">
  <path d="m23.707,22.293c.391.391.391,1.023,0,1.414-.195.195-.451.293-.707.293s-.512-.098-.707-.293L.293,1.707C-.098,1.316-.098.684.293.293S1.316-.098,1.707.293l3.178,3.178c.643-.302,1.36-.471,2.115-.471h10c2.757,0,5,2.243,5,5v6.11c-.323-.067-.656-.11-1-.11h-5.151c-.139,0-.276.008-.413.022l1.978,1.978h4.086c1.381,0,2.5,1.119,2.5,2.5,0,1.106-.718,2.043-1.713,2.373l1.42,1.42Zm-15.556-8.293c.927,0,1.814.319,2.52.893L2.242,6.464c-.157.484-.242,1.001-.242,1.536v6.11c.323-.067.656-.11,1-.11h5.151Zm1.774,3l-.247-.292c-.38-.449-.939-.708-1.527-.708H2.5c-1.381,0-2.5,1.119-2.5,2.5s1.119,2.5,2.5,2.5h14.278l-4-4h-2.853Z"/>
</svg>
