<?xml version="1.0" encoding="UTF-8"?>
<svg xmlns="http://www.w3.org/2000/svg" id="Layer_1" data-name="Layer 1" viewBox="0 0 24 24">
  <path d="m15.5,14c-2.485,0-4.5,2.015-4.5,4.5s2.015,4.5,4.5,4.5,4.5-2.015,4.5-4.5-2.015-4.5-4.5-4.5Zm0,6c-.828,0-1.5-.672-1.5-1.5s.672-1.5,1.5-1.5,1.5.672,1.5,1.5-.672,1.5-1.5,1.5Zm-6.462-.672c.077.714.27,1.393.558,2.02-.969.523-2.024.79-3.076.79-2.042,0-4.055-.956-5.322-2.745-2.065-2.915-1.385-6.958,1.507-9.042l6.333,8.978Zm13.946-9.885l-4.063,3.679c-.995-.618-2.164-.981-3.422-.981-2.796,0-5.172,1.768-6.09,4.245l-4.949-7.016,2.413-1.324C6.167,5.243,3.899,3.311.896,2.994.346,2.937-.053,2.444.006,1.896c.058-.55.559-.952,1.099-.89,3.63.382,6.505,2.737,7.554,6.061l9.091-4.987c1.381-.757,3.103-.357,4.011.924l1.672,2.36c.902,1.276.71,3.029-.447,4.079Z"/>
</svg>
