<?xml version="1.0" encoding="UTF-8"?>
<svg xmlns="http://www.w3.org/2000/svg" id="Layer_1" data-name="Layer 1" viewBox="0 0 24 24">
  <path d="m22,19.697v2.803c0,.828-.672,1.5-1.5,1.5H4.686c-.539,0-1.055-.217-1.431-.603l-1.543-1.58c-.787-.789-.972-2.064-.305-2.958.695-.933,1.922-1.138,2.853-.619.222.145.39.271.487.367l2.252,2.292V6c0-1.215,1.083-2.176,2.336-1.973.983.16,1.664,1.083,1.664,2.08v7.393s8.115,2.355,8.115,2.355c1.709.496,2.885,2.062,2.885,3.842ZM4.71,11.312c.448-.323.55-.948.228-1.396-.614-.853-.938-1.861-.938-2.916,0-2.757,2.243-5,5-5s5,2.243,5,5c0,1.056-.324,2.064-.938,2.916-.323.448-.221,1.073.228,1.396.177.127.381.188.583.188.311,0,.617-.145.812-.416.86-1.195,1.314-2.607,1.314-4.084,0-3.86-3.14-7-7-7S2,3.14,2,7c0,1.477.455,2.889,1.314,4.084.322.448.946.55,1.396.228Z"/>
</svg>
