<?xml version="1.0" encoding="UTF-8"?>
<svg xmlns="http://www.w3.org/2000/svg" id="Layer_1" data-name="Layer 1" viewBox="0 0 24 24">
  <path d="M23.536,14.725c-.427-.509-1.066-.783-1.727-.716-5.149,.48-7.641,3.574-8.809,5.942v-4.145c.884-.373,1.504-1.248,1.504-2.268l-.496-2.232,1.724,1.502c1.194,.65,2.689,.208,3.339-.986,.65-1.194,.208-2.689-.986-3.339l-1.686-.484,1.686-.484c1.194-.65,1.636-2.144,.986-3.339-.65-1.194-2.144-1.636-3.339-.986l-1.724,1.502,.496-2.232c0-1.359-1.102-2.461-2.462-2.461s-2.461,1.102-2.461,2.461l.496,2.232-1.724-1.502c-1.194-.65-2.689-.208-3.338,.986s-.208,2.689,.986,3.339l1.686,.484-1.686,.484c-1.194,.65-1.636,2.144-.986,3.339s2.144,1.636,3.338,.986l1.724-1.502-.496,2.232c0,.985,.583,1.829,1.418,2.222v4.191c-1.167-2.368-3.659-5.463-8.808-5.943-.659-.066-1.301,.207-1.726,.716-.419,.501-.566,1.171-.394,1.792,2.039,7.338,11.52,7.481,11.922,7.483h.013c.402-.002,9.883-.145,11.922-7.483,.172-.621,.025-1.291-.394-1.792Zm-13.538-6.725c0-1.105,.895-2,2-2s2,.895,2,2-.895,2-2,2-2-.895-2-2Z"/>
</svg>
