<?xml version="1.0" encoding="UTF-8"?>
<svg xmlns="http://www.w3.org/2000/svg" id="Layer_1" data-name="Layer 1" viewBox="0 0 24 24">
  <path d="m19.744,16h4.256v4.5c0,1.933-1.567,3.5-3.5,3.5h-2.936c-.975,0-1.697-.883-1.54-1.846.429-2.63,2.555-4.715,3.72-6.154Zm-15.487,0H0v4.5c0,1.933,1.567,3.5,3.5,3.5h2.955c.965,0,1.676-.873,1.525-1.826-.42-2.639-2.555-4.731-3.723-6.174ZM24,5v9h-4c-3.11-1.398-7.638-4.65-8-12-.362,7.35-4.89,10.602-8,12H0V5C0,2.239,2.239,0,5,0h14c2.761,0,5,2.239,5,5Zm-15.071-1.848c.083-.606-.389-1.152-1-1.152-.492,0-.926.355-.991.842-.353,2.618-1.436,4.301-2.6,5.367-.21.192-.337.454-.337.738,0,.853,1.009,1.31,1.645.741,1.476-1.319,2.85-3.369,3.284-6.537Zm11.071,5.795c0-.284-.127-.545-.336-.737-1.161-1.066-2.228-2.749-2.578-5.366-.065-.488-.499-.844-.992-.844-.611,0-1.083.546-1,1.152.431,3.166,1.793,5.216,3.262,6.535.635.57,1.645.113,1.645-.739Z"/>
</svg>
