<?xml version="1.0" encoding="UTF-8"?>
<svg xmlns="http://www.w3.org/2000/svg" id="Layer_1" data-name="Layer 1" viewBox="0 0 24 24">
  <path d="M0,21H9v1c0,1.105-.895,2-2,2H2c-1.105,0-2-.895-2-2v-1ZM5,2H3C1.343,2,0,3.343,0,5v1H4c.552,0,1-.448,1-1V2Zm15.522,11.603c-1.022-.306-1.855-.506-2.589-.682-.036-.009-.066-.016-.101-.024l-1.417,2.043c-.322,.464-.965,.57-1.418,.233l-.006-.005c-.43-.32-.532-.922-.23-1.365l1.022-1.501c-.455-.188-.87-.427-1.308-.777l-1.615,.897c-.483,.268-1.091,.094-1.36-.388h0c-.268-.483-.094-1.092,.388-1.36l2.111-1.173V3c0-.939-.385-1.766-1.085-2.327-.72-.578-1.688-.804-2.585-.603l-3.33,1.417v3.513c0,1.657-1.343,3-3,3H0v11H8.167c.32,0,.636,.077,.92,.224l4.912,2.545v1.23c0,.552,.448,1,1,1h0c.552,0,1-.448,1-1v-1h2v1c0,.552,.448,1,1,1h0c.552,0,1-.448,1-1v-1h2v1c0,.552,.448,1,1,1h0c.552,0,1-.448,1-1v-3.967c0-2.236-1.204-4.822-3.478-5.43Z"/>
</svg>
