<?xml version="1.0" encoding="UTF-8"?>
<svg xmlns="http://www.w3.org/2000/svg" id="Layer_1" data-name="Layer 1" viewBox="0 0 24 24">
  <path d="M12,10c1.657,0,3,1.343,3,3s-1.343,3-3,3-3-1.343-3-3,1.343-3,3-3Zm10,0v4.342c0,1.443-.777,2.774-2.034,3.483l-2.966,1.675v3.5c0,.552-.448,1-1,1H8c-.552,0-1-.448-1-1v-3.5l-2.967-1.675c-1.256-.709-2.033-2.04-2.033-3.483v-4.342c0-.552,.448-1,1-1s1,.448,1,1v4.645c0,.409,.249,.777,.629,.929l3.563,1.426h7.615l3.564-1.426c.38-.152,.629-.52,.629-.929v-4.646c0-.552,.447-1,1-1s1,.448,1,1ZM4.852,6.683c.22,.412,.775,.494,1.105,.164l1.641-1.641,1.219,2.446c.196,.394,.732,.456,1.013,.118,.111-.133,.16-.307,.135-.478l-.832-5.722c-.108-.534-.767-.733-1.152-.347l-1.63,1.63L5.248,.415c-.22-.455-.823-.557-1.181-.199l-1.118,1.118c-.267,.267-.333,.673-.166,1.011l2.068,4.339Zm10.302,.969l1.219-2.446,1.641,1.641c.33,.33,.885,.248,1.105-.164l2.068-4.339c.167-.338,.101-.744-.166-1.011l-1.118-1.118c-.357-.357-.961-.256-1.181,.199l-1.103,2.439-1.63-1.63c-.385-.385-1.044-.186-1.152,.347l-.832,5.722c-.025,.171,.024,.345,.135,.478,.282,.338,.817,.275,1.013-.118Z"/>
</svg>
