<?xml version="1.0" encoding="UTF-8"?>
<svg xmlns="http://www.w3.org/2000/svg" id="Layer_1" data-name="Layer 1" viewBox="0 0 24 24">
  <path d="M21.5,0c-1.381,0-2.5,1.119-2.5,2.5,0-1.381-1.119-2.5-2.5-2.5s-2.5,1.119-2.5,2.5c0,1.994,2.337,4.786,3.816,5.971,.695,.557,1.674,.557,2.369,0,1.479-1.185,3.816-3.977,3.816-5.971,0-1.381-1.119-2.5-2.5-2.5ZM9.878,14.546L.744,5.411c.879-1.439,2.45-2.411,4.256-2.411h7.032c.322,3.014,3.41,6.133,4.533,7.033,.417,.334,.885,.559,1.371,.698l-3.814,3.815c-.585,.584-1.353,.876-2.122,.876-.768,0-1.537-.292-2.122-.876Zm5.657,1.414L24,7.577v11.423c0,2.757-2.243,5-5,5H5c-2.757,0-5-2.243-5-5V8c0-.157,.032-.305,.046-.458L8.464,15.96c.975,.975,2.255,1.462,3.536,1.462s2.561-.487,3.536-1.462Z"/>
</svg>
