<?xml version="1.0" encoding="UTF-8"?>
<svg xmlns="http://www.w3.org/2000/svg" id="Layer_1" data-name="Layer 1" viewBox="0 0 24 24">
  <path d="m6.998,8.003l4.002-.002v9.997l-4,.002v3.506c0,1.378-1.121,2.499-2.499,2.499s-2.498-1.12-2.499-2.498l-.002-8.503c0-.921.251-1.785.687-2.528-1.092-.643-2.688-2.004-2.688-4.476,0-.552.448-1,1-1s1,.448,1,1c0,1.81,1.475,2.674,2.075,2.951.822-.596,1.832-.948,2.923-.948Zm15.002-3.003h-.382c-.309,0-.586-.171-.724-.447-.479-.958-1.442-1.553-2.512-1.553h-1.382V.77c0-.525-.522-.904-1.015-.726-1.157.416-1.985,1.523-1.985,2.824v1.632l-1.112,3.048L2.581.186c-.449-.321-1.074-.218-1.395.233-.321.449-.217,1.074.233,1.395l8.66,6.186h3.194l6.896,2.925.01-.031c2.123-.094,3.82-1.851,3.82-3.996,0-.92-.701-1.898-2-1.898Zm-9,16.5c0,1.378,1.122,2.5,2.5,2.5s2.5-1.122,2.5-2.5v-3.265c0-.4.041-.801.12-1.193l1.41-4.207-6.529-2.749v11.415Z"/>
</svg>
