<?xml version="1.0" encoding="UTF-8"?>
<svg xmlns="http://www.w3.org/2000/svg" id="Layer_1" data-name="Layer 1" viewBox="0 0 24 24">
  <path d="m11.483,9.527c-.575-.783-.643-1.84-.171-2.692l.653-1.081,1.522,1.986c.929,1.21,2.333,1.988,3.852,2.135l1.397.134-.443.733c-.424.767-1.268,1.259-2.17,1.259-.843-.062-1.861-.326-2.669-.772-.807-.447-1.47-1.019-1.971-1.701Zm4.64,2.473c-.061,0,.061.004,0,0h0Zm-12.873-1.126s-.002-.003-.003-.005c-.035.007-.015.007.003.005Zm16.121,3.471c-.596,1.055-2.39,3.448-6.371,3.637v2.518c0,1.287,1.023,1.491,1.464,1.5.073.001.536,0,.536,0,.553,0,1,.448,1,1s-.447,1-1,1H6c-.553,0-1-.448-1-1s.447-1,1-1h.5c.444-.008,1.5-.167,1.5-1.455v-2.545C2.482,18,0,14.465,0,11.955c0-1.442,1.01-2.647,2.359-2.96-.077-.207-.16-.416-.219-.618-.306-1.034-.107-2.125.544-2.992.659-.88,1.667-1.384,2.766-1.384h.011c.594.002,2.047.003,3.434.003.788,0,1.273.861.866,1.536l-.197.327c-.848,1.533-.727,3.434.31,4.845.673.916,1.552,1.678,2.614,2.267.938.518,1.916.832,2.913.958-.488.565-1.023,1.084-1.607,1.519-.18.134-.323.305-.446.489,2.567-.267,3.78-1.692,4.283-2.583.272-.481.881-.65,1.363-.379.48.271.65.881.379,1.362Zm-11.717,1.642c-.123-.184-.266-.355-.446-.489-1.494-1.111-2.946-2.852-3.961-4.629-.577,0-1.247.509-1.247,1.086,0,1.285,1.399,3.894,5.654,4.032ZM24,6.523c.02-.436-.116-.875-.395-1.234l-2.714-3.504c-.591-.763-1.481-1.254-2.443-1.348L14.061.009c-.732-.076-1.459.303-1.822.957-.363.654-.304,1.46.151,2.053l2.685,3.502c.593.772,1.488,1.269,2.456,1.362,0,0,4.45.425,4.47.426v2.691c0,.552.447,1,1,1s1-.448,1-1c0,0,.005-4.439,0-4.477Z"/>
</svg>
