<?xml version="1.0" encoding="utf-8"?>
<!-- Generator: Adobe Illustrator 27.2.0, SVG Export Plug-In . SVG Version: 6.00 Build 0)  -->
<svg xmlns="http://www.w3.org/2000/svg" xmlns:xlink="http://www.w3.org/1999/xlink" version="1.1" id="Layer_1" x="0px" y="0px" viewBox="0 0 24 24" style="enable-background:new 0 0 24 24;" xml:space="preserve">
<path d="M12,0C5.4,0,0,5.4,0,12s5.4,12,12,12s12-5.4,12-12S18.6,0,12,0z M15,16c0,0.6-0.4,1-1,1s-1-0.4-1-1v-5.9l-0.5,0.6  c-0.4,0.4-1,0.4-1.4,0.1s-0.4-1-0.1-1.4l1.7-1.9c0.4-0.4,0.9-0.5,1.4-0.3C14.7,7.3,15,7.8,15,8.3V16z M9,15c0.6,0,1,0.4,1,1  s-0.4,1-1,1H5c-0.6,0-1-0.4-1-1c0-1.4,1-2.3,2-3.1C7,12,8,11.2,8,10c0-0.6-0.4-1-1-1s-1,0.4-1,1s-0.4,1-1,1s-1-0.4-1-1  c0-1.7,1.3-3,3-3s3,1.3,3,3c0,2.1-1.5,3.4-2.6,4.4c-0.2,0.2-0.5,0.4-0.7,0.6H9z M21,13h-1v1c0,0.6-0.4,1-1,1s-1-0.4-1-1v-1h-1  c-0.6,0-1-0.4-1-1s0.4-1,1-1h1v-1c0-0.6,0.4-1,1-1s1,0.4,1,1v1h1c0.6,0,1,0.4,1,1S21.6,13,21,13z"/>
</svg>
