<?xml version="1.0" encoding="UTF-8"?>
<svg xmlns="http://www.w3.org/2000/svg" id="Layer_1" data-name="Layer 1" viewBox="0 0 24 24">
  <path d="m24.015,15.968l-.01,5.052c-.003,1.653-1.347,2.99-2.999,2.985h0c-1.649-.005-2.983-1.342-2.983-2.991v-1.014h-7v1.009c0,1.652-1.339,2.991-2.991,2.991h-.018c-1.652,0-2.991-1.339-2.991-2.991v-5.045c.467-.067.923-.271,1.315-.625l1.319-1.194c.172-.156.434-.156.607,0l1.318,1.194c.934.846,2.356.846,3.29,0l1.319-1.194c.172-.156.434-.156.607,0l1.32,1.195c.484.438,1.063.655,1.644.655s1.161-.219,1.645-.656l1.32-1.194c.172-.156.434-.156.606,0l1.32,1.195c.406.366.88.569,1.365.629ZM2.12,9.962c.459.216,1.319.424,2.108.584.464.094.795.505.795.978v2.307l1.292-1.17c.934-.846,2.356-.845,3.29,0l1.319,1.194c.172.156.434.156.607,0l1.319-1.194c.934-.846,2.357-.846,3.29,0l1.32,1.195c.171.155.432.155.604,0l1.321-1.195c.934-.845,2.356-.845,3.29,0l1.319,1.195c.009.008.018.011.027.019l.004-1.875c0-2.757-2.243-5-5-5h-6.523c-.5,0-.477-.5-.477-.5,0-1.069-.38-2.029-1-2.793v-.808c0-1.348-.889-2.488-2.113-2.867-.438-.135-.887.175-.887.634v1.385c-.048-.006-.642-.051-.642-.051v.019c-.439.026-1.044.086-1.437.211l-3.56,1.286c-.684.247-1.312.664-1.732,1.257C-.023,5.725-.177,6.89.204,7.951c.312.871.975,1.566,1.916,2.011Z"/>
</svg>
