<?xml version="1.0" encoding="UTF-8"?>
<svg xmlns="http://www.w3.org/2000/svg" id="Layer_1" data-name="Layer 1" viewBox="0 0 24 24">
  <path d="m14,17c0-1.654,1.346-3,3-3h6.976c.011-.161.024-.322.024-.485V5c0-2.757-2.243-5-5-5H5C2.243,0,0,2.243,0,5v14c0,2.757,2.243,5,5,5h8.515c.163,0,.324-.013.485-.024v-6.976Zm-6.639-8.621c-.16.899-1.019,1.552-2.04,1.552-.826,0-1.603-.333-2.13-.914-.232-.255-.213-.65.043-.882h0c.255-.232.65-.213.882.042h0c.286.316.736.504,1.204.504.448,0,.764-.265.81-.521.062-.345-.451-.562-.61-.621-.752-.277-1.43-.58-1.43-.58-.6-.382-.864-.969-.777-1.579.094-.649.568-1.178,1.239-1.38,1.317-.397,2.407.499,2.452.537l.003.002c.263.221.297.613.076.876l-.005.005c-.221.263-.613.297-.875.076-.025-.021-.633-.495-1.29-.299-.293.088-.351.282-.362.361-.008.059-.013.206.13.302.016,0,.614.263,1.272.506,1.223.451,1.529,1.336,1.408,2.014Zm3.657.927c-.076.364-.397.625-.768.625-.36,0-.673-.245-.761-.593l-1.171-4.652c-.096-.383.193-.755.588-.755.278,0,.521.189.589.459l.71,2.823.583-2.799c.059-.281.307-.483.594-.483h.012c.385,0,.673.354.594.731l-.969,4.645Zm1.982-1.291v-2.099c0-1.094.891-1.985,2-1.985h0c.769.006,1.437.445,1.772,1.079.22.418-.082.921-.554.921-.235,0-.444-.134-.555-.341-.127-.235-.379-.405-.662-.409-.391,0-.749.302-.749.751v2.067c0,.449.358.751.749.751.408-.007.75-.34.75-.735v-.084h-.25c-.276,0-.5-.224-.5-.5s.224-.5.5-.5h.75c.414,0,.75.336.75.75v.334c0,1.09-.896,1.977-2,1.984h0c-1.109.001-2-.889-2-1.984Zm10.54,7.985c-.347.913-.88,1.753-1.591,2.465l-3.484,3.484c-.711.711-1.552,1.244-2.465,1.591v-6.54c0-.552.448-1,1-1h6.54Z"/>
</svg>
