<?xml version="1.0" encoding="UTF-8"?>
<svg xmlns="http://www.w3.org/2000/svg" id="Layer_1" data-name="Layer 1" viewBox="0 0 24 24">
  <path d="m16.5,18c0-.46-.089-.895-.218-1.312l.55-.317c.479-.276.643-.887.367-1.366h0c-.276-.478-.887-.643-1.365-.367l-.544.314c-.605-.652-1.393-1.126-2.289-1.331v-.621c0-.552-.448-1-1-1h0c-.552,0-1,.448-1,1v.621c-.896.205-1.685.678-2.289,1.331l-.544-.314c-.478-.276-1.09-.111-1.365.367h0c-.276.479-.112,1.09.367,1.366l.55.317c-.129.418-.218.853-.218,1.312s.089.895.218,1.312l-.55.317c-.479.276-.643.887-.367,1.366h0c.276.478.887.643,1.365.367l.544-.314c.605.652,1.393,1.126,2.289,1.331v.621c0,.552.448,1,1,1h0c.552,0,1-.448,1-1v-.621c.896-.205,1.685-.678,2.289-1.331l.544.314c.478.276,1.09.111,1.365-.367h0c.276-.479.112-1.09-.367-1.366l-.55-.317c.129-.418.218-.853.218-1.312Zm-4.5,1.5c-.827,0-1.5-.673-1.5-1.5s.673-1.5,1.5-1.5,1.5.673,1.5,1.5-.673,1.5-1.5,1.5Zm12-7.003c0,2.909-1.668,5.431-4.095,6.674.056-.383.095-.772.095-1.171,0-4.418-3.582-8-8-8s-8,3.582-8,8c0,.634.082,1.248.221,1.84-2.417-.579-4.221-2.752-4.221-5.344,0-1.546.656-3.029,1.801-4.07.273-.248.405-.593.346-.901-.184-.946-.195-1.919-.033-2.89C2.66,3.346,5.225.734,8.497.134c3.592-.661,7.183,1.167,8.735,4.438.14.296.41.503.742.569,3.492.696,6.026,3.789,6.026,7.354Z"/>
</svg>
