<?xml version="1.0" encoding="UTF-8"?>
<svg xmlns="http://www.w3.org/2000/svg" id="Layer_1" data-name="Layer 1" viewBox="0 0 24 24">
  <path d="m6,12c-3.309,0-6-2.691-6-6S2.691,0,6,0c.903,0,1.776.201,2.595.598.348.168.567.522.564.908-.003.386-.229.736-.579.899-1.905.884-2.58,1.825-2.58,3.595s.675,2.711,2.581,3.595c.35.163.576.512.579.898s-.216.74-.563.908c-.817.397-1.69.598-2.597.598Zm15.5-3c-.256,0-.486-.156-.58-.393l-.439-1.097-1.099-.463c-.236-.099-.387-.332-.382-.587.005-.255.165-.482.404-.573l1.082-.41.433-1.084c.095-.237.325-.393.58-.393s.486.156.58.393l.436,1.09,1.09.436c.237.095.393.325.393.58s-.156.486-.393.58l-1.09.436-.436,1.09c-.095.237-.325.393-.58.393ZM3.5,21.5c-.307,0-.583-.187-.697-.472l-.526-1.316-1.318-.556c-.283-.119-.464-.398-.459-.705.006-.307.198-.579.484-.687l1.299-.492.52-1.301c.114-.285.39-.472.697-.472s.583.187.697.472l.523,1.308,1.308.523c.285.114.472.39.472.697s-.187.583-.472.697l-1.308.523-.523,1.308c-.114.285-.39.472-.697.472ZM13.5,7c-.358,0-.68-.218-.813-.55l-.614-1.535-1.538-.648c-.33-.139-.542-.464-.535-.822.007-.358.231-.675.565-.802l1.515-.574.607-1.518c.133-.332.455-.55.813-.55s.68.218.813.55l.611,1.527,1.527.611c.332.133.55.455.55.813s-.218.68-.55.813l-1.527.611-.611,1.527c-.133.332-.455.55-.813.55Zm8.965,5.447l-4-3.13c-1.448-1.133-3.482-1.133-4.93,0l-4,3.129c-.969.758-1.535,1.92-1.535,3.15v4.404c0,2.209,1.791,4,4,4h8c2.209,0,4-1.791,4-4v-4.403c0-1.23-.566-2.392-1.535-3.15Zm-5.465,6.553h-2c-.552,0-1-.448-1-1v-2c0-.552.448-1,1-1h2c.552,0,1,.448,1,1v2c0,.552-.448,1-1,1Z"/>
</svg>
