<?xml version="1.0" encoding="UTF-8"?>
<svg xmlns="http://www.w3.org/2000/svg" id="Layer_1" data-name="Layer 1" viewBox="0 0 24 24">
  <path d="m18.573,2.126L12.314.051c-.203-.068-.426-.068-.629,0l-6.259,2.075c-2.05.68-3.427,2.587-3.427,4.746v5.171c0,6.563,7.005,10.577,9.152,11.65,0,0,.467.307.85.307s.791-.24.791-.24c2.16-.869,9.207-4.281,9.207-11.717v-5.171c0-2.159-1.377-4.066-3.427-4.746Zm-5.573,9.665v3.209c0,.553-.447,1-1,1s-1-.447-1-1v-3.209c-.883-.386-1.5-1.266-1.5-2.291,0-1.381,1.119-2.5,2.5-2.5s2.5,1.119,2.5,2.5c0,1.025-.617,1.906-1.5,2.291Z"/>
</svg>
