<?xml version="1.0" encoding="UTF-8"?>
<svg xmlns="http://www.w3.org/2000/svg" id="Layer_1" data-name="Layer 1" viewBox="0 0 24 24">
  <path d="m14.707,10.707l-1.293,1.293,1.293,1.293c.391.391.391,1.023,0,1.414-.195.195-.451.293-.707.293s-.512-.098-.707-.293l-1.293-1.293-1.293,1.293c-.195.195-.451.293-.707.293s-.512-.098-.707-.293c-.391-.391-.391-1.023,0-1.414l1.293-1.293-1.293-1.293c-.391-.391-.391-1.023,0-1.414s1.023-.391,1.414,0l1.293,1.293,1.293-1.293c.391-.391,1.023-.391,1.414,0s.391,1.023,0,1.414Zm2.586,4c.195.195.451.293.707.293s.512-.098.707-.293l1.293-1.293,1.293,1.293c.195.195.451.293.707.293s.512-.098.707-.293c.391-.391.391-1.023,0-1.414l-1.293-1.293,1.293-1.293c.391-.391.391-1.023,0-1.414s-1.023-.391-1.414,0l-1.293,1.293-1.293-1.293c-.391-.391-1.023-.391-1.414,0s-.391,1.023,0,1.414l1.293,1.293-1.293,1.293c-.391.391-.391,1.023,0,1.414Zm-16,0c.195.195.451.293.707.293s.512-.098.707-.293l1.293-1.293,1.293,1.293c.195.195.451.293.707.293s.512-.098.707-.293c.391-.391.391-1.023,0-1.414l-1.293-1.293,1.293-1.293c.391-.391.391-1.023,0-1.414s-1.023-.391-1.414,0l-1.293,1.293-1.293-1.293c-.391-.391-1.023-.391-1.414,0s-.391,1.023,0,1.414l1.293,1.293-1.293,1.293c-.391.391-.391,1.023,0,1.414Zm5.707,7.293h-2c-1.654,0-3-1.346-3-3v-2c0-.553-.448-1-1-1s-1,.447-1,1v2c0,2.757,2.243,5,5,5h2c.552,0,1-.447,1-1s-.448-1-1-1Zm16-6c-.552,0-1,.447-1,1v2c0,1.654-1.346,3-3,3h-2c-.552,0-1,.447-1,1s.448,1,1,1h2c2.757,0,5-2.243,5-5v-2c0-.553-.448-1-1-1ZM19,0h-2c-.552,0-1,.448-1,1s.448,1,1,1h2c1.654,0,3,1.346,3,3v2c0,.552.448,1,1,1s1-.448,1-1v-2c0-2.757-2.243-5-5-5ZM7,0h-2C2.243,0,0,2.243,0,5v2c0,.552.448,1,1,1s1-.448,1-1v-2c0-1.654,1.346-3,3-3h2c.552,0,1-.448,1-1s-.448-1-1-1Z"/>
</svg>
