<?xml version="1.0" encoding="UTF-8"?>
<svg xmlns="http://www.w3.org/2000/svg" id="Layer_1" data-name="Layer 1" viewBox="0 0 24 24">
  <path d="m23.855,10.012c-.287-.473-.902-.622-1.373-.337l-12.125,7.341c-1.315.018-4.485.129-5.639.764-.775.427-1.339,1.13-1.586,1.98-.247.851-.147,1.746.279,2.522s1.13,1.339,1.979,1.586c.307.089.619.133.93.133.551,0,1.096-.139,1.592-.412,1.198-.658,2.84-3.629,3.488-4.868l12.118-7.336c.473-.286.624-.901.338-1.374ZM7.678.285c-.499-.495-1.342-.321-1.598.333-.944,2.407-.643,5.382-2.58,5.382-.527,0-.81-1.297-1.019-2-.133-.448-.732-.523-.981-.127-.803,1.279-1.5,3.185-1.5,4.627,0,3.977,3.572,7.12,7.682,6.396,2.307-.406,4.23-2.126,4.974-4.347C14.19,5.971,10.239,2.827,7.678.285Zm.369,11.998c-.802.936-2.242.936-3.045,0-.693-.81-.558-2.046.195-2.8l.739-.739c.325-.325.851-.325,1.176,0l.739.74c.753.754.888,1.99.195,2.8Z"/>
</svg>
