<?xml version="1.0" encoding="UTF-8"?>
<svg xmlns="http://www.w3.org/2000/svg" id="Layer_1" data-name="Layer 1" viewBox="0 0 24 24">
  <path d="m8.092,2.5c0-1.381,1.119-2.5,2.5-2.5s2.5,1.119,2.5,2.5-1.119,2.5-2.5,2.5-2.5-1.119-2.5-2.5Zm15.804,10.133l-2.992,8.101c-.723,1.954-2.607,3.267-4.69,3.267H1c-.552,0-1-.447-1-1s.448-1,1-1h8v-4.429l-3.577-2.107c-1.259-.797-1.752-2.342-1.199-3.69l1.548-3.773h-1.917l-1.434,3.39c-.161.382-.532.61-.921.61-.13,0-.262-.025-.389-.079-.509-.215-.747-.802-.531-1.311l1.434-3.39c.314-.741,1.037-1.221,1.842-1.221h4.24c1.19,0,2.311.524,3.073,1.438l2.281,2.562h2.552c.553,0,1,.447,1,1s-.447,1-1,1h-2.552c-.569,0-1.113-.244-1.493-.669l-1.679-1.886-2.106,5.317,1.845,1.087c.607.357.984,1.018.984,1.723v4.429h5.214c1.25,0,2.381-.787,2.813-1.96l2.982-8.07-3.01.03c-.553,0-1-.447-1-1s.447-1,1-1h3c.641,0,1.247.311,1.622.83.375.521.478,1.194.274,1.803ZM1,19h3c.552,0,1-.447,1-1s-.448-1-1-1H1c-.552,0-1,.447-1,1s.448,1,1,1Z"/>
</svg>
