<?xml version="1.0" encoding="UTF-8"?>
<svg xmlns="http://www.w3.org/2000/svg" id="Layer_1" data-name="Layer 1" viewBox="0 0 24 24">
  <path d="m14,12c0,1.103-.897,2-2,2s-2-.897-2-2,.897-2,2-2,2,.897,2,2Zm10-3.341v6.341c0,2.761-2.239,5-5,5H3.052l1.155,1.293c.39.39.39,1.024,0,1.414h0c-.391.391-1.024.391-1.414,0l-2.244-2.381c-.732-.732-.732-1.919,0-2.651l2.244-2.381c.39-.391,1.024-.391,1.414,0,.39.391.39,1.024,0,1.414l-1.155,1.293h2.674c.496-.551.774-1.253.774-2,0-.802-.312-1.556-.878-2.12-1.132-1.134-3.068-1.178-4.285.042l-1.337,1.419v-6.341c0-2.761,2.239-5,5-5h15.948l-1.155-1.293c-.39-.391-.39-1.024,0-1.414.391-.391,1.024-.391,1.414,0l2.244,2.381c.732.732.732,1.919,0,2.651l-2.244,2.381c-.39.39-1.024.39-1.414,0h0c-.39-.391-.39-1.024,0-1.414l1.155-1.293h-2.674c-.496.551-.774,1.253-.774,2,0,.802.312,1.556.878,2.12.566.567,1.32.88,2.122.88s1.555-.312,2.163-.921l1.337-1.419Zm-17,.841c0-.828-.672-1.5-1.5-1.5s-1.5.672-1.5,1.5.672,1.5,1.5,1.5,1.5-.672,1.5-1.5Zm9,2.5c0-2.206-1.794-4-4-4s-4,1.794-4,4,1.794,4,4,4,4-1.794,4-4Zm4,2.5c0-.828-.672-1.5-1.5-1.5s-1.5.672-1.5,1.5.672,1.5,1.5,1.5,1.5-.672,1.5-1.5Z"/>
</svg>
