<?xml version="1.0" encoding="UTF-8"?>
<svg xmlns="http://www.w3.org/2000/svg" id="Layer_1" data-name="Layer 1" viewBox="0 0 24 24">
  <path d="m23.707,22.293l-6.552-6.552.425-.741h3.42c.881,0,1.714-.385,2.286-1.057s.817-1.561.674-2.44c-.232-1.427-1.551-2.503-3.066-2.503h-3.313L13.323,1.563c-.526-.965-1.535-1.563-2.634-1.563-.863,0-1.68.419-2.183,1.12-.504.702-.64,1.609-.358,2.442l1.752,4.923L1.707.293C1.316-.098.684-.098.293.293S-.098,1.316.293,1.707l22,22c.195.195.451.293.707.293s.512-.098.707-.293c.391-.391.391-1.023,0-1.414Zm-9.222-3.572c.367.367.443.935.185,1.386l-1.343,2.347c-.517.947-1.525,1.546-2.624,1.546-.863,0-1.68-.419-2.184-1.121-.504-.701-.64-1.608-.363-2.427l1.94-5.453h-4.551l-1.417,1.9c-.452.689-1.214,1.1-2.037,1.1h-.004c-.677,0-1.312-.331-1.701-.886C0,16.559-.093,15.848.139,15.212l1.874-3.212L.139,8.788C-.093,8.152,0,7.441.388,6.886c.003-.005.007-.009.01-.014.495-.695,1.537-.701,2.14-.098l11.947,11.947Z"/>
</svg>
