<?xml version="1.0" encoding="UTF-8"?>
<svg xmlns="http://www.w3.org/2000/svg" id="Layer_1" data-name="Layer 1" viewBox="0 0 24 24">
  <path d="M9.5,15h5c.613,.015,1.117-.601,.98-1.199-.33-1.623-1.793-2.801-3.48-2.801s-3.151,1.178-3.48,2.801c-.137,.598,.366,1.214,.98,1.199Z"/>
  <circle cx="12" cy="8" r="2"/>
  <path d="M23.262,13.716c-.502-.168-1.394-.336-2.291-.451,.989-.145,2.099-.592,2.581-1.797,.613-1.535,.476-3.395,.296-4.543-.089-.568-.726-.864-1.219-.569-.472,.282-1.061,.698-1.655,1.261,.693-1.064,1.393-2.628,.718-3.987-.62-1.247-1.787-2.818-2.733-3.435-.725-.474-1.702-.04-1.818,.818-.201,1.481-.195,4.316,.982,6.765,.844,4.943-.615,8.02-2.027,9.746-1.254,1.532-2.794,2.403-4.062,2.722-1.201-.32-2.689-1.195-3.951-2.736-1.991-2.433-2.784-5.784-2.302-9.532,1.277-2.492,1.287-5.443,1.08-6.965-.116-.858-1.093-1.292-1.818-.818-.946,.617-2.113,2.188-2.733,3.435-.675,1.359,.024,2.923,.718,3.987-.594-.563-1.183-.978-1.655-1.261-.493-.295-1.13,0-1.219,.569-.18,1.148-.317,3.008,.296,4.543,.481,1.205,1.591,1.652,2.581,1.797-.896,.115-1.788,.284-2.291,.451-.726,.242-.98,1.144-.472,1.717,.779,.875,2.63,1.987,4.027,2.409-.806,.393-1.494,.805-1.912,1.154-.539,.451-.5,1.298,.084,1.69,.797,.534,2.483,1.146,4.066,1.246-.146,.19-.275,.374-.367,.543-.335,.612,.06,1.371,.754,1.443,1.243,.128,3.432,.155,5.084-.489,1.661,.643,3.876,.617,5.119,.489,.694-.072,1.089-.831,.754-1.443-.093-.169-.224-.354-.373-.545,1.574-.106,3.241-.714,4.033-1.244,.584-.391,.624-1.239,.084-1.69-.418-.349-1.106-.761-1.912-1.154,1.397-.422,3.248-1.535,4.027-2.409,.508-.573,.254-1.475-.472-1.717Z"/>
</svg>
