<?xml version="1.0" encoding="UTF-8"?>
<svg xmlns="http://www.w3.org/2000/svg" id="Layer_1" data-name="Layer 1" viewBox="0 0 24 24">
  <path d="M1.5,21c-.828,0-1.5,.672-1.5,1.5s.672,1.5,1.5,1.5,1.5-.672,1.5-1.5-.672-1.5-1.5-1.5Zm6.5,2c0-3.86-3.141-7-7-7-.553,0-1,.448-1,1s.447,1,1,1c2.757,0,5,2.243,5,5,0,.552,.447,1,1,1s1-.448,1-1Zm5,0c0-6.617-5.383-12-12-12-.553,0-1,.448-1,1s.447,1,1,1c5.514,0,10,4.486,10,10,0,.552,.447,1,1,1s1-.448,1-1ZM21,4H6c-.86,0-1.666-.362-2.235-.999,.55-.614,1.349-1.001,2.235-1.001H23c.553,0,1-.448,1-1s-.447-1-1-1H6C3.243,0,1,2.243,1,5v4c6.689,0,12.29,4.718,13.668,11h6.332c1.654,0,3-1.346,3-3V7c0-1.654-1.346-3-3-3Zm-2.5,9.5c-.828,0-1.5-.672-1.5-1.5s.672-1.5,1.5-1.5,1.5,.672,1.5,1.5-.672,1.5-1.5,1.5Z"/>
</svg>
