<?xml version="1.0" encoding="UTF-8"?>
<svg xmlns="http://www.w3.org/2000/svg" id="Layer_1" data-name="Layer 1" viewBox="0 0 24 24">
  <path d="m4,10c-.587-.004-1.187-.23-1.633-.677L.293,7.25c-.391-.391-.391-1.023,0-1.414s1.023-.391,1.414,0l1.293,1.293V1c0-.553.448-1,1-1s1,.447,1,1v6.129l1.293-1.293c.195-.195.451-.293.707-.293s.512.098.707.293c.391.391.391,1.023,0,1.414l-2.074,2.073c-.447.447-1.046.673-1.633.677Zm17.115,1.855l-8.115-2.355V2.107c0-.996-.681-1.92-1.664-2.08-1.253-.204-2.336.758-2.336,1.973v14.899l-2.252-2.292c-.097-.097-.265-.222-.487-.367-.931-.519-2.157-.313-2.853.619-.667.894-.482,2.169.305,2.958l3.977,4.073c1.317,1.349,3.123,2.109,5.008,2.109h7.301c2.209,0,4-1.791,4-4v-4.304c0-1.78-1.176-3.345-2.885-3.841Z"/>
</svg>
