<?xml version="1.0" encoding="UTF-8"?>
<svg xmlns="http://www.w3.org/2000/svg" id="Layer_1" data-name="Layer 1" viewBox="0 0 24 24">
  <path d="m9.286,9.703c-.176,0-.352-.056-.5-.166-.283-.212-.401-.58-.295-.917l.784-2.513-1.981-1.612c-.267-.226-.364-.594-.243-.922.12-.328.433-.546.782-.546h2.501l.885-2.483c.121-.326.433-.542.781-.542s.66.216.781.542l.885,2.483h2.501c.35,0,.663.219.783.548s.022.698-.246.923l-1.971,1.606.815,2.484c.111.336-.002.706-.282.922-.281.216-.667.231-.964.038l-2.295-1.495-2.257,1.51c-.14.094-.302.141-.463.141Zm2.824,5.105c1.206,1.134,1.89,2.716,1.89,4.371v3.82c0,.552-.448,1-1,1h-7.479c-.504,0-.99-.19-1.36-.533l-1.792-1.775C.853,20.189,0,18.143,0,16.009V5.462C0,3.996,1.262,2.825,2.758,2.975c1.301.13,2.242,1.322,2.242,2.63v5.844c-.151.177-.293.363-.417.568-.906,1.503-.744,3.465.378,4.848l1.788,2.304c.339.436.967.515,1.403.177.436-.339.515-.967.177-1.403l-1.788-2.304c-.595-.734-.733-1.78-.245-2.589,0,0,0,0,0,0,.752-1.246,2.405-1.432,3.412-.498l2.402,2.258Zm11.89-9.347v10.548c0,2.135-.854,4.182-2.371,5.685l-1.79,1.772c-.37.343-.855.533-1.36.533h-2.664c.112-.314.184-.648.184-1v-3.112l3.038-3.024c1.122-1.383,1.285-3.345.378-4.848-.123-.204-.266-.391-.417-.568v-5.844c0-1.308.941-2.499,2.242-2.63,1.496-.15,2.758,1.021,2.758,2.487Zm-6.542,10.176l-1.695,1.682c-.362-1.504-1.143-2.895-2.283-3.968l-.02-.019.832-.782c1.007-.934,2.66-.748,3.412.498,0,0,0,0,0,0,.488.81.35,1.855-.245,2.589Z"/>
</svg>
