<?xml version="1.0" encoding="UTF-8"?>
<svg xmlns="http://www.w3.org/2000/svg" id="Layer_1" data-name="Layer 1" viewBox="0 0 24 24">
  <path d="m12,0C5.383,0,0,5.383,0,12s5.383,12,12,12,12-5.383,12-12S18.617,0,12,0Zm0,21c-4.962,0-9-4.037-9-9S7.038,3,12,3s9,4.037,9,9-4.038,9-9,9Zm0-16c-3.86,0-7,3.141-7,7s3.14,7,7,7,7-3.141,7-7-3.14-7-7-7Zm3.945,6.255l-1.656,1.351.687,2.083c.092.282,0,.595-.237.771-.237.183-.557.191-.809.031l-1.923-1.251-1.892,1.267c-.114.076-.252.114-.389.114v-.008c-.145,0-.298-.046-.42-.137-.237-.175-.336-.488-.244-.771l.656-2.106-1.663-1.351c-.221-.191-.305-.496-.206-.771s.366-.458.656-.458h2.098l.74-1.992c.099-.275.366-.458.656-.458s.557.183.656.458l.74,1.992h2.098c.29,0,.557.183.656.458s.015.588-.206.778Z"/>
</svg>
