<?xml version="1.0" encoding="UTF-8"?>
<svg xmlns="http://www.w3.org/2000/svg" id="Layer_1" data-name="Layer 1" viewBox="0 0 24 24">
  <path d="m12,8c0-1.283.423-3.438,1.327-5.421-1.042-.368-2.159-.579-3.327-.579C4.477,2,0,6.477,0,12s4.477,10,10,10c2.254,0,4.327-.755,6-2.014v-5.663c-2.391-1.14-4-3.585-4-6.323Zm-1,4c0,.265-.105.52-.293.707l-2,2c-.195.195-.451.293-.707.293s-.512-.098-.707-.293c-.391-.391-.391-1.023,0-1.414l1.707-1.707v-3.586c0-.552.448-1,1-1s1,.448,1,1v4Zm13-4c0-2.375-1.971-8-5.078-8-3.062,0-4.922,5.557-4.922,8,0,2.414,1.721,4.434,4,4.899v10.101c0,.552.447,1,1,1s1-.448,1-1v-10.101c2.279-.465,4-2.484,4-4.899Z"/>
</svg>
