<?xml version="1.0" encoding="UTF-8"?>
<svg xmlns="http://www.w3.org/2000/svg" id="Layer_1" data-name="Layer 1" viewBox="0 0 24 24">
  <path d="m6,7H0c.44-1.163,1.611-2,3-2s2.56.837,3,2Z"/>
  <path d="m9,5c-1.389,0-2.56.837-3,2h6c-.44-1.163-1.611-2-3-2Z"/>
  <path d="m15,5c-1.389,0-2.56.837-3,2h6c-.44-1.163-1.611-2-3-2Z"/>
  <circle cx="15" cy="2" r="2"/>
  <circle cx="9" cy="2" r="2"/>
  <circle cx="3" cy="2" r="2"/>
  <path d="m21.685,16.267l-3.041-.506c-.373-.062-.644-.382-.644-.761,0-.552.449-1,1-1h2.268c.356,0,.688.191.867.501.277.479.89.644,1.366.364.479-.276.642-.888.365-1.366-.535-.925-1.531-1.499-2.598-1.499h-.268v-1c0-.552-.448-1-1-1s-1,.448-1,1v1c-1.654,0-3,1.346-3,3,0,1.359.974,2.51,2.315,2.733l3.041.506c.373.062.644.382.644.761,0,.552-.449,1-1,1h-2.268c-.356,0-.688-.191-.867-.501-.277-.478-.89-.643-1.366-.364-.479.276-.642.888-.365,1.366.535.925,1.531,1.499,2.598,1.499h.268v1c0,.552.448,1,1,1s1-.448,1-1v-1c1.654,0,3-1.346,3-3,0-1.359-.974-2.51-2.315-2.733Z"/>
  <path d="m14,15c0-2.07,1.265-3.851,3.062-4.609.061-.293.172-.566.311-.82-.366-.352-.86-.57-1.408-.57H2.035c-1.124,0-2.035.911-2.035,2.035,0,.611.274,1.189.748,1.576l6.252,5.107v3.467c0,.576.286,1.114.763,1.436l1.809,1.221c.608.41,1.428-.025,1.428-.759v-5.365l3.02-2.467c-.004-.084-.02-.165-.02-.251Z"/>
  <path d="m21.685,16.267l-3.041-.506c-.373-.062-.644-.382-.644-.761,0-.552.449-1,1-1h2.268c.356,0,.688.191.867.501.277.479.89.644,1.366.364.479-.276.642-.888.365-1.366-.535-.925-1.531-1.499-2.598-1.499h-.268v-1c0-.552-.448-1-1-1s-1,.448-1,1v1c-1.654,0-3,1.346-3,3,0,1.359.974,2.51,2.315,2.733l3.041.506c.373.062.644.382.644.761,0,.552-.449,1-1,1h-2.268c-.356,0-.688-.191-.867-.501-.277-.478-.89-.643-1.366-.364-.479.276-.642.888-.365,1.366.535.925,1.531,1.499,2.598,1.499h.268v1c0,.552.448,1,1,1s1-.448,1-1v-1c1.654,0,3-1.346,3-3,0-1.359-.974-2.51-2.315-2.733Z"/>
</svg>
