<?xml version="1.0" encoding="UTF-8"?>
<svg xmlns="http://www.w3.org/2000/svg" id="Layer_1" data-name="Layer 1" viewBox="0 0 24 24">
  <path d="M23,8h-4v-2c1.657,0,3-1.343,3-3s-1.343-3-3-3H5C2.239,0,0,2.239,0,5v14c0,2.761,2.239,5,5,5H21c.552,0,1-.448,1-1s-.448-1-1-1h-4c2.206,0,4-1.794,4-4v-2c0-1.105-.895-2-2-2h-6c-1.105,0-2,.895-2,2v2c0,2.206,1.794,4,4,4h-6V6h4v3.5c0,.828,.672,1.5,1.5,1.5h3c.652,0,1.202-.419,1.408-1h4.092c.552,0,1-.448,1-1s-.448-1-1-1Zm-18.5,0c-.828,0-1.5-.672-1.5-1.5s.672-1.5,1.5-1.5,1.5,.672,1.5,1.5-.672,1.5-1.5,1.5Z"/>
</svg>
