<?xml version="1.0" encoding="UTF-8"?>
<svg xmlns="http://www.w3.org/2000/svg" id="Layer_1" data-name="Layer 1" viewBox="0 0 24 24">
  <path d="m23.249,13.015c-.569-.645-1.389-1.015-2.249-1.015H2v-7.667c0-1.286,1.047-2.333,2.333-2.333.73,0,1.429.349,1.867.933l.259.345-.483,2.771c-.058.334.011.678.194.963.425.662,1.323.824,1.952.352l3.606-2.704c.567-.425.71-1.217.327-1.814l-.013-.021c-.237-.37-.64-.602-1.079-.622l-2.906-.129-.256-.342c-.814-1.085-2.11-1.732-3.467-1.732C1.943,0,0,1.943,0,4.333v8.667s0,.004,0,.006c0,.01,0,.02,0,.029,0,.009,0,.018.001.027,0,.007,0,.013.002.02.001.012.002.025.004.037,0,.002,0,.003,0,.005l.344,2.749c.251,2.005,1.223,3.767,2.635,5.037l-.457,1.85c-.133.536.194,1.078.73,1.211.081.02.161.029.241.029.449,0,.857-.305.97-.76l.277-1.121c1.109.564,2.36.881,3.676.881h7.417c1.223,0,2.39-.273,3.44-.765l.249,1.005c.112.455.521.76.97.76.08,0,.16-.01.241-.029.536-.133.863-.675.73-1.211l-.41-1.66c1.53-1.282,2.591-3.12,2.854-5.226l.062-.501c.106-.854-.158-1.712-.728-2.357Z"/>
</svg>
