<?xml version="1.0" encoding="UTF-8"?>
<svg xmlns="http://www.w3.org/2000/svg" id="Layer_1" data-name="Layer 1" viewBox="0 0 24 24">
  <path d="m17.714,6c-.76,0-1.4.29-1.929.808-.353.346-.874.414-1.273.125-.484-.351-.984-.599-1.481-.755.31-4.125,2.94-4.179,2.969-4.179.551,0,1,.448,1.001,1h-.001c-.552,0-1,.447-1,1s.448,1,1,1c1.103,0,2-.897,2-2,0-1.654-1.346-3-3-3-1.121,0-2.884.623-3.99,2.562-.592-1.07-1.442-1.896-2.563-2.457-.495-.245-1.095-.047-1.342.447s-.047,1.095.447,1.342c1.466.733,2.258,2.142,2.414,4.285-.496.155-.996.403-1.479.754-.398.289-.919.221-1.273-.125-.529-.519-1.169-.808-1.929-.808C3.445,6,0,10.029,0,15s3.445,9,6.286,9c.762,0,1.403-.291,1.933-.812.35-.344.869-.412,1.264-.125.824.599,1.696.937,2.517.937s1.693-.338,2.517-.937c.396-.288.914-.22,1.264.125.53.521,1.171.812,1.933.812,2.84,0,6.286-4.029,6.286-9s-3.445-9-6.286-9Z"/>
</svg>
