<?xml version="1.0" encoding="UTF-8"?>
<svg xmlns="http://www.w3.org/2000/svg" id="Layer_1" data-name="Layer 1" viewBox="0 0 24 24">
  <path d="m13,4c0,.552-.448,1-1,1h-5v2.09c2.833.478,5,2.942,5,5.91v6.5c0,2.481-2.019,4.5-4.5,4.5h-3c-2.31,0-4.197-1.756-4.449-4h6.949c.552,0,1-.448,1-1s-.448-1-1-1H0v-5c0-2.967,2.167-5.431,5-5.91v-2.025c-1.232.137-2.427.517-3.499,1.138-.158.091-.33.134-.5.134-.345,0-.681-.179-.867-.499-.276-.478-.113-1.09.365-1.367,1.376-.796,2.917-1.262,4.501-1.407v-1.066c0-.552.448-1,1-1s1,.448,1,1v1h5c.552,0,1,.448,1,1ZM23.189.463c-.515-.403-1.172-.542-1.848-.373l-4.408,1.293c-1.156.355-1.934,1.406-1.934,2.616s.78,2.265,1.946,2.62l4.434,1.317c.171.043.345.064.516.064.464,0,.917-.154,1.293-.448.515-.402.811-1.008.811-1.662v-3.766c0-.654-.295-1.259-.811-1.662Z"/>
</svg>
