<?xml version="1.0" encoding="UTF-8"?>
<svg xmlns="http://www.w3.org/2000/svg" id="Layer_1" data-name="Layer 1" viewBox="0 0 24 24">
  <path d="m12.601,9h-.006l-7.2-.017c-1.321-.002-2.395-1.079-2.395-2.4V1.113c0-.429.242-.809.632-.99.36-.163.785-.137,1.064.063.05.036,1.635,2.819,1.635,2.819l1.525-2.481c.643-.646,1.628-.66,2.227-.066l1.582,2.542,1.376-2.567c.318-.392.794-.526,1.235-.369.441.159.724.562.724,1.028v5.508c0,.642-.25,1.246-.705,1.699-.454.452-1.055.701-1.695.701Zm10.741,3.345l-7.702,8.409c-1.894,2.068-4.57,3.246-7.374,3.246h-4.262C1.794,24,.003,22.209.003,20v-5C.003,12.791,1.794,11,4.003,11h7.787c1.374,0,2.46,1.26,2.164,2.685-.193.926-1.004,1.598-1.94,1.732l-4.162.583c-.547.078-.927.585-.848,1.131.078.547.585.926,1.131.848l4.252-.596c2.062-.294,3.617-2.087,3.617-4.17,0-.219-.032-.429-.065-.638l3.541-3.737c.455-.5,1.097-.803,1.794-.835.692-.034,1.363.209,1.878.678,1.052.958,1.138,2.602.189,3.665Z"/>
</svg>
