<?xml version="1.0" encoding="UTF-8"?>
<svg xmlns="http://www.w3.org/2000/svg" id="Layer_1" data-name="Layer 1" viewBox="0 0 24 24">
  <path d="m21.331,13.885l-.451-.26c.102-.544.153-1.088.153-1.625s-.051-1.081-.153-1.625l.451-.26c1.434-.825,1.93-2.662,1.105-4.096-.399-.695-1.045-1.193-1.819-1.401-.774-.209-1.583-.104-2.277.295l-.45.259c-.841-.721-1.81-1.279-2.857-1.649v-.522c0-1.654-1.346-3-3-3s-3,1.346-3,3v.522c-1.047.37-2.016.929-2.857,1.649l-.45-.259c-.693-.398-1.501-.504-2.277-.295-.773.208-1.419.706-1.818,1.4-.4.694-.505,1.503-.296,2.277.208.773.706,1.419,1.401,1.819l.451.259c-.102.544-.153,1.088-.153,1.626s.051,1.082.153,1.626l-.451.259c-.695.4-1.192,1.046-1.401,1.819-.209.774-.104,1.583.295,2.276.399.695,1.045,1.193,1.819,1.401.776.21,1.584.104,2.277-.295l.45-.259c.841.721,1.81,1.279,2.857,1.649v.522c0,1.654,1.346,3,3,3s3-1.346,3-3v-.522c1.047-.37,2.016-.929,2.857-1.649l.45.259c.695.399,1.503.505,2.277.295.773-.208,1.419-.706,1.819-1.401.825-1.434.329-3.271-1.105-4.096Zm-6.364-5.885c0-.552.448-1,1-1s1,.448,1,1v2.163c-.319-.096-.65-.163-1-.163s-.681.067-1,.163v-2.163Zm-8,0c0-.552.448-1,1-1s1,.448,1,1v2.163c-.319-.096-.65-.163-1-.163s-.681.067-1,.163v-2.163Zm2,7.223v.777c0,.552-.448,1-1,1s-1-.448-1-1v-.777c-.727-.423-1.169-1.28-.938-2.224.176-.72.781-1.301,1.506-1.453,1.293-.271,2.433.709,2.433,1.955,0,.738-.405,1.376-1,1.723Zm4,.777c0,.552-.448,1-1,1s-1-.448-1-1v-2.163c.319.096.65.163,1,.163s.681-.067,1-.163v2.163Zm-1.433-3.546c-.725-.152-1.33-.734-1.505-1.453-.231-.944.212-1.801.939-2.224v-.777c0-.552.448-1,1-1s1,.448,1,1v.777c.595.346,1,.984,1,1.723,0,1.246-1.14,2.226-2.433,1.954Zm5.433,2.768v.777c0,.552-.448,1-1,1s-1-.448-1-1v-.777c-.727-.423-1.169-1.28-.938-2.224.176-.72.781-1.301,1.506-1.453,1.293-.271,2.433.709,2.433,1.955,0,.738-.405,1.376-1,1.723Z"/>
</svg>
