<?xml version="1.0" encoding="utf-8"?>
<!-- Generator: Adobe Illustrator 27.2.0, SVG Export Plug-In . SVG Version: 6.00 Build 0)  -->
<svg xmlns="http://www.w3.org/2000/svg" xmlns:xlink="http://www.w3.org/1999/xlink" version="1.1" id="Layer_1" x="0px" y="0px" viewBox="0 0 24 24" style="enable-background:new 0 0 24 24;" xml:space="preserve">
<circle cx="12" cy="2.5" r="2.5"/>
<circle cx="18" cy="2.5" r="2.5"/>
<circle cx="6" cy="2.5" r="2.5"/>
<path d="M6.4,11.3c0.1-0.4,0.1-0.7,0.2-0.8C7.3,7.6,9.3,6,12,6s4.7,1.6,5.4,4.4c0,0.2,0.1,0.5,0.2,0.8L15,13V9.9  c0-0.6-0.7-1-1.2-0.6L12,10.5l-1.8-1.2C9.7,8.9,9,9.3,9,9.9V13L6.4,11.3L6.4,11.3z"/>
<path d="M19,20c0.2,1-0.1,2-0.8,2.8c-0.7,0.8-1.6,1.2-2.7,1.2H8.5c-1,0-2-0.4-2.7-1.2C5.2,22,4.9,21,5,20c0.3-2.1,0.7-4.6,1-6.5  l4.3,2.8c0.5,0.3,1.1,0.5,1.7,0.5s1.2-0.2,1.7-0.5l4.3-2.8C18.3,15.4,18.7,17.8,19,20L19,20z"/>
<path d="M23.2,22.8c-0.7,0.8-1.6,1.2-2.7,1.2h-0.8c1-1.2,1.4-2.8,1.2-4.3c-0.3-2.2-1.6-9.7-1.6-9.7C18.9,8.3,18.1,7,17.1,6  c2.6,0,4.6,1.7,5.3,4.4c0.3,1.2,1,5.8,1.6,9.5C24.1,21,23.9,22,23.2,22.8z"/>
<path d="M4.2,24H3.5c-1,0-2-0.4-2.7-1.2C0.2,22-0.1,21,0,20c0.6-3.7,1.3-8.3,1.6-9.5C2.3,7.7,4.2,6.1,6.9,6c-1,1-1.8,2.3-2.2,3.9  c0,0-1.3,7.6-1.6,9.7C2.8,21.2,3.2,22.8,4.2,24z"/>
</svg>
