<?xml version="1.0" encoding="UTF-8"?>
<svg xmlns="http://www.w3.org/2000/svg" id="Layer_1" data-name="Layer 1" viewBox="0 0 24 24">
  <path d="m20.477,19.82c.376.405.352,1.038-.054,1.413-.192.179-.437.267-.68.267-.269,0-.536-.107-.733-.32l-.854-.922-3.449,3.449c-.195.195-.451.293-.707.293s-.512-.098-.707-.293c-.391-.391-.391-1.023,0-1.414l3.503-3.503-1.029-1.111c-.375-.405-.352-1.038.054-1.413.404-.377,1.037-.353,1.413.054l3.243,3.5ZM17,0C10.935,0,6,4.486,6,10c0,3.309,2.691,6,6,6s6-2.691,6-6c0-1.986-.666-3.923-1.927-5.601-.332-.441-.959-.528-1.4-.199-.441.332-.53.959-.199,1.4.999,1.328,1.526,2.85,1.526,4.399,0,2.206-1.794,4-4,4s-4-1.794-4-4c0-4.337,4.121-8,9-8,2.307,0,5,1.44,5,5.5,0,2.087-.24,4.606-2.021,7.472-.291.47-.147,1.086.321,1.378.165.102.348.15.527.15.334,0,.661-.167.851-.472,2.059-3.312,2.322-6.298,2.322-8.528,0-5.153-3.629-7.5-7-7.5ZM3.7,16.35c.469-.292.612-.908.321-1.378-1.781-2.865-2.021-5.385-2.021-7.472,0-4.06,2.693-5.5,5-5.5.553,0,1-.447,1-1s-.447-1-1-1C3.629,0,0,2.347,0,7.5c0,2.23.264,5.216,2.322,8.528.189.305.517.472.851.472.18,0,.362-.049.527-.15Zm3.431,2.368l1.053-.988c.402-.378.423-1.011.045-1.414-.378-.4-1.011-.421-1.414-.045l-3.73,3.5c-.402.378-.423,1.011-.045,1.414.197.209.463.315.729.315.245,0,.491-.09.685-.271l1.218-1.143,3.621,3.621c.195.195.451.293.707.293s.512-.098.707-.293c.391-.391.391-1.023,0-1.414l-3.576-3.576Z"/>
</svg>
