<?xml version="1.0" encoding="UTF-8"?>
<svg xmlns="http://www.w3.org/2000/svg" id="Layer_1" data-name="Layer 1" viewBox="0 0 24 24">
  <path d="M15,22c1.074,0,2.089-.251,3-.685v1.685c0,.553-.447,1-1,1H7c-.553,0-1-.447-1-1v-1.685c.911,.435,1.926,.685,3,.685h6Zm5-13v6c0,2.757-2.243,5-5,5h-6c-2.757,0-5-2.243-5-5v-6c0-2.757,2.243-5,5-5h6c2.757,0,5,2.243,5,5Zm-4,2.2c0-1.215-.895-2.2-2-2.2s-2,.985-2,2.2c0-1.215-.895-2.2-2-2.2s-2,.985-2,2.2c0,1.48,1.65,3.39,2.831,4.375,.68,.567,1.659,.567,2.339,0,1.181-.985,2.831-2.895,2.831-4.375Zm-1-9.2c1.074,0,2.089,.251,3,.685V1c0-.553-.447-1-1-1H7c-.553,0-1,.447-1,1v1.685c.911-.435,1.926-.685,3-.685h6Z"/>
</svg>
