<?xml version="1.0" encoding="UTF-8"?>
<svg xmlns="http://www.w3.org/2000/svg" id="Layer_1" data-name="Layer 1" viewBox="0 0 24 24">
  <path d="m14.5,18h3.5v2h-5v-.5c0-.827.673-1.5,1.5-1.5Zm2-8h-2c-.827,0-1.5.673-1.5,1.5v.5h5v-.5c0-.827-.673-1.5-1.5-1.5Zm-10.5,4h12v2h-3.5c-1.93,0-3.5,1.57-3.5,3.5v.5h-5v-6Zm1,3.5c0,.828.672,1.5,1.5,1.5s1.5-.672,1.5-1.5-.672-1.5-1.5-1.5-1.5.672-1.5,1.5Zm11,4.5H6v2h12v-2Zm6-12.276v9.276c0,2.414-1.721,4.434-4,4.899v-12.399c0-1.93-1.57-3.5-3.5-3.5h-2c-1.93,0-3.5,1.57-3.5,3.5v.5h-5v-3c0-.552-.448-1-1-1s-1,.448-1,1v14.899c-2.279-.465-4-2.484-4-4.899v-9.276c0-1.665.824-3.214,2.203-4.145L9.203.855c1.699-1.146,3.895-1.146,5.594,0l7,4.724c1.379.931,2.203,2.48,2.203,4.145Zm-14-.224c0-.828-.672-1.5-1.5-1.5s-1.5.672-1.5,1.5.672,1.5,1.5,1.5,1.5-.672,1.5-1.5Z"/>
</svg>
