<?xml version="1.0" encoding="UTF-8"?>
<svg xmlns="http://www.w3.org/2000/svg" id="Layer_1" data-name="Layer 1" viewBox="0 0 24 24">
  <path d="m12,14c-5.103,0-9.375,3.822-9.936,8.89-.031.283.06.565.249.777.19.212.461.333.745.333h2.941c0-3.309,2.691-6,6-6s6,2.691,6,6h2.941c.284,0,.555-.121.745-.333.189-.212.28-.494.249-.777-.561-5.068-4.833-8.89-9.936-8.89Zm0,6c-2.206,0-4,1.794-4,4h8c0-2.206-1.794-4-4-4ZM7.827,5h-2.088c.059-.239.1-.395.117-.45C6.71,1.829,9.203,0,12.058,0s5.347,1.829,6.202,4.55c.076.242,1.039,4.222,1.948,8.016.25,1.043-.892,1.862-1.797,1.287-.352-.223-.716-.429-1.092-.614-.507-2.03-1.091-4.346-1.153-4.606-.824,1.415-2.357,2.368-4.108,2.368-2.364,0-4.329-1.736-4.69-3.999.28,0,.652,0,.69,0,1.243,0,2.771-.346,3.852-1.02.93-.58,1.688-1.359,2.229-2.276.318-.538.034-1.226-.553-1.438-.006-.002-.013-.005-.019-.007-.437-.156-.921.041-1.158.44-.38.637-.909,1.18-1.557,1.584-.81.506-1.775.717-3.025.717Zm-2.352,8.933c-.802.518-1.821-.198-1.601-1.126.534-2.25,1.12-4.713,1.409-5.921.227,2.427,1.738,4.479,3.848,5.472-1.315.323-2.548.859-3.656,1.575Z"/>
</svg>
