<?xml version="1.0" encoding="UTF-8"?>
<svg xmlns="http://www.w3.org/2000/svg" id="Layer_1" data-name="Layer 1" viewBox="0 0 24 24">
  <path d="m9.432,8.5c0-1.379,1.121-2.5,2.5-2.5.012,0,.023.003.034.003.012,0,.022-.003.034-.003,1.379,0,2.5,1.121,2.5,2.5s-1.121,2.5-2.5,2.5c-.012,0-.023-.003-.034-.003-.012,0-.022.003-.034.003-1.379,0-2.5-1.121-2.5-2.5Zm9.208-.062c.375.374.867.561,1.36.561s.985-.187,1.361-.562l2.346-2.347c.391-.391.391-1.023,0-1.414s-1.023-.391-1.414,0l-1.293,1.294V1c0-.553-.447-1-1-1s-1,.447-1,1v4.969l-1.293-1.294c-.391-.391-1.023-.391-1.414,0s-.391,1.023,0,1.414l2.347,2.348Zm-16,0c.375.374.867.561,1.36.561s.985-.187,1.361-.562l2.346-2.347c.391-.391.391-1.023,0-1.414s-1.023-.391-1.414,0l-1.293,1.294V1c0-.553-.447-1-1-1s-1,.447-1,1v4.969l-1.293-1.294c-.391-.391-1.023-.391-1.414,0s-.391,1.023,0,1.414l2.347,2.348Zm-.14,7.062c0,1.379,1.121,2.5,2.5,2.5s2.5-1.121,2.5-2.5-1.121-2.5-2.5-2.5-2.5,1.121-2.5,2.5Zm2.5,3.5c-2.333,0-4.375,1.538-4.966,3.741-.081.3-.017.621.173.867.188.247.482.392.793.392h8c.311,0,.604-.145.793-.392.189-.246.254-.567.173-.867-.591-2.203-2.633-3.741-4.966-3.741Zm14-6c-1.379,0-2.5,1.121-2.5,2.5s1.121,2.5,2.5,2.5,2.5-1.121,2.5-2.5-1.121-2.5-2.5-2.5Zm0,6c-2.333,0-4.375,1.538-4.966,3.741-.081.3-.017.621.173.867.188.247.482.392.793.392h8c.311,0,.604-.145.793-.392.189-.246.254-.567.173-.867-.591-2.203-2.633-3.741-4.966-3.741Zm-9.776-2h5.553c-.168-.471-.276-.971-.276-1.5,0-.882.264-1.7.705-2.395-.888-.694-2.006-1.105-3.205-1.105s-2.317.411-3.205,1.105c.44.695.705,1.513.705,2.395,0,.529-.108,1.029-.276,1.5Z"/>
</svg>
