<?xml version="1.0" encoding="UTF-8"?>
<svg xmlns="http://www.w3.org/2000/svg" id="Layer_1" data-name="Layer 1" viewBox="0 0 24 24">
  <path d="m1.5,17c0-1.105.895-2,2-2s2,.895,2,2-.895,2-2,2-2-.895-2-2Zm8.5,0c0,1.105.895,2,2,2s2-.895,2-2-.895-2-2-2-2,.895-2,2Zm2-13c1.105,0,2-.895,2-2s-.895-2-2-2-2,.895-2,2,.895,2,2,2Zm6.5,13c0,1.105.895,2,2,2s2-.895,2-2-.895-2-2-2-2,.895-2,2Zm-15-3c.552,0,1-.447,1-1s.449-1,1-1h5.5v1c0,.553.448,1,1,1s1-.447,1-1v-1h5.5c.551,0,1,.448,1,1s.448,1,1,1,1-.447,1-1c0-1.654-1.346-3-3-3H5.5c-1.654,0-3,1.346-3,3,0,.553.448,1,1,1Zm8.5,6c-1.657,0-3.1,1.178-3.43,2.801-.06.294.016.6.206.832s.474.367.774.367h4.899c.3,0,.584-.135.774-.367s.265-.538.206-.832c-.33-1.623-1.772-2.801-3.43-2.801Zm-2.45-11h4.899c.3,0,.584-.135.774-.367s.265-.538.206-.832c-.33-1.623-1.772-2.801-3.43-2.801s-3.1,1.178-3.43,2.801c-.06.294.016.6.206.832s.474.367.774.367Zm-6.101,11c-1.658,0-3.101,1.178-3.43,2.801-.06.295.016.6.206.832s.474.367.774.367h4.899c.3,0,.584-.135.774-.367s.265-.538.206-.832c-.33-1.623-1.772-2.801-3.43-2.801Zm17.05,0c-1.68,0-3.144,1.177-3.479,2.797-.061.295.014.602.204.834.19.233.475.369.775.369h5c.301,0,.585-.136.775-.369.19-.232.265-.539.204-.834-.335-1.62-1.799-2.797-3.479-2.797Z"/>
</svg>
