<?xml version="1.0" encoding="UTF-8"?>
<svg xmlns="http://www.w3.org/2000/svg" id="Layer_1" data-name="Layer 1" viewBox="0 0 24 24">
  <path d="m9,15.5c0,.827-.673,1.5-1.5,1.5s-1.5-.673-1.5-1.5.673-1.5,1.5-1.5,1.5.673,1.5,1.5Zm15,2.167c0,2.345-1.678,4.337-4,5.05v.283c0,.553-.448,1-1,1s-1-.447-1-1H7.5c-.514,0-1.015-.052-1.5-.151v.151c0,.553-.448,1-1,1s-1-.447-1-1v-.872c-2.376-1.26-4-3.757-4-6.628,0-2.619,1.351-4.925,3.391-6.267l-1.154-4.233h-1.236c-.552,0-1-.447-1-1s.448-1,1-1h5c.552,0,1,.447,1,1s-.448,1-1,1h-1.691l.915,3.355c.718-.229,1.482-.355,2.276-.355,2.438,0,3.479.415,5.759,1.325.724.288,1.601.637,2.706,1.048.644-2.228,1.039-4.208,1.263-5.533.277-1.646,1.685-2.84,3.348-2.84.567,0,1.073-.339,1.288-.864l.211-.515c.21-.512.796-.758,1.305-.546.511.209.755.793.546,1.304l-.211.516c-.525,1.279-1.757,2.105-3.139,2.105-.683,0-1.261.493-1.375,1.172-.236,1.403-.659,3.511-1.35,5.879.46.16.94.326,1.467.501,3.169,1.266,4.684,3.259,4.684,6.115Zm-10-2.167c0-.553-.448-1-1-1h-2.163c-.434-1.441-1.757-2.5-3.337-2.5-1.93,0-3.5,1.57-3.5,3.5s1.57,3.5,3.5,3.5c1.58,0,2.903-1.059,3.337-2.5h2.163c.552,0,1-.447,1-1Z"/>
</svg>
