<?xml version="1.0" encoding="UTF-8"?>
<svg xmlns="http://www.w3.org/2000/svg" id="Layer_1" data-name="Layer 1" viewBox="0 0 24 24">
  <path d="m18,12c-3.314,0-6,2.686-6,6s2.686,6,6,6,6-2.686,6-6-2.686-6-6-6Zm0,11c-.552,0-1-.447-1-1s.448-1,1-1,1,.447,1,1-.448,1-1,1Zm1.447-3.371c-.504.277-.705.374-1.188.374-.028,0-.056,0-.086,0l-.173-.002c-.552,0-1-.447-1-1s.448-1,1-1l.215.003c.017,0,.025.002.028.004.058-.029.132-.071.238-.13.29-.159.595-.535.502-1.066-.069-.392-.402-.725-.793-.793-.522-.094-.895.202-1.057.483-.276.478-.888.642-1.366.364-.478-.276-.641-.889-.364-1.366.64-1.104,1.871-1.677,3.133-1.451,1.209.211,2.204,1.205,2.417,2.417.223,1.272-.382,2.543-1.506,3.164ZM4.5,2.5c0-1.381,1.119-2.5,2.5-2.5s2.5,1.119,2.5,2.5-1.119,2.5-2.5,2.5-2.5-1.119-2.5-2.5Zm7.5,7.5c0-2.206-1.794-4-4-4h-2c-2.206,0-4,1.794-4,4v3c0,1.478.805,2.771,2,3.463v6.537c0,.553.447,1,1,1s1-.447,1-1v-6h2v6c0,.553.447,1,1,1s1-.447,1-1v-5c0-2.029.755-3.881,2-5.291v-2.709Z"/>
</svg>
