<?xml version="1.0" encoding="UTF-8"?>
<svg xmlns="http://www.w3.org/2000/svg" id="Layer_1" data-name="Layer 1" viewBox="0 0 24 24">
  <path d="m19,3H5C2.239,3,0,5.239,0,8v8c0,2.761,2.239,5,5,5h14c2.761,0,5-2.239,5-5v-8c0-2.761-2.239-5-5-5ZM2.5,13.5c-.828,0-1.5-.672-1.5-1.5s.672-1.5,1.5-1.5,1.5.672,1.5,1.5-.672,1.5-1.5,1.5Zm4.5,2.5h-.5c-.827,0-1.5-.673-1.5-1.5v-5.5c0-.552.448-1,1-1s1,.448,1,1v5c.552,0,1,.448,1,1s-.448,1-1,1Zm4-1c0,.552-.448,1-1,1s-1-.448-1-1v-6c0-.552.448-1,1-1s1,.448,1,1v6Zm6.948-5.684l-2,6c-.136.408-.518.684-.948.684s-.813-.275-.948-.684l-2-6c-.175-.524.108-1.09.632-1.265.526-.175,1.09.109,1.265.632l1.052,3.154,1.052-3.154c.174-.523.737-.808,1.265-.632.523.175.807.741.632,1.265Zm4.052,1.684c.553,0,1,.448,1,1s-.447,1-1,1h-1v1h1c.553,0,1,.448,1,1s-.447,1-1,1h-1.5c-.827,0-1.5-.673-1.5-1.5v-5c0-.827.673-1.5,1.5-1.5h1.5c.553,0,1,.448,1,1s-.447,1-1,1h-1v1h1Z"/>
</svg>
