<?xml version="1.0" encoding="UTF-8"?>
<svg xmlns="http://www.w3.org/2000/svg" id="Layer_1" data-name="Layer 1" viewBox="0 0 24 24">
  <path d="M22,14.556v-1.556c0-2.206-1.794-4-4-4s-4,1.794-4,4v1.556c-1.19,.694-2,1.97-2,3.444v2c0,2.206,1.794,4,4,4h4c2.206,0,4-1.794,4-4v-2c0-1.474-.81-2.75-2-3.444Zm-4,5.944c-.828,0-1.5-.672-1.5-1.5s.672-1.5,1.5-1.5,1.5,.672,1.5,1.5-.672,1.5-1.5,1.5Zm-2-6.5v-1c0-1.103,.897-2,2-2s2,.897,2,2v1h-4Zm3-12H5C2.239,2,0,4.239,0,7v3c0,2.761,2.239,5,5,5h5.812c.318-.548,.72-1.039,1.188-1.46v-.54c0-.772,.152-1.508,.419-2.187-.063,.012-.124,.036-.188,.036-.256,0-.512-.098-.707-.293l-.643-.643-.643,.643c-.195,.195-.451,.293-.707,.293s-.512-.098-.707-.293c-.391-.391-.391-1.023,0-1.414l.643-.643-.643-.643c-.391-.391-.391-1.023,0-1.414,.39-.391,1.023-.391,1.414,0l.643,.643,.643-.643c.391-.391,1.023-.391,1.414,0,.391,.391,.39,1.023,0,1.414l-.643,.643,.643,.643c.097,.097,.17,.21,.219,.33,1.092-1.495,2.853-2.473,4.843-2.473,2.754,0,5.074,1.867,5.777,4.4,.131-.447,.223-.91,.223-1.4v-3c0-2.761-2.239-5-5-5ZM6.707,9.143c.391,.391,.391,1.023,0,1.414-.195,.195-.451,.293-.707,.293s-.512-.098-.707-.293l-.643-.643-.643,.643c-.195,.195-.451,.293-.707,.293s-.512-.098-.707-.293c-.391-.391-.391-1.023,0-1.414l.643-.643-.643-.643c-.391-.391-.391-1.023,0-1.414,.39-.391,1.023-.391,1.414,0l.643,.643,.643-.643c.391-.391,1.023-.391,1.414,0s.391,1.023,0,1.414l-.643,.643,.643,.643Z"/>
</svg>
