<?xml version="1.0" encoding="UTF-8"?>
<svg xmlns="http://www.w3.org/2000/svg" id="Layer_1" data-name="Layer 1" viewBox="0 0 24 24">
  <path d="M3,7.358c-1.721-.447-3-2-3-3.858V1C0,.448,.447,0,1,0s1,.448,1,1V3.5c0,.737,.405,1.375,1,1.722V1c0-.552,.447-1,1-1s1,.448,1,1V5.222c.595-.347,1-.985,1-1.722V1c0-.552,.447-1,1-1s1,.448,1,1V3.5c0,1.858-1.279,3.411-3,3.858v3.642c0,.552-.447,1-1,1s-1-.448-1-1v-3.642ZM22.782,.186c-.816,.683-2.176,2.451-2.28,4.944-.032,1.289,.361,2.712,1.498,4.122v1.749c0,.552,.447,1,1,1s1-.448,1-1V.597c-.004-.51-.75-.813-1.218-.411Zm1.218,13.814v5.5c.044,1.264-1.576,2.027-2.521,1.18l-2.479-2.375v4.695c0,.552-.447,1-1,1H9c-.553,0-1-.448-1-1v-4.695l-2.427,2.329c-.986,.907-2.6,.16-2.573-1.134v-5.5c0-.552,.447-1,1-1s1,.448,1,1v4.415l1.782-1.713c1.815-1.742,4.201-2.702,6.718-2.702s4.902,.959,6.718,2.702l1.782,1.71v-4.412c0-.552,.447-1,1-1s1,.448,1,1Zm-10.5-2c2.481,0,4.5-2.019,4.5-4.5s-2.019-4.5-4.5-4.5-4.5,2.019-4.5,4.5,2.019,4.5,4.5,4.5Z"/>
</svg>
