<?xml version="1.0" encoding="UTF-8"?>
<svg xmlns="http://www.w3.org/2000/svg" id="Layer_1" data-name="Layer 1" viewBox="0 0 24 24">
  <path d="M15.943,7.302c-2.291-1.703-5.596-1.703-7.887,0-.443,.331-1.069,.237-1.398-.205-.33-.442-.238-1.069,.205-1.398,1.492-1.111,3.269-1.698,5.137-1.698s3.645,.587,5.137,1.698c.443,.329,.535,.956,.205,1.398-.331,.446-.96,.534-1.398,.205Zm-6.245,1.345c-.472,.288-.62,.903-.332,1.375s.902,.62,1.375,.332c.756-.463,1.762-.463,2.518,0,.464,.285,1.085,.143,1.375-.332,.288-.472,.14-1.087-.332-1.375-1.385-.846-3.219-.846-4.604,0ZM5.516,4.279c1.826-1.47,4.129-2.279,6.484-2.279s4.658,.81,6.484,2.279c.428,.345,1.058,.279,1.406-.152,.346-.431,.278-1.06-.152-1.406C17.559,.967,14.81,0,12,0S6.441,.967,4.262,2.721c-.431,.347-.498,.976-.152,1.406,.347,.429,.975,.498,1.406,.152Zm18.484,12.721v1c0,1.474-.81,2.75-2,3.444v1.556c0,.553-.447,1-1,1s-1-.447-1-1v-1H4v1c0,.553-.447,1-1,1s-1-.447-1-1v-1.556c-1.19-.694-2-1.97-2-3.444v-1c0-2.206,1.794-4,4-4H20c2.206,0,4,1.794,4,4Zm-18,.5c0-.828-.672-1.5-1.5-1.5s-1.5,.672-1.5,1.5,.672,1.5,1.5,1.5,1.5-.672,1.5-1.5Zm4,0c0-.828-.672-1.5-1.5-1.5s-1.5,.672-1.5,1.5,.672,1.5,1.5,1.5,1.5-.672,1.5-1.5Z"/>
</svg>
