<?xml version="1.0" encoding="UTF-8"?>
<svg xmlns="http://www.w3.org/2000/svg" id="Layer_1" data-name="Layer 1" viewBox="0 0 24 24">
  <path d="m10.593,10.649L1.562,5.897c.459-.892,1.174-1.646,2.096-2.135L9.659.582c1.466-.776,3.217-.775,4.683,0l5.999,3.18s0,0,0,0c.947.502,1.677,1.283,2.133,2.207l-9.07,4.681c-.881.466-1.931.466-2.812,0Zm8.856,1.838v.025c0,.746.796,1.222,1.453.87l2.098-1.119v3.556c0,1.856-1.019,3.549-2.659,4.418l-5.999,3.18c-.733.388-1.537.583-2.342.583s-1.608-.194-2.342-.583l-5.999-3.18c-1.641-.87-2.659-2.562-2.659-4.418v-3.556l2.098,1.119c.657.353,1.453-.124,1.453-.87v-.025c0-.363-.2-.697-.52-.869l-3.031-1.619v-1.82c0-.104.015-.205.021-.308l8.637,4.546c.733.389,1.538.582,2.342.583.804,0,1.608-.194,2.342-.583l8.637-4.546c.006.103.021.204.021.308v1.82l-3.031,1.619c-.32.172-.52.506-.52.869Zm-8.449,3.401c0-.365-.202-.701-.525-.872l-2.475-1.291c-.657-.348-1.449.128-1.449.872v.03c0,.365.202.701.525.872l2.475,1.29c.657.348,1.449-.128,1.449-.872v-.03Zm6.449-1.291c0-.744-.792-1.22-1.449-.872l-2.475,1.291c-.323.171-.525.507-.525.872v.03c0,.744.792,1.22,1.449.872l2.475-1.29c.323-.171.525-.507.525-.872v-.03Z"/>
</svg>
