<?xml version="1.0" encoding="UTF-8"?>
<svg xmlns="http://www.w3.org/2000/svg" id="Layer_1" data-name="Layer 1" viewBox="0 0 24 24">
  <path d="M6,13.683L1.797,9.48c-.71-.71-1.044-1.643-1.153-2.567-.412-.412-.644-.972-.644-1.555V1.62C0,.695,.78-.048,1.719,.014c.4,.026,.772,.212,1.056,.495l1.507,1.502h6.495c.65,0,1.22,.531,1.223,1.18,.003,.648-.521,1.175-1.17,1.176h-1.419s2.692,2.692,2.692,2.692c-.816,.11-1.536,.529-2.008,1.159-.462-.181-.979-.252-1.52-.178-1.49,.206-2.576,1.523-2.576,3.027v2.616ZM22.006,.004L20.614,0c-.533-.002-1.044,.209-1.421,.586l-1.04,1.04c-.924,.108-1.857,.443-2.567,1.153,0,0-2.258,2.381-2.399,2.536l5.006,5.006c.686,.688,.685,1.894,.685,1.894l1.821-1.821v1.419c0,.646,.524,1.17,1.17,1.17,.646,0,1.17-.524,1.17-1.17l-.038-6.549,.267-.267c.469-.469,.732-1.105,.732-1.768v-1.225C24,.902,23.108,.008,22.006,.004Zm-6.006,11.006c-.552,0-1,.448-1,1v3.25c0,.414-.336,.75-.75,.75s-.75-.336-.75-.75v-5.25c0-.552-.448-1-1-1-.552,0-1,.448-1,1v5.25c0,.414-.336,.75-.75,.75s-.75-.336-.75-.75v-4.25c0-.552-.448-1-1-1-.552,0-1,.448-1,1v7.346l-1.003-1.003c-.457-.457-1.197-.457-1.654,0-.457,.457-.457,1.197,0,1.654l3.967,3.867c.747,.728,1.749,1.136,2.792,1.136h2.898c.552,0,1-.448,1-1v-.38c.615-.703,1-1.613,1-2.62V12.011c0-.552-.448-1-1-1Z"/>
</svg>
