<?xml version="1.0" encoding="UTF-8"?>
<svg xmlns="http://www.w3.org/2000/svg" id="Layer_1" data-name="Layer 1" viewBox="0 0 24 24">
  <path d="m23,1v4c0,1.105-.895,2-2,2h-4c-.552,0-1-.448-1-1s.448-1,1-1h2.131c-1.856-1.902-4.389-3-7.131-3C6.486,2,2,6.486,2,12c0,.552-.448,1-1,1s-1-.448-1-1C0,5.383,5.383,0,12,0c3.517,0,6.743,1.509,9,4.091V1c0-.552.448-1,1-1s1,.448,1,1Zm0,10c-.552,0-1,.448-1,1,0,5.514-4.486,10-10,10-2.742,0-5.275-1.098-7.131-3h2.131c.552,0,1-.448,1-1s-.448-1-1-1H3c-1.105,0-2,.895-2,2v4c0,.552.448,1,1,1s1-.448,1-1v-3.091c2.257,2.582,5.483,4.091,9,4.091,6.617,0,12-5.383,12-12,0-.552-.448-1-1-1Zm-3,1c0,4.418-3.582,8-8,8-.864,0-1.695-.141-2.474-.395.297-.465.474-1.014.474-1.605,0-.211-.023-.417-.065-.616-.033-.057-.079-.104-.107-.164-.707-.223-1.343-.646-1.83-1.232-.231-.279-.369-.601-.454-.933-.177-.033-.358-.055-.544-.055h-2.413c-.376-.927-.587-1.938-.587-3,0-4.418,3.582-8,8-8,.864,0,1.695.141,2.474.395-.297.465-.474,1.014-.474,1.605,0,.211.023.417.065.616.033.057.079.104.107.164.707.223,1.343.646,1.83,1.232.231.279.369.601.454.933.177.033.358.055.544.055h2.413c.376.927.587,1.938.587,3Zm-6.447-.505l-2.792-.559c-.304-.061-.514-.36-.449-.678.055-.272.309-.458.587-.458h2.102c.203,0,.387.087.515.226.154.167.361.274.588.274h.076c.654,0,1.01-.763.592-1.266-.422-.509-1.059-.833-1.77-.833h-.2v-.4c0-.442-.358-.8-.8-.8s-.8.358-.8.8v.4h-.28c-1.091,0-2.046.786-2.199,1.866-.163,1.158.613,2.216,1.725,2.439l2.791.559c.304.062.514.359.451.677-.054.273-.308.46-.586.46h-2.103c-.203,0-.387-.087-.515-.226-.154-.167-.361-.274-.588-.274h-.076c-.654,0-1.01.763-.592,1.266.422.509,1.059.833,1.77.833h.2v.4c0,.442.358.8.8.8s.8-.358.8-.8v-.4h.28c1.091,0,2.046-.785,2.199-1.865.164-1.158-.613-2.217-1.725-2.439Z"/>
</svg>
