<?xml version="1.0" encoding="UTF-8"?>
<svg xmlns="http://www.w3.org/2000/svg" id="Layer_1" data-name="Layer 1" viewBox="0 0 24 24">
  <path d="m3.411,4.825L.293,1.707C-.098,1.316-.098.684.293.293S1.316-.098,1.707.293l3.118,3.118-1.414,1.414Zm11.15,13.028l1.086,1.086,3.232-3.232-1.086-1.086-3.232,3.232Zm8.041,1.498l-3.21,3.242c-.908.918-2.118,1.426-3.408,1.431h-.02c-1.282,0-2.49-.498-3.4-1.404L3.851,13.976c-.812-.805-1.227-1.921-1.136-3.062l.696-6.088,3.663,3.663c-.044.164-.074.334-.074.512,0,1.105.895,2,2,2s2-.895,2-2-.895-2-2-2c-.178,0-.347.031-.512.074l-3.663-3.663,5.803-.651c1.175-.153,2.379.255,3.221,1.09l8.728,8.67c1.885,1.877,1.896,4.942.025,6.832Zm-1.602-4.352l-2.5-2.5c-.391-.391-1.023-.391-1.414,0l-4.646,4.646c-.391.391-.391,1.023,0,1.414l2.5,2.5c.195.195.451.293.707.293s.512-.098.707-.293l4.646-4.646c.391-.391.391-1.023,0-1.414Z"/>
</svg>
