<?xml version="1.0" encoding="UTF-8"?>
<svg xmlns="http://www.w3.org/2000/svg" id="Layer_1" data-name="Layer 1" viewBox="0 0 24 24">
  <path d="m19.885,4v5c0,2.206-1.794,4-4,4H7.885c-2.206,0-4-1.794-4-4v-5C3.885,1.794,5.679,0,7.885,0h1.115v5c0,1.103.897,2,2,2h2c1.103,0,2-.897,2-2V0h.885c2.206,0,4,1.794,4,4ZM13,0h-2v5h2V0Zm11,19.5c0,2.481-2.019,4.5-4.5,4.5H4.5c-2.481,0-4.5-2.019-4.5-4.5s2.019-4.5,4.5-4.5h15c2.481,0,4.5,2.019,4.5,4.5Zm-18,0c0-.828-.672-1.5-1.5-1.5s-1.5.672-1.5,1.5.672,1.5,1.5,1.5,1.5-.672,1.5-1.5Zm7.5,0c0-.828-.672-1.5-1.5-1.5s-1.5.672-1.5,1.5.672,1.5,1.5,1.5,1.5-.672,1.5-1.5Zm7.5,0c0-.828-.672-1.5-1.5-1.5s-1.5.672-1.5,1.5.672,1.5,1.5,1.5,1.5-.672,1.5-1.5Z"/>
</svg>
