<?xml version="1.0" encoding="UTF-8"?>
<svg xmlns="http://www.w3.org/2000/svg" id="Layer_1" data-name="Layer 1" viewBox="0 0 24 24">
  <path d="m21.5,4.5c-1.381,0-2.5,1.119-2.5,2.5,0,.142.019.279.042.415l-2.91,2.116c-.62-.807-1.369-1.507-2.222-2.065l1.369-2.489c.074.007.146.022.222.022,1.381,0,2.5-1.119,2.5-2.5s-1.119-2.5-2.5-2.5-2.5,1.119-2.5,2.5c0,.573.201,1.095.525,1.516l-1.404,2.553c-.974-.362-2.022-.569-3.121-.569C4.037,6,0,10.038,0,15s4.037,9,9,9,9-4.037,9-9c0-1.34-.302-2.608-.83-3.751l2.966-2.157c.393.256.86.408,1.364.408,1.381,0,2.5-1.119,2.5-2.5s-1.119-2.5-2.5-2.5Zm-12.273,17.496c-.016,0-.281-.016-.39-.057-3.522-1.317-6.105-4.559-6.461-8.443-.04-.437.218-1.31.224-1.324.398-.898,1.728-.611,1.724.371,0,3.167,2.188,6.262,5.25,7.644.906.409.648,1.776-.346,1.809Zm6.39-7.888c-.794,1.055-1.856,2.032-3.073,2.826.492.127,1.075.222,1.641.289.717.085,1.115.891.73,1.502-.004.006-.008.012-.012.019-.21.331-.597.506-.987.461-4.782-.544-7.593-3.138-7.593-7.126,0-1.125.205-2.232.596-3.276.132-.353.451-.602.826-.64.01,0,.02-.002.03-.003.72-.07,1.275.643,1.021,1.32-.337.896-.498,1.851-.469,2.818.006.003.006.003.011.007,1.293-.656,2.398-1.634,3.222-2.827.31-.448.928-.559,1.378-.252.006.004.011.008.017.011.46.316.575.943.256,1.401-1.107,1.589-2.63,2.86-4.396,3.66.344.686.846,1.221,1.441,1.634,1.386-.679,2.81-1.87,3.797-3.069.511-.621,1.516-.394,1.718.384.002.008.004.016.006.025.074.289.019.598-.161.836Z"/>
</svg>
