<?xml version="1.0" encoding="UTF-8"?>
<svg xmlns="http://www.w3.org/2000/svg" id="Layer_1" data-name="Layer 1" viewBox="0 0 24 24">
  <path d="m16,13v5.5c0,.827.673,1.5,1.5,1.5h.684c.413-1.163,1.512-2,2.816-2,1.657,0,3,1.343,3,3s-1.343,3-3,3c-1.304,0-2.403-.837-2.816-2h-.684c-1.93,0-3.5-1.57-3.5-3.5v-5.5h-1c-.553,0-1-.447-1-1s.447-1,1-1h1v-5.5c0-1.93,1.57-3.5,3.5-3.5h.684c.413-1.163,1.512-2,2.816-2,1.657,0,3,1.343,3,3s-1.343,3-3,3c-1.304,0-2.403-.837-2.816-2h-.684c-.827,0-1.5.673-1.5,1.5v5.5h2.184c.413-1.163,1.512-2,2.816-2,1.657,0,3,1.343,3,3s-1.343,3-3,3c-1.304,0-2.403-.837-2.816-2h-2.184Zm-4.735-2.879l-.983.566c.129.418.218.853.218,1.313s-.089.895-.218,1.313l.983.566c.479.275.644.887.367,1.365-.185.321-.521.501-.867.501-.169,0-.341-.043-.498-.134l-.977-.563c-.605.652-1.393,1.126-2.289,1.331v1.121c0,.553-.447,1-1,1s-1-.447-1-1v-1.121c-.896-.205-1.685-.678-2.289-1.331l-.977.563c-.157.091-.329.134-.498.134-.346,0-.683-.18-.867-.501-.276-.479-.111-1.09.367-1.365l.983-.566c-.129-.418-.218-.853-.218-1.313s.089-.895.218-1.313l-.983-.566c-.479-.275-.644-.887-.367-1.365.275-.479.886-.644,1.365-.367l.977.563c.605-.652,1.393-1.126,2.289-1.331v-1.121c0-.553.447-1,1-1s1,.447,1,1v1.121c.896.205,1.685.678,2.289,1.331l.977-.563c.479-.276,1.091-.111,1.365.367.276.479.111,1.09-.367,1.365Zm-3.765,1.879c0-.827-.673-1.5-1.5-1.5s-1.5.673-1.5,1.5.673,1.5,1.5,1.5,1.5-.673,1.5-1.5Z"/>
</svg>
