<?xml version="1.0" encoding="UTF-8"?>
<svg xmlns="http://www.w3.org/2000/svg" id="Layer_1" data-name="Layer 1" viewBox="0 0 24 24">
  <path d="M11.5,8.988h-3.077c-.619,0-1.062-.597-.883-1.19L9.928,.674c.139-.403,.519-.674,.945-.674h1.894c.702,0,1.185,.704,.933,1.359l-1.201,3.629h3.093c.722,0,1.153,.804,.754,1.406l-4.754,7.225c-.56,.813-1.827,.215-1.556-.734l1.463-3.897Zm11.5,8.012v-2c0-.553-.448-1-1-1s-1,.447-1,1v6c0,.553,.448,1,1,1s1-.447,1-1v-2c.552,0,1-.447,1-1s-.448-1-1-1Zm-4-5c-.552,0-1,.447-1,1v4H6v-4c0-.553-.448-1-1-1s-1,.447-1,1v10c0,.553,.448,1,1,1s1-.447,1-1v-4h12v4c0,.553,.448,1,1,1s1-.447,1-1V13c0-.553-.448-1-1-1ZM2,14c-.552,0-1,.447-1,1v2c-.552,0-1,.447-1,1s.448,1,1,1v2c0,.553,.448,1,1,1s1-.447,1-1v-6c0-.553-.448-1-1-1Z"/>
</svg>
