<?xml version="1.0" encoding="UTF-8"?>
<svg xmlns="http://www.w3.org/2000/svg" id="Layer_1" data-name="Layer 1" viewBox="0 0 24 24">
  <path d="m4.5,2.5c0-1.381,1.119-2.5,2.5-2.5s2.5,1.119,2.5,2.5-1.119,2.5-2.5,2.5-2.5-1.119-2.5-2.5Zm19.46,8.703c-.155-.53-.71-.835-1.24-.68l-3.322.747c.089-.159.335-.46.396-.615.35-.894.191-1.574-.003-1.987-.42-.892-1.607-1.898-4.917-1.617-1.104.142-1.942.343-2.666.546.168.517.821,1.307,1.351,1.89.382.42.338,1.072-.101,1.431l-.019.015c-.4.326-.981.293-1.336-.081-.585-.616-1.409-1.622-1.826-2.752,2.14-1.464,3.326-4.663,3.64-6.957.082-.603-.373-1.142-.982-1.142h0c-.501,0-.931.371-.983.87-.145,1.391-.639,3.414-1.853,4.758-.227.251-.565.372-.903.372h-4.286c-.426,0-.832-.212-1.063-.571-1.155-1.795-1.652-3.214-1.797-4.535-.056-.507-.471-.895-.982-.895h0C.47,0-.002.526.078,1.117c.458,3.357,2.773,6.408,2.967,6.695,1.419,2.106,3.2,3.853,4.245,4.796.414.374.376,1.033-.071,1.366-.007.005-.014.01-.021.016-.335.25-.798.231-1.112-.045-.692-.607-1.872-1.664-2.541-2.379-2.113,1.673-2.99,3.37-2.334,4.762.552,1.171,2.005,1.664,3.869,1.664,1.183,0,2.533-.204,3.92-.554v5.561c0,.552.448,1,1,1h0c.552,0,1-.448,1-1v-6.16c.424-.147.847-.301,1.264-.47,1.631-.662,3.087-1.453,4.298-2.288l6.717-1.64c.53-.155.834-.71.68-1.24h0Z"/>
</svg>
