<?xml version="1.0" encoding="UTF-8"?>
<svg xmlns="http://www.w3.org/2000/svg" id="Layer_1" data-name="Layer 1" viewBox="0 0 24 24">
  <path d="m20,4h-5c-.739,0-1.385.403-1.731,1h-2.269v-.924c0-1.254-.61-2.394-1.632-3.049-.951-.61-2.129-.693-3.238-.178L1.414,3.605c-.872.471-1.414,1.389-1.414,2.395,0,1,.535,1.912,1.397,2.386l4.819,2.81c.439.202.906.301,1.373.301.62,0,1.236-.176,1.779-.524,1.022-.655,1.632-1.794,1.632-3.049v-.924h2.269c.346.597.992,1,1.731,1h5c1.103,0,2-.897,2-2s-.897-2-2-2Zm-12,20h8v-6h-8v6Zm10-6v6h2c2.209,0,4-1.791,4-4v-2h-6Zm-12,0H2c-1.105,0-2,.895-2,2h0c0,2.209,1.791,4,4,4h2v-6Zm7-6v4h11v-4c0-1.105-.895-2-2-2h-7c-1.105,0-2,.895-2,2Z"/>
</svg>
