<?xml version="1.0" encoding="UTF-8"?>
<svg xmlns="http://www.w3.org/2000/svg" id="Layer_1" data-name="Layer 1" viewBox="0 0 24 24">
  <path d="m7,0H3C1.343,0,0,1.343,0,3v4c0,1.657,1.343,3,3,3h4c1.657,0,3-1.343,3-3V3c0-1.657-1.343-3-3-3Zm-1.5,5h-1c-.552,0-1-.448-1-1h0c0-.552.448-1,1-1h1c.552,0,1,.448,1,1h0c0,.552-.448,1-1,1Zm3.442,16c.034.162.058.328.058.5,0,1.381-1.119,2.5-2.5,2.5s-2.5-1.119-2.5-2.5c0-.172.024-.338.058-.5h4.885Zm-4.942-2c-2.209,0-4-1.791-4-4v-4.026c.838.635,1.87,1.026,3,1.026h4c2.757,0,5-2.243,5-5V3c0-.209-.037-.407-.062-.609,1.799.757,3.062,2.536,3.062,4.609v12H4Zm15.942,2c.034.162.058.328.058.5,0,1.381-1.119,2.5-2.5,2.5s-2.5-1.119-2.5-2.5c0-.172.024-.338.058-.5h4.885Zm4.058-10v1h-7v-6h2c2.761,0,5,2.239,5,5Zm-7,3h7v1c0,2.209-1.791,4-4,4h-3v-5Z"/>
</svg>
