<?xml version="1.0" encoding="UTF-8"?>
<svg xmlns="http://www.w3.org/2000/svg" id="Layer_1" data-name="Layer 1" viewBox="0 0 24 24">
  <path d="M20,8c-2.206,0-4-1.794-4-4S17.794,0,20,0s4,1.794,4,4-1.794,4-4,4Zm-3.532,7.25h-.716v1.473l.715-.003c.406,0,.735-.329,.735-.735s-.329-.735-.735-.735Zm-5,0h-.716v1.473l.715-.003c.406,0,.735-.329,.735-.735s-.329-.735-.735-.735Zm-5.644,.221l-.552,2.279h1.451l-.514-2.283c.035-.247-.424-.232-.385,.004Zm14.176-5.471c-3.309,0-6-2.692-6-6,0-.702,.127-1.373,.35-2H5C2.243,2,0,4.243,0,7v12c0,2.757,2.243,5,5,5h12c2.757,0,5-2.243,5-5V9.65c-.627,.223-1.298,.35-2,.35ZM7.768,20c-.3,.022-.58-.172-.645-.469l-.12-.531h-2.035l-.131,.541c-.065,.269-.306,.459-.584,.459-.386,0-.672-.359-.585-.735l.936-4.074c.142-.77,.778-1.159,1.414-1.159,.641,0,1.283,.395,1.417,1.193l.918,4.042c.085,.376-.2,.734-.586,.734Zm3.651-2.03h-.669v1.405c0,.345-.28,.625-.625,.625s-.625-.28-.625-.625v-4.75c0-.345,.28-.625,.625-.625h1.342c1.12,0,2.024,.928,1.984,2.057-.038,1.076-.955,1.913-2.031,1.913Zm5,0h-.669v1.405c0,.345-.28,.625-.625,.625s-.625-.28-.625-.625v-4.75c0-.345,.28-.625,.625-.625h1.342c1.12,0,2.024,.928,1.984,2.057-.038,1.076-.955,1.913-2.031,1.913Z"/>
</svg>
