<?xml version="1.0" encoding="UTF-8"?>
<svg xmlns="http://www.w3.org/2000/svg" id="Layer_1" data-name="Layer 1" viewBox="0 0 24 24">
  <path d="m19,0c-2.761,0-5,2.239-5,5s2.239,5,5,5,5-2.239,5-5S21.761,0,19,0Zm.586,7l-1.293-1.293c-.188-.188-.293-.442-.293-.707v-2c0-.552.448-1,1-1h0c.552,0,1,.448,1,1v1.586l1,1c.39.39.39,1.024,0,1.414h0c-.39.39-1.024.39-1.414,0Zm-9.601,7.121L.952,5.089c.909-1.259,2.379-2.089,4.048-2.089h7.295c-.19.634-.295,1.305-.295,2,0,3.065,1.984,5.671,4.733,6.616l-2.505,2.505c-1.134,1.133-3.109,1.133-4.243,0Zm14.015-4.232v9.111c0,2.757-2.243,5-5,5H5c-2.757,0-5-2.243-5-5v-11c0-.322.037-.635.095-.941l8.476,8.476c.944.944,2.2,1.465,3.536,1.465s2.591-.521,3.535-1.465l3.545-3.545c1.883-.05,3.582-.843,4.813-2.101Z"/>
</svg>
