<?xml version="1.0" encoding="UTF-8"?>
<svg xmlns="http://www.w3.org/2000/svg" id="Layer_1" data-name="Layer 1" viewBox="0 0 24 24">
  <path d="m20.905,3.095c-.458-2.105-2.482-3.095-3.905-3.095-1.178,0-2,.78-2,1.898v4.688l-1.293-1.293c-.391-.391-1.023-.391-1.414,0s-.391,1.023,0,1.414l1.793,1.793-1.383,1.383-2.582-2.521c-.395-.384-1.028-.378-1.414.018-.386.395-.378,1.027.017,1.414l2.565,2.504-1.289,1.289-3.293-3.293c-.391-.391-1.023-.391-1.414,0s-.391,1.023,0,1.414l3.293,3.293-1.13,1.13c-.954-.806-2.031-1.469-3.205-1.941-.685-.276-1.454-.248-2.111.076-.657.323-1.148.916-1.347,1.627-.41,1.467-.667,3.181-.788,5.24-.06,1.038.328,2.056,1.066,2.795.688.688,1.466,1.067,2.795,1.067,2.068,0,3.779-.378,5.24-.787.71-.198,1.303-.688,1.627-1.345.324-.657.352-1.426.077-2.113-.472-1.173-1.135-2.25-1.941-3.204l1.129-1.129,3.293,3.293c.195.195.451.293.707.293s.512-.098.707-.293c.391-.391.391-1.023,0-1.414l-3.293-3.293,1.306-1.306,2.582,2.521c.194.189.446.284.698.284.26,0,.52-.101.716-.302.386-.395.378-1.027-.018-1.414l-2.564-2.504,1.366-1.366,1.793,1.793c.195.195.451.293.707.293s.512-.098.707-.293c.391-.391.391-1.023,0-1.414l-1.293-1.293h4.688c1.118,0,1.898-.822,1.898-2,0-1.423-.989-3.447-3.095-3.905ZM4.5,21c-.828,0-1.5-.672-1.5-1.5s.672-1.5,1.5-1.5,1.5.672,1.5,1.5-.672,1.5-1.5,1.5Z"/>
</svg>
