<?xml version="1.0" encoding="UTF-8"?>
<svg xmlns="http://www.w3.org/2000/svg" id="Layer_1" data-name="Layer 1" viewBox="0 0 24 24">
  <path d="m12,9c-4.142,0-7.5,3.358-7.5,7.5s3.358,7.5,7.5,7.5,7.5-3.358,7.5-7.5-3.358-7.5-7.5-7.5Zm1.376,12h-.376c0,.552-.448,1-1,1s-1-.448-1-1h-.268c-1.068,0-2.063-.574-2.598-1.499-.276-.478-.113-1.089.365-1.366.477-.277,1.089-.113,1.366.365.178.308.511.5.867.5h2.644c.344,0,.624-.28.624-.624,0-.307-.22-.565-.521-.616l-3.286-.548c-1.27-.211-2.192-1.3-2.192-2.588,0-1.447,1.177-2.624,2.624-2.624h.376c0-.552.448-1,1-1s1,.448,1,1h.268c1.067,0,2.063.575,2.598,1.5.277.478.113,1.089-.364,1.366-.48.277-1.092.113-1.366-.365-.179-.309-.511-.5-.867-.5h-2.644c-.344,0-.624.28-.624.624,0,.307.219.565.521.616l3.286.548c1.271.211,2.193,1.3,2.193,2.588,0,1.447-1.177,2.624-2.624,2.624Zm10.624-14v1H0v-1C0,4.243,2.243,2,5,2h1v-1c0-.552.448-1,1-1s1,.448,1,1v1h8v-1c0-.552.447-1,1-1s1,.448,1,1v1h1c2.757,0,5,2.243,5,5ZM6.191,24h-1.191c-2.757,0-5-2.243-5-5v-9h5.091c-1.601,1.701-2.591,3.985-2.591,6.5,0,3.049,1.45,5.761,3.691,7.5Zm12.719-14h5.091v9c0,2.757-2.243,5-5,5h-1.191c2.24-1.739,3.691-4.451,3.691-7.5,0-2.515-.989-4.799-2.591-6.5Z"/>
</svg>
