<?xml version="1.0" encoding="UTF-8"?>
<svg xmlns="http://www.w3.org/2000/svg" id="Layer_1" data-name="Layer 1" viewBox="0 0 24 24">
  <path d="M18.806,12H5.198l.727-5h12.164l.716,5ZM5.986,5h12.014V0H5.994l-.008,5Zm14.014,2l.834,5h2.962l-1.967-9.665c-.227-.998-.926-1.771-1.829-2.124V7ZM3.165,12l.835-5V.221c-.895,.361-1.604,1.142-1.833,2.135L.185,12H3.165Zm20.835,2v5c0,2.761-2.239,5-5,5H5.009C2.244,24,.004,21.756,.009,18.991l.009-4.991H24Zm-10,4h-4c-.552,0-1,.448-1,1h0c0,.552,.448,1,1,1h4c.552,0,1-.448,1-1h0c0-.552-.448-1-1-1Z"/>
</svg>
