<?xml version="1.0" encoding="UTF-8"?>
<svg xmlns="http://www.w3.org/2000/svg" id="Layer_1" data-name="Layer 1" viewBox="0 0 24 24">
  <path d="M15.33,8.33c-.607-.041-1.227,.162-1.691,.626-.853,.853-.853,2.236,0,3.088,.464,.464,1.084,.666,1.691,.626-.041,.607,.162,1.227,.626,1.691,.853,.853,2.235,.853,3.088,0,.464-.464,.666-1.084,.626-1.691,.607,.041,1.227-.162,1.691-.626,.853-.853,.853-2.235,0-3.088-.464-.464-1.084-.666-1.691-.626,.041-.607-.162-1.227-.626-1.691-.853-.853-2.235-.853-3.088,0-.464,.464-.666,1.084-.626,1.691Zm2.17,.67c.828,0,1.5,.672,1.5,1.5s-.672,1.5-1.5,1.5-1.5-.672-1.5-1.5,.672-1.5,1.5-1.5Zm-11.191,3.54c-.823-.558-1.309-1.488-1.309-2.482v-.789c0-3.715,2.779-6.983,6.484-7.25,2.133-.154,4.085,.655,5.465,2.035-.907,.12-1.749,.514-2.406,1.172-.402,.402-.713,.878-.919,1.397-.52,.207-.996,.517-1.397,.918-.791,.79-1.226,1.841-1.226,2.958s.435,2.168,1.226,2.958c.195,.195,.41,.368,.637,.518-.276,.015-.563,.024-.863,.024-2.836,0-4.619-.733-5.691-1.46Zm17.691,1.96c0,3.645-5.271,6.5-12,6.5S0,18.145,0,14.5c0-1.655,1.088-3.183,3-4.347h0c0,1.496,.678,2.93,1.888,3.809,1.393,1.013,3.656,2.038,7.112,2.038,.949,0,1.795-.079,2.565-.207,.789,.777,1.828,1.207,2.935,1.207,1.118,0,2.168-.435,2.958-1.226,.402-.402,.713-.878,.919-1.397,.52-.207,.996-.517,1.397-.919,.279-.279,.493-.595,.676-.924,.353,.624,.549,1.283,.549,1.966Z"/>
</svg>
