<?xml version="1.0" encoding="UTF-8"?>
<svg xmlns="http://www.w3.org/2000/svg" id="Layer_1" data-name="Layer 1" viewBox="0 0 24 24">
  <path d="M18,12c-3.314,0-6,2.686-6,6s2.686,6,6,6,6-2.686,6-6-2.686-6-6-6Zm3.683,5.712l-2.703,2.614c-.452,.446-1.052,.671-1.653,.671s-1.203-.225-1.663-.674l-1.354-1.332c-.395-.387-.4-1.02-.014-1.414,.386-.395,1.019-.401,1.414-.014l1.354,1.331c.144,.142,.38,.139,.522-.002l2.713-2.624c.397-.381,1.031-.37,1.414,.029,.382,.398,.369,1.031-.029,1.414Zm-11.683,.288c0-4.411,3.589-8,8-8,.692,0,1.359,.097,2,.263v-3.263c0-2.045-1.237-3.802-3-4.576V1c0-.552-.447-1-1-1s-1,.448-1,1v1h-2V1c0-.552-.447-1-1-1s-1,.448-1,1v1h-2V1c0-.552-.447-1-1-1s-1,.448-1,1v1h-2V1c0-.552-.447-1-1-1s-1,.448-1,1v1.424C1.237,3.198,0,4.955,0,7v12c0,2.757,2.243,5,5,5h7.726c-1.667-1.467-2.726-3.61-2.726-6ZM5,7H15c.553,0,1,.448,1,1s-.447,1-1,1H5c-.553,0-1-.448-1-1s.447-1,1-1Zm3.5,6h-3.5c-.553,0-1-.448-1-1s.447-1,1-1h3.5c.553,0,1,.448,1,1s-.447,1-1,1Z"/>
</svg>
