<?xml version="1.0" encoding="UTF-8"?>
<svg xmlns="http://www.w3.org/2000/svg" id="Layer_1" data-name="Layer 1" viewBox="0 0 24 24">
  <path d="m23.694,19.261l-2.396-2.396c-.479-.479-1.298-.14-1.298.537v1.424c-.796-.482-1.593-1.964-2.256-3.209-.99-1.86-1.675-3.617-3.244-3.617s-2.254,1.757-3.244,3.617c-.802,1.507-1.8,3.383-2.756,3.383h-2s.82-.846,1.591-2c.285-.382,1.068-1.7,1.399-2.323,0,0,0,0,0,0h0c1.11-2.085,2.24-4.677,5.01-4.677.477,0,1.16.081,1.56.219-1.18-3.899-2.218-6.219-4.06-6.219-2.213,0-3.264,3.321-4.795,8.74-.42,1.487-1.405,3.455-2.205,4.8V4h1.559c.677,0,1.016-.819.537-1.298L4.7.306c-.408-.408-1.07-.408-1.478,0L.826,2.702c-.479.479-.14,1.298.537,1.298h1.636v13c0,2.209,1.791,4,4,4h13v1.598c0,.677.819,1.016,1.298.537l2.396-2.396c.408-.408.408-1.07,0-1.478Z"/>
</svg>
