<?xml version="1.0" encoding="UTF-8"?>
<svg xmlns="http://www.w3.org/2000/svg" id="Layer_1" data-name="Layer 1" viewBox="0 0 24 24">
  <path d="M4.372,14.566c.098,.206,.21,.4,.338,.581-1.017,1.333-1.03,1.354-1.061,1.402-.773,1.249-.861,2.857-.229,4.197,.042,.089,.094,.169,.141,.254h-1.062c-.992,0-1.812-.479-2.251-1.314-.476-.906-.396-2.09,.194-2.947l1.621-2.25c-.263-.198-.479-.448-.632-.74-.375-.713-.307-1.561,.182-2.269l1.508-2.002c-.196-.16-.356-.354-.472-.578-.322-.623-.243-1.353,.217-2.004l3.016-2.844c-.28,.381-.293,.4-.3,.414-.68,1.068-.768,2.449-.229,3.605,.148,.318,.389,.697,.683,1.04-1.361,1.703-1.376,1.726-1.412,1.785-.728,1.171-.817,2.474-.253,3.671Zm6.628,8.434c0,.552,.447,1,1,1s1-.448,1-1v-2h-2v2Zm5.608-8.07s1.391-.43,1.391-1.93c0-.338-.084-.667-.277-.98-.128-.168-2.648-3.319-2.648-3.319,0,0,1.926-.214,1.926-2.201,0-.332-.269-.853-.436-1.115-.14-.196-3.579-4.918-3.578-4.918C12.752,.172,12.393,.003,12,0c-.393,.002-.752,.171-.986,.466,0,0-3.438,4.722-3.578,4.918-.167,.263-.436,.783-.436,1.115,0,1.987,1.926,2.201,1.926,2.201,0,0-2.521,3.151-2.648,3.319-.193,.314-.277,.643-.277,.98,0,1.5,1.391,1.93,1.391,1.93,0,0-1.98,2.594-2.08,2.73-.382,.622-.429,1.499-.082,2.233,.179,.38,.453,.668,.771,.86v2.248c0,.552,.447,1,1,1s1-.448,1-1v-2h3V12c0-.552,.447-1,1-1s1,.448,1,1v9h3v2c0,.552,.447,1,1,1s1-.448,1-1v-2.248c.317-.191,.591-.48,.771-.86,.347-.734,.3-1.611-.082-2.233-.1-.136-2.08-2.73-2.08-2.73Zm6.948,1.81l-1.621-2.25c.263-.198,.479-.448,.632-.74,.375-.713,.307-1.561-.182-2.269l-1.508-2.002c.196-.16,.356-.354,.472-.578,.322-.623,.243-1.353-.217-2.004l-3.016-2.844c.28,.381,.293,.4,.3,.414,.68,1.068,.768,2.449,.229,3.605-.148,.318-.389,.697-.683,1.04,1.361,1.703,1.376,1.726,1.412,1.785,.728,1.171,.817,2.474,.253,3.671-.098,.206-.21,.4-.338,.581,1.017,1.333,1.03,1.354,1.061,1.402,.773,1.249,.861,2.857,.229,4.197-.042,.089-.094,.169-.141,.254h1.062c.992,0,1.812-.479,2.251-1.314,.476-.906,.396-2.09-.194-2.947Z"/>
</svg>
