<?xml version="1.0" encoding="UTF-8"?>
<svg xmlns="http://www.w3.org/2000/svg" id="Layer_1" data-name="Layer 1" viewBox="0 0 24 24">
  <path d="m13,15h-2c-1.103,0-2-.897-2-2v-2c0-1.103.897-2,2-2h2c1.103,0,2,.897,2,2v2c0,1.103-.897,2-2,2Zm8,0h-2c-1.103,0-2-.897-2-2v-2c0-1.103.897-2,2-2h2c1.103,0,2,.897,2,2v2c0,1.103-.897,2-2,2Zm-16,0h-2c-1.103,0-2-.897-2-2v-2c0-1.103.897-2,2-2h2c1.103,0,2,.897,2,2v2c0,1.103-.897,2-2,2Zm3,8c0-.552-.448-1-1-1h-2c-1.654,0-3-1.346-3-3v-2c0-.552-.448-1-1-1s-1,.448-1,1v2c0,2.757,2.243,5,5,5h2c.552,0,1-.448,1-1Zm16-4v-2c0-.552-.448-1-1-1s-1,.448-1,1v2c0,1.654-1.346,3-3,3h-2c-.552,0-1,.448-1,1s.448,1,1,1h2c2.757,0,5-2.243,5-5Zm0-12v-2c0-2.757-2.243-5-5-5h-2c-.552,0-1,.448-1,1s.448,1,1,1h2c1.654,0,3,1.346,3,3v2c0,.552.448,1,1,1s1-.448,1-1Zm-22,0v-2c0-1.654,1.346-3,3-3h2c.552,0,1-.448,1-1s-.448-1-1-1h-2C2.243,0,0,2.243,0,5v2c0,.552.448,1,1,1s1-.448,1-1Z"/>
</svg>
