<?xml version="1.0" encoding="UTF-8"?>
<svg xmlns="http://www.w3.org/2000/svg" id="Layer_1" data-name="Layer 1" viewBox="0 0 24 24">
  <path d="M21.781,14.673c1.269,.834,1.594,2.54,.753,3.805-2.274,3.42-6.316,5.601-10.534,5.585-4.218,.016-8.25-2.348-10.524-5.768-.841-1.265-.516-2.97,.753-3.804l5.771-3.49h8l5.781,3.673Zm-13.781-5.673h8l.738-2.212c.174-.782,.262-1.585,.262-2.386V1c0-.552-.448-1-1-1h0c-.552,0-1,.448-1,1v1.1c-1.33,.247-2.353,.935-3,1.511-.647-.576-1.67-1.264-3-1.511V1c0-.552-.448-1-1-1h0c-.552,0-1,.448-1,1v3.402c0,.801,.088,1.604,.262,2.386l.738,2.212Z"/>
</svg>
