<?xml version="1.0" encoding="UTF-8"?>
<svg xmlns="http://www.w3.org/2000/svg" id="Layer_1" data-name="Layer 1" viewBox="0 0 24 24">
  <path d="m14,5H1.09C1.569,2.167,4.033,0,7,0c2.215,0,4.149,1.21,5.188,3h1.812c.553,0,1,.447,1,1s-.447,1-1,1Zm-7,7c2.967,0,5.431-2.167,5.91-5H1.09c.478,2.833,2.942,5,5.91,5ZM23.565,3.364l-3.565,1.885v4.95c0,.77-.296,1.51-.827,2.067l-5.726,6.01c.355.837.553,1.757.553,2.722v1c0,1.105-.895,2-2,2H2c-1.105,0-2-.895-2-2v-1c0-3.866,3.134-7,7-7h5.277c.234,0,.46-.082.639-.231l4.724-3.938c.228-.19.36-.472.36-.77V1c0-.534.422-.994.955-1,.616-.007,1.226.121,1.796.377l2.813,1.259c.581.399.581,1.329,0,1.729Z"/>
</svg>
