<?xml version="1.0" encoding="UTF-8"?>
<svg xmlns="http://www.w3.org/2000/svg" id="Layer_1" data-name="Layer 1" viewBox="0 0 24 24">
  <path d="m11.891,14.649l-3.98,8.765c-.159.351-.524.579-.91.586-.378,0-.725-.214-.895-.553l-1.379-2.759-3.019,3.019c-.195.195-.451.293-.707.293s-.512-.098-.707-.293c-.391-.391-.391-1.023,0-1.414l3.019-3.019-2.759-1.379c-.345-.173-.56-.527-.553-.913s.235-.732.586-.892c0,0,8.734-3.97,8.765-3.98.728-.246,1.519-.066,2.062.479.545.544.728,1.334.479,2.062Zm12.109-2.649c0,6.617-5.382,11.999-11.999,12,0,0,0,0,0,0,0,0,0,0,0,0,0,0,0,0,0,0-.367,0-.73-.017-1.089-.049-.55-.049-.956-.534-.907-1.085.049-.549.524-.956,1.085-.907.173.015.35.017.526.024.669-.665,2.395-2.518,3.607-4.983h-.722c-.553,0-1-.447-1-1s.447-1,1-1h1.528c.292-.953.472-1.961.472-3s-.182-2.048-.473-3H7.977c-.119.388-.225.782-.302,1.187-.103.542-.63.896-1.169.796-.543-.104-.899-.627-.796-1.169.052-.276.119-.545.188-.813h-3.399c-.013,0-.023-.007-.036-.007-.3.95-.464,1.96-.464,3.007,0,.307.015.611.041.911.049.551-.357,1.036-.907,1.085-.559.057-1.036-.357-1.085-.907-.032-.358-.049-.722-.049-1.089C0,5.383,5.383,0,12,0s12,5.383,12,12ZM9.394,2.357c-2.572.696-4.732,2.389-6.041,4.643h3.22c.789-1.881,1.88-3.475,2.821-4.643Zm5.834,4.643c-1.021-2.079-2.412-3.725-3.227-4.589-.813.863-2.195,2.516-3.216,4.589h6.442Zm2.194,0h3.225c-1.308-2.253-3.466-3.945-6.035-4.642.94,1.167,2.024,2.767,2.811,4.642Zm3.225,10h-3.225c-.787,1.875-1.87,3.475-2.811,4.642,2.569-.697,4.727-2.39,6.035-4.642Zm.889-1.993c.3-.95.464-1.96.464-3.007s-.164-2.057-.464-3.007c-.013,0-.023.007-.036.007h-3.403c.246.956.403,1.958.403,3s-.157,2.044-.403,3h3.403c.013,0,.023.007.036.007Z"/>
</svg>
