<?xml version="1.0" encoding="UTF-8"?>
<svg xmlns="http://www.w3.org/2000/svg" id="Layer_1" data-name="Layer 1" viewBox="0 0 24 24">
  <path d="m20.5,15.121v-6.357c.392-.142.762-.361,1.076-.675l1.564-1.564c1.145-1.145,1.145-3.008,0-4.152l-1.564-1.564c-1.145-1.144-3.006-1.145-4.152,0h0s-1.563,1.565-1.563,1.565c-.314.314-.533.684-.675,1.076h-6.322C8.387,1.475,6.618,0,4.5,0,2.019,0,0,2.018,0,4.5c0,1.953,1.258,3.602,3,4.224v7.277h-.2c-1.544,0-2.8,1.256-2.8,2.8v2.399c0,1.544,1.256,2.801,2.8,2.801h2.4c1.544,0,2.8-1.257,2.8-2.801v-2.399c0-1.544-1.256-2.8-2.8-2.8h-.2v-7.051c1.927-.217,3.492-1.635,3.895-3.501h6.29c.142.392.361.762.675,1.076l1.563,1.564c.314.313.684.533,1.076.674v6.358c-2,.457-3.5,2.242-3.5,4.379,0,2.481,2.019,4.5,4.5,4.5s4.5-2.019,4.5-4.5c0-2.137-1.5-3.922-3.5-4.379Z"/>
</svg>
