<?xml version="1.0" encoding="UTF-8"?>
<svg xmlns="http://www.w3.org/2000/svg" id="Layer_1" data-name="Layer 1" viewBox="0 0 24 24">
  <path d="m15.988,11.726c.158,1.78-1.24,3.274-2.988,3.274h-3.978c-.691,0-1.181-.666-.975-1.325.502-1.609,1.936-4.165,4.24-4.608,1.755-.338,3.542.879,3.7,2.659Zm.034-3.662c.74.558,1.279,1.309,1.611,2.141l5.659-6.085c.943-.942.945-2.47.003-3.413-.941-.942-2.467-.943-3.409-.002-.032.032-5.573,6.513-5.573,6.513.609.175,1.191.456,1.708.846Zm.667,7.312c-.944,1.032-2.289,1.625-3.688,1.625h-3.978c-.958,0-1.868-.46-2.435-1.23s-.735-1.776-.45-2.69c.729-2.332,2.621-5.229,5.565-5.915l4.388-5.164H5C2.243,2,0,4.243,0,7v8c0,2.757,2.243,5,5,5h6v2h-3c-.552,0-1,.447-1,1s.448,1,1,1h8c.553,0,1-.447,1-1s-.447-1-1-1h-3v-2h6c2.757,0,5-2.243,5-5V6.285l-6.091,6.546c-.16.94-.568,1.83-1.22,2.543Z"/>
</svg>
