<?xml version="1.0" encoding="UTF-8"?>
<svg xmlns="http://www.w3.org/2000/svg" id="Layer_1" data-name="Layer 1" viewBox="0 0 24 24">
  <path d="m2.907,8.133L.322,5.732c-.405-.375-.428-1.008-.052-1.413.375-.404,1.007-.428,1.413-.052l2.317,2.152V1c0-.552.448-1,1-1s1,.448,1,1v5.421l2.317-2.153c.403-.376,1.037-.354,1.413.052.376.405.353,1.038-.052,1.413l-2.611,2.426c-.561.562-1.307.844-2.058.844-.759,0-1.522-.289-2.103-.869Zm20.821-3.813c-.376-.405-1.01-.428-1.413-.052l-2.317,2.153V1c0-.552-.448-1-1-1s-1,.448-1,1v5.42l-2.317-2.152c-.405-.376-1.037-.353-1.413.052-.376.405-.353,1.038.052,1.413l2.585,2.4c.58.581,1.344.869,2.103.869.75,0,1.497-.282,2.058-.843l2.611-2.426c.405-.376.428-1.008.052-1.413Zm-11.727,14.681c-.101,0-.348.029-.474.302l-2.542,4.698h6.034l-2.516-4.644c-.154-.327-.401-.356-.501-.356Zm3.781-9.69c-1.11-1.554-2.347-2.31-3.782-2.31-1.67,0-2.521.845-3.724,2.237-.026.03-5.85,8.65-5.873,8.698-.617,1.327-.516,2.856.271,4.09.789,1.236,2.135,1.975,3.603,1.975h.432l3.031-5.597c.391-.845,1.268-1.403,2.26-1.403s1.87.559,2.288,1.458l3.005,5.542h.432c1.468,0,2.814-.738,3.603-1.975.787-1.233.889-2.763.271-4.09-.022-.048-5.819-8.625-5.819-8.625Z"/>
</svg>
