<?xml version="1.0" encoding="UTF-8"?>
<svg xmlns="http://www.w3.org/2000/svg" id="Layer_1" data-name="Layer 1" viewBox="0 0 24 24">
  <path d="M5,23c-2.757,0-5-2.243-5-5s2.243-5,5-5,5,2.243,5,5-2.243,5-5,5ZM23,5H14c-.552,0-1,.448-1,1h0c0,.552,.448,1,1,1h9c.552,0,1-.448,1-1h0c0-.552-.448-1-1-1Zm0,12H14c-.552,0-1,.448-1,1h0c0,.552,.448,1,1,1h9c.552,0,1-.448,1-1h0c0-.552-.448-1-1-1ZM5,1C2.243,1,0,3.243,0,6s2.243,5,5,5,5-2.243,5-5S7.757,1,5,1Zm0,7c-1.105,0-2-.895-2-2s.895-2,2-2,2,.895,2,2-.895,2-2,2Z"/>
</svg>
