<?xml version="1.0" encoding="UTF-8"?>
<svg xmlns="http://www.w3.org/2000/svg" id="Layer_1" data-name="Layer 1" viewBox="0 0 24 24">
  <path d="m9,8.96c-2.206,0-4-1.742-4-3.884,0-1.163.73-2.59,2.171-4.242.923-1.061,2.735-1.062,3.659,0,1.44,1.651,2.17,3.078,2.17,4.241,0,2.142-1.794,3.884-4,3.884Zm14.152-.279c-.515-.469-1.186-.712-1.878-.678-.697.032-1.339.334-1.794.835l-3.541,3.737c.032.21.065.42.065.638,0,2.083-1.555,3.876-3.617,4.17l-4.252.596c-.547.078-1.053-.302-1.131-.848-.078-.547.302-1.053.848-1.131l4.162-.583c.936-.134,1.748-.806,1.94-1.732.296-1.425-.79-2.685-2.164-2.685h-7.787C1.794,11,.003,12.791.003,15v5C.003,22.209,1.794,24,4.003,24h4.262c2.805,0,5.48-1.178,7.374-3.246l7.702-8.409c.948-1.062.862-2.707-.189-3.665Z"/>
</svg>
