<?xml version="1.0" encoding="UTF-8"?>
<svg xmlns="http://www.w3.org/2000/svg" id="Layer_1" data-name="Layer 1" viewBox="0 0 24 24">
  <path d="M22,24h-7.997c-1.106,0-2.003-.897-2.003-2.003h0c0-1.104,.893-2,1.997-2.003l2.66,.006-7.062-6.602c-.859-.859-.773-2.305,.257-3.047,.808-.582,1.943-.411,2.647,.294l3.942,3.466,4.759-2.81c.69-.305,1.447-.352,2.144-.164,.392,.106,.654,.479,.654,.885v9.978c0,1.105-.895,2-2,2ZM17.951,3.088c-.978,2.742-1.903,4.852-3.275,6.807l-.815-.717c-1.417-1.369-3.63-1.565-5.177-.45-.961,.692-1.566,1.761-1.661,2.933-.094,1.172,.328,2.32,1.207,3.197l2.27,2.142c-.516,.518-1.376,1.034-2.115,1-1.41,0-2.385-1.143-2.385-2.553l-1.038-.995-.832,.833c-.39,.391-1.023,.391-1.414,0s-.391-1.023,0-1.414l.788-.788-1.139-1.082c-1.277,.067-2.369-.949-2.365-2.233,.273-2.617,4.297-4.364,6.046-4.718C8.632,2.609,10.945,1.488,14.625,.173c1.005-.356,2.014-.19,2.701,.451,.654,.61,.888,1.532,.625,2.464Zm-3.451,1.912c0-.828-.672-1.5-1.5-1.5s-1.5,.672-1.5,1.5,.672,1.5,1.5,1.5,1.5-.672,1.5-1.5Z"/>
</svg>
