<?xml version="1.0" encoding="UTF-8"?>
<svg xmlns="http://www.w3.org/2000/svg" id="Layer_1" data-name="Layer 1" viewBox="0 0 24 24">
  <path d="m16.044,4.269c-.148-.442.091-.92.533-1.068l1.905-.718.717-1.906c.084-.251.281-.449.533-.533.442-.148.92.091,1.068.533l.725,1.924,1.899.7c.442.148.68.626.533,1.068-.084.251-.281.449-.533.533l-1.918.706-.707,1.916c-.148.442-.626.681-1.068.533-.251-.084-.449-.281-.533-.533l-.699-1.898-1.923-.724c-.251-.084-.448-.281-.533-.533Zm-4.895,6.024c.188.307.517.476.853.476.179,0,.359-.048.523-.148l4-2.461c.47-.29.616-.905.327-1.375-.289-.471-.904-.619-1.376-.328l-4,2.461c-.47.29-.616.905-.327,1.375Zm-6.648-5.293c1.381,0,2.5-1.119,2.5-2.5S5.881,0,4.5,0s-2.5,1.119-2.5,2.5,1.119,2.5,2.5,2.5Zm18.5,15h-11v-3c0-1.103-.897-2-2-2h-2v-6.84l6.524-4.001c.47-.29.616-.905.327-1.375-.289-.471-.905-.618-1.376-.328l-5.759,3.544H3.5c-1.93,0-3.5,1.57-3.5,3.5v4c0,1.391.822,2.585,2,3.149v6.351c0,.552.447,1,1,1s1-.448,1-1v-6h6v3.184c-1.161.414-2,1.514-2,2.816,0,.552.447,1,1,1h14c.553,0,1-.448,1-1v-2c0-.552-.447-1-1-1Z"/>
</svg>
