<?xml version="1.0" encoding="UTF-8"?>
<svg xmlns="http://www.w3.org/2000/svg" id="Layer_1" data-name="Layer 1" viewBox="0 0 24 24">
  <path d="m18.76,5.259l-13.456,13.5c-.996.999-.805,2.665.388,3.417,1.884,1.189,4.067,1.824,6.348,1.824,3.194,0,6.198-1.248,8.457-3.516,3.999-4.016,4.565-10.194,1.698-14.822-.749-1.21-2.43-1.412-3.435-.404Zm-6.467,13.449h0c-.39-.39-.39-1.024,0-1.414l5-5c.39-.39,1.024-.39,1.414,0h0c.39.39.39,1.024,0,1.414l-5,5c-.39.39-1.024.39-1.414,0Zm-2.743-7.207c-.874-1.387-.708-3.241.5-4.449s3.054-1.373,4.44-.506l-4.939,4.955Zm-5.466,2c.255.551.943,1.242,1.592,2.052l-2.572,2.58c-.325.326-.848.352-1.203.059-.208-.172-.405-.348-.586-.531-1.589-1.597-1.737-4.099-.446-5.864-.578-1.436-.264-3.125.859-4.253.227-.227.479-.423.756-.587.013-1.173.477-2.309,1.31-3.144.831-.835,1.963-1.302,3.133-1.315.163-.277.357-.531.583-.757,1.129-1.132,2.818-1.448,4.251-.863.785-.579,1.696-.876,2.653-.876h0c1.203,0,2.335.471,3.185,1.325.183.184.36.382.533.593.29.354.264.874-.059,1.198l-2.108,2.114c-1.207-.981-2.838-1.462-4.576-1.122-2.109.412-3.827,2.103-4.267,4.207-.274,1.309-.08,2.56.443,3.618-1.055-.025-2.264.193-2.913.352-.534.13-.798.716-.567,1.215Z"/>
</svg>
