<?xml version="1.0" encoding="UTF-8"?>
<svg xmlns="http://www.w3.org/2000/svg" id="Layer_1" data-name="Layer 1" viewBox="0 0 24 24">
  <path d="M11.693,15.995c-.879,0-1.76-.325-2.436-.979l-3.993-3.86c-.396-.384-.407-1.017-.023-1.414,.384-.396,1.017-.407,1.414-.023l3.993,3.86c.586,.565,1.527,.556,2.103-.019L22.304,4.282c.396-.385,1.029-.375,1.414,.021,.385,.396,.375,1.029-.021,1.414L14.154,14.985c-.671,.672-1.565,1.01-2.461,1.01ZM13.088,.049c-.358-.032-.721-.049-1.088-.049s-.729,.017-1.088,.049c-.55,.049-.956,.534-.907,1.085,.046,.52,.482,.911,.995,.911,.029,0,.693-.045,1-.045s.971,.045,1,.045c.513,0,.949-.392,.995-.911,.049-.551-.357-1.036-.907-1.085ZM3.824,17.76c.319,.451,.212,1.075-.239,1.394-.175,.124-.377,.184-.576,.184-.313,0-.623-.147-.817-.423-.404-.571-.758-1.179-1.052-1.806-.234-.5-.02-1.096,.48-1.33,.503-.235,1.097-.019,1.33,.48,.244,.521,.538,1.025,.874,1.501Zm.997-14.155c-.319-.45-.214-1.075,.236-1.395,.567-.402,1.173-.758,1.801-1.056,.499-.235,1.096-.023,1.332,.475,.237,.499,.024,1.096-.475,1.332-.522,.248-1.027,.544-1.5,.88-.176,.125-.378,.185-.578,.185-.313,0-.621-.146-.816-.421ZM1.098,6.981c.29-.631,.639-1.241,1.036-1.813,.313-.453,.938-.567,1.392-.251,.453,.314,.566,.938,.251,1.392-.33,.477-.62,.984-.862,1.509-.169,.366-.53,.582-.909,.582-.14,0-.282-.029-.417-.092-.502-.231-.722-.825-.49-1.326Zm.039,7.019c-.031,.003-.062,.004-.093,.004-.512,0-.947-.39-.995-.908-.033-.361-.05-.728-.049-1.099,0-.332,.014-.664,.042-.992,.047-.55,.542-.968,1.08-.912,.551,.046,.959,.53,.912,1.08-.022,.273-.034,.549-.034,.827,0,.31,.014,.613,.041,.912,.05,.551-.354,1.037-.904,1.088Zm7.142,8.402c-.169,.365-.53,.579-.908,.579-.141,0-.283-.029-.42-.093-.628-.291-1.237-.642-1.81-1.041-.453-.315-.564-.938-.249-1.392,.315-.454,.938-.564,1.392-.249,.479,.333,.986,.625,1.509,.867,.501,.232,.719,.827,.486,1.328Zm14.596-5.321c-.294,.63-.646,1.237-1.046,1.807-.194,.277-.504,.426-.819,.426-.198,0-.398-.059-.573-.182-.452-.317-.562-.94-.244-1.393,.333-.475,.626-.981,.872-1.506,.233-.5,.829-.717,1.329-.481,.5,.233,.716,.829,.481,1.329Zm1.126-5.078c0,.354-.016,.707-.046,1.056-.044,.521-.481,.915-.995,.915-.028,0-.057,0-.086-.004-.551-.047-.958-.531-.911-1.081,.024-.292,.038-.589,.038-.889,0-.291-.012-.575-.035-.855-.047-.551,.361-1.034,.911-1.081,.561-.059,1.034,.36,1.081,.911,.029,.339,.044,.682,.043,1.028Zm-4.871,8.434c.317,.452,.208,1.075-.244,1.393-.569,.399-1.177,.752-1.807,1.046-.137,.064-.281,.095-.423,.095-.376,0-.736-.213-.906-.576-.234-.5-.019-1.096,.481-1.329,.524-.246,1.031-.539,1.506-.872,.453-.319,1.076-.208,1.393,.244Zm-5.161,2.434c.049,.55-.357,1.035-.908,1.084-.339,.03-.683,.046-1.028,.046-.388-.007-.707-.014-1.055-.042-.55-.046-.96-.528-.915-1.079,.045-.55,.522-.951,1.079-.915,.292,.024,.581,.029,.888,.036,.29,0,.574-.014,.855-.038,.547-.051,1.035,.358,1.084,.908ZM18.915,2.192c.451,.318,.559,.942,.239,1.394-.194,.275-.504,.423-.817,.423-.199,0-.4-.06-.576-.184-.475-.335-.979-.63-1.502-.875-.5-.235-.714-.831-.479-1.331,.235-.5,.831-.714,1.331-.479,.628,.296,1.235,.649,1.805,1.053Z"/>
</svg>
