<?xml version="1.0" encoding="UTF-8"?>
<svg xmlns="http://www.w3.org/2000/svg" id="Layer_1" data-name="Layer 1" viewBox="0 0 24 24">
  <path d="m22.5,10h-.5v-1c0-2.757-2.243-5-5-5h-4v-2c0-.553-.448-1-1-1s-1,.447-1,1v2h-4c-2.757,0-5,2.243-5,5v1h-.5c-.827,0-1.5.673-1.5,1.5v3c0,.827.673,1.5,1.5,1.5h.5v1c0,2.757,2.243,5,5,5h10c2.757,0,5-2.243,5-5v-1h.5c.827,0,1.5-.673,1.5-1.5v-3c0-.827-.673-1.5-1.5-1.5Zm-15.5,8h-1c-.552,0-1-.447-1-1s.448-1,1-1h1c.552,0,1,.447,1,1s-.448,1-1,1Zm.5-6c-.828,0-1.5-.672-1.5-1.5s.672-1.5,1.5-1.5,1.5.672,1.5,1.5-.672,1.5-1.5,1.5Zm5.5,6h-2c-.552,0-1-.447-1-1s.448-1,1-1h2c.553,0,1,.447,1,1s-.447,1-1,1Zm2-7.5c0-.828.672-1.5,1.5-1.5s1.5.672,1.5,1.5-.672,1.5-1.5,1.5-1.5-.672-1.5-1.5Zm3,7.5h-1c-.553,0-1-.447-1-1s.447-1,1-1h1c.553,0,1,.447,1,1s-.447,1-1,1Z"/>
</svg>
