<?xml version="1.0" encoding="UTF-8"?>
<svg xmlns="http://www.w3.org/2000/svg" id="Layer_1" data-name="Layer 1" viewBox="0 0 24 24">
  <path d="m14,16c0,1.103-.897,2-2,2s-2-.897-2-2,.897-2,2-2,2,.897,2,2Zm1-11.5c.254,0,.508-.096.703-.289l1.297-1.281v6.07c0,.552.448,1,1,1s1-.448,1-1V2.948l1.302,1.268c.396.386,1.029.377,1.414-.019.385-.396.377-1.029-.019-1.414l-2.228-2.168c-.819-.82-2.154-.819-2.968-.004l-2.205,2.177c-.393.388-.397,1.021-.009,1.414.196.198.454.297.711.297Zm9,8.5v6c0,2.757-2.243,5-5,5H5c-2.757,0-5-2.243-5-5v-6c0-2.757,2.243-5,5-5h10v1c0,1.654,1.346,3,3,3,.032,0,.063-.009.095-.01-.058.16-.095.33-.095.51,0,.828.672,1.5,1.5,1.5s1.5-.672,1.5-1.5c0-.612-.367-1.136-.892-1.369.55-.544.892-1.298.892-2.131v-.576c1.763.774,3,2.531,3,4.576Zm-18,6.5c0-.828-.672-1.5-1.5-1.5s-1.5.672-1.5,1.5.672,1.5,1.5,1.5,1.5-.672,1.5-1.5Zm0-7c0-.828-.672-1.5-1.5-1.5s-1.5.672-1.5,1.5.672,1.5,1.5,1.5,1.5-.672,1.5-1.5Zm10,3.5c0-2.206-1.794-4-4-4s-4,1.794-4,4,1.794,4,4,4,4-1.794,4-4Zm5,3.5c0-.828-.672-1.5-1.5-1.5s-1.5.672-1.5,1.5.672,1.5,1.5,1.5,1.5-.672,1.5-1.5Z"/>
</svg>
