<?xml version="1.0" encoding="UTF-8"?>
<svg xmlns="http://www.w3.org/2000/svg" id="Layer_1" data-name="Layer 1" viewBox="0 0 24 24">
  <path d="m12.731,24h-7.731c-2.757,0-5-2.243-5-5v-9.276c0-1.665.824-3.214,2.203-4.145L9.203.855c1.699-1.146,3.895-1.146,5.594,0l7.203,4.88c1.252.942,2,2.41,2,3.989v2.998c-1.467-1.667-3.61-2.726-6-2.726-4.411,0-8,3.589-8,8,0,2.392,1.061,4.537,2.731,6.004Zm5.269-12c-3.314,0-6,2.686-6,6s2.686,6,6,6,6-2.686,6-6-2.686-6-6-6Zm2.707,7.293c.391.391.391,1.023,0,1.414-.195.195-.451.293-.707.293s-.512-.098-.707-.293l-1.293-1.293-1.293,1.293c-.195.195-.451.293-.707.293s-.512-.098-.707-.293c-.391-.391-.391-1.023,0-1.414l1.293-1.293-1.293-1.293c-.391-.391-.391-1.023,0-1.414s1.023-.391,1.414,0l1.293,1.293,1.293-1.293c.391-.391,1.023-.391,1.414,0s.391,1.023,0,1.414l-1.293,1.293,1.293,1.293Z"/>
</svg>
