<?xml version="1.0" encoding="UTF-8"?>
<svg xmlns="http://www.w3.org/2000/svg" id="Layer_1" data-name="Layer 1" viewBox="0 0 24 24">
  <path d="m8.5,11h-2c-1.378,0-2.5-1.122-2.5-2.5v-2c0-1.378,1.122-2.5,2.5-2.5h2c1.378,0,2.5,1.122,2.5,2.5v2c0,1.378-1.122,2.5-2.5,2.5Zm9,0h-2c-1.378,0-2.5-1.122-2.5-2.5v-2c0-1.378,1.122-2.5,2.5-2.5h2c1.378,0,2.5,1.122,2.5,2.5v2c0,1.378-1.122,2.5-2.5,2.5Zm-9,9h-2c-1.378,0-2.5-1.122-2.5-2.5v-2c0-1.378,1.122-2.5,2.5-2.5h2c1.378,0,2.5,1.122,2.5,2.5v2c0,1.378-1.122,2.5-2.5,2.5Zm-.5,3c0-.552-.448-1-1-1h-2c-1.654,0-3-1.346-3-3v-2c0-.552-.448-1-1-1s-1,.448-1,1v2c0,2.757,2.243,5,5,5h2c.552,0,1-.448,1-1Zm16-4v-2c0-.552-.448-1-1-1s-1,.448-1,1v2c0,1.654-1.346,3-3,3h-2c-.552,0-1,.448-1,1s.448,1,1,1h2c2.757,0,5-2.243,5-5Zm0-12v-2c0-2.757-2.243-5-5-5h-2c-.552,0-1,.448-1,1s.448,1,1,1h2c1.654,0,3,1.346,3,3v2c0,.552.448,1,1,1s1-.448,1-1Zm-22,0v-2c0-1.654,1.346-3,3-3h2c.552,0,1-.448,1-1s-.448-1-1-1h-2C2.243,0,0,2.243,0,5v2c0,.552.448,1,1,1s1-.448,1-1Zm12.5,10c-.828,0-1.5.672-1.5,1.5s.672,1.5,1.5,1.5,1.5-.672,1.5-1.5-.672-1.5-1.5-1.5Zm4-4c-.828,0-1.5.672-1.5,1.5s.672,1.5,1.5,1.5,1.5-.672,1.5-1.5-.672-1.5-1.5-1.5Zm-4,0c-.828,0-1.5.672-1.5,1.5s.672,1.5,1.5,1.5,1.5-.672,1.5-1.5-.672-1.5-1.5-1.5Z"/>
</svg>
