<?xml version="1.0" encoding="UTF-8"?>
<svg xmlns="http://www.w3.org/2000/svg" id="Layer_1" data-name="Layer 1" viewBox="0 0 24 24">
  <path d="m21,7H0C0,4.243,2.243,2,5,2v-1c0-.552.448-1,1-1s1,.448,1,1v1h7v-1c0-.552.447-1,1-1s1,.448,1,1v1c2.757,0,5,2.243,5,5Zm-.162,11.82l-5.829-2.292v-5.462c0-.996-.681-1.92-1.664-2.08-1.253-.204-2.336.758-2.336,1.973v9.924c-1.076-.886-2.111-1.752-2.145-1.784-.922-.861-2.373-.813-3.235.109-.863.923-.819,2.372.098,3.23l1.821,1.628h16.462v-.593c0-2.055-1.258-3.901-3.171-4.653Zm-11.83-1.982v-5.878c0-.7.201-1.366.538-1.96H0v6c0,2.114,1.324,3.916,3.183,4.646.177-.653.492-1.276.985-1.803,1.269-1.359,3.224-1.707,4.841-1.005Zm11.699-.218c.177-.511.293-1.05.293-1.62v-6h-4.54c.349.613.549,1.322.549,2.067v4.099l3.699,1.454Z"/>
</svg>
