<?xml version="1.0" encoding="UTF-8"?>
<svg xmlns="http://www.w3.org/2000/svg" id="Layer_1" data-name="Layer 1" viewBox="0 0 24 24">
  <path d="m23.779,2.627c-.144.179-3.617,4.373-11.779,4.373S.365,2.806.221,2.627c-.346-.43-.279-1.06.151-1.406.43-.345,1.056-.279,1.403.148.094.114,1.542,1.807,4.786,2.841.694-2.213,1.914-4.21,3.009-4.21,1.142,0,1.717.481,2.098.8.24.2.255.2.332.2s.092,0,.332-.2c.381-.318.956-.8,2.098-.8,1.094,0,2.315,1.996,3.01,4.209,3.253-1.037,4.701-2.738,4.785-2.841.351-.425.979-.489,1.405-.141.426.348.494.972.149,1.399Zm-11.779,11.373c3.235,0,5.872-2.574,5.989-5.781-1.676.469-3.662.781-5.989.781s-4.31-.314-5.989-.783c.115,3.208,2.754,5.783,5.989,5.783Zm0,2c-3.987,0-7.422,2.947-7.99,6.856-.042.287.043.578.233.798s.466.346.756.346h14c.291,0,.566-.126.756-.346s.275-.511.233-.798c-.567-3.909-4.002-6.856-7.99-6.856Z"/>
</svg>
