<?xml version="1.0" encoding="UTF-8"?>
<svg xmlns="http://www.w3.org/2000/svg" id="Layer_1" data-name="Layer 1" viewBox="0 0 24 24">
  <path d="m7.617,20.335c-4.59,2.445-6.349.695-3.928-3.908,2.421-4.603,8.104-10.317,12.694-12.761,4.59-2.445,6.349-.695,3.928,3.908-2.421,4.603-8.104,10.316-12.694,12.761ZM1.918,15.496C4.537,10.517,10.478,4.545,15.442,1.9c.91-.485,1.714-.811,2.43-1.023C13.559-.959,8.011.164,4.087,4.087.144,8.031-.972,13.619.906,17.941c.208-.72.531-1.528,1.013-2.445ZM23.098,6.05c-.207.722-.531,1.534-1.016,2.454-2.619,4.979-8.56,10.951-13.524,13.595-.909.484-1.715.815-2.431,1.026,1.345.573,2.806.866,4.306.866,3.308,0,6.78-1.38,9.479-4.08,2.391-2.39,3.831-5.453,4.058-8.624.134-1.877-.178-3.655-.872-5.239Z"/>
</svg>
