<?xml version="1.0" encoding="UTF-8"?>
<svg xmlns="http://www.w3.org/2000/svg" id="Layer_1" data-name="Layer 1" viewBox="0 0 24 24">
  <path d="M1,9.5c0-1.381,1.119-2.5,2.5-2.5s2.5,1.119,2.5,2.5-1.119,2.5-2.5,2.5-2.5-1.119-2.5-2.5Zm14,10.5h-6c-1.103,0-2,.897-2,2v1c0,.552,.447,1,1,1h8c.553,0,1-.448,1-1v-1c0-1.103-.897-2-2-2Zm5.5-8c1.381,0,2.5-1.119,2.5-2.5s-1.119-2.5-2.5-2.5-2.5,1.119-2.5,2.5,1.119,2.5,2.5,2.5Zm1.412,1.034c-.723-.121-1.471,.085-2.031,.562-.02,.017-3.026,2.405-3.026,2.405h-2.854c-.553,0-1,.448-1,1s.447,1,1,1h3.205c.227,0,.447-.077,.624-.219l1.171-.935v5.154c0,1.103,.897,2,2,2h1c1.103,0,2-.897,2-2v-6.42c0-1.258-.897-2.353-2.088-2.546Zm-10.912,3.966c0-.552-.447-1-1-1h-2.854s-3.006-2.387-3.026-2.405c-.561-.477-1.309-.682-2.031-.562-1.19,.194-2.088,1.289-2.088,2.546v6.42c0,1.103,.897,2,2,2h1c1.103,0,2-.897,2-2v-5.154l1.171,.935c.177,.142,.397,.219,.624,.219h3.205c.553,0,1-.448,1-1Zm1-14c.553,0,1-.448,1-1V1c0-.552-.447-1-1-1s-1,.448-1,1v1c0,.552,.447,1,1,1Zm4,1c.256,0,.512-.098,.707-.293l.7-.7c.391-.391,.391-1.023,0-1.414s-1.023-.391-1.414,0l-.7,.7c-.391,.391-.391,1.023,0,1.414,.195,.195,.451,.293,.707,.293Zm-8.707-.293c.391,.391,1.023,.391,1.414,0s.391-1.023,0-1.414l-.7-.7c-.391-.391-1.023-.391-1.414,0s-.391,1.023,0,1.414l.7,.7Zm2.078,7.293h5.254c.859-.75,1.376-1.841,1.376-3,0-1.187-.521-2.304-1.432-3.066-.91-.764-2.115-1.079-3.293-.87h0c-1.643,.292-2.97,1.649-3.227,3.303-.213,1.382,.3,2.742,1.322,3.633Zm2.129,4h1c.553,0,1-.448,1-1v-1h-3v1c0,.552,.447,1,1,1Z"/>
</svg>
