<?xml version="1.0" encoding="UTF-8"?>
<svg xmlns="http://www.w3.org/2000/svg" id="Layer_1" data-name="Layer 1" viewBox="0 0 24 24">
  <path d="m12,0C5.383,0,0,5.383,0,12s5.383,12,12,12,12-5.383,12-12S18.617,0,12,0Zm8.658,7h-3.23c-.792-1.887-1.89-3.489-2.833-4.658,2.581.694,4.752,2.397,6.063,4.658Zm-11.888,10h6.46c-1.02,2.076-2.415,3.723-3.23,4.588-.815-.865-2.21-2.512-3.23-4.588Zm6.46-10h-6.46c1.02-2.076,2.415-3.723,3.23-4.588.815.865,2.21,2.512,3.23,4.588Zm-.727,3.087l-.314,3.659c-.031.44-.337.779-.706.779-.244,0-.471-.151-.601-.4l-.831-1.6-.831,1.6c-.129.249-.356.4-.601.4-.368,0-.675-.339-.706-.779l-.314-3.659c-.026-.302.212-.562.515-.562.27,0,.494.208.516.477l.212,2.681.75-1.443c.193-.372.725-.372.918,0l.75,1.443.21-2.681c.021-.269.246-.477.516-.477h.002c.303,0,.541.26.515.562Zm-8.044,1.153l.75,1.443.21-2.681c.021-.269.246-.477.516-.477h.002c.303,0,.541.26.515.562l-.314,3.659c-.031.44-.337.779-.706.779-.244,0-.471-.151-.601-.4l-.831-1.6-.831,1.6c-.129.249-.356.4-.601.4-.368,0-.675-.339-.706-.779l-.314-3.659c-.026-.302.212-.562.515-.562.27,0,.494.208.516.477l.212,2.681.75-1.443c.193-.372.725-.372.918,0Zm10.71,2.885c-.129.249-.356.4-.601.4-.368,0-.675-.339-.706-.779l-.314-3.659c-.026-.302.212-.562.515-.562.27,0,.494.208.516.477l.212,2.681.75-1.443c.193-.372.725-.372.918,0l.75,1.443.21-2.681c.021-.269.246-.477.516-.477h.002c.303,0,.541.26.515.562l-.314,3.659c-.031.44-.337.779-.706.779-.244,0-.471-.151-.601-.4l-.831-1.6-.831,1.6ZM9.406,2.342c-.943,1.169-2.041,2.772-2.833,4.658h-3.23c1.311-2.261,3.483-3.964,6.063-4.658Zm-6.063,14.658h3.23c.792,1.887,1.89,3.489,2.833,4.658-2.581-.694-4.752-2.397-6.063-4.658Zm11.252,4.658c.943-1.169,2.041-2.772,2.833-4.658h3.23c-1.311,2.261-3.483,3.964-6.063,4.658Z"/>
</svg>
