<?xml version="1.0" encoding="UTF-8"?>
<svg xmlns="http://www.w3.org/2000/svg" id="Layer_1" data-name="Layer 1" viewBox="0 0 24 24">
  <path d="M23.341,13.345l-6.785,7.409c-1.894,2.068-4.57,3.246-7.374,3.246H4.003C1.794,24,.003,22.209,.003,20v-4C.003,13.791,1.794,12,4.003,12h7.787c1.374,0,2.46,1.26,2.164,2.685-.193,.926-1.004,1.598-1.94,1.732l-4.162,.583c-.547,.078-.927,.585-.848,1.131,.078,.547,.585,.926,1.131,.848l4.252-.596c2.062-.294,3.617-2.087,3.617-4.17,0-.219-.032-.429-.065-.638l3.541-3.737c.455-.5,1.097-.803,1.794-.835,.692-.034,1.363,.209,1.878,.678,1.052,.958,1.138,2.602,.189,3.665ZM5.25,9c.712,0,1.341-.334,1.75-.851v.851c0,.553,.447,1,1,1s1-.447,1-1v-2h3.5c1.381,0,2.5-1.119,2.5-2.5,0-1.195-.84-2.191-1.96-2.438-.453-.641-1.196-1.062-2.04-1.062-.255,0-.497,.049-.729,.121-.362-.664-1.058-1.121-1.867-1.121-.767,0-1.434,.408-1.811,1.016-1.444,.083-2.593,1.269-2.593,2.734,0,.362,.074,.705,.201,1.021-.711,.378-1.201,1.118-1.201,1.979,0,1.243,1.007,2.25,2.25,2.25Z"/>
</svg>
