<?xml version="1.0" encoding="UTF-8"?>
<svg xmlns="http://www.w3.org/2000/svg" id="Layer_1" data-name="Layer 1" viewBox="0 0 24 24">
  <path d="m14.125,12.883c.564.566.875,1.317.875,2.117s-.313,1.555-.88,2.121c-1.13,1.135-3.107,1.133-4.241,0-.566-.566-.879-1.319-.879-2.121s.312-1.555.868-2.11l1.788-1.735c.097-.095.223-.142.348-.142s.25.048.347.142l1.774,1.729Zm5.653,7.896c-2.078,2.077-4.841,3.222-7.778,3.222s-5.7-1.145-7.778-3.222C-.067,16.489-.067,9.511,4.222,5.222l3.992-3.688c1.003-.981,2.354-1.533,3.786-1.533s2.783.552,3.807,1.553l3.943,3.642c4.317,4.316,4.317,11.295.028,15.584Zm-2.778-5.778c0-1.336-.521-2.592-1.465-3.535l-.009-.009-1.78-1.734c-.975-.948-2.505-.95-3.483-.002l-1.798,1.745c-.944.943-1.465,2.199-1.465,3.535s.521,2.592,1.465,3.535c.944.944,2.2,1.465,3.535,1.465s2.592-.521,3.535-1.465c.944-.943,1.465-2.199,1.465-3.535Z"/>
</svg>
