<?xml version="1.0" encoding="UTF-8"?>
<svg xmlns="http://www.w3.org/2000/svg" id="Layer_1" data-name="Layer 1" viewBox="0 0 24 24">
  <path d="M15.535,1.464c-.945-.944-2.2-1.464-3.535-1.464s-2.592,.52-3.535,1.464c-.944,.944-1.465,2.2-1.465,3.536s.523,2.595,1.48,3.551l1.856,1.815c.459,.449,1.061,.674,1.664,.674s1.205-.225,1.663-.673l1.872-1.831c.944-.944,1.465-2.2,1.465-3.536s-.521-2.592-1.465-3.536Zm-3.535,5.036c-.828,0-1.5-.672-1.5-1.5s.672-1.5,1.5-1.5,1.5,.672,1.5,1.5-.672,1.5-1.5,1.5Zm11-.5c-.553,0-1,.448-1,1h-3.29c-.327,1.103-.924,2.114-1.76,2.95l-1.888,1.847c-.06,.059-.131,.101-.194,.156l3.461,3.461c.372,.373,.888,.586,1.414,.586h1.258c.553,0,1,.448,1,1s-.447,1-1,1h-1.258c-1.054,0-2.084-.427-2.828-1.172l-3.914-3.914c-.325,.075-.657,.126-1,.126-1.155,0-2.243-.442-3.063-1.245l-1.855-1.814c-.854-.852-1.459-1.873-1.79-2.981H2c0-.552-.448-1-1-1s-1,.448-1,1V23c0,.552,.448,1,1,1s1-.448,1-1H22c0,.552,.447,1,1,1s1-.448,1-1V7c0-.552-.447-1-1-1Zm-13,14c0,.552-.448,1-1,1s-1-.448-1-1v-.757c0-.534-.208-1.037-.586-1.415l-2.242-2.242c-.378-.378-.88-.586-1.415-.586h-.757c-.552,0-1-.448-1-1s.448-1,1-1h.757c1.068,0,2.073,.416,2.829,1.172l2.242,2.242c.756,.755,1.172,1.76,1.172,2.829v.757Z"/>
</svg>
