<?xml version="1.0" encoding="UTF-8"?>
<svg xmlns="http://www.w3.org/2000/svg" id="Layer_1" data-name="Layer 1" viewBox="0 0 24 24">
  <path d="M21,7c0-.552,.448-1,1-1h1c.552,0,1,.448,1,1s-.448,1-1,1h-1c-.552,0-1-.448-1-1Zm3,6v8c0,1.654-1.346,3-3,3H5c-2.757,0-5-2.243-5-5V11c0-1.816,.988-3.494,2.578-4.375,.482-.269,1.092-.094,1.359,.39,.268,.483,.093,1.091-.39,1.359-.299,.166-.562,.378-.783,.625,.564,.627,1.376,1,2.236,1h1V5.021c0-1.072,.572-2.062,1.5-2.598L11,.402c.928-.536,2.072-.536,3,0l3.5,2.021c.928,.536,1.5,1.526,1.5,2.598v4.979h2c1.654,0,3,1.346,3,3ZM10.5,5.5c0-.276-.224-.5-.5-.5s-.5,.224-.5,.5v2.275l-1.366-2.464c-.107-.192-.309-.311-.529-.311-.334,0-.605,.271-.605,.605v3.895c0,.276,.224,.5,.5,.5s.5-.224,.5-.5v-2.368l1.427,2.573c.101,.182,.293,.295,.501,.295,.316,0,.573-.256,.573-.573v-3.927Zm2,1.507v-1.007h1c.276,0,.5-.224,.5-.5s-.224-.5-.5-.5h-1.5c-.276,0-.5,.224-.5,.5v4c0,.276,.224,.5,.5,.5s.5-.224,.5-.5v-1.493l.999,.003c.276,0,.501-.222,.501-.499,0-.276-.222-.501-.499-.501l-1.001-.003Zm3-.996h.5v3.489c0,.276,.224,.5,.5,.5s.5-.224,.5-.5v-3.489h.5c.276,0,.5-.224,.5-.5s-.224-.5-.5-.5h-2c-.276,0-.5,.224-.5,.5s.224,.5,.5,.5Zm3.5,10.989c0-.828-.672-1.5-1.5-1.5s-1.5,.672-1.5,1.5,.672,1.5,1.5,1.5,1.5-.672,1.5-1.5Z"/>
</svg>
