<?xml version="1.0" encoding="UTF-8"?>
<svg xmlns="http://www.w3.org/2000/svg" id="Layer_1" data-name="Layer 1" viewBox="0 0 24 24">
  <path d="M23.987,7.959c-.114,1.125-.61,4.848-2.316,6.554-1.579,1.568-3.97,1.919-5.922,.911-.027-.014-.138-.096-.277-.202,.186-.354,.409-.689,.7-.98l3.535-3.536c.391-.391,.391-1.024,0-1.414-.391-.391-1.023-.391-1.414,0l-3.535,3.535c-.296,.296-.556,.619-.78,.961-.19-.245-.373-.485-.394-.527-1.022-1.974-.66-4.356,.901-5.93,1.698-1.694,5.438-2.203,6.543-2.318h.003c.802-.085,1.598,.199,2.175,.773,.576,.574,.861,1.365,.782,2.171Zm-10.01,5.83c-.635,.967-.977,2.098-.977,3.282v1.929c0,1.654-1.346,3-3,3s-3-1.346-3-3v-6.101c2.279-.465,4-2.484,4-4.899v-2c.553,0,1-.448,1-1s-.447-1-1-1h-2V1c0-.552-.447-1-1-1s-1,.448-1,1v3h-2V1c0-.552-.447-1-1-1s-1,.448-1,1v3H1c-.553,0-1,.448-1,1s.447,1,1,1v2c0,2.414,1.721,4.434,4,4.899v6.101c0,2.757,2.243,5,5,5s5-2.243,5-5v-1.929c0-.658,.175-1.283,.472-1.849-.335-.254-1.271-1.145-1.495-1.433Z"/>
</svg>
