<?xml version="1.0" encoding="UTF-8"?>
<svg xmlns="http://www.w3.org/2000/svg" id="Layer_1" data-name="Layer 1" viewBox="0 0 24 24">
  <path d="m24,12C24,4.93,17.856-.73,10.627.077,6.273.563,2.455,3.475.852,7.551c-1.738,4.42-.716,9.115,2.148,12.37v-2.921c0-1.657,1.343-3,3-3h6c-1.105,0-2-.895-2-2s.895-2,2-2c.167,0,.328.027.483.065l3.814-3.776c.392-.39,1.024-.385,1.414.007.389.393.385,1.026-.008,1.414l-3.786,3.749c.049.173.083.352.083.541,0,1.105-.895,2-2,2h6c1.657,0,3,1.343,3,3v2.921c1.909-2.17,3-4.979,3-7.921Zm-9.195-7.047l-.045.045c-.255.255-.627.334-.976.24-.57-.153-1.167-.238-1.785-.238-3.263,0-6.005,2.247-6.776,5.273-.11.433-.512.727-.959.727-.648,0-1.141-.61-.98-1.238.997-3.883,4.524-6.762,8.715-6.762.824,0,1.62.114,2.377.325.718.2.955,1.101.428,1.628Zm4.926,6.047h0c-.464,0-.859-.322-.971-.772-.005-.019-.01-.038-.015-.057-.087-.336.019-.692.264-.937.551-.551,1.484-.287,1.686.467.005.019.01.038.015.057.164.629-.329,1.243-.979,1.243Zm-1.931,13h0c-.442,0-.8-.358-.8-.8v-6.4c0-.442.358-.8.8-.8h0c.442,0,.8.358.8.8v6.4c0,.442-.358.8-.8.8Zm-9.21-.476l-1.378-3.057h-.612v2.733c0,.442-.358.8-.8.8h0c-.442,0-.8-.358-.8-.8v-6.4c0-.442.358-.8.8-.8h0c.442,0,.8.358.8.8v2.067h.354l1.449-2.465c.146-.249.414-.402.703-.402h0c.624,0,1.016.672.71,1.215l-1.25,2.22,1.502,3.433c.234.534-.158,1.132-.741,1.132h0c-.318,0-.606-.186-.737-.476Zm4.987-6.024c.551,0,1,.449,1,1s-.449,1-1,1h-.555v-2h.555m.022-1.5h-1.3c-.442,0-.8.358-.8.8v6.4c0,.442.358.8.8.8s.8-.358.8-.8v-2.2h.5c1.381,0,2.5-1.119,2.5-2.5s-1.119-2.5-2.5-2.5h0Z"/>
</svg>
