<?xml version="1.0" encoding="UTF-8"?>
<svg xmlns="http://www.w3.org/2000/svg" id="Layer_1" data-name="Layer 1" viewBox="0 0 24 24">
  <path d="m12,12.107c0-.996-.681-1.92-1.664-2.08-1.253-.204-2.336.758-2.336,1.973v8.817c-1.076-.886-2.111-1.752-2.145-1.784-.922-.861-2.373-.813-3.235.109-.863.923-.819,2.372.098,3.23l1.821,1.628h16.462v-.593c0-2.055-1.258-3.901-3.171-4.653l-5.829-2.292v-4.355Zm12-7.607v2c0,2.481-2.019,4.5-4.5,4.5h-5.65c-.415-1.506-1.651-2.696-3.193-2.947-1.168-.187-2.353.138-3.248.899-.635.541-1.078,1.257-1.282,2.047h-1.627c-2.481,0-4.5-2.019-4.5-4.5v-2C0,2.019,2.019,0,4.5,0h15c2.481,0,4.5,2.019,4.5,4.5Z"/>
</svg>
