<?xml version="1.0" encoding="UTF-8"?>
<svg xmlns="http://www.w3.org/2000/svg" id="Layer_1" data-name="Layer 1" viewBox="0 0 24 24">
  <path d="m20.5,15c-1.93,0-3.5,1.57-3.5,3.5s1.57,3.5,3.5,3.5,3.5-1.57,3.5-3.5-1.57-3.5-3.5-3.5Z"/>
  <path d="m23,13c.553,0,1-.448,1-1s-.447-1-1-1h-2.5c-.268,0-.534.018-.797.049l-1.676-4.312c.289.163.618.263.974.263.552,0,1-.448,1-1v-2c0-.552-.448-1-1-1-.893,0-1.64.589-1.897,1.397-.639-1.458-2.051-2.397-3.655-2.397h-.448c-.553,0-1,.448-1,1s.447,1,1,1h.448c.817,0,1.566.513,1.864,1.275l2.447,6.292c-.932.399-1.783.996-2.484,1.775l-1.64,1.947c-.38.451-.94.711-1.53.711h-.229l-2.195-5.486c-.607-1.519-2.078-2.514-3.714-2.514h-2.969c-1.657,0-3,1.343-3,3v4c0,1.33.871,2.444,2.069,2.838-.041.217-.069.437-.069.662,0,1.93,1.57,3.5,3.5,3.5s3.5-1.57,3.5-3.5c0-.169-.016-.335-.04-.5h3.148c1.179,0,2.297-.52,3.056-1.422l1.619-1.923c.947-1.052,2.302-1.655,3.717-1.655h2.5Z"/>
</svg>
