<?xml version="1.0" encoding="UTF-8"?>
<svg xmlns="http://www.w3.org/2000/svg" id="Layer_1" data-name="Layer 1" viewBox="0 0 24 24">
  <path d="m13,16.8h0c0,.442-.358.8-.8.8h-.95v5.57c0,.442-.358.8-.8.8h0c-.442,0-.8-.358-.8-.8v-5.57h-.851c-.442,0-.8-.358-.8-.8h0c0-.442.358-.8.8-.8h3.4c.442,0,.8.358.8.8Zm4.7-.8c-.442,0-.8.358-.8.8v2.42h-1.413v-2.42c0-.442-.358-.8-.8-.8h0c-.442,0-.8.358-.8.8v6.37c0,.442.358.8.8.8h0c.442,0,.8-.358.8-.8v-2.351h1.413v2.351c0,.442.358.8.8.8h0c.442,0,.8-.358.8-.8v-6.37c0-.442-.358-.8-.8-.8h0Zm5.5,0c-.442,0-.8.358-.8.8v4.9c0,.386-.314.7-.7.7s-.7-.314-.7-.7v-4.9c0-.442-.358-.8-.8-.8h0c-.442,0-.8.358-.8.8v4.766c0,1.203.863,2.301,2.06,2.422,1.376.14,2.539-.94,2.539-2.288v-4.9c0-.442-.358-.8-.8-.8h0Zm.8-9c0-2.757-2.243-5-5-5h-1v-1c0-.553-.448-1-1-1s-1,.447-1,1v1h-8v-1c0-.553-.448-1-1-1s-1,.447-1,1v1h-1C2.243,2,0,4.243,0,7v1h24v-1ZM0,10v9c0,2.761,2.239,5,5,5h1.65c.552,0,1-.448,1-1v-3.678c-1.101-.498-1.825-1.687-1.614-3.012.22-1.378,1.499-2.31,2.894-2.31h15.069v-4H0Z"/>
</svg>
