<?xml version="1.0" encoding="UTF-8"?>
<svg xmlns="http://www.w3.org/2000/svg" id="Layer_1" data-name="Layer 1" viewBox="0 0 24 24">
  <path d="m21.475,4.53c-.318-.183-.714-.175-1.024.021-.312.195-.492.545-.469.912.012.177.019.357.019.538,0,4.411-3.589,8-8,8S4,10.411,4,6c0-.181.007-.36.019-.538.023-.367-.156-.717-.469-.912-.312-.195-.706-.203-1.024-.021-1.558.888-2.525,2.553-2.525,4.344v7.126c0,2.757,2.243,5,5,5h6v1h-3c-.553,0-1,.447-1,1s.447,1,1,1h8c.553,0,1-.447,1-1s-.447-1-1-1h-3v-1h6c2.757,0,5-2.243,5-5v-7.126c0-1.791-.968-3.456-2.525-4.344Zm-4.643,3.1l-.55-.317c.129-.418.218-.853.218-1.313s-.089-.895-.218-1.313l.55-.317c.479-.276.643-.887.367-1.365h0c-.276-.479-.887-.643-1.366-.368l-.544.314c-.605-.652-1.393-1.125-2.289-1.33v-.621c0-.552-.448-1-1-1s-1,.448-1,1v.621c-.896.205-1.685.678-2.289,1.33l-.544-.314c-.479-.276-1.09-.111-1.366.368h0c-.276.479-.111,1.09.367,1.366l.55.317c-.129.418-.218.853-.218,1.313s.089.895.218,1.313l-.55.317c-.479.276-.643.887-.367,1.366h0c.276.479.887.643,1.366.368l.544-.314c.605.652,1.393,1.125,2.289,1.33v.621c0,.552.448,1,1,1s1-.448,1-1v-.621c.896-.205,1.685-.678,2.289-1.33l.544.314c.479.276,1.09.111,1.366-.367h0c.276-.479.111-1.09-.367-1.366Zm-4.832-.129c-.827,0-1.5-.673-1.5-1.5s.673-1.5,1.5-1.5,1.5.673,1.5,1.5-.673,1.5-1.5,1.5Z"/>
</svg>
