<?xml version="1.0" encoding="UTF-8"?>
<svg xmlns="http://www.w3.org/2000/svg" id="Layer_1" data-name="Layer 1" viewBox="0 0 24 24">
  <path d="m13.679,10.341c.641.873,1.321,2.243,1.321,4.197,0,3.213-1.196,7.248-1.563,8.408-.2.631-.777,1.054-1.437,1.054s-1.236-.423-1.437-1.052c-.367-1.161-1.563-5.196-1.563-8.409,0-1.954.68-3.324,1.321-4.197-.501-.457-.821-1.109-.821-1.841v-3.032c0-.458.587-.646.853-.273l.708.991c.29-.118.606-.186.939-.186s.648.068.939.186l.708-.991c.266-.372.853-.184.853.273v3.032c0,.732-.32,1.384-.821,1.841ZM6.013,2.736c0-.758-.496-1.403-1.222-1.645-.715-.238-1.466-.01-1.922.574C.813,4.296-.046,9.302,0,12.017c.02,1.125.442,4.006.46,4.128.055.373.314.683.672.803.354.119.75.028,1.02-.236.251-.248.899-.711,1.329-.711.624,0,1.522,1.712,1.909,3.243.094.373.394.659.77.736.381.076.765-.069.997-.375.114-.151.252-.26.39-.352-.305-1.508-.546-3.185-.546-4.714,0-1.885.504-3.36,1.117-4.466-1.839-1.263-2.104-3.781-2.104-7.337Zm15.118-1.071c-.457-.583-1.208-.811-1.922-.574-.726.241-1.222.886-1.222,1.644,0,3.243-.267,5.897-2.144,7.264.631,1.113,1.157,2.613,1.157,4.539,0,1.53-.242,3.207-.546,4.714.138.092.276.201.39.352.232.306.616.454.997.375.376-.077.676-.363.77-.736.387-1.531,1.285-3.243,1.909-3.243.45,0,1.092.481,1.329.711.269.265.664.355,1.02.236.357-.12.617-.43.672-.803.018-.122.44-3.003.46-4.128.046-2.715-.813-7.721-2.869-10.352Z"/>
</svg>
