<?xml version="1.0" encoding="UTF-8"?>
<svg xmlns="http://www.w3.org/2000/svg" id="Layer_1" data-name="Layer 1" viewBox="0 0 24 24">
  <path d="M.101,4C.566,1.721,2.586,0,5,0h14c2.414,0,4.434,1.721,4.899,4H.101Zm23.899,2v13c0,2.757-2.243,5-5,5H5c-2.757,0-5-2.243-5-5V6H24ZM3,10c0,.552,.447,1,1,1h5c.553,0,1-.448,1-1s-.447-1-1-1H4c-.553,0-1,.448-1,1Zm12,10c0-.553-.447-1-1-1H4c-.553,0-1,.447-1,1s.447,1,1,1H14c.553,0,1-.447,1-1Zm0-5c0-.553-.447-1-1-1H7c-.553,0-1,.447-1,1s.447,1,1,1h7c.553,0,1-.447,1-1Zm6,5c0-.738-.405-1.376-1-1.723v-6.277c0-1.654-1.346-3-3-3h-1.277c-.346-.595-.984-1-1.723-1-1.105,0-2,.895-2,2s.895,2,2,2c.738,0,1.376-.405,1.723-1h1.277c.552,0,1,.449,1,1v6.277c-.595,.346-1,.984-1,1.723,0,1.105,.895,2,2,2s2-.895,2-2Z"/>
</svg>
