<?xml version="1.0" encoding="UTF-8"?>
<svg xmlns="http://www.w3.org/2000/svg" id="Layer_1" data-name="Layer 1" viewBox="0 0 24 24">
  <path d="m23.27,4.875c-1.114-1.002-2.68-1.816-4.395-2.301-.407-1.482-1.766-2.574-3.375-2.574-1.493,0-2.771.94-3.273,2.26C2.514,6.921.229,13.83.034,18.833c-.058,1.502.552,2.921,1.709,3.935.953.834,2.213,1.232,3.479,1.232h9.778c.552,0,1-.448,1-1h0c0-.552-.448-1-1-1h-3v-1.5c0-2.485-2.015-4.5-4.5-4.5h-.596c-.743,0-1.21-.782-.881-1.449.003-.007.006-.013.01-.02.164-.331.512-.531.881-.531h.848c2.165,0,4.078,1.101,5.209,2.772,0,0,.35-1.766.427-2.284l5.464,8.586c.367.577,1.004.926,1.687.926h1.451c.552,0,1-.448,1-1h0c0-.552-.448-1-1-1h-1.451l-6.392-10.044c3.059-.227,6.949-1.359,9.275-3.993.798-.903.725-2.288-.163-3.087Zm-7.77.125c-.827,0-1.5-.673-1.5-1.5s.673-1.5,1.5-1.5,1.5.673,1.5,1.5-.673,1.5-1.5,1.5Z"/>
</svg>
