<?xml version="1.0" encoding="UTF-8"?>
<svg xmlns="http://www.w3.org/2000/svg" id="Layer_1" data-name="Layer 1" viewBox="0 0 24 24">
  <path d="M20,2c0-1.105,.895-2,2-2s2,.895,2,2-.895,2-2,2-2-.895-2-2ZM2,4c1.105,0,2-.895,2-2S3.105,0,2,0,0,.895,0,2,.895,4,2,4ZM22,24c1.105,0,2-.895,2-2s-.895-2-2-2-2,.895-2,2,.895,2,2,2Zm-20,0c1.105,0,2-.895,2-2s-.895-2-2-2-2,.895-2,2,.895,2,2,2Zm10-6c3.314,0,6-2.686,6-6s-2.686-6-6-6-6,2.686-6,6,2.686,6,6,6Zm7.7-8.145l.148-.147c.742-.741,1.15-1.727,1.151-2.776,0-1.049-.408-2.036-1.15-2.777-.741-.741-1.727-1.15-2.775-1.15h0c-1.049,0-2.035,.41-2.774,1.15l-.147,.147c2.688,.75,4.801,2.865,5.548,5.554Zm-15.401,0c.748-2.689,2.86-4.803,5.548-5.553l-.146-.145c-.741-.742-1.727-1.151-2.775-1.151h-.002c-1.048,0-2.033,.408-2.775,1.149-.742,.742-1.149,1.728-1.149,2.777,0,1.049,.409,2.035,1.153,2.778l.146,.145Zm0,4.294l-.149,.149c-.742,.742-1.15,1.728-1.151,2.776,0,1.049,.408,2.035,1.149,2.776,.742,.742,1.728,1.15,2.776,1.15h0c1.049,0,2.034-.409,2.776-1.151l.149-.149c-2.689-.749-4.802-2.862-5.551-5.551Zm15.399,0c-.749,2.689-2.862,4.802-5.551,5.551l.148,.149c.741,.742,1.727,1.151,2.776,1.152h0c1.049,0,2.034-.408,2.776-1.15s1.149-1.728,1.149-2.777c0-1.049-.409-2.035-1.152-2.776l-.148-.148Z"/>
</svg>
