<?xml version="1.0" encoding="UTF-8"?>
<svg xmlns="http://www.w3.org/2000/svg" id="Layer_1" data-name="Layer 1" viewBox="0 0 24 24">
  <path d="M14.302,8.646c.472,.288,.62,.903,.332,1.375-.29,.475-.911,.617-1.375,.332-.756-.463-1.762-.463-2.518,0-.472,.288-1.087,.14-1.375-.332s-.14-1.087,.332-1.375c1.385-.846,3.219-.846,4.604,0Zm2.237-1.146c.306,0,.606-.14,.803-.403,.33-.442,.238-1.069-.205-1.398-1.492-1.111-3.269-1.698-5.137-1.698s-3.645,.587-5.137,1.698c-.443,.329-.535,.956-.205,1.398,.329,.442,.955,.536,1.398,.205,2.291-1.703,5.596-1.703,7.887,0,.179,.134,.389,.198,.596,.198ZM5.516,4.279c1.826-1.47,4.129-2.279,6.484-2.279s4.658,.81,6.484,2.279c.428,.345,1.058,.279,1.406-.152,.346-.431,.278-1.06-.152-1.406C17.559,.967,14.81,0,12,0S6.441,.967,4.262,2.721c-.431,.347-.498,.976-.152,1.406,.347,.429,.975,.498,1.406,.152Zm18.484,14.221v2c0,1.933-1.567,3.5-3.5,3.5H3.5c-1.933,0-3.5-1.567-3.5-3.5v-2c0-1.933,1.567-3.5,3.5-3.5h1.485L.16,7.543c-.3-.464-.167-1.082,.297-1.383,.464-.3,1.083-.167,1.383,.297L7.34,14.957c.009,.013,.009,.029,.017,.043h9.286c.008-.014,.008-.029,.017-.043l5.5-8.5c.3-.464,.919-.597,1.383-.297,.464,.301,.597,.919,.297,1.383l-4.825,7.457h1.485c1.933,0,3.5,1.567,3.5,3.5Zm-18,1c0-.828-.672-1.5-1.5-1.5s-1.5,.672-1.5,1.5,.672,1.5,1.5,1.5,1.5-.672,1.5-1.5Zm4,0c0-.828-.672-1.5-1.5-1.5s-1.5,.672-1.5,1.5,.672,1.5,1.5,1.5,1.5-.672,1.5-1.5Z"/>
</svg>
