<?xml version="1.0" encoding="UTF-8"?>
<svg xmlns="http://www.w3.org/2000/svg" id="Layer_1" data-name="Layer 1" viewBox="0 0 24 24">
  <path d="m12,7V.46c.913.346,1.753.879,2.465,1.59l3.484,3.486c.712.711,1.245,1.551,1.591,2.464h-6.54c-.552,0-1-.449-1-1Zm-.849,12h-6.151c-.553,0-1-.447-1-1s.447-1,1-1h6v-2h-6c-.553,0-1-.447-1-1s.447-1,1-1h6.034c.166-1.278.939-2.393,2.069-3h-.103c-1.654,0-3-1.346-3-3V.024c-.161-.011-.322-.024-.485-.024h-4.515C2.243,0,0,2.243,0,5v14c0,2.757,2.243,5,5,5h9.479c-1.391-1.122-2.86-2.783-3.327-5Zm7.932,4.858c1.153-.464,4.917-2.292,4.917-6.322v-4.017c0-.862-.551-1.625-1.37-1.896l-3.815-1.265c-.203-.068-.426-.068-.629,0l-3.815,1.265c-.819.271-1.37,1.034-1.37,1.896v4.017c0,3.57,3.715,5.703,4.85,6.27,0,0,.325.209.651.209s.582-.156.582-.156Z"/>
</svg>
