<?xml version="1.0" encoding="UTF-8"?>
<svg xmlns="http://www.w3.org/2000/svg" id="Layer_1" data-name="Layer 1" viewBox="0 0 24 24">
  <path d="m20,23h0c0,.553-.448,1-1,1h-8.043c-.704,0-1.368-.363-1.713-.976-.327-.582-.936-.985-1.641-1.021-2.525-.13-4.95-1.301-5.972-3.613-.858-1.94-.79-3.856-.107-5.447-1.03-.251-1.747-1.299-1.461-2.453.174-.701.755-1.271,1.459-1.434.996-.23,1.907.284,2.289,1.096,1.049-.726,2.32-1.151,3.689-1.151h4.996c.973,2.347,3.273,4,5.948,4,.356,0,.702-.013,1.039-.04l-2.88,7.04h-2.657c-.358-3.192-2.48-5-5.946-5-.552,0-1,.448-1,1s.448,1,1,1c2.729,0,4,1.271,4,4,0,0,0,1,1,1h6c.552,0,1,.448,1,1Zm-1.556-21c-.218,0-.432.016-.641.047C17.29,1.864,12.513.209,7.019.018c-.559-.019-1.019.441-1.019,1.001,0,.545.437.98.981.999,2.607.095,5.075.548,6.927.991-.115.053-.23.107-.346.161-1.673.781-3.548,1.659-6.63,1.808-.525.025-.933.471-.933.996,0,.579.492,1.029,1.07.999,3.335-.168,5.444-1.107,7.16-1.908-.15.451-.231.933-.231,1.435,0,2.485,1.99,4.5,4.444,4.5s5.556-.89,5.556-3.375c0-2.25-2.222-5.625-5.556-5.625Z"/>
</svg>
