<?xml version="1.0" encoding="UTF-8"?>
<svg xmlns="http://www.w3.org/2000/svg" id="Layer_1" data-name="Layer 1" viewBox="0 0 24 24">
  <path d="m23.938,17.305l-1.972-11.174c-.422-2.389-2.498-4.131-4.924-4.131H6.958c-3.458,0-4.664,2.655-4.924,4.131L.072,17.244c-.122.694-.096,1.417.146,2.078.608,1.665,2.129,2.678,3.783,2.678,0,0,1.122-.006,1.184-.018.441-.083.745-.447.794-.871-.6-.82-1.048-1.765-1.246-2.817l-1.191-6.323c-.175-.929-.171-1.881.011-2.809.282-1.436.695-3.474.805-3.664l2.339,12.426c.445,2.363,2.509,4.075,4.914,4.075h8.242c.909,0,1.821-.245,2.545-.796,1.231-.936,1.798-2.436,1.54-3.899Zm-14.938-9.305c0-.552.448-1,1-1h7c.552,0,1,.448,1,1s-.448,1-1,1h-7c-.552,0-1-.448-1-1Zm.731,4c0-.552.448-1,1-1h7c.552,0,1,.448,1,1s-.448,1-1,1h-7c-.552,0-1-.448-1-1Zm8.769,5h-7c-.552,0-1-.447-1-1s.448-1,1-1h7c.552,0,1,.447,1,1s-.448,1-1,1Z"/>
</svg>
