<?xml version="1.0" encoding="UTF-8"?>
<svg xmlns="http://www.w3.org/2000/svg" id="Layer_1" data-name="Layer 1" viewBox="0 0 24 24">
  <path d="M.307,6.221c-.397-.383-.41-1.016-.027-1.414,.382-.399,1.015-.411,1.414-.028l1.307,1.256v-2.035C3,1.794,4.794,0,7,0h1c.553,0,1,.448,1,1s-.447,1-1,1h-1c-1.103,0-2,.897-2,2v2.029l1.307-1.25c.399-.383,1.032-.371,1.414,.028,.383,.398,.37,1.031-.027,1.414l-2.301,2.212c-.38,.378-.883,.569-1.388,.569-.51,0-1.021-.193-1.41-.582L.307,6.221Zm-.307,14.779c0,1.654,1.346,3,3,3h7c1.654,0,3-1.346,3-3v-4H0v4ZM21,0h-7c-1.654,0-3,1.346-3,3h13c0-1.654-1.346-3-3-3ZM11,9c0,1.654,1.346,3,3,3h7c1.654,0,3-1.346,3-3V5H11v4Zm-.972,3.003c-.01,0-.018-.003-.028-.003H3c-1.654,0-3,1.346-3,3H13c0-.417-.086-.813-.239-1.174-1.108-.285-2.061-.937-2.733-1.823Zm11.377,3.577c-.774-.772-2.035-.775-2.798-.013l-2.301,2.212c-.397,.383-.41,1.016-.027,1.414,.383,.397,1.015,.411,1.414,.027l1.307-1.25v2.029c0,1.103-.897,2-2,2h-2c-.553,0-1,.447-1,1s.447,1,1,1h2c2.206,0,4-1.794,4-4v-2.035l1.307,1.256c.194,.187,.444,.279,.693,.279,.263,0,.524-.103,.721-.307,.383-.398,.37-1.031-.027-1.414l-2.288-2.199Z"/>
</svg>
