<?xml version="1.0" encoding="UTF-8"?>
<svg xmlns="http://www.w3.org/2000/svg" id="Layer_1" data-name="Layer 1" viewBox="0 0 24 24">
  <path d="m2,8v-1c0-3.314,2.686-6,6-6h8c3.314,0,6,2.686,6,6v1c-2.209,0-4,1.791-4,4v3h-2c-1.634,0-3.087.788-4,2.003-.913-1.216-2.366-2.003-4-2.003h-2v-3c0-2.209-1.791-4-4-4Zm6,9h-3c-.484,0-.887-.343-.98-.798-.013-.065-.02-.133-.02-.202v-3.893c0-.996-.681-1.92-1.664-2.08-1.253-.204-2.336.758-2.336,1.973v4c0,1.636.786,3.088,2,4v2c0,.552.448,1,1,1s1-.448,1-1v-1.1c.323.066.658.1,1,.1h6v-1c0-1.654-1.346-3-3-3Zm13.664-6.973c-.983.16-1.664,1.083-1.664,2.08v3.893c0,.069-.007.136-.02.202-.093.456-.496.798-.98.798h-3c-1.654,0-3,1.346-3,3v1h6c.342,0,.677-.034,1-.1v1.1c0,.552.448,1,1,1s1-.448,1-1v-2c1.214-.912,2-2.364,2-4v-4c0-1.215-1.083-2.176-2.336-1.973Z"/>
</svg>
