<?xml version="1.0" encoding="UTF-8"?>
<svg xmlns="http://www.w3.org/2000/svg" id="Layer_1" data-name="Layer 1" viewBox="0 0 24 24">
  <path d="M22.998,3.282v5.728c0,.553-.449,1.001-1.002,1l-7.996-.008c-.552,0-.999-.448-.999-1V4.686c0-1.934,1.381-3.589,3.283-3.936L18.935,.097c2.067-.509,4.064,1.056,4.063,3.185Zm.998,9.808c-.552,6.117-5.82,10.909-11.995,10.91,0,0,0,0,0,0,0,0,0,0,0,0,0,0,0,0,0,0s0,0,0,0c0,0,0,0,0,0,0,0,0,0,0,0-6.175,0-11.443-4.793-11.995-10.91-.049-.55,.356-1.036,.906-1.086,.564-.038,1.037,.357,1.086,.906,.065,.723,.217,1.42,.432,2.09h3.473c-.159-.616-.283-1.249-.347-1.903-.054-.55,.349-1.039,.898-1.092,.553-.054,1.039,.349,1.092,.898,.07,.722,.227,1.422,.434,2.097h8.044c.207-.675,.364-1.375,.434-2.097,.053-.549,.54-.954,1.092-.898,.55,.053,.952,.542,.898,1.092-.063,.654-.188,1.287-.347,1.903h3.473c.214-.67,.367-1.367,.432-2.09,.05-.55,.525-.946,1.086-.906,.55,.05,.956,.536,.906,1.086Zm-14.601,8.555c-.942-1.168-2.03-2.763-2.819-4.645H3.325c1.326,2.253,3.508,3.947,6.07,4.645Zm5.827-4.645h-6.443c1.023,2.079,2.409,3.723,3.222,4.586,.813-.863,2.198-2.507,3.222-4.586Zm5.454,0h-3.252c-.789,1.882-1.877,3.476-2.819,4.645,2.562-.698,4.744-2.392,6.07-4.645Zm-10.679-7c.552,0,1-.448,1-1V4.686c0-1.934-1.381-3.589-3.283-3.936L5.063,.097C2.996-.413,.999,1.153,1,3.282v5.718c0,.552,.448,1,1,1h7.997Z"/>
</svg>
