<?xml version="1.0" encoding="UTF-8"?>
<svg xmlns="http://www.w3.org/2000/svg" id="Layer_1" data-name="Layer 1" viewBox="0 0 24 24">
  <path d="m14.5,7c-1.93,0-3.5-1.57-3.5-3.5s1.57-3.5,3.5-3.5,3.5,1.57,3.5,3.5-1.57,3.5-3.5,3.5Zm-9,0c-1.93,0-3.5-1.57-3.5-3.5S3.57,0,5.5,0s3.5,1.57,3.5,3.5-1.57,3.5-3.5,3.5Zm12.5,5c-3.314,0-6,2.686-6,6s2.686,6,6,6,6-2.686,6-6-2.686-6-6-6Zm3.683,5.712l-2.703,2.614c-.452.446-1.052.671-1.653.671s-1.203-.225-1.663-.674l-1.354-1.332c-.395-.387-.4-1.02-.014-1.414.386-.395,1.019-.401,1.414-.014l1.354,1.331c.144.142.38.139.522-.002l2.713-2.624c.397-.381,1.031-.37,1.414.029.382.398.369,1.031-.029,1.414ZM4.5,11.5c0-1.325.471-2.542,1.254-3.492-.093-.005-.187-.008-.281-.008C2.665,8,.315,10.103.006,12.89c-.031.283.06.565.249.777s.461.333.745.333h4.102c-.385-.75-.602-1.6-.602-2.5Zm5.5,3.5c.206,0,.407-.018.603-.052.6-1.451,1.613-2.687,2.894-3.561-.06-1.877-1.606-3.386-3.498-3.386-1.93,0-3.5,1.57-3.5,3.5s1.57,3.5,3.5,3.5Zm0,3c0-.671.083-1.323.239-1.946-.251-.035-.506-.054-.766-.054-2.808,0-5.158,2.103-5.467,4.89-.031.283.06.565.249.777s.461.333.745.333h6.07c-.681-1.177-1.071-2.543-1.071-4Z"/>
</svg>
