<?xml version="1.0" encoding="UTF-8"?>
<svg xmlns="http://www.w3.org/2000/svg" id="Layer_1" data-name="Layer 1" viewBox="0 0 24 24">
  <path d="m5,4c0-.553.448-1,1-1h2V1c0-.553.448-1,1-1s1,.447,1,1v2h2c.552,0,1,.447,1,1s-.448,1-1,1h-2v2c0,.553-.448,1-1,1s-1-.447-1-1v-2h-2c-.552,0-1-.447-1-1Zm19,9v3c0,.552-.447,1-1,1h-.592c-.806,1.98-2.386,3.606-4.438,4.427-.208,1.453-1.46,2.573-2.97,2.573-1.304,0-2.416-.836-2.829-2h-2.343c-.413,1.164-1.525,2-2.829,2-1.654,0-3-1.346-3-3v-.079C1.366,19.403-.182,16.545.017,13.47c.081-1.252.462-2.423,1.072-3.45C.501,9.222.138,8.249.007,7.115c-.063-.549.33-1.045.878-1.108.553-.067,1.046.33,1.108.878.064.553.204,1.044.416,1.469.984-.954,2.218-1.661,3.591-2.04v.687c0,1.654,1.346,3,3,3s3-1.346,3-3v-1h2.5c.342-1.397,1.375-2.588,2.702-2.965.589-.168,1.176.291,1.176.904v2.909c2.124,1.022,3.763,2.887,4.365,5.153h.257c.553,0,1,.448,1,1Zm-5-.5c0-.828-.672-1.5-1.5-1.5s-1.5.672-1.5,1.5.672,1.5,1.5,1.5,1.5-.672,1.5-1.5Z"/>
</svg>
