<?xml version="1.0" encoding="UTF-8"?>
<svg xmlns="http://www.w3.org/2000/svg" id="Layer_1" data-name="Layer 1" viewBox="0 0 24 24">
  <path d="m6,1c0-.553.448-1,1-1h10c.552,0,1,.447,1,1s-.448,1-1,1H7c-.552,0-1-.447-1-1Zm-2,6h16c.552,0,1-.447,1-1s-.448-1-1-1H4c-.552,0-1,.447-1,1s.448,1,1,1Zm20,11c0,3.314-2.686,6-6,6s-6-2.686-6-6,2.686-6,6-6,6,2.686,6,6Zm-2.5,0c0-.553-.447-1-1-1h-1.5v-1.5c0-.553-.447-1-1-1s-1,.447-1,1v1.5h-1.5c-.553,0-1,.447-1,1s.447,1,1,1h1.5v1.5c0,.553.447,1,1,1s1-.447,1-1v-1.5h1.5c.553,0,1-.447,1-1Zm-11.5,0c0-4.418,3.582-8,8-8H5c-2.757,0-5,2.243-5,5v4c0,2.757,2.243,5,5,5h7.709c-1.661-1.466-2.709-3.61-2.709-6Z"/>
</svg>
