<?xml version="1.0" encoding="UTF-8"?>
<svg xmlns="http://www.w3.org/2000/svg" id="Layer_1" data-name="Layer 1" viewBox="0 0 24 24">
  <path d="M13,3h10c.552,0,1-.448,1-1s-.448-1-1-1H1c-.552,0-1,.448-1,1s.448,1,1,1H3v3.141c-1.722,.446-3,1.997-3,3.859v8H14V6h-1V3Zm-2,3h-2V3h2v3ZM7,3v3h-2V3h2Zm12,2.5v.513c1.654,.068,3.105,1.141,3.632,2.722l1.088,3.265h-7.721V5.5c0-.828,.672-1.5,1.5-1.5s1.5,.672,1.5,1.5Zm-7.058,14.5c.034,.162,.058,.328,.058,.5,0,1.381-1.119,2.5-2.5,2.5s-2.5-1.119-2.5-2.5c0-.172,.024-.338,.058-.5h4.885Zm-7,0c.034,.162,.058,.328,.058,.5,0,1.381-1.119,2.5-2.5,2.5s-2.5-1.119-2.5-2.5c0-.172,.024-.338,.058-.5H4.942Zm17,0c.034,.162,.058,.328,.058,.5,0,1.381-1.119,2.5-2.5,2.5s-2.5-1.119-2.5-2.5c0-.172,.024-.338,.058-.5h4.885Zm-5.942-6h8c0,2.209-1.791,4-4,4h-4v-4Z"/>
</svg>
