<?xml version="1.0" encoding="UTF-8"?>
<svg xmlns="http://www.w3.org/2000/svg" id="Layer_1" data-name="Layer 1" viewBox="0 0 24 24">
  <path d="M20.688,19.274l2.759-1.379c.741-.341,.72-1.491-.033-1.805,0,0-8.736-3.972-8.768-3.982-.678-.231-1.428-.068-2.004,.431-.588,.509-.798,1.338-.497,2.202l3.944,8.675c.313,.754,1.463,.774,1.805,.033l1.38-2.76,3.019,3.019c.391,.391,1.023,.391,1.414,0s.391-1.023,0-1.414l-3.019-3.019Zm-8.574,.22c-1.276,.352-2.684,.103-3.757-.775C2.706,14.094-2.189,7.435,1.019,2.62c.549-.825,1.322-1.494,2.236-1.933,.952-.459,1.938-.687,2.9-.687,1.112,0,2.193,.304,3.156,.909,.688,.433,1.258,.987,1.689,1.622,.431-.635,1.001-1.189,1.689-1.622,1.797-1.129,4.004-1.211,6.056-.223,.914,.439,1.687,1.108,2.237,1.933,1.882,2.826,.963,6.286-1.251,9.598,0,0-4.354-1.974-4.438-2.003-1.357-.466-2.837-.16-3.958,.811-1.232,1.065-1.646,2.741-1.078,4.372l1.858,4.096Z"/>
</svg>
