<?xml version="1.0" encoding="UTF-8"?>
<svg xmlns="http://www.w3.org/2000/svg" id="Layer_1" data-name="Layer 1" viewBox="0 0 24 24">
  <path d="m13,3v3.056c-.328-.036-.662-.056-1-.056s-.672.019-1,.056v-3.056l-1.293,1.293c-.391.391-1.023.391-1.414,0s-.391-1.023,0-1.414l2.293-2.293c.779-.78,2.049-.78,2.828,0l2.293,2.293c.391.391.391,1.023,0,1.414-.195.195-.451.293-.707.293s-.512-.098-.707-.293l-1.293-1.293Zm6.029,17.614c1.233-1.54,1.971-3.492,1.971-5.614,0-4.624-3.506-8.445-8-8.944v8.53l6.029,6.028ZM3,15c0,4.963,4.038,9,9,9,2.122,0,4.074-.739,5.615-1.972l-6.029-6.028c-.373-.372-.586-.888-.586-1.414V6.056c-4.494.499-8,4.32-8,8.944Z"/>
</svg>
