<?xml version="1.0" encoding="UTF-8"?>
<svg xmlns="http://www.w3.org/2000/svg" id="Layer_1" data-name="Layer 1" viewBox="0 0 24 24">
  <path d="m18,12c-3.314,0-6,2.686-6,6s2.686,6,6,6,6-2.686,6-6-2.686-6-6-6Zm-1,3c0-.553.448-1,1-1s1,.447,1,1v2c0,.553-.448,1-1,1s-1-.447-1-1v-2Zm1,7c-.828,0-1.5-.672-1.5-1.5s.672-1.5,1.5-1.5,1.5.672,1.5,1.5-.672,1.5-1.5,1.5Zm-6.039,1.236c-.461.225-.866.402-1.168.524,0,0-.293.24-.791.24s-.85-.307-.85-.307C7.005,22.62,0,18.606,0,12.043v-5.171C0,4.713,1.377,2.806,3.426,2.126L9.685.051c.205-.068.425-.068.63,0l6.259,2.075c2.049.68,3.426,2.587,3.426,4.746v3.39c-.64-.165-1.308-.262-2-.262-4.418,0-8,3.582-8,8,0,2.005.743,3.832,1.961,5.236Z"/>
</svg>
