<?xml version="1.0" encoding="UTF-8"?>
<svg xmlns="http://www.w3.org/2000/svg" id="Layer_1" data-name="Layer 1" viewBox="0 0 24 24">
  <path d="m23.027,12.785c.135.385.223.789.223,1.215,0,1.41-.791,2.672-2,3.308-.023,1.509-.944,2.8-2.25,3.373v1.319c0,1.105-.895,2-2,2s-2-.895-2-2v-.236c-.398.144-.817.236-1.25.236-.768,0-1.505-.237-2.125-.671-.62.434-1.357.671-2.125.671-.17,0-.334-.029-.5-.052v.052c0,1.105-.895,2-2,2s-2-.895-2-2v-1.076c-1.691-.345-2.973-1.832-3-3.617-1.21-.636-2-1.897-2-3.308s.791-2.671,2-3.308c.031-2.041,1.701-3.692,3.75-3.692.355,0,.711.054,1.056.158.699-.729,1.671-1.158,2.694-1.158.768,0,1.505.237,2.125.671l.375.329v2.684c0,3.18,2.411,5.316,6,5.316,2.23,0,4.003-.827,5.027-2.215Zm.862-7.916c-.396.636-1.108,1.09-1.89,1.293v3.522c0,2.046-1.533,3.316-4,3.316s-4-1.271-4-3.316v-3.522c-.782-.203-1.494-.656-1.89-1.293-.258-.414-.044-.96.431-1.072.57-.135,1.47-.315,2.511-.47.181-.199.379-.382.596-.543-.277-.424-.766-.784-1.648-.784-.552,0-1-.448-1-1s.448-1,1-1c1.848,0,2.953.949,3.519,2.053.16-.02.316-.053.481-.053s.321.033.481.053c.566-1.104,1.671-2.053,3.519-2.053.552,0,1,.448,1,1s-.448,1-1,1c-.882,0-1.371.36-1.648.784.216.161.415.344.596.543,1.041.155,1.941.335,2.511.47.475.113.689.658.431,1.072Z"/>
</svg>
