<?xml version="1.0" encoding="UTF-8"?>
<svg xmlns="http://www.w3.org/2000/svg" id="Layer_1" data-name="Layer 1" viewBox="0 0 24 24">
  <path d="m8.086,9c.464,0,.907.13,1.29.373l-.277,1.112c-.224.892-1.021,1.515-1.941,1.515h-1.137c-.95,0-1.774-.676-1.962-1.611l-.039-.192c-.059-.295.017-.598.208-.83.19-.233.473-.366.773-.366h3.085Zm10.934,0h-3.105c-.464,0-.907.13-1.29.373l.277,1.112c.224.892,1.021,1.515,1.941,1.515h1.157c.95,0,1.774-.676,1.961-1.607l.041-.2c.058-.291-.018-.594-.209-.826-.19-.233-.473-.366-.773-.366Zm4.98,3c0,6.617-5.383,12-12,12S0,18.617,0,12,5.383,0,12,0s12,5.383,12,12Zm-6.106,5.279c-.398-.382-1.031-.372-1.414.027-1.631,1.693-3.701,1.693-4.479,1.693-.552,0-1,.447-1,1s.448,1,1,1c.915,0,3.699,0,5.92-2.307.383-.397.371-1.03-.026-1.414Zm4.068-6.691c.177-.885-.05-1.792-.622-2.49s-1.418-1.098-2.32-1.098h-3.105c-1.023,0-1.981.364-2.765,1h-2.298c-.784-.636-1.742-1-2.765-1h-3.085c-.902,0-1.748.4-2.32,1.098s-.799,1.605-.621,2.494l.039.192c.372,1.863,2.021,3.216,3.922,3.216h1.137c1.839,0,3.436-1.246,3.881-3.03l.242-.97h1.439l.242.97c.445,1.784,2.042,3.03,3.881,3.03h1.157c1.9,0,3.55-1.353,3.921-3.212l.041-.2Z"/>
</svg>
