<?xml version="1.0" encoding="UTF-8"?>
<svg xmlns="http://www.w3.org/2000/svg" id="Layer_1" data-name="Layer 1" viewBox="0 0 24 24">
  <path d="m8,12c3.309,0,6-2.691,6-6S11.309,0,8,0,2,2.691,2,6s2.691,6,6,6Zm12,2h-4v-1c0-1.103.897-2,2-2,.568,0,1.111.243,1.492.667.368.411,1,.445,1.412.077.411-.369.445-1.001.076-1.412-.759-.847-1.845-1.332-2.98-1.332-2.206,0-4,1.794-4,4v1.537c-1.195.693-2,1.986-2,3.463v2c0,2.206,1.794,4,4,4h4c2.206,0,4-1.794,4-4v-2c0-2.206-1.794-4-4-4Zm-2,6.5c-.828,0-1.5-.672-1.5-1.5s.672-1.5,1.5-1.5,1.5.672,1.5,1.5-.672,1.5-1.5,1.5Zm-8-.5c0,1.535.58,2.938,1.532,4H1c-.552,0-1-.448-1-1v-.729c0-4.115,2.993-7.76,7.083-8.219.96-.108,1.891-.044,2.766.164.616.146.887.839.637,1.42-.312.726-.486,1.525-.486,2.364v2Z"/>
</svg>
