<?xml version="1.0" encoding="UTF-8"?>
<svg xmlns="http://www.w3.org/2000/svg" id="Layer_1" data-name="Layer 1" viewBox="0 0 24 24">
  <path d="M14-.004H5C2.243-.004,0,2.239,0,4.996v12.854c-.053,1.663,1.983,2.754,3.34,1.788l3.963-2.643h6.697c2.757,0,5-2.243,5-5V4.996C19,2.239,16.757-.004,14-.004Zm-5.5,9.754c0,1.319-1.135,2.373-2.482,2.238-1.05-.105-1.839-.978-1.991-2.006-.018-.119-.142-.982,.8-.982,.827,0,.788,.907,.814,.978,.093,.246,.331,.422,.609,.422,.358,0,.65-.292,.65-.65v-3.95c0-.442,.358-.8,.8-.8s.8,.358,.8,.8v3.95Zm5.458,2.25c-.38,0-.71-.264-.792-.636l-.08-.358h-2.148l-.097,.401c-.084,.348-.395,.593-.753,.593-.498,0-.866-.463-.755-.948l1.072-4.664c.333-1.805,2.992-1.813,3.303,.04l1.04,4.581c.115,.508-.271,.991-.791,.991Zm-1.809-5.217l.583,2.624h-1.407l.646-2.678c.019-.068,.05-.122,.097-.122,.014,.01,.057,.063,.082,.176Zm11.852,2.214v12.854c.053,1.662-1.983,2.755-3.339,1.789l-3.964-2.644h-5.697c-1.45,0-2.747-.631-3.661-1.62l.569-.38h6.092c3.859,0,7-3.14,7-7V4.996c0-.193-.014-.383-.029-.573,1.776,.767,3.029,2.519,3.029,4.573Z"/>
</svg>
