<?xml version="1.0" encoding="UTF-8"?>
<svg xmlns="http://www.w3.org/2000/svg" id="Layer_1" data-name="Layer 1" viewBox="0 0 24 24">
  <path d="m14,12c0,.551-.448,1-1,1h-2v-2h2c.552,0,1,.449,1,1Zm-1-4c0-.551-.448-1-1-1h-1v2h1c.552,0,1-.449,1-1Zm10.925,12.128c-.222.544-.727.883-1.316.883h-1.562v1.562c0,.893-.729,1.427-1.434,1.427-.376,0-.72-.145-.995-.418l-3.953-3.953c-.85.235-1.74.371-2.664.371-.913,0-1.794-.134-2.636-.364l-3.944,3.944c-.277.275-.621.42-.997.42-.705,0-1.434-.534-1.434-1.427v-1.562h-1.562c-.59,0-1.095-.339-1.317-.884-.222-.54-.103-1.132.31-1.546l3.179-3.179c-1.007-1.56-1.598-3.412-1.598-5.403C2,4.486,6.486,0,12,0s10,4.486,10,10c0,1.981-.586,3.825-1.585,5.381l3.2,3.199c.413.415.532,1.007.31,1.548Zm-7.936-7.865c.1-1.168-.474-2.214-1.375-2.792.286-.506.43-1.102.375-1.735-.135-1.577-1.559-2.737-3.141-2.737h-1.348c-.828,0-1.5.672-1.5,1.5v7c0,.828.672,1.5,1.5,1.5h2.34c1.584,0,3.013-1.158,3.149-2.736Z"/>
</svg>
