<?xml version="1.0" encoding="UTF-8"?>
<svg xmlns="http://www.w3.org/2000/svg" id="Layer_1" data-name="Layer 1" viewBox="0 0 24 24">
  <path d="m21.7,16h-1.5c-.442,0-.8.358-.8.8v6.4c0,.442.358.8.8.8h1.5c1.27,0,2.3-1.03,2.3-2.3v-3.4c0-1.27-1.03-2.3-2.3-2.3Zm.7,5.7c0,.386-.314.7-.7.7s-.7,0-.7,0v-4.802s.314,0,.7,0,.7.314.7.7v3.4Zm-5.801-2.45h1.101c.442,0,.8.358.8.8h0c0,.442-.358.8-.8.8h-1.101v1.551h1.101c.442,0,.8.358.8.8h0c0,.442-.358.8-.8.8h-1.9c-.442,0-.8-.358-.8-.8v-6.4c0-.442.358-.8.8-.8h1.9c.442,0,.8.358.8.8h0c0,.442-.358.8-.8.8h-1.101v1.65Zm-3.46-3.25c.465,0,.831.394.798.858l-.445,6.142c-.043.705-.472,1-.988,1-.342,0-.66-.242-.841-.64l-1.164-2.56-1.164,2.56c-.181.398-.499.64-.841.64-.516,0-.945-.295-.988-1l-.445-6.142c-.034-.463.333-.858.798-.858h0c.419,0,.768.324.798.742l.265,3.66.779-1.713c.311-.685,1.284-.685,1.596,0l.779,1.713.265-3.66c.03-.418.379-.742.798-.742h0Zm10.86-8H0v-1C0,4.243,2.243,2,5,2h1v-1c0-.553.448-1,1-1s1,.447,1,1v1h8v-1c0-.553.448-1,1-1s1,.447,1,1v1h1c2.757,0,5,2.243,5,5v1Zm0,2v4H7.86c-.775,0-1.522.326-2.05.893-.528.568-.799,1.336-.742,2.109l.445,6.142c.018.305.086.587.175.855h-.688c-2.761,0-5-2.239-5-5v-9h24Z"/>
</svg>
