<?xml version="1.0" encoding="UTF-8"?>
<svg xmlns="http://www.w3.org/2000/svg" id="Layer_1" data-name="Layer 1" viewBox="0 0 24 24">
  <path d="M3,3c0-1.105,.895-2,2-2s2,.895,2,2-.895,2-2,2-2-.895-2-2Zm9,2c1.381,0,2.5-1.119,2.5-2.5s-1.119-2.5-2.5-2.5-2.5,1.119-2.5,2.5,1.119,2.5,2.5,2.5Zm7,0c1.105,0,2-.895,2-2s-.895-2-2-2-2,.895-2,2,.895,2,2,2Zm-6.999,19s0,0,0,0c0,0,0,0,0,0,0,0,0,0,0,0s0,0,0,0c0,0,0,0,0,0,0,0,0,0,0,0-6.252,0-11.389-4.691-11.95-10.91-.049-.55,.356-1.036,.906-1.086,.563-.048,1.037,.356,1.086,.906,.065,.725,.213,1.422,.419,2.09h3.44c-.159-.616-.283-1.249-.347-1.903-.054-.55,.349-1.039,.898-1.092,.553-.05,1.039,.349,1.092,.898,.07,.722,.227,1.422,.434,2.097h8.044c.207-.675,.364-1.375,.434-2.097,.053-.55,.54-.949,1.092-.898,.55,.053,.952,.542,.898,1.092-.063,.654-.188,1.287-.347,1.903h3.44c.207-.668,.354-1.365,.419-2.09,.05-.55,.526-.956,1.086-.906,.55,.05,.956,.536,.906,1.086-.561,6.219-5.698,10.909-11.95,10.91Zm-3.223-7c1.023,2.079,2.409,3.723,3.221,4.586,.813-.863,2.198-2.507,3.221-4.586h-6.443Zm.627,4.657c-.944-1.169-2.037-2.769-2.829-4.657H3.332c1.308,2.283,3.48,3.972,6.073,4.657Zm11.263-4.657h-3.244c-.792,1.889-1.885,3.488-2.829,4.657,2.593-.685,4.765-2.374,6.073-4.657Zm-11.668-7h6c.677,.019,1.191-.724,.937-1.351-.594-1.585-2.176-2.649-3.937-2.649s-3.343,1.064-3.937,2.649c-.255,.626,.26,1.37,.937,1.351Zm-7,0H6.179c-.233-.657-.239-1.383,.011-2.052,.198-.528,.477-1.01,.807-1.451-.602-.314-1.282-.497-1.997-.497-1.761,0-3.343,1.064-3.937,2.649-.255,.626,.26,1.37,.937,1.351Zm15.003-3.503c.329,.441,.609,.923,.807,1.451,.25,.669,.244,1.394,.011,2.052h4.18c.677,.019,1.191-.724,.937-1.351-.594-1.585-2.176-2.649-3.937-2.649-.715,0-1.396,.183-1.997,.497Z"/>
</svg>
