<?xml version="1.0" encoding="UTF-8"?>
<svg xmlns="http://www.w3.org/2000/svg" id="Layer_1" data-name="Layer 1" viewBox="0 0 24 24">
  <path d="m8.556,10.926c1.076,0,1.708-.636,2.184-1.537.469-.889.667-2.071.544-3.244-.229-2.194-1.483-3.669-3.119-3.669-.007,0-.015,0-.022,0-.056-.204-.09-.413-.1-.622-.021-.459.04-.916.126-1.311.09-.414-.401-.708-.723-.432-.709.607-1.486,1.553-1.403,2.743.013.188.04.383.09.583-.087.103-.168.214-.243.332-.489.772-.691,1.837-.569,2.998.243,2.332,1.665,4.158,3.236,4.158Zm7.109-.013c1.571,0,2.993-1.827,3.236-4.158.121-1.16-.081-2.224-.569-2.998-.105-.165-.221-.316-.349-.452.031-.154.049-.304.06-.45.083-1.191-.694-2.137-1.403-2.743-.322-.276-.813.018-.723.432.086.395.147.852.126,1.311-.009.205-.042.41-.097.61-1.572.062-2.785,1.523-3.009,3.667-.123,1.174.076,2.356.544,3.244.475.901,1.151,1.537,2.184,1.537Zm-10.663,3.68c.425-.807.605-1.882.494-2.949-.209-1.995-1.487-3.331-2.975-3.331-.023,0-.012,0,0,0-.279-.434-.45-.947-.473-1.457-.021-.459.04-.916.126-1.311.09-.414-.401-.708-.723-.432C.743,5.719-.034,6.665.049,7.856c.032.465.188,1.097.544,1.63,0,0,.002-.004,0,0-.444.702-.628,1.67-.518,2.726.222,2.12,1.514,3.78,2.942,3.78.923,0,1.553-.579,1.986-1.398Zm-2.481-6.28s0,0,0,0c.012,0,.024,0,0,0Zm20.117-3.202c-.322-.276-.813.018-.723.432.086.395.147.852.126,1.311-.023.516-.198,1.035-.482,1.472-1.553-.097-2.748,1.276-2.961,3.326-.111,1.065.068,2.138.494,2.944.432.818.95,1.395,1.981,1.395,1.425,0,2.715-1.658,2.936-3.773.106-1.007-.059-1.934-.461-2.627.285-.545.465-1.327.493-1.736.083-1.191-.694-2.137-1.403-2.743Zm-10.597,7.892c-4.187,0-8,3.575-8,7.5,0,2.159,1.221,3.5,3.188,3.5.74,0,1.434-.226,2.167-.464.811-.264,1.649-.536,2.645-.536s1.834.272,2.645.536c.734.238,1.427.464,2.167.464,1.966,0,3.188-1.341,3.188-3.5,0-3.925-3.813-7.5-8-7.5Z"/>
</svg>
