<?xml version="1.0" encoding="UTF-8"?>
<svg xmlns="http://www.w3.org/2000/svg" id="Layer_1" data-name="Layer 1" viewBox="0 0 24 24">
  <path d="m4,19.872l-3.354-3.461c-.713-.715-.88-1.87-.276-2.68.63-.845,1.741-1.031,2.584-.561.201.131.353.245.441.333l.605.615v5.753ZM19,2.5c0-.828-.672-1.5-1.5-1.5s-1.5.672-1.5,1.5v8.5h3V2.5Zm5,2c0-.828-.672-1.5-1.5-1.5s-1.5.672-1.5,1.5v6.5h3v-6.5Zm-5.797,12.186l-2.227,2.105,5.049,4.773c.986-.438,1.789-1.192,2.315-2.126l-5.137-4.752Zm5.797-3.686h-1.898l-2.442,2.309,4.31,3.987c.006-.1.03-.195.03-.296v-6Zm-18,0v5.502l5.947-5.502h-5.947Zm13.192,0h-4.3l-8.892,8.226v.675c.668.61,1.431,1.091,2.249,1.444l10.943-10.344ZM14,1.5c0-.828-.672-1.5-1.5-1.5s-1.5.672-1.5,1.5v9.5h3V1.5Zm.521,18.666l-4,3.781c.287.032.575.052.866.052h7.189l-4.055-3.834Zm-5.521-9.166V3.58c0-.747-.511-1.44-1.248-1.56-.94-.153-1.752.568-1.752,1.479v7.5h3Z"/>
</svg>
