<?xml version="1.0" encoding="UTF-8"?>
<svg xmlns="http://www.w3.org/2000/svg" id="Layer_1" data-name="Layer 1" viewBox="0 0 24 24">
  <path d="M12,0c-2.761,0-5,2.239-5,5s2.239,5,5,5,5-2.239,5-5S14.761,0,12,0Zm.005,6.367c.266,.346,.605,.587,.973,.727,.353,.134,.353,.635-.006,.755-.344,.115-.715,.169-1.104,.146-1.508-.088-2.736-1.314-2.821-2.822-.097-1.735,1.281-3.173,2.995-3.173,.323,0,.632,.052,.922,.148,.363,.12,.371,.622,.013,.758-.368,.14-.707,.381-.973,.727-.615,.799-.615,1.934,0,2.733Zm6.164,1.94c-.614,1.143-1.539,2.091-2.659,2.742,.163-.016,.322-.049,.489-.049,2.757,0,5,2.242,5,5s-2.243,5-5,5-5-2.242-5-5c0-1.7,.856-3.2,2.156-4.103-.377,.063-.761,.103-1.156,.103-2.67,0-4.989-1.495-6.169-3.693-3.359,.949-5.831,4.035-5.831,7.693,0,4.411,3.589,8,8,8h8c4.411,0,8-3.589,8-8,0-3.658-2.472-6.744-5.831-7.693Z"/>
</svg>
