<?xml version="1.0" encoding="UTF-8"?>
<svg xmlns="http://www.w3.org/2000/svg" id="Layer_1" data-name="Layer 1" viewBox="0 0 24 24">
  <path d="M8,24h-3.5c-2.481,0-4.5-2.019-4.5-4.5V4.5C0,2.019,2.019,0,4.5,0h3.5c.552,0,1,.448,1,1s-.448,1-1,1h-3.5c-1.378,0-2.5,1.122-2.5,2.5v15c0,1.379,1.122,2.5,2.5,2.5h3.5c.552,0,1,.447,1,1s-.448,1-1,1Zm8.096-2.814l6.746-6.347c.008-.007,.015-.015,.022-.021,1.546-1.548,1.545-4.067-.027-5.641l-6.746-6.281c-.867-.868-2.111-1.118-3.246-.651-1.134,.467-1.841,1.519-1.846,2.75v2.054l-2-.005c-2.191,0-3.974,1.783-3.974,3.974v1.982c0,2.191,1.783,3.974,3.963,3.974l2.037,.022v2.074c.006,1.227,.714,2.277,1.849,2.744,.38,.156,.772,.232,1.158,.232,.765,0,1.503-.299,2.064-.861Zm6.061-7.075h0Z"/>
</svg>
