<?xml version="1.0" encoding="UTF-8"?>
<svg xmlns="http://www.w3.org/2000/svg" id="Layer_1" data-name="Layer 1" viewBox="0 0 24 24">
  <path d="m24,21c0,1.657-1.343,3-3,3s-3-1.343-3-3,1.343-3,3-3,3,1.343,3,3Zm-5-13.79v-1.085c0-3.377-2.748-6.125-6.125-6.125-3.029,0-5.573,2.171-6.05,5.163l-2.679,16.837H1c-.553,0-1,.447-1,1s.447,1,1,1h3.146c.989,0,1.819-.709,1.975-1.686l2.679-16.837c.321-2.015,2.035-3.478,4.075-3.478,2.274,0,4.125,1.851,4.125,4.125v.875h-1c-1.654,0-3,1.346-3,3v11c0,1.654,1.346,3,3,3h1.023c-.633-.838-1.023-1.869-1.023-3,0-2.761,2.239-5,5-5,1.131,0,2.162.39,3,1.023v-3.398c0-3.092-2.131-5.688-5-6.415Z"/>
</svg>
