<?xml version="1.0" encoding="UTF-8"?>
<svg xmlns="http://www.w3.org/2000/svg" id="Layer_1" data-name="Layer 1" viewBox="0 0 24 24">
  <path d="m17.4,10.3v3.4c0,.386-.314.7-.7.7s-.7-.314-.7-.7v-3.4c0-.386.314-.7.7-.7s.7.314.7.7Zm-9.4,2.3h-.9v1.8h.9c.496,0,.9-.404.9-.9s-.404-.9-.9-.9Zm.4-2.3c0-.386-.314-.7-.7-.7h-.6v1.4h.6c.386,0,.7-.314.7-.7Zm15.6,1.7c0,6.617-5.383,12-12,12S0,18.617,0,12,5.383,0,12,0s12,5.383,12,12Zm-14.401-.406c.264-.386.414-.855.4-1.36-.036-1.268-1.171-2.234-2.439-2.234h-1.06c-.552,0-1,.448-1,1v6c0,.552.448,1,1,1h1.374c1.249,0,2.395-.86,2.593-2.094.15-.932-.227-1.774-.868-2.312Zm3.401-2.794c0-.442-.358-.8-.8-.8s-.8.358-.8.8v6.4c0,.442.358.8.8.8s.8-.358.8-.8v-6.4Zm6,1.5c0-1.269-1.031-2.3-2.3-2.3s-2.3,1.031-2.3,2.3v3.4c0,1.269,1.031,2.3,2.3,2.3s2.3-1.031,2.3-2.3v-3.4Z"/>
</svg>
