<?xml version="1.0" encoding="UTF-8"?>
<svg xmlns="http://www.w3.org/2000/svg" id="Layer_1" data-name="Layer 1" viewBox="0 0 24 24">
  <path d="m23.707,22.293l-2.537-2.537c.524-.791.83-1.738.83-2.756,0-2.757-2.243-5-5-5s-5,2.243-5,5,2.243,5,5,5c1.018,0,1.965-.306,2.756-.83l2.537,2.537c.195.195.451.293.707.293s.512-.098.707-.293c.391-.391.391-1.023,0-1.414ZM19,0H5C2.243,0,0,2.243,0,5v2h24v-2c0-2.757-2.243-5-5-5ZM4.5,5c-.828,0-1.5-.672-1.5-1.5s.672-1.5,1.5-1.5,1.5.672,1.5,1.5-.672,1.5-1.5,1.5Zm4,0c-.828,0-1.5-.672-1.5-1.5s.672-1.5,1.5-1.5,1.5.672,1.5,1.5-.672,1.5-1.5,1.5Zm15.498,12.129c0-.043.002-.086.002-.129,0,.043,0,.086-.002.129ZM0,9h24v8c0-3.86-3.14-7-7-7s-7,3.14-7,7c0,1.957.807,3.729,2.106,5h-7.106c-2.757,0-5-2.243-5-5v-8Z"/>
</svg>
