<?xml version="1.0" encoding="UTF-8"?>
<svg xmlns="http://www.w3.org/2000/svg" id="Layer_1" data-name="Layer 1" viewBox="0 0 24 24">
  <path d="m21,12.113v-6.035l1.293,1.293c.195.195.451.293.707.293s.512-.098.707-.293c.391-.391.391-1.023,0-1.414l-2.427-2.428c-.706-.702-1.854-.704-2.561,0l-2.426,2.427c-.391.391-.391,1.023,0,1.414s1.023.391,1.414,0l1.293-1.293v4.196c-1.581-1.152-3.436-1.919-5.417-2.173-.194-.025-.388-.028-.583-.043V3.078l1.293,1.293c.195.195.451.293.707.293s.512-.098.707-.293c.391-.391.391-1.023,0-1.414l-2.427-2.428c-.705-.702-1.854-.704-2.561,0l-2.426,2.427c-.391.391-.391,1.023,0,1.414s1.023.391,1.414,0l1.293-1.293v4.969c-2.162.184-4.236.947-6,2.213v-4.182l1.293,1.293c.195.195.451.293.707.293s.512-.098.707-.293c.391-.391.391-1.023,0-1.414l-2.427-2.428c-.705-.702-1.854-.704-2.561,0L.293,5.957c-.391.391-.391,1.023,0,1.414s1.023.391,1.414,0l1.293-1.293v6.001C1.084,14.258,0,17.188,0,20.121c.022,2.139,1.818,3.879,4.001,3.879h15.994c2.188,0,3.984-1.749,4.003-3.899.011-1.292-.197-2.586-.619-3.847-.518-1.551-1.341-2.95-2.381-4.141Zm-3.318,3.569l-3.768,3.769c.051.176.086.358.086.55,0,1.105-.895,2-2,2s-2-.895-2-2,.895-2,2-2c.164,0,.321.025.474.062l3.795-3.795c.391-.391,1.023-.391,1.414,0s.391,1.023,0,1.414Z"/>
</svg>
