<?xml version="1.0" encoding="UTF-8"?>
<svg xmlns="http://www.w3.org/2000/svg" id="Layer_1" data-name="Layer 1" viewBox="0 0 24 24">
  <path d="M15.567,8.056l-2.568,2.116V5.633s2.463,2.187,2.544,2.261,.023,.161,.023,.162Zm-2.568,5.769v4.542s2.478-2.19,2.547-2.264,.025-.158-.002-.182l-2.545-2.097Zm11-1.825c0,6.617-5.383,12-12,12S0,18.617,0,12,5.383,0,12,0s12,5.383,12,12Zm-6.413,4.01c0-.606-.262-1.185-.743-1.609l-2.916-2.402,2.936-2.419c.95-.797,.953-2.378,.009-3.18l-3.401-3.023c-.437-.387-1.063-.483-1.595-.245-.533,.239-.876,.771-.876,1.354v5.102l-2.864-2.359c-.426-.351-1.057-.291-1.408,.136-.351,.426-.29,1.057,.136,1.408l3.918,3.227-3.918,3.229c-.426,.351-.487,.981-.136,1.407,.352,.427,.981,.488,1.407,.136l2.864-2.36v5.103c-.039,1.241,1.566,1.965,2.471,1.109l3.405-3.026c.452-.403,.712-.982,.711-1.588Z"/>
</svg>
