<?xml version="1.0" encoding="UTF-8"?>
<svg xmlns="http://www.w3.org/2000/svg" id="Layer_1" data-name="Layer 1" viewBox="0 0 24 24">
  <path d="m14.966,7.089c.149.451-.218.911-.709.911h-4.515c-.491,0-.858-.46-.709-.911.4-1.212,1.577-2.089,2.966-2.089s2.566.878,2.966,2.089Zm-2.966-3.089c1.105,0,2-.895,2-2s-.895-2-2-2-2,.895-2,2,.895,2,2,2ZM3,9c-1.39,0-2.566.878-2.966,2.089-.149.451.218.911.709.911h4.515c.491,0,.858-.46.709-.911-.4-1.212-1.577-2.089-2.966-2.089Zm0-1c1.105,0,2-.895,2-2s-.895-2-2-2-2,.895-2,2,.895,2,2,2Zm18,3c-1.39,0-2.566.878-2.966,2.089-.149.451.218.911.709.911h4.515c.491,0,.858-.46.709-.911-.4-1.212-1.577-2.089-2.966-2.089Zm0-1c1.105,0,2-.895,2-2s-.895-2-2-2-2,.895-2,2,.895,2,2,2Zm-5.5,2.5v9c0,1.381-1.119,2.5-2.5,2.5h-2c-1.381,0-2.5-1.119-2.5-2.5v-9c0-1.381,1.119-2.5,2.5-2.5h2c1.381,0,2.5,1.119,2.5,2.5Zm8.5,6v3c0,1.381-1.119,2.5-2.5,2.5h-1.5c-1.381,0-2.5-1.119-2.5-2.5v-3c0-1.381,1.119-2.5,2.5-2.5h1.5c1.381,0,2.5,1.119,2.5,2.5Zm-17.5-2v5c0,1.381-1.119,2.5-2.5,2.5h-1.5c-1.381,0-2.5-1.119-2.5-2.5v-5c0-1.381,1.119-2.5,2.5-2.5h1.5c1.381,0,2.5,1.119,2.5,2.5Z"/>
</svg>
