<?xml version="1.0" encoding="UTF-8"?>
<svg xmlns="http://www.w3.org/2000/svg" id="Layer_1" data-name="Layer 1" viewBox="0 0 24 24">
  <path d="m21,6h-13c-1.657,0-3,1.343-3,3v3c0,1.657,1.343,3,3,3h13c1.657,0,3-1.343,3-3v-3c0-1.657-1.343-3-3-3Zm-10.13,5.234c.312.312.312.819,0,1.132-.156.156-.36.234-.565.234s-.409-.078-.565-.234l-.734-.734-.734.734c-.156.156-.36.234-.565.234s-.409-.078-.565-.234c-.312-.312-.312-.819,0-1.132l.734-.734-.734-.734c-.312-.312-.312-.819,0-1.132.312-.312.818-.312,1.131,0l.734.734.734-.734c.312-.312.818-.312,1.131,0,.312.312.312.819,0,1.132l-.734.734.734.734Zm5.495,0c.312.312.312.819,0,1.132-.156.156-.36.234-.565.234s-.409-.078-.565-.234l-.734-.734-.734.734c-.156.156-.36.234-.565.234s-.409-.078-.565-.234c-.312-.312-.312-.819,0-1.132l.734-.734-.734-.734c-.312-.312-.312-.819,0-1.132.312-.312.818-.312,1.131,0l.734.734.734-.734c.312-.312.818-.312,1.131,0,.312.312.312.819,0,1.132l-.734.734.734.734Zm5.531,0c.312.312.312.819,0,1.131-.156.156-.36.234-.565.234s-.409-.078-.565-.234l-.735-.735-.735.735c-.156.156-.36.234-.565.234s-.409-.078-.565-.234c-.312-.312-.312-.819,0-1.131l.734-.734-.734-.734c-.312-.312-.312-.819,0-1.131s.818-.313,1.131,0l.735.735.735-.735c.312-.312.818-.312,1.131,0s.312.819,0,1.131l-.734.734.734.734ZM0,19c0,2.757,2.243,5,5,5h6c2.757,0,5-2.243,5-5v-2H0v2Zm4.026-4H0V5C0,2.243,2.243,0,5,0h6c1.988,0,3.695,1.175,4.5,2.86v-.004c.024.049.054.094.076.144.14.318.247.653.319,1h-7.895c-2.757,0-5,2.243-5,5v3c0,1.13.391,2.162,1.026,3Zm4.974,6h-2c-.552,0-1-.448-1-1h0c0-.552.448-1,1-1h2c.552,0,1,.448,1,1h0c0,.552-.448,1-1,1Z"/>
</svg>
