<?xml version="1.0" encoding="UTF-8"?>
<svg xmlns="http://www.w3.org/2000/svg" id="Layer_1" data-name="Layer 1" viewBox="0 0 24 24">
  <path d="m19,0H5C2.243,0,0,2.243,0,5v14c0,2.757,2.243,5,5,5h14c2.757,0,5-2.243,5-5V5c0-2.757-2.243-5-5-5ZM5.5,20c-.828,0-1.5-.672-1.5-1.5s.672-1.5,1.5-1.5,1.5.672,1.5,1.5-.672,1.5-1.5,1.5Zm0-13c-.828,0-1.5-.672-1.5-1.5s.672-1.5,1.5-1.5,1.5.672,1.5,1.5-.672,1.5-1.5,1.5Zm6.5,12c-.828,0-1.5-.672-1.5-1.5s.672-1.5,1.5-1.5,1.5.672,1.5,1.5-.672,1.5-1.5,1.5Zm1.93-6.495c-.521.287-.93.944-.93,1.495s-.447,1-1,1-1-.447-1-1c0-1.274.808-2.609,1.963-3.247.844-.465,1.382-1.576.778-2.802-.145-.295-.397-.547-.692-.692-.991-.487-1.743-.183-2.104.041-.592.369-.945,1.004-.945,1.7,0,.553-.447,1-1,1s-1-.447-1-1c0-1.392.706-2.662,1.889-3.398,1.213-.756,2.688-.805,4.042-.138.693.341,1.264.91,1.605,1.604,1.004,2.04.313,4.377-1.606,5.437Zm4.57,7.495c-.828,0-1.5-.672-1.5-1.5s.672-1.5,1.5-1.5,1.5.672,1.5,1.5-.672,1.5-1.5,1.5Zm0-13c-.828,0-1.5-.672-1.5-1.5s.672-1.5,1.5-1.5,1.5.672,1.5,1.5-.672,1.5-1.5,1.5Z"/>
</svg>
