<?xml version="1.0" encoding="UTF-8"?>
<svg xmlns="http://www.w3.org/2000/svg" id="Layer_1" data-name="Layer 1" viewBox="0 0 24 24">
  <path d="m5,18h17v1c0,2.761-2.239,5-5,5H5c-1.657,0-3-1.343-3-3s1.343-3,3-3ZM22,5v11H5c-.203,0-.406.02-.605.061-.87.104-1.696.437-2.395.964V4.973c0-2.744,2.224-4.973,4.967-4.973h10.033c2.761,0,5,2.239,5,5Zm-6,2c0-.552-.448-1-1-1h-2v-2c0-.552-.448-1-1-1s-1,.448-1,1v2h-2c-.552,0-1,.448-1,1s.448,1,1,1h2v4c0,.552.448,1,1,1s1-.448,1-1v-4h2c.552,0,1-.448,1-1Z"/>
</svg>
