<?xml version="1.0" encoding="UTF-8"?>
<svg xmlns="http://www.w3.org/2000/svg" id="Layer_1" data-name="Layer 1" viewBox="0 0 24 24">
  <path d="M22,24h-6.146c-1.738,0-3.398-.764-4.556-2.096-3.156-3.635-5.98-6.04-7.557-6.435-2.343-.585-3.742-2.179-3.742-4.263,0-1.775,1.028-2.626,1.854-3.31,.488-.404,.949-.786,1.242-1.355L5.988,.554C6.155,.208,6.505-.012,6.889-.012h.001l9.111,.012c.342,0,.66,.176,.843,.465s.206,.651,.06,.961l-3.242,6.889c-.291,.617-.222,1.356,.185,1.977,.731,1.119,1.336,2.351,1.977,3.655,.931,1.895,1.893,3.854,3.359,5.71,.17,.216,.453,.344,.756,.344h2.06c1.103,0,2,.897,2,2s-.897,2-2,2Z"/>
</svg>
