<?xml version="1.0" encoding="UTF-8"?>
<svg xmlns="http://www.w3.org/2000/svg" id="Layer_1" data-name="Layer 1" viewBox="0 0 24 24">
  <path d="M15.535,1.464c-1.863-1.939-5.207-1.939-7.07,0-1.946,1.873-1.941,5.215,.018,7.088l1.752,1.714c.973,.953,2.559,.952,3.531,0l1.77-1.73c1.94-1.861,1.94-5.211,0-7.072Zm-3.535,5.036c-.828,0-1.5-.672-1.5-1.5s.672-1.5,1.5-1.5,1.5,.672,1.5,1.5-.672,1.5-1.5,1.5Zm11.923,11.634l-1.553-8.827c-.308-1.75-1.729-3.052-3.455-3.263-.219,1.473-.893,2.834-1.966,3.907l-1.785,1.746c-.604,.591-1.353,.983-2.165,1.165v2.139c0,.552-.448,1-1,1s-1-.448-1-1v-2.139c-.812-.182-1.561-.574-2.164-1.165l-1.751-1.713c-1.095-1.092-1.777-2.462-1.998-3.94-1.732,.207-3.159,1.513-3.466,3.268L.096,18.018c-.677,3.014,1.891,6.079,4.904,5.982h13.916c3.087,.14,5.62-2.963,5.007-5.866Zm-10.924,2.866c0,.552-.448,1-1,1s-1-.448-1-1v-2c0-.552,.448-1,1-1s1,.448,1,1v2Z"/>
</svg>
