<?xml version="1.0" encoding="UTF-8"?>
<svg xmlns="http://www.w3.org/2000/svg" id="Layer_1" data-name="Layer 1" viewBox="0 0 24 24">
  <path d="m5,18h17v1c0,2.761-2.239,5-5,5H5c-1.657,0-3-1.343-3-3s1.343-3,3-3ZM15.261,5.034c-.429-.111-.738.07-.922.241-.349.322-.877.356-1.262.08-.649-.465-1.503-.465-2.152,0-.386.276-.915.242-1.262-.08-.145-.135-.367-.275-.664-.275-.081,0-.167.011-.259.034-.356.093-.652.406-.72.762-.078.417.098.706.21.842.191.23.472.362.771.362.552,0,1,.447,1,1v2.5c0,.275.224.5.5.5h3c.276,0,.5-.225.5-.5v-2.5c0-.553.448-1,1-1,.298,0,.579-.132.771-.362.112-.136.289-.425.21-.842-.067-.355-.363-.669-.72-.762Zm6.739-.034v11H5c-.203,0-.406.02-.605.061-.87.104-1.696.437-2.395.964V5C2,2.239,4.239,0,7,0h10c2.761,0,5,2.239,5,5Zm-4.054.425c-.208-1.106-1.086-2.042-2.182-2.326h0c-.749-.195-1.505-.101-2.159.258-1.008-.469-2.2-.469-3.208,0-.654-.357-1.409-.451-2.16-.258-1.096.284-1.974,1.22-2.183,2.326-.168.892.064,1.799.636,2.489.352.424.805.737,1.31.915v1.671c0,1.379,1.122,2.5,2.5,2.5h3c1.378,0,2.5-1.121,2.5-2.5v-1.671c.505-.178.958-.491,1.31-.915.572-.69.804-1.598.636-2.489Z"/>
</svg>
