<?xml version="1.0" encoding="UTF-8"?>
<svg xmlns="http://www.w3.org/2000/svg" id="Layer_1" data-name="Layer 1" viewBox="0 0 24 24">
  <path d="M7,19.5c0,1.753,.7,3.342,1.832,4.513h-2.302c-2.516,0-4.648-1.882-4.961-4.378l-.958-7.634H7.701l.608,.608c-.818,1.086-1.31,2.43-1.31,3.892v3Zm2-.5v.5c0,2.485,2.015,4.5,4.5,4.5h6c.063,0,.121-.016,.183-.018l-4.982-4.982h-5.701ZM.749,5.048C.104,5.734-.13,6.743,.056,7.569l.305,2.431H5.701L.749,5.048Zm8.251,11.452v.5h3.701l-2.962-2.962c-.464,.708-.739,1.552-.739,2.462Zm15,0c0-2.485-2.015-4.5-4.5-4.5h-6.086l-2-2h5.223l.291-2.333c.199-.894-.015-1.815-.587-2.53-.572-.714-1.426-1.124-2.341-1.124h-2.365l-.558,5.649-1.834-1.834,.377-3.815h2.013l.142-1.137c.062-.5,.489-.876,.992-.876h3.234c.552,0,1-.448,1-1s-.448-1-1-1h-3.234c-1.51,0-2.79,1.13-2.977,2.628l-.173,1.385H5.427L1.707,.293C1.316-.098,.684-.098,.293,.293S-.098,1.316,.293,1.707L22.293,23.707c.391,.391,1.023,.391,1.414,0s.391-1.023,0-1.414l-.406-.406c.436-.693,.699-1.508,.699-2.387v-.5h-3.586l-2-2h5.586v-.5Z"/>
</svg>
