<?xml version="1.0" encoding="UTF-8"?>
<svg xmlns="http://www.w3.org/2000/svg" id="Layer_1" data-name="Layer 1" viewBox="0 0 24 24">
  <path d="M7,9V5c0-.553,.448-1,1-1,0-1.654,1.346-3,3-3h2c1.654,0,3,1.346,3,3,.553,0,1,.447,1,1v4c0,.553-.447,1-1,1s-1-.447-1-1v-1h-6v1c0,.553-.448,1-1,1s-1-.447-1-1ZM3,6c1.381,0,2.5-1.119,2.5-2.5S4.381,1,3,1,.5,2.119,.5,3.5s1.119,2.5,2.5,2.5Zm6,6h-1.851l-1.293-2.903c-.668-1.517-1.711-2.197-3.161-2.085-1.511,.118-2.695,1.424-2.695,2.972v5.369c0,1.32,.809,2.528,2,2.966v4.681c0,.553,.448,1,1,1s1-.447,1-1v-4.675c.636-.225,1.186-.659,1.554-1.258,.225-.365,.105-.545-.17-.874l-.873-1.296c-.334-.495-.512-1.079-.512-1.676v-3.315l1.455,3.205c.241,.541,.778,.889,1.37,.889h2.175c.552,0,1-.447,1-1s-.448-1-1-1Zm12.305-4.988c-1.449-.112-2.492,.568-3.161,2.085l-1.293,2.903h-1.851c-.552,0-1,.447-1,1s.448,1,1,1h2.175c.592,0,1.129-.348,1.37-.889l1.455-3.205v3.35c.005,.574-.175,1.141-.496,1.617l-.889,1.319c-.275,.329-.394,.509-.17,.874,.368,.599,.918,1.033,1.554,1.258v4.675c0,.553,.448,1,1,1s1-.447,1-1v-4.681c1.191-.438,2-1.646,2-2.966v-5.369c0-1.548-1.184-2.854-2.695-2.972Zm-.305-1.012c1.381,0,2.5-1.119,2.5-2.5s-1.119-2.5-2.5-2.5-2.5,1.119-2.5,2.5,1.119,2.5,2.5,2.5Z"/>
</svg>
