<?xml version="1.0" encoding="UTF-8"?>
<svg xmlns="http://www.w3.org/2000/svg" id="Layer_1" data-name="Layer 1" viewBox="0 0 24 24">
  <path d="m22.204,2.162c-1.141-.953-2.629-1.348-4.157-1.069l-1.764.432c-1.902.347-3.283,2.002-3.283,3.936v15.467c-.664.097-1.336.097-2,0V5.461c0-1.934-1.381-3.589-3.226-3.923l-1.88-.457c-1.464-.263-2.956.128-4.099,1.081-1.142.953-1.796,2.352-1.796,3.838v10.792c0,2.417,1.727,4.486,4.105,4.919l6.285,1.143c.534.097,1.071.146,1.609.146s1.075-.048,1.609-.146l6.285-1.143c2.379-.433,4.105-2.502,4.105-4.919V6c0-1.487-.654-2.886-1.796-3.838ZM4.5,6c0-.552.448-1,1-1s1,.448,1,1v6c0,.552-.448,1-1,1s-1-.448-1-1v-6Zm1,12c-.828,0-1.5-.672-1.5-1.5s.672-1.5,1.5-1.5,1.5.672,1.5,1.5-.672,1.5-1.5,1.5Z"/>
</svg>
