<?xml version="1.0" encoding="UTF-8"?>
<svg xmlns="http://www.w3.org/2000/svg" id="Layer_1" data-name="Layer 1" viewBox="0 0 24 24">
  <path d="M14.999,18c-.506,0-.937-.381-.993-.89-.18-1.615-.85-3.11-4.506-3.11H4c-2.206,0-4-1.794-4-4v-1c0-2.206,1.794-4,4-4h5.5c3.656,0,4.326-1.495,4.506-3.11,.059-.527,.492-.918,1.05-.888,.529,.029,.944,.468,.944,.999v15c0,.531-.415,.969-.944,.999-.02,0-.038,.001-.057,.001Zm6.658-2.843c1.511-1.511,2.343-3.52,2.343-5.657s-.832-4.146-2.343-5.657c-.391-.391-1.023-.391-1.414,0-.391,.39-.391,1.023,0,1.414,1.133,1.133,1.757,2.64,1.757,4.243s-.624,3.109-1.757,4.243c-.391,.391-.391,1.024,0,1.414,.391,.391,1.023,.391,1.414,0Zm-2.94-2.536c1.721-1.721,1.721-4.521,0-6.242-.391-.391-1.023-.391-1.414,0s-.391,1.023,0,1.414c.941,.941,.941,2.473,0,3.414-.391,.391-.391,1.023,0,1.414s1.023,.391,1.414,0Zm-9.928,3.379H4c-.303,0-.599-.03-.89-.073l2.017,4.545c.412,.929,1.334,1.529,2.351,1.529,1.853,0,3.098-1.9,2.358-3.599l-1.046-2.401Z"/>
</svg>
