<?xml version="1.0" encoding="UTF-8"?>
<svg xmlns="http://www.w3.org/2000/svg" id="Layer_1" data-name="Layer 1" viewBox="0 0 24 24">
  <path d="m3.787.517c.069-.034.142-.059.213-.09v22.966l-.125.078c-.665.398-1.231.529-1.688.529-.476,0-.833-.142-1.061-.27-.432-.245-1.155-.876-1.155-2.356l.029-16.504C0,3.339.854,1.965,2.229,1.285l1.559-.769Zm20.213,3.985v13.206c0,2.418-1.727,4.487-4.105,4.919l-7.107,1.261c-.261.047-.524.073-.787.09V1.535L18.508.112c1.336-.306,2.723.013,3.799.872,1.076.858,1.693,2.141,1.693,3.518Zm-4.018,12.895c-.102-.543-.624-.896-1.167-.798l-4,.752c-.543.102-.9.624-.798,1.167.09.48.51.815.981.815.062,0,4.186-.77,4.186-.77.543-.102.9-.624.798-1.167Zm2.01-4.45c-.107-.542-.635-.899-1.175-.786l-6.012,1.192c-.542.107-.894.633-.786,1.175.094.477.512.806.979.806.064,0,6.207-1.212,6.207-1.212.542-.107.894-.633.786-1.175Zm0-4c-.107-.542-.635-.899-1.175-.786l-6.012,1.192c-.542.107-.894.633-.786,1.175.094.477.512.806.979.806.064,0,6.207-1.212,6.207-1.212.542-.107.894-.633.786-1.175Zm0-4c-.107-.542-.635-.899-1.175-.786l-6.012,1.192c-.542.107-.894.633-.786,1.175.094.477.512.806.979.806.064,0,6.207-1.212,6.207-1.212.542-.107.894-.633.786-1.175ZM6,.004v22.072l3.16,1.507c.275.1.556.179.84.243V1.399l-1.787-.882C7.521.175,6.76.004,6,.004Z"/>
</svg>
