<?xml version="1.0" encoding="UTF-8"?>
<svg xmlns="http://www.w3.org/2000/svg" id="Layer_1" data-name="Layer 1" viewBox="0 0 24 24">
  <path d="M7.799,0c-.308-.016-.681,.151-.968,.26-.597,.228-.999,.799-1,1.438,0,.468,.177,1.266-.024,1.34-.024,.009-.049,.013-.075,.013-.206,0-.454-.269-.674-.583-.222-.318-.577-.492-.937-.492-.213,0-.428,.061-.62,.188-.314,.209-.502,.561-.502,.938v2.396l-1.284,.963c-.45,.338-.716,.868-.716,1.431,0,.678,.383,1.297,.989,1.6,.417,.204,.953,.534,1.433,.506h2.578v1c0,.552,.448,1,1,1h1v1c0,.5,.5,1,1,1v1.257c0,.796,.316,1.559,.879,2.121l1.121,1.121v1s-.961,.586-1.5,1c-.586,.45-.673,1.315-.175,1.86,.354,.388,1.093,.94,1.502,1.271,.628,.509,1.55,.498,2.14-.07,.777-.749,1.878-2.416,2.322-4.16,.366-1.315,.856-2.232,2.212-2.401,.382-.048,2.5-1.383,2.5-4.5v-.5c.341-.341,1.489-1.12,2.269-1.758,.464-.38,.732-.947,.732-1.548v-.694c0-1.105-.895-2-2-2h0c-1.326-.994-2.794-1.783-4.355-2.338l-2.153-.766,.004-.616c.003-.487-.239-.942-.644-1.212-.243-.162-.523-.243-.802-.243-.306,0-.611,.097-.868,.289l-1.181,.886h-1l-.92-1.329C8.782,.241,8.299,0,7.799,0h0Z"/>
</svg>
