<?xml version="1.0" encoding="UTF-8"?>
<svg xmlns="http://www.w3.org/2000/svg" id="Layer_1" data-name="Layer 1" viewBox="0 0 24 24">
  <path d="M21,6h-3c0-3.309-2.691-6-6-6S6,2.691,6,6H3c-1.654,0-3,1.346-3,3v10c0,2.757,2.243,5,5,5h3.122l-1.047-1.024c-2.749-2.749-2.753-7.193-.023-9.923,1.318-1.321,3.075-2.05,4.945-2.05s3.632,.728,4.953,2.05c2.729,2.729,2.729,7.17,0,9.899l-1.071,1.048h3.122c2.757,0,5-2.243,5-5V9c0-1.654-1.346-3-3-3Zm-13,0c0-2.206,1.794-4,4-4s4,1.794,4,4H8Zm7.535,8.467c-.944-.944-2.199-1.464-3.534-1.464h-.005c-1.335,0-2.589,.52-3.531,1.464-1.949,1.949-1.949,5.122,.008,7.079l1.781,1.742c.481,.471,1.113,.706,1.746,.706s1.265-.235,1.746-.706l1.789-1.75c1.949-1.949,1.949-5.122,0-7.071Zm-3.535,5.033c-.828,0-1.5-.672-1.5-1.5s.672-1.5,1.5-1.5,1.5,.672,1.5,1.5-.672,1.5-1.5,1.5Z"/>
</svg>
