<?xml version="1.0" encoding="UTF-8"?>
<svg xmlns="http://www.w3.org/2000/svg" id="Layer_1" data-name="Layer 1" viewBox="0 0 24 24">
  <path d="m11,14L2.442,22.302c-.837-.721-1.502-1.633-1.925-2.671l10.482-9.591v3.96Zm-3-8H3c-1.657,0-3,1.343-3,3v1.479l2.674-2.479h2.81L0,13.191v4.178c.013.006.006.003.019.008L10.66,7.641c-.497-.97-1.495-1.641-2.66-1.641Zm1-6H2v4h7V0Zm14,19h-5v-1h4c.553,0,1-.447,1-1s-.447-1-1-1h-4v-1.186l.612-.623c.48-.465.52-1.222.091-1.735-.428-.511-1.18-.607-1.723-.214l-2.077,1.758h-.819l-1.728,1.641,3.644,3.366v2.747l-5.097-4.733-2.293,2.178,5.17,4.801h7.219c.553,0,1-.447,1-1s-.447-1-1-1h-3v-1h5c.553,0,1-.447,1-1s-.447-1-1-1Zm-18.815,4.404c.862.381,1.814.596,2.815.596h3.842l-3.684-3.42-2.973,2.824Z"/>
</svg>
