<?xml version="1.0" encoding="UTF-8"?>
<svg xmlns="http://www.w3.org/2000/svg" id="Layer_1" data-name="Layer 1" viewBox="0 0 24 24">
  <path d="m24,8v-2c0-2.757-2.243-5-5-5H5C2.243,1,0,3.243,0,6v2h24ZM8.5,3c.828,0,1.5.672,1.5,1.5s-.672,1.5-1.5,1.5-1.5-.672-1.5-1.5.672-1.5,1.5-1.5Zm-4,0c.828,0,1.5.672,1.5,1.5s-.672,1.5-1.5,1.5-1.5-.672-1.5-1.5.672-1.5,1.5-1.5ZM0,10v8c0,2.757,2.243,5,5,5h14c2.757,0,5-2.243,5-5v-8H0Zm12,7c0,1.654-1.346,3-3,3s-3-1.346-3-3v-3c0-.553.448-1,1-1s1,.447,1,1v3c0,.552.449,1,1,1s1-.448,1-1v-3c0-.553.448-1,1-1s1,.447,1,1v3Zm5.857,1.485c.284.474.131,1.088-.343,1.372-.161.097-.338.143-.514.143-.34,0-.671-.173-.858-.485l-.643-1.071-.643,1.071c-.188.312-.519.485-.858.485-.175,0-.353-.046-.514-.143-.474-.284-.627-.898-.343-1.372l1.191-1.985-1.191-1.985c-.284-.474-.131-1.088.343-1.372.474-.285,1.088-.131,1.372.343l.643,1.071.643-1.071c.284-.474.898-.628,1.372-.343.474.284.627.898.343,1.372l-1.191,1.985,1.191,1.985Z"/>
</svg>
