<?xml version="1.0" encoding="UTF-8"?>
<svg xmlns="http://www.w3.org/2000/svg" id="Layer_1" data-name="Layer 1" viewBox="0 0 24 24">
  <path d="m13.5,12c0,.828-.672,1.5-1.5,1.5s-1.5-.672-1.5-1.5.672-1.5,1.5-1.5,1.5.672,1.5,1.5Zm6.383,4.591c.365,2.816-.251,4.947-1.754,5.895-.541.341-1.169.513-1.854.513-.357,0-.729-.047-1.113-.141-1.014-.25-2.09-.82-3.165-1.651-1.53,1.183-3.003,1.793-4.283,1.793-.675,0-1.295-.17-1.843-.514-1.559-.983-2.126-3.173-1.768-5.924C1.497,15.45,0,13.812,0,12,0,10.117,1.57,8.492,4.117,7.409c-.365-2.816.251-4.947,1.755-5.895.822-.518,1.848-.647,2.965-.372,1.017.25,2.097.824,3.176,1.659,2.332-1.799,4.536-2.281,6.116-1.288,1.559.983,2.126,3.173,1.767,5.924,2.608,1.113,4.104,2.751,4.104,4.562,0,1.883-1.57,3.508-4.117,4.591Zm-5.66-.703c.391-.555.767-1.138,1.117-1.74.42-.723.781-1.441,1.098-2.147-.327-.723-.69-1.445-1.098-2.149-.365-.629-.743-1.199-1.126-1.742-.722-.07-1.465-.11-2.215-.11-.771,0-1.513.041-2.224.112-.39.554-.766,1.136-1.117,1.74-.419.722-.781,1.44-1.097,2.145.326.722.687,1.444,1.098,2.151.365.629.743,1.199,1.125,1.742.724.07,1.467.11,2.215.11.771,0,1.512-.041,2.224-.112Zm-.705-11.727c1.266,1.272,2.488,2.856,3.551,4.687.115.197.216.4.325.599.915-3.088.751-5.558-.333-6.241-.756-.477-2.072-.107-3.543.955Zm-7.47,2.582c1.735-.474,3.754-.743,5.951-.743.18,0,.358.01.538.014-1.558-1.679-3.076-2.658-4.179-2.93-.586-.145-1.064-.104-1.421.122-.739.465-1.052,1.783-.889,3.537Zm-1.544,7.816c.25-.941.594-1.923,1.026-2.928,0-.002.002-.004.003-.006.394-.914.853-1.843,1.396-2.778.059-.102.128-.193.188-.293-3.108.752-5.118,2.151-5.118,3.445,0,.876.943,1.819,2.505,2.559Zm5.974,5.278c-1.266-1.272-2.487-2.856-3.55-4.686-.115-.198-.216-.4-.325-.6-.915,3.089-.751,5.559.333,6.243.759.477,2.07.104,3.541-.957Zm7.471-2.581c-1.735.474-3.754.743-5.951.743-.18,0-.359-.01-.538-.014,1.558,1.679,3.076,2.659,4.179,2.93.585.146,1.064.103,1.422-.121.738-.466,1.051-1.784.888-3.538Zm4.049-5.257c0-.876-.943-1.819-2.505-2.56-.478,1.8-1.285,3.748-2.424,5.712-.059.101-.128.193-.188.293,3.108-.752,5.118-2.151,5.118-3.445Z"/>
</svg>
