<?xml version="1.0" encoding="UTF-8"?>
<svg xmlns="http://www.w3.org/2000/svg" id="Layer_1" data-name="Layer 1" viewBox="0 0 24 24">
  <path d="m21.93,11.648c-.319-4.296-2.991-4.648-3.846-4.648-1.823,0-3.761,1.238-4.047,4.635-.65-.45-1.394-.646-2.119-.646-.857,0-3.537.354-3.848,4.67-1.2.393-2.069,1.522-2.069,2.851,0,1.202.725,2.804,1.407,3.7.38.502.961.789,1.593.789s1.213-.287,1.593-.788c.683-.897,1.407-2.499,1.407-3.701,0-1.278-.803-2.371-1.931-2.802.109-1.379.55-2.719,1.848-2.719,1.343,0,2.083,1.251,2.083,3.521v6.489c0,.553.447,1,1,1s1-.447,1-1v-10.478c0-2.271.74-3.522,2.083-3.522,1.291,0,1.734,1.327,1.846,2.698-1.127.432-1.929,1.525-1.929,2.802,0,1.206.736,2.819,1.429,3.725.377.493.949.775,1.571.775s1.194-.282,1.571-.775c.692-.905,1.429-2.519,1.429-3.725,0-1.33-.87-2.46-2.07-2.852Zm-17.113.922l-2.244,1.296c-.157.091-.329.134-.499.134-.346,0-.682-.179-.867-.5-.276-.479-.112-1.09.366-1.366l2.243-1.295c-.096-.271-.172-.551-.224-.839H1c-.553,0-1-.447-1-1s.447-1,1-1h2.589s.001-.004.003-.005c.05-.269.119-.531.206-.784-.004-.008-.006-.015-.004-.02l-2.242-1.275c-.48-.272-.648-.883-.375-1.363.271-.48.881-.649,1.363-.375l2.239,1.272s.01-.004.021,0c.188-.222.393-.429.613-.619-.001-.012.001-.022.008-.027l-1.288-2.23c-.276-.479-.112-1.09.366-1.366.477-.276,1.089-.113,1.366.366l1.29,2.234c.005-.002.012,0,.019.004.264-.093.538-.166.819-.218.002-.002.004-.003.006-.003V1c0-.553.447-1,1-1s1,.447,1,1v2.591c.276.051.545.122.805.212l1.28-2.252c.271-.48.881-.649,1.363-.375.48.272.648.883.375,1.363l-1.28,2.253s0,0,0,0c.22.186.426.388.615.606h0s2.272-1.268,2.272-1.268c.481-.274,1.091-.106,1.365.371.274.479.107,1.091-.371,1.365l-2.242,1.289s.002.006.003.009c-.714.379-1.3.962-1.628,1.857-.211-.022-.426-.034-.642-.034-2.161,0-4.73,1.298-5.584,4.821-.577-.32-1.09-.741-1.516-1.239,0,0,0,0-.001-.001Z"/>
</svg>
