<?xml version="1.0" encoding="UTF-8"?>
<svg xmlns="http://www.w3.org/2000/svg" id="Layer_1" data-name="Layer 1" viewBox="0 0 24 24">
  <path d="m11.998,4c0-1.068.415-2.073,1.171-2.828s1.761-1.172,2.829-1.172h4c2.204,0,3.999,1.793,4,3.999h0s-12,.001-12,.001Zm0,2v3.724c.001.251-.091.491-.26.675l-3.344,3.667c-2.109,2.636-1.796,6.469.696,8.544,1.077.896,2.439,1.39,3.837,1.39,1.835,0,3.544-.821,4.663-2.222l4.212-4.861c1.418-1.637,2.198-3.731,2.197-5.897v-5.021h-12.001Zm-2.001-2c0-1.493.547-2.898,1.537-4h-2.533c-1.068,0-2.073.416-2.829,1.172s-1.171,1.76-1.171,2.828h4.996Zm-3.165,8.816l3.167-3.479-.002-3.337h-4.996v3.724c.001.251-.091.491-.26.675l-3.344,3.667c-2.109,2.636-1.796,6.469.696,8.544,1.077.896,2.439,1.39,3.837,1.39.517,0,1.021-.072,1.508-.197-2.974-2.828-3.281-7.644-.606-10.987Z"/>
</svg>
