<?xml version="1.0" encoding="UTF-8"?>
<svg xmlns="http://www.w3.org/2000/svg" id="Layer_1" data-name="Layer 1" viewBox="0 0 24 24">
  <path d="M24,8.996v12.854c.053,1.662-1.983,2.755-3.339,1.789l-3.964-2.644h-5.697c-1.45,0-2.747-.631-3.661-1.62l.569-.38h6.092c3.859,0,7-3.14,7-7V4.996c0-.193-.014-.383-.029-.573,1.776,.767,3.029,2.519,3.029,4.573ZM14-.004H5C2.243-.004,0,2.239,0,4.996v12.854c-.053,1.663,1.983,2.754,3.34,1.788l3.963-2.643h6.697c2.757,0,5-2.243,5-5V4.996C19,2.239,16.757-.004,14-.004ZM7.7,7.7c.442,0,.8,.358,.8,.8s-.358,.8-.8,.8h-1.101v1.101h1.101c.442,0,.8,.358,.8,.8s-.358,.8-.8,.8h-1.7c-.552,0-1-.448-1-1V6c0-.552,.448-1,1-1h1.7c.442,0,.8,.358,.8,.8s-.358,.8-.8,.8h-1.101v1.101h1.101Zm4.428,4.356c-1.168,0-2.234-.917-2.352-1.022-.33-.294-.36-.799-.066-1.129,.294-.332,.799-.36,1.129-.067,.271,.238,.864,.619,1.289,.619,.075,0,.739-.015,.739-.534,0-.253-.308-.44-1.042-.792-.815-.39-1.933-.925-1.933-2.208,0-1.172,.939-2.056,2.185-2.056,.938,0,1.877,.757,2.056,.908,.337,.286,.378,.791,.092,1.128-.285,.336-.788,.377-1.126,.093-.298-.25-.791-.53-1.021-.53-.06,0-.585,.013-.585,.457,0,.256,.405,.469,1.024,.765,.823,.394,1.95,.934,1.95,2.235,0,1.386-1.205,2.133-2.339,2.133Z"/>
</svg>
