<?xml version="1.0" encoding="UTF-8"?>
<svg xmlns="http://www.w3.org/2000/svg" id="Layer_1" data-name="Layer 1" viewBox="0 0 24 24">
  <path d="M15.761,13c-.672-1.029-1.221-2.03-1.632-3.026,.489-.066,.871-.468,.871-.974,0-.552-.447-1-1-1h-.526c-.327-1.283-.474-2.596-.474-4v-1c.553,0,1-.448,1-1s-.447-1-1-1c0-.552-.447-1-1-1s-1,.448-1,1c-.553,0-1,.448-1,1s.447,1,1,1v1c0,1.404-.147,2.716-.474,4h-.526c-.553,0-1,.448-1,1,0,.506,.382,.908,.87,.974-.41,.996-.96,1.997-1.632,3.026h7.523Z"/>
  <path d="M22.414,20.586c-.005-.005-.01-.01-.016-.015-1.293-1.238-2.408-2.382-3.398-3.472v-1.098c0-.552-.447-1-1-1H6c-.553,0-1,.448-1,1v1.097c-.994,1.095-2.115,2.244-3.414,3.489-.378,.378-.586,.88-.586,1.414,0,1.103,.897,2,2.002,2l3.091-.006c.487,0,.902-.353,.984-.833,.407-2.411,2.479-4.161,4.923-4.161s4.516,1.75,4.923,4.161c.082,.48,.497,.832,.984,.833l3.093,.006c1.103,0,2-.897,2-2,0-.534-.208-1.036-.586-1.414Z"/>
</svg>
