<?xml version="1.0" encoding="UTF-8"?>
<svg xmlns="http://www.w3.org/2000/svg" id="Layer_1" data-name="Layer 1" viewBox="0 0 24 24">
  <path d="m18,8H6c0-2.968,2.166-5.439,5-5.916V1c0-.552.448-1,1-1h0c.552,0,1,.448,1,1v1.084c2.834.477,5,2.948,5,5.916Zm0,8v6h1c.552,0,1,.448,1,1h0c0,.552-.448,1-1,1H5c-.552,0-1-.448-1-1h0c0-.552.448-1,1-1h1v-6h-.5c-.828,0-1.5-.672-1.5-1.5h0c0-.828.672-1.5,1.5-1.5h.5v-3h12v3h.5c.828,0,1.5.672,1.5,1.5h0c0,.828-.672,1.5-1.5,1.5h-.5Zm-4.5-1.5c0-.828-.672-1.5-1.5-1.5s-1.5.672-1.5,1.5.672,1.5,1.5,1.5,1.5-.672,1.5-1.5Z"/>
</svg>
