<?xml version="1.0" encoding="UTF-8"?>
<svg xmlns="http://www.w3.org/2000/svg" id="Layer_1" data-name="Layer 1" viewBox="0 0 24 24">
  <path d="M19.6,3.474c-2.605-.314-5.162-.474-7.6-.474s-4.995,.159-7.6,.474C1.892,3.777,0,5.912,0,8.439v7.121c0,2.527,1.892,4.662,4.4,4.966,2.605,.314,5.162,.474,7.6,.474s4.995-.159,7.6-.474c2.508-.304,4.4-2.438,4.4-4.966v-7.121c0-2.527-1.892-4.662-4.4-4.966ZM7.628,14.425c-.126,.647-.687,1.575-1.628,1.575s-1.51-.97-1.618-1.531l-1.175-5.504c-.106-.497,.273-.966,.781-.966,.377,0,.702,.263,.781,.632l1.177,5.503c.014,.072,.034,.129,.054,.172,.02-.047,.042-.109,.057-.187l1.079-5.476c.074-.374,.402-.644,.784-.644h.038c.505,0,.884,.463,.783,.958l-1.113,5.467Zm4.872-1.425h-1v2.25c0,.414-.336,.75-.75,.75s-.75-.336-.75-.75v-6.5c0-.414,.336-.75,.75-.75h1.75c1.381,0,2.5,1.119,2.5,2.5s-1.119,2.5-2.5,2.5Zm8.5,2.082c0,.507-.411,.918-.918,.918-.355,0-.678-.205-.83-.526l-1.751-3.705v3.481c0,.414-.336,.75-.75,.75s-.75-.336-.75-.75v-6.329c0-.508,.413-.919,.921-.916,.354,.002,.674,.207,.824,.528l1.755,3.749v-3.532c0-.414,.336-.75,.75-.75s.75,.336,.75,.75v6.332Zm-7.5-4.582c0,.551-.449,1-1,1h-1v-2h1c.551,0,1,.449,1,1Z"/>
</svg>
