<?xml version="1.0" encoding="UTF-8"?>
<svg xmlns="http://www.w3.org/2000/svg" id="Layer_1" data-name="Layer 1" viewBox="0 0 24 24">
  <path d="m19.083,10.292c-.446-.395-.849-.332-1.083.215-.937,2.191-.549,5.492-2.37,5.492-.676,0-.896-1.534-1.104-2.035-.25-.6-.741-.669-1.062-.103-.582,1.03-1.465,3-1.465,4.139,0,3.192,2.492,5.802,5.637,5.989,2.234.133,4.327-1.147,5.484-3.063,2.698-4.467-1.438-8.333-4.038-10.636Zm.439,11.005c-.802.936-2.242.936-3.044,0-.693-.81-.558-2.046.195-2.8l.77-1.096c.308-.308.807-.308,1.115,0l.769,1.097c.753.754.888,1.99.195,2.8Zm4.478-10.298h-1.286c-.84-.904-1.681-1.652-2.305-2.205-.968-.858-1.92-.804-2.4-.697-.477.107-1.35.46-1.848,1.623-.179.418-.311.849-.423,1.279h-2.738v-4h11v4Zm0-6h-6V0h1c2.757,0,5,2.243,5,5Zm-12.344,8c-.285.52-1.231,2.333-1.549,4h-2.107v-4h3.656Zm-5.656,4H0v-4h6v4Zm10-12h-8V0h8v5Zm-5,16.858v2.142h-6c-2.757,0-5-2.243-5-5h10.07c.128,1.024.45,1.989.93,2.858ZM6,5H0C0,2.243,2.243,0,5,0h1v5Zm5,6H0v-4h11v4Z"/>
</svg>
