<?xml version="1.0" encoding="UTF-8"?>
<svg xmlns="http://www.w3.org/2000/svg" id="Layer_1" data-name="Layer 1" viewBox="0 0 24 24">
  <path d="m0,9h6v15h-2.5c-1.933,0-3.5-1.567-3.5-3.5v-11.5Zm10.58,3.966l10.796.034c1.61-1.221,2.624-2.925,2.624-4.419,0-3.824-3.985-5.181-6.329-6.478,0,0-.432-.192-.603-1.202-.088-.519-.542-.902-1.069-.902h0c-.523,0-.979.375-1.067.891-.18,1.056-.655,1.243-.655,1.243-2.351,1.288-6.277,2.653-6.277,6.448,0,1.479.996,3.168,2.58,4.385ZM4.005.441C3.469-.147,2.531-.147,1.995.441c-.872.957-1.995,2.487-1.995,4.017v2.542h6v-2.542c0-1.53-1.123-3.06-1.995-4.017Zm3.995,23.559h4v-4.5c0-.828.672-1.5,1.5-1.5s1.5.672,1.5,1.5v3.5c0,.552.448,1,1,1h0c.552,0,1-.448,1-1v-3.5c0-.828.672-1.5,1.5-1.5s1.5.672,1.5,1.5v4.5h.5c1.933,0,3.5-1.567,3.5-3.5v-3.5c0-1.105-.895-2-2-2h-12c-1.105,0-2,.895-2,2v7Z"/>
</svg>
