<?xml version="1.0" encoding="UTF-8"?>
<svg xmlns="http://www.w3.org/2000/svg" id="Layer_1" data-name="Layer 1" viewBox="0 0 24 24">
  <path d="M23.707,23.707c-.195,.195-.451,.293-.707,.293s-.512-.098-.707-.293l-2.54-2.54c-.791,.524-1.736,.833-2.753,.833-2.757,0-5-2.243-5-5s2.243-5,5-5,5,2.243,5,5c0,1.017-.309,1.962-.833,2.753l2.54,2.54c.391,.391,.391,1.023,0,1.414ZM9,12c3.309,0,6-2.691,6-6S12.309,0,9,0,3,2.691,3,6s2.691,6,6,6Zm1,5c0-1.01,.218-1.967,.603-2.834-.522-.097-1.053-.166-1.603-.166C4.043,14,.009,18.028,0,22.983c-.001,.557,.443,1.017,1,1.017H17c-3.866,0-7-3.134-7-7Z"/>
</svg>
