<?xml version="1.0" encoding="UTF-8"?>
<svg xmlns="http://www.w3.org/2000/svg" id="Layer_1" data-name="Layer 1" viewBox="0 0 24 24">
  <path d="m17.91,7c-.478,2.833-2.942,5-5.91,5s-5.431-2.167-5.91-5h11.819Zm.006-2c-.167-.979-.573-1.877-1.154-2.636l-3.912,2.636h5.066Zm-8.464,0L15.283.984c-.944-.62-2.072-.984-3.283-.984-2.967,0-5.431,2.167-5.91,5h3.362Zm5.548,18c0-.552-.448-1-1-1h-1.28l-1.973-7.892c-3.816.605-6.747,3.908-6.747,7.892,0,.97.701,2,2,2h8c.552,0,1-.448,1-1Zm-2.21-8.96l1.497,5.989c1.518.147,2.712,1.415,2.712,2.971,0,.352-.072.686-.184,1h2.184c.553,0,1-.447,1-1v-1c0-4.144-3.168-7.562-7.21-7.96Z"/>
</svg>
