<?xml version="1.0" encoding="UTF-8"?>
<svg xmlns="http://www.w3.org/2000/svg" id="Layer_1" data-name="Layer 1" viewBox="0 0 24 24">
  <path d="m22.204,2.162c-1.141-.953-2.629-1.348-4.157-1.069l-1.764.432c-1.902.347-3.283,2.002-3.283,3.936v15.467c-.664.097-1.336.097-2,0V5.461c0-1.934-1.381-3.589-3.226-3.923l-1.88-.457c-1.464-.263-2.956.128-4.099,1.081-1.142.953-1.796,2.352-1.796,3.838v10.792c0,2.417,1.727,4.486,4.105,4.919l6.285,1.143c.534.097,1.071.146,1.609.146s1.075-.048,1.609-.146l6.285-1.143c2.379-.433,4.105-2.502,4.105-4.919V6c0-1.487-.654-2.886-1.796-3.838Zm-13.684,9.032l-2.211,2.193c-.796.823-2.118.817-2.905-.015l-1.131-1.175c-.367-.387-.364-.995.006-1.379.395-.411,1.054-.408,1.445.006l1.138,1.183,2.22-2.202c.391-.405,1.04-.407,1.433-.004.378.387.38,1.004.004,1.394Zm12.687,1.599c.391.391.391,1.023,0,1.414-.195.195-.451.293-.707.293s-.512-.098-.707-.293l-1.293-1.293-1.293,1.293c-.195.195-.451.293-.707.293s-.512-.098-.707-.293c-.391-.391-.391-1.023,0-1.414l1.293-1.293-1.293-1.293c-.391-.391-.391-1.023,0-1.414s1.023-.391,1.414,0l1.293,1.293,1.293-1.293c.391-.391,1.023-.391,1.414,0s.391,1.023,0,1.414l-1.293,1.293,1.293,1.293Z"/>
</svg>
