<?xml version="1.0" encoding="UTF-8"?>
<svg xmlns="http://www.w3.org/2000/svg" id="Layer_1" data-name="Layer 1" viewBox="0 0 24 24">
  <path d="m8,13.71v-2.844l3,1.714v3.424l-2.496-1.426c-.311-.178-.504-.511-.504-.868Zm4.498-5.999c-.153-.088-.325-.132-.498-.132s-.345.044-.498.132l-2.49,1.43,2.988,1.708,2.988-1.708-2.491-1.43Zm-5.426.321c.139-.118.274-.241.435-.333l3-1.723c.922-.529,2.065-.529,2.987,0l3.001,1.723c.161.092.296.215.434.333l4.418-2.525c-.253-.257-.541-.484-.863-.667l-6.5-3.715c-1.225-.699-2.745-.699-3.968,0h0l-6.5,3.715c-.321.183-.609.41-.863.667l4.419,2.525Zm3.928,10.195c-.166-.059-.334-.111-.489-.199l-3-1.714c-.933-.533-1.512-1.531-1.512-2.604v-3.409c0-.183.039-.359.072-.537L1.65,7.237c-.097.346-.15.707-.15,1.075v7.375c0,1.432.772,2.763,2.016,3.473l6.5,3.715c.312.178.643.31.984.397v-5.044Zm6.928-8.464c.033.177.072.353.072.537v3.409c0,1.073-.579,2.071-1.511,2.604l-3.001,1.714c-.155.089-.323.141-.488.199v5.044c.341-.087.672-.219.984-.397l6.5-3.715c1.243-.711,2.016-2.041,2.016-3.473v-7.375c0-.368-.053-.729-.15-1.075l-4.422,2.527Zm-1.928,3.946v-2.844l-3,1.714v3.424l2.496-1.426c.311-.178.504-.511.504-.868Z"/>
</svg>
