<?xml version="1.0" encoding="UTF-8"?>
<svg xmlns="http://www.w3.org/2000/svg" id="Layer_1" data-name="Layer 1" viewBox="0 0 24 24">
  <path d="M24,1.238V3.892c0,.612-.496,1.108-1.108,1.108h-2.654c-.656,0-.984-.793-.521-1.257l.959-.959c-.613-.503-1.38-.784-2.197-.784-1.918,0-3.479,1.561-3.479,3.479s1.561,3.478,3.479,3.478c1.15,0,2.226-.568,2.875-1.52,.312-.456,.934-.573,1.391-.262,.456,.312,.573,.934,.262,1.39-1.023,1.498-2.716,2.392-4.527,2.392-3.021,0-5.479-2.458-5.479-5.478S15.458,0,18.479,0c1.358,0,2.624,.492,3.614,1.367l.65-.65c.464-.464,1.257-.135,1.257,.521ZM12,15.422c.768,0,1.537-.292,2.122-.876l1.954-1.954c-2.951-1.009-5.076-3.799-5.076-7.092,0-.878,.159-1.717,.436-2.5H5c-1.806,0-3.377,.972-4.256,2.411L9.878,14.546c.585,.584,1.353,.876,2.122,.876Zm6.5-2.422s-.003,0-.004,0l-2.96,2.96c-.975,.975-2.255,1.462-3.536,1.462s-2.561-.487-3.536-1.462L.046,7.542c-.014,.153-.046,.301-.046,.458v11c0,2.757,2.243,5,5,5h14c2.757,0,5-2.243,5-5l-.014-8.397c-1.369,1.471-3.317,2.397-5.486,2.397Z"/>
</svg>
