<?xml version="1.0" encoding="UTF-8"?>
<svg xmlns="http://www.w3.org/2000/svg" id="Layer_1" data-name="Layer 1" viewBox="0 0 24 24">
  <path d="m20.608,6.017c-.42-.296-.943-.443-1.449-.517.506-.074,1.029-.222,1.449-.517.725-.51,1.141-1.444,1.359-2.117.137-.421-.173-.855-.615-.864-.72-.015-1.761.07-2.491.583-.545.384-.909,1.005-1.152,1.577-.778-2.412-3.042-4.162-5.709-4.162-3.309,0-6,2.691-6,6s2.691,6,6,6c2.897,0,5.321-2.064,5.879-4.798.236.458.552.911.982,1.214.729.514,1.771.598,2.491.583.443-.009.752-.443.615-.864-.219-.674-.635-1.607-1.359-2.117Zm-6.624.983h-4c-.828,0-1.5-.672-1.5-1.5s.672-1.5,1.5-1.5h4c.828,0,1.5.672,1.5,1.5s-.672,1.5-1.5,1.5Zm-1.99,13.903c-1.64-2.294-2.853-4.473-3.635-6.018,1.094-.562,2.329-.885,3.641-.885s2.536.321,3.626.878c-.711,1.497-1.871,3.63-3.631,6.025Zm7.006,3.097h-4.546c-.42-.474-.823-.953-1.207-1.436,1.945-2.568,3.236-4.869,4.051-6.542,1.653,1.467,2.701,3.599,2.701,5.977v1c0,.553-.447,1-1,1Zm-12.307-7.97c1.038,2.029,2.752,5.012,5.141,7.97h-6.835c-.553,0-1-.447-1-1v-1c0-2.374,1.046-4.504,2.693-5.97Z"/>
</svg>
