<?xml version="1.0" encoding="UTF-8"?>
<svg xmlns="http://www.w3.org/2000/svg" id="Layer_1" data-name="Layer 1" viewBox="0 0 24 24">
  <path d="m21.815,17.5c-.07,0-.143-.005-.215-.014-2.384-.303-6.601-.54-9.601-.54s-7.217.237-9.601.54c-.665.083-1.296-.226-1.648-.809-.364-.604-.339-1.366.064-1.943.033-.048.07-.093.112-.134l2.718-2.72-3.033-2.151c-.064-.045-.123-.099-.175-.158-.43-.492-.555-1.181-.323-1.799.221-.593.739-1.014,1.352-1.099,2.313-.319,7.208-.674,10.534-.674s8.221.355,10.533.674c.613.085,1.132.506,1.353,1.099.231.618.106,1.307-.323,1.799-.052.059-.11.112-.175.158l-3.033,2.151,2.718,2.72c.042.042.079.086.112.134.403.577.429,1.34.064,1.943-.314.52-.85.822-1.434.822Z"/>
</svg>
