<?xml version="1.0" encoding="UTF-8"?>
<svg xmlns="http://www.w3.org/2000/svg" id="Layer_1" data-name="Layer 1" viewBox="0 0 24 24">
  <path d="M1.5,3.5c0-1.381,1.119-2.5,2.5-2.5s2.5,1.119,2.5,2.5-1.119,2.5-2.5,2.5S1.5,4.881,1.5,3.5Zm7.5,15.5v-2H3v3c0,.107-.017,.214-.051,.316l-1,3c-.174,.529-.755,.806-1.265,.632-.524-.174-.807-.74-.632-1.265l.949-2.846V10c0-1.637,1.318-2.971,2.948-2.999,.017,0,.034-.001,.052-.001h4.671c.267,0,.519-.104,.708-.293l2.914-2.621s.011-.006,.016-.01c.804-2.366,3.043-4.076,5.678-4.076,3.309,0,6,2.691,6,6s-2.691,6-6,6c-2.977,0-5.448-2.182-5.914-5.029l-1.279,1.151c-.566,.566-1.32,.879-2.122,.879h-2.671v6h3c1.103,0,2,.897,2,2v2c0,.553-.448,1-1,1s-1-.447-1-1Zm13.43-5.821l-13,9.021c-.454,.314-.566,.938-.251,1.392,.317,.456,.944,.564,1.392,.251l13-9.021c.454-.314,.566-.938,.251-1.392-.315-.453-.939-.568-1.392-.251Z"/>
</svg>
