<?xml version="1.0" encoding="UTF-8"?>
<svg xmlns="http://www.w3.org/2000/svg" id="Layer_1" data-name="Layer 1" viewBox="0 0 24 24">
  <path d="m21.288,18.029l-3.56-14.242c-.558-2.23-2.552-3.787-4.851-3.787h-.877c-.553,0-1,.448-1,1s.447,1,1,1h.877c1.379,0,2.576.935,2.911,2.272l1.908,7.631-3.27,3.996c-.571.7-1.418,1.101-2.321,1.101H1c-.553,0-1,.448-1,1s.447,1,1,1h.779c-.479.532-.779,1.228-.779,2,0,1.657,1.343,3,3,3s3-1.343,3-3c0-.772-.3-1.468-.779-2h5.883c1.506,0,2.916-.668,3.869-1.834l2.327-2.843,1.044,4.178c-.809.538-1.345,1.456-1.345,2.498,0,1.654,1.346,3,3,3s3-1.346,3-3c0-1.556-1.195-2.823-2.712-2.971Z"/>
</svg>
