<?xml version="1.0" encoding="UTF-8"?>
<svg xmlns="http://www.w3.org/2000/svg" id="Layer_1" data-name="Layer 1" viewBox="0 0 24 24">
  <path d="m13,9v2c0,.552-.448,1-1,1s-1-.448-1-1v-2c0-.552.448-1,1-1s1,.448,1,1Zm-1,4c-.552,0-1,.448-1,1s.448,1,1,1,1-.448,1-1-.448-1-1-1Zm10.46,4.882c-.811,1.44-2.645,1.954-4.085,1.145l-.574-.323c-.823.73-1.773,1.303-2.801,1.688v.608c0,1.654-1.346,3-3,3s-3-1.346-3-3v-.5c-1.094-.364-2.107-.938-2.988-1.691l-.387.218c-1.443.808-3.275.295-4.085-1.145-.811-1.442-.297-3.275,1.145-4.086l.329-.185c-.099-.536-.148-1.082-.148-1.631,0-.536.048-1.07.142-1.596l-.323-.181c-1.441-.811-1.955-2.644-1.145-4.086.393-.698,1.034-1.202,1.806-1.418.771-.217,1.582-.12,2.28.274l.359.202c.886-.765,1.909-1.347,3.015-1.716v-.461c0-1.654,1.346-3,3-3s3,1.346,3,3v.57c1.039.39,1.997.97,2.827,1.711l.548-.308c.697-.394,1.507-.493,2.279-.273.771.216,1.413.72,1.806,1.418.811,1.442.297,3.275-1.145,4.086l-.603.339c.077.475.115.955.115,1.438,0,.495-.041.988-.121,1.474l.608.342c1.442.811,1.956,2.644,1.145,4.086Zm-5.056-4.012l-4.181-7.167c-.547-.937-1.9-.937-2.447,0l-4.181,7.167c-.551.944.13,2.13,1.224,2.13h8.361c1.093,0,1.774-1.186,1.224-2.13Z"/>
</svg>
