<?xml version="1.0" encoding="UTF-8"?>
<svg xmlns="http://www.w3.org/2000/svg" id="Layer_1" data-name="Layer 1" viewBox="0 0 24 24">
  <path d="m12,4.75c-4.142,0-7.5,3.358-7.5,7.5s3.358,7.5,7.5,7.5,7.5-3.358,7.5-7.5-3.358-7.5-7.5-7.5Zm0,11.5c-.69,0-1.25-.56-1.25-1.25s.56-1.25,1.25-1.25,1.25.56,1.25,1.25-.56,1.25-1.25,1.25Zm2.204-3.455l-.028.028c-.255.254-.646.292-.956.109-.75-.442-1.69-.442-2.439,0-.31.183-.702.145-.956-.109l-.028-.028c-.356-.356-.295-.96.136-1.22,1.267-.765,2.87-.765,4.136,0,.431.26.492.864.136,1.22Zm1.786-1.786h0c-.281.28-.726.315-1.042.076-.845-.639-1.87-.985-2.948-.985s-2.103.346-2.948.985c-.316.239-.762.204-1.042-.076h0c-.346-.345-.302-.915.088-1.209,1.119-.844,2.476-1.301,3.902-1.301s2.783.457,3.902,1.301c.39.294.434.864.088,1.209Zm7.009,8.001c0,2.2-1.79,3.989-3.989,3.989-1.441,0-2.711-.792-3.413-1.962,2.456-1.009,4.39-3.02,5.311-5.519,1.244.682,2.091,1.997,2.091,3.492Zm-13.532,2.386c-.875,1.574-2.534,2.603-4.407,2.603-2.791,0-5.061-2.27-5.061-5.061,0-1.942,1.082-3.656,2.763-4.507.796,3.369,3.386,6.044,6.705,6.965ZM4,7c-1.657,0-3-1.343-3-3s1.343-3,3-3,3,1.343,3,3c0,.068-.016.132-.02.2-1.147.718-2.134,1.667-2.885,2.791-.032.001-.063.01-.095.01Zm20-3.312c0,2.037-1.651,3.688-3.688,3.688-.063,0-.123-.016-.185-.019-.848-1.403-2.043-2.572-3.473-3.379-.008-.097-.029-.19-.029-.29,0-2.037,1.651-3.688,3.688-3.688s3.688,1.651,3.688,3.688Z"/>
</svg>
