<?xml version="1.0" encoding="UTF-8"?>
<svg xmlns="http://www.w3.org/2000/svg" id="Layer_1" data-name="Layer 1" viewBox="0 0 24 24">
  <path d="m5.5,0c1.259,0,2.499.405,3.482.851,1.234.559,2.018,1.794,2.018,3.149h0s-11,0-11,0v-.003C0,2.641.786,1.404,2.022.846c.982-.443,2.22-.846,3.478-.846ZM1,24h0c.552,0,1-.448,1-1v-1h7v1c0,.552.448,1,1,1h0c.552,0,1-.448,1-1v-9h-2c-.552,0-1-.448-1-1h0c0-.552.448-1,1-1h2v-6H0v17c0,.552.448,1,1,1ZM18.5,0c-1.258,0-2.496.402-3.478.846-1.236.558-2.022,1.795-2.022,3.151v.003h11c0-1.355-.784-2.59-2.018-3.149-.983-.446-2.223-.851-3.482-.851Zm-4.5,24h0c.552,0,1-.448,1-1v-1h7v1c0,.552.448,1,1,1h0c.552,0,1-.448,1-1v-9h-2c-.552,0-1-.448-1-1h0c0-.552.448-1,1-1h2v-6h-11v17c0,.552.448,1,1,1Z"/>
</svg>
