<?xml version="1.0" encoding="UTF-8"?>
<svg xmlns="http://www.w3.org/2000/svg" id="Layer_1" data-name="Layer 1" viewBox="0 0 24 24">
  <path d="m17.265,8.379l-.983-.566c.129-.418.218-.853.218-1.313s-.089-.895-.218-1.313l.983-.566c.479-.275.644-.887.367-1.365-.275-.479-.886-.645-1.365-.367l-.977.563c-.605-.652-1.393-1.126-2.289-1.331v-1.121c0-.553-.447-1-1-1s-1,.447-1,1v1.121c-.896.205-1.685.678-2.289,1.331l-.977-.563c-.479-.277-1.091-.111-1.365.367-.276.479-.111,1.09.367,1.365l.983.566c-.129.418-.218.853-.218,1.313s.089.895.218,1.313l-.983.566c-.479.275-.644.887-.367,1.365.185.321.521.501.867.501.169,0,.341-.043.498-.134l.977-.563c.605.652,1.393,1.126,2.289,1.331v1.121c0,.553.447,1,1,1s1-.447,1-1v-1.121c.896-.205,1.685-.678,2.289-1.331l.977.563c.157.091.329.134.498.134.346,0,.683-.18.867-.501.276-.479.111-1.09-.367-1.365Zm-5.265-.379c-.827,0-1.5-.673-1.5-1.5s.673-1.5,1.5-1.5,1.5.673,1.5,1.5-.673,1.5-1.5,1.5ZM0,12v-2c0-2.206,1.794-4,4-4,.553,0,1,.447,1,1s-.447,1-1,1c-1.103,0-2,.897-2,2v2c0,.553-.447,1-1,1s-1-.447-1-1Zm24-2v2c0,.553-.447,1-1,1s-1-.447-1-1v-2c0-1.103-.897-2-2-2-.553,0-1-.447-1-1s.447-1,1-1c2.206,0,4,1.794,4,4Zm-8.5,13c0,.552-.448,1-1,1h-5c-.552,0-1-.448-1-1,0-1.5,1.737-3,3.5-3s3.5,1.5,3.5,3Zm-9,0c0,.552-.448,1-1,1H1c-.552,0-1-.448-1-1,.067-1.461,1.583-3,3.25-3s3.171,1.542,3.25,3Zm-.769-6.5c0,1.381-1.119,2.5-2.5,2.5s-2.5-1.119-2.5-2.5,1.119-2.5,2.5-2.5,2.5,1.119,2.5,2.5Zm3.769,0c0-1.381,1.119-2.5,2.5-2.5s2.5,1.119,2.5,2.5-1.119,2.5-2.5,2.5-2.5-1.119-2.5-2.5Zm8.769,0c0-1.381,1.119-2.5,2.5-2.5s2.5,1.119,2.5,2.5-1.119,2.5-2.5,2.5-2.5-1.119-2.5-2.5Zm5.731,6.5c0,.552-.448,1-1,1h-4.5c-.552,0-1-.448-1-1,.067-1.461,1.583-3,3.25-3s3.171,1.542,3.25,3Z"/>
</svg>
