<?xml version="1.0" encoding="UTF-8"?>
<svg xmlns="http://www.w3.org/2000/svg" id="Layer_1" data-name="Layer 1" viewBox="0 0 24 24">
  <path d="M19,4h-1.146c-.919-2.386-3.198-4-5.816-4S7.142,1.614,6.223,4h-1.223C2.239,4,0,6.239,0,9v2H24v-2c0-2.761-2.239-5-5-5ZM4.5,9c-.828,0-1.5-.672-1.5-1.5s.672-1.5,1.5-1.5,1.5,.672,1.5,1.5-.672,1.5-1.5,1.5ZM12.039,2c1.503,0,2.844,.782,3.602,2h-7.206c.759-1.218,2.1-2,3.603-2Zm-2.539,7c-.828,0-1.5-.672-1.5-1.5s.672-1.5,1.5-1.5,1.5,.672,1.5,1.5-.672,1.5-1.5,1.5Zm5,0c-.828,0-1.5-.672-1.5-1.5s.672-1.5,1.5-1.5,1.5,.672,1.5,1.5-.672,1.5-1.5,1.5Zm5,0c-.828,0-1.5-.672-1.5-1.5s.672-1.5,1.5-1.5,1.5,.672,1.5,1.5-.672,1.5-1.5,1.5ZM0,13v6c0,2.761,2.239,5,5,5h14c2.761,0,5-2.239,5-5v-6H0Zm3,3.5c0-.828,.672-1.5,1.5-1.5s1.5,.672,1.5,1.5-.672,1.5-1.5,1.5-1.5-.672-1.5-1.5Zm4,5.5c-.828,0-1.5-.672-1.5-1.5s.672-1.5,1.5-1.5,1.5,.672,1.5,1.5-.672,1.5-1.5,1.5Zm1-5.5c0-.828,.672-1.5,1.5-1.5s1.5,.672,1.5,1.5-.672,1.5-1.5,1.5-1.5-.672-1.5-1.5Zm4,5.5c-.828,0-1.5-.672-1.5-1.5s.672-1.5,1.5-1.5,1.5,.672,1.5,1.5-.672,1.5-1.5,1.5Zm2.5-4c-.828,0-1.5-.672-1.5-1.5s.672-1.5,1.5-1.5,1.5,.672,1.5,1.5-.672,1.5-1.5,1.5Zm3,4c-.828,0-1.5-.672-1.5-1.5s.672-1.5,1.5-1.5,1.5,.672,1.5,1.5-.672,1.5-1.5,1.5Zm2-4c-.828,0-1.5-.672-1.5-1.5s.672-1.5,1.5-1.5,1.5,.672,1.5,1.5-.672,1.5-1.5,1.5Z"/>
</svg>
