<?xml version="1.0" encoding="UTF-8"?>
<svg xmlns="http://www.w3.org/2000/svg" id="Layer_1" data-name="Layer 1" viewBox="0 0 24 24">
  <path d="m15.462,12.398c0,1.054-1.313,2.764-3.428,4.461-.041.033-.103.032-.144,0-2.115-1.698-3.428-3.408-3.428-4.462,0-.813.561-1.476,1.25-1.476.57,0,1.25.187,1.25,1.077,0,.553.448,1,1,1s1-.447,1-1c0-.891.68-1.077,1.25-1.077.689,0,1.25.662,1.25,1.476Zm8.538-2.675v9.276c0,2.757-2.243,5-5,5H5c-2.757,0-5-2.243-5-5v-9.276c0-1.665.824-3.214,2.204-4.145L9.203.855c1.699-1.146,3.895-1.146,5.594,0l5.203,3.511v-2.367c0-.553.447-1,1-1s1,.447,1,1v3.735c1.252.941,2,2.41,2,3.989Zm-6.538,2.675c0-1.916-1.458-3.476-3.25-3.476-.906,0-1.684.284-2.25.775-.567-.491-1.344-.775-2.25-.775-1.792,0-3.25,1.56-3.25,3.476,0,2.205,2.271,4.491,4.177,6.021.383.308.853.461,1.323.461s.94-.153,1.324-.462c1.905-1.529,4.177-3.815,4.177-6.021Z"/>
</svg>
