<?xml version="1.0" encoding="UTF-8"?>
<svg xmlns="http://www.w3.org/2000/svg" id="Layer_1" data-name="Layer 1" viewBox="0 0 24 24">
  <path d="m16,12c0-1.155-.878-2.099-2-2.225v-3.775c0-.553-.447-1-1-1s-1,.447-1,1c0,1.903-2.916,2-3.5,2H3.5c-1.93,0-3.5,1.57-3.5,3.5v1c0,1.93,1.57,3.5,3.5,3.5h5c.584,0,3.5.097,3.5,2,0,.553.448,1,1,1s1-.447,1-1v-3.775c1.122-.126,2-1.07,2-2.225Zm3.5-10.5c0-.828.672-1.5,1.5-1.5s1.5.672,1.5,1.5-.672,1.5-1.5,1.5-1.5-.672-1.5-1.5Zm1.5,7c.828,0,1.5.672,1.5,1.5s-.672,1.5-1.5,1.5-1.5-.672-1.5-1.5.672-1.5,1.5-1.5Zm0,11.5c-.828,0-1.5-.672-1.5-1.5s.672-1.5,1.5-1.5,1.5.672,1.5,1.5-.672,1.5-1.5,1.5Zm2.829,2.44c.207.307.228.702.054,1.028-.173.327-.513.531-.883.531h-4c-.37,0-.71-.204-.883-.531-.174-.326-.153-.722.054-1.028.609-.902,1.667-1.44,2.829-1.44s2.22.538,2.829,1.44Zm-5.712-15.972c-.174-.326-.153-.722.054-1.028.609-.902,1.667-1.44,2.829-1.44s2.22.538,2.829,1.44c.207.307.228.702.054,1.028-.173.327-.513.531-.883.531h-4c-.37,0-.71-.204-.883-.531Zm5.712,7.472c.207.307.228.702.054,1.028-.173.327-.513.531-.883.531h-4c-.37,0-.71-.204-.883-.531-.174-.326-.153-.722.054-1.028.609-.902,1.667-1.44,2.829-1.44s2.22.538,2.829,1.44Zm-16.019,7.138c.627,1.366-.371,2.921-1.874,2.921-.815,0-1.553-.48-1.884-1.224l-2.449-5.143c.61.234,1.269.368,1.961.368h2.833l1.413,3.079Z"/>
</svg>
