<?xml version="1.0" encoding="UTF-8"?>
<svg xmlns="http://www.w3.org/2000/svg" id="Layer_1" data-name="Layer 1" viewBox="0 0 24 24">
  <path d="m12.08,5H2C2,2.243,4.243,0,7,0h8.413c-1.768,1.061-3.027,2.876-3.334,5Zm1.92,5v11c0,1.657-1.343,3-3,3H3c-1.657,0-3-1.343-3-3v-11c0-1.657,1.343-3,3-3h8c1.657,0,3,1.343,3,3Zm-8,10h0c0-.552-.448-1-1-1h-1c-.552,0-1,.448-1,1h0c0,.552.448,1,1,1h1c.552,0,1-.448,1-1Zm0-4h0c0-.552-.448-1-1-1h-1c-.552,0-1,.448-1,1h0c0,.552.448,1,1,1h1c.552,0,1-.448,1-1Zm5,4h0c0-.552-.448-1-1-1h-1c-.552,0-1,.448-1,1h0c0,.552.448,1,1,1h1c.552,0,1-.448,1-1Zm0-4h0c0-.552-.448-1-1-1h-1c-.552,0-1,.448-1,1h0c0,.552.448,1,1,1h1c.552,0,1-.448,1-1Zm0-4v-1c0-.552-.448-1-1-1h-6c-.552,0-1,.448-1,1v1c0,.552.448,1,1,1h6c.552,0,1-.448,1-1ZM19,1c-2.757,0-5,2.243-5,5v.024c1.209.912,2,2.348,2,3.976v6.5l.01.003c.002.365.193.717.542.892l1,.5c.326.162.713.136,1.012-.069l1.767-1.209,2.17,1.25c.154.089.326.134.499.134s.346-.045.5-.134c.31-.179.5-.509.5-.866V6c0-2.757-2.243-5-5-5Z"/>
</svg>
