<?xml version="1.0" encoding="UTF-8"?>
<svg xmlns="http://www.w3.org/2000/svg" id="Layer_1" data-name="Layer 1" viewBox="0 0 24 24">
  <path d="M19,3h-6v-1c0-1.105,.895-2,2-2h2c1.105,0,2,.895,2,2v1Zm-4.261,2c.787,.952,1.261,2.172,1.261,3.5v.5h6v-.5c0-1.933-1.567-3.5-3.5-3.5h-3.761Zm-.739,3.5c0-1.933-1.567-3.5-3.5-3.5H5.5c-1.933,0-3.5,1.567-3.5,3.5v.5H14v-.5ZM9,0h-2c-1.105,0-2,.895-2,2v1h6v-1c0-1.105-.895-2-2-2Zm14.318,11.96c-.53-.61-1.297-.96-2.105-.96H2.784c-.808,0-1.574,.35-2.104,.96S-.088,13.379,.03,14.2l.981,5.016c.39,2.727,2.761,4.783,5.516,4.783h10.944c2.754,0,5.125-2.057,5.512-4.763l.988-5.056c.114-.801-.124-1.61-.654-2.22Zm-15.321,7.04c0,.553-.447,1-1,1s-1-.447-1-1v-4c0-.553,.447-1,1-1s1,.447,1,1v4Zm5,0c0,.553-.447,1-1,1s-1-.447-1-1v-4c0-.553,.447-1,1-1s1,.447,1,1v4Zm5,0c0,.553-.447,1-1,1s-1-.447-1-1v-4c0-.553,.447-1,1-1s1,.447,1,1v4Z"/>
</svg>
