<?xml version="1.0" encoding="UTF-8"?>
<svg xmlns="http://www.w3.org/2000/svg" id="Layer_1" data-name="Layer 1" viewBox="0 0 24 24">
  <path d="m16,7c-.552,0-1-.447-1-1v-1c0-.553.448-1,1-1s1,.447,1,1v1c0,.553-.448,1-1,1Zm-3-4v-1c0-.553-.448-1-1-1s-1,.447-1,1v1c0,.553.448,1,1,1s1-.447,1-1Zm6-1v-1c0-.553-.448-1-1-1s-1,.447-1,1v1c0,.553.448,1,1,1s1-.447,1-1Zm-12,0v-1c0-.553-.448-1-1-1s-1,.447-1,1v1c0,.553.448,1,1,1s1-.447,1-1Zm2,4v-1c0-.553-.448-1-1-1s-1,.447-1,1v1c0,.553.448,1,1,1s1-.447,1-1Zm12.423,1.385l2.5-6c.212-.51-.028-1.096-.538-1.308-.511-.215-1.096.028-1.308.538l-2.5,6c-.212.51.028,1.096.538,1.308.126.053.256.077.384.077.392,0,.764-.231.923-.615Zm-17.538.538c.51-.212.75-.798.538-1.308L1.923.615C1.711.105,1.127-.137.615.077.105.289-.135.875.077,1.385l2.5,6c.16.384.532.615.923.615.128,0,.258-.024.384-.077Zm6.444,11.077h3.343l.707-.707c.188-.188.442-.293.707-.293h5.914v-5c0-2.209-1.791-4-4-4h-4v4.1l1.086-1.086c.391-.39,1.023-.39,1.414,0,.391.391.39,1.024,0,1.414l-1.915,1.915c-.875.875-2.294.875-3.17,0l-1.915-1.915c-.391-.391-.391-1.024,0-1.414.391-.39,1.023-.391,1.414,0l1.086,1.086v-4.1h-4c-2.209,0-4,1.791-4,4v5h5.914c.265,0,.52.105.707.293l.707.707Zm10.564,1h-5.393s-.707.707-.707.707c-.188.188-.442.293-.707.293h-4.172c-.265,0-.52-.105-.707-.293l-.707-.707H3.107c-.996,0-1.92.681-2.08,1.664-.204,1.253.758,2.336,1.973,2.336h18c1.215,0,2.176-1.083,1.973-2.336-.16-.983-1.083-1.664-2.08-1.664Zm-7.893-13c0-.552-.448-1-1-1h0c-.552,0-1,.448-1,1v2h2v-2Z"/>
</svg>
