<?xml version="1.0" encoding="UTF-8"?>
<svg xmlns="http://www.w3.org/2000/svg" id="Layer_1" data-name="Layer 1" viewBox="0 0 24 24">
  <path d="M0,8v-1C0,4.243,2.243,2,5,2h1V1c0-.552,.448-1,1-1s1,.448,1,1v1h8V1c0-.552,.448-1,1-1s1,.448,1,1v1h1c2.757,0,5,2.243,5,5v1H0Zm19.5,8.5c0-.386-.314-.7-.7-.7h-1.95v1.4h1.95c.386,0,.7-.314,.7-.7Zm.5,3c0,.386-.314,.7-.7,.7h-2.45v-1.4h2.45c.386,0,.7,.314,.7,.7Zm-2-7.5c-3.314,0-6,2.686-6,6s2.686,6,6,6,6-2.686,6-6-2.686-6-6-6Zm1.243,9.8h-.443s0,.4,0,.4c0,.442-.358,.8-.8,.8h0c-.442,0-.8-.358-.8-.8v-.4h-1.15c-.442,0-.8-.358-.8-.8v-6c0-.442,.358-.8,.8-.8h1.15v-.4c0-.442,.358-.8,.8-.8h0c.442,0,.8,.358,.8,.8v.4c1.268,0,2.3,1.031,2.3,2.3,0,.446-.127,.863-.349,1.217,.525,.428,.859,1.084,.848,1.816-.018,1.267-1.089,2.267-2.356,2.267Zm-9.243-3.8c0-4.411,3.589-8,8-8H0v9c0,2.757,2.243,5,5,5h7.726c-1.667-1.467-2.726-3.61-2.726-6Z"/>
</svg>
