<?xml version="1.0" encoding="UTF-8"?>
<svg xmlns="http://www.w3.org/2000/svg" id="Layer_1" data-name="Layer 1" viewBox="0 0 24 24">
  <path d="m5.87,12l-1.426,7.551c-.642-.242-1.242-.577-1.781-.988l-.681,3.622c-.09.48-.51.815-.981.815-.062,0-.123-.005-.186-.017-.543-.102-.9-.625-.798-1.168l.958-5.097c-.448-.712-.772-1.512-.94-2.375-.111-.568.04-1.153.413-1.606.354-.43.863-.691,1.413-.731L3.463,3.498c.128-.648.56-1.176,1.156-1.422.508-.209,1.096.033,1.306.544.205.497-.021,1.064-.504,1.288l-1.523,8.093h1.973Zm15.248,1.301c1.364-.877,2.882-2.852,2.882-7.301,0-.552-.447-1-1-1s-1,.448-1,1c0,5.82-2.895,5.996-3,6h-3.892l1.162,2.591c.227.504,0,1.095-.503,1.322-.505.225-1.096,0-1.321-.503l-1.53-3.409h-5.011l-1.507,7.981c.168.012.338.019.509.019h9.599l1.082,2.41c.166.371.531.591.913.591.137,0,.275-.028.408-.088.504-.226.729-.818.503-1.322l-.714-1.59h3.302c1.299,0,2-1.03,2-2,0-1.929-1.227-3.611-2.882-4.699ZM4.018,21.814c-.103.543.254,1.066.797,1.168.062.012.125.018.187.018.472,0,.891-.334.981-.814l.416-2.204c-.68-.049-1.336-.197-1.954-.43l-.427,2.263ZM9.39,4.14l3.527,7.86h2.192l-3.99-8.893c-.364-.768-1.143-1.193-1.989-1.092-.845.104-1.498.71-1.667,1.555l-1.591,8.43h2.035l1.484-7.86Z"/>
</svg>
