<?xml version="1.0" encoding="UTF-8"?>
<svg xmlns="http://www.w3.org/2000/svg" id="Layer_1" data-name="Layer 1" viewBox="0 0 24 24">
  <path d="m14.9,9.5c0,.497-.403.9-.9.9h-.9v-1.801h.9c.497,0,.9.403.9.9Zm8.009,1.5c0,2.938-1.144,5.7-3.222,7.778l-3.991,3.689c-1.002.981-2.354,1.533-3.786,1.533s-2.783-.551-3.808-1.552l-3.942-3.643c-2.106-2.105-3.25-4.867-3.25-7.805s1.144-5.701,3.222-7.778C6.21,1.145,8.972,0,11.91,0s5.7,1.145,7.777,3.222c2.078,2.077,3.222,4.839,3.222,7.778Zm-12.909-3.2c0-.442-.358-.8-.8-.8h0c-.442,0-.8.358-.8.8v6.4c0,.442.358.8.8.8h0c.442,0,.8-.358.8-.8v-6.4Zm6.5,1.7c0-1.381-1.119-2.5-2.5-2.5h-1.7c-.442,0-.8.358-.8.8v6.4c0,.442.358.8.8.8s.8-.358.8-.8v-2.2h.9c1.381,0,2.5-1.119,2.5-2.5Z"/>
</svg>
