<?xml version="1.0" encoding="UTF-8"?>
<svg xmlns="http://www.w3.org/2000/svg" id="Layer_1" data-name="Layer 1" viewBox="0 0 24 24">
  <path d="m11.64,24c-.419,0-.768-.324-.798-.742l-.265-3.66-.798,1.756c-.304.668-1.253.668-1.557,0l-.798-1.756-.265,3.66c-.03.418-.379.742-.798.742h0c-.465,0-.832-.394-.798-.858l.445-6.142c.043-.705.472-1,.988-1,.342,0,.66.242.841.64l1.164,2.56,1.164-2.56c.181-.398.499-.64.841-.64.516,0,.945.295.988,1l.445,6.142c.034.463-.333.858-.798.858h0Zm11.56-8c-.442,0-.8.358-.8.8v3.263l-1.546-3.482c-.155-.348-.499-.574-.88-.576h0c-.537-.003-.974.432-.974.969v6.226c0,.442.358.8.8.8h0c.442,0,.8-.358.8-.8v-3.254l1.544,3.478c.156.35.503.576.886.576h0c.535,0,.97-.434.97-.97v-6.23c0-.442-.358-.8-.8-.8h0Zm-5.2,2.3v3.4c0,1.269-1.031,2.3-2.3,2.3s-2.3-1.031-2.3-2.3v-3.4c0-1.269,1.031-2.3,2.3-2.3s2.3,1.031,2.3,2.3Zm-1.6,0c0-.386-.314-.7-.7-.7s-.7.314-.7.7v3.4c0,.386.314.7.7.7s.7-.314.7-.7v-3.4Zm7.6-10.3H0v-1C0,4.243,2.243,2,5,2h1v-1C6,.447,6.448,0,7,0s1,.447,1,1v1h8v-1C16,.447,16.448,0,17,0s1,.447,1,1v1h1c2.757,0,5,2.243,5,5v1ZM0,10v9c0,2.286,1.543,4.192,3.637,4.788-.056-.259-.089-.523-.07-.791l.444-6.119c.103-1.695,1.33-2.879,2.984-2.879h17.005v-4H0Z"/>
</svg>
