<?xml version="1.0" encoding="UTF-8"?>
<svg xmlns="http://www.w3.org/2000/svg" id="Layer_1" data-name="Layer 1" viewBox="0 0 24 24">
  <path d="m8,20h8v.5c0,1.933-1.567,3.5-3.5,3.5h-1c-1.933,0-3.5-1.567-3.5-3.5v-.5Zm13-11c0,2.59-1.118,5.055-3.068,6.763-.739.648-1.275,1.413-1.594,2.237H7.563c-.358-.877-.926-1.702-1.695-2.417-2.149-2.001-3.167-4.83-2.793-7.761C3.59,3.782,6.904.517,10.956.059c2.567-.289,5.13.522,7.038,2.227,1.91,1.707,3.006,4.154,3.006,6.714Zm-5-1.5c0-.828-.672-1.5-1.5-1.5h-.62c.091-.391.146-.746.146-.974,0-.828-.672-1.5-1.5-1.5-.828,0-1.5.672-1.5,1.5,0,.228.054.583.145.974h-.671c-.828,0-1.5.672-1.5,1.5v.651c-.401-.095-.767-.151-1-.151-.828,0-1.5.672-1.5,1.5,0,.828.672,1.5,1.5,1.5.233,0,.599-.056,1-.151v.651c0,.828.672,1.5,1.5,1.5h4c.828,0,1.5-.672,1.5-1.5v-.871c-.598.137-1.368.271-1.6.271-.773,0-1.4-.627-1.4-1.4,0-.773.627-1.4,1.4-1.4.232,0,1.002.134,1.6.271v-.871Z"/>
</svg>
