<?xml version="1.0" encoding="UTF-8"?>
<svg xmlns="http://www.w3.org/2000/svg" id="Layer_1" data-name="Layer 1" viewBox="0 0 24 24">
  <path d="M5.011,4H.003c0-.817,0-1.352,0-1.475C.003,1.13,1.109,0,2.503,0c1.384,0,2.487,1.112,2.5,2.496,.004,.43,.007,.945,.007,1.504Zm5,3.765c0-.974,.376-2.004,.989-2.959V2.092c0-.808,.452-1.528,1.179-1.88,.727-.353,1.573-.26,2.206,.24l1.051,.823c.526-.172,1.056-.275,1.57-.275s1.042,.103,1.568,.274l1.055-.822c.633-.5,1.479-.593,2.206-.24,.727,.352,1.179,1.073,1.179,1.88l-.006,2.708c.616,.956,.993,1.989,.993,2.964,0,2.237-2.157,3.2-3.89,3.973-.608,.271-1.178,.532-1.67,.824-.175-.75-.75-1.062-1.44-1.062s-1.262,.308-1.439,1.057c-.49-.29-1.056-.549-1.66-.819-1.733-.773-3.89-1.736-3.89-3.973Zm6.989-.266c0,.828,.671,1.499,1.499,1.499s3.501-.17,3.501-.998-2-2-3.501-2c-.828,0-1.499,.671-1.499,1.499Zm-5,.501c0,.828,2.673,1.001,3.501,1.001s1.499-.671,1.499-1.499-.671-1.498-1.499-1.499c-1.501-.003-3.501,1.169-3.501,1.997Zm12.002,14.998h0c0-.552-.448-.998-1-.998h-1.002v-7.409c0-.712-.74-1.182-1.385-.881-.527,.246-1.04,.493-1.231,.611-.715,.444-1.539,.68-2.378,.68s-1.663-.235-2.381-.682c-.399-.247-.952-.494-1.538-.755-.885-.395-2.046-.918-3.036-1.717-4.966,3.852-5.051,10.074-5.051,10.153-1.115,0-1.963-1.004-1.764-2.101,.193-1.065,.545-2.441,1.184-3.899H0c0,1.164,.001,2.206,.003,3.012,.005,2.758,2.242,4.988,5,4.988h11.997c.552,0,1-.448,1-1v-5.5c0-.552,.448-1,1-1h0c.552,0,1,.448,1,1v5.5c0,.552,.448,1,1,1h2.002c.553,0,1.001-.449,1-1.002ZM4.853,11H0C0,12.007,0,13.022,0,14H4.664c.079-1.013,.141-2.019,.189-3Zm.147-5H.002c0,.903,0,1.924-.001,3H4.935c.035-1.067,.055-2.073,.065-3Z"/>
</svg>
