<?xml version="1.0" encoding="UTF-8"?>
<svg xmlns="http://www.w3.org/2000/svg" id="Layer_1" data-name="Layer 1" viewBox="0 0 24 24">
  <path d="M20,23c0,.553-.448,1-1,1H1c-.552,0-1-.447-1-1s.448-1,1-1H19c.552,0,1,.447,1,1Zm4-4.039v4.039c0,.553-.448,1-1,1s-1-.447-1-1v-4.039c0-.305-.137-.59-.376-.781l-3.122-2.497c-.163-.13-.33-.251-.502-.362v3.68c0,.553-.448,1-1,1H7c-.552,0-1-.447-1-1v-4.507L1.934,11.368c-.998-.734-1.162-2.282-.343-3.212l3.489-4.117c.195-.602,.754-1.04,1.421-1.04h.924c.774-1.763,2.531-3,4.576-3s3.802,1.237,4.576,3h.924c.828,0,1.5,.672,1.5,1.5v1c0,.828-.672,1.5-1.5,1.5h-.924c-.774,1.763-2.531,3-4.576,3s-3.802-1.237-4.576-3h-.924c-.38,0-.723-.146-.987-.379l-2.396,2.828c-.053,.062-.058,.13-.053,.175s.024,.108,.088,.158l3.999,3.073c.856-.326,2.582-.855,4.849-.855,1.72,0,3.429,.312,4.561,.573,1.174,.271,2.248,.792,3.191,1.547l3.122,2.498c.716,.574,1.126,1.428,1.126,2.343Z"/>
</svg>
