<?xml version="1.0" encoding="UTF-8"?>
<svg xmlns="http://www.w3.org/2000/svg" id="Layer_1" data-name="Layer 1" viewBox="0 0 24 24">
  <path d="m22.204,1.161c-1.141-.953-2.629-1.348-4.157-1.069l-1.764.432c-1.902.347-3.283,2.002-3.283,3.936v17.468c-.664.097-1.336.097-2,0V4.46c0-1.934-1.381-3.589-3.226-3.923l-1.88-.457C4.431-.183,2.938.208,1.796,1.161c-1.142.953-1.796,2.352-1.796,3.838v12.793c0,2.417,1.727,4.486,4.105,4.919l6.285,1.143c.534.097,1.071.146,1.609.146s1.075-.048,1.609-.146l6.285-1.143c2.379-.433,4.105-2.502,4.105-4.919V4.999c0-1.487-.654-2.886-1.796-3.838ZM6.975,17.903c-.105.464-.518.778-.974.778-.073,0-3.223-.707-3.223-.707-.539-.123-.876-.658-.753-1.197s.658-.875,1.197-.753l3,.682c.539.123.876.658.753,1.197Zm2.004-3.699c-.099.472-.515.795-.978.795-.068,0-5.206-1.066-5.206-1.066-.541-.113-.887-.643-.774-1.184.113-.541.645-.885,1.184-.774l5,1.045c.541.113.887.643.774,1.184Zm0-4c-.099.472-.515.795-.978.795-.068,0-5.206-1.066-5.206-1.066-.541-.113-.887-.643-.774-1.184.113-.541.645-.887,1.184-.774l5,1.045c.541.113.887.643.774,1.184Zm0-3.955c-.099.472-.515.795-.978.795-.068,0-5.206-1.066-5.206-1.066-.541-.113-.887-.643-.774-1.184.113-.541.645-.884,1.184-.774l5,1.045c.541.113.887.643.774,1.184Zm10.243,12.043s-3.149.707-3.223.707c-.457,0-.869-.314-.974-.778-.123-.539.215-1.074.753-1.197l3-.682c.54-.122,1.075.215,1.197.753.123.539-.215,1.074-.753,1.197Zm1.983-4.36s-5.138,1.066-5.206,1.066c-.463,0-.879-.324-.978-.795-.113-.541.234-1.07.774-1.184l5-1.045c.541-.11,1.071.234,1.184.774s-.234,1.07-.774,1.184Zm0-4s-5.138,1.066-5.206,1.066c-.463,0-.879-.324-.978-.795-.113-.541.234-1.07.774-1.184l5-1.045c.541-.111,1.071.234,1.184.774s-.234,1.07-.774,1.184Zm0-3.955s-5.138,1.066-5.206,1.066c-.463,0-.879-.324-.978-.795-.113-.541.234-1.07.774-1.184l5-1.045c.541-.108,1.071.234,1.184.774s-.234,1.07-.774,1.184Z"/>
</svg>
