<?xml version="1.0" encoding="UTF-8"?>
<svg xmlns="http://www.w3.org/2000/svg" id="Layer_1" data-name="Layer 1" viewBox="0 0 24 24">
  <path d="m7,13c.812,0,1.583.236,2.241.638-1.38.672-2.507,1.899-3.062,3.362h-2.179c-.329,0-.636-.161-.823-.432-.187-.271-.229-.615-.112-.923.6-1.582,2.181-2.646,3.935-2.646Zm5,0c1.657,0,3-1.343,3-3s-1.343-3-3-3-3,1.343-3,3,1.343,3,3,3Zm-7.942-5.038c0,1.657,1.343,3,3,3,.013,0,.025-.004.038-.004-.061-.311-.097-.63-.097-.958,0-1.719.873-3.237,2.198-4.138-.544-.555-1.301-.901-2.139-.901-1.657,0-3,1.343-3,3Zm10.701,5.677c1.38.672,2.507,1.899,3.062,3.362h2.179c.329,0,.636-.161.823-.432.187-.271.229-.615.112-.923-.6-1.582-2.181-2.646-3.935-2.646-.812,0-1.583.236-2.241.638Zm2.241-8.638c-.841,0-1.599.349-2.144.906,1.293.905,2.144,2.399,2.144,4.094,0,.339-.035.67-.1.99.034.001.066.01.1.01,1.657,0,3-1.343,3-3s-1.343-3-3-3Zm6,11c-.552,0-1,.447-1,1v2c0,1.654-1.346,3-3,3h-2c-.552,0-1,.447-1,1s.448,1,1,1h2c2.757,0,5-2.243,5-5v-2c0-.553-.448-1-1-1ZM19,0h-2c-.552,0-1,.447-1,1s.448,1,1,1h2c1.654,0,3,1.346,3,3v2c0,.553.448,1,1,1s1-.447,1-1v-2c0-2.757-2.243-5-5-5ZM7,22h-2c-1.654,0-3-1.346-3-3v-2c0-.553-.448-1-1-1s-1,.447-1,1v2c0,2.757,2.243,5,5,5h2c.552,0,1-.447,1-1s-.448-1-1-1Zm5-7c-1.754,0-3.335,1.063-3.935,2.646-.117.308-.075.652.112.923.187.271.494.432.823.432h6c.329,0,.636-.161.823-.432.187-.271.229-.615.112-.923-.6-1.582-2.181-2.646-3.935-2.646ZM1,8c.552,0,1-.447,1-1v-2c0-1.654,1.346-3,3-3h2c.552,0,1-.447,1-1s-.448-1-1-1h-2C2.243,0,0,2.243,0,5v2c0,.553.448,1,1,1Z"/>
</svg>
