<?xml version="1.0" encoding="UTF-8"?>
<svg xmlns="http://www.w3.org/2000/svg" id="Layer_1" data-name="Layer 1" viewBox="0 0 24 24">
  <path d="M1,5c-.553,0-1-.448-1-1C0,1.794,1.794,0,4,0c.553,0,1,.448,1,1s-.447,1-1,1c-1.103,0-2,.897-2,2,0,.552-.447,1-1,1Zm1,7v-4c0-.552-.447-1-1-1s-1,.448-1,1v4c0,.552,.447,1,1,1s1-.448,1-1Zm3,7c0-.553-.447-1-1-1-1.103,0-2-.897-2-2,0-.553-.447-1-1-1s-1,.447-1,1c0,2.206,1.794,4,4,4,.553,0,1-.447,1-1ZM20,4c0-2.206-1.794-4-4-4-.553,0-1,.448-1,1s.447,1,1,1c1.103,0,2,.897,2,2,0,.552,.447,1,1,1s1-.448,1-1ZM13,1c0-.552-.447-1-1-1h-4c-.553,0-1,.448-1,1s.447,1,1,1h4c.553,0,1-.448,1-1Zm7,8v-1c0-.552-.447-1-1-1s-1,.448-1,1v1c0,.552,.447,1,1,1s1-.448,1-1Zm-10,10c0-.553-.447-1-1-1h-1c-.553,0-1,.447-1,1s.447,1,1,1h1c.553,0,1-.447,1-1Zm14-1c0,3.314-2.686,6-6,6s-6-2.686-6-6,2.686-6,6-6,6,2.686,6,6Zm-2.5,0c0-.553-.447-1-1-1h-1.5v-1.5c0-.553-.447-1-1-1s-1,.447-1,1v1.5h-1.5c-.553,0-1,.447-1,1s.447,1,1,1h1.5v1.5c0,.553,.447,1,1,1s1-.447,1-1v-1.5h1.5c.553,0,1-.447,1-1Z"/>
</svg>
