<?xml version="1.0" encoding="UTF-8"?>
<svg xmlns="http://www.w3.org/2000/svg" id="Layer_1" data-name="Layer 1" viewBox="0 0 24 24">
  <path d="M22.364,20.314l-1.662-2.801c-.187-.28-.229-.631-.122-.95,.321-.959,1.409-3.099,1.409-5.595C21.989,5.123,15.793,1.425,13.184,.262c-.391-.174-.807-.262-1.223-.262-.416,0-.832,.088-1.223,.262C8.129,1.425,2.03,5.123,2.03,10.968c0,2.496,.992,4.636,1.313,5.595,.107,.319,.064,.67-.122,.95l-1.584,2.801c-.405,1.079,.239,2.266,1.364,2.516l4.467,1.103c1.238,.31,2.426-.57,2.539-1.811l-.003-5.886c0-.61-.279-1.185-.759-1.562-1.159-.912-2.244-2.076-2.244-3.24,0-1.5,1-2.5,2.5-2.5,.541,0,1.077,.249,1.5,.616l.385,.432c.328,.368,.903,.368,1.23,0l.385-.432c.423-.368,.959-.616,1.5-.616,1.5,0,2.5,1,2.5,2.5,0,1.163-1.081,2.325-2.238,3.236-.48,.378-.758,.953-.758,1.563l.003,6.004c.172,1.18,1.323,1.999,2.522,1.701l4.471-1.108c1.125-.25,1.769-1.437,1.364-2.516Z"/>
</svg>
