<?xml version="1.0" encoding="UTF-8"?>
<svg xmlns="http://www.w3.org/2000/svg" id="Layer_1" data-name="Layer 1" viewBox="0 0 24 24">
  <path d="M23.977,13.513c.134,1.407-.331,2.811-1.276,3.85-.73,.804-1.703,1.334-2.755,1.538,.033-.296,.054-.595,.054-.9,0-2.525-1.173-4.773-3-6.24v-1.253c0-.832,.68-1.505,1.511-1.5,.262,.001,.455,.003,.464,.003,.008,0,.016,.003,.025,.003v-.014c0-3.859-3.14-7-7-7s-7,3.141-7,7v.014c.008,0,.016-.003,.025-.003,.009,0,.202-.001,.464-.003,.832-.005,1.512,.668,1.512,1.5v1.253c-1.827,1.466-3,3.714-3,6.24,0,.305,.021,.604,.054,.9-1.052-.204-2.024-.734-2.755-1.538C.354,16.323-.112,14.92,.023,13.513c.172-1.803,1.352-3.303,2.977-4.029v-.484C3,4.037,7.038,0,12,0s9,4.037,9,9v.484c1.625,.726,2.805,2.226,2.977,4.029Zm-5.977,4.487c0,3.314-2.686,6-6,6s-6-2.686-6-6,2.686-6,6-6,6,2.686,6,6Zm-3.981,3.433l-5.453-5.452c-.351,.595-.567,1.279-.567,2.019,0,2.206,1.794,4,4,4,.74,0,1.424-.216,2.019-.567Zm1.981-3.433c0-2.206-1.794-4-4-4-.74,0-1.424,.216-2.019,.567l5.453,5.452c.351-.595,.567-1.279,.567-2.019Z"/>
</svg>
