<?xml version="1.0" encoding="UTF-8"?>
<svg xmlns="http://www.w3.org/2000/svg" id="Layer_1" data-name="Layer 1" viewBox="0 0 24 24">
  <path d="m23.418,10.686c.365.614.582,1.318.582,2.046v6.269c0,2.761-2.239,5-5,5H5.001C2.239,24,0,21.761,0,18.999v-6.268c.001-.74.224-1.457.605-2.081l7.888,7.889c1.094,1.093,2.609,1.616,4.183,1.42,1.153-.143,2.205-.738,3.027-1.56l7.714-7.714Zm-3.418.558l-5.849,5.88c-1.131,1.131-3.112,1.129-4.243,0l-5.908-5.948v-6.177C4,2.239,6.239,0,9,0h6c2.761,0,5,2.239,5,5v6.244Zm-11.5-5.244c.828,0,1.5-.672,1.5-1.5s-.672-1.5-1.5-1.5-1.5.672-1.5,1.5.672,1.5,1.5,1.5Zm7,5.5c0-1.933-1.567-3.5-3.5-3.5s-3.5,1.567-3.5,3.5,1.567,3.5,3.5,3.5,3.5-1.567,3.5-3.5Zm1.5-7c0-.828-.672-1.5-1.5-1.5s-1.5.672-1.5,1.5.672,1.5,1.5,1.5,1.5-.672,1.5-1.5Zm-5,8.5c.828,0,1.5-.672,1.5-1.5s-.672-1.5-1.5-1.5-1.5.672-1.5,1.5.672,1.5,1.5,1.5Z"/>
</svg>
