<?xml version="1.0" encoding="UTF-8"?>
<svg xmlns="http://www.w3.org/2000/svg" id="Layer_1" data-name="Layer 1" viewBox="0 0 24 24">
  <path d="m18,9V1c0-.553.448-1,1-1,.66,0,.815.128,1.426.377l3.095,1.259c.639.399.639,1.329,0,1.729l-3.521,1.88v3.755c0,.553-.448,1-1,1s-1-.447-1-1Zm2,5h-4c-1.103,0-2-.897-2-2,0-.889.586-1.793,1.333-2.058.521-.184.793-.755.609-1.275-.185-.522-.756-.794-1.276-.609-1.545.546-2.667,2.204-2.667,3.942,0,2.206,1.794,4,4,4h4c1.103,0,2,.897,2,2s-.897,2-2,2h-5c-.552,0-1,.447-1,1s.448,1,1,1h5c2.206,0,4-1.794,4-4s-1.794-4-4-4Zm-11,.051c0-1.103-.897-2.051-2-2.051h-2c-1.103,0-2,.948-2,2.051-1.692.245-3,1.691-3,3.449v.5h12v-.5c0-1.758-1.308-3.204-3-3.449Zm-3,6.949c-.552,0-1-.448-1-1H0v.5c0,1.93,1.57,3.5,3.5,3.5h5c1.93,0,3.5-1.57,3.5-3.5v-.5h-5c0,.552-.448,1-1,1Z"/>
</svg>
