<?xml version="1.0" encoding="UTF-8"?>
<svg xmlns="http://www.w3.org/2000/svg" id="Layer_1" data-name="Layer 1" viewBox="0 0 24 24">
  <path d="m15,16h6.54c-.347.913-.88,1.753-1.591,2.464l-3.484,3.486c-.712.711-1.552,1.244-2.465,1.59v-6.54c0-.551.448-1,1-1Zm7-11v8.515c0,.163-.013.324-.024.485h-6.976c-1.654,0-3,1.346-3,3v6.976c-.161.011-.322.024-.485.024h-4.515c-2.757,0-5-2.243-5-5V5C2,2.243,4.243,0,7,0h10c2.757,0,5,2.243,5,5Zm-15.473,3.5v-3c0-.496.404-.9.9-.9.408,0,.753.272.863.645.024.081.027.755.833.755s.815-.699.804-.796c-.146-1.241-1.219-2.204-2.5-2.204-1.381,0-2.5,1.119-2.5,2.5v3c0,1.381,1.119,2.5,2.5,2.5,1.278,0,2.35-.958,2.5-2.196.012-.1-.032-.804-.799-.804s-.813.669-.835.747c-.108.376-.455.653-.866.653-.496,0-.9-.404-.9-.9Zm9.457-4.286c.1-.495-.279-.958-.784-.958-.381,0-.709.268-.784.642l-1.053,5.222c-.015.078-.037.141-.057.188-.019-.041-.038-.094-.05-.159l-1.072-5.253c-.076-.372-.404-.64-.784-.64-.506,0-.885.464-.784.96l1.072,5.253c.108.561.422,1.044.86,1.313.237.145.496.218.758.218.225,0,.452-.054.667-.162.475-.238.835-.766.961-1.412l1.051-5.211Z"/>
</svg>
