<?xml version="1.0" encoding="UTF-8"?>
<svg xmlns="http://www.w3.org/2000/svg" id="Layer_1" data-name="Layer 1" viewBox="0 0 24 24">
  <path d="m20.501,22.03c-.594,0-1.188-.149-1.708-.447-1.123-.642-1.794-1.786-1.794-3.06,0-.914.346-1.772.975-2.423,0,0,1.232-1.557,1.263-1.586.708-.691,1.816-.691,2.524,0,.031.03,1.257,1.581,1.257,1.581.633.656.98,1.516.98,2.429,0,1.254-.657,2.391-1.757,3.04-.527.311-1.134.467-1.741.467Zm.999-15.03H7c-.552,0-1-.448-1-1s.448-1,1-1h7.34l-3.64-2.788c-1.985-1.696-4.938-1.588-6.794.249l-2.425,2.4C.536,5.802.004,7.08,0,8.414v7.586C0,18.761,2.239,21,5,21h4.721c2.383,0,4.435-1.682,4.903-4.019h0s1.196-4.981,1.196-4.981h5.681c1.381,0,2.5-1.119,2.5-2.5s-1.119-2.5-2.5-2.5Z"/>
</svg>
