<?xml version="1.0" encoding="UTF-8"?>
<svg xmlns="http://www.w3.org/2000/svg" id="Layer_1" data-name="Layer 1" viewBox="0 0 24 24">
  <path d="m17,6.998h7v5.002c0,3.247-1.276,6.288-3.593,8.563-2.263,2.221-5.24,3.437-8.405,3.437-.075,0-.15,0-.226-.002C5.283,23.879,0,18.333,0,11.635v-4.637h7v5c0,2.761,2.239,5,5,5s5-2.239,5-5v-5ZM4.5-.002h-2C1.119-.002,0,1.117,0,2.498v2.5h7v-2.5C7,1.117,5.881-.002,4.5-.002Zm12.5,2.5v2.5h7v-2.5C24,1.117,22.881-.002,21.5-.002h-2c-1.381,0-2.5,1.119-2.5,2.5Z"/>
</svg>
