<?xml version="1.0" encoding="UTF-8"?>
<svg xmlns="http://www.w3.org/2000/svg" id="Layer_1" data-name="Layer 1" viewBox="0 0 24 24">
  <path d="m11,21h6c0,1.657-1.343,3-3,3s-3-1.343-3-3Zm-8,3c1.657,0,3-1.343,3-3H0c0,1.657,1.343,3,3,3Zm18-7.5V4c0-.552-.448-1-1-1h0c-.552,0-1,.448-1,1v10h-8.4c-1.394,0-2.619-.928-2.996-2.27h0c-.121-.432-.515-.73-.963-.73H0v8h17v-.5l-.497-2.5h2.497v.5c0,1.381,1.119,2.5,2.5,2.5h1.5c.552,0,1-.448,1-1h0c0-.552-.448-1-1-1h-1.5c-.276,0-.5-.224-.5-.5Zm-11.47-5.312h0c.135.48.572.812,1.07.812h5.107l-1.455-7.905c-.437-2.373-2.505-4.095-4.917-4.095h-4.336C2.239,0,0,2.239,0,5v4h6.644c1.344,0,2.524.894,2.886,2.188Z"/>
</svg>
