<?xml version="1.0" encoding="UTF-8"?>
<svg xmlns="http://www.w3.org/2000/svg" id="Layer_1" data-name="Layer 1" viewBox="0 0 24 24">
  <path d="m19.808,17.813c-.036.012-.065.019-.1.03.806.393,1.494.805,1.912,1.154.539.451.5,1.298-.084,1.69-.792.531-2.459,1.138-4.033,1.244.149.191.28.376.373.545.335.612-.06,1.371-.754,1.443-1.243.128-3.458.155-5.119-.489-1.652.643-3.841.617-5.084.489-.694-.072-1.089-.831-.754-1.443.092-.169.221-.353.367-.543-1.583-.1-3.269-.712-4.066-1.246-.584-.391-.624-1.239-.084-1.69.418-.349,1.106-.761,1.912-1.154-.036-.011-.064-.019-.1-.03-1.365-.438-3.171-1.526-3.927-2.379-.508-.573-.254-1.475.472-1.717.502-.168,1.394-.336,2.291-.451-.989-.145-2.099-.592-2.581-1.797C-.164,9.934-.028,8.073.152,6.925c.089-.568.726-.864,1.219-.569.472.282,1.061.698,1.655,1.261-.693-1.064-1.393-2.628-.718-3.987.62-1.247,1.787-2.818,2.733-3.435.725-.474,1.702-.04,1.818.818.206,1.522.196,4.473-1.08,6.965-.482,3.747.311,7.098,2.302,9.532,1.262,1.541,2.75,2.416,3.951,2.736,1.268-.319,2.808-1.19,4.062-2.722,1.412-1.726,2.871-4.804,2.027-9.746-1.177-2.448-1.183-5.284-.982-6.765.116-.858,1.093-1.292,1.818-.818.946.617,2.113,2.188,2.733,3.435.675,1.359-.024,2.923-.718,3.987.594-.563,1.183-.978,1.655-1.261.493-.295,1.13,0,1.219.569.18,1.148.317,3.008-.296,4.543-.481,1.205-1.591,1.652-2.581,1.797.896.115,1.788.284,2.291.451.726.242.98,1.144.472,1.717-.755.853-2.562,1.941-3.927,2.379Zm-7.308-3.813h-2.5c-.553,0-1,.447-1,1s.447,1,1,1h2.5c1.654,0,3-1.346,3-3,0-.911-.416-1.718-1.059-2.268.349-.49.559-1.086.559-1.732,0-1.654-1.346-3-3-3h-2c-.553,0-1,.447-1,1s.447,1,1,1h2c.552,0,1,.448,1,1s-.448,1-1,1h-1c-.553,0-1,.447-1,1s.447,1,1,1h1.5c.552,0,1,.448,1,1s-.448,1-1,1Z"/>
</svg>
