<?xml version="1.0" encoding="UTF-8"?>
<svg xmlns="http://www.w3.org/2000/svg" id="Layer_1" data-name="Layer 1" viewBox="0 0 24 24">
  <path d="M5.184,8h.816l.793,.793-.5,.5c-.391,.391-.391,1.023,0,1.414,.195,.195,.451,.293,.707,.293s.512-.098,.707-.293l.5-.5,.793,.793v.816c0,.654,.53,1.184,1.184,1.184,.261,0,.52-.079,.723-.242,1.238-.993,2.065-2.402,2.065-4.108h0c1.339-1.479,3.389-4.714,3.92-6.182,.56-1.404-.958-2.921-2.359-2.358-1.462,.527-4.64,2.535-6.145,3.89h-.004c-1.737,0-3.149,.851-4.142,2.094-.162,.203-.241,.462-.241,.722h0c0,.655,.53,1.185,1.184,1.185Zm5.316-3c.828,0,1.5,.672,1.5,1.5s-.672,1.5-1.5,1.5-1.5-.672-1.5-1.5,.672-1.5,1.5-1.5Zm12.841,10.345l-6.44,7.032c-.947,1.034-2.285,1.623-3.687,1.623H4.003C1.794,24,.003,22.209,.003,20v-2C.003,15.791,1.794,14,4.003,14h7.787c1.374,0,2.46,1.26,2.164,2.685-.193,.926-1.004,1.598-1.94,1.732l-4.162,.583c-.547,.078-.927,.585-.848,1.131,.078,.547,.585,.926,1.131,.848l4.252-.596c2.062-.294,3.617-2.087,3.617-4.17,0-.219-.032-.429-.065-.638l3.541-3.737c.908-1.04,2.665-1.12,3.672-.157,1.052,.958,1.138,2.602,.189,3.665Z"/>
</svg>
