<?xml version="1.0" encoding="UTF-8"?>
<svg xmlns="http://www.w3.org/2000/svg" id="Layer_1" data-name="Layer 1" viewBox="0 0 24 24">
  <path d="m19,18c-1.379,0-2.5-1.121-2.5-2.5s1.121-2.5,2.5-2.5,2.5,1.121,2.5,2.5-1.121,2.5-2.5,2.5Zm4,6h-8c-.311,0-.604-.145-.793-.392-.189-.247-.253-.567-.172-.868.591-2.203,2.633-3.741,4.966-3.741s4.375,1.538,4.966,3.741c.081.3.017.621-.172.868-.189.247-.482.392-.793.392Zm.319-19.902c-.572-.698-1.417-1.098-2.32-1.098H5.242l-.041-.351c-.178-1.51-1.459-2.649-2.979-2.649h-1.222C.448,0,0,.448,0,1s.448,1,1,1h1.222c.507,0,.934.38.993.883l1.376,11.701c.296,2.518,2.431,4.416,4.966,4.416h4.443c.552,0,1-.448,1-1s-.448-1-1-1h-4.443c-1.292,0-2.404-.826-2.82-2h7.814c.252-2.244,2.139-4,4.449-4,1.461,0,2.748.71,3.57,1.792l1.371-6.203c.177-.885-.049-1.792-.622-2.49ZM7,20c-1.105,0-2,.895-2,2s.895,2,2,2,2-.895,2-2-.895-2-2-2Z"/>
</svg>
