<?xml version="1.0" encoding="UTF-8"?>
<svg xmlns="http://www.w3.org/2000/svg" id="Layer_1" data-name="Layer 1" viewBox="0 0 24 24">
  <path d="m16,0h-5.344c-1.326,0-2.598.527-3.536,1.465l-2.656,2.657c-.937.938-1.464,2.209-1.464,3.535v11.343c0,2.761,2.239,5,5,5h8c2.761,0,5-2.239,5-5V5c0-2.761-2.239-5-5-5Zm-6,6c0,.552-.447,1-1,1s-1-.448-1-1v-2c0-.552.447-1,1-1s1,.448,1,1v2Zm4,0c0,.552-.447,1-1,1s-1-.448-1-1v-2c0-.552.447-1,1-1s1,.448,1,1v2Zm4,0c0,.552-.447,1-1,1s-1-.448-1-1v-2c0-.552.447-1,1-1s1,.448,1,1v2Z"/>
</svg>
