<?xml version="1.0" encoding="UTF-8"?>
<svg xmlns="http://www.w3.org/2000/svg" id="Layer_1" data-name="Layer 1" viewBox="0 0 24 24">
  <path d="M4.072,20.5c-.258,0-.516-.099-.711-.297-.388-.393-.384-1.026,.008-1.415,1.697-1.677,2.631-3.886,2.631-6.22,0-2.377-.96-4.635-2.703-6.357-.393-.388-.396-1.021-.008-1.415,.389-.393,1.021-.396,1.415-.008,2.126,2.101,3.297,4.864,3.297,7.78,0,2.873-1.146,5.587-3.225,7.643-.195,.192-.449,.289-.703,.289Zm-2.137-3.021c2.753-2.753,2.753-7.232,0-9.985-.391-.391-1.023-.391-1.414,0s-.391,1.023,0,1.414c1.973,1.973,1.973,5.184,0,7.157-.391,.391-.391,1.023,0,1.414,.195,.195,.451,.293,.707,.293s.512-.098,.707-.293ZM20.829,2.422C18.815,.623,16.111-.239,13.403,.069c-2.74,.308-5.074,1.863-6.601,4.052,1.037,1.192,1.831,2.532,2.37,3.967,.633-2.372,2.786-4.081,5.327-4.081,3.032,0,5.5,2.467,5.5,5.5,0,.552-.447,1-1,1s-1-.448-1-1c0-1.93-1.57-3.5-3.5-3.5-1.765,0-3.247,1.282-3.492,2.999h1c1.65,.005,2.992,1.35,2.992,3.001s-1.346,3-3,3c-.553,0-1-.448-1-1s.447-1,1-1,1-.449,1-1-.448-1-1-1h-1c-.408,0-.822-.152-1.169-.415,.102,.65,.169,1.309,.169,1.977,0,3.112-1.14,6.057-3.209,8.4,.406,.714,.956,1.354,1.646,1.868,1.038,.773,2.304,1.163,3.569,1.163,1.159,0,2.318-.327,3.303-.985,.89-.596,1.603-1.405,2.061-2.34,.797-1.626,1.633-2.714,2.632-3.425,2.503-1.781,3.998-4.675,3.998-7.743,0-2.701-1.156-5.284-3.171-7.085Z"/>
</svg>
