<?xml version="1.0" encoding="UTF-8"?>
<svg xmlns="http://www.w3.org/2000/svg" id="Layer_1" data-name="Layer 1" viewBox="0 0 24 24">
  <path d="M5.228,16.687c-.197,.208-.462,.313-.728,.313-.246,0-.493-.09-.687-.273-.401-.379-.42-1.012-.041-1.414l1.24-1.313H1c-.553,0-1-.448-1-1s.447-1,1-1H5.013l-1.24-1.313c-.379-.401-.36-1.035,.041-1.414,.401-.38,1.034-.362,1.414,.041l2.239,2.372c.71,.68,.706,1.967-.021,2.651l-2.218,2.35Zm18.772-7.687v10c0,2.761-2.239,5-5,5H10c-2.761,0-5-2.239-5-5v-.052c.637-.109,1.232-.414,1.682-.889l2.176-2.307c.228-.227,.412-.484,.575-.752h.568c.552,0,1-.447,1-1s-.448-1-1-1c0-.711-.206-1.403-.564-2h.564c.552,0,1-.447,1-1s-.448-1-1-1h-1c-.366,0-.672,.206-.846,.499l-1.472-1.559c-.453-.481-1.042-.78-1.682-.887v-2.053C5,2.239,7.239,0,10,0h4c2.757,0,5,2.243,5,5h1c2.209,0,4,1.791,4,4Zm-13,9c0-.553-.448-1-1-1h-1c-.552,0-1,.447-1,1s.448,1,1,1h1c.552,0,1-.447,1-1Zm0-12c0-.553-.448-1-1-1h-1c-.552,0-1,.447-1,1s.448,1,1,1h1c.552,0,1-.447,1-1Zm5,12c0-.553-.448-1-1-1h-1c-.552,0-1,.447-1,1s.448,1,1,1h1c.552,0,1-.447,1-1Zm0-4c0-.553-.448-1-1-1h-1c-.552,0-1,.447-1,1s.448,1,1,1h1c.552,0,1-.447,1-1Zm0-4c0-.553-.448-1-1-1h-1c-.552,0-1,.447-1,1s.448,1,1,1h1c.552,0,1-.447,1-1Zm0-4c0-.553-.448-1-1-1h-1c-.552,0-1,.447-1,1s.448,1,1,1h1c.552,0,1-.447,1-1Zm5,12c0-.553-.448-1-1-1h-1c-.552,0-1,.447-1,1s.448,1,1,1h1c.552,0,1-.447,1-1Zm0-4c0-.553-.448-1-1-1h-1c-.552,0-1,.447-1,1s.448,1,1,1h1c.552,0,1-.447,1-1Zm0-4c0-.553-.448-1-1-1h-1c-.552,0-1,.447-1,1s.448,1,1,1h1c.552,0,1-.447,1-1Z"/>
</svg>
