<?xml version="1.0" encoding="UTF-8"?>
<svg xmlns="http://www.w3.org/2000/svg" id="Layer_1" data-name="Layer 1" viewBox="0 0 24 24">
  <path d="m11,4h-1c0,.552-.448,1-1,1h-.851l.85,11.414c.049,1.414-1.084,2.586-2.498,2.586s-2.547-1.173-2.498-2.586l.85-11.414H1c-1,0-1-1-1-1C0,1.791,1.791,0,4,0h5c.552,0,1,.448,1,1h1c0-.552.448-1,1-1s1,.448,1,1v3c0,.552-.448,1-1,1s-1-.448-1-1Zm4.358,8.522l-2.173,1.052c-.998.508-1.714,1.389-2.019,2.426h12.668c-.306-1.036-1.021-1.917-2.018-2.425l-2.174-1.053c-.398-.193-.623-.623-.551-1.06.431-2.634.909-5.65.909-5.962,0-1.379-1.121-2.5-2.5-2.5s-2.5,1.121-2.5,2.5c0,.312.478,3.328.909,5.962.072.437-.153.867-.551,1.06Zm-4.358,5.478v3c0,1.654,1.346,3,3,3l.944-3.614c.193-.514.92-.514,1.113,0l.944,3.614h4c1.654,0,3-1.346,3-3v-3h-13Z"/>
</svg>
