<?xml version="1.0" encoding="UTF-8"?>
<svg xmlns="http://www.w3.org/2000/svg" id="Layer_1" data-name="Layer 1" viewBox="0 0 24 24">
  <path d="m14.121,17.122l6.879-6.879v-6.242c0-2.206-1.794-4-4-4H7C4.794,0,3,1.794,3,4v6.243l6.878,6.879c1.134,1.133,3.11,1.133,4.243,0ZM6,7c0-2.206,1.794-4,4-4h5.5c1.379,0,2.5,1.122,2.5,2.5s-1.121,2.5-2.5,2.5h-4.5c-.553,0-1-.448-1-1s.447-1,1-1h4.5c.275,0,.5-.224.5-.5s-.225-.5-.5-.5h-5.5c-1.103,0-2,.897-2,2s.897,2,2,2h5c.553,0,1,.448,1,1s-.447,1-1,1h-5c-2.206,0-4-1.794-4-4Zm18,5.708v6.292c0,2.757-2.243,5-5,5H5c-2.757,0-5-2.243-5-5v-6.292c0-.746.184-1.472.5-2.137l7.965,7.966c.945.944,2.2,1.464,3.536,1.464s2.591-.52,3.535-1.464l7.965-7.966c.316.665.5,1.392.5,2.137Z"/>
</svg>
