<?xml version="1.0" encoding="UTF-8"?>
<svg xmlns="http://www.w3.org/2000/svg" id="Layer_1" data-name="Layer 1" viewBox="0 0 24 24">
  <path d="m14.54,1.785l.968-.277.277-.968c.206-.72,1.225-.72,1.431,0l.277.968.968.277c.72.206.72,1.225,0,1.431l-.968.277-.277.968c-.206.72-1.225.72-1.431,0l-.277-.968-.968-.277c-.72-.206-.72-1.225,0-1.431Zm5,4.431l.968.277.277.968c.206.72,1.225.72,1.431,0l.277-.968.968-.277c.72-.206.72-1.225,0-1.431l-.968-.277-.277-.968c-.206-.72-1.225-.72-1.431,0l-.277.968-.968.277c-.72.206-.72,1.225,0,1.431Zm-1,6l.968.277.277.968c.206.72,1.225.72,1.431,0l.277-.968.968-.277c.72-.206.72-1.225,0-1.431l-.968-.277-.277-.968c-.206-.72-1.225-.72-1.431,0l-.277.968-.968.277c-.72.206-.72,1.225,0,1.431Zm-8.54,3.785c0,1.103-.897,2-2,2s-2-.897-2-2,.897-2,2-2,2,.897,2,2Zm6-3v6c0,2.757-2.243,5-5,5h-6c-2.757,0-5-2.243-5-5v-6c0-2.757,2.243-5,5-5h6c2.757,0,5,2.243,5,5Zm-4,3c0-2.206-1.794-4-4-4s-4,1.794-4,4,1.794,4,4,4,4-1.794,4-4ZM4,6.072v-3.072c0-1.657,1.343-3,3-3h2c1.657,0,3,1.343,3,3v3.072c-.327-.047-.661-.072-1-.072h-6c-.339,0-.673.025-1,.072Z"/>
</svg>
