<?xml version="1.0" encoding="UTF-8"?>
<svg xmlns="http://www.w3.org/2000/svg" id="Layer_1" data-name="Layer 1" viewBox="0 0 24 24">
  <path d="m20.108,12.898c-.794,1.566-1.838,3.103-2.547,4.082-.439.607-1.31.702-1.872.207-2.91-2.563-4.572-6.21-4.844-7.149v2.384c0,.578-.719.884-1.108.456-1.131-1.247-1.392-2.862-1.392-3.84,0-1.513.672-3.1,2.289-3.957h-2.071c-.546,0-.899-.607-.608-1.069C9.694,1.243,13.034.038,15.744.038c2.244,0,4.178,1.205,5.241,2.983-2.736.105-4.984,2.223-4.984,4.931,0,2.461,1.774,4.503,4.108,4.946Zm-3.214,6.586c-.12.014-.241.021-.361.021-.792,0-1.566-.289-2.166-.816-1.34-1.182-2.419-2.523-3.253-3.778-1.013.379-2.131.111-2.856-.687-1.338-1.474-1.747-3.214-1.865-4.356-.419.094-.687.177-.719.187-.544.187-1.027.511-1.433.922-.342.113-3.881,1.439-4.24,7.969-.03.551.392,1.022.943,1.053.019.002.038.002.056.002.527,0,.968-.412.998-.945.109-1.986.537-3.347,1.029-4.277.084,1.206.37,2.06.672,2.949.099.289.201.59.301.919v3.354c0,1.103.897,2,2,2s2-.897,2-2v-2h6v2c0,1.103.897,2,2,2s2-.897,2-2v-2.859c-.345.174-.715.3-1.106.344Zm6.667-12.924l-1.682-1.546c-.292-.009-.573-.015-.831-.015-1.709,0-3.048,1.297-3.048,2.952,0,1.681,1.367,3.048,3.048,3.048h.452c1.381,0,2.5-1.119,2.5-2.5v-.879c0-.398-.158-.779-.439-1.061Z"/>
</svg>
