<?xml version="1.0" encoding="UTF-8"?>
<svg xmlns="http://www.w3.org/2000/svg" id="Layer_1" data-name="Layer 1" viewBox="0 0 24 24">
  <path d="m24,15.29c0,.552-.448,1-1,1-.181,0-.342-.061-.488-.145-.007,0-1.142-.589-1.736-.787-.76-.254-1.405-.713-1.882-1.3l-.911,1.458c-1.06-.942-2.455-1.516-3.982-1.516-.552,0-1,.448-1,1,0,.541.43.982.968.999,1.561.049,3.036.818,3.657,2.251.591,1.362.444,2.705-.162,3.75h3.537c.552,0,1,.448,1,1s-.448,1-1,1h-10.315c-2.578,0-4.977-1.253-6.419-3.353C2.983,18.78,0,13.615,0,6,0,2.651,2.636-.067,6,0c2.623,0,5,2.127,5,4.75,0,1.431-.633,2.714-1.634,3.585-1.226.849-2.651,2.023-3.742,3.257-1.562,1.767-1.78,4.354-.638,6.417l.016.029c.072-4.143,3.481-6.664,6.295-8.514.053-.035.616-.402.668-.435.724-.47,1.542-1.002,2.147-1.489.516,2.508,2.761,4.401,5.444,4.401.167,0,.332-.004.495-.011.155.674.663,1.239,1.359,1.472.682.228,1.494.633,2.12,1.002.277.178.471.474.471.827Zm-4.444-5.29c1.964,0,4.444-.692,4.444-2.625,0-1.651-1.582-4.08-4-4.35V.712c0-.488-.482-.83-.946-.676-1.193.396-2.054,1.638-2.054,2.964v1.067c-.619.63-1,1.488-1,2.433,0,1.933,1.592,3.5,3.556,3.5Z"/>
</svg>
