<?xml version="1.0" encoding="UTF-8"?>
<svg xmlns="http://www.w3.org/2000/svg" id="Layer_1" data-name="Layer 1" viewBox="0 0 24 24">
  <path d="m12,10c2.757,0,5-2.243,5-5S14.757,0,12,0s-5,2.243-5,5,2.243,5,5,5Zm2.413,1.38c2.639.839,4.689,3.011,5.352,5.724.111.454-.232.896-.7.896h-5.352l-1.116-3.897,1.816-2.723Zm-10.179,5.724c.663-2.713,2.713-4.885,5.352-5.724l1.816,2.723-1.116,3.897h-5.352c-.468,0-.81-.442-.7-.896Zm19.766,3.896c0,.552-.448,1-1,1h-1v1c0,.552-.448,1-1,1H3c-.552,0-1-.448-1-1v-1h-1c-.552,0-1-.448-1-1s.448-1,1-1h22c.552,0,1,.448,1,1Z"/>
</svg>
