<?xml version="1.0" encoding="UTF-8"?>
<svg xmlns="http://www.w3.org/2000/svg" id="Layer_1" data-name="Layer 1" viewBox="0 0 24 24">
  <path d="m7.55,15c-.348,2.11-.55,3.732-.55,4.5,0,2.43,1.962,4.5,5,4.5s5-2.07,5-4.5c0-.768-.202-2.39-.55-4.5H7.55ZM5.094,2.141c1.359-.923,2.906-1.577,4.552-1.902.219.372.354.799.354,1.261,0,1.379-1.122,2.5-2.5,2.5-1.155,0-2.121-.792-2.406-1.859Zm18.831,7.226C22.665,3.939,17.649,0,12,0c-.092,0-.181.01-.273.012.165.468.273.964.273,1.488,0,2.481-2.019,4.5-4.5,4.5-1.776,0-3.3-1.043-4.032-2.54C1.823,5.039.609,7.067.075,9.368c-.201.864.006,1.766.566,2.471.586.738,1.466,1.161,2.413,1.161h17.891c.947,0,1.827-.423,2.413-1.161.561-.705.767-1.606.566-2.472Zm-12.925,1.633c-1.105,0-2-.895-2-2s.895-2,2-2,2,.895,2,2-.895,2-2,2Zm6.5-3c-.828,0-1.5-.672-1.5-1.5s.672-1.5,1.5-1.5,1.5.672,1.5,1.5-.672,1.5-1.5,1.5Z"/>
</svg>
