<?xml version="1.0" encoding="UTF-8"?>
<svg xmlns="http://www.w3.org/2000/svg" id="Layer_1" data-name="Layer 1" viewBox="0 0 24 24">
  <path d="M19,1.962H5C2.243,1.962,0,4.205,0,6.962v10c0,2.757,2.243,5,5,5h14c2.757,0,5-2.243,5-5V6.962c0-2.757-2.243-5-5-5Zm-9,15.038H4c-.553,0-1-.448-1-1s.447-1,1-1h6c.553,0,1,.448,1,1s-.447,1-1,1Zm0-4H4c-.553,0-1-.448-1-1s.447-1,1-1h6c.553,0,1,.448,1,1s-.447,1-1,1Zm0-4H4c-.553,0-1-.448-1-1s.447-1,1-1h6c.553,0,1,.448,1,1s-.447,1-1,1Zm8,8c0,.552-.447,1-1,1s-1-.448-1-1h-.268c-1.067,0-2.063-.574-2.598-1.499-.277-.478-.113-1.089,.364-1.366,.479-.277,1.09-.113,1.366,.365,.179,.308,.511,.5,.867,.5h2.268c.552,0,1-.449,1-1,0-.378-.271-.698-.644-.76l-3.041-.507c-1.342-.223-2.315-1.373-2.315-2.733,0-1.654,1.346-3,3-3,0-.552,.447-1,1-1s1,.448,1,1h0s.268,0,.268,0c1.067,0,2.063,.574,2.598,1.499,.277,.478,.113,1.089-.364,1.366-.481,.276-1.092,.112-1.366-.365-.179-.308-.511-.5-.867-.5h-2.268c-.552,0-1,.448-1,1,0,.378,.271,.698,.644,.76l3.041,.507c1.342,.223,2.315,1.373,2.315,2.733,0,1.654-1.346,3-3,3Z"/>
</svg>
