<?xml version="1.0" encoding="UTF-8"?>
<svg xmlns="http://www.w3.org/2000/svg" id="Layer_1" data-name="Layer 1" viewBox="0 0 24 24">
  <path d="M22.564,8.577c-.251,.62-.928,.951-1.572,.769l-2.992-.846v2.456l3.175,2.268c.375,.268,.519,.757,.348,1.185l-1,2.5c-.083,.206-.23,.378-.421,.49l-1,.59c-.159,.094-.334,.139-.507,.139-.342,0-.676-.176-.862-.492-.281-.476-.123-1.089,.354-1.369l.706-.417,.511-1.277-2.143-.919c-1.468,1.888-4.115,2.661-5.16,2.847-.43,.527-1,1.5-2.737,2.709l-.582,1.166,1.3,1.625h1.4l-.208-.26c-.542-.679-.642-1.617-.253-2.393l.397-.794c.246-.495,.846-.694,1.341-.448,.494,.247,.695,.848,.448,1.341l-.397,.796c-.041,.081-.03,.179,.026,.249l1.207,1.509h5.058c.552,0,1,.448,1,1s-.448,1-1,1H5c-.552,0-1-.448-1-1s.448-1,1-1h2.419l-.301-.376c-.487-.609-.576-1.446-.227-2.144l.404-.808c-.818-.929-2.301-1.865-2.301-3.673,0-.291,.027-.57,.074-.836-1.11,.3-1.85,1.095-2.027,2.922-.05,.514-.473,.915-.989,.915-.593,0-1.058-.522-.998-1.112,.318-3.133,2.053-4.758,5.147-4.86,.696-.646,1.655-1.022,2.8-1.022,.81,0,3-1.006,4-3.196v-.81c0-.302,.03-.584,.092-.864,.226-1.024,.69-3.335,4.054-4.001,.282-.928,.992-1.787,1.904-2.096,.465-.157,.95,.191,.95,.681V3.236c.087,1.801,.534,2.425,1.794,3.537,.101,.089,.205,.17,.308,.242,.499,.351,.691,.997,.462,1.562Z"/>
</svg>
