<?xml version="1.0" encoding="UTF-8"?>
<svg xmlns="http://www.w3.org/2000/svg" id="Layer_1" data-name="Layer 1" viewBox="0 0 24 24">
  <path d="M14,1h0c0-.552-.448-1-1-1H1C.448,0,0,.448,0,1H0C0,1.552,.448,2,1,2h1V6H1C.448,6,0,6.448,0,7H0C0,7.552,.448,8,1,8H13c.552,0,1-.448,1-1h0c0-.552-.448-1-1-1h-1V2h1c.552,0,1-.448,1-1ZM6,6h-2V2h2V6Zm4,0h-2V2h2V6Zm1.942,14c.034,.162,.058,.328,.058,.5,0,1.381-1.119,2.5-2.5,2.5s-2.5-1.119-2.5-2.5c0-.172,.024-.338,.058-.5h4.885Zm-7,0c.034,.162,.058,.328,.058,.5,0,1.381-1.119,2.5-2.5,2.5s-2.5-1.119-2.5-2.5c0-.172,.024-.338,.058-.5H4.942Zm-1.442-10H14v8H0v-4.5c0-1.933,1.567-3.5,3.5-3.5Zm18.442,10c.034,.162,.058,.328,.058,.5,0,1.381-1.119,2.5-2.5,2.5s-2.5-1.119-2.5-2.5c0-.172,.024-.338,.058-.5h4.885Zm1.778-9h-7.721V7c0-1.105,.895-2,2-2h.837c1.722,0,3.25,1.102,3.795,2.735l1.088,3.265m-3.721,7h-4v-5h8v1c0,2.209-1.791,4-4,4Z"/>
</svg>
