<?xml version="1.0" encoding="UTF-8"?>
<svg xmlns="http://www.w3.org/2000/svg" id="Layer_1" data-name="Layer 1" viewBox="0 0 24 24">
  <path d="m6.774,23.144l-.23.23c-.781.781-2.047.781-2.828,0l-1.102-1.102c-.783-.783-.781-2.053.005-2.833l.173-.172,3.983,3.877Zm-.071-7.769l-2.492,2.482,3.978,3.873,2.434-2.434-3.92-3.92Zm3.959-6.52l-3.67-3.863c-.298-.314-.354-.784-.14-1.16.004-.007.008-.014.012-.021.325-.568,1.11-.661,1.56-.186l3.576,3.779,3.645-3.771c.451-.467,1.224-.353,1.534.217.004.007.007.014.011.02.193.358.136.792-.14,1.091-.934,1.013-3.087,3.334-3.676,3.846l3.887,3.784-.006.033.689-.689c.732-.732,1.552-1.66,2.158-2.368.591-.69.792-1.625.542-2.499-.426-1.488-1.262-3.839-2.644-5.57C16.974.769,15.14.008,12,0c-3.14.008-4.974.769-6,1.5-1.382,1.732-2.218,4.082-2.644,5.57-.25.874-.05,1.809.542,2.499.606.707,1.426,1.635,2.158,2.368l9.784,9.801,3.909-3.805-9.085-9.077h-.002Zm10.506,10.487l-3.911,3.807.268.267c.773.771,2.022.779,2.806.018l1.046-1.016c.802-.779.809-2.065.016-2.853l-.224-.223Z"/>
</svg>
