<?xml version="1.0" encoding="UTF-8"?>
<svg xmlns="http://www.w3.org/2000/svg" id="Layer_1" data-name="Layer 1" viewBox="0 0 24 24">
  <path d="m6.771,14.924c-.732.839-2.057.757-2.678-.18l-.03-.044c-.615-.927-.161-2.179.902-2.507,1.518-.468,3.435-.955,4.946-1.256-.9,1.244-2.086,2.777-3.141,3.986ZM7.924.932c-3.202,1.529-5.424,4.79-5.424,8.568,0,.473.046.935.113,1.39,1.945-.767,5.57-1.721,7.883-2.089-.914-2.125-2.212-5.764-2.572-7.869Zm4.076,6.295c.599-1.489,1.274-3.421,1.709-4.962.321-1.137-.528-2.265-1.709-2.265h0c-1.181,0-2.031,1.128-1.709,2.265.436,1.541,1.111,3.473,1.709,4.962ZM16.076.932c-.36,2.106-1.658,5.744-2.572,7.869,2.313.368,5.938,1.323,7.883,2.089.067-.455.113-.916.113-1.39,0-3.778-2.223-7.039-5.424-8.568Zm2.919,11.249c-1.512-.464-3.408-.946-4.906-1.243.896,1.239,2.076,2.764,3.127,3.971.738.847,2.076.764,2.697-.173.627-.945.166-2.222-.918-2.555Zm-1.994,9.819h-4v-3.072c1.445-.155,2.796-.622,3.976-1.351-1.57-1.54-3.72-4.342-4.976-6.131-1.256,1.789-3.405,4.592-4.976,6.131,1.18.729,2.531,1.196,3.976,1.351v3.072h-4c-.552,0-1,.447-1,1s.448,1,1,1h10c.552,0,1-.447,1-1s-.448-1-1-1Z"/>
</svg>
