<?xml version="1.0" encoding="UTF-8"?>
<svg xmlns="http://www.w3.org/2000/svg" id="Layer_1" data-name="Layer 1" viewBox="0 0 24 24">
  <path d="m24,2c0,1.595-1.87,3.718-3.052,4.666-.556.446-1.339.446-1.895,0-1.183-.948-3.052-3.071-3.052-4.666,0-1.105.895-2,2-2s2,.895,2,2c0-1.105.895-2,2-2s2,.895,2,2Zm.009,11.021c0-1.543-1.166-2.853-2.703-2.986-.413-.036-.85-.058-1.297-.058-1.265,0-2.441.701-3.324,1.425.847.576,1.378,1.122,1.426,1.171.385.396.377,1.028-.02,1.414-.194.188-.445.283-.697.283-.26,0-.52-.101-.716-.302-.045-.044-2.066-2.013-4.169-1.968-3.326.074-5.656,2.617-6.181,3.252,1.338-3.526.31-8.546.861-10.103l2.147-.649c.374-.02.669-.327.673-.702l.019-.534,1.419-.516c.454-.181.688-.703.492-1.15C11.574.764,10.553-.024,9.009-.024,7.509-.024,6.295,1.048,6.295,1.048.421,5.566.004,13.645,0,17.246c-.001,1.082.434,2.111,1.216,2.858,1.624,1.552,5.889,3.895,10.794,3.895,4.673,0,8.264-1.276,10.253-2.202,1.064-.495,1.747-1.553,1.747-2.727v-6.05Z"/>
</svg>
