<?xml version="1.0" encoding="UTF-8"?>
<svg xmlns="http://www.w3.org/2000/svg" id="Layer_1" data-name="Layer 1" viewBox="0 0 24 24">
  <path d="m4,6.081c0-1.665,1.583-3.475,3.14-4.224-.183-.183-.359-.383-.51-.598-.372-.528.049-1.259.695-1.259h2.347c.683,0,1.056.776.651,1.326-.14.19-.298.368-.462.531,1.557.75,3.138,2.559,3.138,4.223,0,1.61-1.233,2.919-2.75,2.919h-3.5c-1.517,0-2.75-1.31-2.75-2.919Zm11.707-1.788l1.293-1.293v3c0,.552.447,1,1,1s1-.448,1-1v-3l1.293,1.293c.195.195.451.293.707.293s.512-.098.707-.293c.391-.391.391-1.023,0-1.414l-2.293-2.293c-.373-.374-.859-.568-1.35-.584-.021-.001-.042-.002-.064-.002s-.043,0-.064.002c-.491.016-.977.21-1.35.584l-2.293,2.293c-.391.391-.391,1.023,0,1.414s1.023.391,1.414,0Zm7.441,4.388c-.515-.469-1.186-.712-1.878-.678-.697.032-1.339.334-1.794.835l-3.541,3.737c.032.21.065.42.065.638,0,2.083-1.555,3.876-3.617,4.17l-4.252.596c-.547.078-1.053-.302-1.131-.848-.078-.547.302-1.053.848-1.131l4.162-.583c.936-.134,1.748-.806,1.94-1.732.296-1.425-.79-2.685-2.164-2.685h-7.787c-2.209,0-4,1.791-4,4v5c0,2.209,1.791,4,4,4h4.262c2.805,0,5.48-1.178,7.374-3.246l7.702-8.409c.948-1.062.862-2.707-.189-3.665Z"/>
</svg>
