<?xml version="1.0" encoding="UTF-8"?>
<svg xmlns="http://www.w3.org/2000/svg" id="Layer_1" data-name="Layer 1" viewBox="0 0 24 24">
  <path d="m16.832,7.629l-.55-.317c.129-.418.218-.853.218-1.313s-.089-.895-.218-1.313l.55-.317c.479-.276.643-.887.367-1.365h0c-.276-.479-.887-.643-1.366-.368l-.544.314c-.605-.652-1.393-1.125-2.289-1.33v-.621c0-.552-.448-1-1-1s-1,.448-1,1v.621c-.896.205-1.685.678-2.289,1.33l-.544-.314c-.479-.276-1.09-.111-1.366.368h0c-.276.479-.111,1.09.367,1.366l.55.317c-.129.418-.218.853-.218,1.313s.089.895.218,1.313l-.55.317c-.479.276-.643.887-.367,1.366h0c.276.479.887.643,1.366.368l.544-.314c.605.652,1.393,1.125,2.289,1.33v.621c0,.552.448,1,1,1s1-.448,1-1v-.621c.896-.205,1.685-.678,2.289-1.33l.544.314c.479.276,1.09.111,1.366-.367h0c.276-.479.111-1.09-.367-1.366Zm-4.832-.129c-.827,0-1.5-.673-1.5-1.5s.673-1.5,1.5-1.5,1.5.673,1.5,1.5-.673,1.5-1.5,1.5ZM3,16c-.344,0-.677.043-1,.11v-7.11c0-1.265.472-2.421,1.25-3.303.263-.298.751-.105.75.292,0,.004,0,.007,0,.011,0,4.418,3.582,8,8,8s8-3.582,8-8c0-.004,0-.007,0-.011,0-.397.487-.59.75-.292.777.881,1.25,2.038,1.25,3.303v7.11c-.323-.067-.656-.11-1-.11h-5.151c-.983,0-1.92.359-2.646,1h-2.404c-.726-.641-1.663-1-2.646-1H3Zm21,4.5c0,1.381-1.119,2.5-2.5,2.5H2.5c-1.381,0-2.5-1.119-2.5-2.5s1.119-2.5,2.5-2.5h5.651c.589,0,1.147.259,1.527.708l.247.292h4.149l.247-.292c.38-.449.938-.708,1.527-.708h5.652c1.381,0,2.5,1.119,2.5,2.5Z"/>
</svg>
