<?xml version="1.0" encoding="UTF-8"?>
<svg xmlns="http://www.w3.org/2000/svg" id="Layer_1" data-name="Layer 1" viewBox="0 0 24 24">
  <path d="m12,0C5.383,0,0,5.383,0,12s5.383,12,12,12,12-5.383,12-12S18.617,0,12,0Zm-5,16c0,.553-.447,1-1,1s-1-.447-1-1v-5.901l-.523.575c-.371.407-1.003.438-1.413.065-.408-.372-.438-1.005-.065-1.413l1.732-1.901c.373-.402.937-.532,1.439-.334.504.197.83.674.83,1.216v7.693Zm5,1h-2c-.553,0-1-.447-1-1s.447-1,1-1h2c.552,0,1-.448,1-1s-.448-1-1-1h-1c-.553,0-1-.447-1-1s.447-1,1-1h.5c.552,0,1-.448,1-1s-.448-1-1-1h-1.5c-.553,0-1-.447-1-1s.447-1,1-1h1.5c1.654,0,3,1.346,3,3,0,.646-.21,1.242-.559,1.732.642.551,1.059,1.358,1.059,2.268,0,1.654-1.346,3-3,3Zm9-4h-1v1c0,.553-.447,1-1,1s-1-.447-1-1v-1h-1c-.553,0-1-.447-1-1s.447-1,1-1h1v-1c0-.553.447-1,1-1s1,.447,1,1v1h1c.553,0,1,.447,1,1s-.447,1-1,1Z"/>
</svg>
