<?xml version="1.0" encoding="UTF-8"?>
<svg xmlns="http://www.w3.org/2000/svg" id="Layer_1" data-name="Layer 1" viewBox="0 0 24 24">
  <path d="m11,22h2v1c0,.552-.447,1-1,1s-1-.448-1-1v-1Zm7.91-6.517c.32-.236.589-.544.781-.91.462-.88.399-1.935-.166-2.753-.025-.036-1.885-2.091-1.885-2.091.458-.231.839-.601,1.083-1.073.42-.811.353-1.778-.176-2.526-.021-.03-4.664-5.285-4.664-5.285-.947-1.074-2.821-1.075-3.771,0,0,0-4.643,5.254-4.663,5.284-.528.747-.596,1.715-.176,2.526.244.472.626.842,1.084,1.073,0,0-1.86,2.055-1.886,2.091-.564.818-.627,1.873-.165,2.753.192.366.462.674.781.91,0,0-1.536,1.785-1.557,1.815-.635.921-.706,2.108-.186,3.098.52.99,1.537,1.604,2.655,1.604h4.997v-12c0-.552.448-1,1-1s1,.448,1,1v12h5c1.117-.001,2.133-.616,2.652-1.604.52-.99.449-2.177-.186-3.098-.02-.03-1.557-1.814-1.557-1.814Z"/>
</svg>
