<?xml version="1.0" encoding="UTF-8"?>
<svg xmlns="http://www.w3.org/2000/svg" id="Layer_1" data-name="Layer 1" viewBox="0 0 24 24">
  <path d="m18,12c-3.314,0-6,2.686-6,6s2.686,6,6,6,6-2.686,6-6-2.686-6-6-6Zm2.5,7h-1.5v1.5c0,.553-.447,1-1,1s-1-.447-1-1v-1.5h-1.5c-.553,0-1-.447-1-1s.447-1,1-1h1.5v-1.5c0-.553.447-1,1-1s1,.447,1,1v1.5h1.5c.553,0,1,.447,1,1s-.447,1-1,1Zm-17.5-3h1V.1C1.672.575,0,2.624,0,5v12.025c.699-.527,1.525-.86,2.395-.964.199-.041.402-.061.605-.061Zm7.263,0h-4.263V0h9c2.761,0,5,2.239,5,5v5.263c-.641-.166-1.308-.263-2-.263-3.719,0-6.845,2.555-7.737,6Zm2.463,8H3c-1.657,0-3-1.343-3-3s1.343-3,3-3h7c0,2.39,1.059,4.533,2.726,6Z"/>
</svg>
