<?xml version="1.0" encoding="UTF-8"?>
<svg xmlns="http://www.w3.org/2000/svg" id="Layer_1" data-name="Layer 1" viewBox="0 0 24 24">
  <path d="M.893,14.12L.011,6.831c-.168-2.079,1.499-3.936,3.585-3.842,1.985,.042,3.509,1.784,3.399,3.766l-.888,7.365c-.061,.502-.487,.88-.993,.88h-.613v1c0,.553-.448,1-1,1s-1-.447-1-1v-1h-.614c-.506,0-.932-.378-.993-.88Zm22.107-1.12v7c.552,0,1,.447,1,1s-.448,1-1,1H1c-.552,0-1-.447-1-1s.448-1,1-1H14v-6.66c0-.51-.384-.939-.891-.994l-4.712-.514c.014-.15,.588-4.815,.595-4.966,.05-.897-.126-1.79-.487-2.601l8.348-1.246c.05-.003,.098,0,.147-.002v-1.017c0-.553,.448-1,1-1s1,.447,1,1v1.276c.811,.252,1.547,.676,2.171,1.267,.509,.48,.916,1.055,1.22,1.683,.17-.134,.375-.226,.609-.226,.552,0,1,.447,1,1v5c0,.553-.448,1-1,1Zm-6-.5c0,.828,.672,1.5,1.5,1.5s1.5-.672,1.5-1.5-.672-1.5-1.5-1.5-1.5,.672-1.5,1.5Zm0,4c0,.828,.672,1.5,1.5,1.5s1.5-.672,1.5-1.5-.672-1.5-1.5-1.5-1.5,.672-1.5,1.5Z"/>
</svg>
