<?xml version="1.0" encoding="UTF-8"?>
<svg xmlns="http://www.w3.org/2000/svg" id="Layer_1" data-name="Layer 1" viewBox="0 0 24 24">
  <path d="m19.333,3.947c-1.45,0-2.796.795-3.666,1.986-.593-.812-1.376-1.6-2.478-1.767.275-1.07.664-1.763.994-2.34l.195-.349c.265-.485.086-1.092-.399-1.356s-1.092-.085-1.356.399l-.177.315c-.399.7-.977,1.72-1.316,3.363-1.807.581-3.129,2.249-3.129,4.247,0,1.633.777,5.099,2.001,8.11.27.665-.211,1.39-.929,1.39-.41,0-.786-.244-.94-.624-1.421-3.509-2.132-7.394-2.132-8.876,0-1.393.444-2.681,1.193-3.74-.726-.479-1.592-.76-2.526-.76C2.093,3.947,0,6.041,0,8.614c0,2.917,2.813,15.239,8.438,15.329.036.003.062.004.062.004,1.421,0,2.675-.675,3.5-1.706.825,1.032,2.079,1.706,3.5,1.706,0,0,.024-.001.06-.004,5.725-.086,8.44-12.306,8.44-15.33,0-2.573-2.094-4.667-4.667-4.667Z"/>
</svg>
