<?xml version="1.0" encoding="UTF-8"?>
<svg xmlns="http://www.w3.org/2000/svg" id="Layer_1" data-name="Layer 1" viewBox="0 0 24 24">
  <path d="m20.527,8.688c-2.132-2.847-5.642-4.193-9.164-3.513-3.625.701-6.518,3.612-7.198,7.244-.468,2.499.39,5.271,2.353,7.606.311.37.482.83.482,1.294v1.68c0,.552.448,1,1,1h8.5c.552,0,1-.448,1-1h.511c.093,0,.183-.013.269-.037,1.888-.249,3.424-1.749,3.682-3.702l.133-1.261h.087c1.181,0,1.818-.937,1.818-1.818,0-1.192-2.383-6.148-3.473-7.493Zm-4.527,6.312h-3v5c0,.552-.448,1-1,1s-1-.448-1-1v-4h-.75c-1.243,0-2.25-1.007-2.25-2.25,0-.799.419-1.496,1.047-1.895-.028-.114-.047-.232-.047-.355,0-.828.672-1.5,1.5-1.5.198,0,.385.04.558.11.173-.638.75-1.11,1.442-1.11.534,0,.999.28,1.265.7.218-.124.467-.2.735-.2.828,0,1.5.672,1.5,1.5,1.105,0,2,.895,2,2s-.895,2-2,2ZM11.383,3.486c-.49,0-.918-.361-.989-.861l-.205-1.457c-.077-.547.304-1.053.851-1.13.542-.08,1.053.303,1.13.851l.205,1.458c.077.547-.304,1.052-.851,1.129-.047.007-.094.01-.141.01Zm5.363.505c-.106,0-.214-.017-.32-.053-.523-.177-.804-.744-.627-1.268l.471-1.394c.177-.523.742-.806,1.268-.628.523.177.804.744.628,1.268l-.472,1.395c-.141.417-.53.68-.947.68Zm4.5,2.792c-.255,0-.51-.097-.706-.291-.391-.39-.393-1.023-.003-1.415l1.039-1.043c.39-.392,1.022-.393,1.414-.003s.393,1.022.003,1.414l-1.038,1.043c-.196.196-.452.294-.709.294Zm-14.886-1.336c-.317,0-.629-.15-.823-.431l-.838-1.21c-.314-.454-.2-1.077.254-1.391s1.077-.2,1.391.254l.837,1.209c.314.454.201,1.077-.253,1.391-.173.12-.372.178-.568.178Zm-3.557,3.914c-.165,0-.332-.041-.485-.126l-1.287-.716c-.482-.269-.655-.878-.386-1.361.27-.482.878-.655,1.361-.386l1.285.716c.483.269.656.877.387,1.36-.183.329-.523.514-.875.514Z"/>
</svg>
