<?xml version="1.0" encoding="UTF-8"?>
<svg xmlns="http://www.w3.org/2000/svg" id="Layer_1" data-name="Layer 1" viewBox="0 0 24 24">
  <path d="m13.729,5.955c0,.398-.349.735-.762.735l-.71.003-.005-1.473h.715c.413,0,.762.336.762.735Zm4.271,13.045v4.54c.913-.347,1.753-.879,2.465-1.591l1.484-1.485c.712-.711,1.245-1.551,1.591-2.465h-4.54c-.552,0-1,.449-1,1Zm6-14v10.515c0,.163-.013.324-.024.485h-4.976c-1.654,0-3,1.346-3,3v4.976c-.161.011-.322.024-.485.024H5c-2.757,0-5-2.243-5-5V5C0,2.243,2.243,0,5,0h14c2.757,0,5,2.243,5,5ZM7.249,9.435c0-.331-.268-.599-.599-.599h-1.695l2.163-3.47c.167-.267.175-.605.022-.88-.153-.275-.444-.446-.759-.446h-2.282c-.331,0-.599.269-.599.599s.268.599.599.599h1.686l-2.151,3.452c-.169.271-.178.613-.023.892.155.279.45.452.769.452h2.27c.331,0,.599-.269.599-.599Zm2.449-4.797c0-.331-.268-.599-.599-.599s-.599.269-.599.599v4.8c0,.331.268.599.599.599s.599-.269.599-.599v-4.8Zm5.28,1.317c0-1.094-.902-1.985-2.012-1.985h-1.342c-.345,0-.625.28-.625.625v4.819c0,.345.28.625.625.625s.625-.28.625-.625v-1.471l.717-.003c1.109,0,2.012-.891,2.012-1.985Z"/>
</svg>
