<?xml version="1.0" encoding="UTF-8"?>
<svg xmlns="http://www.w3.org/2000/svg" id="Layer_1" data-name="Layer 1" viewBox="0 0 24 24">
  <path d="M10,18c0,.339,.028,.672,.069,1h-2.294l-4.479,2.669c-.634,.425-1.483,.445-2.162,.08-.7-.375-1.135-1.1-1.135-1.894V5C0,2.243,2.243,0,5,0h12c2.757,0,5,2.243,5,5v6.082c-1.178-.684-2.542-1.082-4-1.082-4.411,0-8,3.589-8,8Zm14,0c0,3.314-2.686,6-6,6s-6-2.686-6-6,2.686-6,6-6,6,2.686,6,6Zm-2,0c0-.553-.448-1-1-1h-3v-1.121c0-.355-.213-.676-.541-.812-.325-.135-.705-.062-.957,.19l-1.5,1.5c-.685,.685-.685,1.8,0,2.485l1.5,1.5c.251,.252,.629,.329,.957,.19,.328-.136,.541-.456,.541-.812v-1.121h3c.552,0,1-.447,1-1Z"/>
</svg>
