<?xml version="1.0" encoding="UTF-8"?>
<svg xmlns="http://www.w3.org/2000/svg" id="Layer_1" data-name="Layer 1" viewBox="0 0 24 24">
  <path d="M23,13c-.552,0-1,.447-1,1v3h-1v-5c0-.553-.448-1-1-1s-1,.447-1,1v5h-1v-3.5c0-.553-.448-1-1-1s-1,.447-1,1v5.501l-1.317-1.232c-.402-.377-1.036-.356-1.414,.048-.377,.403-.356,1.036,.047,1.413,0,0,4.295,3.98,4.369,4.02,.655,.468,1.45,.75,2.314,.75,2.206,0,4-1.794,4-4v-6c0-.553-.448-1-1-1ZM10.5,7c-1.93,0-3.5,1.57-3.5,3.5s1.57,3.5,3.5,3.5,3.5-1.57,3.5-3.5-1.57-3.5-3.5-3.5Zm0,5c-.828,0-1.5-.672-1.5-1.5s.672-1.5,1.5-1.5,1.5,.672,1.5,1.5-.672,1.5-1.5,1.5Zm10.402-2.859c-.285-.09-.588-.141-.902-.141-1.119,0-2.096,.615-2.612,1.525-.127-.017-.257-.025-.388-.025-.356,0-.693,.073-1.009,.187,.002-.063,.009-.124,.009-.187,0-3.032-2.467-5.5-5.5-5.5s-5.5,2.468-5.5,5.5,2.467,5.5,5.5,5.5c.76,0,1.477-.17,2.136-.45-.351,.384-.664,.726-.828,.902-1.13,1.208-1.066,3.11,.149,4.245,.062,.057,.116,.108,.176,.163-.534,.084-1.076,.14-1.633,.14C4.701,21,0,16.299,0,10.5S4.701,0,10.5,0c5.337,0,9.734,3.986,10.402,9.141Z"/>
</svg>
