<?xml version="1.0" encoding="UTF-8"?>
<svg xmlns="http://www.w3.org/2000/svg" id="Layer_1" data-name="Layer 1" viewBox="0 0 24 24">
  <path d="M23,6h-2.628c-.553,0-1.047-.33-1.258-.84-.212-.511-.096-1.093,.295-1.483l1.677-1.676h-1.086c-.553,0-1-.448-1-1s.447-1,1-1h2.628c.553,0,1.047,.33,1.258,.84,.212,.51,.096,1.092-.295,1.483l-1.677,1.676h1.086c.553,0,1,.447,1,1s-.447,1-1,1Zm-7.5,1h-1.382c-.012-.02-2.065-3.002-3.182-4.822-.533-.868-1.813-.801-2.256,.117l-.883,1.948c-1.402,.296-2.62,1.086-3.469,2.18H1.863c-1.01,0-1.628,1.11-1.094,1.968l3.22,4.812c1.053,1.677,2.915,2.797,5.037,2.797,3.28,0,5.974-2.719,5.974-6,0-.552,.448-1,1-1s1,.448,1,1c-.012,1.026-.245,2.149-.612,3.046,.204-.015,.404-.046,.612-.046h1c.552,0,1,.448,1,1s-.448,1-1,1h-1c-2.705,0-5.34,2.119-5.941,4.965,0,0,1.531,1.189,4.441,2.035-3.654,0-7.799-.092-10.24-4.378-.302-.67-.847-1.182-1.534-1.442-.689-.261-1.438-.237-2.106,.065-.67,.302-1.182,.847-1.442,1.534-.26,.688-.237,1.436,.066,2.106l.081,.141c2.765,3.972,7.207,3.972,12.636,3.972h2.538c4.687,0,8.5-3.813,8.5-8.5s-3.813-8.5-8.5-8.5Z"/>
</svg>
