<?xml version="1.0" encoding="UTF-8"?>
<svg xmlns="http://www.w3.org/2000/svg" id="Layer_1" data-name="Layer 1" viewBox="0 0 24 24">
  <path d="M24,17V7c0-2.761-2.239-5-5-5H5c-.482,0-.943,.074-1.381,.205L1.707,.293C1.316-.098,.684-.098,.293,.293S-.098,1.316,.293,1.707L22.293,23.707c.195,.195,.451,.293,.707,.293s.512-.098,.707-.293c.391-.391,.391-1.023,0-1.414l-1.495-1.495c1.088-.911,1.788-2.266,1.788-3.798Zm-4-6c.552,0,1,.448,1,1s-.448,1-1,1h-5.586l-2-2h7.586Zm-2.586,5h2.586c.552,0,1,.448,1,1s-.448,1-1,1h-.586l-2-2Zm-13.414,2c-.552,0-1-.448-1-1s.448-1,1-1h7.74L.534,4.794c-.331,.668-.534,1.41-.534,2.206v10c0,2.761,2.239,5,5,5h12.74l-4-4H4Zm0-7h1c.552,0,1,.448,1,1s-.448,1-1,1h-1c-.552,0-1-.448-1-1s.448-1,1-1Z"/>
</svg>
