<?xml version="1.0" encoding="UTF-8"?>
<svg xmlns="http://www.w3.org/2000/svg" id="Layer_1" data-name="Layer 1" viewBox="0 0 24 24">
  <path d="M9,22c0,1.105-.895,2-2,2s-2-.895-2-2,.895-2,2-2,2,.895,2,2Zm8-2c-1.105,0-2,.895-2,2s.895,2,2,2,2-.895,2-2-.895-2-2-2Zm7-15c0,2.761-2.239,5-5,5s-5-2.239-5-5S16.239,0,19,0s5,2.239,5,5Zm-3,2h0c.39-.39,.39-1.024,0-1.414l-1-1v-1.586c0-.552-.448-1-1-1h0c-.552,0-1,.448-1,1v2c0,.265,.105,.52,.293,.707l1.293,1.293c.39,.39,1.024,.39,1.414,0Zm-2,5.115c-3.86,0-7-3.141-7-7,0-.737,.116-1.447,.329-2.115H5.242l-.041-.352c-.179-1.51-1.46-2.648-2.979-2.648H1C.447,0,0,.448,0,1s.447,1,1,1h1.222c.507,0,.934,.38,.993,.883l1.376,11.702c.297,2.517,2.432,4.416,4.966,4.416h9.443c.553,0,1-.448,1-1s-.447-1-1-1H9.557c-1.292,0-2.404-.826-2.82-2h11.424c2.375,0,4.437-1.69,4.902-4.019l.041-.207c-1.155,.84-2.57,1.341-4.104,1.341Z"/>
</svg>
