<?xml version="1.0" encoding="UTF-8"?>
<svg xmlns="http://www.w3.org/2000/svg" id="Layer_1" data-name="Layer 1" viewBox="0 0 24 24">
  <path d="m.293,4.293l1.293-1.293L.293,1.707C-.098,1.316-.098.684.293.293S1.316-.098,1.707.293l1.293,1.293,1.293-1.293c.391-.391,1.023-.391,1.414,0s.391,1.023,0,1.414l-1.293,1.293,1.293,1.293c.391.391.391,1.023,0,1.414-.195.195-.451.293-.707.293s-.512-.098-.707-.293l-1.293-1.293-1.293,1.293c-.195.195-.451.293-.707.293s-.512-.098-.707-.293c-.391-.391-.391-1.023,0-1.414Zm9,6.414c.195.195.451.293.707.293s.512-.098.707-.293l1.293-1.293,1.293,1.293c.195.195.451.293.707.293s.512-.098.707-.293c.391-.391.391-1.023,0-1.414l-1.293-1.293,1.293-1.293c.391-.391.391-1.023,0-1.414s-1.023-.391-1.414,0l-1.293,1.293-1.293-1.293c-.391-.391-1.023-.391-1.414,0s-.391,1.023,0,1.414l1.293,1.293-1.293,1.293c-.391.391-.391,1.023,0,1.414Zm11.414,7.586c-.391-.391-1.023-.391-1.414,0l-1.293,1.293-1.293-1.293c-.391-.391-1.023-.391-1.414,0s-.391,1.023,0,1.414l1.293,1.293-1.293,1.293c-.391.391-.391,1.023,0,1.414.195.195.451.293.707.293s.512-.098.707-.293l1.293-1.293,1.293,1.293c.195.195.451.293.707.293s.512-.098.707-.293c.391-.391.391-1.023,0-1.414l-1.293-1.293,1.293-1.293c.391-.391.391-1.023,0-1.414Zm2.985-15.514l-2.286-2.197c-.776-.773-2.037-.775-2.798-.014l-2.301,2.21c-.398.383-.411,1.016-.028,1.414.382.398,1.016.411,1.413.028l1.308-1.249v8.028c0,1.103-.897,2-2,2H6.004c-2.196,0-3.991,1.787-4,3.984l-.002,1.199c-1.164.413-2.002,1.512-2.002,2.817,0,1.657,1.343,3,3,3s3-1.343,3-3c0-1.303-.836-2.401-1.997-2.815v-1.192c.006-1.099.903-1.992,2.001-1.992h10.996c2.206,0,4-1.794,4-4V2.965l1.308,1.256c.193.186.443.279.692.279.263,0,.524-.103.721-.307.383-.398.37-1.031-.028-1.414Z"/>
</svg>
