<?xml version="1.0" encoding="UTF-8"?>
<svg xmlns="http://www.w3.org/2000/svg" id="Layer_1" data-name="Layer 1" viewBox="0 0 24 24">
  <path d="m23.311,3.999l-1.407-.603c-.23-1.371-.941-2.428-2.027-2.972-.954-.478-2.037-.557-3.054-.22-1.014.337-1.835,1.049-2.299,1.975l-1.296,2.495c-2.973-1.198-4.761-3.302-4.787-3.325-.474-.448-1.903-.708-1.695,1.005,1.338,1.286,2.895,2.774,5.595,4.026h0l-.841,1.619c-2.981-.813-5.372-3.605-7-5.521-.802-.944-2.352-.4-2.408.838-.012.262-.09,1.005-.092,1.183-.035,3.109.535,9.053,6,12.5l-6.575.427c-.965.075-1.62,1.009-1.372,1.944.431,1.624,2.142,3.534,4.122,4.433.667.303,1.446.243,2.091-.105l3.839-2.407c.516-.323,1.158-.334,1.702-.062.708.355,1.872.77,3.443.77,3.722,0,6.75-3.028,6.75-6.75,0-1.643-.007-5.924-.011-8.593l1.322-.566c.418-.179.689-.59.689-1.045h0c0-.455-.271-.866-.689-1.045Z"/>
</svg>
