<?xml version="1.0" encoding="UTF-8"?>
<svg xmlns="http://www.w3.org/2000/svg" id="Layer_1" data-name="Layer 1" viewBox="0 0 24 24">
  <path d="m19,4H4v-1c0-1.657,1.343-3,3-3h9c1.657,0,3,1.343,3,3v1Zm-6,16v-8H1v8c0,2.209,1.791,4,4,4h9.54c-.954-1.063-1.54-2.462-1.54-4Zm6-14l-2.867,3.498c-.733.894-1.133,2.014-1.133,3.169v7.16c0,2.089,1.527,3.955,3.607,4.153,2.386.227,4.393-1.643,4.393-3.981v-7.59c0-1.222-.448-2.402-1.258-3.317l-2.742-3.093Zm-15.286,0l-1.952,3.011c-.176.318-.323.647-.438.989h12.227c.261-.632.596-1.235,1.034-1.77l1.828-2.23H3.714Z"/>
</svg>
