<?xml version="1.0" encoding="UTF-8"?>
<svg xmlns="http://www.w3.org/2000/svg" id="Layer_1" data-name="Layer 1" viewBox="0 0 24 24">
  <path d="m14,24h-6c-.552,0-1-.448-1-1h0c0-.552.448-1,1-1h6c3.866,0,7-3.134,7-7V6c0-.552.448-1,1-1h0c.552,0,1,.448,1,1v9c0,4.971-4.029,9-9,9Zm0-24h-.17c-.458,0-.83.372-.83.83h0c0,1.485-.999,2.869-2.463,3.123-1.894.329-3.537-1.12-3.537-2.953,0,0,0-1-1-1h0C3.239,0,1,2.239,1,5v10c0,2.761,2.239,5,5,5h.17c.459,0,.83-.372.83-.83h0c0-1.485.999-2.869,2.463-3.123,1.894-.328,3.537,1.121,3.537,2.953,0,0,0,1,1,1h0c2.761,0,5-2.239,5-5V5c0-2.761-2.239-5-5-5Z"/>
</svg>
