<?xml version="1.0" encoding="UTF-8"?>
<svg xmlns="http://www.w3.org/2000/svg" id="Layer_1" data-name="Layer 1" viewBox="0 0 24 24">
  <path d="m20.5,13h-5c-1.93,0-3.5,1.57-3.5,3.5v4c0,1.93,1.57,3.5,3.5,3.5h5c1.93,0,3.5-1.57,3.5-3.5v-4c0-1.93-1.57-3.5-3.5-3.5Zm-1.5,5h-2c-.553,0-1-.447-1-1s.447-1,1-1h2c.553,0,1,.447,1,1s-.447,1-1,1Zm-9,2.5v-4c0-3.032,2.467-5.5,5.5-5.5h2.5v-4c0-2.757-2.243-5-5-5h-.171c-.413-1.164-1.525-2-2.829-2h-2c-1.304,0-2.416.836-2.829,2h-.171C2.243,2,0,4.243,0,7v12c0,2.757,2.243,5,5,5h6.261c-.787-.952-1.261-2.172-1.261-3.5Zm2-13.582h2c.553,0,1,.448,1,1s-.447,1-1,1h-2c-.552,0-1-.448-1-1s.448-1,1-1Zm-2.793,6.207l-2.227,2.227c-.431.431-.995.648-1.56.648-.533,0-1.067-.193-1.491-.582l-1.105-1.013c-.407-.373-.435-1.006-.062-1.413.373-.406,1.006-.435,1.413-.062l1.105,1.013c.082.075.208.073.286-.006l2.227-2.227c.391-.391,1.023-.391,1.414,0s.391,1.023,0,1.414Zm0-6.08l-2.227,2.227c-.431.431-.995.648-1.56.648-.533,0-1.067-.193-1.491-.582l-1.105-1.013c-.407-.373-.435-1.006-.062-1.413.373-.406,1.006-.435,1.413-.062l1.105,1.013c.082.076.208.073.286-.006l2.227-2.227c.391-.391,1.023-.391,1.414,0s.391,1.023,0,1.414Z"/>
</svg>
