<?xml version="1.0" encoding="UTF-8"?>
<svg xmlns="http://www.w3.org/2000/svg" id="Layer_1" data-name="Layer 1" viewBox="0 0 24 24">
  <path d="M19.309,10.01c-2.089-.127-3.932,1.166-4.845,3.049-.643,1.327-.537,2.507-.171,3.565,0,0-.293,.376-.293,.876,0,1-.022,1.5-.022,1.5h-1c-.552,0-1,.448-1,1v1h-.978c-.552,0-1,.448-1,1v1c0,.552,.448,1,1,1h.776c.53,0,1.039-.211,1.414-.586l3.827-3.827c.948,.411,2.044,.544,3.193,.267,1.885-.454,3.373-2.035,3.71-3.945,.538-3.055-1.7-5.723-4.611-5.9Zm.691,5.491c-.828,0-1.5-.672-1.5-1.5s.672-1.5,1.5-1.5,1.5,.672,1.5,1.5-.672,1.5-1.5,1.5Zm-11.816,8.5h-3.684C2.008,23.701-.009,21.62,0,19.004V9.728c0-1.665,.824-3.215,2.204-4.145L9.203,.86c1.69-1.141,3.904-1.141,5.594,0l7,4.724c1.378,.93,2.203,2.483,2.203,4.145v.374c-1.207-1.232-2.835-1.983-4.569-2.089-2.793-.168-5.456,1.468-6.766,4.173-.66,1.361-.826,2.792-.497,4.264-.068,.211-.123,.448-.15,.707-.915,.31-1.633,1.05-1.912,1.979-1.219,.381-2.105,1.521-2.105,2.864v1c0,.352,.072,.686,.184,1Z"/>
</svg>
