<?xml version="1.0" encoding="UTF-8"?>
<svg xmlns="http://www.w3.org/2000/svg" id="Layer_1" data-name="Layer 1" viewBox="0 0 24 24">
  <path d="m14,6.358v3.449c0,.603-.405,1.14-.984,1.305l-2.516.718v-5.841c0-.253.17-.479.415-.549,0,0,1.606-.44,1.732-.44.29,0,.574.094.814.275.343.259.54.653.54,1.083Zm-5.915-.917s-1.606-.44-1.732-.44c-.291,0-.574.094-.814.275-.343.259-.54.653-.54,1.083v3.449c0,.603.405,1.14.984,1.305l2.516.718v-5.841c0-.253-.17-.479-.415-.549Zm10.915-.441v7c0,2.757-2.243,5-5,5h-6.697l-3.963,2.643c-.36.239-.775.36-1.191.36-.348,0-.696-.084-1.015-.255-.699-.375-1.134-1.101-1.134-1.894V5C0,2.243,2.243,0,5,0h9c2.757,0,5,2.243,5,5Zm-3,1.358c0-1.063-.487-2.04-1.335-2.68-.848-.641-1.921-.841-2.944-.548l-1.355.387c-.32.091-.612.243-.865.439-.253-.197-.545-.348-.865-.439l-1.355-.387c-1.023-.294-2.097-.093-2.944.548-.849.64-1.335,1.617-1.335,2.68v3.449c0,1.491,1.001,2.818,2.435,3.228l2.711.774c.443.127.898.19,1.354.19s.911-.063,1.354-.19l2.712-.774c1.434-.41,2.435-1.737,2.435-3.228v-3.449Zm5-1.917v7.559c0,3.859-3.141,7-7,7h-6.092l-.569.38c.914.99,2.211,1.62,3.661,1.62h5.697l3.964,2.644c.359.239.774.36,1.19.36.348,0,.696-.085,1.015-.256.699-.375,1.134-1.101,1.134-1.894v-12.854c0-2.043-1.24-3.785-3-4.559Z"/>
</svg>
