<?xml version="1.0" encoding="UTF-8"?>
<svg xmlns="http://www.w3.org/2000/svg" id="Layer_1" data-name="Layer 1" viewBox="0 0 24 24">
  <path d="m24,18.664v.336c0,1.214-1.082,2.176-2.335,1.973-.984-.16-1.665-1.083-1.665-2.079v-.23l.854-2.42-1.854-.348v6.105h2c.552,0,1,.447,1,1s-.448,1-1,1h-6c-.552,0-1-.447-1-1s.448-1,1-1h2v-6.48l-1.752-.328.861,2.406v.575h-.013c-.129,1.162-1.226,2.032-2.466,1.783-.97-.194-1.63-1.112-1.63-2.101v-.244l1.06-3.379c.251-.801,1.061-1.288,1.886-1.135l2.054.381v-.48c0-.553.448-1,1-1s1,.447,1,1v.851l2.41.447c.675.125,1.233.599,1.465,1.245l1.124,3.121Zm-15-6.664c3.309,0,6-2.691,6-6S12.309,0,9,0,3,2.691,3,6s2.691,6,6,6Zm1,5.855v-.55l.964-3.073c-.634-.143-1.288-.232-1.964-.232C4.043,14,.009,18.028,0,22.983c-.001.557.443,1.017,1,1.017h11.184c-.112-.314-.184-.648-.184-1,0-.503.136-.97.356-1.387-1.402-.658-2.356-2.108-2.356-3.758Z"/>
</svg>
