<?xml version="1.0" encoding="UTF-8"?>
<svg xmlns="http://www.w3.org/2000/svg" id="Layer_1" data-name="Layer 1" viewBox="0 0 24 24">
  <path d="m6.293,8c1.974,0,3.624-1.279,4.099-3h12.607c.552,0,1-.447,1-1s-.448-1-1-1h-12.607c-.475-1.721-2.125-3-4.099-3C4.132,0,0,1.558,0,4s4.132,4,6.293,4Zm17.034,4.498c-.714-.952-1.806-1.498-2.997-1.498H3.669c-1.19,0-2.283.546-2.997,1.498-.72.961-.939,2.174-.602,3.329.652,2.233,1.834,4.248,3.419,5.826,1.498,1.491,3.613,2.347,5.805,2.347h5.411c2.191,0,4.307-.855,5.805-2.347,1.585-1.578,2.767-3.593,3.419-5.826.337-1.155.118-2.368-.602-3.329Z"/>
</svg>
