<?xml version="1.0" encoding="UTF-8"?>
<svg xmlns="http://www.w3.org/2000/svg" id="Layer_1" data-name="Layer 1" viewBox="0 0 24 24">
  <path d="m24,22.351c.002-.706-.457-1.302-1.113-1.564-1.106-.442-.887-1.523-.887-2.787v-.795c-.504.734-1.107,1.279-1.815,1.566l-1.646-1.646c.15.069.304.106.461.106,1.657,0,3-4.036,3-8.731S20.657,0,19,0s-3,3.806-3,8.5c0,3.237.638,6.16,1.578,7.664l-3.164-3.164c-.279-1.413-.414-2.958-.414-4.5,0-3.238.595-6.491,1.868-8.5H5c-.924,0-1.782.381-2.517,1.069l-.776-.776C1.316-.098.684-.098.293.293S-.098,1.316.293,1.707l22,22c.195.195.451.293.707.293s.512-.098.707-.293c.192-.192.289-.442.293-.693.001-.101,0-.57,0-.662Zm-5-15.851c.552,0,1,.895,1,2s-.448,2-1,2-1-.895-1-2,.448-2,1-2Zm-6.26,10.5h-7.74c-2.804,0-5-3.5-5-8.5,0-1.008.089-1.954.255-2.824.079-.415.591-.571.889-.272l11.596,11.596Zm6.138,6.138c.318.318.093.862-.357.862h-7.52c-1.657,0-3-1.343-3-3v-2h6.74l4.138,4.138Z"/>
</svg>
