<?xml version="1.0" encoding="UTF-8"?>
<svg xmlns="http://www.w3.org/2000/svg" id="Layer_1" data-name="Layer 1" viewBox="0 0 24 24">
  <path d="m12,5c1.381,0,2.5,1.119,2.5,2.5s-1.119,2.5-2.5,2.5-2.5-1.119-2.5-2.5,1.119-2.5,2.5-2.5Zm4,9v3c0,.883-.391,1.67-1,2.22v3.78c0,.553-.447,1-1,1s-1-.447-1-1v-3h-2v3c0,.553-.447,1-1,1s-1-.447-1-1v-3.78c-.609-.549-1-1.337-1-2.22v-3c0-1.654,1.346-3,3-3h2c1.654,0,3,1.346,3,3ZM5,5c1.381,0,2.5-1.119,2.5-2.5S6.381,0,5,0s-2.5,1.119-2.5,2.5,1.119,2.5,2.5,2.5Zm2.5,2.5c0-.392.066-.765.161-1.128-.507-.233-1.067-.372-1.661-.372h-2C1.794,6,0,7.794,0,10v3c0,1.474.81,2.75,2,3.444v6.556c0,.553.448,1,1,1s1-.447,1-1v-6h2v-3c0-1.716.87-3.231,2.19-4.132-.43-.69-.69-1.497-.69-2.368Zm14-5C21.5,1.119,20.381,0,19,0s-2.5,1.119-2.5,2.5,1.119,2.5,2.5,2.5,2.5-1.119,2.5-2.5Zm-5.69,7.368c1.32.901,2.19,2.416,2.19,4.132v3h2s0,6,0,6c0,.553.448,1,1,1s1-.447,1-1v-6.556c1.19-.694,2-1.97,2-3.444v-3c0-2.206-1.794-4-4-4h-2c-.594,0-1.153.139-1.661.372.095.363.161.736.161,1.128,0,.871-.26,1.679-.69,2.368Z"/>
</svg>
