<?xml version="1.0" encoding="UTF-8"?>
<svg xmlns="http://www.w3.org/2000/svg" id="Layer_1" data-name="Layer 1" viewBox="0 0 24 24">
  <path d="m9.799,14.201c2.439,2.439,2.851,6.138,1.236,9.003-.519.921-1.796,1.065-2.544.318l-3.299-3.299-.985.985c-.195.195-.451.293-.707.293s-.512-.098-.707-.293c-.391-.391-.391-1.023,0-1.414l.985-.985L.479,15.509c-.747-.747-.603-2.025.318-2.544,2.865-1.615,6.563-1.203,9.003,1.236ZM22.911,1.09c-1.453-1.453-3.808-1.453-5.26,0l-9.519,9.496c1.206.424,2.315,1.107,3.245,2.037.922.922,1.601,2.019,2.026,3.213l9.508-9.486c1.452-1.453,1.452-3.807,0-5.26ZM5.658,10.236l6.629-6.613-1.744-1.744c-1.134-1.135-3.112-1.132-4.242,0l-2.379,2.378c-1.17,1.169-1.17,3.073,0,4.243l1.736,1.736Zm14.691,1.501l-6.629,6.613,1.802,1.802c.566.566,1.32.878,2.121.878s1.555-.312,2.121-.878l2.379-2.378c.566-.567.879-1.32.879-2.122s-.312-1.555-.879-2.121l-1.794-1.794Z"/>
</svg>
