<?xml version="1.0" encoding="UTF-8"?>
<svg xmlns="http://www.w3.org/2000/svg" id="Layer_1" data-name="Layer 1" viewBox="0 0 24 24">
  <path d="M13.5,12.256c0,.827-.673,1.5-1.5,1.5s-1.5-.673-1.5-1.5,.673-1.5,1.5-1.5,1.5,.673,1.5,1.5ZM2.344,6.88c-.217,.32-.344,.705-.344,1.12,0,.86,.549,1.589,1.313,1.871,1.224-1.205,2.483-1.993,3.606-2.695,1.386-.866,2.464-1.545,3.324-2.902-.586-1.071-.896-2.023-.946-2.185-.392-1.27-1.49-2.089-2.797-2.089H2C.897,0,0,.897,0,2c0,.878,.572,1.617,1.359,1.885-.219,.32-.359,.698-.359,1.115,0,.872,.564,1.607,1.344,1.88Zm19.567,7.823c-.124-.038-.49-.16-.972-.361-1.362,1.626-2.873,2.576-4.207,3.409-1.019,.637-1.922,1.211-2.732,2.057v.191c0,1.103,.897,2,2,2,.414,0,.8-.127,1.12-.344,.273,.78,1.008,1.344,1.88,1.344,.417,0,.795-.14,1.115-.359,.269,.788,1.008,1.359,1.885,1.359,1.103,0,2-.897,2-2v-4.5c0-1.307-.819-2.405-2.089-2.797Zm-.181-5.915c-1.266,4.016-3.92,5.932-6.058,7.268-1.612,1.007-3.465,2.096-4.908,4.802-.665,1.247-2.285,1.603-3.375,.702l-4.699-3.887c-.791-.655-1.024-1.763-.592-2.695,1.658-3.574,4.018-4.941,5.88-6.105,1.725-1.078,3.745-2.782,4.958-5.577,.567-1.306,2.207-1.728,3.304-.821l4.762,3.939c.694,.574,.999,1.515,.728,2.374Zm-6.23,3.468c0-1.93-1.57-3.5-3.5-3.5s-3.5,1.57-3.5,3.5,1.57,3.5,3.5,3.5,3.5-1.57,3.5-3.5Z"/>
</svg>
