<?xml version="1.0" encoding="UTF-8"?>
<svg xmlns="http://www.w3.org/2000/svg" id="Layer_1" data-name="Layer 1" viewBox="0 0 24 24">
  <path d="m23.74,6.24c-.391-.391-1.023-.391-1.414,0l-3.097,3.097c-.56-.204-1.151-.337-1.727-.337-.46,0-.918.104-1.363.277h-.001s7.569-7.57,7.569-7.57c.391-.391.391-1.023,0-1.414s-1.023-.391-1.414,0l-7.566,7.566c.173-.444.276-.901.276-1.359,0-.587-.138-1.189-.349-1.759l3.087-3.087c.391-.391.391-1.023,0-1.414s-1.023-.391-1.414,0l-2.651,2.651c-.144-.206-.287-.39-.421-.546-.197-.23-.474-.345-.752-.345s-.555.115-.752.345c-.736.86-1.748,2.564-1.748,4.155,0,1.417.898,2.828,2.26,3.823l-2.536,2.536c.173-.444.276-.901.276-1.359,0-1.591-1.012-3.295-1.748-4.155-.197-.23-.474-.345-.752-.345s-.555.115-.752.345c-.736.86-1.748,2.564-1.748,4.155,0,1.417.898,2.828,2.26,3.823l-2.536,2.536c.173-.444.276-.901.276-1.359,0-1.591-1.012-3.295-1.748-4.155-.197-.23-.474-.345-.752-.345s-.555.115-.752.345C1.014,13.205.003,14.909.003,16.5c0,1.417.898,2.828,2.26,3.823l-1.97,1.97c-.391.391-.391,1.023,0,1.414.195.195.451.293.707.293h.003c.256,0,.512-.098.707-.293l1.969-1.969c.996,1.363,2.407,2.262,3.824,2.262,1.591,0,3.295-1.012,4.155-1.748.23-.197.345-.474.345-.752s-.115-.555-.345-.752c-.86-.736-2.564-1.748-4.155-1.748-.46,0-.918.104-1.363.277l2.539-2.539c.996,1.363,2.407,2.262,3.824,2.262,1.591,0,3.295-1.012,4.155-1.748.23-.197.345-.474.345-.752s-.115-.555-.345-.752c-.86-.736-2.564-1.748-4.155-1.748-.46,0-.918.104-1.363.277l2.539-2.539c.996,1.363,2.407,2.262,3.824,2.262,1.591,0,3.295-1.012,4.155-1.748.23-.197.345-.474.345-.752s-.115-.555-.345-.752c-.163-.139-.356-.288-.572-.439l2.655-2.655c.391-.391.391-1.023,0-1.414Z"/>
</svg>
