<?xml version="1.0" encoding="UTF-8"?>
<svg xmlns="http://www.w3.org/2000/svg" id="Layer_1" data-name="Layer 1" viewBox="0 0 24 24">
  <path d="m20.5,6h-2c-1.93,0-3.5,1.57-3.5,3.5v4c0,1.391.822,2.585,2,3.149v6.351c0,.552.448,1,1,1s1-.448,1-1v-6h1v6c0,.552.448,1,1,1s1-.448,1-1v-6.351c1.178-.564,2-1.758,2-3.149v-4c0-1.93-1.57-3.5-3.5-3.5Zm-3.5-3.5c0-1.381,1.119-2.5,2.5-2.5s2.5,1.119,2.5,2.5-1.119,2.5-2.5,2.5-2.5-1.119-2.5-2.5Zm-5,0c0-1.381,1.119-2.5,2.5-2.5.402,0,.777.104,1.114.273-.38.659-.614,1.413-.614,2.227s.234,1.568.615,2.227c-.337.169-.712.273-1.115.273-1.381,0-2.5-1.119-2.5-2.5Zm-5,0c0-1.381,1.119-2.5,2.5-2.5.402,0,.777.104,1.114.273-.38.659-.614,1.413-.614,2.227s.234,1.568.615,2.227c-.337.169-.712.273-1.115.273-1.381,0-2.5-1.119-2.5-2.5Zm-5,0C2,1.119,3.119,0,4.5,0c.402,0,.777.104,1.114.273-.38.659-.614,1.413-.614,2.227s.234,1.568.615,2.227c-.337.169-.712.273-1.115.273-1.381,0-2.5-1.119-2.5-2.5Zm12.261,3.5c-.787.952-1.261,2.172-1.261,3.5v12.5c0,.552-.448,1-1,1s-1-.448-1-1v-6.051c-.633-.649-1-1.532-1-2.449v-4c0-1.93,1.57-3.5,3.5-3.5h.761Zm-5,0c-.787.952-1.261,1.172-1.261,2.5v11.5c0,.552-.448,1-1,1s-1-.448-1-1v-5.051c-.633-.649-1-1.532-1-2.449v-3c0-1.93,1.57-3.5,3.5-3.5h.761Zm-5,0c-.787.952-1.261,1.172-1.261,2.5v9.5c0,.552-.448,1-1,1s-1-.448-1-1v-4.051c-.633-.649-1-1.532-1-2.449v-2c0-1.93,1.57-3.5,3.5-3.5h.761Z"/>
</svg>
