<?xml version="1.0" encoding="UTF-8"?>
<svg xmlns="http://www.w3.org/2000/svg" id="Layer_1" data-name="Layer 1" viewBox="0 0 24 24">
  <path d="M15,9c-1.654,0-3-1.346-3-3V3c0-1.654,1.346-3,3-3s3,1.346,3,3v3c0,1.654-1.346,3-3,3Zm0-7c-.552,0-1,.449-1,1v3c0,.551,.448,1,1,1s1-.449,1-1V3c0-.551-.448-1-1-1Zm-4.787,1.998c.253-.401,.412-.865,.412-1.373,0-1.447-1.178-2.625-2.625-2.625s-2.625,1.178-2.625,2.625c0,.508,.16,.972,.412,1.373-.485,.529-.787,1.227-.787,2.002,0,1.654,1.346,3,3,3s3-1.346,3-3c0-.775-.302-1.472-.787-2.002Zm-2.213-1.998c.345,0,.625,.28,.625,.625s-.28,.625-.625,.625-.625-.28-.625-.625,.28-.625,.625-.625Zm0,5c-.551,0-1-.449-1-1s.449-1,1-1,1,.449,1,1-.449,1-1,1Zm14.145-.403c-.748-.276-1.422-.577-1.422-.577-.596-.38-.859-.963-.773-1.57,.093-.646,.565-1.172,1.232-1.373,1.31-.395,2.394,.496,2.438,.534l.003,.002c.261,.22,.295,.61,.075,.871l-.005,.005c-.22,.261-.609,.295-.871,.075h0c-.025-.02-.629-.492-1.283-.298-.291,.088-.349,.281-.36,.359-.008,.059-.013,.204,.129,.301,.016,0,.611,.262,1.265,.504,1.216,.449,1.521,1.329,1.4,2.002-.159,.894-1.013,1.543-2.029,1.543-.822,0-1.594-.331-2.118-.909h0c-.231-.254-.212-.647,.042-.877h0c.254-.231,.647-.212,.877,.042h0c.285,.314,.732,.501,1.197,.501,.446,0,.759-.264,.805-.519,.061-.343-.449-.559-.607-.618ZM7,11v1c0,2.757,2.243,5,5,5s5-2.243,5-5v-1h-3v1c0,1.105-.895,2-2,2s-2-.895-2-2v-1h-3Zm16.35,1.151c-.581-.732-1.453-1.151-2.394-1.151h-1.956v1c0,3.866-3.134,7-7,7s-7-3.134-7-7v-1h-1.956c-.941,0-1.813,.419-2.394,1.151-.572,.722-.78,1.649-.571,2.544,1.282,5.478,6.184,9.304,11.92,9.304s10.639-3.826,11.92-9.304c.209-.896,.001-1.823-.571-2.544Z"/>
</svg>
