<?xml version="1.0" encoding="UTF-8"?>
<svg xmlns="http://www.w3.org/2000/svg" id="Layer_1" data-name="Layer 1" viewBox="0 0 24 24">
  <path d="M16,2h-.171c-.413-1.164-1.525-2-2.829-2h-2c-1.304,0-2.416,.836-2.829,2h-.171c-2.757,0-5,2.243-5,5v12c0,2.757,2.243,5,5,5h8c2.757,0,5-2.243,5-5V7c0-2.757-2.243-5-5-5Zm-4.793,15.793c.391,.391,.391,1.023,0,1.414-.195,.195-.451,.293-.707,.293s-.512-.098-.707-.293l-.793-.793-.793,.793c-.195,.195-.451,.293-.707,.293s-.512-.098-.707-.293c-.391-.391-.391-1.023,0-1.414l.793-.793-.793-.793c-.391-.391-.391-1.023,0-1.414s1.023-.391,1.414,0l.793,.793,.793-.793c.391-.391,1.023-.391,1.414,0s.391,1.023,0,1.414l-.793,.793,.793,.793Zm0-7c.391,.391,.391,1.023,0,1.414-.195,.195-.451,.293-.707,.293s-.512-.098-.707-.293l-.793-.793-.793,.793c-.195,.195-.451,.293-.707,.293s-.512-.098-.707-.293c-.391-.391-.391-1.023,0-1.414l.793-.793-.793-.793c-.391-.391-.391-1.023,0-1.414s1.023-.391,1.414,0l.793,.793,.793-.793c.391-.391,1.023-.391,1.414,0s.391,1.023,0,1.414l-.793,.793,.793,.793Zm5.793,7.207h-3c-.553,0-1-.447-1-1s.447-1,1-1h3c.553,0,1,.447,1,1s-.447,1-1,1Zm0-7h-3c-.553,0-1-.447-1-1s.447-1,1-1h3c.553,0,1,.447,1,1s-.447,1-1,1Z"/>
</svg>
