<?xml version="1.0" encoding="UTF-8"?>
<svg xmlns="http://www.w3.org/2000/svg" id="Layer_1" data-name="Layer 1" viewBox="0 0 24 24">
  <path d="m20.207,11.354l3.726-1.626c-.378-3.557-2.404-6.451-5.447-8.132l-2.361,2.735c-.439.384-1.125.072-1.125-.511V.317c-.952-.2-1.951-.317-3-.317s-2.048.117-3,.317v3.503c0,.583-.686.895-1.125.511l-2.361-2.735C2.469,3.278.441,6.175.066,9.736l3.625,1.618c.532.266.532,1.026,0,1.292l-3.21,1.481c.767,2.651,2.414,5.12,4.498,6.93l1.947-2.372c.397-.397,1.075-.116,1.075.445v3.911c1.292.603,2.647.958,4,.958s2.708-.355,4-.958v-3.911c0-.561.678-.842,1.075-.445l1.98,2.344c2.081-1.818,3.72-4.295,4.477-6.949l-3.326-1.434c-.532-.266-.532-1.026,0-1.292Zm-14.207-1.354c0-1.105,1.119-2,2.5-2s2.5.895,2.5,2-1.119,2-2.5,2-2.5-.895-2.5-2Zm9.874,6.089c-.67.931-2.059,1.911-3.868,1.911s-3.208-.98-3.88-1.911c-.335-.465.037-1.089.641-1.089,1.658,0,4.807,0,6.465,0,.604,0,.976.623.641,1.089Zm-.374-4.089c-1.381,0-2.5-.895-2.5-2s1.119-2,2.5-2,2.5.895,2.5,2-1.119,2-2.5,2Z"/>
</svg>
