<?xml version="1.0" encoding="UTF-8"?>
<svg xmlns="http://www.w3.org/2000/svg" id="Layer_1" data-name="Layer 1" viewBox="0 0 24 24">
  <path d="m0,7.25c0-1.414.564-2.759,1.593-3.788C3.878,1.177,7.939.034,12,.034s8.122,1.143,10.407,3.429c1.028,1.028,1.594,2.374,1.593,3.788,0,1.364-.742,2.539-1.835,3.19l-2.585-3.668c-.584-.828-1.396-1.474-2.348-1.823-1.219-.447-3.07-.95-5.232-.95s-4.013.503-5.232.95c-.952.349-1.764.994-2.348,1.823l-2.585,3.668c-1.093-.651-1.835-1.826-1.835-3.19Zm15,7.75c0,1.654-1.346,3-3,3s-3-1.346-3-3,1.346-3,3-3,3,1.346,3,3Zm8.998,5.197c-.039,2.131-1.856,3.803-3.987,3.803H3.989C1.895,24,.04,22.291.002,20.197c-.031-1.683.332-3.364,1.047-4.886.155-.329.347-.64.551-.941l4.117-6.095c.487-.72,1.188-1.263,2.011-1.544,1.043-.357,2.546-.731,4.272-.731,1.717,0,3.225.376,4.272.734.823.282,1.527.824,2.014,1.545l4.42,6.544c.878,1.646,1.326,3.509,1.292,5.374Zm-6.998-5.197c0-2.757-2.243-5-5-5s-5,2.243-5,5,2.243,5,5,5,5-2.243,5-5Z"/>
</svg>
