<?xml version="1.0" encoding="UTF-8"?>
<svg xmlns="http://www.w3.org/2000/svg" id="Layer_1" data-name="Layer 1" viewBox="0 0 24 24">
  <path d="m19.68,15.667v.333c0,1.105-.831,2-1.857,2h-.619c-1.026,0-1.857-.895-1.857-2v-.333s0,.333,0,.333h0c0,1.105-.831,2-1.857,2h-.619c-.929,0-1.699-.735-1.836-1.694-.028-.199.018-.403.095-.589l.355-.861c.463-1.123,1.558-1.856,2.773-1.856h6.509c1.215,0,2.31.733,2.773,1.856l.355.861c.077.186.124.39.095.589-.137.959-.906,1.694-1.836,1.694h-.619c-1.026,0-1.857-.895-1.857-2h0m-5.68-10c0-3.309-2.691-6-6-6S2,2.691,2,6s2.691,6,6,6,6-2.691,6-6Zm8.156,14h-.619c-.673,0-1.306-.18-1.856-.495-.552.315-1.185.495-1.857.495h-.619c-.673,0-1.306-.18-1.857-.495-.551.315-1.184.495-1.856.495h-.619c-.295,0-.579-.047-.857-.113v1.113c0,1.654,1.346,3,3,3h5c1.654,0,3-1.346,3-3v-1.113c-.278.067-.563.113-.857.113Zm-12.142,1v-2.339c-.495-.568-.845-1.276-.959-2.073-.075-.534,0-1.082.225-1.629l.328-.797c-.52-.106-1.057-.162-1.608-.162C3.589,14,0,17.589,0,22v1c0,.552.447,1,1,1h10.039c-.635-.838-1.026-1.87-1.026-3Z"/>
</svg>
