<?xml version="1.0" encoding="UTF-8"?>
<svg xmlns="http://www.w3.org/2000/svg" id="Layer_1" data-name="Layer 1" viewBox="0 0 24 24">
  <path d="m9,.389c.96-.249,1.963-.389,3-.389s2.04.14,3,.389v5.637c-.838-.635-1.87-1.026-3-1.026s-2.162.391-3,1.026V.389Zm0,9.611c0,1.654,1.346,3,3,3s3-1.346,3-3-1.346-3-3-3-3,1.346-3,3ZM23.707,1.707c.391-.391.391-1.023,0-1.414s-1.023-.391-1.414,0l-2.552,2.552c-.825-.699-1.748-1.284-2.741-1.743v8.897c0,2.757-2.243,5-5,5s-5-2.243-5-5V1.103c-.993.459-1.915,1.044-2.741,1.743L1.707.293C1.316-.098.684-.098.293.293S-.098,1.316.293,1.707l2.552,2.552C1.074,6.351,0,9.051,0,12c0,6.617,5.383,12,12,12s12-5.383,12-12c0-2.949-1.074-5.649-2.845-7.741l2.552-2.552Z"/>
</svg>
