<?xml version="1.0" encoding="UTF-8"?>
<svg xmlns="http://www.w3.org/2000/svg" id="Layer_1" data-name="Layer 1" viewBox="0 0 24 24">
  <path d="m10.502,16.998c0-.827.671-1.498,1.498-1.498s1.498.67,1.498,1.498-.671,1.498-1.498,1.498-1.498-.671-1.498-1.498ZM19,2h-1v-1c0-.553-.447-1-1-1s-1,.447-1,1v1h-8v-1c0-.553-.448-1-1-1s-1,.447-1,1v1h-1C2.243,2,0,4.243,0,7v1h24v-1c0-2.757-2.243-5-5-5ZM0,10h24v9c0,2.757-2.243,5-5,5H5c-2.757,0-5-2.243-5-5v-9Zm7.973,6.99c-.649.54-1.018,1.354-1.222,1.997-.177.559.164,1.158.739,1.272.746.149,1.792.219,2.646-.246,0-.014.001-.028.001,0,0,1.009.606,2.068,1.132,2.651.389.432,1.073.432,1.462,0,.526-.583,1.133-1.622,1.133-2.631.854.465,1.899.395,2.646.246.576-.115.916-.714.739-1.273-.205-.647-.577-1.466-1.233-2.006.656-.54,1.028-1.359,1.233-2.006.177-.56-.163-1.158-.739-1.273-.746-.149-1.792-.219-2.646.246,0,.014-.001.029-.001,0,0-1.009-.606-2.072-1.132-2.656-.389-.432-1.073-.432-1.462,0-.526.583-1.132,1.646-1.132,2.656,0,.028,0,.014-.001,0-.854-.465-1.899-.395-2.646-.246-.575.115-.916.713-.739,1.272.204.643.573,1.457,1.222,1.997Z"/>
</svg>
