<?xml version="1.0" encoding="UTF-8"?>
<svg xmlns="http://www.w3.org/2000/svg" id="Layer_1" data-name="Layer 1" viewBox="0 0 24 24">
  <path d="M11,2.5c0-1.381,1.119-2.5,2.5-2.5s2.5,1.119,2.5,2.5-1.119,2.5-2.5,2.5-2.5-1.119-2.5-2.5Zm10,15.5v5c0,.553-.447,1-1,1s-1-.447-1-1v-5h-6c-1.654,0-3-1.346-3-3v-5.741l-1.843,1.412c-.135,.105-.193,.297-.136,.47l.936,3.082c.16,.528-.139,1.087-.667,1.247-.53,.16-1.087-.14-1.247-.667l-.927-3.055c-.315-.946,.009-2.025,.815-2.658l2.46-1.884c.895-.746,1.69-1.083,2.808-1.174h.007c1.653,0,2.794,1.249,2.794,2.968v7h4c1.103,0,2,.897,2,2Zm-10.184,1.052c-.529-.177-1.091,.108-1.265,.632l-.772,2.316H4c-.553,0-1,.447-1,1s.447,1,1,1h4.779c.862,0,1.625-.55,1.896-1.367l.772-2.316c.175-.524-.108-1.091-.632-1.265Z"/>
</svg>
