<?xml version="1.0" encoding="UTF-8"?>
<svg xmlns="http://www.w3.org/2000/svg" id="Layer_1" data-name="Layer 1" viewBox="0 0 24 24">
  <path d="m24,5v14c0,.553-.447,1-1,1s-1-.447-1-1V5c0-.553.447-1,1-1s1,.447,1,1Zm-5-1c-.553,0-1,.447-1,1v14c0,.553.447,1,1,1s1-.447,1-1V5c0-.553-.447-1-1-1Zm-2.351.052c-.528-.176-1.09.108-1.265.632l-4.666,14c-.175.524.108,1.091.632,1.265.105.035.212.052.316.052.419,0,.809-.265.948-.684l4.666-14c.175-.524-.108-1.091-.632-1.265Zm-8.956,6.948l-1.905,5.08c-.659,1.756-2.338,2.92-4.214,2.92h-.575c-.553,0-1-.447-1-1v-9c0-.025.013-.046.014-.071-.002-.025-.014-.046-.014-.071,0-.233.071-.46.204-.651l2.529-3.643c.553-.664,1.54-.754,2.204-.2.664.553.754,1.54.2,2.204l-1.137,1.434,7.58-.013c.958,0,1.705.883,1.449,1.884-.175.682-.839,1.129-1.543,1.129h-3.793Z"/>
</svg>
