<?xml version="1.0" encoding="UTF-8"?>
<svg xmlns="http://www.w3.org/2000/svg" id="Layer_1" data-name="Layer 1" viewBox="0 0 24 24">
  <path d="m5,8v-4C5,1.794,6.794,0,9,0h6c1.861,0,3.429,1.276,3.874,3h1.126c.553,0,1,.447,1,1s-.447,1-1,1h-1v3c0,.553-.447,1-1,1H6c-.553,0-1-.447-1-1Zm13.206,3H5.794c-1.17,0-2.297.687-2.653,1.801-.04.124-.07.248-.089.369.512,1.631,5.296,1.83,8.949,1.83s8.437-.199,8.949-1.83c-.02-.121-.05-.245-.089-.369-.356-1.114-1.483-1.801-2.653-1.801Zm-6.206,6c-3.043,0-6.198-.107-8.346-.908-.036-.023-.072-.046-.108-.07,1.192,2.155,3.419,3.922,6.763,4.369-.584,1.264-2.309,1.609-2.309,1.609-.552,0-1,.448-1,1s.448,1,1,1h8c.552,0,1-.448,1-1s-.448-1-1-1c0,0-1.726-.345-2.309-1.609,3.331-.445,5.553-2.199,6.749-4.342-.031.014-.062.029-.093.043-2.148.801-5.302.908-8.346.908Z"/>
</svg>
