<?xml version="1.0" encoding="UTF-8"?>
<svg xmlns="http://www.w3.org/2000/svg" id="Layer_1" data-name="Layer 1" viewBox="0 0 24 24">
  <path d="M2,24H1C.448,24,0,23.552,0,23V1C-.015,.386,.601-.116,1.2,.021,3.68,.525,6.085,2.129,7.8,4.419c1.268,1.566,4.2,7.161,4.2,8.581,0,.97-.701,2-2,2h-.33l-.219,1.655c-.329,2.487-2.45,4.345-4.958,4.345h-.493v1c0,1.105-.895,2-2,2ZM21,0H12.086c-.841-.027-1.392,1.003-.904,1.688l1.818,2.459v3.853c0,1.657,1.343,3,3,3h5c1.657,0,3-1.343,3-3V3c0-1.657-1.343-3-3-3Zm-.378,9.5h-.002c-.326,0-.609-.225-.682-.543l-.265-1.157h-2.409l-.274,1.161c-.075,.316-.356,.539-.681,.539h0c-.451,0-.784-.421-.681-.86l1.413-5.993c.271-1.486,2.63-1.519,2.898,.049l1.363,5.948c.1,.438-.232,.856-.682,.856Zm-2.102-6.537l.811,3.437h-1.757l.787-3.437c.016-.082,.142-.082,.159,0Zm2.48,10.037h-5c-1.657,0-3,1.343-3,3v3.853l-1.818,2.459c-.121,.182-.182,.392-.182,.602,0,.176,.042,.352,.129,.513,.19,.353,.556,.573,.957,.573h8.914c1.657,0,3-1.343,3-3v-5c0-1.657-1.343-3-3-3Zm1,3.137c0,.34-.276,.616-.616,.616h-.316c-.121,1.275-.617,2.731-1.607,3.866,.542,.329,1.192,.564,1.984,.639,.315,.03,.555,.296,.555,.613v.021c0,.366-.316,.648-.68,.613-1.137-.109-2.059-.489-2.808-1.022-.753,.538-1.686,.915-2.832,1.022-.364,.034-.679-.248-.679-.614v-.021c0-.321,.248-.584,.568-.614,.788-.075,1.438-.307,1.977-.635-.329-.377-.605-.79-.83-1.22-.215-.411,.09-.903,.553-.903,.228,0,.44,.123,.545,.325,.185,.352,.415,.69,.692,1,.818-.92,1.192-2.108,1.303-3.071h-4.191c-.34,0-.616-.276-.616-.616v-.021c0-.34,.276-.616,.616-.616h2.257v-.384c0-.34,.276-.616,.616-.616h.021c.34,0,.616,.276,.616,.616v.384h2.257c.34,0,.616,.276,.616,.616v.021Z"/>
</svg>
