<?xml version="1.0" encoding="UTF-8"?>
<svg xmlns="http://www.w3.org/2000/svg" id="Layer_1" data-name="Layer 1" viewBox="0 0 24 24">
  <path d="m6.164,10.794c-1.806.466-3.523.156-4.922-.649l-.969-.969c-.39-.391-.39-1.023,0-1.414h0c.391-.391,1.024-.39,1.414,0l.632.632c.289.289.758.289,1.047,0h0c.288-.288.289-.754.004-1.043l-.611-.62c-.386-.395-.378-1.028.017-1.414h0c.395-.386,1.028-.378,1.414.017l.587.595c.289.293.76.294,1.051.004l.039-.039c.288-.288.289-.754.004-1.043l-.611-.62c-.386-.395-.378-1.028.017-1.414h0c.395-.386,1.028-.378,1.414.017l.587.595c.289.293.76.294,1.051.004l.026-.026c.289-.289.289-.758,0-1.047l-.632-.632c-.39-.39-.39-1.024,0-1.414h0c.39-.39,1.024-.39,1.414,0l.969.969c.805,1.398,1.115,3.114.65,4.919-.574,2.227-2.364,4.018-4.591,4.593Zm16.129,12.913l-2.739-2.7c-.95.654-2.061.994-3.18.994-1.289,0-2.579-.438-3.618-1.325-3.558-3.035-6.44-5.605-8.621-7.682.113.004.224.017.338.017,4.687,0,8.5-3.813,8.5-8.5,0-.114-.013-.225-.017-.338,2.077,2.181,4.646,5.063,7.681,8.621,1.657,1.941,1.743,4.758.335,6.801l2.735,2.696c.39.39.39,1.024,0,1.414h0c-.39.39-1.024.39-1.414,0Zm-6.586-9.414l-1-1c-.39-.39-1.024-.39-1.414,0h0c-.39.39-.39,1.024,0,1.414l1,1c.39.39,1.024.39,1.414,0h0c.39-.39.39-1.024,0-1.414Z"/>
</svg>
