<?xml version="1.0" encoding="UTF-8"?>
<svg xmlns="http://www.w3.org/2000/svg" id="Layer_1" data-name="Layer 1" viewBox="0 0 24 24">
  <path d="m24,21v2c0,.552-.448,1-1,1H1c-.552,0-1-.448-1-1v-2c0-1.105.895-2,2-2h5c2.778,0,4.242,1.334,4.944,2.748.702-1.414,2.166-2.748,4.944-2.748h5.111c1.105,0,2,.895,2,2ZM2.03,5.243c.101.403-.012.888-.143,1.45-.235,1.008-.527,2.263.219,3.754.46.921,1.075,1.478,1.618,1.969.769.697,1.277,1.157,1.277,2.583v2h2c2.281,0,3.862.715,4.944,1.6,1.083-.885,2.663-1.6,4.944-1.6h2.111v-2c0-1.427.508-1.887,1.277-2.583.542-.491,1.157-1.048,1.618-1.969.746-1.492.454-2.746.219-3.754-.131-.562-.244-1.047-.143-1.45.192-.77.572-1.258.974-1.774.496-.637,1.059-1.361,1.056-2.478-.002-.547-.453-.991-1-.991H1C.453,0,.002.444,0,.991c-.003,1.117.56,1.84,1.056,2.478.402.516.781,1.004.974,1.774Zm12.51-1.458l.968-.277.277-.968c.206-.719,1.225-.719,1.431,0l.277.968.968.277c.72.206.72,1.225,0,1.431l-.968.277-.277.968c-.206.72-1.225.72-1.431,0l-.277-.968-.968-.277c-.72-.206-.72-1.225,0-1.431Zm-2.755,6.755c.206-.719,1.225-.719,1.431,0l.277.968.968.277c.72.206.72,1.225,0,1.431l-.968.277-.277.968c-.206.72-1.225.72-1.431,0l-.277-.968-.968-.277c-.72-.206-.72-1.225,0-1.431l.968-.277.277-.968Zm-6.245-4.755l.968-.277.277-.968c.206-.719,1.225-.719,1.431,0l.277.968.968.277c.72.206.72,1.225,0,1.431l-.968.277-.277.968c-.206.72-1.225.72-1.431,0l-.277-.968-.968-.277c-.72-.206-.72-1.225,0-1.431Z"/>
</svg>
