<?xml version="1.0" encoding="UTF-8"?>
<svg xmlns="http://www.w3.org/2000/svg" id="Layer_1" data-name="Layer 1" viewBox="0 0 24 24">
  <path d="M4,18v1c0,2.761,2.239,5,5,5h6c2.761,0,5-2.239,5-5v-1H4Zm9,4h-2c-.552,0-1-.448-1-1h0c0-.552,.448-1,1-1h2c.552,0,1,.448,1,1h0c0,.552-.448,1-1,1ZM0,8.5v3.001c0,1.381,1.12,2.5,2.5,2.5h2.372s2.454,1.69,2.454,1.69c.692,.456,1.674-.039,1.672-.915l.002-6.274c0-1.381-1.119-2.5-2.499-2.501H2.5C1.119,5.999,0,7.119,0,8.5ZM17.5,.002c-1.381,0-2.5,1.12-2.499,2.501l.002,6.274c-.002,.876,.98,1.371,1.672,.915l2.454-1.69h2.372c1.381,0,2.5-1.119,2.5-2.5V2.501C24.001,1.12,22.881,0,21.5,0h-4Zm2.5,10.001v5.998H10.79c.129-.34,.208-.84,.208-1.224v-6.275c.002-2.486-2.013-4.501-4.499-4.501h-2.499c0-2.209,1.791-4,4-4h5.558c-.345,.592-.558,1.271-.558,2.004l.002,6.728c0,1.42,.943,2.711,2.324,3.039,.854,.203,1.688,.077,2.482-.433l1.942-1.337h.25Z"/>
</svg>
