<?xml version="1.0" encoding="UTF-8"?>
<svg xmlns="http://www.w3.org/2000/svg" id="Layer_1" data-name="Layer 1" viewBox="0 0 24 24">
  <path d="M1.5,16.5c0-1.379,1.121-2.5,2.5-2.5s2.5,1.121,2.5,2.5-1.121,2.5-2.5,2.5-2.5-1.121-2.5-2.5Zm8,0c0,1.381,1.119,2.5,2.5,2.5s2.5-1.119,2.5-2.5-1.119-2.5-2.5-2.5-2.5,1.119-2.5,2.5Zm8,0c0,1.381,1.119,2.5,2.5,2.5s2.5-1.119,2.5-2.5-1.119-2.5-2.5-2.5-2.5,1.119-2.5,2.5Zm-2.242-12.033c.285,.338,.705,.533,1.147,.533h2.262l-.879,2.26c-.138,.356,.124,.74,.506,.74h.32c.407,0,.781-.222,.975-.579l1.911-2.421h1.5c.552,0,1-.448,1-1s-.448-1-1-1h-1.5l-1.929-2.421c-.195-.357-.569-.579-.975-.579h-.298c-.383,0-.646,.386-.505,.742l.891,2.258h-2.184l-1.11-.772c-.146-.146-.345-.228-.551-.228-.599,0-.974,.647-.677,1.167l1.096,1.3ZM4,12c.552,0,1-.448,1-1v-1.154c0-.552-.448-1-1-1s-1,.448-1,1v1.154c0,.552,.448,1,1,1Zm1.125-4.5c.311,0,.617-.144,.812-.416,.318-.442,.705-.829,1.147-1.147,.448-.323,.55-.948,.227-1.396-.322-.448-.948-.551-1.396-.227-.618,.445-1.156,.983-1.601,1.601-.323,.448-.221,1.073,.227,1.396,.177,.127,.381,.188,.583,.188Zm4.644-2.5h1.231c.552,0,1-.448,1-1s-.448-1-1-1h-1.231c-.552,0-1,.448-1,1s.448,1,1,1Zm10.231,15c-1.754,0-3.335,1.063-3.935,2.646-.259,.627,.257,1.374,.935,1.354h6c.678,.019,1.194-.727,.935-1.354-.6-1.582-2.181-2.646-3.935-2.646Zm-8,0c-1.754,0-3.335,1.063-3.935,2.646-.259,.627,.257,1.374,.935,1.354h6c.678,.019,1.194-.727,.935-1.354-.6-1.582-2.181-2.646-3.935-2.646Zm-8,0c-1.754,0-3.335,1.063-3.935,2.646-.259,.627,.257,1.374,.935,1.354H7c.678,.019,1.194-.727,.935-1.354-.6-1.582-2.181-2.646-3.935-2.646Z"/>
</svg>
