<?xml version="1.0" encoding="UTF-8"?>
<svg xmlns="http://www.w3.org/2000/svg" id="Layer_1" data-name="Layer 1" viewBox="0 0 24 24">
  <path d="m24,3v3c0,1.654-1.346,3-3,3h-2.647l-2.127,1.71c-.274.192-.571.286-.86.286-.215,0-.426-.052-.621-.153-.457-.238-.741-.706-.743-1.221V3.002C14,1.348,15.346.002,17,.001h3.999s0,0,0,0c.802,0,1.555.312,2.121.878.566.566.879,1.32.879,2.122Zm-3.345,11.856c-1.193-1.142-3.09-1.138-4.28.006l-1.906,1.606c-3.198-1.357-5.474-3.637-6.932-6.945l1.6-1.897c.557-.579.863-1.339.863-2.145s-.304-1.559-.857-2.138c0,0-1.852-2.407-1.883-2.438-1.207-1.207-3.17-1.206-4.327-.047l-1.15,1.004C.633,3.012,0,4.565,0,6.238c0,7.636,10.126,17.762,17.762,17.762,1.673,0,3.227-.634,4.421-1.833l.912-1.05c1.205-1.207,1.205-3.171,0-4.378-.031-.03-2.439-1.883-2.439-1.883Z"/>
</svg>
