<?xml version="1.0" encoding="UTF-8"?>
<svg xmlns="http://www.w3.org/2000/svg" id="Layer_1" data-name="Layer 1" viewBox="0 0 24 24">
  <path d="m2,19h10v2c0,1.657-1.343,3-3,3h-4c-1.657,0-3-1.343-3-3v-2Zm21-11h-2.092c-.065-.383-.16-.756-.294-1.111l1.792-1.043c.477-.278.639-.89.361-1.367-.278-.477-.89-.639-1.367-.361l-1.802,1.049c-.232-.276-.485-.533-.762-.764l1.053-1.811c.278-.477.116-1.089-.361-1.367-.477-.278-1.09-.116-1.367.362l-1.056,1.815c-.377-.142-.766-.257-1.174-.321-.004.004-.01.015-.015.019-.29,4.718-1.29,11.15-1.761,14.008l-.053.319c.161.337.498.574.896.574.552,0,1-.448,1-1v-2.083c.378-.064.741-.168,1.092-.299l1.048,1.802c.277.477.889.639,1.367.362.477-.277.639-.889.362-1.367l-1.044-1.796c.282-.234.539-.496.775-.778l1.806,1.051c.477.278,1.09.116,1.367-.361.278-.477.116-1.089-.361-1.367l-1.798-1.047c.135-.357.231-.732.296-1.118h2.091c.552,0,1-.448,1-1s-.448-1-1-1Zm-10.799,9c.44-2.437,1.424-8.176,1.786-12.666.089-1.117-.294-2.228-1.052-3.049-.754-.817-1.823-1.285-2.936-1.285h-6C2.888,0,1.817.469,1.063,1.286.307,2.107-.076,3.218.014,4.334c.361,4.49,1.345,10.229,1.785,12.666h10.403Z"/>
</svg>
