<?xml version="1.0" encoding="UTF-8"?>
<svg xmlns="http://www.w3.org/2000/svg" id="Layer_1" data-name="Layer 1" viewBox="0 0 24 24">
  <path d="M18,2.5c0-1.381,1.119-2.5,2.5-2.5s2.5,1.119,2.5,2.5-1.119,2.5-2.5,2.5-2.5-1.119-2.5-2.5Zm5.859,11.567c-.187,.314-.52,.489-.86,.489-.174,0-.35-.045-.51-.141l-2.427-1.444-2.043,4.04,2.118,1.318c.884,.509,1.221,1.655,.738,2.592l-1.319,2.562c-.178,.344-.527,.542-.89,.542-.154,0-.311-.036-.457-.111-.491-.253-.684-.856-.431-1.347l1.32-2.562-3.831-2.356c-1.19-.893-1.575-2.375-1.011-3.655l2.885-5.528c-.165,.08-.329,.164-.484,.265l-5.115,3.289c-.465,.299-1.083,.164-1.382-.3-.298-.465-.164-1.083,.3-1.382l5.115-3.289c1.068-.686,2.303-1.049,3.572-1.049h.354c.878,0,1.611,.344,2.064,.968,.479,.66,.572,1.544,.263,2.49-.016,.048-.036,.095-.058,.141l-.802,1.585,2.544,1.514c.475,.282,.63,.896,.348,1.371Zm-15.004-3.898c-.137-.651-.765-1.078-1.414-.934l-1.938,.431c-.773,.172-1.156,1.044-.767,1.734,.417,.74,.859,1.403,1.332,1.876-2.746,1.113-6.068,5.42-6.068,7.754,0,.9,.255,1.61,.759,2.11,.889,.882,2.265,.873,3.72,.86,.47-.005,1.056,0,1.524,.002,1.274,0,2.448-.079,3.238-.862,.503-.5,.759-1.21,.759-2.11,0-3.145-.139-6.46-1.521-7.607,.482-.685,.66-1.903,.376-3.254Zm5.573,8.935c-.497-.247-1.095-.042-1.339,.453l-1.485,3c-.245,.495-.042,1.095,.453,1.339,.143,.071,.293,.104,.442,.104,.369,0,.723-.204,.897-.557l1.485-3c.245-.495,.042-1.095-.453-1.339Z"/>
</svg>
