<?xml version="1.0" encoding="UTF-8"?>
<svg xmlns="http://www.w3.org/2000/svg" id="Layer_1" data-name="Layer 1" viewBox="0 0 24 24">
  <path d="m19.095,6.491l-12.606,12.607c-.592-.462-1.124-.995-1.585-1.588l12.607-12.607c.592.462,1.124.995,1.584,1.588ZM3.832,15.754L15.758,3.828c-1.144-.529-2.417-.828-3.759-.828-4.403,0-8.07,3.179-8.843,7.362l-1.385-1.23c-.586-.521-1.522-.184-1.625.594-.082.615-.146,1.382-.146,2.276s.064,1.66.146,2.276c.104.778,1.039,1.115,1.625.594l1.385-1.231c.137.741.369,1.449.676,2.115Zm18.396-6.623l-1.386,1.232c-.137-.741-.369-1.449-.676-2.115l-11.925,11.925c1.144.529,2.415.827,3.757.827,4.403,0,8.07-3.18,8.843-7.362l1.386,1.232c.586.521,1.522.184,1.625-.593.082-.616.146-1.382.146-2.276s-.064-1.661-.146-2.276c-.104-.777-1.039-1.114-1.625-.593Z"/>
</svg>
