<?xml version="1.0" encoding="UTF-8"?>
<svg xmlns="http://www.w3.org/2000/svg" id="Layer_1" data-name="Layer 1" viewBox="0 0 24 24">
  <path d="M19.737,22c.075,0,.147-.017,.222-.022-.133,.232-.285,.454-.465,.657-.764,.867-1.866,1.364-3.021,1.364h-2.473v-1.98c0-1.105-.895-2-2-2s-2,.895-2,2v1.98h-2.473c-1.156,0-2.257-.497-3.021-1.364-.183-.208-.339-.433-.473-.67,.073,.004,.144,.021,.218,.021,1.001,0,1.943-.39,2.651-1.099l5.085-5.085,5.099,5.098c.708,.709,1.65,1.099,2.651,1.099ZM15.3,1.897l-1.56-1.276c-1.012-.828-2.468-.828-3.48,0l-1.56,1.276,3.3,3.3,3.3-3.3ZM4.724,8.527l-.002,.017-.002-.002-.532,4.467,.04-.04-.002,.022,2.472-2.472-1.973-1.992Zm12.141,4.377c-.417-.417-.992-.576-1.532-.484l-1.92-1.92,1.959-1.959c.544,.096,1.124-.063,1.544-.483l4.064-4.064c.683-.683,.683-1.791,0-2.475s-1.791-.683-2.475,0l-4.064,4.064c-.42,.42-.579,1-.483,1.544l-1.959,1.959-1.959-1.959c.096-.544-.063-1.124-.483-1.544L5.494,1.519c-.683-.683-1.791-.683-2.475,0s-.683,1.791,0,2.475l4.064,4.064c.42,.42,1,.579,1.544,.483l1.959,1.959-1.922,1.922c-.547-.101-1.133,.059-1.556,.482l-4.096,4.096c-.683,.683-.683,1.791,0,2.475h0c.683,.683,1.791,.683,2.475,0l4.096-4.096c.417-.417,.576-.992,.484-1.532l1.932-1.932,1.909,1.909c-.101,.547,.059,1.133,.482,1.556l4.109,4.109c.683,.683,1.791,.683,2.475,0s.683-1.791,0-2.475l-4.109-4.109Zm2.415-4.362l-.002,.002-.002-.017-1.973,1.992,2.472,2.472-.002-.022,.04,.04-.532-4.467Z"/>
</svg>
