<?xml version="1.0" encoding="UTF-8"?>
<svg xmlns="http://www.w3.org/2000/svg" id="Layer_1" data-name="Layer 1" viewBox="0 0 24 24">
  <path d="m13,2C13,.895,13.895,0,14.999,0l4.001-.002c1.105,0,2.001.895,2.001,2v2.005c0,1.104-.894,1.999-1.998,2l-2.498.002-2.288,1.87c-.526.336-1.215-.041-1.215-.665l-.002-5.209Zm-2,0C11,.895,10.105,0,9.001,0l-4.001-.002c-1.105,0-2.001.895-2.001,2v2.005c0,1.104.894,1.999,1.998,2l2.498.002,2.288,1.87c.526.336,1.215-.041,1.215-.665l.002-5.209Zm12,9.003c.552,0,1,.448,1,1v7c0,.552-.448,1-1,1h-2.814l-7.188-6.436-2.309,2.142c-.207.208-.493.315-.788.29-.298-.024-.56-.175-.739-.425-.274-.38-.19-.975.181-1.347l3.369-3.302c.667-.627,1.397-.923,2.288-.923.662,0,1.65.297,2.403.594.69.273,1.424.406,2.166.406h3.431Zm-9.993,5.255l4.778,4.279-3.381,2.639c-.687.536-1.533.827-2.404.827h0c-.871,0-1.717-.291-2.404-.827l-2.98-2.326c-.703-.549-1.569-.847-2.461-.847H1c-.552,0-1-.448-1-1v-7c0-.552.448-1,1-1h3.521c.768,0,1.525-.149,2.238-.434s1.578-.566,2.218-.566c.526,0,1.025.126,1.482.34l-2.533,2.473c-1.066,1.068-1.232,2.759-.389,3.926.52.724,1.321,1.179,2.192,1.25.086.008.173.012.259.012.792,0,1.549-.312,2.084-.85l.935-.895Z"/>
</svg>
