<?xml version="1.0" encoding="UTF-8"?>
<svg xmlns="http://www.w3.org/2000/svg" id="Layer_1" data-name="Layer 1" viewBox="0 0 24 24">
  <path d="m11,6h2c1.379,0,2.5-1.121,2.5-2.5v-1c0-1.379-1.121-2.5-2.5-2.5h-2c-1.378,0-2.5,1.121-2.5,2.5v1c0,1.379,1.122,2.5,2.5,2.5Zm2,12h-2c-1.378,0-2.5,1.121-2.5,2.5v1c0,1.379,1.122,2.5,2.5,2.5h2c1.379,0,2.5-1.121,2.5-2.5v-1c0-1.379-1.121-2.5-2.5-2.5Zm8.5,0h-2c-1.379,0-2.5,1.121-2.5,2.5v1c0,1.379,1.121,2.5,2.5,2.5h2c1.379,0,2.5-1.121,2.5-2.5v-1c0-1.379-1.121-2.5-2.5-2.5Zm-17,0h-2c-1.378,0-2.5,1.121-2.5,2.5v1c0,1.379,1.122,2.5,2.5,2.5h2c1.378,0,2.5-1.121,2.5-2.5v-1c0-1.379-1.122-2.5-2.5-2.5Zm-2-2.5v-1c0-1.93,1.57-3.5,3.5-3.5h5v-2.5c0-.553.448-1,1-1s1,.447,1,1v2.5h5c1.93,0,3.5,1.57,3.5,3.5v1c0,.553-.447,1-1,1s-1-.447-1-1v-1c0-.827-.673-1.5-1.5-1.5h-5v2.5c0,.553-.448,1-1,1s-1-.447-1-1v-2.5h-5c-.827,0-1.5.673-1.5,1.5v1c0,.553-.448,1-1,1s-1-.447-1-1Z"/>
</svg>
