<?xml version="1.0" encoding="UTF-8"?>
<svg xmlns="http://www.w3.org/2000/svg" id="Layer_1" data-name="Layer 1" viewBox="0 0 24 24">
  <path d="m19,.3c.697.245,1.341.627,1.879,1.165l1.656,1.656c.537.537.92,1.182,1.165,1.879h-4.7V.3Zm-8.466,17.32c.516.516,1.416.516,1.932,0l4.143-4.143c-.466-.298-1.016-.477-1.609-.477h-7c-.593,0-1.143.178-1.609.477l4.143,4.143Zm3.346,1.414c-.656.656-1.518.984-2.38.984s-1.724-.328-2.38-.984l-3.959-3.959c-.096.293-.161.6-.161.925v5c0,1.654,1.346,3,3,3h7c1.654,0,3-1.346,3-3v-5c0-.325-.065-.632-.161-.925l-3.959,3.959ZM0,2C0,.895.895,0,2,0c1.105,0,2,.895,2,2v10.437c0,1-.397,1.96-1.105,2.667l-.895.895-.895-.895C.397,14.397,0,13.438,0,12.437V2Zm19,5c-1.105,0-2-.895-2-2V0h-7c-2.209,0-4,1.791-4,4v7.424c.614-.269,1.288-.424,2-.424h7c2.757,0,5,2.243,5,5v5c2.209,0,4-1.791,4-4V7h-5Z"/>
</svg>
