<?xml version="1.0" encoding="UTF-8"?>
<svg xmlns="http://www.w3.org/2000/svg" id="Layer_1" data-name="Layer 1" viewBox="0 0 24 24">
  <path d="m1.99,22.315c-.329.328-.269.873.119,1.13.538.356,1.174.551,1.837.551,1.22,0,2.243-.852,2.434-2.026.143-.881-.224-2.034-1.683-2.625-.56-.227-1.083-.467-1.364-.595-.098-.045-.428-.173-.433-.615-.002-.131.103-.441.515-.577.427-.138.831-.046,1.136.088s.659.038.862-.224h0c.277-.359.165-.886-.24-1.092-.549-.278-1.312-.479-2.15-.203-.796.262-1.358.95-1.469,1.794-.106.817.23,1.563.921,2.047h0s.838.409,1.752.779c.214.086.904.409.816.958-.065.391-.491.794-1.095.794-.381,0-.752-.106-1.068-.297-.285-.172-.651-.125-.887.111h0Zm7.51-6.315c-1.269,0-2.3,1.031-2.3,2.3v3.4c0,1.269,1.031,2.3,2.3,2.3s2.3-1.031,2.3-2.3v-3.4c0-1.269-1.031-2.3-2.3-2.3Zm.7,5.7c0,.386-.314.7-.7.7s-.7-.314-.7-.7v-3.4c0-.386.314-.7.7-.7s.7.314.7.7v3.4Zm10.1-5.7h-1.5c-.442,0-.8.358-.8.8v6.401c0,.442.358.8.8.8h1.5c1.27,0,2.3-1.03,2.3-2.3v-3.4c0-1.27-1.03-2.3-2.3-2.3Zm.7,5.7c0,.386-.314.7-.7.7s-.7,0-.7,0v-4.802s.314,0,.7,0,.7.314.7.7v3.4Zm-4,1.5h0c0,.442-.358.8-.8.8h-2.401c-.442,0-.8-.358-.8-.8v-6.401c0-.442.358-.8.8-.8h0c.442,0,.8.358.8.8v5.601h1.599c.442,0,.801.358.801.799ZM1.021,14.971c-.421.35-1.054.07-1.054-.478v-4.015c0-1.538.708-2.99,1.919-3.938L8.886,1.062c1.81-1.416,4.352-1.416,6.162,0l7,5.478c1.211.948,1.919,2.4,1.919,3.938v3.971c0,.528-.612.837-1.022.504-.732-.595-1.661-.954-2.678-.954,0,0-15.575.032-16.267.003-.554-.024-1.107.051-1.637.227-.501.165-.953.419-1.342.742Z"/>
</svg>
