<?xml version="1.0" encoding="UTF-8"?>
<svg xmlns="http://www.w3.org/2000/svg" id="Layer_1" data-name="Layer 1" viewBox="0 0 24 24">
  <path d="m11.997,19.548c-.765,0-1.527-.193-2.207-.579L.51,13.752c-.481-.271-.652-.88-.381-1.362.271-.482.879-.653,1.362-.381l9.283,5.219c.746.423,1.708.423,2.452.001l9.271-5.426c.474-.28,1.088-.119,1.368.357.278.477.118,1.089-.358,1.368l-9.282,5.433c-.689.391-1.458.586-2.226.586Zm2.226,3.867l9.282-5.433c.477-.279.637-.892.358-1.368-.28-.478-.895-.637-1.368-.358l-9.271,5.426c-.744.422-1.706.421-2.452-.001L1.49,16.462c-.482-.272-1.091-.1-1.362.381-.271.481-.1,1.091.381,1.362l9.28,5.217c.68.386,1.442.58,2.207.58s1.537-.195,2.226-.586ZM22.804,5.458l-3.833,2.16,3.632,2.047.157-.089c.776-.44,1.239-1.215,1.239-2.075,0-.842-.449-1.598-1.196-2.042Zm-4.873-2.771l-6.321,3.562,2.858,1.61,6.312-3.557-2.849-1.615Zm-10.833,3.809L15.901,1.536l-1.69-.958c-1.362-.772-3.058-.772-4.421,0l-6.577,3.729,3.886,2.19Zm2.476.9l-6.107,3.441,2.85,1.615,6.115-3.446-2.858-1.611Zm7.36,1.369l-8.587,4.839,1.443.818c.682.387,1.446.58,2.21.58s1.529-.193,2.211-.58l6.362-3.607-3.638-2.05Zm-15.695.81l.197.112,3.626-2.043-3.872-2.182c-.743.445-1.19,1.199-1.19,2.038,0,.859.463,1.635,1.239,2.075Z"/>
</svg>
