<?xml version="1.0" encoding="UTF-8"?>
<svg xmlns="http://www.w3.org/2000/svg" id="Layer_1" data-name="Layer 1" viewBox="0 0 24 24">
  <path d="m10.47,12.377l-5.226,8.96c-.689,1.181.163,2.663,1.53,2.663h10.453c1.367,0,2.218-1.483,1.53-2.663l-5.226-8.96c-.683-1.171-2.376-1.171-3.059,0Zm1.53,10.623h0c-.552,0-1-.448-1-1h0c0-.552.448-1,1-1h0c.552,0,1,.448,1,1h0c0,.552-.448,1-1,1Zm-1-4v-3c0-.552.448-1,1-1h0c.552,0,1,.448,1,1v3c0,.552-.448,1-1,1h0c-.552,0-1-.448-1-1Zm13-6.504c0,2.39-1.128,4.518-2.875,5.892-.448.34-.885.595-1.304.806l-4.564-7.825c-.684-1.171-1.901-1.871-3.257-1.871s-2.574.699-3.257,1.871l-4.885,8.375c-2.233-.7-3.858-2.789-3.858-5.249,0-1.546.656-3.029,1.801-4.07.273-.248.405-.593.346-.901-.184-.946-.195-1.919-.033-2.89C2.66,3.345,5.225.733,8.497.133c3.592-.661,7.183,1.167,8.735,4.438.14.296.41.503.742.569,3.492.696,6.026,3.789,6.026,7.354Z"/>
</svg>
