<?xml version="1.0" encoding="UTF-8"?>
<svg xmlns="http://www.w3.org/2000/svg" id="Layer_1" data-name="Layer 1" viewBox="0 0 24 24">
  <path d="m24,3.356v10.644c0,1.657-1.343,3-3,3h-1.939c-1.138,0-2.061-.923-2.061-2.061h0c0-.546.217-1.071.604-1.457l4.396-4.396v-4.251l-6,5.653v1.512c0,1.105-.895,2-2,2H2.002C.898,14,.003,13.106.002,12.002h0c0-1.105.895-2.002,2-2.002h11.601l8.112-7.632c.252-.237.584-.368.929-.368h0c.749,0,1.356.607,1.356,1.356Zm-13.336-.581c-.483-1.08-1.556-1.775-2.739-1.775h-1.425c-1.381,0-2.5,1.119-2.5,2.5v4.5h9l-2.336-5.225Zm5.336,17.225c0,2.205-1.795,4-4,4H4c-2.205,0-4-1.795-4-4s1.795-4,4-4h8c2.205,0,4,1.794,4,4Zm-10,0c0-.828-.672-1.5-1.5-1.5s-1.5.672-1.5,1.5.672,1.5,1.5,1.5,1.5-.672,1.5-1.5Zm7,0c0-.828-.672-1.5-1.5-1.5s-1.5.672-1.5,1.5.672,1.5,1.5,1.5,1.5-.672,1.5-1.5Z"/>
</svg>
