<?xml version="1.0" encoding="UTF-8"?>
<svg xmlns="http://www.w3.org/2000/svg" id="Layer_1" data-name="Layer 1" viewBox="0 0 24 24">
  <path d="m20.62,5.902c.453-1.148.478-2.472-.169-3.736-.339-.663-.878-1.224-1.531-1.583-1.623-.892-3.512-.676-4.817.434-1.169.995-2.822,1.955-5.131,1.955C4.446,2.973.328,6.617.021,10.982c-.172,2.441.717,4.829,2.439,6.55.848.848,1.861,1.485,2.958,1.899l.451,3.608c.066.532.519.931,1.055.931h.044c.639,0,1.134-.56,1.055-1.194l-.35-2.832c.234.02.469.035.705.035.198,0,.396-.007.595-.021.486-.034.958-.116,1.418-.227l.413,3.307c.066.532.519.931,1.055.931h0c.646,0,1.143-.572,1.053-1.212l-.534-3.776c2.726-1.433,4.609-4.288,4.609-7.494l.005-1.248c.003-.914.592-1.689,1.436-2.039l.013-.005c3.37,2.647,4.246,6.947,4.448,8.34.037.259.258.451.52.451.295,0,.533-.243.525-.538-.135-5.256-2.217-8.952-3.315-10.548Zm-3.12.098c-.828,0-1.5-.672-1.5-1.5s.672-1.5,1.5-1.5,1.5.672,1.5,1.5-.672,1.5-1.5,1.5Z"/>
</svg>
