<?xml version="1.0" encoding="UTF-8"?>
<svg xmlns="http://www.w3.org/2000/svg" id="Layer_1" data-name="Layer 1" viewBox="0 0 24 24">
  <path d="m22.202,15.662L3.64.231c-.428-.353-1.057-.294-1.408.13-.354.425-.295,1.055.129,1.408l15.917,13.231H4c-2.206,0-4,1.794-4,4v1c0,2.206,1.794,4,4,4h16c2.206,0,4-1.794,4-4v-1c0-1.393-.716-2.622-1.798-3.338Zm-17.702,5.338c-.828,0-1.5-.672-1.5-1.5s.672-1.5,1.5-1.5,1.5.672,1.5,1.5-.672,1.5-1.5,1.5Zm5,0c-.828,0-1.5-.672-1.5-1.5s.672-1.5,1.5-1.5,1.5.672,1.5,1.5-.672,1.5-1.5,1.5Z"/>
</svg>
