<?xml version="1.0" encoding="UTF-8"?>
<svg xmlns="http://www.w3.org/2000/svg" id="Layer_1" data-name="Layer 1" viewBox="0 0 24 24">
  <path d="M19.4,18c0,.772-.628,1.4-1.4,1.4s-1.4-.628-1.4-1.4,.628-1.4,1.4-1.4,1.4,.628,1.4,1.4Zm-1.4-6c-3.314,0-6,2.686-6,6s2.686,6,6,6,6-2.686,6-6-2.686-6-6-6Zm3,6c0,.536-.153,1.033-.4,1.469l.65,.65c.312,.312,.312,.819,0,1.132-.312,.312-.819,.312-1.131,0l-.65-.65c-.436,.247-.932,.4-1.469,.4s-1.033-.153-1.469-.4l-.65,.65c-.312,.312-.819,.312-1.131,0-.313-.312-.313-.819,0-1.132l.65-.65c-.247-.436-.4-.932-.4-1.469s.153-1.033,.4-1.469l-.65-.65c-.312-.312-.312-.819,0-1.132,.312-.312,.819-.312,1.131,0l.65,.65c.436-.247,.932-.4,1.469-.4s1.033,.153,1.469,.4l.65-.65c.312-.312,.819-.312,1.131,0,.313,.312,.313,.819,0,1.132l-.65,.65c.247,.436,.4,.932,.4,1.469Zm-3.888-8h4.847c.643,.002,1.248-.303,1.629-.822,.282-.38,.426-.843,.411-1.316-.008-.164-.035-.327-.08-.486-.234-.872-.584-1.708-1.038-2.487C21.512,2.543,19.278,.827,16.658,.112c-.173-.047-.559-.074-.559-.074-.138,0-.732,0-1.203,.381-.691,.544-.8,1.163-.81,1.211-.036,.151-.055,.307-.055,.462V6.919c0,1.702,1.379,3.081,3.081,3.081Zm-7.112,8c0-2.531,1.178-4.783,3.012-6.249-.608-.344-1.023-.988-1.023-1.736V5.283c.003-.933-.429-1.815-1.167-2.386-.7-.554-1.618-.752-2.484-.535C2.452,3.824-1.135,9.781,.326,15.667c1.029,4.147,4.371,7.321,8.566,8.135,1.251,.239,2.494,.25,3.689,.071-1.583-1.462-2.581-3.548-2.581-5.873Z"/>
</svg>
