<?xml version="1.0" encoding="UTF-8"?>
<svg xmlns="http://www.w3.org/2000/svg" id="Layer_1" data-name="Layer 1" viewBox="0 0 24 24">
  <path d="m1,16.5c0-1.381,1.119-2.5,2.5-2.5s2.5,1.119,2.5,2.5-1.119,2.5-2.5,2.5-2.5-1.119-2.5-2.5Zm5.775,7.131c.19-.233.265-.54.204-.834-.335-1.621-1.799-2.797-3.479-2.797S.356,21.176.021,22.797c-.061.294.014.601.204.834s.475.369.775.369h5c.301,0,.585-.135.775-.369Zm-3.275-1.631h.01-.01Zm20.5-4c0-2.206-1.794-4-4-4h-9c-1.103,0-2-.897-2-2s.897-2,2-2h1c.552,0,1-.448,1-1s-.448-1-1-1h-1c-2.206,0-4,1.794-4,4s1.794,4,4,4h9c1.103,0,2,.897,2,2s-.897,2-2,2h-10c-.552,0-1,.448-1,1s.448,1,1,1h10c2.206,0,4-1.794,4-4ZM15.503,7.389l-.862,2.765c-.116.371.013.776.325,1.009.162.122.356.183.55.183.178,0,.355-.051.51-.155l2.482-1.661,2.524,1.644c.326.212.751.195,1.06-.042.309-.238.433-.645.311-1.014l-.897-2.732,2.169-1.767c.294-.248.403-.654.271-1.016-.132-.362-.476-.602-.861-.602h-2.751l-.974-2.732c-.133-.359-.476-.597-.859-.597s-.726.238-.859.597l-.974,2.732h-2.751c-.384,0-.728.24-.86.601-.133.361-.026.766.267,1.015l2.179,1.773Z"/>
</svg>
