<?xml version="1.0" encoding="UTF-8"?>
<svg xmlns="http://www.w3.org/2000/svg" id="Layer_1" data-name="Layer 1" viewBox="0 0 24 24">
  <path d="m22.955,6.473l-5.134-5.177c-.388-.392-1.021-.394-1.414-.006-.392.389-.395,1.022-.006,1.414l5.137,5.18c.036.036.063.077.095.116H5c-2.757,0-5,2.243-5,5v8c0,.553.448,1,1,1s1-.447,1-1v-8c0-1.654,1.346-3,3-3h16.633c-.033.04-.061.082-.098.119l-5.134,5.177c-.389.393-.386,1.025.006,1.414.195.193.45.29.704.29.257,0,.515-.099.71-.296l5.131-5.174c.676-.676,1.048-1.574,1.048-2.53s-.372-1.854-1.045-2.527Z"/>
</svg>
