<?xml version="1.0" encoding="UTF-8"?>
<svg xmlns="http://www.w3.org/2000/svg" id="Layer_1" data-name="Layer 1" viewBox="0 0 24 24">
  <path d="m16.987,2.5c0-1.381,1.119-2.5,2.5-2.5s2.5,1.119,2.5,2.5-1.119,2.5-2.5,2.5-2.5-1.119-2.5-2.5Zm7.013,7.5v3c0,1.474-.81,2.75-2,3.444v6.556c0,.553-.447,1-1,1s-1-.447-1-1v-6h-2v6c0,.553-.447,1-1,1s-1-.447-1-1V7.851c-.504-.156-.969-.429-1.332-.824L9.763,1.676c-.373-.407-.346-1.04.062-1.413.408-.373,1.04-.345,1.413.062l4.905,5.352c.188.206.458.324.737.324h3.12c2.206,0,4,1.794,4,4ZM5.325,14.549c-.732-.73-1.921-.731-2.629-.021l-2.382,2.244c-.402.379-.421,1.012-.042,1.413.378.403,1.011.422,1.413.042l1.314-1.238v6.011c0,.553.447,1,1,1s1-.447,1-1v-6.011l1.314,1.238c.193.183.439.272.686.272.266,0,.531-.105.728-.314.379-.401.36-1.034-.042-1.413l-2.36-2.224Zm7-5c-.731-.732-1.921-.731-2.629-.021l-2.382,2.244c-.402.379-.421,1.012-.042,1.413.378.402,1.012.422,1.413.042l1.314-1.238v11.011c0,.553.447,1,1,1s1-.447,1-1v-11.011l1.314,1.238c.193.183.439.272.686.272.266,0,.531-.105.728-.314.379-.401.36-1.034-.042-1.413l-2.36-2.224Z"/>
</svg>
