<?xml version="1.0" encoding="UTF-8"?>
<svg xmlns="http://www.w3.org/2000/svg" id="Layer_1" data-name="Layer 1" viewBox="0 0 24 24">
  <path d="m8.5,0C5.467,0,3,2.467,3,5.5s2.467,5.5,5.5,5.5,5.5-2.467,5.5-5.5S11.533,0,8.5,0Zm0,7c-.828,0-1.5-.672-1.5-1.5s.672-1.5,1.5-1.5,1.5.672,1.5,1.5-.672,1.5-1.5,1.5Zm15.509,12.094c0,1.174-.682,2.232-1.747,2.727-1.99.926-5.58,2.202-10.253,2.202-4.905,0-9.169-2.343-10.794-3.895-.782-.747-1.217-1.777-1.216-2.858.002-1.953.488-5.097,1.861-8.286,1.005,1.911,2.809,3.332,4.97,3.823-.114,1.02-.307,2.011-.639,2.885.525-.635,2.99-2.594,6.317-2.669,2.102-.045,4.123,1.923,4.169,1.968.196.201.456.302.716.302.252,0,.503-.095.697-.283.396-.386.404-1.019.02-1.414-.047-.049-.579-.595-1.426-1.171.884-.724,2.059-1.425,3.324-1.425.446,0,.884.023,1.297.058,1.537.133,2.703,1.444,2.703,2.986v5.05Z"/>
</svg>
