<?xml version="1.0" encoding="UTF-8"?>
<svg xmlns="http://www.w3.org/2000/svg" id="Layer_1" data-name="Layer 1" viewBox="0 0 24 24">
  <path d="M4.272,5.652c.351-.427,.29-1.057-.136-1.407-.428-.354-1.057-.291-1.408,.136-3.643,4.424-3.637,10.841,.015,15.257,.198,.238,.483,.362,.771,.362,.225,0,.45-.075,.637-.229,.426-.352,.485-.982,.133-1.408-3.042-3.679-3.047-9.024-.012-12.71Z"/>
  <path d="M21.272,4.381c-.351-.427-.982-.487-1.408-.136-.426,.351-.487,.98-.136,1.407,3.029,3.678,3.029,9.018,0,12.695-.351,.427-.29,1.057,.136,1.407,.186,.154,.412,.229,.635,.229,.289,0,.575-.124,.772-.364,3.636-4.415,3.636-10.823,0-15.238Z"/>
  <path d="M12,4c-4.411,0-8,3.589-8,8s3.589,8,8,8,8-3.589,8-8-3.589-8-8-8Zm-1,3c0-.553,.448-1,1-1s1,.447,1,1v5c0,.553-.448,1-1,1s-1-.447-1-1V7Zm1,10.5c-.828,0-1.5-.672-1.5-1.5s.672-1.5,1.5-1.5,1.5,.672,1.5,1.5-.672,1.5-1.5,1.5Z"/>
</svg>
