<?xml version="1.0" encoding="UTF-8"?>
<svg xmlns="http://www.w3.org/2000/svg" id="Layer_1" data-name="Layer 1" viewBox="0 0 24 24">
  <path d="m13.293,5.707c-.391-.391-.391-1.023,0-1.414l2-2c.391-.391,1.023-.391,1.414,0s.391,1.023,0,1.414l-2,2c-.195.195-.451.293-.707.293s-.512-.098-.707-.293Zm-3.293-.707c.553,0,1-.448,1-1V1c0-.552-.447-1-1-1s-1,.448-1,1v3c0,.552.447,1,1,1Zm-4.707.707c.195.195.451.293.707.293s.512-.098.707-.293c.391-.391.391-1.023,0-1.414l-2-2c-.391-.391-1.023-.391-1.414,0s-.391,1.023,0,1.414l2,2Zm16.365-.886c-.723-1.004-2.132-1.087-2.969-.25l-9.689,9.429v-4c0-1.105-.895-2-2-2s-2,.895-2,2v9.258c0,.796-.292,1.558-.855,2.121l-2.621,2.621h16.476c1.5,0,1.737-.559,1.737-.559,1.454-1.454,1.679-3.731.538-5.441l-3.654-5.849,4.75-4.75c.687-.687.854-1.792.286-2.58Z"/>
</svg>
