<?xml version="1.0" encoding="UTF-8"?>
<svg xmlns="http://www.w3.org/2000/svg" id="Layer_1" data-name="Layer 1" viewBox="0 0 24 24">
  <path d="m23.855,8.074C22.727,3.889,19.037,1.096,14.619.247c1.462,2.336,3.273,5.914,3.376,9.439.599-.371,1.317-.686,2.005-.686.742,0,1.277.444,1.619.865.213.263.181.648-.061.885l-4.488,4.392c-.49-.533-1.134-.921-1.869-1.071l.954-3.507c0-3.85-2.788-8.614-4.154-10.564-1.366,1.95-4.154,6.714-4.154,10.564l.954,3.507c-.735.15-1.38.538-1.869,1.071l-4.488-4.392c-.242-.237-.275-.622-.061-.885.341-.421.876-.865,1.619-.865.688,0,1.406.315,2.005.686.103-3.525,1.914-7.104,3.376-9.439C4.963,1.096,1.273,3.889.145,8.074c-.463,1.718.086,3.554,1.357,4.798l4.537,4.242c-.014.128-.039.254-.039.386v3c0,1.93,1.57,3.5,3.5,3.5h5c1.93,0,3.5-1.57,3.5-3.5v-3c0-.132-.025-.258-.039-.386l4.537-4.242c1.272-1.244,1.82-3.081,1.357-4.798Zm-13.352,1.329c.476-.235.995-.403,1.497-.403s1.02.168,1.497.403c.352.174.528.579.435.96l-.88,3.637h-2.104l-.88-3.637c-.092-.382.083-.786.435-.96Zm3.497,10.597h-1v1c0,.552-.448,1-1,1s-1-.448-1-1v-1h-1c-.552,0-1-.448-1-1s.448-1,1-1h1v-1c0-.552.448-1,1-1s1,.448,1,1v1h1c.553,0,1,.448,1,1s-.447,1-1,1Z"/>
</svg>
