<?xml version="1.0" encoding="UTF-8"?>
<svg xmlns="http://www.w3.org/2000/svg" id="Layer_1" data-name="Layer 1" viewBox="0 0 24 24">
  <path d="m12,19h12v2c0,1.657-1.343,3-3,3h-6c-1.657,0-3-1.343-3-3v-2Zm10-4.816v-1.184c0-.552-.448-1-1-1s-1,.448-1,1v1h-4v-1c0-.552-.448-1-1-1s-1,.448-1,1v1.184c-1.163.413-2,1.512-2,2.816v.136h12v-.136c0-1.304-.837-2.403-2-2.816Zm-12,6.816v-4c0-1.59.766-3.059,2-3.986v-.014c0-1.654,1.346-3,3-3,1.304,0,2.416.836,2.829,2h.342c.413-1.164,1.525-2,2.829-2,.337,0,.656.068.958.171-.425-5.687-5.163-10.171-10.958-10.171C4.925,0,0,4.925,0,11c0,5.77,4.445,10.494,10.096,10.954-.06-.31-.096-.628-.096-.954Zm-2.499-7c-.348,0-.685-.181-.869-.504-.274-.479-.107-1.09.372-1.364l2.996-1.712v-4.42c0-.552.447-1,1-1s1,.448,1,1v5c0,.359-.192.69-.504.868l-3.5,2c-.156.089-.327.132-.495.132Z"/>
</svg>
