<?xml version="1.0" encoding="UTF-8"?>
<svg xmlns="http://www.w3.org/2000/svg" id="Layer_1" data-name="Layer 1" viewBox="0 0 24 24">
  <path d="m19.942,20c.034.162.058.328.058.5,0,1.381-1.119,2.5-2.5,2.5s-2.5-1.119-2.5-2.5c0-.172.024-.338.058-.5h4.885Zm-15.885,0c-.034.162-.058.328-.058.5,0,1.381,1.119,2.5,2.5,2.5s2.5-1.119,2.5-2.5c0-.172-.024-.338-.058-.5h-4.885Zm10.942-2V6c0-2.761-2.239-5-5-5h-5C2.239,1,0,3.239,0,6v3h8.036l-1.768-1.768c-.391-.391-.391-1.024,0-1.414.391-.391,1.023-.391,1.414,0l2.768,2.768c.78.78.78,2.048,0,2.828l-2.768,2.768c-.195.195-.451.293-.707.293s-.512-.098-.707-.293c-.391-.391-.391-1.023,0-1.414l1.768-1.768H0v3c0,2.209,1.791,4,4,4h11Zm2,0h3c2.209,0,4-1.791,4-4v-1h-7v5Zm2-13h-2v6h7v-1c0-2.761-2.239-5-5-5Z"/>
</svg>
