<?xml version="1.0" encoding="UTF-8"?>
<svg xmlns="http://www.w3.org/2000/svg" id="Layer_1" data-name="Layer 1" viewBox="0 0 24 24">
  <path d="M23.899,6H0v-1C0,2.243,2.243,0,5,0h2.528c.463,0,.927,.109,1.341,.316l3.156,1.578c.138,.069,.293,.105,.447,.105h6.528c2.414,0,4.434,1.721,4.899,4Zm-.778,14.928c-1.157,1.916-3.25,3.196-5.484,3.063-3.145-.188-5.637-2.797-5.637-5.989,0-1.139,.882-3.11,1.465-4.139,.32-.566,.812-.498,1.062,.103,.208,.501,.428,2.035,1.104,2.035,1.82,0,1.433-3.302,2.37-5.492,.234-.548,.637-.61,1.083-.215,2.6,2.303,6.736,6.168,4.038,10.636Zm-3.794-2.43l-.769-1.097c-.308-.308-.807-.308-1.115,0l-.77,1.096c-.754,.754-.889,1.99-.195,2.8,.802,.937,2.242,.937,3.044,0,.693-.809,.559-2.046-.195-2.8ZM0,17c0,2.757,2.243,5,5,5h6.083c-.684-1.181-1.083-2.545-1.083-3.999,0-2.019,1.548-4.812,1.724-5.124,.528-.935,1.429-1.456,2.399-1.399,.513,.031,.987,.22,1.383,.537,.147-.749,.334-1.544,.655-2.293,.498-1.163,1.374-1.503,1.847-1.623,.183-.046,.375-.088,.585-.099H0v9ZM18.77,8c.423,.023,.934,.204,1.638,.794h0c.951,.844,2.401,2.138,3.591,3.758v-4.552h-5.23Z"/>
</svg>
