<?xml version="1.0" encoding="UTF-8"?>
<svg xmlns="http://www.w3.org/2000/svg" id="Layer_1" data-name="Layer 1" viewBox="0 0 24 24">
  <path d="M23.707,22.293l-2.54-2.54c.524-.791,.833-1.736,.833-2.753,0-2.757-2.243-5-5-5s-5,2.243-5,5,2.243,5,5,5c1.017,0,1.962-.309,2.753-.833l2.54,2.54c.391,.391,1.023,.391,1.414,0s.391-1.023,0-1.414ZM3,11c-.344,0-.677,.043-1,.11V5C2,2.243,4.243,0,7,0h10c2.757,0,5,2.243,5,5v6.11c-.323-.067-.656-.11-1-.11h-.408c-1.051-.631-2.277-1-3.592-1-1.906,0-3.632,.764-4.894,2h-2.106c-.726-.641-1.663-1-2.646-1H3Zm7.08,7H2.5c-1.381,0-2.5-1.119-2.5-2.5s1.119-2.5,2.5-2.5H7.354c.589,0,1.147,.259,1.527,.708l.247,.292h1.555c-.433,.91-.683,1.925-.683,3,0,.34,.033,.673,.08,1Z"/>
</svg>
