<?xml version="1.0" encoding="UTF-8"?>
<svg xmlns="http://www.w3.org/2000/svg" id="Layer_1" data-name="Layer 1" viewBox="0 0 24 24">
  <path d="m23.707,22.293c.391.391.391,1.023,0,1.414-.195.195-.451.293-.707.293s-.512-.098-.707-.293L.293,1.707C-.098,1.316-.098.684.293.293S1.316-.098,1.707.293l2.417,2.417c.91-1.665,2.296-2.71,3.876-2.71h9.868c-1.273,2.009-1.868,5.262-1.868,8.5v6.086l7.707,7.707Zm-5.707-13.793c0-4.694,1.343-8.5,3-8.5s3,3.806,3,8.5-1.343,8.5-3,8.5-3-3.806-3-8.5Zm2,0c0,1.657.448,3,1,3s1-1.343,1-3-.448-3-1-3-1,1.343-1,3Zm-15.284.441c-.634-.633-1.717-.187-1.717.709,0,3.177,0,8.35,0,8.35,0,1.234-.741,2.328-1.888,2.787-.676.27-1.112.881-1.112,1.559,0,.912.742,1.654,1.654,1.654h9.346c2.033,0,3.787-1.22,4.568-2.967.235-.527.093-1.15-.315-1.558L4.716,8.941Z"/>
</svg>
