<?xml version="1.0" encoding="UTF-8"?>
<svg xmlns="http://www.w3.org/2000/svg" id="Layer_1" data-name="Layer 1" viewBox="0 0 24 24">
  <path d="m11.454,17.672c.729.729.729,1.928-.008,2.664l-3.287,3.363c-.195.2-.455.301-.715.301-.252,0-.505-.095-.699-.285-.395-.386-.402-1.019-.016-1.414l2.249-2.301h-3.979c-2.757,0-5-2.243-5-5v-6c0-2.757,2.243-5,5-5h5c.553,0,1,.447,1,1s-.447,1-1,1h-5c-1.654,0-3,1.346-3,3v6c0,1.654,1.346,3,3,3h3.979l-2.249-2.301c-.387-.396-.379-1.028.016-1.414.395-.387,1.03-.379,1.414.016l3.295,3.371Zm5.046-2.172c0,1.379,1.121,2.5,2.5,2.5s2.5-1.121,2.5-2.5-1.121-2.5-2.5-2.5-2.5,1.121-2.5,2.5Zm2.5-10.5c1.379,0,2.5-1.121,2.5-2.5s-1.121-2.5-2.5-2.5-2.5,1.121-2.5,2.5,1.121,2.5,2.5,2.5Zm4.966,17.741c.081.3.017.621-.173.867-.188.247-.482.392-.793.392h-8c-.311,0-.604-.145-.793-.392-.189-.246-.254-.567-.173-.867.591-2.203,2.633-3.741,4.966-3.741s4.375,1.538,4.966,3.741Zm-9.759-12.133c-.189-.246-.254-.567-.173-.867.591-2.203,2.633-3.741,4.966-3.741s4.375,1.538,4.966,3.741c.081.3.017.621-.173.867-.188.247-.482.392-.793.392h-8c-.311,0-.604-.145-.793-.392Z"/>
</svg>
