<?xml version="1.0" encoding="UTF-8"?>
<svg xmlns="http://www.w3.org/2000/svg" id="Layer_1" data-name="Layer 1" viewBox="0 0 24 24">
  <path d="m23.707,22.293l-3.818-3.818c1.401-1.923,2.111-4.083,2.111-6.432v-5.171c0-2.159-1.377-4.066-3.426-4.746L12.315.051c-.205-.068-.425-.068-.63,0l-6.259,2.075c-.446.148-.871.361-1.259.627L1.707.293C1.316-.098.684-.098.293.293S-.098,1.316.293,1.707l22,22c.195.195.451.293.707.293s.512-.098.707-.293c.391-.391.391-1.023,0-1.414ZM3.707,7.921c-.287-.287-.717-.374-1.09-.217-.374.154-.617.52-.617.924v3.415c0,6.562,7.005,10.576,9.153,11.65,0,0,.506.307.85.307s.79-.24.79-.24c.643-.258,1.927-.828,3.312-1.747.25-.166.413-.435.442-.733s-.076-.595-.288-.807L3.707,7.921Z"/>
</svg>
