<?xml version="1.0" encoding="UTF-8"?>
<svg xmlns="http://www.w3.org/2000/svg" id="Layer_1" data-name="Layer 1" viewBox="0 0 24 24">
  <path d="m22.853,7.365c-1.195.855-2.547,1.271-3.626,1.471-.577.107-1.116-.317-1.166-.902-.043-.509.301-.971.804-1.062,1.09-.198,2.443-.647,3.43-1.634,1.144-1.144,1.552-2.768,1.695-3.915.094-.757-.55-1.401-1.307-1.307-1.147.142-2.771.551-3.915,1.695-.584.584-.991,1.311-1.254,2.017-.651-2.206-1.76-3.345-1.821-3.407-.385-.39-1.011-.394-1.406-.012-.394.383-.402.99-.022,1.386.057.06,1.393,1.494,1.666,4.329l.014,1.122c-.344-1.282-1.575-2.847-2.717-4.042-.589-.617-1.477-.875-2.289-.614-4.02,1.295-6.939,5.065-6.939,9.51,0,1.855-.514,3.129-1.618,4.008-1.349,1.074-1.569,1.327-1.691,1.511-.452.68-.69,1.472-.69,2.291,0,2.311,1.858,4.19,4.143,4.19,6.445,0,19.857,0,19.857-12,0-1.673-.418-3.248-1.147-4.635Zm-7.353,12.183c-.828,0-1.5-.672-1.5-1.5s.672-1.5,1.5-1.5,1.5.672,1.5,1.5-.672,1.5-1.5,1.5Zm3-3.5c-.828,0-1.5-.672-1.5-1.5s.672-1.5,1.5-1.5,1.5.672,1.5,1.5-.672,1.5-1.5,1.5Z"/>
</svg>
