<?xml version="1.0" encoding="UTF-8"?>
<svg xmlns="http://www.w3.org/2000/svg" id="Layer_1" data-name="Layer 1" viewBox="0 0 24 24">
  <path d="M20.25,19h-6.848c-.67-1.299-1.402-3.736-1.402-7,0-.375,.019-.649,.037-1h9.911c.793,1.145,1.502,2.004,1.937,3.391,.035,.111,.062,.229,.081,.353,.321,2.044-1.177,4.256-3.716,4.256Zm-13.323,2.676c-.316,.218-.619,.324-.927,.324-1.888,0-4-4.276-4-10S4.112,2,6,2c.308,0,.611,.106,.927,.324,.455,.313,1.077,.197,1.391-.256,.313-.455,.198-1.078-.256-1.391-.652-.449-1.346-.676-2.062-.676C2.58,0,0,5.159,0,12s2.58,12,6,12c.716,0,1.41-.228,2.062-.676,.455-.313,.569-.936,.256-1.391-.314-.454-.936-.57-1.391-.256Zm8.448-.379c-.461,.466-.924,.703-1.375,.703-1.888,0-4-4.276-4-10S12.112,2,14,2c.775,0,1.592,.705,2.299,1.984,.267,.483,.874,.659,1.358,.391,.483-.267,.659-.875,.392-1.359-1.075-1.945-2.513-3.016-4.049-3.016-2.083,0-3.85,1.92-4.917,4.962h-3.601c-.458,.86-.946,2.23-1.222,4.038h3.92c-.077,.645-.132,1.311-.158,2h-3.984c-.016,.33-.039,.572-.039,.923,0,3.332,.763,5.796,1.444,7.077h3.625c1.065,3.064,2.839,5,4.931,5,.991,0,1.958-.448,2.797-1.296,.389-.393,.385-1.025-.008-1.414-.392-.389-1.026-.385-1.414,.008Zm-3.149-12.297h8.039c-1.896-1.864-4.308-3.155-6.972-3.699-.409,.859-.82,2.098-1.066,3.699Z"/>
</svg>
