<?xml version="1.0" encoding="UTF-8"?>
<svg xmlns="http://www.w3.org/2000/svg" id="Layer_1" data-name="Layer 1" viewBox="0 0 24 24">
  <path d="m.27,5.319c.374-.405,1.009-.429,1.413-.052l2.317,2.153V1c0-.552.447-1,1-1s1,.448,1,1v6.421l2.317-2.154c.404-.377,1.036-.353,1.413.052.376.405.353,1.038-.052,1.413l-2.611,2.426c-.561.562-1.308.844-2.058.844-.76,0-1.523-.289-2.104-.869L.321,6.732c-.404-.375-.428-1.008-.052-1.413Zm13.731,13.681c-.101,0-.348.029-.474.302l-2.542,4.698h6.034l-2.516-4.644c-.154-.327-.401-.356-.501-.356Zm9.6-1.064c-.022-.048-5.819-8.625-5.819-8.625-1.11-1.554-2.347-2.31-3.782-2.31-1.67,0-2.521.845-3.724,2.237-.026.03-5.85,8.65-5.873,8.698-.613,1.318-.517,2.835.256,4.064H1c-.553,0-1,.447-1,1s.447,1,1,1h7.709l3.031-5.597c.391-.845,1.268-1.403,2.26-1.403s1.87.559,2.288,1.458l3.005,5.542h.432c1.468,0,2.814-.738,3.603-1.975.787-1.233.889-2.763.271-4.09Z"/>
</svg>
