<?xml version="1.0" encoding="UTF-8"?>
<svg xmlns="http://www.w3.org/2000/svg" id="Layer_1" data-name="Layer 1" viewBox="0 0 24 24">
  <path d="M10,23c0,.553-.447,1-1,1s-1-.447-1-1c0,0,.006-3.813,.008-4.061-3.945-.484-7.008-3.814-7.008-7.839v-3.101c-.553,0-1-.447-1-1s.447-1,1-1h3V1c0-.553,.447-1,1-1s1,.447,1,1V6h6V1c0-.553,.447-1,1-1s1,.447,1,1V6h3c.553,0,1,.447,1,1s-.447,1-1,1v2.069c-3.945,.493-7,3.852-7,7.931v5Zm14-5c0,3.314-2.686,6-6,6s-6-2.686-6-6,2.686-6,6-6,6,2.686,6,6Zm-3.269,1.493c.327-.494,.357-1.123,.077-1.645s-.821-.846-1.413-.846h-2.029l1.469-2.431c.304-.466,.176-1.091-.287-1.4h0c-.462-.308-1.084-.189-1.399,.268-.629,.914-1.766,2.799-2.08,3.48-.213,.462-.054,1.022,.249,1.431,.303,.408,.788,.652,1.297,.652h2.035l-1.471,2.429c-.318,.458-.2,1.087,.262,1.398h0c.454,.305,1.068,.189,1.379-.261l1.911-3.077h0Z"/>
</svg>
