<?xml version="1.0" encoding="UTF-8"?>
<svg xmlns="http://www.w3.org/2000/svg" id="Layer_1" data-name="Layer 1" viewBox="0 0 24 24">
  <path d="m14,7V.46c.913.346,1.753.879,2.465,1.59l3.484,3.486c.712.711,1.245,1.551,1.591,2.464h-6.54c-.552,0-1-.449-1-1Zm-3.283,10h2.006l-.975-3.334-1.031,3.334Zm11.259-7h-6.976c-1.654,0-3-1.346-3-3V.024c-.161-.011-.322-.024-.485-.024h-4.515C4.243,0,2,2.243,2,5v14c0,2.757,2.243,5,5,5h10c2.757,0,5-2.243,5-5v-8.515c0-.163-.013-.324-.024-.485Zm-15.177,3.6v5.6c0,.442-.358.8-.8.8s-.8-.358-.8-.8v-5.6h-1.4c-.441,0-.8-.358-.8-.8s.358-.8.8-.8h4.4c.441,0,.8.358.8.8s-.358.8-.8.8h-1.4Zm7.625,6.368c-.075.022-.15.033-.225.033-.347,0-.666-.227-.768-.576l-.241-.825h-2.969l-.255.825c-.123.424-.563.668-.992.543-.424-.124-.667-.568-.543-.992l1.685-5.759c.213-.728.849-1.216,1.583-1.216h0c.734,0,1.37.49,1.582,1.217l1.247,4.261c.008.017.009.036.016.054l.422,1.443c.124.424-.119.868-.543.992Zm6.459-1.184c.229.377.109.87-.268,1.1-.13.079-.273.117-.415.117-.271,0-.534-.137-.685-.384l-1.267-2.082-1.267,2.082c-.15.248-.414.384-.685.384-.142,0-.285-.038-.415-.117-.377-.23-.497-.722-.268-1.1l1.697-2.789-1.697-2.789c-.229-.377-.109-.87.268-1.1.378-.231.87-.11,1.1.268l1.267,2.082,1.267-2.082c.229-.377.721-.499,1.1-.268.377.23.497.722.268,1.1l-1.697,2.789,1.697,2.789Z"/>
</svg>
