<?xml version="1.0" encoding="UTF-8"?>
<svg xmlns="http://www.w3.org/2000/svg" id="Layer_1" data-name="Layer 1" viewBox="0 0 24 24">
  <path d="m7.138,6.118l1.169,4.89h-2.571l1.129-4.899c.01-.046.024-.108.135-.108s.125.062.138.118Zm16.862-2.118v12c0,2.206-1.794,4-4,4h-2.853l-3.846,3.18c-.362.322-.825.485-1.292.485-.476,0-.956-.169-1.338-.509l-3.748-3.156h-2.923c-2.206,0-4-1.794-4-4V4C0,1.794,1.794,0,4,0h16c2.206,0,4,1.794,4,4Zm-12.739,10.768l-2.176-9.104c-.227-.995-1.065-1.663-2.085-1.663s-1.858.668-2.085,1.661l-2.101,9.114c-.124.538.212,1.075.75,1.199.539.127,1.075-.211,1.199-.75l.511-2.217h3.51l.532,2.225c.11.459.52.768.972.768.077,0,.155-.009.233-.027.537-.129.869-.668.74-1.205Zm7.739-.768c0-.553-.447-1-1-1h-4c-.553,0-1,.447-1,1s.447,1,1,1h4c.553,0,1-.447,1-1Zm2-4c0-.553-.447-1-1-1h-6c-.553,0-1,.447-1,1s.447,1,1,1h6c.553,0,1-.447,1-1Zm0-4c0-.553-.447-1-1-1h-6c-.553,0-1,.447-1,1s.447,1,1,1h6c.553,0,1-.447,1-1Z"/>
</svg>
