<?xml version="1.0" encoding="UTF-8"?>
<svg xmlns="http://www.w3.org/2000/svg" id="Layer_1" data-name="Layer 1" viewBox="0 0 24 24">
  <path d="m23.138,6.909c-1.517-.609-2.747-1.611-3.497-2.838l4.092-3.377c.349-.33.006-.904-.45-.752l-4.283,1.564v-.81c0-.461-.447-.805-.888-.669-1.014.312-1.796,1.267-2.033,2.315-2.895.953-3.907,3.756-4.058,5.659-.014.176-.021,1-1.021,1s-3.006.003-3.006.003c-1.254,0-2.578.645-3.312,1.552-2.136.717-4.682,2.765-4.682,8.448,0,.552.448,1,1,1s1-.448,1-1c0-2.792.68-4.73,2.003-5.812.046,1.593.644,3.32,1.133,4.72.146.417.284.812.396,1.172l-.366,2.646c-.166,1.202.582,2.267,1.795,2.267,1.371,0,2.131-.746,2.255-1.748l.401-3.245h4.383v2.893c0,.996.681,1.92,1.664,2.08,1.253.204,2.336-.758,2.336-1.973v-3.395l.385-1.811c.417-1.46.615-2.416.615-3.896v-1.994c0-.514.389-.944.901-.995l2.816-.282c.729-.073,1.283-.686,1.283-1.418,0-.568-.335-1.093-.862-1.305Z"/>
</svg>
