<?xml version="1.0" encoding="UTF-8"?>
<svg xmlns="http://www.w3.org/2000/svg" id="Layer_1" data-name="Layer 1" viewBox="0 0 24 24">
  <path d="m23.208,1.71c-.092-.76-.604-1.372-1.334-1.599-.737-.229-1.508-.01-1.98.528l-1.699,1.734c-.198.201-.508.24-.77.094-1.791-.992-3.664-1.5-5.442-1.468-1.691.031-3.609.564-5.399,1.502-.258.134-.562.093-.753-.103l-1.711-1.741C3.612.082,2.843-.141,2.111.084c-.729.221-1.245.828-1.344,1.585C.41,4.395,0,8.203,0,13.499c0,5.79,4.741,10.501,10.567,10.501h2.933c5.79,0,10.5-4.709,10.5-10.498,0-5.293-.477-9.211-.792-11.792ZM6,10.5c0-.828.672-1.5,1.5-1.5s1.5.672,1.5,1.5-.672,1.5-1.5,1.5-1.5-.672-1.5-1.5Zm9.001,8.5c-1.335-.269-2.414-1.02-3.001-1.87-.587.85-1.666,1.601-3.001,1.87-.466,0-.884-.328-.979-.803-.109-.541.242-1.068.783-1.178,1.417-.285,1.915-1.43,2.093-2.227-.906-.362-1.396-1.12-1.396-1.605,0-.656.889-1.188,2.5-1.188s2.5.532,2.5,1.188c0,.484-.488,1.238-1.389,1.602.184.799.686,1.948,2.086,2.23.542.109.892.637.783,1.178-.096.475-.513.803-.979.803Zm1.499-7c-.828,0-1.5-.672-1.5-1.5s.672-1.5,1.5-1.5,1.5.672,1.5,1.5-.672,1.5-1.5,1.5Z"/>
</svg>
