<?xml version="1.0" encoding="UTF-8"?>
<svg xmlns="http://www.w3.org/2000/svg" id="Layer_1" data-name="Layer 1" viewBox="0 0 24 24">
  <path d="M16.243,24.045c-.37,0-.74-.092-1.077-.275-.719-.394-1.166-1.147-1.166-1.968v-6.51c0-.82,.446-1.574,1.166-1.968,.719-.394,1.596-.364,2.287,.079h0s5.08,3.255,5.08,3.255c.647,.414,1.034,1.12,1.034,1.889s-.387,1.475-1.034,1.889l-5.08,3.254c-.368,.236-.789,.355-1.21,.355Zm-4.243-8.753c0-1.552,.846-2.979,2.206-3.723,1.361-.745,3.018-.688,4.326,.149l1.468,.941v-3.66h-5c-.553,0-1-.448-1-1s.447-1,1-1h4.931c-.495-3.94-3.859-7-7.931-7S4.564,3.06,4.069,7h4.931c.552,0,1,.448,1,1s-.448,1-1,1H4v2h5c.552,0,1,.448,1,1s-.448,1-1,1H4.069c.495,3.94,3.859,7,7.931,7v-4.708Zm.013,6.708h-1.013c-4.963,0-9-4.038-9-9,0-.552-.447-1-1-1s-1,.448-1,1c0,6.065,4.935,11,11,11h1.616c-.362-.597-.569-1.282-.603-2Zm11.599-7.025c.063,.04,.12,.088,.18,.132,.133-.682,.207-1.386,.207-2.106,0-.552-.447-1-1-1s-1,.448-1,1c0,.308-.016,.612-.046,.912l1.659,1.063Z"/>
</svg>
