<?xml version="1.0" encoding="UTF-8"?>
<svg xmlns="http://www.w3.org/2000/svg" id="Layer_1" data-name="Layer 1" viewBox="0 0 24 24">
  <path d="m3,21c0,1.654,1.346,3,3,3h7c1.654,0,3-1.346,3-3h.494c2.498,0,4.629-1.868,4.957-4.344l.219-1.656h.33c1.299,0,2-1.03,2-2,0-1.419-2.932-7.014-4.223-8.611C17.696,1.61,14.489,0,11,0c-.553,0-1,.448-1,1v14.5c0,2.481-2.019,4.5-4.5,4.5h-1.5c-.553,0-1,.448-1,1ZM0,12.5v3c0,1.378,1.121,2.5,2.5,2.5h3c1.379,0,2.5-1.122,2.5-2.5v-3c0-1.378-1.121-2.5-2.5-2.5h-3C1.121,10,0,11.122,0,12.5ZM6,0H2C.895,0,0,.895,0,2v4c0,1.105.895,2,2,2h4c1.105,0,2-.895,2-2V2C8,.895,7.105,0,6,0Zm.719,3.504l-1.82,1.883c-.796.823-2.118.817-2.905-.015l-.769-.813c-.367-.388-.364-.995.006-1.379.395-.411,1.054-.408,1.445.006l.777.821,1.828-1.892c.391-.405,1.04-.407,1.433-.004.378.387.38,1.004.004,1.394Z"/>
</svg>
