<?xml version="1.0" encoding="UTF-8"?>
<svg xmlns="http://www.w3.org/2000/svg" id="Layer_1" data-name="Layer 1" viewBox="0 0 24 24">
  <path d="M16,5.184V3c0-1.657-1.343-3-3-3s-3,1.343-3,3v2.184c-1.163,.413-2,1.512-2,2.816v2c0,1.657,1.343,3,3,3h4c1.657,0,3-1.343,3-3v-2c0-1.304-.837-2.403-2-2.816Zm-3-3.187c.965,0,1,1.003,1,1.003v2h-2V3s.035-1.003,1-1.003Zm0,8.503c-.828,0-1.5-.672-1.5-1.5s.672-1.5,1.5-1.5,1.5,.672,1.5,1.5-.672,1.5-1.5,1.5Zm0,7.5H6.5l-3.16,1.64c-.36,.239-.775,.36-1.191,.36-.348,0-.696-.084-1.015-.255-.699-.375-1.134-1.101-1.134-1.894V6C0,3.243,2.243,1,5,1h3.424c-.269,.614-.424,1.288-.424,2v1.014c-1.234,.928-2,2.396-2,3.986v2c0,2.757,2.243,5,5,5h4c1.072,0,2.061-.346,2.876-.924-.495,2.24-2.49,3.924-4.876,3.924Zm11-8v11.854c0,.793-.435,1.519-1.134,1.894-.318,.171-.667,.255-1.015,.256-.416,0-.831-.121-1.19-.36l-3.161-1.644h-6.5c-1.45,0-2.747-.631-3.661-1.62l.569-.38h5.092c3.859,0,7-3.141,7-7V6c0-.308-.027-.608-.065-.906,2.311,.44,4.065,2.469,4.065,4.906Z"/>
</svg>
