<?xml version="1.0" encoding="UTF-8"?>
<svg xmlns="http://www.w3.org/2000/svg" id="Layer_1" data-name="Layer 1" viewBox="0 0 24 24">
  <path d="m18.961,9.503c-.363,0-.729-.128-1.021-.388l-1.348-1.115h-.092c-1.378,0-2.5-1.122-2.5-2.5v-3c0-1.378,1.122-2.5,2.5-2.5h5c1.378,0,2.5,1.122,2.5,2.5v3c0,1.378-1.122,2.5-2.5,2.5h-.188l-1.375,1.138c-.272.243-.622.365-.977.365Zm3.039,10.497h-6.152c-.588,0-1.147.259-1.527.708l-.247.292h-4.149l-.247-.292c-.38-.449-.939-.708-1.527-.708H2c-1.105,0-2,.895-2,2s.895,2,2,2h20c1.105,0,2-.895,2-2s-.895-2-2-2Zm-.082-9.905l-.704.583c-.575.515-1.395.825-2.252.825-.868,0-1.703-.317-2.351-.894l-.613-.506c-.061,1.203-1.185,2.125-2.451,1.847-.711-.156-1.304-.726-1.481-1.432-.235-.937.191-1.805.909-2.235-.513-.643-.851-1.427-.946-2.283h-5.528c-2.485,0-4.5,2.015-4.5,4.5v7.61c.323-.067.656-.11,1-.11h5.151c.983,0,1.92.359,2.646,1h2.404c.726-.641,1.664-1,2.646-1h5.151c.344,0,.677.043,1,.11v-7.11c0-.309-.028-.611-.082-.905Zm-13.918-2.095c1.105,0,2,.895,2,2s-.895,2-2,2-2-.895-2-2,.895-2,2-2Zm8.258,8h-4.515c-.414,0-.74-.327-.742-.701-.002.373-.328.701-.742.701h-4.515c-.491,0-.858-.46-.709-.911.4-1.212,1.577-2.089,2.966-2.089s2.566.878,2.966,2.089c.023.07.034.141.034.21,0-.069.01-.14.034-.21.4-1.212,1.577-2.089,2.966-2.089s2.566.878,2.966,2.089c.149.451-.218.911-.709.911Z"/>
</svg>
