<?xml version="1.0" encoding="UTF-8"?>
<svg xmlns="http://www.w3.org/2000/svg" id="Layer_1" data-name="Layer 1" viewBox="0 0 24 24">
  <path d="m19.861,20.132c.169.291.231.629.177.962l-.197,1.224c-.156.97-.993,1.683-1.975,1.683H6.773c-.977,0-1.68-.919-1.459-1.871.954-4.097,4.079-6.335,6.686-7.868v-.261c0-1.237.748-2.457,1.817-2.921.558-.242,1.183.178,1.183.786v2.466c.717.271,1.362.625,1.576.724,1.322.612,2.127,1.563,2.319,3.077.047.375.621,1.405.967,2Zm1.639-14.132h-.227c-.829,0-1.609-.365-2.14-1.002l-.229-.275c-.912-1.094-2.251-1.722-3.676-1.722h-1.227V.865c0-.586-.59-1.029-1.133-.807-1.095.447-1.867,1.686-1.867,2.942v.706l-2.57,3.998c-.924,1.438-2.497,2.296-4.206,2.296H1c-.552,0-1,.448-1,1v12c0,.552.448,1,1,1h2.614c-.341-.716-.433-1.529-.249-2.324,1.026-4.407,4.01-6.927,6.721-8.623.306-1.68,1.409-3.146,2.934-3.809.88-.382,1.885-.295,2.689.232.809.53,1.291,1.423,1.291,2.388v1.167c.472.219,1.311.682,1.689.967h.311c2.757,0,5-2.243,5-5v-.5c0-1.378-1.122-2.5-2.5-2.5Z"/>
</svg>
