<?xml version="1.0" encoding="UTF-8"?>
<svg xmlns="http://www.w3.org/2000/svg" id="Layer_1" data-name="Layer 1" viewBox="0 0 24 24">
  <path d="M23.338,13.345l-7.205,7.773c-1.703,1.837-4.095,2.882-6.6,2.882H4c-2.209,0-4-1.791-4-4v-4c0-2.209,1.791-4,4-4h7.787c1.374,0,2.46,1.26,2.164,2.685-.193,.926-1.004,1.598-1.94,1.732l-4.162,.583c-.547,.078-.927,.585-.848,1.131,.078,.547,.585,.926,1.131,.848l4.252-.596c2.062-.294,3.617-2.087,3.617-4.17,0-.219-.032-.429-.065-.638l3.541-3.737c.455-.5,1.097-.803,1.794-.835,.692-.034,1.363,.209,1.878,.678,1.052,.958,1.138,2.602,.189,3.665Zm-11.295-3.317c1.147,.07,2.209,.588,2.957,1.473V5.021c0-1.072-.572-2.062-1.5-2.598L10,.402c-.928-.536-2.072-.536-3,0L3.5,2.423c-.928,.536-1.5,1.526-1.5,2.598v4.979H12l.043,.029Zm-5.543-1.601c0,.316-.256,.573-.573,.573-.208,0-.4-.113-.501-.295l-1.427-2.573v2.368c0,.276-.224,.5-.5,.5s-.5-.224-.5-.5v-3.895c0-.334,.271-.605,.605-.605,.22,0,.422,.119,.529,.311l1.366,2.464v-2.275c0-.276,.224-.5,.5-.5s.5,.224,.5,.5v3.927Zm3.001-2.418c.276,0,.499,.225,.499,.501,0,.276-.225,.499-.501,.499l-.999-.003v1.493c0,.276-.224,.5-.5,.5s-.5-.224-.5-.5V4.5c0-.276,.224-.5,.5-.5h1.5c.276,0,.5,.224,.5,.5s-.224,.5-.5,.5h-1v1.007l1.001,.003Zm1.499-1.499c0-.276,.224-.5,.5-.5h2c.276,0,.5,.224,.5,.5s-.224,.5-.5,.5h-.5v3.489c0,.276-.224,.5-.5,.5s-.5-.224-.5-.5v-3.489h-.5c-.276,0-.5-.224-.5-.5Z"/>
</svg>
