<?xml version="1.0" encoding="UTF-8"?>
<svg xmlns="http://www.w3.org/2000/svg" id="Layer_1" data-name="Layer 1" viewBox="0 0 24 24">
  <path d="M17,4h-3c-.552,0-1,.447-1,1s.448,1,1,1h3c2.757,0,5,2.243,5,5H10.457C5.266,11,.906,14.715,.081,19.879c-.076,.451-.306,1.824,.617,2.916,.677,.8,1.773,1.205,3.258,1.205h15.043c2.757,0,5-2.243,5-5V11c0-3.859-3.14-7-7-7ZM3.107,8h.343l1.2,1.6c.373,.528,1.226,.528,1.6,0l1.2-1.6h.55c1.654,0,3-1.346,3-3,0-1.434-1.01-2.635-2.356-2.931-.555-1.233-1.798-2.069-3.194-2.069-1.407,0-2.658,.849-3.207,2.097-.59,.153-1.125,.485-1.529,.96C.143,3.729-.103,4.617,.041,5.497c.232,1.427,1.551,2.503,3.066,2.503Z"/>
</svg>
