<?xml version="1.0" encoding="UTF-8"?>
<svg xmlns="http://www.w3.org/2000/svg" id="Layer_1" data-name="Layer 1" viewBox="0 0 24 24">
  <path d="M21,22c0,.552-.447,1-1,1h-1.219c-.92,0-1.718-.623-1.94-1.515l-.932-3.728c-.112-.446-.511-.758-.971-.758h-3.938c-2.206,0-4-1.794-4-4v-5c0-.552,.448-1,1-1s1,.448,1,1v3h5c.553,0,1,.448,1,1s-.447,1-1,1h-5c0,1.103,.897,2,2,2h3.938c1.379,0,2.576,.935,2.91,2.272l.932,3.728h1.22c.553,0,1,.448,1,1ZM8,6c1.379,0,2.5-1.121,2.5-2.5s-1.121-2.5-2.5-2.5-2.5,1.121-2.5,2.5,1.121,2.5,2.5,2.5Zm5.056,1.175c.208,.501,.692,.825,1.234,.825h2.687c.553,0,1-.448,1-1s-.447-1-1-1h-1.086l1.716-1.716c.385-.384,.499-.956,.292-1.458-.208-.502-.693-.826-1.236-.826h-2.686c-.553,0-1,.448-1,1s.447,1,1,1h1.085l-1.718,1.718c-.383,.384-.496,.956-.288,1.457Zm9.944-3.175h-1.086l1.719-1.718c.383-.384,.496-.956,.288-1.457-.208-.501-.692-.825-1.235-.825h-2.686c-.553,0-1,.448-1,1s.447,1,1,1h1.086l-1.719,1.718c-.383,.384-.496,.956-.288,1.457,.208,.501,.692,.825,1.235,.825h2.686c.553,0,1-.448,1-1s-.447-1-1-1ZM5,13v-3.564c-2.911,1.031-5,3.8-5,7.064,0,4.142,3.358,7.5,7.5,7.5,3.264,0,6.034-2.089,7.064-5h-3.564c-3.309,0-6-2.691-6-6Z"/>
</svg>
