<?xml version="1.0" encoding="UTF-8"?>
<svg xmlns="http://www.w3.org/2000/svg" id="Layer_1" data-name="Layer 1" viewBox="0 0 24 24">
  <path d="M14,6c-1.105,0-2,.895-2,2,0-1.105-.895-2-2-2s-2,.895-2,2c0,1.595,1.87,3.829,3.052,4.777,.556,.446,1.339,.446,1.895,0,1.183-.948,3.052-3.182,3.052-4.777,0-1.105-.895-2-2-2ZM2.5,2.5C2.5,1.119,3.619,0,5,0s2.5,1.119,2.5,2.5-1.119,2.5-2.5,2.5-2.5-1.119-2.5-2.5Zm7.177,11.734c-1.131-.949-3.677-3.632-3.677-6.234,0-.628,.158-1.214,.417-1.743-.444-.163-.92-.257-1.417-.257h0c-2.08,0-3.843,1.557-4.101,3.62L.023,16.628c-.107,.853,.158,1.712,.728,2.357,.341,.386,.773,.674,1.249,.843v3.172c0,.553,.448,1,1,1s1-.447,1-1v-3h2v3c0,.553,.448,1,1,1s1-.447,1-1v-3.172c.476-.169,.908-.456,1.249-.843,.569-.646,.834-1.505,.728-2.357l-.299-2.394ZM19,5c-1.381,0-2.5-1.119-2.5-2.5S17.619,0,19,0s2.5,1.119,2.5,2.5-1.119,2.5-2.5,2.5Zm-4.977,11.628c-.107,.853,.158,1.712,.728,2.357,.341,.386,.773,.674,1.249,.843v3.172c0,.553,.448,1,1,1s1-.447,1-1v-3s2,0,2,0v3c0,.553,.448,1,1,1s1-.447,1-1v-3.172c.476-.169,.908-.456,1.249-.843,.569-.646,.834-1.505,.728-2.357l-.876-7.008c-.258-2.063-2.021-3.62-4.101-3.62h0c-.496,0-.972,.094-1.417,.257,.259,.529,.417,1.116,.417,1.743,0,2.602-2.547,5.285-3.677,6.234l-.299,2.394Z"/>
</svg>
