<?xml version="1.0" encoding="UTF-8"?>
<svg xmlns="http://www.w3.org/2000/svg" id="Layer_1" data-name="Layer 1" viewBox="0 0 24 24">
  <path d="m23.213,2c.518,0,.923.503.758.994-.335.996-1.307,1.783-2.333,2.006l-1.139,5.69c.412.472.618,1.129.43,1.841-.234.885-1.086,1.469-2.002,1.469h-2.855c-.916,0-1.768-.584-2.002-1.469-.189-.712.017-1.369.43-1.841l-1.139-5.69c-1.007-.219-1.964-.981-2.315-1.951-.184-.509.203-1.049.745-1.049h1.567c-.118-.22-.219-.452-.299-.694-.213-.641.273-1.306.949-1.306h0c.42,0,.814.258.933.661.229.779.853,1.339,1.585,1.339h1.95c.732,0,1.355-.56,1.585-1.339.119-.403.513-.661.933-.661h0c.676,0,1.162.665.949,1.306-.08.242-.181.474-.299.694h1.571Zm-7.011,14c-1.56,0-3.067-.804-3.769-2.197-.581-1.152-.559-2.43-.049-3.502l-.653-3.301h-1.732v.5c0,2.481-2.019,4.5-4.5,4.5h-.5c-.553,0-1-.448-1-1s.447-1,1-1h.5c1.379,0,2.5-1.122,2.5-2.5v-.5h-1c-1.461,0-2.765.641-3.68,1.644-.009.007-.02.009-.029.016L.341,11.248c-.415.364-.457.996-.093,1.412.198.225.475.34.752.34.234,0,.47-.082.659-.248l.341-.299v9.047c0,1.381,1.119,2.5,2.5,2.5,1.22,0,2.233-.875,2.453-2.031,2.276-.155,3.871-1.435,4.547-2.969h3.5v3c0,1.105.895,2,2,2h1c1.105,0,2-.895,2-2v-6h-3.797Z"/>
</svg>
