<?xml version="1.0" encoding="UTF-8"?>
<svg xmlns="http://www.w3.org/2000/svg" id="Layer_1" data-name="Layer 1" viewBox="0 0 24 24">
  <path d="M15.458,4.279l3.013-.247c.358-.029,.717,.041,1.038,.203,0,0,.097-.019,.746,.376s.745,1.376,.745,1.376h1.723c.705,0,1.277,.572,1.277,1.277h0c0,.449-.235,.864-.62,1.095l-1.196,.717c-.453,.272-.95,.46-1.469,.555l-1.615,.298-2.033,3.403,.565,.675c.487,.581,.537,1.412,.124,2.047l-.928,1.427c-.213,.327-.53,.573-.901,.696l-.928,.309-1.029,1.029c-.301,.301-.71,.471-1.136,.471h-3.335l-1.616,1.611c-.627,.548-1.573,.517-2.162-.073l-1.619-1.619c-.511-.511-.689-1.266-.461-1.952l.858-2.282s-.422-.851-1-2c-.596-1.185,.5-1.5,.5-1.5v-1.302c0-.449,.17-.881,.476-1.209l.799-.859c.312-.336,.335-.848,.053-1.21h0c-.203-.26-.528-.394-.856-.352l-1.628,.21c-.344,.069-.702,.021-1.016-.136l-.796-.398c-.452-.226-.769-.655-.852-1.153L.022,4.807c-.122-.733,.284-1.452,.975-1.727l1.503-.407,.531-.797c.259-.388,.783-.493,1.172-.234l.797,.531,2,.5,2.5,.5,.491-.491c.316-.316,.775-.444,1.209-.337l3.107,.767c.401,.099,.74,.367,.929,.734l.223,.432Zm7.144,13.979l-1.148,.97c-.443,.375-1.096,.34-1.499-.079l-.642-.668c-.384-.4-.42-1.025-.083-1.467l.83-1.09c.379-.498,1.088-.582,1.57-.186l.96,.789c.541,.445,.547,1.28,.012,1.732Zm-4.089,2.624c-.17-.39-.646-.517-.977-.26l-.778,.605c-.315,.245-.347,.721-.069,1.01l.054,.056c.241,.25,.628,.263,.884,.029l.724-.66c.213-.195,.279-.511,.162-.779Zm5.327-7.885l-.635-.673c-.386-.437-.763-.22-.916,.077l-.178,.267c-.196,.294-.09,.693,.226,.851l.812,.406c.282,.141,.626,.034,.778-.243,.123-.223,.088-.501-.087-.686Z"/>
</svg>
