<?xml version="1.0" encoding="UTF-8"?>
<svg xmlns="http://www.w3.org/2000/svg" id="Layer_1" data-name="Layer 1" viewBox="0 0 24 24">
  <path d="m12,5c1.381,0,2.5,1.119,2.5,2.5s-1.119,2.5-2.5,2.5-2.5-1.119-2.5-2.5,1.119-2.5,2.5-2.5Zm4,9v3c0,.883-.391,1.67-1,2.22v3.78c0,.553-.448,1-1,1s-1-.447-1-1v-3h-2v3c0,.553-.448,1-1,1s-1-.447-1-1v-3.78c-.609-.549-1-1.337-1-2.22v-3c0-1.654,1.346-3,3-3h2c1.654,0,3,1.346,3,3Zm3-9c1.381,0,2.5-1.119,2.5-2.5s-1.119-2.5-2.5-2.5-2.5,1.119-2.5,2.5,1.119,2.5,2.5,2.5Zm4.977,11.628l-.876-7.007c-.257-2.064-2.02-3.621-4.101-3.621-.964,0-1.851.344-2.56.908.026.196.06.389.06.592,0,.871-.26,1.679-.69,2.368,1.32.901,2.19,2.416,2.19,4.132v3c0,1.077-.357,2.123-1,2.981v.019h3v3c0,.552.447,1,1,1s1-.448,1-1v-3.188c.474-.169.909-.441,1.249-.826.569-.645.834-1.504.728-2.357ZM7.5,2.5C7.5,1.119,6.38,0,5,0s-2.5,1.119-2.5,2.5,1.119,2.5,2.5,2.5,2.5-1.119,2.5-2.5ZM.751,18.985c.34.385.775.658,1.249.826v3.188c0,.552.447,1,1,1s1-.448,1-1v-3h3s0-.019,0-.019c-.643-.858-1-1.904-1-2.981v-3c0-1.716.87-3.231,2.19-4.132-.43-.69-.69-1.497-.69-2.368,0-.203.034-.396.06-.592-.709-.563-1.596-.908-2.56-.908-2.081,0-3.844,1.557-4.101,3.621L.023,16.628c-.106.854.158,1.712.728,2.357Z"/>
</svg>
