<?xml version="1.0" encoding="UTF-8"?>
<svg xmlns="http://www.w3.org/2000/svg" id="Layer_1" data-name="Layer 1" viewBox="0 0 24 24">
  <path d="m13,19v5h-2v-5c0-.551.449-1,1-1s1,.449,1,1ZM0,15.564v4.936c0,1.933,1.567,3.5,3.5,3.5h1.5v-14.619l-2.941,2.138c-1.294.941-2.059,2.444-2.059,4.044Zm21.941-4.044l-2.941-2.138v14.619h1.5c1.933,0,3.5-1.567,3.5-3.5v-4.936c0-1.6-.766-3.103-2.059-4.044ZM13.147.303l2.573,1.801c.802.561,1.28,1.479,1.28,2.458v19.438h-2v-5c0-1.85-1.683-3.314-3.598-2.942-1.424.277-2.402,1.609-2.402,3.06v4.882s-2,0-2,0V4.562c0-.979.478-1.896,1.28-2.458l2.573-1.801c.689-.482,1.605-.482,2.294,0Zm.353,11.197c0-.828-.672-1.5-1.5-1.5s-1.5.672-1.5,1.5.672,1.5,1.5,1.5,1.5-.672,1.5-1.5Z"/>
</svg>
