<?xml version="1.0" encoding="UTF-8"?>
<svg xmlns="http://www.w3.org/2000/svg" id="Layer_1" data-name="Layer 1" viewBox="0 0 24 24">
  <path d="M12,18c.553,0,1-.448,1-1v-5.689l6.669-3.271c.762-.399,1.257-1.149,1.323-2.006,.067-.858-.306-1.676-1.034-2.214L14.77,.323c-.035-.024-.073-.046-.112-.065-.762-.38-1.761-.332-2.487,.117-.438,.27-1.17,.931-1.17,2.318v14.308c0,.552,.447,1,1,1Zm4.175-5.645c-.295-.054-.591,.029-.817,.219s-.357,.47-.357,.766v3.66c0,1.654-1.346,3-3,3s-3-1.346-3-3v-3.66c0-.296-.131-.576-.357-.766s-.521-.271-.817-.219c-4.826,.855-7.825,3.018-7.825,5.645,0,3.42,5.159,6,12,6s12-2.58,12-6c0-2.626-2.999-4.789-7.825-5.645Z"/>
</svg>
