<?xml version="1.0" encoding="UTF-8"?>
<svg xmlns="http://www.w3.org/2000/svg" id="Layer_1" data-name="Layer 1" viewBox="0 0 24 24">
  <path d="m13.622,15.038c.123-.023.248-.038.378-.038h8c.129,0,.255.015.377.038l-3.67,3.67c-.378.377-1.036.377-1.414,0l-3.671-3.67Zm6.499,5.084c-.585.585-1.353.877-2.121.877s-1.536-.292-2.121-.877l-3.764-3.764c-.069.202-.115.416-.115.641v5c0,1.105.895,2,2,2h8c1.105,0,2-.895,2-2v-5c0-.226-.046-.439-.115-.642l-3.764,3.764Zm-3.05-17.193c-1.888-1.889-4.399-2.929-7.07-2.929S4.818,1.04,2.929,2.929C1.04,4.818,0,7.329,0,10s1.04,5.182,2.955,7.096l5.181,4.833c.708.661,1.864.159,1.864-.81v-4.118c0-.756.222-1.456.587-2.059-.195.023-.386.059-.587.059-2.757,0-5-2.243-5-5s2.243-5,5-5,5,2.243,5,5c0,1.131-.392,2.164-1.028,3.003.01,0,.018-.003.028-.003h5.54c.3-.959.46-1.967.46-3,0-2.671-1.04-5.182-2.929-7.071Zm-7.071,4.071c-1.654,0-3,1.346-3,3s1.346,3,3,3,3-1.346,3-3-1.346-3-3-3Z"/>
</svg>
