<?xml version="1.0" encoding="UTF-8"?>
<svg xmlns="http://www.w3.org/2000/svg" id="Layer_1" data-name="Layer 1" viewBox="0 0 24 24">
  <path d="m22,14.556v-1.556c0-2.206-1.794-4-4-4s-4,1.794-4,4v1.556c-1.19.694-2,1.97-2,3.444v2c0,2.206,1.794,4,4,4h4c2.206,0,4-1.794,4-4v-2c0-1.474-.81-2.75-2-3.444Zm-4,5.944c-.828,0-1.5-.672-1.5-1.5s.672-1.5,1.5-1.5,1.5.672,1.5,1.5-.672,1.5-1.5,1.5Zm2-6.5h-4v-1c0-1.103.897-2,2-2s2,.897,2,2v1Zm-8.456,10.004h-6.544c-2.757,0-5-2.243-5-5v-9.276c0-1.665.824-3.214,2.203-4.145L9.203.859c1.699-1.146,3.895-1.146,5.594,0l7.203,4.88c1.252.942,2,2.41,2,3.989v3.272c0-3.309-2.691-6-6-6s-6,2.691-6,6v.552c-1.255,1.127-2,2.744-2,4.448v2c0,1.54.588,2.941,1.544,4.004Z"/>
</svg>
