<?xml version="1.0" encoding="UTF-8"?>
<svg xmlns="http://www.w3.org/2000/svg" id="Layer_1" data-name="Layer 1" viewBox="0 0 24 24">
  <path d="m19.721,19.807c.383.397.371,1.031-.027,1.414l-2.293,2.207c-.381.381-.888.573-1.396.573-.513,0-1.027-.195-1.419-.587l-2.279-2.193c-.398-.383-.41-1.017-.027-1.414.383-.398,1.016-.41,1.414-.027l1.307,1.258v-9.037c0-.552.447-1,1-1s1,.448,1,1v9.022l1.307-1.243c.396-.383,1.03-.371,1.414.027Zm-7.721-4.307c.263,0,.524-.103.721-.307.383-.397.371-1.031-.027-1.414l-2.279-2.193c-.779-.78-2.049-.78-2.814-.014l-2.293,2.207c-.398.383-.41,1.017-.027,1.414.383.398,1.018.41,1.414.027l1.307-1.243v9.022c0,.553.447,1,1,1s1-.447,1-1v-9.037l1.307,1.258c.194.187.443.279.693.279Zm5.974-10.358c-.332-.066-.603-.273-.742-.569C15.68,1.301,12.089-.527,8.497.134,5.225.734,2.66,3.346,2.113,6.635c-.162.971-.15,1.943.033,2.89.06.309-.073.653-.346.901-1.145,1.041-1.801,2.524-1.801,4.07,0,3.032,2.467,5.5,5.5,5.5h.5v-2.497h-.056c-.803-.016-1.552-.343-2.107-.921-.555-.576-.853-1.336-.837-2.138s.343-1.549.921-2.104l2.292-2.206c.719-.721,1.716-1.132,2.781-1.132h.015c1.066.004,2.067.42,2.82,1.173l1.241,1.194c.292-1.351,1.493-2.367,2.93-2.367,1.654,0,3,1.346,3,3v5.5h.054c.787.014,1.519.332,2.072.888,1.747-1.374,2.875-3.502,2.875-5.892,0-3.565-2.534-6.658-6.026-7.354Z"/>
</svg>
