<?xml version="1.0" encoding="UTF-8"?>
<svg xmlns="http://www.w3.org/2000/svg" id="Layer_1" data-name="Layer 1" viewBox="0 0 24 24">
  <path d="M23,13h-3v-.5c0-.828-.672-1.5-1.5-1.5h-2c-.828,0-1.5,.672-1.5,1.5v.5h-3c-.553,0-1,.447-1,1s.447,1,1,1v5.5c0,1.933,1.567,3.5,3.5,3.5h4c1.933,0,3.5-1.567,3.5-3.5v-5.5c.553,0,1-.447,1-1s-.447-1-1-1Zm-13.1,5.323c-.51,.994-1.578,1.677-2.812,1.677H2.912c-1.234,0-2.302-.684-2.812-1.677-.312-.608,.148-1.323,.856-1.323H9.045c.708,0,1.168,.715,.856,1.323Zm0,4c-.51,.994-1.578,1.677-2.812,1.677H2.912c-1.234,0-2.302-.684-2.812-1.677-.312-.608,.148-1.323,.856-1.323H9.045c.708,0,1.168,.715,.856,1.323Zm-3.4-9.323c3.243,0,5.931-2.39,6.415-5.5h7.085c.553,0,1-.448,1-1s-.447-1-1-1h-7.085c-.484-3.11-3.172-5.5-6.415-5.5C2.916,0,0,2.916,0,6.5s2.916,6.5,6.5,6.5Z"/>
</svg>
