<?xml version="1.0" encoding="UTF-8"?>
<svg xmlns="http://www.w3.org/2000/svg" id="Layer_1" data-name="Layer 1" viewBox="0 0 24 24">
  <path d="m15.995,11.446s.024.093-.04.333c-.193.719-.872,1.221-1.652,1.221h-2.404c-.45,0-.845.301-.964.735l-.5,1.822c-.926-.875-1.573-1.763-1.849-2.551-.147-.421-.101-.922.115-1.355l1.402-2.65h1.14c.768,0,1.465.333,1.819.867.656.992,1.809,1.633,2.935,1.633v-.054Zm6.002-4.574v5.171c0,7.434-7.047,10.848-9.208,11.717,0,0-.483.24-.791.24s-.85-.307-.85-.307c-2.147-1.074-9.153-5.087-9.153-11.65v-5.171c0-2.16,1.377-4.067,3.427-4.746L11.683.051c.205-.067.425-.067.63,0l6.259,2.075c2.05.68,3.427,2.587,3.427,4.746Zm-4.393,3.398c-.562-.733-1.439-.77-1.609-.77-.387,0-.946-.253-1.268-.738-.731-1.104-2.035-1.762-3.486-1.762h-.242v-1.79c0-.503-.517-.851-.979-.654-.894.381-1.521,1.268-1.521,2.302v.895s-1.577,2.983-1.577,2.983c-.468.934-.55,2.002-.225,2.931.577,1.649,1.983,3.066,3.062,3.964.274.228.612.348.956.348.15,0,.301-.023.448-.069.479-.151.844-.531.977-1.015l.52-1.894h1.642c1.684,0,3.157-1.112,3.584-2.704.272-1.017-.003-1.663-.281-2.026Z"/>
</svg>
