<?xml version="1.0" encoding="UTF-8"?>
<svg xmlns="http://www.w3.org/2000/svg" id="Layer_1" data-name="Layer 1" viewBox="0 0 24 24">
  <path d="m15.703,13.064l-3.703,1.998-3.703-1.998c-.183-.099-.297-.29-.297-.498,0-.312.254-.566.565-.566h6.869c.312,0,.565.254.565.566,0,.208-.114.399-.297.498ZM14.336.631c-1.303-.849-2.984-.848-4.287,0-2.934,1.91-7.856,5.721-7.856,9.782v6.344c0,2.13,1.272,4.03,3.242,4.841l4.972,2.047c.194.08.394.127.594.179v-7.029l-3.652-1.972c-.831-.448-1.348-1.313-1.348-2.258,0-1.415,1.15-2.566,2.565-2.566h6.869c1.415,0,2.565,1.151,2.565,2.566,0,.944-.517,1.81-1.348,2.258l-3.652,1.972v7.125c.332-.059.66-.145.978-.276l4.972-2.047c1.97-.811,3.242-2.711,3.242-4.841v-6.344c0-4.061-4.923-7.872-7.856-9.782Z"/>
</svg>
