<?xml version="1.0" encoding="UTF-8"?>
<svg xmlns="http://www.w3.org/2000/svg" id="Layer_1" data-name="Layer 1" viewBox="0 0 24 24">
  <path d="M8.704,13h6.556l-3.249,4.03-3.307-4.03Zm15.296-1c0,6.617-5.383,12-12,12S0,18.617,0,12,5.383,0,12,0s12,5.383,12,12ZM7,8c0,.552,.448,1,1,1h8c.552,0,1-.448,1-1s-.448-1-1-1H8c-.552,0-1,.448-1,1Zm10.104,4.075c-.334-.663-1.002-1.075-1.745-1.075h-6.717c-.743,0-1.411,.412-1.745,1.075-.333,.664-.266,1.446,.203,2.076l3.332,4.105c.372,.501,.944,.789,1.568,.789h0c.625,0,1.196-.288,1.541-.755l3.386-4.173c.442-.596,.51-1.378,.176-2.042Z"/>
</svg>
