<?xml version="1.0" encoding="UTF-8"?>
<svg xmlns="http://www.w3.org/2000/svg" id="Layer_1" data-name="Layer 1" viewBox="0 0 24 24">
  <path d="m9.028,1.359c-.099-.543.261-1.064.804-1.164.711-.129,1.44-.195,2.168-.195.552,0,1,.448,1,1s-.448,1-1,1c-.607,0-1.397.071-1.989.179-.474,0-.895-.338-.983-.82Zm-1.006,14.452c-.121.63.292,1.214.476,1.436.401.486.91.753,1.434.753h4.135c.835,0,1.3-.349,1.543-.642.333-.403.462-.965.353-1.545-.259-1.358-1.079-2.637-2.422-3.806,1.343-1.168,2.163-2.447,2.422-3.807.109-.579-.02-1.141-.353-1.544-.243-.293-.708-.642-1.543-.642h-4.135c-.524,0-1.033.268-1.434.753-.184.222-.597.806-.476,1.435.261,1.359,1.085,2.638,2.434,3.805-1.349,1.167-2.174,2.446-2.434,3.804Zm1.989-13.631c-.061.011.06,0,0,0h0Zm-5.321,2.602c.236,0,.474-.083.665-.253.453-.403.944-.767,1.46-1.08.472-.287.622-.902.335-1.374-.286-.471-.9-.621-1.374-.335-.619.376-1.208.812-1.751,1.295-.412.367-.449,1-.082,1.412.198.222.472.335.748.335Zm18.311-.781c.553,0,1-.448,1-1s-.447-1-1-1h-4c-1.105,0-2,.895-2,2v4c0,.552.447,1,1,1s1-.448,1-1v-3.123c3.217,3.173,4.163,8.368,1.267,12.74-1.279,1.931-3.237,3.375-5.469,3.997-4.397,1.224-8.822-.541-11.182-4.16-.301-.462-.919-.593-1.384-.292-.462.302-.593.921-.292,1.384,2.65,4.063,7.47,6.178,12.403,5.229,3.574-.688,6.655-3.064,8.316-6.302,2.415-4.709,1.406-9.953-1.739-13.473h2.08ZM2.301,14.444c-.147-.585-.241-1.189-.28-1.794-.035-.551-.511-.971-1.062-.934-.551.036-.969.511-.934,1.062.047.726.16,1.45.335,2.152.114.454.521.757.969.757.081,0,.163-.01.244-.03.536-.134.861-.678.727-1.213Zm-1.111-4.724c.098.03.197.044.294.044.427,0,.823-.276.956-.707.177-.578.409-1.142.689-1.678.256-.49.066-1.094-.423-1.349-.49-.256-1.093-.066-1.349.423-.336.644-.615,1.322-.829,2.016-.162.528.134,1.087.662,1.25Z"/>
</svg>
