<?xml version="1.0" encoding="UTF-8"?>
<svg xmlns="http://www.w3.org/2000/svg" id="Layer_1" data-name="Layer 1" viewBox="0 0 24 24">
  <path d="m12,14h1.876c-.314-.799-.429-1.766.009-2.529.52-.907,1.489-1.471,2.531-1.471h4.818c-.132-.119-.273-.231-.433-.318l-8.452-4.61c-.111-.06-.232-.092-.35-.137v-.737l2.504-1.688c.427-.288.363-.935-.113-1.133L11.262.071c-.6-.25-1.262.191-1.262.841v4.022c-.117.045-.239.077-.35.137L1.199,9.682c-.739.403-1.199,1.177-1.199,2.019,0,1.166.875,2.121,2,2.269v8.03h-1c-.552,0-1,.447-1,1s.448,1,1,1h9c.552,0,1-.447,1-1s-.448-1-1-1h-2v-8h2v1c0,.553.448,1,1,1s1-.447,1-1v-1Zm-6,8h-2v-8h2v8Zm18-.986c0,1.649-1.343,2.986-3,2.986h-6c-1.657,0-3-1.337-3-2.986,0-2.806,2.174-5.608,4.67-6.387-.382-.372-.771-.814-1.052-1.294-.346-.59.115-1.333.799-1.333h3.167c.684,0,1.144.743.799,1.333-.281.48-.67.922-1.052,1.294,2.495.779,4.67,3.581,4.67,6.387Z"/>
</svg>
