<?xml version="1.0" encoding="UTF-8"?>
<svg xmlns="http://www.w3.org/2000/svg" id="Layer_1" data-name="Layer 1" viewBox="0 0 24 24">
  <path d="m16.899,20c-.465,2.279-2.485,4-4.899,4s-4.435-1.721-4.899-4h9.799Zm3.601-13c1.93,0,3.5-1.57,3.5-3.5s-1.57-3.5-3.5-3.5-3.5,1.57-3.5,3.5,1.57,3.5,3.5,3.5Zm.423,1.988c-.083.003-.164.012-.248.012-3.133,0-5.681-2.467-5.681-5.5,0-.904.231-1.756.632-2.509-1.221-.635-2.609-.991-4.066-.991C7.531,0,4.043,2.709,3.169,6.516l-1.978,6.191c-.84,2.628,1.19,5.293,4.032,5.293h13.053c2.926,0,4.964-2.812,3.968-5.475l-1.322-3.537Z"/>
</svg>
