<?xml version="1.0" encoding="UTF-8"?>
<svg xmlns="http://www.w3.org/2000/svg" id="Layer_1" data-name="Layer 1" viewBox="0 0 24 24">
  <path d="m13,3.913v-.913c0-.552-.448-1-1-1s-1,.448-1,1v.922c.328.048.661.078,1,.078.332,0,.666-.035,1-.087Z"/>
  <path d="m11,16.092v6.908c0,.552.448,1,1,1s1-.448,1-1v-6.915c-.33-.051-.663-.085-1-.085-.34,0-.672.038-1,.092Z"/>
  <path d="m21.56,2.141h0c-.416-.601-1.043-.991-1.767-1.101-.735-.112-1.5.093-2.093.559-1.699,1.336-3.217,2.081-4.7,2.313v12.173c1.951.3,3.76,1.399,5.006,2.349.481.367,1.072.564,1.667.564.132,0,.265-.01.396-.03.709-.107,1.33-.487,1.747-1.071,1.612-2.262,2.185-5.666,2.185-7.894,0-2.592-.98-5.752-2.44-7.863Z"/>
  <path d="m6.026,1.6c-.593-.466-1.357-.672-2.093-.559-.724.109-1.351.5-1.767,1.101C.569,4.452,0,7.718,0,10.004c0,2.658.988,5.831,2.46,7.895.417.583,1.037.963,1.746,1.07.722.111,1.475-.085,2.063-.535,1.262-.962,2.892-2.037,4.73-2.342V3.922c-2.131-.315-3.985-1.545-4.974-2.322Z"/>
</svg>
