<?xml version="1.0" encoding="UTF-8"?>
<svg xmlns="http://www.w3.org/2000/svg" id="Layer_1" data-name="Layer 1" viewBox="0 0 24 24">
  <path d="m17.825,7.44l-5.825,3.328-5.811-3.32c.203-.202.433-.378.679-.534l-3.112-2.264c-.37.217-.796.35-1.256.35-1.381,0-2.5-1.119-2.5-2.5S1.119,0,2.5,0s2.5,1.119,2.5,2.5c0,.185-.023.364-.061.537l3.823,2.78,1.265-.723h0c1.226-.699,2.746-.698,3.97,0l1.253.716,3.812-2.773c-.038-.173-.061-.352-.061-.537,0-1.381,1.119-2.5,2.5-2.5s2.5,1.119,2.5,2.5-1.119,2.5-2.5,2.5c-.46,0-.886-.133-1.256-.35l-3.101,2.256c.247.156.478.332.682.534Zm-12.813,2.839l-.011,3.763c0,1.277.616,2.47,1.63,3.218l-2.874,2.09c-.37-.217-.796-.35-1.256-.35-1.381,0-2.5,1.119-2.5,2.5s1.119,2.5,2.5,2.5,2.5-1.119,2.5-2.5c0-.185-.023-.364-.061-.537l3.568-2.595,1.508.862c.312.178.644.31.985.398v-7.127l-5.827-3.329c-.104.357-.162.728-.162,1.109Zm16.489,8.721c-.46,0-.886.133-1.256.35l-2.874-2.09c1.014-.748,1.63-1.941,1.63-3.215l.011-3.763c0-.385-.06-.762-.166-1.122l-5.845,3.34v7.127c.341-.087.672-.219.984-.397l1.508-.862,3.568,2.595c-.038.173-.061.352-.061.537,0,1.381,1.119,2.5,2.5,2.5s2.5-1.119,2.5-2.5-1.119-2.5-2.5-2.5Z"/>
</svg>
