<?xml version="1.0" encoding="UTF-8"?>
<svg xmlns="http://www.w3.org/2000/svg" id="Layer_1" data-name="Layer 1" viewBox="0 0 24 24">
  <path d="m10.095,18.042l.628,2.825c.407,1.83,2.03,3.132,3.905,3.132h4.373v-6c0-.552.448-1,1-1s1,.448,1,1v6h0c1.657,0,3-1.343,3-3v-3c0-1.657-1.343-3-3-3h-.456s-2.193-4.149-2.193-4.149c-.18-.352-.428-.614-.682-.719-.212-.088-.427-.132-.64-.132-.682,0-1.244.446-1.432,1.136-.022.08-.05.265.007.599l.58,3.265h-3.649c-1.599,0-2.787,1.481-2.44,3.042ZM9.5,0C4.253,0,0,4.253,0,9.5c0,4.818,3.59,8.788,8.238,9.407l-.096-.431c-.298-1.339.024-2.722.883-3.792.858-1.069,2.138-1.684,3.51-1.684h1.263l-.162-.916c-.098-.561-.084-1.059.036-1.489.42-1.546,1.771-2.596,3.356-2.596.478,0,.951.096,1.407.285.179.074.352.17.517.283C18.484,3.759,14.432,0,9.5,0Zm4.4,7.219l-3.721,3.566c-.975.956-2.537.953-3.508-.007l-1.873-1.778c-.393-.388-.397-1.02-.011-1.415.388-.395,1.022-.402,1.418-.014l2.21,2.097,4.086-3.885c.398-.385,1.032-.376,1.418.022.384.396.376,1.028-.018,1.414Z"/>
</svg>
