<?xml version="1.0" encoding="UTF-8"?>
<svg xmlns="http://www.w3.org/2000/svg" id="Layer_1" data-name="Layer 1" viewBox="0 0 24 24">
  <path d="m1.622,15.038c.123-.023.248-.038.378-.038h8c.129,0,.255.015.377.038l-3.67,3.67c-.378.377-1.036.377-1.414,0l-3.671-3.67Zm6.499,5.084c-.585.585-1.353.877-2.121.877s-1.536-.292-2.121-.877L.115,16.359c-.069.202-.115.416-.115.641v5c0,1.105.895,2,2,2h8c1.105,0,2-.895,2-2v-5c0-.226-.046-.439-.115-.642l-3.764,3.764ZM0,13.557V5.223C0,2.613,1.903.278,4.5.024c2.98-.291,5.5,2.054,5.5,4.976v8H1.999c-.731,0-1.409.212-1.999.557Zm3-6.557c0,.552.448,1,1,1h2c.552,0,1-.448,1-1s-.448-1-1-1h-2c-.552,0-1,.448-1,1Zm21-1v8.5c0,1.933-1.567,3.5-3.5,3.5h-6.5v-1c0-1.474-.81-2.75-2-3.444V5c0-1.957-.807-3.729-2.106-5h8.106c3.314,0,6,2.686,6,6Zm-3,1c0-.552-.447-1-1-1h-4c-.553,0-1,.448-1,1s.447,1,1,1h3v1c0,.552.447,1,1,1s1-.448,1-1v-2Z"/>
</svg>
