<?xml version="1.0" encoding="UTF-8"?>
<svg xmlns="http://www.w3.org/2000/svg" id="Layer_1" data-name="Layer 1" viewBox="0 0 24 24">
  <path d="m20.5,5h-1.5c0-1.654-1.346-3-3-3h-6v3.586l1.121,1.121c.567.566.879,1.32.879,2.121v1.672c0,1.379-1.122,2.5-2.5,2.5h-1c-1.378,0-2.5-1.121-2.5-2.5v-1.672c0-.801.312-1.555.879-2.121l1.121-1.121v-3.586h-3c-1.654,0-3,1.346-3,3v8c0,2.757,2.243,5,5,5h7c2.414,0,4.435-1.721,4.899-4h1.601c1.93,0,3.5-1.57,3.5-3.5v-2c0-1.93-1.57-3.5-3.5-3.5Zm1.5,5.5c0,.827-.673,1.5-1.5,1.5h-1.5v-5h1.5c.827,0,1.5.673,1.5,1.5v2Zm-14-1.672c0-.263.107-.521.293-.707l.707-.707.707.707c.186.187.293.444.293.707v1.672c0,.275-.224.5-.5.5h-1c-.276,0-.5-.225-.5-.5v-1.672Zm13,12.172c0,.553-.448,1-1,1H1c-.552,0-1-.447-1-1s.448-1,1-1h19c.552,0,1,.447,1,1Z"/>
</svg>
