<?xml version="1.0" encoding="UTF-8"?>
<svg xmlns="http://www.w3.org/2000/svg" id="Layer_1" data-name="Layer 1" viewBox="0 0 24 24">
  <path d="m24,18c0,3.309-2.691,6-6,6-.553,0-1-.448-1-1s.447-1,1-1c2.206,0,4-1.794,4-4,0-.552.447-1,1-1s1,.448,1,1Zm-6.785-5.668l-4.91,4.893c-1.046,1.047-2.749,1.028-3.777-.037-2.056-2.128-3.074-3.648-5.382-6.741-1.358-1.82-1.542-4.335-.311-6.198L.293,1.707C-.098,1.316-.098.684.293.293S1.316-.098,1.707.293l2.544,2.544c1.868-1.24,4.318-1.035,6.254.326,2.619,1.842,4.393,3.178,6.678,5.4,1.056,1.027,1.073,2.725.032,3.768Zm-6.215-2.832c0-.828-.672-1.5-1.5-1.5s-1.5.672-1.5,1.5.672,1.5,1.5,1.5,1.5-.672,1.5-1.5Zm8.953,5.035c-.23-.316-.6-.767-.973-1.218-.114.145-.219.296-.351.428l-4.912,4.896c-.102.102-.22.18-.33.271.454.371.906.74,1.22.968.694.504,1.649.423,2.255-.183l2.907-2.907c.607-.607.687-1.561.183-2.255Z"/>
</svg>
