<?xml version="1.0" encoding="UTF-8"?>
<svg xmlns="http://www.w3.org/2000/svg" id="Layer_1" data-name="Layer 1" viewBox="0 0 24 24">
  <path d="m22.535,1.464c-.945-.944-2.2-1.464-3.535-1.464s-2.59.52-3.535,1.464c-.944.944-1.465,2.2-1.465,3.536s.523,2.596,1.482,3.552l1.752,1.714c.486.477,1.126.714,1.766.714s1.279-.238,1.766-.714l1.77-1.73c.944-.944,1.465-2.2,1.465-3.536s-.521-2.592-1.465-3.536Zm-3.535,5.036c-.828,0-1.5-.672-1.5-1.5s.672-1.5,1.5-1.5,1.5.672,1.5,1.5-.672,1.5-1.5,1.5Zm1.655,8.361c-1.193-1.142-3.09-1.138-4.28.006l-1.906,1.606c-3.198-1.357-5.474-3.637-6.932-6.945l1.6-1.897c.557-.579.863-1.339.863-2.145s-.304-1.559-.857-2.138c0,0-1.852-2.407-1.883-2.438-1.207-1.207-3.17-1.206-4.327-.047l-1.15,1.004C.633,3.016,0,4.57,0,6.243c0,7.636,10.126,17.762,17.762,17.762,1.673,0,3.227-.634,4.421-1.833l.912-1.05c1.205-1.207,1.205-3.171,0-4.378-.031-.03-2.439-1.883-2.439-1.883Z"/>
</svg>
