<?xml version="1.0" encoding="UTF-8"?>
<svg xmlns="http://www.w3.org/2000/svg" id="Layer_1" data-name="Layer 1" viewBox="0 0 24 24">
  <path d="m19,0H5C2.243,0,0,2.243,0,5v14c0,2.757,2.243,5,5,5h10.515c.163,0,.324-.013.485-.024v-4.976c0-1.654,1.346-3,3-3h4.976c.011-.161.024-.322.024-.485V5c0-2.757-2.243-5-5-5Zm-10.342,10.069c-.318,0-.582-.246-.605-.563l-.201-2.776-.644,1.416c-.216.474-.889.474-1.105,0l-.644-1.416-.201,2.776c-.023.317-.287.563-.605.563-.352,0-.631-.299-.605-.651l.338-4.659c.032-.535.358-.759.749-.759.26,0,.501.184.638.486l.883,1.942.883-1.942c.137-.302.378-.486.638-.486.391,0,.717.224.749.759l.338,4.659c.026.352-.253.651-.605.651Zm3.809-2.099l-.717.003v1.471c0,.345-.28.625-.625.625s-.625-.28-.625-.625v-4.819c0-.345.28-.625.625-.625h1.342c1.109,0,2.012.891,2.012,1.985s-.902,1.985-2.012,1.985Zm6.79,1.475c0,.345-.28.625-.625.625s-.625-.28-.625-.625v-1.471h-1.23c-.828-.002-1.499-.673-1.499-1.501v-1.847c0-.345.28-.625.625-.625h.018c.348,0,.629.284.625.632-.006.514-.011,1.136-.014,1.586-.002.277.222.503.499.504l.969.002.003-2.099c0-.345.28-.624.625-.624h.004c.345,0,.625.28.625.625v4.819Zm-6.028-3.46c0,.398-.349.735-.762.735l-.71.003-.005-1.473h.715c.413,0,.762.336.762.735Zm5.771,12.015h4.54c-.347.913-.88,1.754-1.591,2.465l-1.484,1.485c-.712.711-1.552,1.244-2.465,1.591v-4.54c0-.551.448-1,1-1Z"/>
</svg>
