<?xml version="1.0" encoding="UTF-8"?>
<svg xmlns="http://www.w3.org/2000/svg" id="Layer_1" data-name="Layer 1" viewBox="0 0 24 24">
  <path d="m10,9.261l1.205,4.739h-2.411l1.205-4.739Zm12,1.739v2h1c.552,0,1,.447,1,1s-.448,1-1,1h-1v2h1c.552,0,1,.447,1,1s-.448,1-1,1h-1.418c-.505,1.151-1.431,2.077-2.582,2.582v1.418c0,.553-.448,1-1,1s-1-.447-1-1v-1h-2v1c0,.553-.448,1-1,1s-1-.447-1-1v-1h-2v1c0,.553-.448,1-1,1s-1-.447-1-1v-1h-2v1c0,.553-.448,1-1,1s-1-.447-1-1v-1.418c-1.151-.505-2.077-1.431-2.582-2.582h-1.418c-.552,0-1-.447-1-1s.448-1,1-1h1v-2h-1c-.552,0-1-.447-1-1s.448-1,1-1h1v-2h-1c-.552,0-1-.447-1-1s.448-1,1-1h1v-2h-1c-.552,0-1-.447-1-1s.448-1,1-1h1.418c.505-1.151,1.431-2.077,2.582-2.582v-1.418c0-.553.448-1,1-1s1,.447,1,1v1h2v-1c0-.553.448-1,1-1s1,.447,1,1v1h2v-1c0-.553.448-1,1-1s1,.447,1,1v1h2v-1c0-.553.448-1,1-1s1,.447,1,1v1.418c1.151.505,2.077,1.431,2.582,2.582h1.418c.552,0,1,.447,1,1s-.448,1-1,1h-1v2h1c.552,0,1,.447,1,1s-.448,1-1,1h-1Zm-8.031,5.754l-2.404-9.452c-.182-.777-.811-1.299-1.565-1.299s-1.383.521-1.561,1.28l-2.409,9.471c-.136.535.188,1.079.723,1.215.54.142,1.08-.187,1.216-.723l.317-1.246h3.428l.317,1.246c.115.453.522.754.969.754.082,0,.164-.01.247-.031.535-.136.859-.68.723-1.215Zm3.031-9.754c0-.553-.448-1-1-1s-1,.447-1,1v10c0,.553.448,1,1,1s1-.447,1-1V7Z"/>
</svg>
