<?xml version="1.0" encoding="UTF-8"?>
<svg xmlns="http://www.w3.org/2000/svg" id="Layer_1" data-name="Layer 1" viewBox="0 0 24 24">
  <path d="m3.014,18.08c-.068,1.709.391,3.322,1.309,4.66C1.83,21.95.004,19.452.004,16.5.004,15.477.218,14.498.639,13.59c.625-1.348.625-2.833,0-4.181C.218,8.502.004,7.523.004,6.5.004,2.916,2.695,0,6.004,0c3.143,0,5.729,2.632,5.98,5.968.001.004.002.009.003.013-.709.809-1.264,1.718-1.632,2.723-.289.789-.859,1.359-1.647,1.647-1.188.435-2.252,1.117-3.162,2.027-1.549,1.548-2.448,3.573-2.532,5.702Zm19.034-2.873c-.703.703-1.522,1.229-2.436,1.563-1.339.49-2.348,1.499-2.839,2.838-.334.913-.859,1.732-1.562,2.436-1.296,1.296-2.978,1.952-4.61,1.952-1.472,0-2.904-.532-3.982-1.61-2.275-2.274-2.122-6.13.342-8.593.703-.703,1.522-1.229,2.436-1.563,1.34-.491,2.348-1.5,2.838-2.838.334-.913.86-1.733,1.563-2.436,1.181-1.18,2.715-1.873,4.32-1.949,1.632-.072,3.158.493,4.272,1.608,2.274,2.274,2.121,6.129-.342,8.592Zm-9.044,4.293c0-.828-.672-1.5-1.5-1.5s-1.5.672-1.5,1.5.672,1.5,1.5,1.5,1.5-.672,1.5-1.5Zm3-4c0-.828-.672-1.5-1.5-1.5s-1.5.672-1.5,1.5.672,1.5,1.5,1.5,1.5-.672,1.5-1.5Z"/>
</svg>
