<?xml version="1.0" encoding="UTF-8"?>
<svg xmlns="http://www.w3.org/2000/svg" id="Layer_1" data-name="Layer 1" viewBox="0 0 24 24">
  <path d="M16,11h0M14.395,1c-.992,0-1.959,.34-2.706,.992-1.644,1.436-3.387,3.609-4.399,5.449-.193,.351-.29,.746-.29,1.147v.033c0,.494,.405,.854,.853,.854,.277,.029,.898-.37,1.147-.474l1-.5v1s0,1,1,1,1-1,1-1v-1s-.56-1.102-.5-1.5c.5-2,2-3,2-3-.025,.15-.531,2.566-.5,2.635,0,.754,.611,1.365,1.365,1.365,.351,0,.635,.284,.635,.635v1.365s-1,0-1,1c-.018,.964-.591,.991-1,.985-4.005-.124-4.072-.985-5-.985-.894-.042-1.779,.272-2.412,.912l-.676,.676c-.584,.584-.912,1.376-.912,2.202,.096,.56-.386,1.089-.942,.896l-.87-.29c-.632-.216-1.353,.14-1.55,.802l-.638,2.109v1l2.009,1.519c.505,.34,1.212,.163,1.491-.396l1.133-2.592c.223-.51,.726-.839,1.283-.839h.676c.547,0,1.044,.317,1.272,.815,.345,.755,.852,1.816,1.136,2.185-.062,.244-.501,.696-.952,1.108-.4,.376-.037,.976,.477,.895,.61,0,1.209-.189,1.685-.579,.502-.406,.79-.712,.79-1.424l-.894-2.045c-.132-.296,.152-.6,.444-.517,.283,.075,.621,.234,.95,.563q1,1,1,2c.002,.359,.541,.824,.952,.806,.349,0,.686-.216,.809-.581l.076-.225s1.664-.768,1.664-2.768c0-1,.716-1.032,1.394-1.264s1.83-.442,1.83-.442c.336-.07,.78-.031,.775,.706-.007,.318-.15,1.563-.5,2.268-.208,.419-1.321,.497-1.99,.506-.578-.033-.906,.576-1.174,.99-.219,.329-.336,.715-.336,1.109v.894c0,.552,.448,1,1,1h1c.882,0,1.574-.262,2.303-1.05,.168-.027,1.75-.217,2.79-.342,.95-.081,1.239-1.442,.413-1.908-.687-.41-1.515-.701-1.515-.701v-1l.52-.137c.878-.232,1.489-1.026,1.489-1.934V4c0-1.105-.895-2-2-2-.944,0-1.833,.445-2.4,1.2-.218,.335-.56,.735-.907,1.103-.419,.445-1.002,.697-1.613,.697h-1.08v-1s2-1,2-2.487c0,0,0-.513-.5-.513-.4,0-3.105,0-3.105,0Z"/>
</svg>
