<?xml version="1.0" encoding="UTF-8"?>
<svg xmlns="http://www.w3.org/2000/svg" id="Layer_1" data-name="Layer 1" viewBox="0 0 24 24">
  <path d="m5.659,15s7.112-8.87,7.341-9.309v3.871c0,2.998-2.376,5.438-5.298,5.438h-2.043ZM22,3.524v-.024c.017-1.342-.717-2.628-1.947-3.165-2.57-1.121-5.052.732-5.052,3.165v6.062c0,4.101-3.274,7.438-7.298,7.438h-3.641L.219,21.851c-.345.431-.274,1.061.157,1.405h0c.431.345,1.06.274,1.405-.157l1.643-2.099h5.438l1.224,2.447c.169.339.516.553.895.553h0c.743,0,1.227-.782.895-1.447l-.808-1.615c.855-.093,1.684-.29,2.476-.576l1.543,3.085c.169.339.516.553.895.553h0c.743,0,1.227-.782.895-1.447l-1.52-3.039c3.341-1.949,5.645-5.604,5.645-9.685,0,0,.002-2.795.005-2.828h2.297c.422,0,.762-.38.687-.796-.253-1.398-1.212-2.219-1.99-2.68Z"/>
</svg>
