<?xml version="1.0" encoding="UTF-8"?>
<svg xmlns="http://www.w3.org/2000/svg" id="Layer_1" data-name="Layer 1" viewBox="0 0 24 24">
  <path d="m22.389,13.611h0c-1.039-1.039-2.42-1.611-3.889-1.611s-2.85.572-3.889,1.611c-2.145,2.145-2.145,5.634.008,7.786l1.833,1.792c.565.553,1.307.829,2.049.829s1.484-.276,2.049-.829l1.84-1.8c2.145-2.145,2.145-5.634,0-7.778Zm-3.889,5.383c-.828,0-1.5-.672-1.5-1.5s.672-1.5,1.5-1.5,1.5.672,1.5,1.5-.672,1.5-1.5,1.5Zm-7.337.006h-1.163c-.552,0-1-.448-1-1s.448-1,1-1h1c.011,0,.02.006.031.006.047-.733.2-1.459.461-2.154-.147.086-.309.148-.492.148h-1c-.552,0-1-.448-1-1s.448-1,1-1h1c.493,0,.884.363.966.833.328-.585.733-1.139,1.231-1.636.804-.804,1.762-1.395,2.803-1.763v-5.434c0-2.757-2.243-5-5-5h-6C2.243,0,0,2.243,0,5v14c0,2.757,2.243,5,5,5h6c.969,0,1.867-.289,2.634-.768l-.414-.405c-1.089-1.089-1.772-2.426-2.057-3.827Zm-1.163-14h1c.552,0,1,.448,1,1s-.448,1-1,1h-1c-.552,0-1-.448-1-1s.448-1,1-1Zm0,4h1c.552,0,1,.448,1,1s-.448,1-1,1h-1c-.552,0-1-.448-1-1s.448-1,1-1Zm-4,10h-1c-.552,0-1-.448-1-1s.448-1,1-1h1c.552,0,1,.448,1,1s-.448,1-1,1Zm0-4h-1c-.552,0-1-.448-1-1s.448-1,1-1h1c.552,0,1,.448,1,1s-.448,1-1,1Zm0-4h-1c-.552,0-1-.448-1-1s.448-1,1-1h1c.552,0,1,.448,1,1s-.448,1-1,1Zm0-4h-1c-.552,0-1-.448-1-1s.448-1,1-1h1c.552,0,1,.448,1,1s-.448,1-1,1Z"/>
</svg>
