<?xml version="1.0" encoding="UTF-8"?>
<svg xmlns="http://www.w3.org/2000/svg" id="Layer_1" data-name="Layer 1" viewBox="0 0 24 24">
  <path d="M2.001,4l.003,19c0,.552-.448,1-1,1h0C.452,24,.004,23.552,.004,23L0,1C0,.448,.448,0,1,0s1,.448,1,1v1H6.004c.552,0,1,.448,1,1s-.448,1-1,1H2.001Zm8.003,1c.552,0,1-.448,1-1v-1c0-.552-.448-1-1-1s-1,.448-1,1v1c0,.552,.448,1,1,1Zm5,0c.552,0,1-.448,1-1v-1c0-.552-.448-1-1-1s-1,.448-1,1v1c0,.552,.448,1,1,1Zm-5,12v-3c-1.105,0-2-.895-2-2v-1c0-1.581,.561-2.961,1.518-4h-1.113c-2.635,0-4.405,1.607-4.405,4,0,0-.008,1,.996,1h1.004v5c0,1.105,.895,2,2,2h2.556c-.345-.591-.556-1.268-.556-2Zm6-9.968h-2c-2.404,.161-4,1.704-4,3.968,0,0-.008,1,.996,1h1.004v5c0,1.105,.895,2,2,2h2c1.105,0,2-.895,2-2v-5s-.004,0,.996,0,1.004-1,1.004-1c0-2.265-1.596-3.808-4-3.968ZM24.004,1c0-.552-.448-1-1-1h0c-.552,0-1,.448-1,1v1s-3,0-3,0c-.552,0-1,.448-1,1s.448,1,1,1h3.001l.003,19c0,.552,.448,1,1,1s1-.448,1-1l-.004-22Z"/>
</svg>
