<?xml version="1.0" encoding="UTF-8"?>
<svg xmlns="http://www.w3.org/2000/svg" id="Layer_1" data-name="Layer 1" viewBox="0 0 24 24">
  <path d="m9.272,4.186c-.378-.402-.36-1.035.042-1.414l2.381-2.244c.709-.711,1.899-.71,2.63.021l2.36,2.223c.402.379.421,1.012.042,1.414-.197.209-.462.314-.728.314-.246,0-.493-.09-.686-.272l-1.314-1.238v5.01c0,.552-.448,1-1,1s-1-.448-1-1V2.989l-1.314,1.239c-.401.377-1.035.361-1.414-.042ZM1.686,6.228l1.314-1.239v3.011c0,.552.448,1,1,1s1-.448,1-1v-3.01l1.314,1.238c.193.182.439.272.686.272.266,0,.531-.105.728-.314.378-.402.36-1.035-.042-1.414l-2.36-2.223c-.732-.731-1.92-.732-2.63-.021L.314,4.772c-.402.379-.421,1.012-.042,1.414.379.403,1.013.42,1.414.042Zm21.466,2.453c-.515-.469-1.186-.712-1.878-.678-.697.032-1.339.334-1.794.835l-3.541,3.737c.032.21.065.42.065.638,0,2.083-1.555,3.876-3.617,4.17l-4.252.596c-.547.078-1.053-.302-1.131-.848-.078-.547.302-1.053.848-1.131l4.162-.583c.936-.134,1.748-.806,1.94-1.732.296-1.425-.79-2.685-2.164-2.685h-7.787C1.794,11,.003,12.791.003,15v5C.003,22.209,1.794,24,4.003,24h4.262c2.805,0,5.48-1.178,7.374-3.246l7.702-8.409c.948-1.062.862-2.707-.189-3.665Z"/>
</svg>
