<?xml version="1.0" encoding="UTF-8"?>
<svg xmlns="http://www.w3.org/2000/svg" id="Layer_1" data-name="Layer 1" viewBox="0 0 24 24">
  <path d="M8.151,14c.983,0,1.92,.359,2.646,1h2.404c.726-.641,1.664-1,2.646-1h5.151c.344,0,.677,.043,1,.11v-6.11c0-2.757-2.243-5-5-5H7c-2.757,0-5,2.243-5,5v6.11c.323-.067,.656-.11,1-.11h5.151Zm6.349-7.216c0-.433,.351-.784,.784-.784,.303,0,.579,.175,.708,.449l1.228,2.598v-2.407c0-.353,.287-.64,.64-.64h0c.353,0,.64,.286,.64,.64v4.576c0,.433-.351,.784-.784,.784h0c-.303,0-.579-.174-.708-.448l-1.228-2.592v2.401c0,.353-.287,.64-.64,.64h0c-.353,0-.64-.287-.64-.64V6.784Zm-4-.159c0-.345,.28-.625,.625-.625h.842c1.109,0,2.012,.891,2.012,1.985s-.902,1.985-2.012,1.985l-.217,.003v1.402c0,.345-.28,.625-.625,.625s-.625-.28-.625-.625V6.625Zm-4.235-.625h.041c.294,0,.547,.206,.606,.494l.838,4.057,.838-4.057c.059-.287,.312-.494,.606-.494,.391,0,.684,.359,.606,.742l-.83,4.077c-.094,.485-.364,.881-.721,1.059-.347,.175-.737,.162-1.069-.042-.328-.201-.564-.564-.645-.984l-.876-4.104c-.082-.385,.211-.748,.605-.748Zm5.492,2.723l-.005-1.473h.215c.413,0,.762,.336,.762,.735s-.349,.735-.762,.735l-.21,.003Zm12.243,9.777c0,1.381-1.119,2.5-2.5,2.5H2.5c-1.381,0-2.5-1.119-2.5-2.5s1.119-2.5,2.5-2.5h5.651c.734-.017,1.357,.425,1.774,1h4.149c.417-.575,1.039-1.017,1.774-1h5.652c1.381,0,2.5,1.119,2.5,2.5Z"/>
</svg>
