<?xml version="1.0" encoding="UTF-8"?>
<svg xmlns="http://www.w3.org/2000/svg" id="Layer_1" data-name="Layer 1" viewBox="0 0 24 24">
  <path d="m7,10H3c-1.657,0-3,1.343-3,3v8c0,1.657,1.343,3,3,3h4c1.657,0,3-1.343,3-3v-8c0-1.657-1.343-3-3-3Zm-3.5,11h-.5c-.552,0-1-.448-1-1s.448-1,1-1h.5c.552,0,1,.448,1,1s-.448,1-1,1Zm0-3h-.5c-.552,0-1-.448-1-1s.448-1,1-1h.5c.552,0,1,.448,1,1s-.448,1-1,1Zm3.5,3h-.5c-.552,0-1-.448-1-1s.448-1,1-1h.5c.552,0,1,.448,1,1s-.448,1-1,1Zm0-3h-.5c-.552,0-1-.448-1-1s.448-1,1-1h.5c.552,0,1,.448,1,1s-.448,1-1,1Zm0-3H3c-.552,0-1-.448-1-1s.448-1,1-1h4c.552,0,1,.448,1,1s-.448,1-1,1ZM24,3c0,.552-.448,1-1,1h-12c-.552,0-1-.448-1-1v-.5c0-.924-.28-1.784-.76-2.5h11.76c1.657,0,3,1.343,3,3Zm-3,3v14c0,2.209-1.791,4-4,4h-6.003c.629-.836,1.003-1.875,1.003-3v-8c0-2.757-2.243-5-5-5H3V2.643C3,1.335,3.941.143,5.242.013c1.496-.15,2.758,1.021,2.758,2.487v.5c0,1.657,1.343,3,3,3h10Z"/>
</svg>
