<?xml version="1.0" encoding="UTF-8"?>
<svg xmlns="http://www.w3.org/2000/svg" id="Layer_1" data-name="Layer 1" viewBox="0 0 24 24">
  <path d="M24,19c0,.553-.447,1-1,1h-4c-.553,0-1-.447-1-1s.447-1,1-1h4c.553,0,1,.447,1,1Zm-9-3c-.553,0-1,.447-1,1v1H1c-.552,0-1,.447-1,1s.448,1,1,1H14v1c0,.553,.447,1,1,1s1-.447,1-1v-4c0-.553-.447-1-1-1Zm-3-8c0-3.314,2.686-6,6-6s6,2.686,6,6-2.686,6-6,6-6-2.686-6-6Zm7-1.5c0,.828,.672,1.5,1.5,1.5s1.5-.672,1.5-1.5-.672-1.5-1.5-1.5-1.5,.672-1.5,1.5Zm-2.061,3.061c-.391-.391-1.023-.391-1.414,0s-.391,1.023,0,1.414c.661,.661,1.54,1.025,2.475,1.025s1.813-.364,2.475-1.025c.391-.391,.391-1.023,0-1.414s-1.023-.391-1.414,0c-.566,.566-1.555,.566-2.121,0Zm-2.939-3.061c0,.828,.672,1.5,1.5,1.5s1.5-.672,1.5-1.5-.672-1.5-1.5-1.5-1.5,.672-1.5,1.5ZM0,8C0,4.686,2.686,2,6,2s6,2.686,6,6-2.686,6-6,6S0,11.314,0,8Zm7-1.5c0,.828,.672,1.5,1.5,1.5s1.5-.672,1.5-1.5-.672-1.5-1.5-1.5-1.5,.672-1.5,1.5Zm.061,4.939c.391,.391,1.023,.391,1.414,0s.391-1.023,0-1.414c-.661-.661-1.54-1.025-2.475-1.025s-1.813,.364-2.475,1.025c-.391,.391-.391,1.023,0,1.414s1.023,.391,1.414,0c.566-.566,1.555-.566,2.121,0ZM2,6.5c0,.828,.672,1.5,1.5,1.5s1.5-.672,1.5-1.5-.672-1.5-1.5-1.5-1.5,.672-1.5,1.5Z"/>
</svg>
