<?xml version="1.0" encoding="UTF-8"?>
<svg xmlns="http://www.w3.org/2000/svg" id="Layer_1" data-name="Layer 1" viewBox="0 0 24 24">
  <path d="m10.262,16h-2.144c-.379,0-.725.214-.894.553l-.714,1.428c-.443.736-1.102,1.269-1.927,1.269-.458,0-1.142-.225-1.707-.842C.561,15.876-.44,12.404.18,8.975.873,5.149,3.628,1.9,7.3.622c3.872-1.348,8.091-.453,11.029,2.174,2.333,2.086,3.671,5.076,3.671,8.203,0,.026-.003.052-.004.078-1.177-.681-2.539-1.077-3.996-1.077-2.024,0-3.867.757-5.276,1.997.171-.294.276-.632.276-.997,0-.74-.402-1.386-1-1.732v-4.27c0-.553-.448-1-1-1s-1,.447-1,1v4.27c-.598.346-1,.992-1,1.732,0,1.105.895,2,2,2,.365,0,.702-.105.997-.276-.815.927-1.416,2.043-1.734,3.276Zm7.738-4c-3.308,0-6,2.692-6,6s2.692,6,6,6,6-2.692,6-6-2.692-6-6-6Zm2.772,7.425l-1.269,2.538c-.246.492-.845.692-1.337.446l-.005-.002c-.493-.246-.693-.845-.447-1.338l1.034-2.069h-2.134c-.509,0-.993-.244-1.297-.652-.303-.409-.396-.943-.249-1.43l1.578-2.931c.261-.485.867-.667,1.352-.405h0c.486.262.666.87.402,1.355l-1.126,2.063h2.121c.592,0,1.133.324,1.412.845.269.499.253,1.098-.035,1.581Z"/>
</svg>
