<?xml version="1.0" encoding="UTF-8"?>
<svg xmlns="http://www.w3.org/2000/svg" id="Layer_1" data-name="Layer 1" viewBox="0 0 24 24">
  <path d="m1,6C1,3.243,3.243,1,6,1s5,2.243,5,5-2.243,5-5,5S1,8.757,1,6Zm22-2.408V1c0-.265-.105-.52-.293-.707s-.442-.293-.707-.293c-.446,0-.972.295-1.095.724-.236.823-.913,1.276-1.905,1.276h-2c-1.654,0-3,1.346-3,3,0,.695.247,1.327.645,1.836l1.773,4.112-1.674,1.745c-.188.195-.451.308-.722.308H6c-3.314,0-6,2.686-6,6v4c0,.552.448,1,1,1h9c.552,0,1-.448,1-1v-7l4.184-1.237c.375-.157.718-.389,1.003-.686,0,0,2.584-2.719,2.584-2.719,0,0,0-.001,0-.001.152-.193.233-.422.223-.654.019-.231-.02-.466-.117-.686l-.79-2.016h.912c.992,0,1.669.453,1.905,1.276.123.429.648.724,1.094.724.552,0,1-.448,1-1v-2.592c.581-.207,1.001-.757,1.001-1.408s-.419-1.201-1-1.408Z"/>
</svg>
