<?xml version="1.0" encoding="UTF-8"?>
<svg xmlns="http://www.w3.org/2000/svg" id="Layer_1" data-name="Layer 1" viewBox="0 0 24 24">
  <path d="m8.942,20c.034.162.058.328.058.5,0,1.381-1.119,2.5-2.5,2.5s-2.5-1.119-2.5-2.5c0-.172.024-.338.058-.5h4.885Zm-4.942-2c-2.209,0-4-1.791-4-4V6C0,3.239,2.239,1,5,1h5c2.761,0,5,2.239,5,5v12H4Zm-.707-7.192l1.402,1.402c.562.562,1.3.843,2.039.843s1.485-.284,2.054-.852l2.928-3.003c.386-.396.378-1.029-.018-1.415-.394-.384-1.028-.377-1.414.018l-2.919,2.995c-.346.346-.91.346-1.256,0l-1.402-1.402c-.391-.391-1.023-.391-1.414,0s-.391,1.023,0,1.414Zm13.707,7.192h3c2.209,0,4-1.791,4-4v-1h-7v5Zm2-13h-2v6h7v-1c0-2.761-2.239-5-5-5Zm-3.942,15c-.034.162-.058.328-.058.5,0,1.381,1.119,2.5,2.5,2.5s2.5-1.119,2.5-2.5c0-.172-.024-.338-.058-.5h-4.885Z"/>
</svg>
