<?xml version="1.0" encoding="UTF-8"?>
<svg xmlns="http://www.w3.org/2000/svg" id="Layer_1" data-name="Layer 1" viewBox="0 0 24 24">
  <path d="m18,0c-3.309,0-6,2.691-6,6s2.691,6,6,6,6-2.691,6-6S21.309,0,18,0Zm2.207,8.207c-.195.195-.451.293-.707.293s-.512-.098-.707-.293l-1.5-1.5c-.188-.188-.293-.442-.293-.707v-2.5c0-.552.448-1,1-1s1,.448,1,1v2.086l1.207,1.207c.391.391.391,1.023,0,1.414Zm.45,6.654c-1.193-1.142-3.089-1.138-4.28.006l-1.906,1.606c-3.199-1.357-5.474-3.637-6.932-6.945l1.601-1.898c1.146-1.192,1.147-3.085.006-4.28,0,0-1.853-2.408-1.883-2.439-1.206-1.205-3.171-1.205-4.328-.046l-1.148,1.004C.635,3.016.001,4.57.001,6.243.001,13.878,10.127,24.004,17.763,24.004c1.673,0,3.227-.634,4.421-1.833l.912-1.05c1.205-1.207,1.205-3.171,0-4.378-.031-.03-2.439-1.883-2.439-1.883Z"/>
</svg>
