<?xml version="1.0" encoding="UTF-8"?>
<svg xmlns="http://www.w3.org/2000/svg" id="Layer_1" data-name="Layer 1" viewBox="0 0 24 24">
  <path d="m18,12c-3.314,0-6,2.686-6,6s2.686,6,6,6,6-2.686,6-6-2.686-6-6-6Zm2.998,7.242l-1.5,1.5c-.168.168-.393.257-.621.257-.113,0-.227-.021-.336-.067-.328-.136-.541-.456-.541-.812v-1.121h-3c-.552,0-1-.447-1-1s.448-1,1-1h3v-1.121c0-.355.213-.676.541-.812.329-.138.706-.062.957.19l1.5,1.5c.685.685.685,1.8,0,2.485Zm-10.998-1.242c0-1.062.211-2.073.587-3h-.587c-.552,0-1-.448-1-1s.448-1,1-1h1c.23,0,.434.085.598.217,1.074-1.435,2.615-2.494,4.402-2.955v-5.262c0-2.757-2.243-5-5-5h-6C2.243,0,0,2.243,0,5v14c0,2.757,2.243,5,5,5h6c.512,0,1.002-.085,1.466-.232-1.517-1.456-2.466-3.5-2.466-5.768Zm0-13h1c.552,0,1,.448,1,1s-.448,1-1,1h-1c-.552,0-1-.448-1-1s.448-1,1-1Zm0,4h1c.552,0,1,.448,1,1s-.448,1-1,1h-1c-.552,0-1-.448-1-1s.448-1,1-1Zm-4,10h-1c-.552,0-1-.448-1-1s.448-1,1-1h1c.552,0,1,.448,1,1s-.448,1-1,1Zm0-4h-1c-.552,0-1-.448-1-1s.448-1,1-1h1c.552,0,1,.448,1,1s-.448,1-1,1Zm0-4h-1c-.552,0-1-.448-1-1s.448-1,1-1h1c.552,0,1,.448,1,1s-.448,1-1,1Zm0-4h-1c-.552,0-1-.448-1-1s.448-1,1-1h1c.552,0,1,.448,1,1s-.448,1-1,1Z"/>
</svg>
