<?xml version="1.0" encoding="UTF-8"?>
<svg xmlns="http://www.w3.org/2000/svg" id="Layer_1" data-name="Layer 1" viewBox="0 0 24 24">
  <path d="m22.409,1.406c-1.992-1.893-5.188-1.698-7.131.245l-1.079,1.079,2.614,2.614c.391.39.391,1.024,0,1.414s-1.024.391-1.414,0l-2.614-2.614-2.288,2.288,2.614,2.614c.39.39.39,1.024,0,1.414-.391.391-1.024.391-1.414,0l-2.614-2.614-2.227,2.227,2.614,2.614c.391.39.391,1.024,0,1.414s-1.024.391-1.414,0l-2.614-2.614-1.247,1.247c-1.598,1.597-1.281,5.221-1.067,6.724l-2.835,2.835c-.391.39-.391,1.024,0,1.414H.293c.391.391,1.024.391,1.414,0l2.836-2.835c.572.082,1.448.178,2.407.178,1.559,0,3.327-.255,4.316-1.245,0,0,8.435-8.435,11.085-11.085.853-.853,1.463-1.947,1.588-3.147.164-1.578-.397-3.089-1.53-4.166Z"/>
</svg>
