<?xml version="1.0" encoding="UTF-8"?>
<svg xmlns="http://www.w3.org/2000/svg" id="Layer_1" data-name="Layer 1" viewBox="0 0 24 24">
  <path d="M10.513,1.5c0-.828,.672-1.5,1.5-1.5s1.5,.672,1.5,1.5-.672,1.5-1.5,1.5-1.5-.672-1.5-1.5Zm1.487,22.5c.828,0,1.5-.672,1.5-1.5s-.672-1.5-1.5-1.5-1.5,.672-1.5,1.5,.672,1.5,1.5,1.5Zm9.006-11.994c0,.828,.672,1.5,1.5,1.5s1.5-.672,1.5-1.5-.672-1.5-1.5-1.5-1.5,.672-1.5,1.5ZM.006,11.994c0,.828,.672,1.5,1.5,1.5s1.5-.672,1.5-1.5-.672-1.5-1.5-1.5S.006,11.165,.006,11.994Zm19.728,4.62c-.424,.712-.191,1.632,.52,2.056s1.632,.191,2.056-.52,.191-1.632-.52-2.056-1.632-.191-2.056,.52ZM1.702,5.85c-.424,.712-.191,1.632,.52,2.056s1.632,.191,2.056-.52,.191-1.632-.52-2.056-1.632-.191-2.056,.52ZM7.913,2.216c-.424-.712-1.345-.945-2.056-.52s-.945,1.345-.52,2.056,1.345,.945,2.056,.52,.945-1.345,.52-2.056Zm10.763,18.032c-.424-.712-1.345-.945-2.056-.52s-.945,1.345-.52,2.056,1.345,.945,2.056,.52,.945-1.345,.52-2.056ZM2.222,16.093c-.712,.424-.945,1.345-.52,2.056s1.345,.945,2.056,.52,.945-1.345,.52-2.056-1.345-.945-2.056-.52ZM20.254,5.33c-.712,.424-.945,1.345-.52,2.056s1.345,.945,2.056,.52,.945-1.345,.52-2.056-1.345-.945-2.056-.52Zm-3.634-1.057c.712,.424,1.632,.191,2.056-.52s.191-1.632-.52-2.056-1.632-.191-2.056,.52-.191,1.632,.52,2.056ZM5.857,22.304c.712,.424,1.632,.191,2.056-.52s.191-1.632-.52-2.056-1.632-.191-2.056,.52-.191,1.632,.52,2.056Zm11.343-14.304c-.442,0-.8,.358-.8,.8v4.7c0,.496-.404,.9-.9,.9s-.9-.404-.9-.9v-4.7c0-.442-.358-.8-.8-.8h0c-.442,0-.8,.358-.8,.8v4.557c0,1.308,.941,2.499,2.242,2.63,1.496,.15,2.758-1.021,2.758-2.487v-4.7c0-.442-.358-.8-.8-.8h0Zm-6.2,.8h0c0-.442-.358-.8-.8-.8h-2.7c-.552,0-1,.448-1,1v6c0,.552,.448,1,1,1h2.7c.442,0,.8-.358,.8-.8h0c0-.442-.358-.8-.8-.8h-2.101v-1.601h2.101c.442,0,.8-.358,.8-.8h0c0-.442-.358-.8-.8-.8h-2.101v-1.601h2.101c.442,0,.8-.358,.8-.8Z"/>
</svg>
