<?xml version="1.0" encoding="UTF-8"?>
<svg xmlns="http://www.w3.org/2000/svg" id="Layer_1" data-name="Layer 1" viewBox="0 0 24 24">
  <path d="m12.129,14.088c1.272,1.473,1.371,2.219,1.371,2.412,0,.827-.673,1.5-1.5,1.5s-1.5-.673-1.5-1.5c0-.193.099-.939,1.371-2.411.043-.05.094-.061.129-.061s.086.011.129.06Zm7.871-1.38v6.292c0,2.757-2.243,5-5,5h-6c-2.757,0-5-2.243-5-5v-6.292c0-2.057,1.233-3.879,3.144-4.643l1.856-.742V2c-.553,0-1-.447-1-1s.447-1,1-1h6c.553,0,1,.447,1,1s-.447,1-1,1v5.323l1.856.742c1.91.764,3.144,2.586,3.144,4.643Zm-4.5,3.792c0-1.041-.625-2.292-1.857-3.72-.828-.955-2.457-.956-3.285,0-1.232,1.427-1.857,2.678-1.857,3.719,0,1.93,1.57,3.5,3.5,3.5s3.5-1.57,3.5-3.5Z"/>
</svg>
