<?xml version="1.0" encoding="UTF-8"?>
<svg xmlns="http://www.w3.org/2000/svg" id="Layer_1" data-name="Layer 1" viewBox="0 0 24 24">
  <path d="M0,8v-1C0,4.243,2.243,2,5,2h1V1c0-.552,.447-1,1-1s1,.448,1,1v1h8V1c0-.552,.447-1,1-1s1,.448,1,1v1h1c2.757,0,5,2.243,5,5v1H0Zm24,2v9c0,2.757-2.243,5-5,5H5c-2.757,0-5-2.243-5-5V10H24Zm-8.553,8c-.359,0-.685,.195-.866,.505-.518,.892-1.477,1.495-2.581,1.495-.567,0-1.107-.171-1.575-.461l.374-.374c.43-.43,.125-1.165-.483-1.165h-2.695c-.343,0-.621,.278-.621,.62v2.695c0,.608,.735,.913,1.165,.483l.816-.816c.857,.648,1.914,1.018,3.018,1.018,1.834,0,3.441-.993,4.311-2.47,.398-.675-.08-1.53-.864-1.53Zm1.553-5.316c0-.608-.735-.913-1.165-.483l-.817,.817c-.857-.648-1.914-1.018-3.018-1.018-1.834,0-3.441,.993-4.311,2.47-.398,.675,.08,1.53,.864,1.53,.359,0,.685-.195,.866-.505,.518-.892,1.477-1.495,2.581-1.495,.567,0,1.107,.171,1.575,.461l-.374,.374c-.43,.43-.125,1.166,.483,1.166h2.695c.343,0,.621-.278,.621-.621v-2.695Z"/>
</svg>
