<?xml version="1.0" encoding="UTF-8"?>
<svg xmlns="http://www.w3.org/2000/svg" id="Layer_1" data-name="Layer 1" viewBox="0 0 24 24">
  <path d="m7.86,13.924c.365-.383.719-.815.993-1.276.431-.727-.14-1.648-.982-1.648h-3.741c-.843,0-1.413.921-.982,1.648.273.461.628.894.993,1.276-2.366,1.086-4.14,4.061-4.14,6.587,0,1.923,1.57,3.488,3.5,3.488h5c1.93,0,3.5-1.565,3.5-3.488,0-2.527-1.775-5.501-4.14-6.587Zm3.14-7.924h10v14c0,2.209-1.791,4-4,4h-4.257c.785-.949,1.257-2.165,1.257-3.488,0-2.597-1.329-5.316-3.302-7.076.439-.906.405-1.952-.105-2.848-.558-.979-1.601-1.588-2.722-1.588h-3.74c-.392,0-.774.075-1.13.213V2.643C3,1.335,3.941.143,5.242.013c1.496-.15,2.758,1.021,2.758,2.487v.5c0,1.657,1.343,3,3,3Zm13-3c0,.552-.448,1-1,1h-12c-.552,0-1-.448-1-1v-.5c0-.924-.28-1.784-.76-2.5h11.76c1.657,0,3,1.343,3,3Z"/>
</svg>
