<?xml version="1.0" encoding="UTF-8"?>
<svg xmlns="http://www.w3.org/2000/svg" id="Layer_1" data-name="Layer 1" viewBox="0 0 24 24">
  <path d="m5.5,7c1.93,0,3.5-1.57,3.5-3.5S7.43,0,5.5,0s-3.5,1.57-3.5,3.5,1.57,3.5,3.5,3.5Zm12,10c2.481,0,4.5-2.019,4.5-4.5s-2.019-4.5-4.5-4.5-4.5,2.019-4.5,4.5,2.019,4.5,4.5,4.5Zm-9.067,1.607c.76.762.76,2.023-.013,2.798l-2.199,2.288c-.196.204-.458.307-.721.307-.25,0-.499-.093-.693-.279-.398-.383-.411-1.016-.028-1.414l1.256-1.307h-2.035c-2.206,0-4-1.794-4-4v-1c0-.553.448-1,1-1s1,.447,1,1v1c0,1.103.897,2,2,2h2.029l-1.25-1.307c-.383-.398-.371-1.031.028-1.414.398-.382,1.031-.371,1.414.027l2.212,2.301Zm15.526,4.11c-.816-2.777-3.473-4.718-6.459-4.718s-5.643,1.94-6.459,4.718c-.089.303-.03.629.159.882.189.252.486.4.801.4h11c.315,0,.612-.148.801-.4.188-.253.247-.579.158-.882ZM5.5,8c-2.434,0-4.618,1.467-5.437,3.649-.115.307-.072.65.115.92.187.27.494.431.822.431h9c.328,0,.635-.161.822-.431.187-.27.229-.613.115-.92-.818-2.183-3.003-3.649-5.437-3.649Z"/>
</svg>
