<?xml version="1.0" encoding="UTF-8"?>
<svg xmlns="http://www.w3.org/2000/svg" id="Layer_1" data-name="Layer 1" viewBox="0 0 24 24">
  <path d="M20.5,0h-5c-1.933,0-3.5,1.567-3.5,3.5V7.5c0,1.933,1.567,3.5,3.5,3.5h2.697l2.463,1.642c.36,.24,.775,.361,1.192,.361,.347,0,.695-.084,1.013-.254,.7-.375,1.135-1.1,1.135-1.894V3.5c0-1.933-1.567-3.5-3.5-3.5ZM.307,6.221c-.398-.383-.411-1.016-.028-1.414,.384-.399,1.017-.41,1.414-.028l1.307,1.257V3c0-1.654,1.346-3,3-3h3c.552,0,1,.448,1,1s-.448,1-1,1h-3c-.551,0-1,.449-1,1v3.029l1.307-1.25c.398-.382,1.03-.371,1.414,.028,.383,.398,.371,1.031-.028,1.414l-2.301,2.212c-.379,.379-.882,.569-1.387,.569-.51,0-1.021-.194-1.411-.583L.307,6.221Zm23.386,11.559c.398,.383,.411,1.016,.028,1.414-.196,.205-.458,.307-.721,.307-.25,0-.499-.093-.693-.279l-1.307-1.257v3.036c0,1.654-1.346,3-3,3h-3c-.552,0-1-.448-1-1s.448-1,1-1h3c.551,0,1-.449,1-1v-3.029l-1.307,1.25c-.397,.383-1.03,.372-1.414-.028-.383-.398-.371-1.031,.028-1.414l2.301-2.212c.761-.761,2.024-.76,2.798,.013l2.287,2.199Zm-15.193-6.779H3.5c-1.933,0-3.5,1.567-3.5,3.5v7.355c0,.794,.435,1.52,1.135,1.894,.318,.17,.666,.254,1.013,.254,.417,0,.832-.121,1.191-.361l2.463-1.642h2.697c1.933,0,3.5-1.567,3.5-3.5v-4c0-1.933-1.567-3.5-3.5-3.5Z"/>
</svg>
