<?xml version="1.0" encoding="UTF-8"?>
<svg xmlns="http://www.w3.org/2000/svg" id="Layer_1" data-name="Layer 1" viewBox="0 0 24 24">
  <path d="m22.5,6.5c-.317,0-.611.099-.854.267-.633-.636-1.367-1.341-2.186-1.88.866-.757,1.504-1.637,1.504-3.063-.086-.465-.475-.824-.964-.824-.552,0-1,.448-1,1-.212,1.596-1.171,1.878-2.238,1.987-1.495.153-2.762-1.021-2.762-2.487v-.5c0-.552-.448-1-1-1s-1,.448-1,1v.5c0,.924.28,1.784.76,2.5h-1.26c-1.381,0-2.5-1.119-2.5-2.5v-.5c0-.552-.448-1-1-1s-1,.448-1,1v.5c0,2.485,2.015,4.5,4.5,4.5h2.074c-.464.942-.574,1.988-.574,2.586v.414s.023,1-.998,1h-5.833c-1.099,0-2.181.452-2.968,1.24-.061.061-2.924,3.069-2.924,3.069-.381.399-.367,1.032.033,1.414.193.185.442.276.69.276.264,0,.527-.104.723-.31l.312-.326c.105.823.311,1.63.624,2.399.152.373.288.715.341.885v3.245c0,.996.681,1.92,1.664,2.08,1.253.204,2.336-.758,2.336-1.973v-3h6v2.893c0,.996.681,1.92,1.664,2.08,1.253.204,2.336-.758,2.336-1.973v-3.115c.627-.746,2-2.695,2-5.485v-2.027l1.6-.219c.914-.115,1.638-.791,1.842-1.655-.005,0-.01,0,0,0,.828,0,1.558-.67,1.558-1.499s-.672-1.5-1.5-1.5Z"/>
</svg>
