<?xml version="1.0" encoding="UTF-8"?>
<svg xmlns="http://www.w3.org/2000/svg" id="Layer_1" data-name="Layer 1" viewBox="0 0 24 24">
  <path d="M0,6v-1C0,2.243,2.243,0,5,0h2.528c.463,0,.927,.109,1.341,.316l3.156,1.578c.138,.069,.293,.105,.447,.105h6.528c2.414,0,4.434,1.721,4.899,4H0Zm24,11.5v3c0,1.93-1.57,3.5-3.5,3.5h-5c-1.93,0-3.5-1.57-3.5-3.5v-3c0-1.733,1.269-3.166,2.925-3.442l.775-1.166c.371-.557,.996-.892,1.665-.892h1.268c.67,0,1.295,.335,1.665,.892l.775,1.166c1.656,.276,2.925,1.709,2.925,3.442Zm-4,1.5c0-1.105-.895-2-2-2s-2,.895-2,2,.895,2,2,2,2-.895,2-2Zm-10,1.5v-3c0-2.373,1.501-4.423,3.68-5.181l.355-.534c.744-1.118,1.989-1.785,3.331-1.785h1.268c1.342,0,2.587,.667,3.331,1.785l.355,.534c.625,.217,1.186,.551,1.68,.958v-5.277H0v9c0,2.757,2.243,5,5,5h5.213c-.136-.478-.213-.979-.213-1.5Z"/>
</svg>
