<?xml version="1.0" encoding="UTF-8"?>
<svg xmlns="http://www.w3.org/2000/svg" id="Layer_1" data-name="Layer 1" viewBox="0 0 24 24">
  <path d="m19,0H5C2.243,0,0,2.243,0,5v2h24v-2c0-2.757-2.243-5-5-5ZM4.5,5c-.828,0-1.5-.672-1.5-1.5s.672-1.5,1.5-1.5,1.5.672,1.5,1.5-.672,1.5-1.5,1.5Zm4,0c-.828,0-1.5-.672-1.5-1.5s.672-1.5,1.5-1.5,1.5.672,1.5,1.5-.672,1.5-1.5,1.5Zm-3.922,7.705l.638,3.295h-1.261l.624-3.295Zm6.422.595v3.4c0,.386-.314.7-.7.7s-.7,0-.7,0v-4.802s.314,0,.7,0,.7.314.7.7Zm13,5.7c0,1.654-1.346,3-3,3v1c0,.552-.448,1-1,1s-1-.448-1-1v-1h-.268c-1.068,0-2.063-.574-2.598-1.499-.276-.478-.113-1.089.365-1.366.477-.277,1.09-.113,1.366.365.178.308.511.5.867.5h2.268c.551,0,1-.448,1-1,0-.378-.271-.698-.644-.76l-3.042-.507c-1.341-.223-2.315-1.373-2.315-2.733,0-1.654,1.346-3,3-3v-1c0-.552.448-1,1-1s1,.448,1,1v1h.268c1.068,0,2.063.574,2.598,1.499.276.478.113,1.089-.365,1.366-.477.277-1.089.113-1.366-.365-.178-.308-.511-.5-.867-.5h-2.268c-.551,0-1,.448-1,1,0,.378.271.698.644.76l3.042.507c1.341.223,2.315,1.373,2.315,2.733Zm-6.938-8.609c.109-.529.361-1.004.709-1.391H0v8c0,2.757,2.243,5,5,5h9.756c-.123-.162-.25-.32-.353-.499-.705-1.22-.453-2.735.523-3.669-.585-.795-.926-1.777-.926-2.833,0-2.07,1.265-3.85,3.062-4.609Zm-10.598,8.608h-.01c-.347,0-.644-.249-.705-.591l-.157-.883h-2.006l-.166.889c-.063.339-.359.585-.704.585-.452,0-.791-.414-.702-.857l1.2-5.976c.103-.58.628-1.167,1.385-1.167s1.226.524,1.346,1.192l1.221,5.947c.091.444-.248.86-.701.86Zm6.135-2.299c0,1.27-1.03,2.3-2.3,2.3h-1.5c-.442,0-.8-.358-.8-.8v-6.4c0-.442.358-.8.8-.8h1.5c1.27,0,2.3,1.03,2.3,2.3v3.4Z"/>
</svg>
