<?xml version="1.0" encoding="UTF-8"?>
<svg xmlns="http://www.w3.org/2000/svg" id="Layer_1" data-name="Layer 1" viewBox="0 0 24 24">
  <path d="m19,1H5C2.243,1,0,3.243,0,6v8c0,2.757,2.243,5,5,5h6v2h-4c-.553,0-1,.447-1,1s.447,1,1,1h10c.553,0,1-.447,1-1s-.447-1-1-1h-4v-2h6c2.757,0,5-2.243,5-5V6c0-2.757-2.243-5-5-5ZM7.457,11.043c.391.391.391,1.023,0,1.414-.195.195-.451.293-.707.293s-.512-.098-.707-.293l-1.043-1.043-1.043,1.043c-.195.195-.451.293-.707.293s-.512-.098-.707-.293c-.391-.391-.391-1.023,0-1.414l1.043-1.043-1.043-1.043c-.391-.391-.391-1.023,0-1.414s1.023-.391,1.414,0l1.043,1.043,1.043-1.043c.391-.391,1.023-.391,1.414,0s.391,1.023,0,1.414l-1.043,1.043,1.043,1.043Zm7,0c.391.391.391,1.023,0,1.414-.195.195-.451.293-.707.293s-.512-.098-.707-.293l-1.043-1.043-1.043,1.043c-.195.195-.451.293-.707.293s-.512-.098-.707-.293c-.391-.391-.391-1.023,0-1.414l1.043-1.043-1.043-1.043c-.391-.391-.391-1.023,0-1.414s1.023-.391,1.414,0l1.043,1.043,1.043-1.043c.391-.391,1.023-.391,1.414,0s.391,1.023,0,1.414l-1.043,1.043,1.043,1.043Zm7-.032c.391.391.391,1.023,0,1.414-.195.195-.451.293-.707.293s-.512-.098-.707-.293l-1.043-1.043-1.043,1.043c-.195.195-.451.293-.707.293s-.512-.098-.707-.293c-.391-.391-.391-1.023,0-1.414l1.043-1.043-1.043-1.043c-.391-.391-.391-1.023,0-1.414s1.023-.391,1.414,0l1.043,1.043,1.043-1.043c.391-.391,1.023-.391,1.414,0s.391,1.023,0,1.414l-1.043,1.043,1.043,1.043Z"/>
</svg>
