<?xml version="1.0" encoding="UTF-8"?>
<svg xmlns="http://www.w3.org/2000/svg" id="Layer_1" data-name="Layer 1" viewBox="0 0 24 24">
  <path d="m23.89,3.869c-.381.611-1.144,1.122-1.89,1.336v4.478c0,2.046-1.533,3.316-4,3.316s-4-1.271-4-3.316v-4.522c-.782-.203-1.494-.656-1.89-1.293-.258-.414-.044-.96.431-1.072.57-.135,1.47-.315,2.511-.47.732-.807,1.775-1.327,2.948-1.327s2.216.52,2.948,1.327c1.041.155,1.941.335,2.511.47.475.113.689.658.431,1.072Zm-5.89,11.131c-3.589,0-6-2.137-6-5.316v-2.684l-.375-.329c-.62-.434-1.357-.671-2.125-.671-1.023,0-1.996.429-2.694,1.158-.345-.104-.701-.158-1.056-.158-2.048,0-3.719,1.651-3.75,3.692-1.21.637-2,1.898-2,3.308s.791,2.672,2,3.308c.027,1.785,1.308,3.272,3,3.617v1.076c0,1.105.895,2,2,2s2-.895,2-2v-.052c.166.023.33.052.5.052.768,0,1.505-.237,2.125-.671.62.434,1.357.671,2.125.671.433,0,.852-.092,1.25-.236v.236c0,1.105.895,2,2,2s2-.895,2-2v-1.319c1.305-.573,2.227-1.864,2.25-3.373,1.21-.636,2-1.897,2-3.308,0-.425-.088-.83-.223-1.215-1.025,1.388-2.797,2.215-5.027,2.215Z"/>
</svg>
