<?xml version="1.0" encoding="UTF-8"?>
<svg xmlns="http://www.w3.org/2000/svg" id="Layer_1" data-name="Layer 1" viewBox="0 0 24 24">
  <path d="m2.062,7h0C2.554,3.054,5.92,0,10,0h4c4.081,0,7.442,3.058,7.932,7.007-2.177.037-3.932,1.807-3.932,3.993v2H6v-2c0-2.188-1.758-3.966-3.938-4Zm19.602,2.027c-.983.16-1.664,1.083-1.664,2.08v7.893c0,.552-.448,1-1,1s-1-.448-1-1v-4H6v4c0,.552-.448,1-1,1s-1-.448-1-1v-7.893c0-.996-.681-1.92-1.664-2.08-1.253-.204-2.336.758-2.336,1.973v6.5c0,1.56.795,2.933,2,3.74v1.76c0,.552.448,1,1,1s1-.448,1-1v-1.05c.166.019.329.05.5.05h15c.171,0,.334-.032.5-.05v1.05c0,.552.448,1,1,1s1-.448,1-1v-1.76c1.205-.807,2-2.18,2-3.74v-6.5c0-1.215-1.083-2.176-2.336-1.973Z"/>
</svg>
