<?xml version="1.0" encoding="UTF-8"?>
<svg xmlns="http://www.w3.org/2000/svg" id="Layer_1" data-name="Layer 1" viewBox="0 0 24 24">
  <path d="M2.138,2.48c.558-.296,1.185-.48,1.862-.48h1v2.864L2.138,2.48Zm21.862,3.52v12c0,2.209-1.791,4-4,4H4c-2.209,0-4-1.791-4-4v-6H.702c.556,0,1.095-.195,1.522-.551l2.776-2.313v1.864c0,.552,.448,1,1,1s1-.448,1-1v-1.864l3.352,2.655c.409,.335,1.007,.297,1.37-.087,.404-.426,.359-1.107-.097-1.477l-2.861-2.228h2.237c.552,0,1-.448,1-1s-.448-1-1-1h-2.237l2.573-2.144c.421-.351,.664-.87,.664-1.418v-.438h8c2.209,0,4,1.791,4,4ZM7,18c0-.552-.448-1-1-1s-1,.448-1,1,.448,1,1,1,1-.448,1-1Zm8.5-6c.552,0,1-.448,1-1s-.448-1-1-1-1,.448-1,1,.448,1,1,1Zm1.5,6c0-.552-.448-1-1-1s-1,.448-1,1,.448,1,1,1,1-.448,1-1Zm2-4c0-.552-.448-1-1-1s-1,.448-1,1,.448,1,1,1,1-.448,1-1Zm0-6c0-.552-.448-1-1-1s-1,.448-1,1,.448,1,1,1,1-.448,1-1Zm2.5,3c0-.552-.448-1-1-1s-1,.448-1,1,.448,1,1,1,1-.448,1-1ZM0,8v2.698l3.237-2.698H0ZM.643,3.838c-.403,.624-.643,1.364-.643,2.162H3.237L.643,3.838Zm6.357-1.838v2.864l3.437-2.864h-3.437Z"/>
</svg>
