<?xml version="1.0" encoding="UTF-8"?>
<svg xmlns="http://www.w3.org/2000/svg" id="Layer_1" data-name="Layer 1" viewBox="0 0 24 24">
  <path d="m12,2.121h0c0-1.172-.95-2.121-2.121-2.121H2.121C.95,0,0,.95,0,2.121h0c0,.563.223,1.102.621,1.5l2.379,2.379h6l2.379-2.379c.398-.398.621-.937.621-1.5Zm-5.784,5.879l-3.216,2.954v-2.954h3.216Zm2.784,10.14v1.204c0,1.326-.527,2.597-1.464,3.535l-.829.829c-.195.195-.451.293-.707.293s-.512-.098-.707-.293l-.829-.829c-.101-.101-.178-.22-.269-.328l4.805-4.41Zm-6,.646l6-5.512v2.351l-5.731,5.265c-.162-.497-.269-1.013-.269-1.546v-.558Zm0-5.115l6-5.512v2.4l-6,5.512v-2.4Z"/>
  <path d="m23.477,17l-1.443-2.5c-.535-.925-1.53-1.5-2.598-1.5h-2.887c-1.068,0-2.063.575-2.599,1.5l-1.443,2.5c-.535.926-.535,2.075,0,3l1.443,2.5c.535.925,1.53,1.5,2.599,1.5h2.887c1.067,0,2.062-.575,2.598-1.5l1.443-2.5c.534-.926.534-2.075,0-3Zm-5.477,3.5c-1.105,0-2-.895-2-2s.895-2,2-2,2,.895,2,2-.895,2-2,2Z"/>
</svg>
