<?xml version="1.0" encoding="UTF-8"?>
<svg xmlns="http://www.w3.org/2000/svg" id="Layer_1" data-name="Layer 1" viewBox="0 0 24 24">
  <path d="m18,12c-3.314,0-6,2.686-6,6s2.686,6,6,6,6-2.686,6-6-2.686-6-6-6Zm3.683,5.712l-2.703,2.614c-.452.446-1.052.671-1.653.671s-1.203-.225-1.663-.674l-1.354-1.332c-.395-.387-.4-1.02-.014-1.414.386-.395,1.019-.401,1.414-.014l1.353,1.331c.144.142.38.139.522-.002l2.713-2.624c.397-.381,1.031-.37,1.414.029.382.398.369,1.031-.029,1.414Zm-10.741-5.712h1.771c-1.665,1.466-2.721,3.607-2.721,6,0,.703.1,1.381.27,2.031h-.05c-1.142.003-2.229.495-2.985,1.351l-1.715,1.942c-.38.43-.926.676-1.499.676h-1.013c-1.66,0-3.004-1.348-3-3.008l.017-6.199c.001-.426.127-.85.396-1.182.319-.395.613-.81.74-1.302l.77-2.982c.305-1.182,1.069-2.147,2.071-2.729l-.002,4.726c0,1.824,1.318,3.471,3.133,3.657,1.923.197,3.557-1.176,3.817-2.981ZM23.992,3v1.233c0,.494-.183.971-.513,1.338l-3.987,4.43h-8.49l.021-3.07c.004-.552-.441-1.003-.993-1.007-.552-.004-1.003.441-1.007.993l-.032,4.584c0,.827-.673,1.5-1.5,1.5s-1.5-.673-1.5-1.5v-5.495s.001,0,.001,0v-.007c.056-1.942,1.391-3.614,3.247-4.093l2.829-.602c.637-.136,1.244-.397,1.778-.765.502-.345,1.091-.538,1.7-.538h5.445c1.657,0,3,1.343,3,3Z"/>
</svg>
