<?xml version="1.0" encoding="UTF-8"?>
<svg xmlns="http://www.w3.org/2000/svg" id="Layer_1" data-name="Layer 1" viewBox="0 0 24 24">
  <path d="m17.192,15.985c.442,0,.8.358.8.8v4.916c0,1.348-1.164,2.427-2.539,2.288-1.197-.122-2.06-1.22-2.06-2.422v-4.781c0-.442.358-.8.8-.8h0c.442,0,.8.358.8.8v4.916c0,.386.314.7.7.7s.7-.314.7-.7v-4.916c0-.442.358-.8.8-.8h0Zm6.008,0c-.442,0-.8.358-.8.8v3.263l-1.543-3.49c-.156-.353-.506-.579-.891-.578h0c-.534.003-.965.436-.965.97v6.235c0,.442.358.8.8.8h0c.442,0,.8-.358.8-.8v-3.254l1.544,3.478c.156.35.503.576.886.576h0c.535,0,.97-.434.97-.97v-6.23c0-.442-.358-.8-.8-.8h0Zm-12.219,3.338c-.56-.228-1.084-.467-1.366-.595-.099-.045-.428-.173-.433-.615-.002-.131.103-.441.515-.577.436-.141.848-.042,1.156.096.292.131.636.037.831-.216l.011-.014c.28-.362.167-.89-.238-1.095-.549-.279-1.313-.48-2.152-.203-.796.263-1.359.951-1.471,1.796-.106.818.23,1.565.921,2.049.003,0,.838.409,1.753.78.214.086.905.409.817.959-.065.391-.492.795-1.096.795-.381,0-.753-.106-1.069-.297-.285-.172-.652-.125-.888.111h0c-.33.329-.269.874.119,1.131.539.357,1.175.552,1.839.552,1.221,0,2.245-.853,2.436-2.028.143-.882-.224-2.036-1.685-2.627Zm13.019-12.322c0-2.757-2.243-5-5-5h-1v-1c0-.553-.448-1-1-1s-1,.447-1,1v1h-8v-1c0-.553-.448-1-1-1s-1,.447-1,1v1h-1C2.243,2,0,4.243,0,7v1h24v-1ZM0,10v9c0,2.761,2.239,5,5,5h1.349c-.14-.287-.244-.593-.276-.92-.081-.808.198-1.601.767-2.181-.782-.885-1.145-2.047-.987-3.263.213-1.613,1.296-2.929,2.827-3.434.469-.155.955-.203,1.445-.203h13.877v-4H0Z"/>
</svg>
