<?xml version="1.0" encoding="UTF-8"?>
<svg xmlns="http://www.w3.org/2000/svg" id="Layer_1" data-name="Layer 1" viewBox="0 0 24 24">
  <path d="M19.584,7.707c.391,.391,1.024,.391,1.414,0l2.451-2.381c.729-.729,.729-1.922,0-2.651L20.998,.293c-.391-.391-1.024-.391-1.414,0s-.391,1.024,0,1.414l1.363,1.293H11.998C7.028,3,2.998,7.029,2.998,12v.018c.001,.704,.103,1.383,.258,2.041,.147-.023,.292-.06,.442-.06,.77,0,1.542,.292,2.129,.88,1.132,1.132,1.158,2.945,.099,4.121H3.05l1.363-1.293c.39-.391,.39-1.024,0-1.414-.391-.391-1.024-.391-1.414,0l-2.451,2.381c-.729,.729-.729,1.922,0,2.651l2.451,2.381c.391,.391,1.024,.391,1.414,0s.391-1.024,0-1.414l-1.363-1.293H11.998c4.971,0,9-4.029,9-9v-.018c-.002-.704-.103-1.383-.258-2.041-.147,.023-.292,.06-.442,.06-.77,0-1.542-.292-2.129-.88-1.132-1.132-1.158-2.945-.099-4.121h2.876l-1.363,1.293c-.39,.391-.39,1.024,0,1.414Zm-4.205,7.565c-.717,.963-1.875,1.576-3.179,1.525-1.679-.065-3.038-1.247-3.482-2.797h-.418c-.442,0-.8-.358-.8-.8s.358-.8,.8-.8h.251v-.8h-.251c-.442,0-.8-.358-.8-.8s.358-.8,.8-.8h.418c.444-1.55,1.803-2.731,3.482-2.797,1.303-.051,2.461,.562,3.178,1.525,.391,.525,.014,1.272-.641,1.272h-.04c-.235,0-.449-.118-.589-.307-.422-.571-1.109-.933-1.882-.89-.796,.044-1.459,.527-1.809,1.197h1.282c.442,0,.8,.358,.8,.8s-.358,.8-.8,.8h-1.549v.8h1.549c.442,0,.8,.358,.8,.8s-.358,.8-.8,.8h-1.282c.349,.67,1.012,1.152,1.809,1.197,.773,.043,1.459-.319,1.882-.89,.146-.198,.383-.307,.629-.307,.655,0,1.032,.747,.641,1.272Z"/>
</svg>
