<?xml version="1.0" encoding="UTF-8"?>
<svg xmlns="http://www.w3.org/2000/svg" id="Layer_1" data-name="Layer 1" viewBox="0 0 24 24">
  <path d="m12,6H4C1.794,6,0,7.794,0,10v10c0,2.206,1.794,4,4,4h8c2.206,0,4-1.794,4-4v-10c0-2.206-1.794-4-4-4Zm-6,14c0,.552-.448,1-1,1s-1-.448-1-1v-1c0-.552.448-1,1-1s1,.448,1,1v1Zm0-5c0,.552-.448,1-1,1s-1-.448-1-1v-1c0-.552.448-1,1-1s1,.448,1,1v1Zm3,5c0,.552-.448,1-1,1s-1-.448-1-1v-1c0-.552.448-1,1-1s1,.448,1,1v1Zm0-5c0,.552-.448,1-1,1s-1-.448-1-1v-1c0-.552.448-1,1-1s1,.448,1,1v1Zm3,5c0,.552-.448,1-1,1s-1-.448-1-1v-1c0-.552.448-1,1-1s1,.448,1,1v1Zm0-5c0,.552-.448,1-1,1s-1-.448-1-1v-1c0-.552.448-1,1-1s1,.448,1,1v1Zm-1-4h-6c-.552,0-1-.448-1-1s.448-1,1-1h6c.552,0,1,.448,1,1s-.448,1-1,1Zm-2.5-7c-.829,0-1.5-.671-1.5-1.5v-1c0-.829.671-1.5,1.5-1.5s1.5.671,1.5,1.5v1c0,.829-.671,1.5-1.5,1.5Zm14,10c-.829,0-1.5-.671-1.5-1.5V1.5c0-.829.671-1.5,1.5-1.5s1.5.671,1.5,1.5v11c0,.829-.671,1.5-1.5,1.5Zm-3.5,0c-.552,0-1-.448-1-1V1c0-.552.448-1,1-1s1,.448,1,1v12c0,.552-.448,1-1,1Zm-3-9c-.552,0-1-.448-1-1V1c0-.552.448-1,1-1s1,.448,1,1v3c0,.552-.448,1-1,1Zm-4-1c-.552,0-1-.448-1-1V1c0-.552.448-1,1-1s1,.448,1,1v2c0,.552-.448,1-1,1Z"/>
</svg>
