<?xml version="1.0" encoding="UTF-8"?>
<svg xmlns="http://www.w3.org/2000/svg" id="Layer_1" data-name="Layer 1" viewBox="0 0 24 24">
  <path d="m23.712,18.798c-.389-.394-1.021-.397-1.414-.01l-2.298,2.268v-12.556c0-2.481-2.019-4.5-4.5-4.5s-4.5,2.019-4.5,4.5v7c0,1.379-1.121,2.5-2.5,2.5s-2.5-1.121-2.5-2.5V2.974l2.298,2.238c.194.192.448.288.702.288.258,0,.516-.1.712-.298.388-.393.384-1.025-.01-1.414L6.575.704c-.401-.447-.975-.704-1.575-.704s-1.174.257-1.532.659L.298,3.788c-.394.389-.397,1.021-.01,1.414.39.394,1.022.397,1.414.01l2.298-2.268v12.556c0,2.481,2.019,4.5,4.5,4.5s4.5-2.019,4.5-4.5v-7c0-1.379,1.121-2.5,2.5-2.5s2.5,1.121,2.5,2.5v12.526l-2.298-2.238c-.392-.388-1.024-.384-1.414.01-.388.393-.384,1.025.01,1.414l3.127,3.084c.401.447.975.704,1.575.704s1.174-.257,1.532-.659l3.17-3.129c.394-.389.397-1.021.01-1.414Z"/>
</svg>
