<?xml version="1.0" encoding="UTF-8"?>
<svg xmlns="http://www.w3.org/2000/svg" id="Layer_1" data-name="Layer 1" viewBox="0 0 24 24">
  <path d="m14.882,18.008c.748-.086,1.32.638,1.066,1.347-1.412,3.941-5.223,4.602-6.944,4.641v.004h-2v-.004c-1.721-.04-5.531-.7-6.944-4.641-.254-.708.319-1.433,1.066-1.347,3.048.35,5.004,1.864,5.877,3.233v-4.081c-1.721-.447-3-2-3-3.858,0-1.443.785-2.827,1.471-3.763.292-.397.917-.287,1.054.187.218.752.561,1.579,1.17,2.467.31.452,1.017.151.908-.386-.251-1.238-.447-2.318-.474-3.234-.013-.454.462-.769.871-.572.212.101.408.238.577.411.404.412,2.422,2.585,2.422,4.891,0,1.858-1.279,3.411-3,3.858v4.081c.873-1.369,2.829-2.883,5.877-3.233Zm6.437-12.758c.273-.359.681-1.019.681-1.788,0-1.402-.444-3.462-1.846-3.462s-3.231,2.06-3.231,3.462c0,.788.513,2.073,1.077,2.538-.466-.564-1.75-1.077-2.538-1.077-1.402,0-3.462,1.829-3.462,3.231s2.06,1.846,3.462,1.846c.77,0,1.43-.407,1.788-.681.071,1.159.384,2.681,1.365,2.681,1.147,0,1.385-1.161,1.385-2.308,0-.923-.712-2.336-1-2.692.357.288,1.769,1,2.692,1,1.147,0,2.308-.238,2.308-1.385,0-.981-1.522-1.295-2.681-1.365Zm-6.819-1.25c.828,0,1.5-.672,1.5-1.5s-.672-1.5-1.5-1.5-1.5.672-1.5,1.5.672,1.5,1.5,1.5Z"/>
</svg>
