<?xml version="1.0" encoding="UTF-8"?>
<svg xmlns="http://www.w3.org/2000/svg" id="Layer_1" data-name="Layer 1" viewBox="0 0 24 24">
  <path d="m17.716,9.128l-.533-.307c.201-.571.317-1.182.317-1.821s-.115-1.25-.317-1.821l.533-.307c.479-.276.643-.887.368-1.366-.276-.479-.888-.642-1.366-.368l-.53.305c-.804-.945-1.92-1.614-3.188-1.848v-.596c0-.552-.448-1-1-1s-1,.448-1,1v.596c-1.265.234-2.379.9-3.182,1.841l-.518-.299c-.478-.274-1.089-.111-1.366.368-.275.479-.111,1.09.368,1.366l.518.298c-.203.573-.32,1.188-.32,1.83s.116,1.257.32,1.83l-.518.298c-.479.276-.643.887-.368,1.366.186.321.521.501.868.501.169,0,.341-.043.498-.133l.518-.299c.806.944,1.923,1.611,3.193,1.843l.007.606c.007.548.453.988,1,.988h.013c.552-.007.994-.46.988-1.012l-.007-.585c1.264-.236,2.375-.904,3.177-1.846l.53.305c.157.09.329.133.498.133.346,0,.683-.18.868-.501.275-.479.111-1.09-.368-1.366Zm-5.716-.628c-.828,0-1.5-.672-1.5-1.5s.672-1.5,1.5-1.5,1.5.672,1.5,1.5-.672,1.5-1.5,1.5Zm8,7.5H4c-2.206,0-4,1.794-4,4s1.794,4,4,4h16c2.206,0,4-1.794,4-4s-1.794-4-4-4Zm0,6h-4v-4h4c1.103,0,2,.897,2,2s-.897,2-2,2Z"/>
</svg>
