<?xml version="1.0" encoding="UTF-8"?>
<svg xmlns="http://www.w3.org/2000/svg" id="Layer_1" data-name="Layer 1" viewBox="0 0 24 24">
  <path d="m23.934,5.18c-.385-2.383-2.571-4.18-5.086-4.18H6.242C2.849,1,.482,2.602.066,5.18c-.269,1.665.308,3.338,1.543,4.476.146.134.391.415.391.791v7.554c0,2.757,2.243,5,5,5h10c2.757,0,5-2.243,5-5v-7.555c0-.376.242-.654.388-.787,1.237-1.139,1.815-2.812,1.546-4.479Zm-7.665,9.588l-2.501,2.502c-.472.473-1.1.732-1.768.732s-1.296-.26-1.768-.732l-2.501-2.502c-.975-.975-.975-2.561,0-3.535l2.501-2.502c.943-.945,2.592-.945,3.535,0h0l2.501,2.502c.975.975.975,2.561,0,3.535Zm-1.414-2.121c.127.128.146.276.146.354s-.019.226-.146.354l-2.502,2.502c-.127.128-.276.146-.353.146s-.226-.019-.354-.146l-2.501-2.502c-.127-.128-.146-.276-.146-.354s.019-.226.146-.354l2.502-2.502c.127-.128.276-.146.353-.146s.226.019.353.146h0l2.501,2.502Z"/>
</svg>
