<?xml version="1.0" encoding="UTF-8"?>
<svg xmlns="http://www.w3.org/2000/svg" id="Layer_1" data-name="Layer 1" viewBox="0 0 24 24">
  <path d="m13.631,18.507c0,.492-.4.893-.893.893h-1.738l-.013-1.785h1.752c.492,0,.893.4.893.892Zm-1.332-3.907h-1.298v1.415h1.374c.357-.04.639-.332.639-.7,0-.394-.321-.715-.715-.715Zm.699-4.521l-.019-7.104,2.825,2.742c.194.188.445.282.696.282.261,0,.521-.102.718-.304.385-.396.375-1.029-.021-1.414l-3.808-3.696c-.78-.78-2.05-.778-2.822-.006l-3.768,3.707c-.394.388-.399,1.021-.012,1.414s1.021.398,1.414.012l2.778-2.718.019,7.085c-3.39.487-5.998,3.395-5.998,6.92,0,3.866,3.134,7,7,7s7-3.134,7-7c0-3.526-2.61-6.435-6.002-6.921Zm.033,10.891l-.231.029v.2c0,.442-.358.8-.8.8s-.8-.358-.8-.8v-.2h-.9c-.442,0-.8-.358-.8-.8v-6.4c0-.442.358-.8.8-.8h.866v-.206c.005-.44.362-.794.801-.794h.007c.441,0,.799.357.8.799v.265c1.037.23,1.84,1.146,1.84,2.252,0,.505-.166.969-.441,1.349.577.336,1.058,1.109,1.058,1.843,0,1.276-.963,2.317-2.2,2.463Z"/>
</svg>
