<?xml version="1.0" encoding="UTF-8"?>
<svg xmlns="http://www.w3.org/2000/svg" id="Layer_1" data-name="Layer 1" viewBox="0 0 24 24">
  <path d="M23.518,15.224l-.923-.997,.922-.996c.64-.69,.64-1.771,0-2.461l-.922-.997,.923-.997c.64-.69,.64-1.771,0-2.462l-.973-1.049,.473-.427c.041-.037,.079-.077,.113-.121,.433-.544,.484-1.285,.134-1.886-.35-.6-1.021-.922-1.703-.81-2.379,.375-4.23,1.474-5.863,2.444-1.388,.824-2.587,1.535-3.698,1.535s-2.326-.723-3.733-1.559c-1.652-.982-3.524-2.096-5.905-2.471-.682-.109-1.354,.21-1.704,.811-.35,.602-.297,1.342,.137,1.886,.036,.046,.077,.088,.121,.127l.537,.474-.97,1.046c-.64,.69-.64,1.771,0,2.462l.923,.997-.922,.996c-.64,.69-.64,1.771,0,2.461l.922,.996-.923,.997c-.641,.69-.641,1.771,0,2.462l.988,1.066-.537,.549c-.024,.024-.047,.05-.068,.077-.433,.545-.485,1.285-.135,1.888,.305,.521,.851,.83,1.438,.83,.088,0,.177-.007,.266-.021,2.39-.376,4.247-1.507,5.886-2.505,1.383-.842,2.577-1.569,3.68-1.569,1.111,0,2.312,.712,3.7,1.535,1.634,.97,3.486,2.069,5.865,2.443,.684,.114,1.354-.209,1.704-.809,.351-.603,.298-1.343-.135-1.888-.035-.044-.073-.085-.115-.122l-.474-.426,.972-1.049c.641-.69,.641-1.771,0-2.462Zm-7.518-2.224H8c-.553,0-1-.448-1-1s.447-1,1-1h8c.553,0,1,.448,1,1s-.447,1-1,1Z"/>
</svg>
