<?xml version="1.0" encoding="UTF-8"?>
<svg xmlns="http://www.w3.org/2000/svg" id="Layer_1" data-name="Layer 1" viewBox="0 0 24 24">
  <path d="m24,4c0,.952-.423,1.838-1.293,2.708-.391.39-1.023.39-1.414,0-.391-.391-.391-1.024,0-1.415.634-.633.707-1.041.707-1.292,0-.662-.317-1.265-.871-1.654-.654-.458-1.604-.458-2.258,0-.73.512-1.043,1.42-.777,2.259.402,1.272.058,2.657-.899,3.614l-1.201,1.201,1.059,1.052c1.264,1.264,1.264,3.314,0,4.579-1.264,1.264-3.314,1.264-4.579,0l-1.059-1.052-1.408,1.408,1.072,1.065c1.264,1.264,1.264,3.314,0,4.579s-3.314,1.264-4.579,0l-1.072-1.065-3.721,3.721c-.195.195-.451.293-.707.293s-.512-.098-.707-.293c-.391-.391-.391-1.023,0-1.414l3.716-3.716-1.061-1.054c-1.264-1.264-1.264-3.314,0-4.579s3.32-1.259,4.579,0l1.061,1.054,1.408-1.408-1.074-1.067c-1.264-1.264-1.264-3.314,0-4.579,1.259-1.259,3.32-1.259,4.579,0l1.074,1.067,1.206-1.206c.428-.427.583-1.039.407-1.596-.531-1.675.086-3.483,1.535-4.5,1.34-.94,3.213-.94,4.555,0,1.095.769,1.723,1.968,1.723,3.291Z"/>
</svg>
