<?xml version="1.0" encoding="UTF-8"?>
<svg xmlns="http://www.w3.org/2000/svg" id="Layer_1" data-name="Layer 1" viewBox="0 0 24 24">
  <path d="m8.5,24C3.813,24,0,20.187,0,15.5S3.813,7,8.5,7s8.5,3.813,8.5,8.5-3.813,8.5-8.5,8.5ZM15.5,0c-3.454,0-6.427,2.074-7.755,5.038.25-.018.5-.038.755-.038,2.535,0,4.864.904,6.68,2.406l2.096-2.096-1.061-1.061c-.461-.461-.134-1.249.517-1.249h3.262c.555,0,1.005.45,1.005,1.005v3.262c0,.652-.788.978-1.249.517l-1.061-1.061-2.096,2.096c1.502,1.817,2.406,4.145,2.406,6.68,0,.255-.02.505-.038.755,2.965-1.329,5.038-4.302,5.038-7.755C24,3.813,20.187,0,15.5,0Z"/>
</svg>
