<?xml version="1.0" encoding="UTF-8"?>
<svg xmlns="http://www.w3.org/2000/svg" id="Layer_1" data-name="Layer 1" viewBox="0 0 24 24">
  <path d="M9.707,19.602c.391,.391,.391,1.023,0,1.414l-2.476,2.476c-.328,.329-.766,.511-1.231,.511s-.903-.182-1.232-.512l-2.475-2.475c-.391-.391-.391-1.023,0-1.414s1.023-.391,1.414,0l1.293,1.293v-4.895c0-.553,.448-1,1-1s1,.447,1,1v4.895l1.293-1.293c.391-.391,1.023-.391,1.414,0Zm9.293-7.102v3c0,1.381-1.119,2.5-2.5,2.5s-2.5-1.119-2.5-2.5v-3c0-1.381,1.119-2.5,2.5-2.5s2.5,1.119,2.5,2.5Zm-1.6,0c0-.496-.404-.9-.9-.9s-.9,.404-.9,.9v3c0,.496,.404,.9,.9,.9s.9-.404,.9-.9v-3Zm-6.963-.895c.374-.025,.705,.181,.863,.489,.132,.258,.409,.409,.699,.409,.606,0,.989-.647,.703-1.181-.414-.771-1.222-1.3-2.154-1.317-1.401-.027-2.547,1.154-2.547,2.555v2.886c0,1.401,1.146,2.581,2.547,2.555,.932-.018,1.74-.546,2.154-1.317,.287-.534-.097-1.181-.703-1.181-.29,0-.567,.151-.699,.409-.158,.308-.488,.514-.863,.488-.478-.032-.838-.45-.838-.929v-2.936c0-.479,.36-.897,.838-.929Zm13.563,5.395c0-1.129-.935-2.039-2.073-1.999-.931,.033-1.684,.719-1.878,1.599-.002,.009-.004,.02-.006,.032-.057,.369,.233,.702,.607,.702h0c.356,0,.657-.247,.748-.592,.005-.018,.01-.032,.015-.042,.109-.21,.318-.359,.566-.366,.378-.011,.687,.291,.687,.666,0,1-2.667,1.84-2.667,3.346,0,.361,.293,.654,.654,.654h2.692c.361,0,.654-.293,.654-.654v-.025c0-.361-.293-.654-.654-.654h-1.346c.575-.526,2-1.244,2-2.667Zm-3-3.86c.277-.073,.561-.127,.855-.138,.753-.015,1.45,.168,2.069,.509,.045-.332,.076-.668,.076-1.011,0-3.565-2.534-6.658-6.026-7.354-.332-.066-.603-.273-.742-.569C15.68,1.305,12.089-.522,8.497,.138,5.225,.737,2.66,3.35,2.113,6.639c-.162,.971-.15,1.943,.033,2.89,.06,.309-.073,.653-.346,.901-1.145,1.041-1.801,2.524-1.801,4.07,0,1.294,.452,2.483,1.203,3.423,.532-.401,1.162-.612,1.797-.612v-1.311c0-1.654,1.346-3,3-3v-.441c0-1.22,.501-2.41,1.376-3.269,.869-.852,2.005-1.298,3.21-1.285,1.096,.021,2.125,.45,2.918,1.163,.798-.718,1.841-1.168,2.997-1.168,2.481,0,4.5,2.019,4.5,4.5v.64Z"/>
</svg>
