<?xml version="1.0" encoding="UTF-8"?>
<svg xmlns="http://www.w3.org/2000/svg" id="Layer_1" data-name="Layer 1" viewBox="0 0 24 24">
  <path d="m23.297,11.034c-.57-.657-1.396-1.034-2.267-1.034H3c-.87,0-1.695.377-2.266,1.034S-.093,12.562.034,13.446l1.057,5.402c.42,2.937,2.974,5.151,5.94,5.151h9.969c2.966,0,5.52-2.215,5.937-5.13l1.064-5.445c.123-.862-.134-1.733-.704-2.391Zm-15.297,7.966c0,.553-.447,1-1,1s-1-.447-1-1v-4c0-.553.447-1,1-1s1,.447,1,1v4Zm5,0c0,.553-.447,1-1,1s-1-.447-1-1v-4c0-.553.447-1,1-1s1,.447,1,1v4Zm5,0c0,.553-.447,1-1,1s-1-.447-1-1v-4c0-.553.447-1,1-1s1,.447,1,1v4ZM4,2.736v-.736c-.553,0-1-.447-1-1s.447-1,1-1h7c.553,0,1,.447,1,1s-.447,1-1,1v.736c0,.698.143,1.377.425,2.017l.896,2.033c.174.395.305.802.413,1.214H3c-.253,0-.503.026-.75.063.109-.434.246-.862.429-1.277l.896-2.033c.282-.64.425-1.318.425-2.017Zm17.946,5.354c-.3-.056-.605-.09-.916-.09h-8.271c.315-.627.581-1.139.581-1.139.424-.82.907-1.629,1.426-2.391l2.204,1.378c.165.104.349.152.529.152.333,0,.659-.166.849-.47.293-.469.15-1.086-.317-1.378l-2.053-1.283c1.77-2.088,3.775-3.4,5.441-2.676.422.183.993.587,1.319,1.474.528,1.432.213,3.796-.792,6.422Z"/>
</svg>
