<?xml version="1.0" encoding="UTF-8"?>
<svg xmlns="http://www.w3.org/2000/svg" id="Layer_1" data-name="Layer 1" viewBox="0 0 24 24">
  <path d="m21,1.5c0-.828.672-1.5,1.5-1.5s1.5.672,1.5,1.5-.672,1.5-1.5,1.5-1.5-.672-1.5-1.5Zm-12.5,3.5c1.381,0,2.5-1.119,2.5-2.5s-1.119-2.5-2.5-2.5-2.5,1.119-2.5,2.5,1.119,2.5,2.5,2.5Zm12.5,2c0,2.209-1.791,4-4,4s-4-1.791-4-4,1.791-4,4-4,4,1.791,4,4Zm3,9.5c0,4.142-3.358,7.5-7.5,7.5H7.5C3.04,24-.523,20.087.063,15.513c.485-3.78,3.886-6.513,7.698-6.513h3.588c.825,2.329,3.04,4,5.651,4,1.805,0,3.419-.801,4.519-2.062,1.52,1.373,2.481,3.352,2.481,5.562Zm-11-2.5c0-.553-.448-1-1-1h-4.5c-1.93,0-3.5,1.57-3.5,3.5,0,1.658,1.178,3.101,2.801,3.431.067.014.134.02.2.02.466,0,.883-.327.979-.801.11-.542-.24-1.069-.781-1.18-.694-.141-1.199-.759-1.199-1.47,0-.827.673-1.5,1.5-1.5h4.5c.552,0,1-.447,1-1Z"/>
</svg>
