<?xml version="1.0" encoding="UTF-8"?>
<svg xmlns="http://www.w3.org/2000/svg" id="Layer_1" data-name="Layer 1" viewBox="0 0 24 24">
  <path d="m18.707,22.293l-2.537-2.537c.524-.791.83-1.738.83-2.756,0-2.757-2.243-5-5-5s-5,2.243-5,5,2.243,5,5,5c1.018,0,1.965-.306,2.756-.83l2.537,2.537c.195.195.451.293.707.293s.512-.098.707-.293c.391-.391.391-1.023,0-1.414Zm.293-22.293H5C2.239,0,0,2.239,0,5v5c0,2.761,2.239,5,5,5h.29c.861-2.891,3.539-5,6.71-5s5.849,2.109,6.71,5h.29c2.761,0,5-2.239,5-5v-5c0-2.761-2.239-5-5-5Zm-10.595,5.562l-.314,3.659c-.031.44-.337.779-.706.779-.244,0-.471-.151-.601-.4l-.831-1.6-.831,1.6c-.129.249-.356.4-.601.4-.368,0-.675-.339-.706-.779l-.314-3.659c-.026-.302.212-.562.515-.562.27,0,.494.207.516.477l.212,2.681.75-1.443c.193-.372.725-.372.918,0l.75,1.443.21-2.681c.021-.269.246-.477.516-.477h.002c.303,0,.541.26.515.562Zm5.978,0l-.314,3.659c-.031.44-.337.779-.706.779-.244,0-.471-.151-.601-.4l-.831-1.6-.831,1.6c-.129.249-.356.4-.601.4-.368,0-.675-.339-.706-.779l-.314-3.659c-.026-.302.212-.562.515-.562.27,0,.494.207.516.477l.212,2.681.75-1.443c.193-.372.725-.372.918,0l.75,1.443.21-2.681c.021-.269.246-.477.516-.477h.002c.303,0,.541.26.515.562Zm6.022,0l-.314,3.659c-.031.44-.337.779-.706.779-.244,0-.471-.151-.601-.4l-.831-1.6-.831,1.6c-.129.249-.356.4-.601.4-.368,0-.675-.339-.706-.779l-.314-3.659c-.026-.302.212-.562.515-.562.27,0,.494.207.516.477l.212,2.681.75-1.443c.193-.372.725-.372.918,0l.75,1.443.21-2.681c.021-.269.246-.477.516-.477h.002c.303,0,.541.26.515.562Z"/>
</svg>
