<?xml version="1.0" encoding="UTF-8"?>
<svg xmlns="http://www.w3.org/2000/svg" id="Layer_1" data-name="Layer 1" viewBox="0 0 24 24">
  <path d="M17.4,15.25c0,.358-.292,.65-.65,.65h-.65v-1.3h.65c.358,0,.65,.292,.65,.65ZM9.018,5.446c-.404,0-.733,.329-.733,.733v2.602c0,.404,.329,.733,.733,.733s.733-.329,.733-.733v-2.602c0-.404-.329-.733-.733-.733Zm-.916,9.16c-.047,0-.078,.054-.097,.122l-.646,2.678h1.407l-.583-2.624c-.025-.113-.069-.166-.082-.176ZM24,5v14c0,2.757-2.243,5-5,5H5c-2.757,0-5-2.243-5-5V5C0,2.243,2.243,0,5,0h14c2.757,0,5,2.243,5,5Zm-13.205,14.054l-1.051-4.626c-.213-1.129-1.438-1.774-2.428-1.225-.445,.242-.765,.679-.875,1.186l-1.072,4.664c-.112,.485,.257,.948,.755,.948,.358,0,.669-.245,.753-.593l.097-.401h2.148l.086,.387c.083,.384,.444,.636,.832,.607,.497,0,.865-.461,.755-.946Zm.556-12.874c0-1.289-1.045-2.333-2.333-2.333s-2.333,1.045-2.333,2.333v2.602c0,1.289,1.045,2.333,2.333,2.333s2.333-1.045,2.333-2.333v-2.602Zm1.748,7.62c0-.442-.358-.8-.8-.8s-.8,.358-.8,.8v5.4c0,.442,.358,.8,.8,.8s.8-.358,.8-.8v-5.4Zm1.127-6.347l1.432,3.024c.151,.319,.473,.523,.827,.523,.505,0,.915-.409,.915-.915V4.747c0-.412-.334-.747-.747-.747s-.747,.334-.747,.747v2.808l-1.433-3.031c-.151-.32-.473-.524-.827-.524-.505,0-.914,.409-.914,.914v5.339c0,.412,.334,.747,.747,.747s.747-.334,.747-.747v-2.801Zm3.833,9.62c.636-.458,1.028-1.235,.923-2.1-.137-1.136-1.135-1.973-2.279-1.973h-1.228c-.618,0-.976,.358-.976,.8v5.4c0,.442,.358,.8,.8,.8s.8-.358,.8-.8v-1.7h.413l.718,1.973c.115,.316,.416,.527,.752,.527,.555,0,.942-.552,.752-1.074l-.674-1.853Z"/>
</svg>
