<?xml version="1.0" encoding="UTF-8"?>
<svg xmlns="http://www.w3.org/2000/svg" id="Layer_1" data-name="Layer 1" viewBox="0 0 24 24">
  <path d="m23.396,9.636l-3.28-6c-.89-1.626-2.61-2.636-4.491-2.636h-7.229c-1.877,0-3.596,1.007-4.487,2.628L.61,9.632c-.815,1.486-.815,3.261.002,4.746l3.295,5.996c.891,1.62,2.608,2.627,4.485,2.627h7.231c1.881,0,3.602-1.01,4.49-2.636l3.282-6c.809-1.48.809-3.248,0-4.728Zm-11.396-3.636c.828,0,1.5.672,1.5,1.5s-.672,1.5-1.5,1.5-1.5-.672-1.5-1.5.672-1.5,1.5-1.5Zm0,12c-.828,0-1.5-.672-1.5-1.5s.672-1.5,1.5-1.5,1.5.672,1.5,1.5-.672,1.5-1.5,1.5Zm5-5H7c-.553,0-1-.448-1-1s.447-1,1-1h10c.553,0,1,.448,1,1s-.447,1-1,1Z"/>
</svg>
