<?xml version="1.0" encoding="UTF-8"?>
<svg xmlns="http://www.w3.org/2000/svg" id="Layer_1" data-name="Layer 1" viewBox="0 0 24 24">
  <path d="M22.828,1.62c-.737-.568-1.676-.757-2.573-.52-.356,.094-.736,.23-1.131,.374-.716,.259-1.455,.526-2.122,.526-1.36,0-3.07-.489-4.725-.961-1.787-.511-3.634-1.039-5.274-1.039C4.95,0,2.94,.813,1.616,1.496c-.997,.514-1.616,1.534-1.616,2.663V23c0,.553,.448,1,1,1s1-.447,1-1v-5.438c.893-.511,2.981-1.562,5-1.562,1.36,0,3.071,.489,4.725,.962,1.787,.51,3.635,1.038,5.275,1.038,1.804,0,3.713-.437,5.107-1.167,1.203-.63,1.893-1.644,1.893-2.78l.002-10.049c0-.941-.428-1.811-1.174-2.384ZM8.836,12.534c-.719,.411-1.636,.16-2.046-.559-.411-.719-.16-1.636,.559-2.046,.719-.411,1.636-.16,2.046,.559,.411,.719,.16,1.636-.559,2.046Zm.559-5.021c-.411,.719-1.327,.97-2.046,.559-.719-.411-.97-1.327-.559-2.046s1.327-.97,2.046-.559,.97,1.327,.559,2.046Zm2.605,7.487c-.828,0-1.5-.672-1.5-1.5s.672-1.5,1.5-1.5,1.5,.672,1.5,1.5-.672,1.5-1.5,1.5Zm0-9c-.828,0-1.5-.672-1.5-1.5s.672-1.5,1.5-1.5,1.5,.672,1.5,1.5-.672,1.5-1.5,1.5Zm5.211,5.974c-.411,.719-1.327,.97-2.046,.559-.719-.411-.97-1.327-.559-2.046,.411-.719,1.327-.97,2.046-.559,.719,.411,.97,1.327,.559,2.046Zm-.559-3.903c-.719,.411-1.636,.16-2.046-.559-.411-.719-.16-1.636,.559-2.046s1.636-.16,2.046,.559,.16,1.636-.559,2.046Z"/>
</svg>
