<?xml version="1.0" encoding="UTF-8"?>
<svg xmlns="http://www.w3.org/2000/svg" id="Layer_1" data-name="Layer 1" viewBox="0 0 24 24">
  <path d="M5.13,7.144c-1.228,.376-2.13,1.506-2.13,2.856v4c0,.552-.448,1-1,1s-1-.448-1-1v-4c0-2.604,2.009-4.725,4.554-4.955,.824-.759,3.49-3.014,6.446-3.461v-.584c0-.552,.448-1,1-1s1,.448,1,1v.583c2.901,.439,5.522,2.619,6.396,3.417h1.021c.873,0,1.583,.71,1.583,1.583,0,.397-.005,.716-2.954,3.855l-.89,3.562h-3.039l.654-5.89c.061-.549-.334-1.043-.883-1.104-.543-.064-1.043,.334-1.104,.883l-.679,6.11h-2.21l-.679-6.11c-.061-.55-.558-.949-1.104-.883-.549,.061-.944,.555-.883,1.104l.654,5.89h-3.039l-1.714-6.856Zm14.106,8.856h-3.107l.594,4.879c.076,.591-.399,1.126-.994,1.121-.498,0-.929-.372-.991-.879l-.624-5.121h-2.223l-.59,5.115c-.063,.549-.56,.942-1.108,.879-.548-.063-.942-.56-.878-1.108l.563-4.885h-3.114l-1.591,4.52c-.665,1.626,.622,3.513,2.382,3.48h10.89c1.746,.038,3.035-1.839,2.393-3.45l-1.602-4.55Z"/>
</svg>
