<?xml version="1.0" encoding="UTF-8"?>
<svg xmlns="http://www.w3.org/2000/svg" id="Layer_1" data-name="Layer 1" viewBox="0 0 24 24">
  <path d="M17.498,11c1.327,0,2.6-.527,3.538-1.465l1.268-1.267c.973-.972,.973-2.564,0-3.536l-1.269-1.268c-.939-.938-2.211-1.465-3.538-1.465h-4.497V1c0-.553-.447-1-1-1s-1,.447-1,1v1H5.5c-1.933,0-3.5,1.567-3.5,3.5v2c0,1.933,1.567,3.5,3.5,3.5h5.5v2H6.503c-1.327,0-2.6,.527-3.538,1.465l-1.269,1.268c-.973,.972-.973,2.564,0,3.536l1.27,1.269c.937,.937,2.208,1.463,3.533,1.463h4.501v1c0,.553,.447,1,1,1s1-.447,1-1v-1h5.5c1.933,0,3.5-1.567,3.5-3.5v-2c0-1.933-1.567-3.5-3.5-3.5h-5.5v-2h4.498Zm-2.172,6.087l-2.269,2.365h0c-.751,.746-2.075,.733-2.827-.015l-1.187-1.24c-.369-.388-.367-.997,.004-1.382,.394-.41,1.051-.408,1.443,.003l1.161,1.211,2.24-2.334c.392-.404,1.039-.405,1.432-.003,.379,.387,.38,1.006,.003,1.395Zm-5.533-8.379c-.391-.391-.391-1.023,0-1.414l.793-.793-.793-.793c-.391-.391-.391-1.023,0-1.414s1.023-.391,1.414,0l.793,.793,.793-.793c.391-.391,1.023-.391,1.414,0s.391,1.023,0,1.414l-.793,.793,.793,.793c.391,.391,.391,1.023,0,1.414s-1.023,.391-1.414,0l-.793-.793-.793,.793c-.391,.391-1.023,.391-1.414,0Z"/>
</svg>
