<?xml version="1.0" encoding="UTF-8"?>
<svg xmlns="http://www.w3.org/2000/svg" id="Layer_1" data-name="Layer 1" viewBox="0 0 24 24">
  <path d="m20.439,11.439l-3.573,3.548c-.243.242-.637.242-.879,0s-.243-.638,0-.881c.003-.003,6.574-6.545,6.574-6.545.586-.585.586-1.536,0-2.121-.586-.586-1.535-.586-2.121,0,0,0-6.564,6.544-6.569,6.55-.243.243-.638.243-.881,0-.243-.243-.243-.636,0-.879l7.572-7.549c.586-.585.586-1.536,0-2.121-.586-.586-1.535-.586-2.121,0,0,0-7.556,7.542-7.566,7.552-.243.243-.638.243-.881,0s-.243-.636,0-.879l5.569-5.552c.586-.585.586-1.536,0-2.121-.586-.586-1.535-.586-2.121,0L4,9.853v-2.853c0-1.105-.895-2-2-2S0,5.895,0,7v8.746c0,2.16.841,4.191,2.369,5.719,1.69,1.69,3.911,2.535,6.131,2.535s4.44-.845,6.131-2.535l7.929-7.904c.586-.586.586-1.535,0-2.121s-1.536-.586-2.121,0Zm-11.654,8.264c-.459.376-1.113.376-1.572,0-1.032-.846-2.714-2.435-2.714-3.807,0-1.044.784-1.89,1.75-1.89s1.75.674,1.75,1.718c0-1.044.784-1.718,1.75-1.718s1.75.846,1.75,1.89c0,1.372-1.682,2.961-2.714,3.807Z"/>
</svg>
