<?xml version="1.0" encoding="UTF-8"?>
<svg xmlns="http://www.w3.org/2000/svg" id="Layer_1" data-name="Layer 1" viewBox="0 0 24 24">
  <path d="m24,18.664v.336c0,1.214-1.082,2.176-2.335,1.973-.984-.16-1.665-1.083-1.665-2.079v-.23l.854-2.42-1.854-.348v6.105h2c.552,0,1,.447,1,1s-.448,1-1,1h-6c-.552,0-1-.447-1-1s.448-1,1-1h2v-6.48l-1.752-.328.861,2.406v.575h-.013c-.129,1.162-1.226,2.032-2.466,1.783-.97-.194-1.63-1.112-1.63-2.101v-.244l1.06-3.379c.251-.801,1.061-1.288,1.886-1.135l2.054.381v-.48c0-.553.448-1,1-1s1,.447,1,1v.851l2.41.447c.675.125,1.233.599,1.465,1.245l1.124,3.121ZM2.417,13.932c1.108-.716,2.341-1.253,3.656-1.575-2.11-.993-3.621-3.045-3.848-5.472-.289,1.208-.875,3.67-1.409,5.921-.22.929.8,1.644,1.601,1.126ZM7.794,4.283c.648-.404,1.177-.946,1.557-1.584.237-.398.721-.595,1.158-.44.006.002.013.005.019.007.588.212.871.9.553,1.438-.542.917-1.3,1.696-2.229,2.276-1.081.674-2.609,1.02-3.852,1.02-.038,0-.41,0-.69,0,.361,2.264,2.327,3.999,4.69,3.999,1.751,0,3.284-.953,4.108-2.368.045.189.367,1.471.735,2.935.643-.839,1.603-1.407,2.7-1.533-.687-2.856-1.281-5.297-1.34-5.484-.855-2.722-3.348-4.55-6.202-4.55S3.652,1.829,2.798,4.55c-.017.054-.058.211-.117.45h2.088c1.25,0,2.214-.212,3.025-.717Zm2.206,13.573v-.55l.964-3.073c-.634-.143-1.288-.232-1.964-.232C4.043,14,.009,18.028,0,22.983c-.001.557.443,1.017,1,1.017h11.184c-.112-.314-.184-.648-.184-1,0-.503.136-.97.356-1.387-1.402-.658-2.356-2.108-2.356-3.758Z"/>
</svg>
