<?xml version="1.0" encoding="UTF-8"?>
<svg xmlns="http://www.w3.org/2000/svg" id="Layer_1" data-name="Layer 1" viewBox="0 0 24 24">
  <path d="m23.53,6.77c-.353-.421-.87-.681-1.418-.713-.759-.045-2.074-.214-2.927-.828l1.521-1.521c.391-.391.391-1.023,0-1.414s-1.023-.391-1.414,0l-1.542,1.542-1.946-1.952c-.566-.569-1.32-.882-2.123-.883h-.003c-.801,0-1.554.312-2.121.879l-1.678,1.678c-1.167,1.167-1.169,3.068-.004,4.239l3.101,3.11c.806.807,1.02,2.363,1.075,3.218.036.545.296,1.059.716,1.409.362.302.821.466,1.289.466.076,0,.151-.004.227-.013,4.195-.482,7.219-3.504,7.705-7.698.063-.545-.103-1.099-.456-1.52Zm-11.881,4.581c.391.391.391,1.023,0,1.414L1.707,22.707c-.195.195-.451.293-.707.293s-.512-.098-.707-.293c-.391-.391-.391-1.023,0-1.414l9.942-9.942c.391-.391,1.023-.391,1.414,0Z"/>
</svg>
