<?xml version="1.0" encoding="UTF-8"?>
<svg xmlns="http://www.w3.org/2000/svg" id="Layer_1" data-name="Layer 1" viewBox="0 0 24 24">
  <path d="m13,13.75c0,.827-.673,1.5-1.5,1.5s-1.5-.673-1.5-1.5.673-1.5,1.5-1.5,1.5.673,1.5,1.5Zm11-1.75c0,6.617-5.383,12-12,12S0,18.617,0,12,5.383,0,12,0s12,5.383,12,12Zm-18-3.693c0-.542-.326-1.019-.83-1.216-.504-.198-1.067-.068-1.439.334l-1.732,1.901c-.372.408-.343,1.041.065,1.413.411.373,1.042.342,1.413-.065l.523-.575v5.901c0,.553.447,1,1,1s1-.447,1-1v-7.693Zm9,5.443c0-1.93-1.57-3.5-3.5-3.5-.532,0-1.032.129-1.484.342.082-1.028.935-1.842,1.984-1.842h1c.553,0,1-.447,1-1s-.447-1-1-1h-1c-2.206,0-4,1.794-4,4v3c0,1.93,1.57,3.5,3.5,3.5s3.5-1.57,3.5-3.5Zm7-1.75c0-.553-.447-1-1-1h-1v-1c0-.553-.447-1-1-1s-1,.447-1,1v1h-1c-.553,0-1,.447-1,1s.447,1,1,1h1v1c0,.553.447,1,1,1s1-.447,1-1v-1h1c.553,0,1-.447,1-1Z"/>
</svg>
