<?xml version="1.0" encoding="UTF-8"?>
<svg xmlns="http://www.w3.org/2000/svg" id="Layer_1" data-name="Layer 1" viewBox="0 0 24 24">
  <path d="m4,10c-1.105,0-2-.895-2-2v-2.171c-.505-.178-.958-.491-1.31-.915C.118,4.224-.114,3.316.054,2.425.263,1.318,1.14.383,2.236.099c.751-.194,1.506-.099,2.16.258C5.404-.112,6.596-.112,7.604.356,8.258,0,9.014-.098,9.763.099h0c1.096.284,1.974,1.22,2.182,2.326.168.892-.063,1.799-.636,2.489-.352.424-.805.737-1.31.915v2.171c0,1.105-.895,2-2,2h-4Zm20-5v9.515c0,.163-.013.324-.024.485h-5.976c-1.654,0-3,1.346-3,3v5.976c-.161.011-1.322.024-1.485.024h-4.515c-2.757,0-5-2.243-5-5v-7h4c0,.553.448,1,1,1h10c.553,0,1-.447,1-1s-.447-1-1-1h-8.382c.597-.521,1.035-1.21,1.24-2h7.142c.553,0,1-.447,1-1s-.447-1-1-1h-7c.312-.234.598-.506.85-.81.954-1.15,1.34-2.658,1.061-4.136-.143-.76-.468-1.456-.919-2.055h6.008c2.757,0,5,2.243,5,5Zm-12,11c0-.553-.448-1-1-1h-2c-.552,0-1,.447-1,1s.448,1,1,1h2c.552,0,1-.447,1-1Zm6,1c-.552,0-1,.449-1,1v6l7-7h-6Z"/>
</svg>
