<?xml version="1.0" encoding="UTF-8"?>
<svg xmlns="http://www.w3.org/2000/svg" id="Layer_1" data-name="Layer 1" viewBox="0 0 24 24">
  <path d="m7.998,9h0c-.552,0-1-.448-1-1l.002-7c0-.552.448-1,1-1h0c.552,0,1,.448,1,1l-.002,7c0,.552-.448,1-1,1Zm5-1l.002-5c0-.552-.447-1-1-1h0c-.552,0-1,.447-1,1l-.002,5c0,.552.447,1,1,1h0c.552,0,1-.447,1-1Zm-8,0l.002-3c0-.552-.447-1-1-1h0c-.552,0-1,.447-1,1l-.002,3c0,.552.447,1,1,1h0c.552,0,1-.447,1-1Zm18.34,4.345l-7.702,8.409c-1.894,2.068-4.57,3.246-7.374,3.246h-4.262c-2.209,0-4-1.791-4-4v-5c0-2.209,1.791-4,4-4h7.787c1.374,0,2.46,1.26,2.164,2.685-.193.926-1.004,1.598-1.94,1.732l-4.162.583c-.547.078-.927.585-.848,1.131.078.547.585.926,1.131.848l4.252-.596c2.062-.294,3.617-2.087,3.617-4.17,0-.219-.032-.429-.065-.638l3.541-3.737c.455-.5,1.097-.803,1.794-.835.692-.034,1.363.209,1.878.678,1.052.958,1.138,2.602.189,3.665Z"/>
</svg>
