<?xml version="1.0" encoding="UTF-8"?>
<svg xmlns="http://www.w3.org/2000/svg" id="Layer_1" data-name="Layer 1" viewBox="0 0 24 24">
  <path d="M15,.3c.696,.245,1.341,.627,1.878,1.164l3.657,3.657c.537,.537,.919,1.182,1.164,1.878h-5.7c-.551,0-1-.449-1-1V.3Zm-2.517,13.299c-.496,0-.9,.404-.9,.9v2.999c0,.496,.404,.9,.9,.9s.9-.404,.9-.9v-2.999c0-.496-.404-.9-.9-.9Zm3.517-4.599c-1.654,0-3-1.346-3-3V0H7C4.243,0,2,2.243,2,5v14c0,2.757,2.243,5,5,5h10c2.757,0,5-2.243,5-5V9h-6Zm-6.619,8.972c-.191,1.175-1.215,2.028-2.436,2.028-.664,0-1.301-.196-1.84-.553-.387-.257-.447-.801-.118-1.129l.002-.002c.236-.235,.602-.283,.886-.11,.316,.191,.689,.298,1.07,.298,.604,0,1.031-.404,1.096-.795,.089-.55-.602-.873-.816-.959-.915-.371-1.751-.78-1.753-.78-.692-.484-1.027-1.231-.921-2.049,.111-.845,.674-1.534,1.471-1.796,.839-.277,1.603-.076,2.152,.203,.405,.205,.518,.733,.24,1.093-.203,.263-.559,.358-.863,.225-.306-.134-.71-.226-1.137-.088-.412,.136-.517,.447-.516,.577,.005,.442,.335,.57,.433,.615,.282,.128,.806,.368,1.366,.595,1.461,.591,1.828,1.745,1.685,2.627Zm5.767,2.191c-.312,.312-.818,.312-1.13,0l-.432-.432c-.453,.224-.973,.331-1.537,.226-1.209-.224-2.065-1.313-2.065-2.542v-2.916c0-1.411,1.168-2.548,2.59-2.498,1.354,.048,2.408,1.202,2.408,2.557v2.939c0,.398-.101,.768-.267,1.102l.432,.432c.312,.312,.312,.818,0,1.13Zm4.052-.163h-2.133c-.442,0-.8-.358-.8-.8v-6.401c0-.442,.358-.8,.8-.8h0c.442,0,.8,.358,.8,.8v5.601s.577,0,1.331,0c.442,0,.802,.358,.802,.8s-.358,.8-.8,.8Z"/>
</svg>
