<?xml version="1.0" encoding="UTF-8"?>
<svg xmlns="http://www.w3.org/2000/svg" id="Layer_1" data-name="Layer 1" viewBox="0 0 24 24">
  <path d="m6.5,0C2.916,0,0,2.916,0,6.5s2.916,6.5,6.5,6.5,6.5-2.916,6.5-6.5S10.084,0,6.5,0Zm13.5,12h-4c-2.206,0-4,1.794-4,4v4c0,2.206,1.794,4,4,4h4c2.206,0,4-1.794,4-4v-4c0-2.206-1.794-4-4-4Zm-11.567,6.607c.761.762.761,2.023-.013,2.798l-2.199,2.288c-.196.204-.458.307-.721.307-.249,0-.499-.093-.693-.279-.397-.383-.41-1.016-.027-1.414l1.256-1.307h-2.035c-2.206,0-4-1.794-4-4v-2c0-.553.447-1,1-1s1,.447,1,1v2c0,1.103.897,2,2,2h2.029l-1.25-1.307c-.383-.398-.37-1.031.027-1.414.399-.384,1.032-.371,1.414.027l2.212,2.301Zm15.567-11.607v2c0,.553-.447,1-1,1s-1-.447-1-1v-2c0-1.103-.897-2-2-2h-2.029l1.25,1.307c.383.398.37,1.031-.027,1.414-.194.187-.444.279-.693.279-.263,0-.524-.103-.721-.307l-2.212-2.301c-.761-.762-.761-2.023.013-2.798l2.199-2.288c.382-.397,1.015-.41,1.414-.027.397.383.41,1.016.027,1.414l-1.256,1.307h2.035c2.206,0,4,1.794,4,4Z"/>
</svg>
