<?xml version="1.0" encoding="UTF-8"?>
<svg xmlns="http://www.w3.org/2000/svg" id="Layer_1" data-name="Layer 1" viewBox="0 0 24 24">
  <path d="m8.038,5.186v-2.496c0-.862.552-1.627,1.371-1.898L11.567.076c.306-.101.636-.101.942,0l2.158.716c.818.271,1.371,1.036,1.371,1.898v2.496c0,2.287-1.775,3.801-3.027,4.559-.581.352-1.309.343-1.873-.036-1.256-.843-3.1-2.47-3.1-4.523Zm14.962,5.814h-3.431c-.742,0-1.476-.134-2.166-.406-.439-.173-.952-.339-1.44-.453-1.13,1.099-2.426,1.709-3.03,1.952-.76.321-1.56.142-1.56.142l-2.031,1.99c-.371.372-.455.967-.181,1.347.18.25.441.4.739.425.295.025.581-.082.788-.29l2.309-2.142,7.188,6.436h2.814c.552,0,1-.448,1-1v-7c0-.552-.448-1-1-1Zm-10.928,6.15c-.535.538-1.292.85-2.084.85-.871-.071-1.931-.538-2.451-1.262-.843-1.167-.678-2.857.389-3.926l1.644-1.605c-.435-.297-.907-.665-1.364-1.102-.481.107-.994.279-1.447.46-.713.285-1.47.434-2.238.434H1c-.552,0-1,.448-1,1v7c0,.552.448,1,1,1h3.155c.892,0,1.758.298,2.461.847l2.98,2.326c.687.536,1.533.827,2.404.827s1.717-.291,2.404-.827l3.381-2.639-4.778-4.279-.935.895Z"/>
</svg>
