<?xml version="1.0" encoding="UTF-8"?>
<svg xmlns="http://www.w3.org/2000/svg" id="Layer_1" data-name="Layer 1" viewBox="0 0 24 24">
  <path d="M14.734,23.93c-.548,.105-1.136,.097-1.744-.061-.959-.249-1.773-.91-2.311-1.741-.843-1.303-.793-2.461-.431-3.47-.757-.642-1.247-1.588-1.247-2.658,0-1.237,.645-2.318,1.614-2.941-.228-.882-.222-1.854,1.051-3.123,.602-.601,1.407-.977,2.257-.931,.34,.018,.666,.09,.97,.206,.375,.143,.609,.522,.609,.924v12.823c0,.462-.312,.886-.766,.973Zm3.532,0c.548,.105,1.136,.097,1.744-.061,.959-.249,1.773-.91,2.311-1.741,.843-1.303,.793-2.461,.431-3.47,.757-.642,1.247-1.588,1.247-2.658,0-1.237-.645-2.318-1.614-2.941,.228-.882,.222-1.854-1.051-3.123-.602-.601-1.407-.977-2.257-.931-.34,.018-.666,.09-.97,.206-.375,.143-.609,.522-.609,.924v12.823c0,.462,.312,.886,.766,.973ZM8.505,12.227c.009-1.328,.587-2.55,1.748-3.707,1.038-1.034,2.413-1.573,3.776-1.512,.535,.027,1.067,.141,1.576,.335,.229,.087,.436,.211,.632,.35,.926-1.997,1.102-3.98-.024-5.67-.424-.637-1.021-1.154-1.726-1.493-.735-.354-1.497-.53-2.239-.53-.858,0-1.693,.235-2.436,.702-.531,.334-.972,.762-1.304,1.252-.333-.49-.773-.918-1.304-1.252C5.816-.169,4.112-.233,2.528,.53c-.705,.339-1.302,.855-1.727,1.493-2.476,3.718,1.304,8.859,5.667,12.429,.205,.168,.429,.295,.661,.405,.21-.988,.681-1.898,1.377-2.63Z"/>
</svg>
