<?xml version="1.0" encoding="UTF-8"?>
<svg xmlns="http://www.w3.org/2000/svg" id="Layer_1" data-name="Layer 1" viewBox="0 0 24 24">
  <path d="M17.974,5.14c-.331-.066-.602-.274-.742-.569C15.682,1.3,12.089-.524,8.497,.132,5.226,.731,2.66,3.344,2.113,6.633c-.162,.97-.15,1.942,.033,2.89,.06,.308-.072,.654-.345,.901-1.145,1.041-1.801,2.524-1.801,4.07,0,2.511,1.696,4.626,4,5.282v-4.276c0-2.481,2.019-4.5,4.5-4.5h1.786c.532,0,1.055,.142,1.513,.41l1.012,.59h2.689c2.129,0,4.074,1.514,4.5,3.6v3.497c2.37-1.26,4-3.735,4-6.602,0-3.565-2.534-6.658-6.026-7.354Zm-2.867,4.849c-.535,.08-1.055-.299-1.132-.848-.175-1.221-1.239-2.142-2.475-2.142-.428,0-.839,.115-1.204,.317l.499,.499c.437,.437,.128,1.184-.49,1.184h-2.594c-.393,0-.711-.318-.711-.711v-2.594c0-.618,.747-.927,1.184-.49l.666,.666c.761-.555,1.684-.871,2.65-.871,2.225,0,4.14,1.659,4.455,3.858,.078,.547-.302,1.054-.849,1.132Zm-9.106,6.01v-.5c0-1.378,1.122-2.5,2.5-2.5h1.786c.177,0,.351,.047,.504,.136l1.481,.864h3.229c1.208,0,2.217,.86,2.449,2H6Zm12,2v3c0,1.654-1.346,3-3,3h-6c-1.654,0-3-1.346-3-3v-3h12Z"/>
</svg>
