<?xml version="1.0" encoding="UTF-8"?>
<svg xmlns="http://www.w3.org/2000/svg" id="Layer_1" data-name="Layer 1" viewBox="0 0 24 24">
  <path d="M19.5,5H4.5C2.015,5,0,7.015,0,9.5v4c0,2.485,2.015,4.5,4.5,4.5h15c2.485,0,4.5-2.015,4.5-4.5v-4c0-2.485-2.015-4.5-4.5-4.5ZM6.7,9.6h-.395v4.601c0,.442-.358,.8-.8,.8s-.8-.358-.8-.8v-4.601h-.405c-.442,0-.8-.358-.8-.8s.358-.8,.8-.8h2.4c.442,0,.8,.358,.8,.8s-.358,.8-.8,.8Zm3.399,4.601c0,.442-.358,.8-.8,.8s-.8-.358-.8-.8v-5.4c0-.442,.358-.8,.8-.8s.8,.358,.8,.8v5.4Zm3.65-1.7h-.65v1.7c0,.442-.358,.8-.8,.8s-.8-.358-.8-.8v-5.4c0-.442,.358-.8,.8-.8h1.45c1.243,0,2.25,1.007,2.25,2.25s-1.007,2.25-2.25,2.25Zm4.911,2.557c-.597,0-1.168-.24-1.599-.489-.421-.243-.5-.82-.176-1.184l.028-.032c.239-.268,.636-.35,.947-.17,.261,.151,.557,.275,.799,.275,.075,0,.739-.016,.739-.534,0-.253-.308-.44-1.042-.792-.815-.391-1.933-.925-1.933-2.208,0-1.172,.939-2.056,2.185-2.056,.458,0,.915,.18,1.285,.381,.431,.235,.531,.81,.214,1.185l-.028,.033c-.244,.288-.652,.349-.985,.171-.189-.101-.37-.171-.486-.171-.06,0-.585,.013-.585,.456,0,.256,.405,.469,1.023,.765,.823,.394,1.951,.933,1.951,2.235,0,1.386-1.205,2.134-2.339,2.134Zm-4.261-4.807c0,.358-.292,.65-.65,.65h-.65v-1.3h.65c.358,0,.65,.292,.65,.65Z"/>
</svg>
