<?xml version="1.0" encoding="UTF-8"?>
<svg xmlns="http://www.w3.org/2000/svg" id="Layer_1" data-name="Layer 1" viewBox="0 0 24 24">
  <path d="m22.364,19.763l1.302,1.208c.446.446.446,1.17,0,1.616l-.522.6c-.551.552-1.277.813-2,.813-3.714,0-9.143-5.143-9.143-9.143,0-.723.261-1.449.813-2l.6-.522c.446-.446,1.17-.446,1.616,0l1.208,1.302c.446.446.446,1.17,0,1.616l-1.025,1.036c.901,2.244,2.429,3.71,4.5,4.5l1.036-1.025c.446-.446,1.17-.446,1.616,0ZM9,3.5c0-1.93-1.57-3.5-3.5-3.5S2,1.57,2,3.5s1.57,3.5,3.5,3.5,3.5-1.57,3.5-3.5Zm9,0c0-1.93-1.57-3.5-3.5-3.5s-3.5,1.57-3.5,3.5,1.57,3.5,3.5,3.5,3.5-1.57,3.5-3.5ZM5.148,14H1.006c-.541,0-1.003-.431-1.006-.972-.017-3.013,2.648-5.419,5.742-4.971-.76.943-1.218,2.14-1.218,3.443,0,.886.227,1.737.623,2.5Zm4.963,2h-.611c-2.765,0-5.515,2.257-5.5,5.025.003.541.465.972,1.006.972h8.407c-1.69-1.782-2.947-3.934-3.301-5.997Zm-.111-1s.007-.001.01-.001c-.001-.047-.01-.095-.01-.142,0-1.301.497-2.514,1.4-3.416l.66-.581c.338-.32.746-.538,1.18-.673-.521-1.281-1.774-2.188-3.24-2.188-1.93,0-3.5,1.57-3.5,3.5s1.57,3.5,3.5,3.5Z"/>
</svg>
