<?xml version="1.0" encoding="UTF-8"?>
<svg xmlns="http://www.w3.org/2000/svg" id="Layer_1" data-name="Layer 1" viewBox="0 0 24 24">
  <path d="m22.987,6.059c-.074-.75-.477-1.419-1.104-1.836l-5.065-3.378C15.692.095,14.342-.17,13.021.102c-1.325.271-2.469,1.052-3.219,2.197-.787,1.202-.983,2.687-.594,4.08l-2.157,2.157c-1.322,1.322-2.051,3.08-2.051,4.95v8.515H1c-.553,0-1,.447-1,1s.447,1,1,1h10c.553,0,1-.447,1-1s-.447-1-1-1h-4v-8.515c0-1.336.521-2.592,1.465-3.536l1.68-1.68,3.077,4.615c.417.628,1.087,1.03,1.837,1.104.084.009.167.013.25.013.662,0,1.296-.261,1.769-.734l.835-.835c.982.809,2.437.755,3.355-.163s.973-2.373.163-3.355l.834-.834c.533-.533.797-1.27.722-2.02Z"/>
</svg>
