<?xml version="1.0" encoding="UTF-8"?>
<svg xmlns="http://www.w3.org/2000/svg" id="Layer_1" data-name="Layer 1" viewBox="0 0 24 24">
  <path d="m24,11.5v3c0,.828-.672,1.5-1.5,1.5h-1c-.828,0-1.5-.672-1.5-1.5v-3c0-.653.417-1.208,1-1.414v-5.586c0-1.379-1.121-2.5-2.5-2.5h-6c-1.207,0-2.217.86-2.45,2h3.95c2.209,0,4,1.791,4,4v7H0v-7c0-2.209,1.791-4,4-4h4.028c.25-2.247,2.16-4,4.472-4h6c2.481,0,4.5,2.019,4.5,4.5v5.586c.583.206,1,.761,1,1.414ZM0,17h18v3c0,2.209-1.791,4-4,4H4c-2.209,0-4-1.791-4-4v-3Zm13,3.5c0,.83.67,1.5,1.5,1.5s1.5-.67,1.5-1.5-.67-1.5-1.5-1.5-1.5.67-1.5,1.5Zm-4,0c0,.83.67,1.5,1.5,1.5s1.5-.67,1.5-1.5-.67-1.5-1.5-1.5-1.5.67-1.5,1.5Z"/>
</svg>
