<?xml version="1.0" encoding="UTF-8"?>
<svg xmlns="http://www.w3.org/2000/svg" id="Layer_1" data-name="Layer 1" viewBox="0 0 24 24">
  <path d="m18,14.102c0,.499-.372.922-.866.988-5.52.732-4.89,3.91-9.287,3.91h0c-1.021-.005-1.846-.835-1.846-1.856v-6.18c0-.525.412-.959.936-.994,5.446-.369,4.839-3.97,9.218-3.97h.028c1.006.006,1.818.823,1.818,1.828v6.274Zm-14-3.138c0-1.571,1.23-2.884,2.802-2.99.421-.028.777-.084,1.105-.152-.263-1.092-1.119-1.971-2.255-2.227-1.245-.28-3.327-.673-4.633-1.128-.647-.226-1.237.458-.94,1.076,1.082,2.258,2.921,3.77,2.921,3.77,0,0-1.571,1.382-2.683,2.476-.465.458-.365,1.234.213,1.536.739.385,2.026.837,3.47,1.142v-3.503Zm19.921,9.518c-1.082-2.258-2.921-3.769-2.921-3.769,0,0,1.572-1.382,2.684-2.476.465-.458.365-1.234-.213-1.536-.739-.385-2.026-.837-3.47-1.142v2.543c0,1.496-1.119,2.773-2.603,2.971-.54.072-.996.168-1.397.284v.147c0,1.407.976,2.618,2.349,2.927,1.245.28,3.326.673,4.632,1.128.647.226,1.237-.458.941-1.077Z"/>
</svg>
