<?xml version="1.0" encoding="UTF-8"?>
<svg xmlns="http://www.w3.org/2000/svg" id="Layer_1" data-name="Layer 1" viewBox="0 0 24 24">
  <path d="m6,0C2.686,0,0,2.686,0,6s2.686,6,6,6,6-2.686,6-6S9.314,0,6,0Zm3.692,5.722l-2.712,2.605c-.452.446-1.052.671-1.653.671s-1.204-.225-1.664-.674l-1.132-1.108c-.395-.387-.401-1.02-.015-1.414.386-.395,1.019-.401,1.414-.016l1.132,1.108c.144.142.379.141.522,0l2.723-2.614c.398-.381,1.032-.37,1.414.029.383.398.37,1.031-.029,1.414Zm3.577,9.759c-.813.813-1.27,1.915-1.27,3.065v1.455h1.455c1.15,0,2.252-.457,3.065-1.27l6.807-6.807c.897-.897.897-2.353,0-3.25-.897-.897-2.353-.897-3.25,0l-6.807,6.807Zm7.73,1.598v2.922c0,2.209-1.791,4-4,4H7c-2.209,0-4-1.791-4-4v-6.589c.927.377,1.939.589,3,.589,4.411,0,8-3.589,8-8,0-.339-.028-.672-.069-1h3.069c1.193,0,2.254.536,2.987,1.367-.48.209-.933.5-1.325.892l-6.808,6.808c-1.187,1.188-1.855,2.798-1.855,4.478v1.455c0,1.105.895,2,2,2h1.455c1.679,0,3.29-.667,4.478-1.855l3.067-3.067Z"/>
</svg>
