<?xml version="1.0" encoding="UTF-8"?>
<svg xmlns="http://www.w3.org/2000/svg" id="Layer_1" data-name="Layer 1" viewBox="0 0 24 24">
  <path d="m22.049,3.846l-4.571-3.084c-1.506-1.016-3.449-1.016-4.955,0l-4.571,3.084c-1.222.825-1.951,2.198-1.951,3.672v1.743c0,.397.235.757.6.916,3.242,1.418,5.81,3.985,7.228,7.228.159.364.519.6.916.6h5.209c2.232,0,4.048-1.815,4.048-4.048v-6.438c0-1.474-.729-2.847-1.951-3.672Zm-5.049,8.154c0,.552-.448,1-1,1h-2c-.552,0-1-.448-1-1v-2c0-.552.448-1,1-1h2c.552,0,1,.448,1,1v2ZM1.5,21c.828,0,1.5.672,1.5,1.5s-.672,1.5-1.5,1.5-1.5-.672-1.5-1.5.672-1.5,1.5-1.5Zm5.5,3c-.553,0-1-.447-1-1,0-2.757-2.243-5-5-5-.553,0-1-.447-1-1s.447-1,1-1c3.859,0,7,3.141,7,7,0,.553-.447,1-1,1Zm5,0c-.553,0-1-.447-1-1,0-5.514-4.486-10-10-10-.553,0-1-.447-1-1s.447-1,1-1c6.617,0,12,5.383,12,12,0,.553-.447,1-1,1Z"/>
</svg>
