<?xml version="1.0" encoding="UTF-8"?>
<svg xmlns="http://www.w3.org/2000/svg" id="Layer_1" data-name="Layer 1" viewBox="0 0 24 24">
  <path d="m13.229,5.904c0,.398-.349.735-.762.735l-.71.003-.005-1.473h.715c.413,0,.762.336.762.735Zm4.771,13.096v4.54c.913-.347,1.753-.879,2.465-1.591l1.484-1.485c.712-.711,1.245-1.551,1.591-2.465h-4.54c-.552,0-1,.449-1,1Zm6-14v10.515c0,.163-.013.324-.024.485h-4.976c-1.654,0-3,1.346-3,3v4.976c-.161.011-.322.024-.485.024H5c-2.757,0-5-2.243-5-5V5C0,2.243,2.243,0,5,0h14c2.757,0,5,2.243,5,5Zm-14.737,4.338l-.338-4.659c-.032-.535-.358-.759-.749-.759-.26,0-.501.184-.638.486l-.883,1.942-.883-1.942c-.137-.302-.378-.486-.638-.486-.391,0-.717.224-.749.759l-.338,4.659c-.025.352.253.651.605.651.318,0,.582-.246.605-.563l.201-2.776.644,1.416c.216.474.889.474,1.105,0l.644-1.416.201,2.776c.023.317.287.563.605.563.352,0,.631-.299.605-.651Zm5.216-3.433c0-1.094-.902-1.985-2.012-1.985h-1.342c-.345,0-.625.28-.625.625v4.819c0,.345.28.625.625.625s.625-.28.625-.625v-1.471l.717-.003c1.109,0,2.012-.891,2.012-1.985Zm4.318,1.055c.283-.322.46-.736.46-1.194,0-1.01-.833-1.832-1.857-1.832l-1.374-.002c-.355,0-.644.287-.644.643s.288.643.643.643h1.375c.316,0,.573.246.573.548s-.257.548-.573.548h-.497c-.358-.001-.649.289-.649.647s.29.648.648.648h.488c.316,0,.573.246.573.548s-.257.548-.573.548h-1.381c-.357,0-.647.29-.647.647s.29.647.647.647h1.381c1.03,0,1.868-.827,1.868-1.843,0-.459-.177-.875-.46-1.198Z"/>
</svg>
