<?xml version="1.0" encoding="UTF-8"?>
<svg xmlns="http://www.w3.org/2000/svg" id="Layer_1" data-name="Layer 1" viewBox="0 0 24 24">
  <path d="M19.5,24H4.5c-2.481,0-4.5-2.019-4.5-4.5v-3.5c0-.553,.448-1,1-1s1,.447,1,1v3.5c0,1.379,1.122,2.5,2.5,2.5h15c1.379,0,2.5-1.121,2.5-2.5v-3.5c0-.553,.447-1,1-1s1,.447,1,1v3.5c0,2.481-2.019,4.5-4.5,4.5Zm-2.526-8.988l.022-2.038h2.074c1.227-.006,2.277-.714,2.744-1.849s.217-2.377-.629-3.222L14.839,1.158c-.007-.008-.015-.015-.021-.022-1.548-1.547-4.068-1.545-5.641,.027L2.896,7.908c-.869,.868-1.118,2.111-.651,3.246,.467,1.134,1.519,1.841,2.75,1.846h2.054l-.005,2c0,2.191,1.783,3.974,3.974,3.974h1.982c2.191,0,3.974-1.782,3.974-3.962Z"/>
</svg>
