<?xml version="1.0" encoding="UTF-8"?>
<svg xmlns="http://www.w3.org/2000/svg" id="Layer_1" data-name="Layer 1" viewBox="0 0 24 24">
  <path d="m7.01,6.469L5.835.965c-.106-.497.273-.965.781-.965.377,0,.702.263.781.631,0,0,1.212,5.635,1.231,5.677.02-.047,1.174-5.669,1.174-5.669.076-.372.403-.639.783-.639h.002c.505,0,.883.463.783.958l-1.113,5.467c-.126.647-.486,1.175-.961,1.412-.215.108-.442.162-.667.162-.262,0-.521-.073-.758-.218-.437-.268-.752-.752-.86-1.313Zm-4.768,1.518c1.496.15,2.758-1.021,2.758-2.487V.799c0-.441-.358-.799-.799-.799h-.003c-.441,0-.799.358-.799.799v4.701c0,.496-.404.9-.9.9s-.9-.404-.9-.9V.799c0-.441-.358-.799-.799-.799h-.003c-.441,0-.799.358-.799.799v4.559c0,1.308.941,2.499,2.242,2.63ZM22,0h-4c-.553,0-1,.448-1,1s.447,1,1,1h2.573l-6.78,6.707c-.392.389-1.026.39-1.415,0-.391-.391-1.023-.391-1.414,0s-.391,1.023,0,1.414c.585.585,1.354.878,2.123.878s1.534-.292,2.116-.874l6.797-6.724v2.599c0,.552.447,1,1,1s1-.448,1-1V2c0-1.103-.897-2-2-2ZM1.5,21c-.828,0-1.5.672-1.5,1.5s.672,1.5,1.5,1.5,1.5-.672,1.5-1.5-.672-1.5-1.5-1.5Zm10.5,0c-.828,0-1.5.672-1.5,1.5s.672,1.5,1.5,1.5,1.5-.672,1.5-1.5-.672-1.5-1.5-1.5Zm10.5,0c-.828,0-1.5.672-1.5,1.5s.672,1.5,1.5,1.5,1.5-.672,1.5-1.5-.672-1.5-1.5-1.5Zm.5-9H1c-.552,0-1,.448-1,1,0,.018.009.033.01.051h-.01v4.684c0,.74.791,1.253,1.442.901.137-.074.268-.159.391-.253.673-.513,1.66-.513,2.334,0,.507.386,1.143.616,1.833.616s1.326-.23,1.833-.616c.673-.513,1.66-.513,2.334,0,.507.386,1.143.616,1.833.616s1.326-.23,1.833-.616c.673-.513,1.66-.513,2.334,0,.507.386,1.143.616,1.833.616s1.326-.23,1.833-.616c.673-.513,1.66-.513,2.334,0,.123.094.254.178.391.253.651.352,1.442-.161,1.442-.901v-4.684h-.01c0-.018.01-.033.01-.051,0-.552-.447-1-1-1Z"/>
</svg>
