<?xml version="1.0" encoding="UTF-8"?>
<svg xmlns="http://www.w3.org/2000/svg" id="Layer_1" data-name="Layer 1" viewBox="0 0 24 24">
  <path d="m24,15.8v6.4c0,.442-.358.8-.8.8s-.8-.358-.8-.8v-1.2h-1.4c-1.105,0-2-.895-2-2v-3.2c0-.442.358-.8.8-.8s.8.358.8.8v3.4c0,.111.09.2.2.2h1.601v-3.601c0-.442.358-.8.8-.8s.8.358.8.8Zm-12.8-.8c-.442,0-.8.358-.8.8v3.601h-1.601c-.111,0-.2-.09-.2-.2v-3.4c0-.442-.358-.8-.8-.8s-.8.358-.8.8v3.2c0,1.105.895,2,2,2h1.4v1.2c0,.442.358.8.8.8s.8-.358.8-.8v-6.4c0-.442-.358-.8-.8-.8Zm4.3,1.6c-.496,0-.9.404-.9.9v3c0,.496.404.9.9.9s.9-.404.9-.9v-3c0-.496-.404-.9-.9-.9m0-1.6c1.378,0,2.5,1.122,2.5,2.5v3c0,1.378-1.122,2.5-2.5,2.5s-2.5-1.122-2.5-2.5v-3c0-1.378,1.122-2.5,2.5-2.5h0ZM0,8v-2C0,3.243,2.243,1,5,1h14c2.757,0,5,2.243,5,5v2H0Zm7-3.5c0,.828.672,1.5,1.5,1.5s1.5-.672,1.5-1.5-.672-1.5-1.5-1.5-1.5.672-1.5,1.5Zm-4,0c0,.828.672,1.5,1.5,1.5s1.5-.672,1.5-1.5-.672-1.5-1.5-1.5-1.5.672-1.5,1.5ZM0,10v8c0,2.282,1.542,4.273,3.75,4.842.083.021.166.032.25.032.219,0,.436-.072.613-.209.244-.189.387-.481.387-.791v-5.874c0-1.654,1.346-3,3-3h15c.552,0,1-.448,1-1v-2H0Z"/>
</svg>
