<?xml version="1.0" encoding="UTF-8"?>
<svg xmlns="http://www.w3.org/2000/svg" id="Layer_1" data-name="Layer 1" viewBox="0 0 24 24">
  <path d="M14.019,7V.46c.913,.346,1.753,.879,2.465,1.59l3.484,3.486c.712,.711,1.245,1.551,1.591,2.464h-6.54c-.552,0-1-.449-1-1Zm7.976,3h-6.976c-1.654,0-3-1.346-3-3V.024c-.161-.011-.322-.024-.485-.024H7.019C4.262,0,2.019,2.243,2.019,5v14c0,2.757,2.243,5,5,5h10c2.757,0,5-2.243,5-5V10.485c0-.163-.013-.324-.024-.485Zm-6.289,9.293c.391,.391,.391,1.023,0,1.414-.195,.195-.451,.293-.707,.293s-.512-.098-.707-.293l-2.293-2.293-2.293,2.293c-.195,.195-.451,.293-.707,.293s-.512-.098-.707-.293c-.391-.391-.391-1.023,0-1.414l2.293-2.293-2.293-2.293c-.391-.391-.391-1.023,0-1.414s1.023-.391,1.414,0l2.293,2.293,2.293-2.293c.391-.391,1.023-.391,1.414,0s.391,1.023,0,1.414l-2.293,2.293,2.293,2.293Z"/>
</svg>
