<?xml version="1.0" encoding="UTF-8"?>
<svg xmlns="http://www.w3.org/2000/svg" id="Layer_1" data-name="Layer 1" viewBox="0 0 24 24">
  <path d="m24,6.5c0,.828-.672,1.5-1.5,1.5s-1.5-.672-1.5-1.5.672-1.5,1.5-1.5,1.5.672,1.5,1.5Zm-8.5-3.5c.828,0,1.5-.672,1.5-1.5s-.672-1.5-1.5-1.5-1.5.672-1.5,1.5.672,1.5,1.5,1.5Zm.945,4.832c.17.114.363.168.554.168.323,0,.64-.156.833-.445l4-6c.306-.459.182-1.081-.277-1.387-.46-.308-1.081-.183-1.387.277l-4,6c-.306.459-.182,1.081.277,1.387Zm-10.695.168c3.176,0,5.75-1.343,5.75-3s-2.574-3-5.75-3S0,3.343,0,5s2.574,3,5.75,3Zm0,8c3.278,0,5.75-1.505,5.75-3.5v-2c0,1.971-2.396,3.5-5.75,3.5S0,12.471,0,10.5v2c0,1.995,2.472,3.5,5.75,3.5Zm0-4c3.278,0,5.75-1.505,5.75-3.5v-2c0,1.971-2.396,3.5-5.75,3.5S0,8.471,0,6.5v2c0,1.995,2.472,3.5,5.75,3.5Zm11.5-2c-3.176,0-5.75,1.343-5.75,3s2.574,3,5.75,3,5.75-1.343,5.75-3-2.574-3-5.75-3Zm0,12c-3.354,0-5.75-1.529-5.75-3.5,0,1.971-2.396,3.5-5.75,3.5s-5.75-1.529-5.75-3.5v2c0,1.995,2.472,3.5,5.75,3.5s5.75-1.505,5.75-3.5c0,1.995,2.472,3.5,5.75,3.5s5.75-1.505,5.75-3.5v-2c0,1.971-2.396,3.5-5.75,3.5Zm0-4c-3.354,0-5.75-1.529-5.75-3.5,0,1.971-2.396,3.5-5.75,3.5s-5.75-1.529-5.75-3.5v2c0,1.995,2.472,3.5,5.75,3.5s5.75-1.505,5.75-3.5c0,1.995,2.472,3.5,5.75,3.5s5.75-1.505,5.75-3.5v-2c0,1.971-2.396,3.5-5.75,3.5Z"/>
</svg>
