<?xml version="1.0" encoding="UTF-8"?>
<svg xmlns="http://www.w3.org/2000/svg" id="Layer_1" data-name="Layer 1" viewBox="0 0 24 24">
  <path d="m8.04,11.856l-.826-.631c-.717-.547-1.711-.547-2.428,0l-.826.631-2.202,1.901c-2.339,2.339-2.339,6.146,0,8.485,1.133,1.133,2.64,1.757,4.242,1.757s3.109-.624,4.243-1.757c2.339-2.339,2.339-6.146-.054-8.536l-2.148-1.851Zm14.321-3.272l-1.947-1.798-.526-.506c-.774-.744-1.997-.745-2.771-.002l-.509.488-1.996,1.845c-1.039,1.039-1.611,2.42-1.611,3.889s.572,2.851,1.611,3.889c1.039,1.039,2.42,1.611,3.889,1.611s2.85-.572,3.889-1.611c2.145-2.145,2.145-5.634-.028-7.806ZM12.862,2.207l-1.5-1.603c-.737-.787-1.986-.788-2.723,0l-1.468,1.568c-.756.755-1.172,1.76-1.172,2.828s.416,2.073,1.171,2.828,1.76,1.172,2.829,1.172,2.073-.416,2.829-1.172c1.56-1.56,1.56-4.097.034-5.621Z"/>
</svg>
