<?xml version="1.0" encoding="UTF-8"?>
<svg xmlns="http://www.w3.org/2000/svg" id="Layer_1" data-name="Layer 1" viewBox="0 0 24 24">
  <path d="m21,12h-9c-1.657,0-3,1.343-3,3v6c0,1.657,1.343,3,3,3h9c1.657,0,3-1.343,3-3v-6c0-1.657-1.343-3-3-3Zm-5.804,5c-.806,0-.809-.674-.833-.755-.11-.372-.456-.645-.863-.645-.496,0-.9.404-.9.9v3c0,.496.404.9.9.9.411,0,.758-.276.866-.653.022-.079.068-.747.835-.747s.811.705.799.804c-.15,1.237-1.222,2.196-2.5,2.196-1.381,0-2.5-1.119-2.5-2.5v-3c0-1.381,1.119-2.5,2.5-2.5,1.281,0,2.354.963,2.5,2.204.011.097.002.796-.804.796Zm5.81,3.425c-.126.647-.486,1.175-.961,1.412-.215.108-.442.162-.667.162-.262,0-.521-.073-.758-.218-.437-.268-.752-.752-.86-1.313l-1.072-5.253c-.101-.496.278-.96.784-.96h0c.38,0,.708.268.784.64l1.072,5.253c.013.065.031.117.05.159.02-.047.042-.109.057-.188l1.053-5.222c.075-.373.403-.642.784-.642h0c.505,0,.884.463.784.958l-1.051,5.211ZM2,6C2,2.691,4.691,0,8,0s6,2.691,6,6-2.691,6-6,6-6-2.691-6-6Zm6.026,18H1.5c-.828,0-1.5-.672-1.5-1.5v-.218c0-4.136,3.03-7.759,7.098-8.222-.058.305-.098.618-.098.94v6c0,1.13.391,2.162,1.026,3Z"/>
</svg>
