<?xml version="1.0" encoding="UTF-8"?>
<svg xmlns="http://www.w3.org/2000/svg" id="Layer_1" data-name="Layer 1" viewBox="0 0 24 24">
  <path d="m16.286,9.703c-.176,0-.352-.056-.5-.166-.283-.212-.401-.58-.295-.917l.784-2.513-1.981-1.612c-.267-.226-.364-.594-.243-.922.12-.328.433-.546.782-.546h2.501l.885-2.483c.121-.326.433-.542.781-.542s.66.216.781.542l.885,2.483h2.501c.35,0,.663.219.783.548s.022.698-.246.923l-1.971,1.606.815,2.484c.111.336-.002.706-.282.922-.281.216-.667.231-.964.038l-2.295-1.495-2.257,1.51c-.14.094-.302.141-.463.141Zm4.37,5.153c-1.193-1.142-3.09-1.138-4.28.006l-1.906,1.606c-3.198-1.357-5.474-3.637-6.932-6.945l1.6-1.897c.557-.579.863-1.339.863-2.145s-.304-1.559-.857-2.138c0,0-1.852-2.407-1.883-2.438-1.207-1.207-3.17-1.206-4.327-.047l-1.15,1.004C.635,3.012.001,4.565.001,6.238.001,13.874,10.127,24,17.763,24c1.673,0,3.227-.634,4.421-1.833l.912-1.05c1.205-1.207,1.205-3.171,0-4.378-.031-.03-2.439-1.883-2.439-1.883Z"/>
</svg>
