<?xml version="1.0" encoding="UTF-8"?>
<svg xmlns="http://www.w3.org/2000/svg" id="Layer_1" data-name="Layer 1" viewBox="0 0 24 24">
  <path d="M8.5,12c-3.032,0-5.5-2.467-5.5-5.5S5.468,1,8.5,1s5.5,2.467,5.5,5.5-2.468,5.5-5.5,5.5Zm13,0c-.256,0-.486-.156-.58-.393l-.439-1.097-1.099-.463c-.512-.195-.497-.984,.021-1.16l1.082-.41,.433-1.084c.186-.515,.975-.515,1.161,0l.436,1.09,1.09,.436c.515,.186,.515,.975,0,1.161l-1.09,.436-.436,1.09c-.095,.237-.325,.393-.58,.393Zm-3.5-6c-.307,0-.583-.187-.697-.472l-.526-1.316-1.318-.556c-.614-.235-.597-1.181,.026-1.392l1.299-.492,.52-1.301c.223-.618,1.17-.618,1.393,0l.523,1.308,1.308,.523c.618,.223,.618,1.17,0,1.393l-1.308,.523-.523,1.308c-.114,.285-.39,.472-.697,.472Zm5.773,15.196c-.037-.094-1.845-3.027-1.896-3.121-1.931-3.605-5.944-5.6-9.982-4.961-2.481,.393-4.68,1.714-6.192,3.725l-3.643,4.897,1.426-8.572c.091-.545-.277-1.06-.822-1.15-.543-.09-1.061,.277-1.15,.822L.021,21.804c-.125,.837,.305,1.644,1.069,2.008,.765,.363,1.662,.187,2.295-.515l3.918-5.259c.189-.252,.393-.49,.608-.714l2.146,6.012c.142,.398,.519,.664,.941,.664h1.189c-.175-.49-.242-1.03-.131-1.598,.277-1.424,1.61-2.402,3.06-2.402h5.029c.349,0,.673,.182,.854,.48h0c.406,.666-.074,1.52-.854,1.52h-5.148c-.553,0-1,.448-1,1s.447,1,1,1h7c1.397,.044,2.411-1.561,1.773-2.804Z"/>
</svg>
