<?xml version="1.0" encoding="UTF-8"?>
<svg xmlns="http://www.w3.org/2000/svg" id="Layer_1" data-name="Layer 1" viewBox="0 0 24 24">
  <path d="M7.037,19.001c0,2.761-2.239,4.999-5,4.999h-.446c-1.471,0-2.151-1.385-1.038-2.346l1.562-1.462c.654-.731,.922-2.219,.922-3.115v-4.712c0-5.591,3.673-10.68,9.103-12.013,3.415-.839,6.922-.149,9.696,1.76,.066,.046,.165,.121,.283,.213,.875,.69,.989,1.976,.257,2.817h0s-1.37,1.575-1.37,1.575c-1.449-1.632-3.54-2.684-5.856-2.716-3.24-.063-6.234,1.85-7.621,5.105-.36,.844-.492,1.767-.492,2.684,0,1.622,0,4.601,0,7.211Zm10.839-6.001c.718,0,1.38,.385,1.736,1.008l1.542,2.698c.232,.465,.78,.679,1.262,.486,.008-.003,.016-.006,.024-.01,.536-.216,.787-.836,.541-1.36l-1.962-3.617v-.528c-.173-3.058-2.816-5.634-5.897-5.677-.883,0-1.859,.153-2.648,.55-2.184,1.099-3.438,3.174-3.438,5.45v7c0,1.958-.81,3.728-2.111,5h13.385c1.286,0,2.149-1.319,1.634-2.498l-1.926-4.406-4.246-1.786c-.446-.188-.736-.624-.736-1.108h0c0-.664,.538-1.202,1.202-1.202h1.638Z"/>
</svg>
