<?xml version="1.0" encoding="UTF-8"?>
<svg xmlns="http://www.w3.org/2000/svg" id="Layer_1" data-name="Layer 1" viewBox="0 0 24 24">
  <path d="m16,8.7c0,1.502-2.26,3.731-4,5.062-1.74-1.33-4-3.56-4-5.062,0-.938.673-1.7,1.5-1.7.747,0,1.5.449,1.5,1.454v.546c0,.553.447,1,1,1s1-.447,1-1v-.546c0-1.005.753-1.454,1.5-1.454.827,0,1.5.763,1.5,1.7Zm8-4.7v12c0,2.206-1.794,4-4,4h-2.853l-3.847,3.18c-.361.322-.824.484-1.292.484-.476,0-.955-.168-1.337-.508l-3.749-3.156h-2.923c-2.206,0-4-1.794-4-4V4C0,1.794,1.794,0,4,0h16c2.206,0,4,1.794,4,4Zm-6,4.7c0-2.04-1.57-3.7-3.5-3.7-.999,0-1.874.372-2.5.99-.626-.618-1.501-.99-2.5-.99-1.93,0-3.5,1.66-3.5,3.7,0,3.256,4.874,6.735,5.43,7.121.171.119.371.179.57.179s.399-.06.57-.179c.556-.386,5.43-3.865,5.43-7.121Z"/>
</svg>
