<?xml version="1.0" encoding="UTF-8"?>
<svg xmlns="http://www.w3.org/2000/svg" id="Layer_1" data-name="Layer 1" viewBox="0 0 24 24">
  <path d="m24.038,18.5c0,1.381-1.119,2.5-2.5,2.5H2.538c-1.381,0-2.5-1.119-2.5-2.5s1.119-2.5,2.5-2.5h5.651c.589,0,1.147.259,1.527.708l.247.292h4.149l.247-.292c.38-.449.938-.708,1.527-.708h5.652c1.381,0,2.5,1.119,2.5,2.5Zm-15.849-4.5c.983,0,1.92.359,2.646,1h2.404c.726-.641,1.664-1,2.646-1h5.151c.344,0,.677.043,1,.11v-6.11c0-2.757-2.243-5-5-5h-4.038v6.421l2.319-2.154c.403-.376,1.038-.353,1.413.053.376.405.353,1.037-.052,1.413l-2.613,2.426c-.562.561-1.308.843-2.058.843-.759,0-1.522-.288-2.103-.869l-2.587-2.4c-.405-.375-.429-1.008-.053-1.413.375-.405,1.009-.428,1.413-.053l2.32,2.153V3h-3.962c-2.757,0-5,2.243-5,5v6.11c.323-.067.656-.11,1-.11h5.151Z"/>
</svg>
