<?xml version="1.0" encoding="UTF-8"?>
<svg xmlns="http://www.w3.org/2000/svg" id="Layer_1" data-name="Layer 1" viewBox="0 0 24 24">
  <path d="m.007,8.822c-.004.059-.001-.06,0,0H.007Zm23.192,12.173c-.276.478-.887.643-1.365.367l-.544-.314c-.605.652-1.393,1.126-2.289,1.331v.621c0,.552-.448,1-1,1h0c-.552,0-1-.448-1-1v-.621c-.896-.205-1.685-.678-2.289-1.331l-.544.314c-.478.276-1.09.111-1.365-.367-.276-.479-.112-1.09.367-1.366l.55-.317c-.129-.418-.218-.853-.218-1.312s.089-.895.218-1.312l-.55-.317c-.479-.276-.643-.887-.367-1.366.276-.478.887-.643,1.365-.367l.544.314c.605-.652,1.393-1.126,2.289-1.331v-.621c0-.552.448-1,1-1h0c.552,0,1,.448,1,1v.621c.896.205,1.685.678,2.289,1.331l.544-.314c.478-.276,1.09-.111,1.365.367.276.479.112,1.09-.367,1.366l-.55.317c.129.418.218.853.218,1.312s-.089.895-.218,1.312l.55.317c.479.276.643.887.367,1.366Zm-3.699-2.995c0-.827-.673-1.5-1.5-1.5s-1.5.673-1.5,1.5.673,1.5,1.5,1.5,1.5-.673,1.5-1.5Zm-3.5-11c0-2.209-1.791-4-4-4h-.661c.081-.519.162-1.051.161-1.083-.021-1.083-.796-1.875-2.178-1.917-1.08.077-1.894,1.015-1.817,2.096.016.184.075.545.138.904h-.643c-2.209,0-4,1.791-4,4v.659c-.514-.08-1.037-.16-1.068-.159-1.083.021-1.943.917-1.922,2-.038,1.272,1.02,2.072,2.1,1.995.182-.015.535-.073.89-.135v.641c0,2.209,1.791,4,4,4h.803c-.169-.821-.303-1.597-.303-2,0-1.105.895-2,2-2,.926,0,1.698.633,1.925,1.487.954-1.388,2.324-2.466,3.942-3.033.387-.136.633-.519.633-.929v-2.525Z"/>
</svg>
