<?xml version="1.0" encoding="UTF-8"?>
<svg xmlns="http://www.w3.org/2000/svg" id="Layer_1" data-name="Layer 1" viewBox="0 0 24 24">
  <path d="m11.852,13.007c-1.209.173-2.272.877-2.993,1.864-.72.987-1.003,2.201-.797,3.417.065.384.203.739.37,1.08l-2.044,2.297c-.759.853-1.847,1.341-2.989,1.341h-.903c-.276,0-.5-.224-.5-.5v-1.176c0-.98.36-1.926,1.012-2.659L18.136,1.669c.883-.883,2.315-.883,3.198,0,.883.883.883,2.315,0,3.198l-.76.824-6.518,7.315h-2.204Zm-4.361-6.372c-1.31.573-2.465,1.45-3.369,2.559L.51,13.625c-.75.937-.669,2.289.186,3.131.296.292.965.575,1.492.049S13.497,4.007,13.497,4.007l-6.006,2.628Zm16.506,1.271c0-.391-.228-.745-.582-.908l-.929-.427-5.938,6.441h.452c.552-.003,1.001.441,1.006.993.005.554-.44,1.007-.994,1.013l-4.509-.01c-1.381-.003-2.503,1.116-2.503,2.497s1.118,2.497,2.497,2.497h3.003c.936.016,1.872.139,2.772.362l.901.224c1.137.282,2.305.423,3.477.419h.353c.551-.003.997-.45.997-1.001l-.003-12.098Z"/>
</svg>
