<?xml version="1.0" encoding="UTF-8"?>
<svg xmlns="http://www.w3.org/2000/svg" id="Layer_1" data-name="Layer 1" viewBox="0 0 24 24">
  <path d="M12.608,24c-.797,0-1.523-.435-1.9-1.138l-1.628-3.043-3.817,1.442c-.757,.261-1.542,.074-2.081-.476-.538-.55-.708-1.339-.443-2.062,.014-.038,.03-.074,.048-.11l1.771-3.474-3.419-1.411C.443,13.422,.016,12.781,0,12.046c-.016-.735,.385-1.395,1.044-1.72l3.492-1.611L1.341,3.935c-.463-.779-.36-1.686,.229-2.301,.588-.617,1.49-.762,2.241-.361l5.263,2.75,1.535-2.883c.375-.703,1.102-1.14,1.898-1.14s1.522,.436,1.897,1.138l1.633,3.06,4.594-1.967c.654-.278,1.389-.122,1.871,.396,.483,.517,.589,1.259,.27,1.89l-2.343,4.201,2.411,1.287c.701,.374,1.137,1.1,1.137,1.895,0,.795-.435,1.522-1.136,1.897l-2.245,1.2,3.165,5.19c.015,.024,.028,.049,.041,.074,.362,.726,.227,1.567-.347,2.142-.573,.576-1.413,.714-2.141,.354l-5.306-2.825-1.48,2.895c-.367,.716-1.095,1.166-1.899,1.173h-.02Z"/>
</svg>
