<?xml version="1.0" encoding="UTF-8"?>
<svg xmlns="http://www.w3.org/2000/svg" id="Layer_1" data-name="Layer 1" viewBox="0 0 24 24">
  <path d="m19,0C20.381,0,21.5,1.119,21.5,2.5s-1.119,2.5-2.5,2.5-2.5-1.119-2.5-2.5S17.619,0,19,0ZM2.5,2.5c0,1.381,1.119,2.5,2.5,2.5s2.5-1.119,2.5-2.5S6.381,0,5,0s-2.5,1.119-2.5,2.5Zm7.521,10.941c.256,0,.512-.098.707-.293.391-.391.391-1.024,0-1.414l-.696-.734h3.968c.553,0,1-.448,1-1s-.447-1-1-1h-4.006l.734-.734c.391-.39.391-1.023,0-1.414s-1.023-.391-1.414,0l-1.688,1.688c-.805.805-.805,2.115,0,2.92l1.688,1.688c.195.195.451.293.707.293Zm6.353,1.099l-1.688-1.688c-.391-.391-1.023-.391-1.414,0s-.391,1.024,0,1.414l.696.734h-3.968c-.553,0-1,.448-1,1s.447,1,1,1h4.006l-.734.734c-.391.39-.391,1.023,0,1.414.195.195.451.293.707.293s.512-.098.707-.293l1.688-1.688c.805-.805.805-2.115,0-2.92Zm-9.374,1.46c0-.658.219-1.263.58-1.758l-1.368-1.368c-1.584-1.585-1.584-4.164,0-5.748l.938-.938c-.366-.111-.747-.188-1.149-.188h-2C1.794,6,0,7.794,0,10v3c0,1.474.81,2.75,2,3.444v6.556c0,.552.447,1,1,1s1-.448,1-1v-6h2v6c0,.552.447,1,1,1s1-.448,1-1v-4.78c-.609-.549-1-1.337-1-2.22Zm9,4.644v2.356c0,.552.447,1,1,1s1-.448,1-1v-4.385c-.072.085-1.968,2-2,2.029Zm4-14.644h-2c-1.127,0-2.142.472-2.87,1.225,1.095.447,1.87,1.521,1.87,2.775,0,.658-.219,1.263-.58,1.758l1.369,1.369c1.048,1.049,1.387,2.53,1.047,3.874h1.164v6c0,.552.447,1,1,1s1-.448,1-1v-6.556c1.19-.694,2-1.97,2-3.444v-3c0-2.206-1.794-4-4-4Z"/>
</svg>
