<?xml version="1.0" encoding="UTF-8"?>
<svg xmlns="http://www.w3.org/2000/svg" id="Layer_1" data-name="Layer 1" viewBox="0 0 24 24">
  <path d="m8.493,6.898c-.059-.01.058,0,0,0h0Zm7.682,5.436c-.119.215-.152.466-.092.704l.231.909c.081.318-.025.648-.276.863l-1.86,1.593c-.331.283-.748.443-1.183.47v-1.942l.788-.774c.132-.13.206-.305.206-.488,0-.381-.315-.691-.703-.691h-2.57c-.388,0-.703.309-.703.691,0,.183.074.359.206.488l.788.774v1.942c-.435-.027-.852-.187-1.183-.47l-1.86-1.593c-.251-.215-.357-.545-.276-.863l.231-.909c.06-.236.027-.487-.09-.701-.008-.015-.797-1.48-.797-3.266,0-.573.272-1.089.628-1.702.17-.294.492-.47.835-.47.726.127,1.977.423,2.976,1.044.324.202.739.202,1.063,0,.999-.621,2.075-.902,2.802-1.029.404-.073.81.112,1.009.454.356.614.628,1.13.628,1.703,0,1.786-.79,3.251-.796,3.263Zm-5.665-2.531c0-.674-.556-1.221-1.243-1.221s-1.243.547-1.243,1.221.556,1.221,1.243,1.221,1.243-.547,1.243-1.221Zm5.467,0c0-.674-.556-1.221-1.243-1.221s-1.243.547-1.243,1.221.556,1.221,1.243,1.221,1.243-.547,1.243-1.221Zm7.952,2.645v1.671c0,.643-.387,1.225-.985,1.483-.229.098-.476.134-.713.135-.498,1.746-.916,2.917-1.105,3.339l-.619,1.749c-.304.667-.876,1.042-1.527,1.065-.634.004-1.247-.312-1.559-.874v-.003c-1.189.783-2.816,1.816-3.91,2.355-.472.233-.991.35-1.51.35s-1.039-.117-1.512-.351c-1.093-.538-2.72-1.571-3.907-2.354v.003c-.313.562-.905.876-1.56.874-.651-.023-1.223-.399-1.493-.981l-.653-1.832c-.189-.421-.607-1.593-1.106-3.34-.239,0-.484-.037-.713-.135-.598-.258-.985-.84-.985-1.483v-1.671c0-1.503.281-3.036.836-4.575-.217-.099-.406-.252-.549-.45-.331-.458-.363-1.057-.082-1.562.856-1.54,3.092-3.76,5.978-4.994,1.824-.78,3.893-.78,5.746-.013,1.853-.767,3.921-.767,5.746.013,2.493,1.067,4.954,3.142,5.983,5.048.275.509.238,1.107-.095,1.561-.14.191-.322.339-.528.437.546,1.525.822,3.045.822,4.536Zm-5.83.46c.298-.65.86-2.109.86-3.837,0-1.136-.534-2.058-.888-2.669-.615-1.06-1.86-1.627-3.086-1.41-.777.135-1.88.417-2.985.997-1.104-.581-2.208-.862-2.983-.997-1.232-.215-2.473.35-3.087,1.411-.353.61-.888,1.533-.888,2.668,0,1.728.562,3.186.86,3.837l-.144.567c-.263,1.033.082,2.109.899,2.809l1.86,1.593c.725.62,1.652.961,2.612.961h1.743c.96,0,1.887-.341,2.612-.961l1.86-1.593c.817-.699,1.162-1.776.899-2.809l-.144-.567Z"/>
</svg>
