<?xml version="1.0" encoding="UTF-8"?>
<svg xmlns="http://www.w3.org/2000/svg" id="Layer_1" data-name="Layer 1" viewBox="0 0 24 24">
  <path d="M4,2.5c0-1.381,1.119-2.5,2.5-2.5s2.5,1.119,2.5,2.5-1.119,2.5-2.5,2.5-2.5-1.119-2.5-2.5Zm13.5,2.5c1.381,0,2.5-1.119,2.5-2.5s-1.119-2.5-2.5-2.5-2.5,1.119-2.5,2.5,1.119,2.5,2.5,2.5Zm6.5-2.025v3c0,1.103-.897,2-2,2h-1.59l1.557,7.101c.113,.749-.098,1.479-.573,2.03-.476,.553-1.166,.869-1.895,.869h-.049l-.443,1.49,1.813,2.991c.287,.473,.136,1.088-.336,1.374-.162,.098-.341,.145-.518,.145-.338,0-.668-.171-.856-.481l-2.043-3.37c-.109-.179-.136-.385-.121-.59l-1.117,3.728c-.13,.434-.527,.713-.958,.713-.095,0-.192-.014-.288-.042-.529-.158-.83-.716-.671-1.245l1.419-4.734c-.656-.051-1.27-.345-1.703-.848-.476-.552-.686-1.281-.578-2.002l1.846-7.129h-6.714l-1.24,6h3.193c.658,0,1.255,.335,1.598,.896,.343,.561,.368,1.245,.068,1.83l-1.604,3.755c-.177,.346-.527,.544-.891,.544-.153,0-.309-.035-.455-.11-.492-.252-.686-.854-.434-1.346l1.508-3.569H4l2.206,6.71c.174,.524-.11,1.091-.634,1.265-.105,.034-.211,.051-.315,.051-.419,0-.81-.266-.949-.685l-1.933-5.818c-.364-1.098-.451-2.279-.25-3.419l1.073-6.104h-1.197c-1.103,0-2-.897-2-2V2.975c0-.552,.448-1,1-1s1,.448,1,1v3H22V2.975c0-.552,.448-1,1-1s1,.448,1,1Z"/>
</svg>
