<?xml version="1.0" encoding="UTF-8"?>
<svg xmlns="http://www.w3.org/2000/svg" id="Layer_1" data-name="Layer 1" viewBox="0 0 24 24">
  <path d="m24,8v4.15c0,.71-.837,1.088-1.373.623-.215-.187-.39-.335-.46-.389-.673-.512-1.661-.512-2.334,0-.507.386-1.143.616-1.833.616s-1.326-.23-1.833-.616c-.673-.513-1.66-.513-2.334,0-.507.386-1.143.616-1.833.616s-1.326-.23-1.833-.616c-.673-.513-1.66-.513-2.334,0-.507.386-1.143.616-1.833.616s-1.326-.23-1.833-.616c-.673-.512-1.661-.512-2.334,0-.065.049-.219.182-.412.35-.548.479-1.407.094-1.41-.634L.002,8.004c-.002-1.106.894-2.004,2-2.004h19.998c1.105,0,2,.895,2,2ZM1.5,15c-.828,0-1.5.672-1.5,1.5s.672,1.5,1.5,1.5,1.5-.672,1.5-1.5-.672-1.5-1.5-1.5Zm5,3c-.828,0-1.5.672-1.5,1.5s.672,1.5,1.5,1.5,1.5-.672,1.5-1.5-.672-1.5-1.5-1.5Zm11,0c-.828,0-1.5.672-1.5,1.5s.672,1.5,1.5,1.5,1.5-.672,1.5-1.5-.672-1.5-1.5-1.5Zm-5.5-3c-.828,0-1.5.672-1.5,1.5s.672,1.5,1.5,1.5,1.5-.672,1.5-1.5-.672-1.5-1.5-1.5Zm10.5,0c-.828,0-1.5.672-1.5,1.5s.672,1.5,1.5,1.5,1.5-.672,1.5-1.5-.672-1.5-1.5-1.5ZM1.5,21c-.828,0-1.5.672-1.5,1.5s.672,1.5,1.5,1.5,1.5-.672,1.5-1.5-.672-1.5-1.5-1.5Zm10.5,0c-.828,0-1.5.672-1.5,1.5s.672,1.5,1.5,1.5,1.5-.672,1.5-1.5-.672-1.5-1.5-1.5Zm10.5,0c-.828,0-1.5.672-1.5,1.5s.672,1.5,1.5,1.5,1.5-.672,1.5-1.5-.672-1.5-1.5-1.5Z"/>
</svg>
