<?xml version="1.0" encoding="UTF-8"?>
<svg xmlns="http://www.w3.org/2000/svg" id="Layer_1" data-name="Layer 1" viewBox="0 0 24 24">
  <path d="M14.379,18c-.128,0-.259-.024-.385-.077-.51-.213-.75-.799-.537-1.309l2.082-4.978c.213-.509,.8-.75,1.308-.537,.51,.213,.75,.799,.537,1.308l-2.082,4.978c-.16,.384-.532,.614-.923,.614Zm-3.039-.614l2.082-4.978c.213-.509-.027-1.095-.537-1.308-.509-.213-1.095,.028-1.308,.537l-2.082,4.978c-.213,.51,.027,1.096,.537,1.309,.126,.053,.257,.077,.385,.077,.391,0,.763-.23,.923-.614Zm-4.039,0l2.082-4.978c.213-.509-.027-1.095-.537-1.308-.508-.213-1.095,.028-1.308,.537l-2.082,4.978c-.213,.51,.027,1.096,.537,1.309,.126,.053,.257,.077,.385,.077,.391,0,.763-.23,.923-.614ZM17.984,4.5c-.856-.294-1.195-.781-1.314-1C14.969,.38,10.979-1.09,7.18,.922c-2.121,1.123-3.134,3.461-3.18,5.86-.014,.738-.497,1.436-.732,1.717-.812,.969-1.267,2.195-1.267,3.5,0,1.509,.612,2.878,1.6,3.873l.005-.004c.004-.009,.005-.018,.008-.027l2.081-4.977c.641-1.527,2.404-2.246,3.926-1.61,.324,.135,.609,.33,.861,.56,.836-.762,2.065-1.025,3.177-.561,.309,.129,.58,.314,.823,.529,.249-.219,.527-.407,.843-.537,.741-.305,1.557-.303,2.296,.008,.738,.308,1.313,.887,1.618,1.629,.304,.742,.301,1.557-.009,2.296l-1.416,3.387c2.444-.935,4.188-3.298,4.188-6.067,0-2.987-1.586-5.164-4.016-6Zm5.684,18.478c.411-.369,.444-1.002,.075-1.412-.369-.412-1.001-.444-1.412-.076-.366,.329-.839,.511-1.332,.511-.89,0-1.793-.586-2.057-1.333-.141-.399-.519-.667-.943-.667s-.802,.268-.943,.667c-.264,.747-1.167,1.333-2.057,1.333s-1.793-.586-2.057-1.333c-.141-.399-.519-.667-.943-.667s-.802,.268-.943,.667c-.264,.747-1.167,1.333-2.057,1.333s-1.793-.586-2.057-1.333c-.141-.399-.519-.667-.943-.667s-.802,.268-.943,.667c-.264,.747-1.167,1.333-2.057,1.333-.493,0-.965-.182-1.332-.511-.41-.367-1.042-.334-1.412,.076-.369,.41-.335,1.043,.075,1.412,.734,.659,1.682,1.022,2.668,1.022,1.127,0,2.222-.472,3-1.225,.778,.753,1.873,1.225,3,1.225s2.222-.472,3-1.225c.778,.753,1.873,1.225,3,1.225s2.222-.472,3-1.225c.778,.753,1.873,1.225,3,1.225,.987,0,1.935-.363,2.668-1.022Z"/>
</svg>
