<?xml version="1.0" encoding="UTF-8"?>
<svg xmlns="http://www.w3.org/2000/svg" id="Layer_1" data-name="Layer 1" viewBox="0 0 24 24">
  <path d="m10.984,8.296c.089.36-.212.704-.591.704h-4.786c-.379,0-.68-.344-.591-.704.324-1.317,1.537-2.296,2.984-2.296s2.66.979,2.984,2.296ZM.015,7.296c-.087.36.208.704.578.704h2.407v-.5c0-.98.407-1.864,1.058-2.5h-1.126C1.518,5,.332,5.979.015,7.296Zm15.392.704c.37,0,.665-.344.578-.704-.317-1.317-1.503-2.296-2.917-2.296h-1.126c.651.636,1.058,1.52,1.058,2.5v.5h2.407ZM3,4c1.105,0,2-.895,2-2s-.895-2-2-2S1,.895,1,2s.895,2,2,2Zm5,1c1.105,0,2-.895,2-2s-.895-2-2-2-2,.895-2,2,.895,2,2,2Zm5-1c1.105,0,2-.895,2-2s-.895-2-2-2-2,.895-2,2,.895,2,2,2Zm10.341,8.345l-7.702,8.409c-1.894,2.068-4.57,3.246-7.374,3.246h-4.262C1.794,24,.003,22.209.003,20v-5C.003,12.791,1.794,11,4.003,11h7.787c1.374,0,2.46,1.26,2.164,2.685-.193.926-1.004,1.598-1.94,1.732l-4.162.583c-.547.078-.927.585-.848,1.131.078.547.585.926,1.131.848l4.252-.596c2.062-.294,3.617-2.087,3.617-4.17,0-.219-.032-.429-.065-.638l3.541-3.737c.455-.5,1.097-.803,1.794-.835.692-.034,1.363.209,1.878.678,1.052.958,1.138,2.602.189,3.665Z"/>
</svg>
