<?xml version="1.0" encoding="UTF-8"?>
<svg xmlns="http://www.w3.org/2000/svg" id="Layer_1" data-name="Layer 1" viewBox="0 0 24 24">
  <path d="m22,5.735L14.797.855c-1.699-1.146-3.895-1.146-5.594,0L2.203,5.579c-1.379.931-2.203,2.48-2.203,4.145v9.276c0,2.757,2.243,5,5,5h8.663l-4.985-4.985c-.835-.835-.835-2.194,0-3.029l3.33-3.606c.062-.063.069-.102.069-.129s-.007-.066-.041-.1l-2.634-2.413c-.407-.373-.435-1.006-.062-1.413.373-.406,1.006-.435,1.413-.062l2.665,2.442c.436.435.659.972.659,1.545s-.224,1.11-.628,1.515l-3.33,3.606c-.083.084-.083.174-.027.229l6.399,6.399h2.509c2.757,0,5-2.243,5-5v-9.276c0-1.579-.748-3.047-2-3.989Z"/>
</svg>
