<?xml version="1.0" encoding="UTF-8"?>
<svg xmlns="http://www.w3.org/2000/svg" id="Layer_1" data-name="Layer 1" viewBox="0 0 24 24">
  <path d="M23,14v-4.048c.566-.115,1-.592,1-1.191,0-.454-.248-.871-.646-1.088l-4.496-2.452c-.535-.292-1.181-.292-1.716,0l-4.496,2.452c-.398,.217-.646,.635-.646,1.089,0,.6,.434,1.076,1,1.191v4.048c-.553,0-1,.448-1,1s.447,1,1,1h10c.553,0,1-.448,1-1s-.447-1-1-1Zm-2,0h-2v-4h2v4Zm-6-4h2v4h-2v-4Zm-5,6H0V4C0,1.791,1.791,0,4,0H12c1.968,0,4,1.596,4,3.564h0s-4.024,2.195-4.024,2.195c-1.218,.664-1.976,1.941-1.976,3.329v6.912ZM0,20c0,2.209,1.791,4,4,4H12c2.209,0,4-1.791,4-4v-2H0v2Zm7,0h2c.552,0,1,.448,1,1h0c0,.552-.448,1-1,1h-2c-.552,0-1-.448-1-1h0c0-.552,.448-1,1-1Z"/>
</svg>
