<?xml version="1.0" encoding="UTF-8"?>
<svg xmlns="http://www.w3.org/2000/svg" id="Layer_1" data-name="Layer 1" viewBox="0 0 24 24">
  <path d="m20,7c-.209,0-.42-.065-.6-.201-1.413-1.064-3.387-1.063-4.799,0-.441.333-1.068.243-1.4-.198-.332-.441-.243-1.068.198-1.4,2.121-1.595,5.083-1.593,7.204,0,.441.332.53.959.198,1.4-.197.261-.497.399-.8.399Zm3.434-3.371c.348-.429.282-1.059-.147-1.406-3.643-2.953-8.932-2.952-12.574,0-.429.348-.495.977-.147,1.406.346.429.978.496,1.406.147,2.914-2.36,7.142-2.361,10.056,0,.185.15.408.223.629.223.291,0,.58-.126.777-.371Zm-6.434,7.371c.828,0,1.5-.672,1.5-1.5s-.672-1.5-1.5-1.5-1.5.672-1.5,1.5.672,1.5,1.5,1.5Zm3,.274v7.726c0,.553-.447,1-1,1h-.101c-.465,2.279-2.484,4-4.899,4H5c-2.757,0-5-2.243-5-5V5C0,2.243,2.243,0,5,0h5.37c-.313.208-.62.428-.916.668-.623.504-1.012,1.221-1.095,2.018-.047.453.018.897.166,1.313h-3.524c-.552,0-1,.447-1,1v2c0,.553.448,1,1,1h6.782c.465.516,1.078.86,1.772.964-.027.176-.054.352-.054.536,0,.171.027.335.051.5h-.551c-.553,0-1,.447-1,1s.447,1,1,1h1c.164,0,.313-.049.45-.119.639.684,1.542,1.119,2.55,1.119,1.28,0,2.39-.698,3-1.726Zm-13,7.726c0-.553-.448-1-1-1h-1c-.552,0-1,.447-1,1s.448,1,1,1h1c.552,0,1-.447,1-1Zm0-4c0-.553-.448-1-1-1h-1c-.552,0-1,.447-1,1s.448,1,1,1h1c.552,0,1-.447,1-1Zm0-4c0-.553-.448-1-1-1h-1c-.552,0-1,.447-1,1s.448,1,1,1h1c.552,0,1-.447,1-1Zm4,8c0-.553-.448-1-1-1h-1c-.552,0-1,.447-1,1s.448,1,1,1h1c.552,0,1-.447,1-1Zm0-4c0-.553-.448-1-1-1h-1c-.552,0-1,.447-1,1s.448,1,1,1h1c.552,0,1-.447,1-1Zm0-4c0-.553-.448-1-1-1h-1c-.552,0-1,.447-1,1s.448,1,1,1h1c.552,0,1-.447,1-1Zm4,8c0-.553-.447-1-1-1h-1c-.553,0-1,.447-1,1s.447,1,1,1h1c.553,0,1-.447,1-1Zm0-4c0-.553-.447-1-1-1h-1c-.553,0-1,.447-1,1s.447,1,1,1h1c.553,0,1-.447,1-1Z"/>
</svg>
