<?xml version="1.0" encoding="UTF-8"?>
<svg xmlns="http://www.w3.org/2000/svg" id="Layer_1" data-name="Layer 1" viewBox="0 0 24 24">
  <path d="M18,12c-3.309,0-6,2.691-6,6s2.691,6,6,6,6-2.691,6-6-2.691-6-6-6Zm4,6c0,.74-.215,1.424-.567,2.019l-5.453-5.452c.595-.351,1.28-.567,2.019-.567,2.206,0,4,1.794,4,4Zm-8,0c0-.74,.215-1.424,.567-2.019l5.453,5.452c-.595,.351-1.28,.567-2.019,.567-2.206,0-4-1.794-4-4Zm-4,0c0,1.941,.692,3.72,1.842,5.105-.808,.561-1.785,.895-2.842,.895H5c-2.757,0-5-2.243-5-5v-6c0-2.757,2.243-5,5-5h5.5c1.379,0,1.49-.449,1.499-.886-.043-2.614-1.917-4.789-4.392-5.079-2.357-.275-4.54,1.081-5.323,3.298-.185,.52-.757,.793-1.276,.609-.521-.184-.793-.755-.609-1.276C1.495,1.564,4.547-.341,7.839,.049c3.407,.398,6.002,3.307,6.154,6.832,.002,.015,.003,1.912,.004,4.2-2.388,1.384-3.997,3.961-3.997,6.919Z"/>
</svg>
