<?xml version="1.0" encoding="UTF-8"?>
<svg xmlns="http://www.w3.org/2000/svg" id="Layer_1" data-name="Layer 1" viewBox="0 0 24 24">
  <path d="m24,1.22v3.06c0,.398-.322.72-.72.72h-3.06c-.291,0-.554-.175-.665-.444-.112-.269-.05-.579.156-.785l.842-.842c-.705-.585-1.6-.929-2.553-.929-1.591,0-3.03.942-3.668,2.4-.22.505-.805.738-1.316.516-.506-.221-.737-.811-.516-1.317.956-2.187,3.115-3.6,5.5-3.6,1.494,0,2.899.555,3.976,1.506l.795-.796c.206-.206.515-.267.785-.156.269.111.444.374.444.665Zm-1.016,5.864c-.511-.219-1.096.012-1.316.516-.638,1.458-2.077,2.4-3.668,2.4-.953,0-1.848-.344-2.553-.929l.842-.842c.206-.206.268-.515.156-.785-.111-.269-.374-.444-.665-.444h-3.06c-.398,0-.72.322-.72.72v3.06c0,.291.175.554.444.665.27.111.579.05.785-.156l.795-.795c1.076.951,2.481,1.506,3.976,1.506,2.386,0,4.545-1.413,5.5-3.6.222-.506-.01-1.096-.516-1.317Zm-14.484,1.917c.513,0,1.012-.028,1.5-.074v-2.926c0-2.151.854-4.1,2.235-5.538-1.128-.293-2.393-.462-3.735-.462C3.806,0,0,2.015,0,4.5s3.806,4.5,8.5,4.5Zm0,5c1.57,0,3.009-.191,4.242-.501-.006,0-.012.002-.019.002-.349,0-.701-.067-1.038-.205-.978-.405-1.616-1.322-1.674-2.363-.493.041-.994.067-1.511.067-3.58,0-6.624-1.004-8.5-2.6v2.167c0,1.621,3.635,3.433,8.5,3.433Zm-8.5-.174v1.74c0,1.621,3.635,3.434,8.5,3.434s8.5-1.812,8.5-3.434v-1.74c-1.876,1.334-4.92,2.173-8.5,2.173s-6.624-.839-8.5-2.174Zm0,5v.96c0,2.767,4.276,4.214,8.5,4.214s8.5-1.447,8.5-4.214v-.96c-1.876,1.334-4.92,2.174-8.5,2.174s-6.624-.839-8.5-2.174Z"/>
</svg>
