<?xml version="1.0" encoding="UTF-8"?>
<svg xmlns="http://www.w3.org/2000/svg" id="Layer_1" data-name="Layer 1" viewBox="0 0 24 24">
  <path d="m12.207,5.916c0,.398-.349.735-.762.735l-.71.003-.005-1.473h.715c.413,0,.762.336.762.735Zm5.793,13.084v4.54c.913-.347,1.753-.879,2.465-1.591l1.484-1.485c.712-.711,1.245-1.551,1.591-2.465h-4.54c-.552,0-1,.449-1,1ZM5.967,5.181h-.715l.005,1.473.71-.003c.413,0,.762-.336.762-.735s-.349-.735-.762-.735Zm18.033-.181v10.515c0,.163-.013.324-.024.485h-4.976c-1.654,0-3,1.346-3,3v4.976c-.161.011-.322.024-.485.024H5c-2.757,0-5-2.243-5-5V5C0,2.243,2.243,0,5,0h14c2.757,0,5,2.243,5,5Zm-16.021.916c0-1.094-.902-1.985-2.012-1.985h-1.342c-.345,0-.625.28-.625.625v4.819c0,.345.28.625.625.625s.625-.28.625-.625v-1.471l.717-.003c1.109,0,2.012-.891,2.012-1.985Zm5.479,0c0-1.094-.902-1.985-2.012-1.985h-1.342c-.345,0-.625.28-.625.625v4.819c0,.345.28.625.625.625s.625-.28.625-.625v-1.471l.717-.003c1.109,0,2.012-.891,2.012-1.985Zm5.158-1.36c0-.345-.28-.625-.625-.625h-2.75c-.345,0-.625.28-.625.625s.28.625.625.625h.75v4.194c0,.345.28.625.625.625s.625-.28.625-.625v-4.194h.75c.345,0,.625-.28.625-.625Z"/>
</svg>
