<?xml version="1.0" encoding="UTF-8"?>
<svg xmlns="http://www.w3.org/2000/svg" id="Layer_1" data-name="Layer 1" viewBox="0 0 24 24">
  <path d="m12.971,10.402l3.942-3.943,1.869,1.168-2.136,2.135c-.722.72-2.103.784-3.675.639Zm-11.798,1.313c.107-.128.208-.259.324-.381,2.155-2.288,5.774-1.748,8.974-1.26l4.702-4.702-5.181-3.611C7.84.415,5.022.896,3.437,2.877L.838,6.194c-1.139,1.424-1.171,3.439-.076,4.898l.411.623ZM22.648,3.271l-.124-.124c-2.397-2.393-6.08-2.742-8.752-1.011l6.763,4.236c.727.456.844,1.468.239,2.077l-2.713,2.729c-1.803,1.798-4.879,1.33-7.854.878-2.855-.435-5.809-.884-7.252.649-2.576,2.736-2.481,7.149.211,9.838l-.016.016.215.215c.818.818,1.894,1.227,2.97,1.227s2.15-.409,2.97-1.227l13.466-13.447c.921-.921,1.363-2.194,1.196-3.515-.122-.969-.626-1.851-1.317-2.54Z"/>
</svg>
