<?xml version="1.0" encoding="UTF-8"?>
<svg xmlns="http://www.w3.org/2000/svg" id="Layer_1" data-name="Layer 1" viewBox="0 0 24 24">
  <path d="m22.465,12.447l-4-3.13c-1.448-1.133-3.482-1.133-4.93,0l-4,3.129c-.969.758-1.535,1.92-1.535,3.15v4.404c0,2.209,1.791,4,4,4h8c2.209,0,4-1.791,4-4v-4.403c0-1.23-.566-2.392-1.535-3.15Zm-5.465,6.553h-2c-.552,0-1-.448-1-1v-2c0-.552.448-1,1-1h2c.552,0,1,.448,1,1v2c0,.552-.448,1-1,1Zm-10.851-4.734l-1.94,1.94c-.195.196-.452.294-.708.294s-.511-.097-.706-.292c-.391-.39-.392-1.023-.002-1.415l1.462-1.467s0-.002-.002-.002c-.598-.819-1.007-1.781-1.168-2.828H1c-.552,0-1-.448-1-1s.448-1,1-1h2.085c.163-1.046.572-2.008,1.171-2.826l-1.463-1.463c-.391-.391-.391-1.023,0-1.414s1.023-.391,1.414,0l1.463,1.463c.819-.599,1.781-1.009,2.827-1.171l.002-2.086c0-.552.448-.999,1-.999h0c.552,0,1,.449.999,1.001l-.002,2.083c1.046.162,2.008.57,2.827,1.168,0,0,.002,0,.002.002l1.467-1.462c.392-.391,1.024-.388,1.414.002.391.392.389,1.024-.002,1.415l-2.915,2.915c-.343.174-.676.373-.988.617l-4,3.13c-1.105.865-1.853,2.061-2.154,3.395Z"/>
</svg>
