<?xml version="1.0" encoding="UTF-8"?>
<svg xmlns="http://www.w3.org/2000/svg" id="Layer_1" data-name="Layer 1" viewBox="0 0 24 24">
  <path d="M21.115,2.17l-1.258,1.287c-.195,.2-.455,.301-.715,.301-.252,0-.505-.095-.699-.285-.395-.386-.402-1.02-.016-1.415l1.242-1.271c-.774-.493-1.686-.788-2.67-.788H7c-.984,0-1.896,.295-2.67,.788l1.242,1.271c.387,.395,.379,1.028-.016,1.415-.194,.19-.447,.285-.699,.285-.26,0-.52-.101-.715-.301l-1.258-1.287c-.556,.806-.885,1.779-.885,2.83v14c0,2.757,2.243,5,5,5h10c2.757,0,5-2.243,5-5V5c0-1.051-.329-2.024-.885-2.83ZM8.911,6.878c-.194,.192-.448,.288-.702,.288-.258,0-.516-.099-.712-.297l-1.107-1.122c-.388-.393-.384-1.026,.01-1.415,.392-.387,1.024-.384,1.414,.009l1.107,1.122c.388,.393,.384,1.026-.01,1.415Zm4.003,10.122h-1.829c-.79,0-1.357-.762-1.13-1.519l.757-2.524c.171-.569,.694-.958,1.287-.958s1.117,.389,1.287,.958l.757,2.524c.227,.757-.34,1.519-1.13,1.519Zm1.318-7.819l-1.525,1.526c-.195,.195-.451,.293-.707,.293s-.512-.098-.707-.293l-1.525-1.526c-.391-.391-.391-1.024,0-1.414,.391-.391,1.023-.391,1.414,0l.818,.819,.818-.819c.391-.391,1.023-.391,1.414,0,.391,.39,.391,1.023,0,1.414Zm3.378-3.434l-1.107,1.122c-.196,.198-.454,.297-.712,.297-.254,0-.508-.096-.702-.288-.394-.388-.397-1.021-.01-1.415l1.107-1.122c.39-.393,1.021-.396,1.414-.009,.394,.388,.397,1.021,.01,1.415Z"/>
</svg>
