<?xml version="1.0" encoding="UTF-8"?>
<svg xmlns="http://www.w3.org/2000/svg" id="Layer_1" data-name="Layer 1" viewBox="0 0 24 24">
  <path d="m13,19v5h-2v-5c0-.551.449-1,1-1s1,.449,1,1Zm-3-15h1v1.991l-4,2.909v15.1h2v-5c0-1.654,1.346-3,3-3s3,1.346,3,3v5h2v-15.1l-4-2.909v-1.991h1c.552,0,1-.448,1-1s-.448-1-1-1h-1v-1c0-.552-.448-1-1-1s-1,.448-1,1v1h-1c-.552,0-1,.448-1,1s.448,1,1,1Zm-5,6.354l-2.941,2.139c-1.294.941-2.059,2.444-2.059,4.044v3.963c0,1.933,1.567,3.5,3.5,3.5h1.5v-13.646Zm16.941,2.139l-2.941-2.139v13.646h1.5c1.933,0,3.5-1.567,3.5-3.5v-3.963c0-1.6-.766-3.103-2.059-4.044Z"/>
</svg>
