<?xml version="1.0" encoding="UTF-8"?>
<svg xmlns="http://www.w3.org/2000/svg" id="Layer_1" data-name="Layer 1" viewBox="0 0 24 24">
  <path d="m21.684,13.762c-1.37-1.095-3.907-3.071-6.064-4.468-.289-2.559-.925-5.708-1.293-7.42-.237-1.104-1.193-1.874-2.326-1.874s-2.089.771-2.326,1.874c-.368,1.713-1.005,4.862-1.293,7.421-2.157,1.397-4.694,3.373-6.064,4.467-.882.705-1.145,1.905-.64,2.918.504,1.013,1.62,1.526,2.714,1.246,1.587-.406,4.315-1.141,6.611-1.936l.01,6.01h-3.012c-.552,0-1,.448-1,1s.448,1,1,1h8c.552,0,1-.448,1-1s-.448-1-1-1h-2.988l-.01-6.009c2.294.795,5.021,1.528,6.608,1.935.199.051.399.076.597.076.883,0,1.705-.494,2.118-1.322.505-1.013.242-2.213-.64-2.917Zm-9.675-.762c-.828,0-1.5-.672-1.5-1.5s.672-1.5,1.5-1.5,1.5.672,1.5,1.5-.672,1.5-1.5,1.5Z"/>
</svg>
