<?xml version="1.0" encoding="UTF-8"?>
<svg xmlns="http://www.w3.org/2000/svg" id="Layer_1" data-name="Layer 1" viewBox="0 0 24 24">
  <path d="M15.47,12.377l-5.226,8.96c-.689,1.181,.163,2.663,1.53,2.663h10.453c1.367,0,2.218-1.483,1.53-2.663l-5.226-8.96c-.683-1.171-2.376-1.171-3.059,0Zm1.53,10.623h0c-.552,0-1-.448-1-1h0c0-.552,.448-1,1-1h0c.552,0,1,.448,1,1h0c0,.552-.448,1-1,1Zm-1-4v-3c0-.552,.448-1,1-1h0c.552,0,1,.448,1,1v3c0,.552-.448,1-1,1h0c-.552,0-1-.448-1-1Zm3.481-8.565c-.675-.595-1.543-.936-2.481-.936v-2.905c1.138,1.067,1.985,2.383,2.481,3.842ZM6.435,15.779c-.878-.821-1.435-1.981-1.435-3.279V5C5,2.239,7.239,0,10,0s5,2.239,5,5v5.074c-.506,.317-.941,.753-1.257,1.295l-1.805,3.095c-.587-.287-1.238-.464-1.937-.464-1.458,0-2.743,.703-3.565,1.779Zm2.016,8.221H1c-.552,0-1-.448-1-1V13.5c0-2.664,1.105-5.13,3-6.907v5.907c0,3.522,2.802,6.382,6.298,6.49l-.781,1.34c-.668,1.146-.687,2.508-.065,3.67Z"/>
</svg>
