<?xml version="1.0" encoding="UTF-8"?>
<svg xmlns="http://www.w3.org/2000/svg" id="Layer_1" data-name="Layer 1" viewBox="0 0 24 24">
  <path d="M5.085,3.619c.327-1.704,1.676-3.109,3.355-3.497,1.372-.318,2.777-.006,3.858,.854,1.081,.86,1.701,2.144,1.701,3.524,0,1.392-.641,2.66-1.706,3.5H6.71c-1.304-1.019-1.952-2.676-1.625-4.381Zm6.407,6.381l.004,.996c.002,.554-.446,1.004-1,1.004h-1.996c-.552,0-1-.448-1-1v-1h3.992Zm10.94,1.046c-.338-.846-.824-1.636-1.432-2.327v-3.715c0-.861-.539-1.636-1.426-1.931-.338-.112-.699-.098-1.044-.013-1.115,.276-1.917,.945-2.554,1.863-.118,1.823-.988,3.501-2.445,4.648l-.041,.032,.005,1.385c.003,.804-.308,1.56-.875,2.129-.567,.569-1.322,.883-2.125,.883h-1.996c-1.654,0-3-1.346-3-3v-1.407l-.021-.016c-.614-.48-1.111-1.062-1.506-1.701-.409,.331-.79,.694-1.126,1.094-.476-.077-.847-.472-.847-.969,0-.384,.217-.718,.535-.885,.303-.16,.465-.5,.465-.842,0-.745-.801-1.259-1.452-.897-.922,.512-1.548,1.497-1.548,2.625,0,1.2,.712,2.229,1.732,2.709-.398,.851-.652,1.779-.715,2.761-.199,3.074,1.348,5.933,3.983,7.451v.079c0,1.226,.729,2.373,1.88,2.796,1.752,.643,3.421-.308,3.948-1.796h2.343c.527,1.487,2.197,2.439,3.948,1.796,1.151-.423,1.88-1.569,1.88-2.796v-.092c1.56-.903,2.771-2.3,3.432-3.954,.821-.175,1.568-.848,1.568-1.954v-2c0-1.106-.748-1.779-1.568-1.954Zm-4.932,2.954c-.828,0-1.5-.672-1.5-1.5s.672-1.5,1.5-1.5,1.5,.672,1.5,1.5-.672,1.5-1.5,1.5Z"/>
</svg>
