<?xml version="1.0" encoding="UTF-8"?>
<svg xmlns="http://www.w3.org/2000/svg" id="Layer_1" data-name="Layer 1" viewBox="0 0 24 24">
  <path d="m14.782,19.319c.979.432,2.059.677,3.196.68.006.947-.31,1.873-.94,2.605-.765.888-1.874,1.396-3.044,1.396H4.004c-1.17,0-2.279-.51-3.043-1.398-.753-.874-1.087-2.024-.917-3.157.406-2.699,1.885-5.198,4.401-7.444C1.928,9.754.449,7.255.043,4.556c-.17-1.133.165-2.283.917-3.157C1.725.51,2.834,0,4.004,0h9.99c1.17,0,2.279.508,3.044,1.396.63.731.946,1.658.94,2.605-4.401.012-7.978,3.595-7.978,7.999,0,.656.088,1.29.238,1.901l-.612-.488c-.365-.29-.88-.29-1.245-.002l-.704.559c-1.557,1.231-3.619,3.212-4.605,5.656-.125.309-.087.658.098.934.186.275.497.44.829.44h10c.333,0,.644-.164.829-.44.186-.275.223-.626.098-.934-.042-.105-.097-.203-.143-.306Zm9.218-7.319c0,3.309-2.691,6-6,6s-6-2.691-6-6,2.691-6,6-6,6,2.691,6,6Zm-3.793.793l-1.207-1.207v-2.086c0-.552-.448-1-1-1s-1,.448-1,1v2.5c0,.265.105.52.293.707l1.5,1.5c.195.195.451.293.707.293s.512-.098.707-.293c.391-.391.391-1.023,0-1.414Zm-14.561,6.206h6.702c-.924-1.429-2.299-2.691-3.348-3.527-1.047.828-2.432,2.095-3.354,3.527Z"/>
</svg>
