<?xml version="1.0" encoding="UTF-8"?>
<svg xmlns="http://www.w3.org/2000/svg" id="Layer_1" data-name="Layer 1" viewBox="0 0 24 24">
  <path d="m23.557,22.721c-.516.801-1.395,1.279-2.351,1.279h-6.411c-1.05,0-2.001-.577-2.482-1.506-.477-.921-.401-2.021.198-2.868l.904-1.281L.475,10.351c-.47-.29-.615-.906-.325-1.376.29-.472.906-.615,1.376-.325l3.241,2.002.956-2.664c.289-.806.91-1.451,1.705-1.771.795-.32,1.689-.284,2.456.098l.47.177c1.148.572,2.022,1.552,2.461,2.759l1.105,3.213c.178.516-.091,1.079-.604,1.266-.526.191-1.106-.086-1.288-.615l-1.093-3.18c-.039-.106-.094-.202-.143-.302l-1.392,3.881,5.171,3.194,1.842-2.61c.584-.827,1.528-1.267,2.549-1.17,1.011.096,1.863.702,2.281,1.623l2.509,5.529c.39.858.317,1.846-.194,2.641ZM11.5,5c1.381,0,2.5-1.119,2.5-2.5s-1.119-2.5-2.5-2.5-2.5,1.119-2.5,2.5,1.119,2.5,2.5,2.5Zm-2.5,13c-.553,0-1,.447-1,1v4c0,.553.447,1,1,1s1-.447,1-1v-4c0-.553-.447-1-1-1Zm-4.748-3.074c-.524-.184-1.093.087-1.277.607L.442,22.665c-.185.521.087,1.093.607,1.277.111.039.224.058.335.058.411,0,.797-.256.942-.665l2.532-7.132c.185-.521-.087-1.093-.607-1.277Z"/>
</svg>
