<?xml version="1.0" encoding="UTF-8"?>
<svg xmlns="http://www.w3.org/2000/svg" id="Layer_1" data-name="Layer 1" viewBox="0 0 24 24">
  <path d="M.499,5.216c-.667-.667-.667-1.765,.008-2.439L2.927,.301c.385-.394,1.02-.402,1.414-.016,.395,.386,.402,1.019,.016,1.414l-1.272,1.301h1.415c1.93,0,3.5,1.57,3.5,3.5v1.5c0,.553-.447,1-1,1s-1-.447-1-1v-1.5c0-.827-.673-1.5-1.5-1.5h-1.415l1.272,1.301c.387,.396,.379,1.028-.016,1.414-.394,.386-1.028,.379-1.414-.016L.499,5.216Zm9.501,3.784c.553,0,1-.447,1-1v-1.5c0-.827,.673-1.5,1.5-1.5h1.415l-1.272,1.301c-.387,.396-.379,1.028,.016,1.414,.394,.386,1.028,.379,1.414-.016l2.42-2.476c.675-.675,.675-1.772,.008-2.439L14.073,.301c-.384-.394-1.02-.402-1.414-.016-.395,.386-.402,1.019-.016,1.414l1.272,1.301h-1.415c-1.93,0-3.5,1.57-3.5,3.5v1.5c0,.553,.447,1,1,1Zm13.152-.319c-1.007-.963-2.764-.882-3.672,.157l-3.541,3.737c.032,.21,.065,.42,.065,.638,0,2.083-1.555,3.876-3.617,4.17l-4.252,.596c-.547,.078-1.053-.302-1.131-.848-.078-.547,.302-1.053,.848-1.131l4.162-.583c.936-.134,1.748-.806,1.94-1.732,.296-1.425-.79-2.685-2.164-2.685H4.003C1.794,11,.003,12.791,.003,15v5C.003,22.209,1.794,24,4.003,24h4.262c2.805,0,5.48-1.178,7.374-3.246l7.702-8.409c.948-1.062,.862-2.707-.189-3.665Z"/>
</svg>
