<?xml version="1.0" encoding="UTF-8"?>
<svg xmlns="http://www.w3.org/2000/svg" id="Layer_1" data-name="Layer 1" viewBox="0 0 24 24">
  <path d="m14.013,13.649c.158,1.78-1.24,3.274-2.988,3.274h-4c-.681,0-1.163-.656-.961-1.307.499-1.608,1.936-4.181,4.249-4.626,1.755-.338,3.542.879,3.7,2.659ZM23.295.707c-.941-.942-2.467-.943-3.409-.002-.025.025-5.276,5.814-7.692,8.479.653.171,1.276.464,1.826.879.692.522,1.205,1.215,1.544,1.982l7.728-7.924c.943-.942.945-2.47.003-3.413Zm-7.305,13.764c-.117,1.047-.557,2.042-1.276,2.827-.945,1.033-2.29,1.625-3.688,1.625h-4c-.953,0-1.858-.457-2.422-1.223-.564-.767-.732-1.768-.449-2.678.708-2.283,2.536-5.101,5.371-5.874l2.866-3.16c1.091-1.202,1.978-2.181,2.711-2.988H5C2.243,3,0,5.243,0,8v11c0,2.757,2.243,5,5,5h11c2.757,0,5-2.243,5-5v-9.666l-5.01,5.137Z"/>
</svg>
