<?xml version="1.0" encoding="UTF-8"?>
<svg xmlns="http://www.w3.org/2000/svg" id="Layer_1" data-name="Layer 1" viewBox="0 0 24 24">
  <path d="m22.242,5.272l-3.515-3.515c-1.133-1.133-2.64-1.757-4.242-1.757h-4.971c-1.603,0-3.109.624-4.242,1.757l-3.515,3.514c-1.134,1.133-1.758,2.64-1.758,4.243v4.971c0,1.603.624,3.11,1.758,4.243l3.515,3.515c1.133,1.133,2.64,1.757,4.242,1.757h4.971c1.603,0,3.109-.624,4.242-1.757l3.515-3.514c1.134-1.133,1.758-2.64,1.758-4.243v-4.971c0-1.603-.624-3.11-1.758-4.243Zm-11.242.728c0-.552.447-1,1-1s1,.448,1,1v8c0,.552-.447,1-1,1s-1-.448-1-1V6Zm1,13c-.828,0-1.5-.672-1.5-1.5s.672-1.5,1.5-1.5,1.5.672,1.5,1.5-.672,1.5-1.5,1.5Z"/>
</svg>
