<?xml version="1.0" encoding="UTF-8"?>
<svg xmlns="http://www.w3.org/2000/svg" id="Layer_1" data-name="Layer 1" viewBox="0 0 24 24">
  <path d="m9,0h6c0,1.654-1.346,3-3,3s-3-1.346-3-3Zm11.815,1.195c-1.226-.659-2.509-1.031-3.82-1.144-.028,2.733-2.255,4.949-4.995,4.949S7.033,2.784,7.005.051c-1.311.113-2.594.486-3.82,1.144C1.221,2.25,0,4.335,0,6.636v2.388c0,1.657,1.343,3,3,3h0v-3.024c0-.552.448-1,1-1h0c.552,0,1,.448,1,1v11c0,2.209,1.791,4,4,4h6c2.209,0,4-1.791,4-4v-11c0-.552.448-1,1-1h0c.552,0,1,.448,1,1v3h0c1.657,0,3-1.343,3-3v-2.364c0-2.301-1.221-4.386-3.185-5.44Z"/>
</svg>
