<?xml version="1.0" encoding="UTF-8"?>
<svg xmlns="http://www.w3.org/2000/svg" id="Layer_1" data-name="Layer 1" viewBox="0 0 24 24">
  <path d="m19.786,5.272c-.287.484-.631.953-1.057,1.38-1.36,1.36-3.138,1.94-4.485,2.187-.577.105-1.114-.319-1.163-.904h0c-.043-.51.302-.972.805-1.063,1.09-.198,2.442-.647,3.429-1.634,1.144-1.144,1.552-2.768,1.695-3.915.094-.757-.55-1.401-1.307-1.307-1.147.142-2.771.551-3.915,1.695-.584.584-.991,1.311-1.254,2.017h0c-.651-2.206-1.76-3.345-1.821-3.406-.385-.39-1.011-.394-1.406-.012-.394.383-.402.99-.022,1.386.057.06,1.393,1.494,1.666,4.329l.014,1.122c-.388-1.448-1.231-2.609-2.086-3.464-.586-.586-1.505-.707-2.23-.306C2.838,5.482.408,9.775,1.07,14.566c.675,4.89,4.691,8.799,9.595,9.359,6.655.761,12.296-4.424,12.296-10.926,0-3.013-1.214-5.741-3.176-7.728Zm-6.286,9.728c-.828,0-1.5-.672-1.5-1.5s.672-1.5,1.5-1.5,1.5.672,1.5,1.5-.672,1.5-1.5,1.5Zm3,4c-.828,0-1.5-.672-1.5-1.5s.672-1.5,1.5-1.5,1.5.672,1.5,1.5-.672,1.5-1.5,1.5Zm2-4c-.828,0-1.5-.672-1.5-1.5s.672-1.5,1.5-1.5,1.5.672,1.5,1.5-.672,1.5-1.5,1.5Z"/>
</svg>
