<?xml version="1.0" encoding="UTF-8"?>
<svg xmlns="http://www.w3.org/2000/svg" id="Layer_1" data-name="Layer 1" viewBox="0 0 24 24">
  <path d="m4,5c0-.552.448-1,1-1h1.405c.573-1.817,1.709-4,3.095-4,.978,0,1.857.578,2.5,1.128.643-.55,1.522-1.128,2.5-1.128,1.386,0,2.522,2.183,3.095,4h1.405c.552,0,1,.448,1,1s-.448,1-1,1H5c-.552,0-1-.448-1-1Zm9,15h-2l-6.03-7.348c-.428-.56-.29-1.368.309-1.739.347-.215,1.049-.638,1.566-.867-.367-.621-.63-1.309-.754-2.047h11.82c-.124.738-.388,1.426-.754,2.047.516.228,1.227.679,1.575.894.599.371.737,1.179.309,1.739l-6.039,7.32Zm.329-5c.419,0,.793-.261.938-.654l.81-2.199c-.9.541-1.951.854-3.078.854s-2.178-.313-3.078-.854l.81,2.199c.145.393.519.654.938.654h2.658Zm-10.329,7v1c0,.552.448,1,1,1h7v-.847l-5.781-7.044c-1.4,1.613-2.219,3.69-2.219,5.891Zm15.792-5.878l-5.792,7.02v.858h7c.552,0,1-.448,1-1v-1c0-2.195-.815-4.267-2.208-5.878Z"/>
</svg>
