<?xml version="1.0" encoding="UTF-8"?>
<svg xmlns="http://www.w3.org/2000/svg" id="Layer_1" data-name="Layer 1" viewBox="0 0 24 24">
  <path d="M23.525,4.423c-.536-1.229-1.374-2.186-2.301-2.624-.69-.334-1.518-.39-2.239-.154l-.933-.933C17.342,0,16.299-.178,15.423,.177c-.451,.182-.566,.773-.223,1.117l.849,.849c.392,.392,.885,.612,1.395,.681-.128,.191-.226,.406-.287,.628-2.967,3.772-6.31,4.474-6.736,4.549-3.762,.034-6.909,2.993-7.178,6.764-.148,2.078-.333,4.101-.462,5.433-.096,1.094-.828,1.812-1.781,1.804-.552,0-1,.447-1,1s.448,1,1,1c1.898,0,5-1,6-6.5l2.34,4.984c.223,.893,1.021,1.516,1.94,1.516h2.719c.553,0,1-.447,1-1s-.447-1-1-1l-2.724-.018-.596-2.219c1.687-.523,3.877-1.922,4.26-4.832,.036-.272,.177-.519,.388-.676l1.851-1.388c.286,.832,.904,1.518,1.719,1.832,1.028,.397,1.926,1.095,2.184,1.695,.217,.512,.818,.742,1.312,.525,.508-.217,.743-.805,.525-1.312-.713-1.665-2.706-2.544-3.302-2.773-.369-.143-.617-.545-.617-1V7.144c.912,.409,1.844,.713,2.594,.834,.825,.168,1.962,.061,2.241-.669,.305-.642,.187-1.747-.31-2.886Z"/>
</svg>
