<?xml version="1.0" encoding="UTF-8"?>
<svg xmlns="http://www.w3.org/2000/svg" id="Layer_1" data-name="Layer 1" viewBox="0 0 24 24">
  <path d="M24,9v12.854c.053,1.662-1.983,2.755-3.339,1.789l-3.964-2.644h-5.697c-1.45,0-2.747-.631-3.661-1.62l.569-.38h6.092c3.859,0,7-3.14,7-7V5c0-.193-.014-.383-.029-.573,1.776,.767,3.029,2.519,3.029,4.573ZM6.75,6.6h-.65v1.3h.65c.358,0,.65-.292,.65-.65s-.292-.65-.65-.65ZM14,0H5C2.243,0,0,2.243,0,5v12.854c-.053,1.663,1.983,2.754,3.34,1.788l3.963-2.643h6.697c2.757,0,5-2.243,5-5V5c0-2.757-2.243-5-5-5Zm-5.266,10.926c.19,.522-.197,1.074-.752,1.074-.336,0-.637-.211-.752-.527l-.718-1.973h-.413v1.7c0,.442-.358,.8-.8,.8s-.8-.358-.8-.8V5.8c0-.442,.357-.8,.976-.8h1.228c1.144,0,2.142,.836,2.279,1.973,.104,.866-.287,1.642-.923,2.1l.674,1.853Zm5.766-1.176c0,1.319-1.135,2.373-2.482,2.238-1.171-.117-2.018-1.19-2.018-2.367v-3.822c0-.442,.358-.8,.8-.8h0c.442,0,.8,.358,.8,.8v3.95c0,.358,.292,.65,.65,.65s.65-.292,.65-.65v-3.95c0-.442,.358-.8,.8-.8h0c.442,0,.8,.358,.8,.8v3.95Z"/>
</svg>
