<?xml version="1.0" encoding="UTF-8"?>
<svg xmlns="http://www.w3.org/2000/svg" id="Layer_1" data-name="Layer 1" viewBox="0 0 24 24">
  <path d="m7.707,17.707l3.679-3.679,1.191,1.191c.606.606.94,1.412.94,2.27s-.333,1.663-.94,2.269l-1.606,1.606c-1.699,1.7-3.959,2.636-6.364,2.636h-1.107c-1.93,0-3.5-1.57-3.5-3.5v-1.107c0-2.404.936-4.665,2.636-6.364l1.606-1.606c1.213-1.212,3.328-1.212,4.539,0l1.191,1.191-3.679,3.679c-.391.391-.391,1.023,0,1.414.195.195.451.293.707.293s.512-.098.707-.293ZM23.707,5.793L18.207.293c-.391-.391-1.023-.391-1.414,0s-.391,1.023,0,1.414l2.043,2.043-8.864,8.864,1.414,1.414,8.864-8.864,2.043,2.043c.195.195.451.293.707.293s.512-.098.707-.293c.391-.391.391-1.023,0-1.414Z"/>
</svg>
