<?xml version="1.0" encoding="UTF-8"?>
<svg xmlns="http://www.w3.org/2000/svg" id="Layer_1" data-name="Layer 1" viewBox="0 0 24 24">
  <path d="M22,13.5v7.5c0-.307-.187-.583-.472-.697l-1.308-.523-.523-1.308c-.117-.291-.416-.496-.732-.466l-.003-.005-.003,.006c-.289,.016-.546,.194-.655,.465l-.52,1.301-1.299,.492c-.291,.11-.492,.446-.475,.76,.022,.277,.19,.523,.449,.633l1.318,.556,.526,1.316c.109,.272,.365,.449,.655,.465l.003,.006H3c-.552,0-1-.448-1-1V13.5c0-2.664,1.105-5.13,3-6.907v5.907c0,3.59,2.91,6.5,6.5,6.5h1c3.59,0,6.5-2.91,6.5-6.5V6.593c1.895,1.777,3,4.243,3,6.907Zm-10,.5c1.458,0,2.743,.703,3.565,1.779,.878-.821,1.435-1.981,1.435-3.279V5c0-2.761-2.239-5-5-5S7,2.239,7,5v7.5c0,1.297,.557,2.458,1.435,3.279,.822-1.076,2.107-1.779,3.565-1.779ZM2.5,5c.256,0,.485-.156,.58-.393l.436-1.09,1.09-.436c.515-.186,.515-.975,0-1.161l-1.09-.436-.436-1.09C2.894-.122,2.106-.122,1.92,.393l-.433,1.084L.404,1.887c-.518,.177-.533,.965-.021,1.16l1.099,.463,.438,1.097c.095,.237,.325,.393,.58,.393ZM18.962,24h.038c-.012,0-.024-.005-.036-.005l-.003,.005Zm2.567-2.303l-1.308,.523-.523,1.308c-.114,.285-.39,.472-.697,.472h2c.552,0,1-.448,1-1v-2c0,.307-.187,.583-.472,.697Z"/>
</svg>
