<?xml version="1.0" encoding="UTF-8"?>
<svg xmlns="http://www.w3.org/2000/svg" id="Layer_1" data-name="Layer 1" viewBox="0 0 24 24">
  <path d="m2,2.5c0-1.381,1.119-2.5,2.5-2.5s2.5,1.119,2.5,2.5-1.119,2.5-2.5,2.5-2.5-1.119-2.5-2.5Zm13,12.5c-1.654,0-3,1.346-3,3v5c0,.553.447,1,1,1s1-.447,1-1v-1h2v1c0,.553.447,1,1,1s1-.447,1-1v-5c0-1.654-1.346-3-3-3Zm6-5c1.381,0,2.5-1.119,2.5-2.5s-1.119-2.5-2.5-2.5-2.5,1.119-2.5,2.5,1.119,2.5,2.5,2.5Zm0,1c-.552,0-1.063.16-1.508.422,0,1.309-.405,2.175-1.063,2.958.962.912,1.571,2.193,1.571,3.62h2v1c0,.553.447,1,1,1s1-.447,1-1v-5c0-1.654-1.346-3-3-3Zm-6,3c1.381,0,2.5-1.119,2.5-2.5s-1.119-2.5-2.5-2.5-2.5,1.119-2.5,2.5,1.119,2.5,2.5,2.5Zm-.249-13.623c-.556-.249-1.151-.377-1.751-.377-.553,0-1,.447-1,1v5H4C1.794,6,0,7.794,0,10v4c0,1.474.81,2.75,2,3.444v5.556c0,.553.447,1,1,1s1-.447,1-1v-5h2v5c0,.553.447,1,1,1s1-.447,1-1v-15h5c.553,0,1-.447,1-1v-1.75l3.565-1.885c.581-.399.581-1.329,0-1.729l-2.813-1.259Z"/>
</svg>
