<?xml version="1.0" encoding="UTF-8"?>
<svg xmlns="http://www.w3.org/2000/svg" id="Layer_1" data-name="Layer 1" viewBox="0 0 24 24">
  <path d="m16.207,11.707l-3.293,3.293,3.293,3.293c.391.391.391,1.023,0,1.414-.195.195-.451.293-.707.293s-.512-.098-.707-.293l-3.707-3.707h-2.086c-.552,0-1-.447-1-1s.448-1,1-1h2.086l3.707-3.707c.391-.391,1.023-.391,1.414,0s.391,1.023,0,1.414Zm-12.707-.707c1.381,0,2.5-1.119,2.5-2.5s-1.119-2.5-2.5-2.5-2.5,1.119-2.5,2.5,1.119,2.5,2.5,2.5Zm17-6c1.381,0,2.5-1.119,2.5-2.5s-1.119-2.5-2.5-2.5-2.5,1.119-2.5,2.5,1.119,2.5,2.5,2.5Zm-2.5,11.5c0,1.381,1.119,2.5,2.5,2.5s2.5-1.119,2.5-2.5-1.119-2.5-2.5-2.5-2.5,1.119-2.5,2.5ZM3.5,12C1.82,12,.356,13.177.021,14.797c-.061.295.014.602.204.834.19.233.475.369.775.369h5c.301,0,.585-.136.775-.369.19-.232.265-.539.204-.834-.335-1.62-1.799-2.797-3.479-2.797Zm14.5-2h5c.301,0,.586-.136.775-.369.19-.232.265-.539.204-.834-.336-1.62-1.799-2.797-3.479-2.797s-3.144,1.177-3.479,2.797c-.061.295.014.602.204.834.189.233.475.369.775.369Zm2.5,10c-1.681,0-3.144,1.177-3.479,2.797-.061.295.014.602.204.834.189.233.475.369.775.369h5c.301,0,.586-.136.775-.369.19-.232.265-.539.204-.834-.336-1.62-1.799-2.797-3.479-2.797Z"/>
</svg>
