<?xml version="1.0" encoding="UTF-8"?>
<svg xmlns="http://www.w3.org/2000/svg" id="Layer_1" data-name="Layer 1" viewBox="0 0 24 24">
  <path d="m2.307,5.221c-.398-.383-.411-1.016-.028-1.414.383-.397,1.017-.41,1.414-.027l1.307,1.257V1c0-.553.448-1,1-1s1,.447,1,1v4.029l1.307-1.25c.398-.383,1.032-.37,1.414.027.383.398.371,1.031-.028,1.414l-2.301,2.212c-.379.379-.882.569-1.387.569-.51,0-1.021-.193-1.411-.582l-2.287-2.199Zm14.287,2.199c.389.389.901.582,1.411.582.505,0,1.008-.19,1.387-.569l2.301-2.212c.398-.383.411-1.016.028-1.414-.383-.397-1.015-.41-1.414-.027l-1.307,1.25V1c0-.553-.448-1-1-1s-1,.447-1,1v4.036l-1.307-1.257c-.397-.383-1.03-.37-1.414.027-.383.398-.371,1.031.028,1.414l2.287,2.199Zm5.406,1.58H2.002C.896,9,0,9.898.002,11.004l.009,4.096c.003.728.862,1.113,1.41.634.193-.168.347-.3.412-.35.673-.512,1.661-.512,2.334,0,.507.386,1.143.616,1.833.616s1.326-.23,1.833-.616c.673-.513,1.66-.513,2.334,0,.507.386,1.143.616,1.833.616s1.326-.23,1.833-.616c.673-.513,1.66-.513,2.334,0,.507.386,1.143.616,1.833.616s1.326-.23,1.833-.616c.673-.512,1.661-.512,2.334,0,.07.053.245.202.46.389.536.465,1.373.087,1.373-.623v-4.15c0-1.105-.895-2-2-2ZM1.5,18c-.828,0-1.5.672-1.5,1.5s.672,1.5,1.5,1.5,1.5-.672,1.5-1.5-.672-1.5-1.5-1.5Zm5,3c-.828,0-1.5.672-1.5,1.5s.672,1.5,1.5,1.5,1.5-.672,1.5-1.5-.672-1.5-1.5-1.5Zm11,0c-.828,0-1.5.672-1.5,1.5s.672,1.5,1.5,1.5,1.5-.672,1.5-1.5-.672-1.5-1.5-1.5Zm-5.5-3c-.828,0-1.5.672-1.5,1.5s.672,1.5,1.5,1.5,1.5-.672,1.5-1.5-.672-1.5-1.5-1.5Zm10.5,0c-.828,0-1.5.672-1.5,1.5s.672,1.5,1.5,1.5,1.5-.672,1.5-1.5-.672-1.5-1.5-1.5Z"/>
</svg>
