<?xml version="1.0" encoding="UTF-8"?>
<svg xmlns="http://www.w3.org/2000/svg" id="Layer_1" data-name="Layer 1" viewBox="0 0 24 24">
  <path d="M18.09,.988c-.783,.114-1.071,1.474-1.09,3.012-.011,1.06-.451,1-1,1-.927,0-2-1.5-2-1.5l.073-.578c.193-.578-.135-1.2-.721-1.367l-1.566-.488c-.603-.174-1.265-.006-1.714,.444l-1.072,1.489h0c-1.084,0-2.136,.382-2.965,1.08-.91,.643-1.508,1.719-2.005,2.69-.935,.316-1.865,.706-2.694,1.226C.497,8.523,0,9.457,0,10.447c.022,.661,.256,1.593,.462,2.194,.523,1.102,1.538,2.357,1.538,3.857,0,1,.7,1.502,1.419,1.502,.433,0,.873-.182,1.17-.548,2.845,.071,2.933-1.954,5.911-1.952,.786,0,1.389,.122,1.841,.28,.465,.163,.944,.221,1.43,.221,.496,.035,1.234-.296,1.256,.479,.096,.703,.453,1.34,1.057,1.712,.16,.098,.558,.303,.728,.403,.465,.274,.99,.419,1.524,.419,.503-.011,.998-.124,1.51-.192,.837-.129,1.544-.656,1.958-1.395,1.045-1.862,2.196-3.428,2.196-5.939,0-1.028-1.181-2.867-2-3.487-.231-2.769-2.85-4.857-3-5-.262-1.355-.535-2.012-.91-2.012h0Zm3.252,19.877c-.075,.712-.296,2.135-1.209,2.135-1.021,0-1.494-.909-1.738-1.747-.134-.46,.167-.934,.64-1.013l1.375-.229c.51-.085,.971,.329,.932,.845,0,.003,0,.006,0,.009Z"/>
</svg>
