<?xml version="1.0" encoding="UTF-8"?>
<svg xmlns="http://www.w3.org/2000/svg" id="Layer_1" data-name="Layer 1" viewBox="0 0 24 24">
  <path d="m14.5,9c.827,0,1.5.673,1.5,1.5s-.673,1.5-1.5,1.5h-1.5v-3h1.5m0-2h-2.5c-.552,0-1,.448-1,1v9c0,.552.448,1,1,1h0c.552,0,1-.448,1-1v-3h1.302c1.895,0,3.594-1.419,3.693-3.312.106-2.018-1.5-3.688-3.495-3.688h0Zm6.5,10V8c0-.552-.448-1-1-1h0c-.552,0-1,.448-1,1v9c0,.552.448,1,1,1h0c.552,0,1-.448,1-1Zm-11.983-.444l-2.114-4.834,1.783-3.167c.392-.696-.111-1.556-.909-1.556-.37,0-.712.196-.9.515l-2.048,3.485h-.829v-3c0-.552-.448-1-1-1s-1,.448-1,1v9c0,.552.448,1,1,1s1-.448,1-1v-4h1.153l1.981,4.393c.167.369.534.607.94.607.743,0,1.242-.763.944-1.444Z"/>
</svg>
