<?xml version="1.0" encoding="UTF-8"?>
<svg xmlns="http://www.w3.org/2000/svg" id="Layer_1" data-name="Layer 1" viewBox="0 0 24 24">
  <path d="m22.004,4.498c.001-.865-.525-1.61-1.34-1.898L14.199.319c-1.388-.491-2.916-.492-4.303-.006L3.353,2.603c-.818.286-1.346,1.03-1.346,1.896,0,.867.529,1.611,1.347,1.896l6.507,2.27c.689.24,1.414.361,2.138.361s1.448-.121,2.137-.361l5.864-2.045v4.379c0,.552.448,1,1,1s1-.448,1-1c0,0,.004-6.493.004-6.502Zm-7.209,6.056l3.205-1.118v.564c0,3.309-2.691,6-6,6s-6-2.691-6-6v-.563l3.203,1.118c1.799.627,3.794.627,5.592,0Zm4.205,13.446H5c-.318,0-.617-.151-.805-.407s-.244-.586-.15-.89c1.044-3.358,4.315-5.703,7.955-5.703s6.911,2.345,7.955,5.703c.094.303.039.634-.15.89s-.487.407-.805.407Z"/>
</svg>
