<?xml version="1.0" encoding="UTF-8"?>
<svg xmlns="http://www.w3.org/2000/svg" id="Layer_1" data-name="Layer 1" viewBox="0 0 24 24">
  <path d="m24,13.5v1c0,4.101-2.604,7.585-6.245,8.915.147-.391.249-.804.264-1.245.041-1.178.156-2.664.797-3.626.106-.159.183-.339.183-.544,0-.552-.448-1-1-1-.347,0-.637.187-.817.456-.916,1.374-1.109,3.114-1.162,4.646-.036,1.047-.948,1.898-2.033,1.898h-3.988c-4.716,0-8.579-3.63-8.962-8.247,1.442,1.393,3.541,2.247,5.962,2.247.552,0,1-.448,1-1s-.448-1-1-1c-3.013,0-5.306-1.581-5.866-3.887.65.291,1.359.47,2.116.47,1.752,0,3.296-.87,4.25-2.193.904,1.253,2.34,2.09,3.977,2.176.3.656.523,1.71.523,3.433v1c0,.552.448,1,1,1s1-.448,1-1v-1c0-1.158-.105-2.15-.298-3h4.298c1.686,0,3.5-1,3.632-3.756-.525-2.831-1.414-4.149-1.426-4.166-.12-.165-.206-.358-.206-.578,0-.552.448-1,1-1,.329,0,.608.17.79.416.066.089,2.21,3.084,2.21,9.584ZM3.25,10.583c-1.565,0-2.874-1.112-3.181-2.587-.045-.242-.069-.491-.069-.747v-.833c0-1.289.386-2.488,1.043-3.495-.603-.194-1.043-.754-1.043-1.421C0,.672.672,0,1.5,0c.668,0,1.227.439,1.421,1.043,1.007-.657,2.206-1.043,3.496-1.043h2.166c1.289,0,2.489.386,3.496,1.043.194-.603.754-1.043,1.421-1.043.828,0,1.5.672,1.5,1.5,0,.668-.44,1.227-1.043,1.421.657,1.007,1.043,2.206,1.043,3.495v1.083c-.007.043-.077.508-.086.551-.328,1.447-1.619,2.533-3.164,2.533-1.628,0-2.967-1.206-3.201-2.77.266-.18.451-.469.451-.814,0-.552-.448-1-1-1h-1c-.552,0-1,.448-1,1,0,.345.186.634.451.814-.235,1.563-1.574,2.77-3.201,2.77Zm6.75-5.083c0,.828.672,1.5,1.5,1.5s1.5-.672,1.5-1.5-.672-1.5-1.5-1.5-1.5.672-1.5,1.5Zm-6.5,1.5c.828,0,1.5-.672,1.5-1.5s-.672-1.5-1.5-1.5-1.5.672-1.5,1.5.672,1.5,1.5,1.5Z"/>
</svg>
