<?xml version="1.0" encoding="UTF-8"?>
<svg xmlns="http://www.w3.org/2000/svg" id="Layer_1" data-name="Layer 1" viewBox="0 0 24 24">
  <path d="m14.2,17.6h-1.601v1.801h1.601c.442,0,.8.358.8.8h0c0,.442-.358.8-.8.8h-1.601v2.2c0,.442-.358.8-.8.8h0c-.442,0-.8-.358-.8-.8v-6.4c0-.442.358-.8.8-.8h2.4c.442,0,.8.358.8.8h0c0,.442-.358.8-.8.8Zm9.4,5.601v-6.4c0-.442-.358-.8-.8-.8h0c-.442,0-.8.358-.8.8v6.4c0,.442.358.8.8.8h0c.442,0,.8-.358.8-.8Zm-3.754-2.663l.739,2.43c.156.514-.228,1.033-.765,1.033h-.064c-.356,0-.669-.235-.768-.576l-.705-2.424h-.784v2.2c0,.442-.358.8-.8.8h0c-.442,0-.8-.358-.8-.8v-6.4c0-.442.358-.8.8-.8h1.567c1.284,0,2.456.908,2.613,2.182.121.976-.324,1.854-1.047,2.362.024-.014.036-.023.055-.035-.018.012-.018.012-.042.029Zm-.546-2.038c0-.496-.404-.9-.9-.9h-.9v1.8h.9c.496,0,.9-.404.9-.9Zm4.7-10.5H0v-1C0,4.243,2.243,2,5,2h1v-1c0-.553.448-1,1-1s1,.447,1,1v1h8v-1c0-.553.448-1,1-1s1,.447,1,1v1h1c2.757,0,5,2.243,5,5v1Zm0,2v4h-12c-1.657,0-3,1.343-3,3v6c0,.552-.448,1-1,1h-3c-2.761,0-5-2.239-5-5v-9h24Z"/>
</svg>
