<?xml version="1.0" encoding="UTF-8"?>
<svg xmlns="http://www.w3.org/2000/svg" id="Layer_1" data-name="Layer 1" viewBox="0 0 24 24">
  <path d="M22,14c0,.552-.447,1-1,1H9c-.552,0-1-.448-1-1s.448-1,1-1h12c.553,0,1,.448,1,1ZM5,12H3c-.552,0-1,.448-1,1v2c0,.552,.448,1,1,1h2c.552,0,1-.448,1-1v-2c0-.552-.448-1-1-1Zm16,7H9c-.552,0-1,.448-1,1s.448,1,1,1h12c.553,0,1-.448,1-1s-.447-1-1-1Zm-16-1H3c-.552,0-1,.448-1,1v2c0,.552,.448,1,1,1h2c.552,0,1-.448,1-1v-2c0-.552-.448-1-1-1ZM24,3.5v3c0,1.933-1.567,3.5-3.5,3.5H3.5c-1.933,0-3.5-1.567-3.5-3.5V3.5C0,1.567,1.567,0,3.5,0H20.5c1.933,0,3.5,1.567,3.5,3.5Zm-4.886,0h-4.257c-.697,0-1.043,.846-.546,1.334l1.858,1.825c.455,.455,1.177,.455,1.632,0l1.858-1.825c.498-.489,.152-1.334-.546-1.334Z"/>
</svg>
