<?xml version="1.0" encoding="UTF-8"?>
<svg xmlns="http://www.w3.org/2000/svg" id="Layer_1" data-name="Layer 1" viewBox="0 0 24 24">
  <path d="m24,5c0,.552-.448,1-1,1h-2v6.039c0,1.298-.624,2.513-1.668,3.25-.262.185-.552.375-.854.565.756,1.098,1.522,2.592,1.522,4.145v1c0,.552-.448,1-1,1s-1-.448-1-1v-1c0-.899-.468-2.018-1.296-3.172-1.405.665-3.019,1.172-4.704,1.172s-3.299-.508-4.704-1.172c-.828,1.154-1.296,2.274-1.296,3.172v1c0,.552-.448,1-1,1s-1-.448-1-1v-1c0-1.553.766-3.047,1.522-4.145-.302-.19-.592-.38-.854-.565-1.045-.737-1.668-1.952-1.668-3.25v-6.039H1c-.552,0-1-.448-1-1s.448-1,1-1h2c0-.552.448-1,1-1s1,.448,1,1h2c.552,0,1,.448,1,1s-.448,1-1,1h-2v4.248c.262-.187.532-.362.807-.527l2.986,2.986c.188.188.442.293.707.293h5c.265,0,.52-.105.707-.293l2.986-2.986c.275.165.544.34.807.527v-4.248h-2c-.552,0-1-.448-1-1s.448-1,1-1h2c0-.552.448-1,1-1s1,.448,1,1h2c.552,0,1,.448,1,1Zm-14.086,6h4.172l2.201-2.201c-1.355-.518-2.801-.799-4.287-.799s-2.932.281-4.287.799l2.201,2.201Z"/>
</svg>
