<?xml version="1.0" encoding="UTF-8"?>
<svg xmlns="http://www.w3.org/2000/svg" id="Layer_1" data-name="Layer 1" viewBox="0 0 24 24">
  <path d="m11,22C5.66,22,1.03,18.04.031,12.993c-.224-1.134.804-2.162,1.938-1.938,5.047.999,9.031,5.604,9.031,10.944Zm5.995-10.947c-.168-2.642-1.64-5.558-3.544-7.932-.745-.929-2.156-.929-2.902,0-1.904,2.374-3.377,5.29-3.544,7.932,2.213,1.421,3.969,3.495,4.995,5.947,1.026-2.452,2.782-4.526,4.995-5.947Zm5.036.003c-5.047.999-9.031,5.604-9.031,10.944,5.34,0,9.97-3.96,10.969-9.007.224-1.134-.804-2.162-1.938-1.938Z"/>
</svg>
