<?xml version="1.0" encoding="UTF-8"?>
<svg xmlns="http://www.w3.org/2000/svg" id="Layer_1" data-name="Layer 1" viewBox="0 0 24 24">
  <path d="m4,16.414c-.256,0-.512-.098-.707-.293l-2.707-2.707c-.78-.78-.78-2.048,0-2.828l2.707-2.707c.391-.391,1.023-.391,1.414,0s.391,1.023,0,1.414l-2.707,2.707,2.707,2.707c.391.391.391,1.023,0,1.414-.195.195-.451.293-.707.293Zm18-3.414h2v2h-8c-.552,0-1,.447-1,1s.448,1,1,1h8v3c0,.553-.448,1-1,1h-11c-2.757,0-5-2.243-5-5v-8c0-2.757,2.243-5,5-5h11c.552,0,1,.448,1,1v3h-2c-.552,0-1,.448-1,1s.448,1,1,1h2v2h-2c-.552,0-1,.448-1,1s.448,1,1,1Zm-9,3c0-.552-.448-1-1-1s-1,.448-1,1,.448,1,1,1,1-.448,1-1Zm1-4c0-.552-.448-1-1-1h-1c-.552,0-1,.448-1,1s.448,1,1,1h1c.552,0,1-.448,1-1Zm0-4c0-.552-.448-1-1-1h-1c-.552,0-1,.448-1,1s.448,1,1,1h1c.552,0,1-.448,1-1Zm5,4c0-.552-.448-1-1-1h-1c-.552,0-1,.448-1,1s.448,1,1,1h1c.552,0,1-.448,1-1Zm0-4c0-.552-.448-1-1-1h-1c-.552,0-1,.448-1,1s.448,1,1,1h1c.552,0,1-.448,1-1Z"/>
</svg>
