<?xml version="1.0" encoding="UTF-8"?>
<svg xmlns="http://www.w3.org/2000/svg" id="Layer_1" data-name="Layer 1" viewBox="0 0 24 24">
  <path d="m18.266,23.992h.044c.494,0,.862-.454.761-.937l-1.142-5.435c-.135-.668-.527-1.627-1.753-1.627s-1.626,1.002-1.742,1.581l-1.165,5.479c-.103.484.266.939.76.939h0c.365,0,.68-.253.759-.61l.175-.79h2.379l.165.782c.076.36.393.617.761.617Zm-2.951-2.999l.686-3.104c.03-.149.105-.253.176-.296l.017.006c.024.016.121.118.168.349l.641,3.044h-1.688Zm8.685-4.2h0c0,.442-.358.8-.8.8h-.95v5.601c0,.442-.358.8-.8.8h0c-.442,0-.8-.358-.8-.8v-5.601h-.851c-.442,0-.8-.358-.8-.8h0c0-.442.358-.8.8-.8h3.4c.442,0,.8.358.8.8Zm-11.137,5.18c-.191,1.175-1.215,2.028-2.436,2.028-.664,0-1.3-.195-1.839-.552-.388-.257-.448-.802-.119-1.131h0c.236-.235.603-.283.888-.111.316.191.688.297,1.069.297.604,0,1.031-.404,1.096-.795.088-.55-.602-.873-.817-.959-.915-.371-1.751-.78-1.753-.78-.692-.484-1.027-1.231-.921-2.049.111-.845.674-1.534,1.471-1.796.839-.277,1.603-.076,2.152.203.405.205.518.733.238,1.095l-.011.014c-.195.253-.539.347-.831.216-.308-.138-.72-.237-1.156-.096-.412.136-.517.447-.515.577.005.442.335.57.433.615.282.128.806.368,1.366.595,1.461.591,1.828,1.745,1.685,2.627Zm11.137-14.972c0-2.757-2.243-5-5-5h-1v-1c0-.553-.448-1-1-1s-1,.447-1,1v1h-8v-1c0-.553-.448-1-1-1s-1,.447-1,1v1h-1C2.243,2,0,4.243,0,7v1h24v-1ZM0,10v9c0,2.761,2.239,5,5,5h1.541c-.14-.287-.244-.593-.276-.92-.081-.808.198-1.601.767-2.181-.782-.885-1.145-2.047-.987-3.263.213-1.613,1.296-2.929,2.827-3.434.469-.155.955-.203,1.445-.203h13.685v-4H0Z"/>
</svg>
