<?xml version="1.0" encoding="UTF-8"?>
<svg xmlns="http://www.w3.org/2000/svg" id="Layer_1" data-name="Layer 1" viewBox="0 0 24 24">
  <path d="m22.305,2.87l-2.281,4.622c-1.639-1.751-3.84-2.96-6.319-3.347l.945-1.915c.679-1.376,2.053-2.23,3.587-2.23h2.283c.692,0,1.324.351,1.689.939.366.588.401,1.31.095,1.931Zm-12.01,1.275l-.945-1.915c-.679-1.376-2.053-2.23-3.587-2.23h-2.26c-.692,0-1.324.351-1.689.938-.366.589-.401,1.311-.095,1.932l2.272,4.607c1.637-1.743,3.833-2.945,6.304-3.331Zm10.706,10.855c0,4.963-4.038,9-9,9S3,19.963,3,15,7.038,6,12,6s9,4.037,9,9Zm-5.333,2c0-.959-.461-1.805-1.163-2.354.312-.473.496-1.038.496-1.646,0-1.654-1.346-3-3-3h-2c-.553,0-1,.447-1,1s.447,1,1,1h2c.552,0,1,.448,1,1s-.448,1-1,1h-1c-.553,0-1,.447-1,1s.447,1,1,1h1.667c.552,0,1,.448,1,1s-.448,1-1,1h-2.667c-.553,0-1,.447-1,1s.447,1,1,1h2.667c1.654,0,3-1.346,3-3Z"/>
</svg>
