<?xml version="1.0" encoding="UTF-8"?>
<svg xmlns="http://www.w3.org/2000/svg" id="Layer_1" data-name="Layer 1" viewBox="0 0 24 24">
  <path d="m14.352,12.938c.871.795,1.907,1.278,2.945,1.278,1.591,0,3.295-1.012,4.155-1.748.23-.197.345-.474.345-.752s-.115-.555-.345-.752c-.163-.139-.356-.288-.572-.439l2.844-2.844c.391-.391.391-1.023,0-1.414s-1.023-.391-1.414,0l-3.286,3.286c-.56-.204-1.151-.337-1.727-.337-.46,0-.918.104-1.363.277h-.001s7.758-7.759,7.758-7.759c.391-.391.391-1.023,0-1.414s-1.023-.391-1.414,0l-7.755,7.755c.173-.444.276-.901.276-1.359,0-.587-.138-1.189-.349-1.759l3.276-3.276c.391-.391.391-1.023,0-1.414s-1.023-.391-1.414,0l-2.84,2.84c-.144-.206-.287-.39-.421-.546-.197-.23-.474-.345-.752-.345s-.555.115-.752.345c-.736.86-1.748,2.564-1.748,4.155,0,1.039.484,2.076,1.28,2.947L1.707.293C1.316-.098.684-.098.293.293S-.098,1.316.293,1.707l22,22c.195.195.451.293.707.293s.512-.098.707-.293c.391-.391.391-1.023,0-1.414l-9.355-9.355Zm-8.903-3.459l9.085,9.085c-.652.274-1.361.463-2.048.463-1.417,0-2.829-.899-3.824-2.262l-2.539,2.539c.445-.174.903-.277,1.363-.277,1.591,0,3.295,1.012,4.155,1.748.23.197.345.474.345.752s-.115.555-.345.752c-.86.736-2.564,1.748-4.155,1.748-1.417,0-2.829-.899-3.824-2.262l-1.969,1.969c-.195.195-.451.293-.707.293h-.003c-.256,0-.512-.098-.707-.293-.391-.391-.391-1.023,0-1.414l1.97-1.97C.884,19.354-.014,17.943-.014,16.526-.014,14.936.998,13.231,1.734,12.371c.197-.23.474-.345.752-.345s.555.115.752.345c.736.86,1.748,2.564,1.748,4.155,0,.458-.103.915-.276,1.359l2.536-2.536c-1.362-.995-2.26-2.406-2.26-3.823,0-.687.189-1.396.463-2.048Z"/>
</svg>
