<?xml version="1.0" encoding="UTF-8"?>
<svg xmlns="http://www.w3.org/2000/svg" id="Layer_1" data-name="Layer 1" viewBox="0 0 24 24">
  <path d="m16.729,17.831c.586.586.586,1.536,0,2.121-.586.586-1.536.586-2.121,0l-4.634-4.634c-.391-.391-1.024-.391-1.414,0h0c-.391.391-.391,1.024,0,1.414l4.211,4.211c.586.586.586,1.536,0,2.121-.586.586-1.536.586-2.121,0l-4.673-4.673C3.021,15.507,0,11.662,0,8,0,4.14,2.916,1,6.5,1c1.773,0,3.131.662,4.165,1.397l-3.639,3.608c-.662.661-1.026,1.541-1.026,2.476s.364,1.814,1.024,2.474c.661.662,1.54,1.026,2.476,1.026.426,0,.837-.085,1.225-.229l6.005,6.08Zm-2.308-9.306l-2.092,2.078,6.11,6.018c.586.586,1.536.586,2.121,0,.896-.896.129-1.888.129-1.888l-6.269-6.208Zm3.036-7.467c-1.634.01-3.186.72-4.382,1.834l-4.637,4.606c-.586.586-.586,1.536,0,2.121.586.586,1.536.586,2.121,0l2.497-2.48c.78-.775,2.038-.775,2.819,0l6.324,6.278c1.191-1.922,1.799-3.722,1.799-5.359,0-3.86-2.958-7-6.542-7Z"/>
</svg>
