<?xml version="1.0" encoding="UTF-8"?>
<svg xmlns="http://www.w3.org/2000/svg" id="Layer_1" data-name="Layer 1" viewBox="0 0 24 24">
  <path d="m15,4.974c0,2.385-1.459,4.01-3.183,4.678-.292.113-.531-.258-.304-.473.916-.868,1.486-2,1.486-3.205,0-2-2.047-2.961-3.5-2.992-1.212-.025-3.5-.008-3.5,1.992,0,.842.906,1.5,2,1.5.583,0,1.188-.135,1.668-.466.262-.181.595.113.438.39-.451.797-1.381,1.604-3.106,1.604-3,0-3.976-1.991-4-3.527-.024-1.627,1.023-3.326,3.011-3.942,3.371-1.493,8.988.205,8.988,4.442Zm8.338,7.371l-7.702,8.409c-1.894,2.068-4.57,3.246-7.374,3.246h-4.262c-2.209,0-4-1.791-4-4v-5c0-2.209,1.791-4,4-4h7.787c1.374,0,2.46,1.26,2.164,2.685-.193.926-1.004,1.598-1.94,1.732l-4.162.583c-.547.078-.927.585-.848,1.131.078.547.585.926,1.131.848l4.252-.596c2.062-.294,3.617-2.087,3.617-4.17,0-.219-.032-.429-.065-.638l3.541-3.737c.455-.5,1.097-.803,1.794-.835.692-.034,1.363.209,1.878.678,1.052.958,1.138,2.602.189,3.665Z"/>
</svg>
