<?xml version="1.0" encoding="UTF-8"?>
<svg xmlns="http://www.w3.org/2000/svg" id="Layer_1" data-name="Layer 1" viewBox="0 0 24 24">
  <path d="m23.975,22.634c-.141.811-.907,1.366-1.73,1.366h-11.245c-1.657,0-3-1.343-3-3v-2h11.504l-.022-.036c1.019-.153,1.855-.793,2.519-1.759v.795c0,1.264-.219,2.345.887,2.787.741.296,1.232,1.02,1.088,1.847ZM15.868,0c-1.076,1.698-1.667,4.285-1.825,7h-1.043c-.553,0-1,.448-1,1s.447,1,1,1h1.005c.058,3.07.655,6.095,1.863,8H5C2.291,17,.149,13.732.008,9h.992c.553,0,1-.448,1-1s-.447-1-1-1H.069C.461,2.814,2.486,0,5,0h10.868ZM6,8c0-.552-.447-1-1-1h-.5c-.553,0-1,.448-1,1s.447,1,1,1h.5c.553,0,1-.448,1-1Zm4.5,0c0-.552-.447-1-1-1h-.5c-.553,0-1,.448-1,1s.447,1,1,1h.5c.553,0,1-.448,1-1Zm11.5.5c0,4.694-1.343,8.5-3,8.5s-3-3.806-3-8.5S17.343,0,19,0s3,3.806,3,8.5Zm-2,0c0-1.105-.448-2-1-2s-1,.895-1,2,.448,2,1,2,1-.895,1-2Z"/>
</svg>
