<?xml version="1.0" encoding="UTF-8"?>
<svg xmlns="http://www.w3.org/2000/svg" id="Layer_1" data-name="Layer 1" viewBox="0 0 24 24">
  <path d="m24,11v9c0,2.209-1.791,4-4,4h-1c-2.206,0-4-1.794-4-4v-8.616l1.985-1.234c.323-.201.732-.201,1.055,0l2.227,1.384,2.202-1.381c.309-.194.696-.205,1.016-.028.318.176.516.511.516.875Zm-11-.556l-.473-.294c-.323-.201-.732-.201-1.055,0l-2.229,1.385-2.229-1.385c-.323-.201-.732-.201-1.055,0l-2.227,1.384-2.202-1.381c-.308-.193-.695-.203-1.016-.028-.318.176-.516.511-.516.875v9c0,2.209,1.791,4,4,4h10.54c-.954-1.063-1.54-2.462-1.54-4v-9.556Zm-9.262-1.268l1.166-.725c.977-.607,2.188-.606,3.163-.002l1.176.73,1.174-.729c.717-.444,1.559-.56,2.342-.352-.11-.447-.251-.886-.439-1.313l-.896-2.033c-.282-.64-.425-1.318-.425-2.017v-.736c.553,0,1-.447,1-1s-.447-1-1-1h-7c-.553,0-1,.447-1,1s.447,1,1,1v.736c0,.698-.143,1.377-.425,2.017l-.896,2.033c-.214.483-.373.982-.486,1.491.135.059.275.103.402.183l1.143.717Zm11.416-.242l.776-.482c.977-.606,2.188-.607,3.163-.002l1.169.727,1.145-.718c.186-.117.386-.196.588-.268-.015-1.308-.525-2.488-1.332-3.401.347-.077.708-.178,1.095-.335,1.037-.421,1.735-1.348,2.134-2.04.264-.458.026-1.042-.482-1.185-.769-.218-1.915-.394-2.952.027-.912.371-1.692,1.232-2.236,1.979-.47-.139-.957-.236-1.471-.236-1.284,0-2.447.482-3.361,1.251l.761,1.729c.141.319.65,1.662,1.004,2.955Z"/>
</svg>
