<?xml version="1.0" encoding="UTF-8"?>
<svg xmlns="http://www.w3.org/2000/svg" id="Layer_1" data-name="Layer 1" viewBox="0 0 24 24">
  <path d="M5,17c1.105,0,2,.895,2,2s-.895,2-2,2-2-.895-2-2,.895-2,2-2Zm12,2c0,1.105,.895,2,2,2s2-.895,2-2-.895-2-2-2-2,.895-2,2Zm-8.465-7.458l-1.921,1.878c-.89,.871-2.338,.871-3.229,0l-1.913-1.871c-1.957-1.958-1.957-5.129-.008-7.079,1.862-1.939,5.21-1.94,7.07,0,1.949,1.95,1.949,5.122,0,7.071Zm-1.535-3.542c0-1.105-.895-2-2-2s-2,.895-2,2,.895,2,2,2,2-.895,2-2Zm15.535,3.542l-1.921,1.878c-.89,.871-2.338,.871-3.229,0l-1.913-1.871c-1.957-1.958-1.957-5.129-.008-7.079,1.862-1.939,5.21-1.94,7.07,0,1.949,1.95,1.949,5.122,0,7.071Zm-1.535-3.542c0-1.105-.895-2-2-2s-2,.895-2,2,.895,2,2,2,2-.895,2-2Zm-6,11c0-.552-.447-1-1-1h-4c-.553,0-1,.448-1,1s.447,1,1,1h4c.553,0,1-.448,1-1Z"/>
</svg>
