<?xml version="1.0" encoding="UTF-8"?>
<svg xmlns="http://www.w3.org/2000/svg" id="Layer_1" data-name="Layer 1" viewBox="0 0 24 24">
  <path d="m15,10.222s-1,.556-2,.556h-2c-1.2,0-2.266-.542-3-1.382-.734.84-1.8,1.382-3,1.382h-1.046C1.762,10.778-.01,8.989,0,6.798c0-.011,0-.022,0-.033l.039-.262,1.171-2.876C1.823,1.48,3.785,0,6.017,0h.983v4c0,.552.448,1,1,1s1-.448,1-1V0h6v4c0,.552.447,1,1,1s1-.448,1-1V0h.982c2.232,0,4.194,1.48,4.808,3.626l1.171,2.874.039.259c.01,2.218-1.784,4.019-4,4.019h-1c-1.201,0-2.266-.542-3-1.382-.286.328-.622.605-1,.826Zm6.5,8.778c1.381,0,2.5,1.119,2.5,2.5h0c0,1.381-1.119,2.5-2.5,2.5H2.5c-1.381,0-2.5-1.119-2.5-2.5h0c0-1.381,1.119-2.5,2.5-2.5h5.651c.589,0,1.147.259,1.527.708l.247.292h4.149l.247-.292c.38-.449.938-.708,1.527-.708h5.652Zm-1.5-6.222h-1c-1.063,0-2.099-.289-3.005-.821l-.023.013c-.242.135-1.526.808-2.972.808h-2c-1.062,0-2.094-.288-3-.819-.905.531-1.938.819-3,.819h-1.046c-.676,0-1.333-.119-1.954-.334v4.666c.323-.067.656-.11,1-.11h5.151c.983,0,1.92.359,2.646,1h2.404c.726-.641,1.664-1,2.646-1h5.151c.344,0,.677.043,1,.11v-4.679c-.634.224-1.307.347-2,.347Z"/>
</svg>
