<?xml version="1.0" encoding="UTF-8"?>
<svg xmlns="http://www.w3.org/2000/svg" id="Layer_1" data-name="Layer 1" viewBox="0 0 24 24">
  <path d="M21,19c0,.552-.448,1-1,1H3c-.551,0-1,.448-1,1s.449,1,1,1H12c.552,0,1,.448,1,1s-.448,1-1,1H3.118c-1.451,0-2.784-.978-3.06-2.402-.372-1.915,1.092-3.598,2.942-3.598h1c0-.079,.076-6.266,4.974-8.866,.492,.477,1.055,.888,1.691,1.195,.027,.064,.152,.357,.152,.357,1.308,2.622,4.133,4.315,7.197,4.315h.985v3h1c.552,0,1,.448,1,1Zm3-9.812v2.259c0,.858-.696,1.554-1.554,1.554h-4.432c-2.336,0-4.44-1.269-5.408-3.208-.163-.412-.323-.743-.476-1.027-1.811-.582-3.131-2.26-3.131-4.265,0-2.485,2.015-4.5,4.5-4.5,1.978,0,3.638,1.284,4.242,3.057,.032,.063,.241,.724,.253,.99,.025,.536,.475,.953,1.005,.953,.612,.007,1.019-.495,.993-1.046-.028-.598-.142-1.171-.324-1.712,.099,.041,.205,.086,.324,.134,2.542,1.019,4.008,3.953,4.008,6.811Zm-2-.688c0-.828-.672-1.5-1.5-1.5s-1.5,.672-1.5,1.5,.672,1.5,1.5,1.5,1.5-.672,1.5-1.5Z"/>
</svg>
