<?xml version="1.0" encoding="UTF-8"?>
<svg xmlns="http://www.w3.org/2000/svg" id="Layer_1" data-name="Layer 1" viewBox="0 0 24 24">
  <path d="M15.246,19.489c.476,.476,.437,1.253-.133,1.722l-.211,.174c-1.667,1.372-4.086,1.416-5.759,.05C3.917,17.165-.724,11.297,.099,6.406c.124-.738,1.026-1.039,1.555-.509,2.912,2.912,10.916,10.916,13.593,13.593Zm8.461,2.804l-4.75-4.75c4.084-4.477,6.595-9.668,3.918-13.687-.599-.9-1.441-1.629-2.438-2.108-1.038-.5-2.113-.749-3.162-.749-1.212,0-2.391,.332-3.44,.991-.75,.472-1.372,1.076-1.842,1.768-.47-.692-1.092-1.296-1.842-1.768-1.959-1.23-4.365-1.32-6.603-.243-.085,.041-.158,.101-.24,.146L1.707,.293C1.316-.098,.684-.098,.293,.293S-.098,1.316,.293,1.707L22.293,23.707c.195,.195,.451,.293,.707,.293s.512-.098,.707-.293c.391-.391,.391-1.023,0-1.414Z"/>
</svg>
