<?xml version="1.0" encoding="UTF-8"?>
<svg xmlns="http://www.w3.org/2000/svg" id="Layer_1" data-name="Layer 1" viewBox="0 0 24 24">
  <path d="M24,23c0,.552-.447,1-1,1H1c-.552,0-1-.448-1-1s.448-1,1-1h3C4,15.536,1.656,12.765,.108,10.2c-.436-.723,.499-1.451,1.248-1.064,.811,.419,1.607,.905,2.376,1.451,1.429,3.861,2.267,7.617,2.267,10.519v.895h4v-1C10,16.5,12.123,4.95,19.885,.113c.638-.398,1.37,.331,1.027,1-2.997,5.842-5.912,12.887-5.912,19.887v1h2v-1c0-3.68,.885-7.38,2.075-10.757,1.332-1.311,2.734-2.515,3.695-3.15,.657-.433,1.473,.287,1.157,1.007-1.898,4.325-3.863,6.188-3.922,13.9h2.995c.553,0,1,.448,1,1Zm-16-1.895v-.105c0-2.318,.551-6.915,2.355-11.559-1.763-2.389-4.323-5.19-6.106-6.311-.693-.436-1.531,.302-1.156,1.029,2.836,5.498,4.907,11.998,4.907,16.946Z"/>
</svg>
