<?xml version="1.0" encoding="UTF-8"?>
<svg xmlns="http://www.w3.org/2000/svg" id="Layer_1" data-name="Layer 1" viewBox="0 0 24 24">
  <path d="m22.041,24h-11.041c-.783,0-1.488-.464-1.798-1.184s-.162-1.552.377-2.121c1.142-1.208,1.7-2.382,1.549-3.242-.108-.611-.111-1.239-.009-1.865.359-2.216,2.069-4.012,4.255-4.467.754-.157,1.588-.157,2.342,0,2.187.455,3.896,2.25,4.255,4.468.102.625.099,1.253-.01,1.865-.152.873.401,2.078,1.48,3.221.002.001.003.003.005.004.555.589.701,1.419.393,2.138-.31.719-1.016,1.183-1.798,1.183Zm-14.999-2c.01-.978.384-1.939,1.084-2.679.812-.859,1.019-1.446,1.026-1.584-.141-.768-.146-1.621-.007-2.47.271-1.673,1.12-3.156,2.319-4.267H2.688c-.767,0-1.453.423-1.789,1.104-.41.833-.899,2.159-.899,3.746,0,1.313.326,3.078.97,5.246.515,1.737,2.074,2.904,3.88,2.904h2.72c-.073-.128-.533-1.458-.528-2Zm-2.608-13h9.154c-.487-.816-.858-1.83-.665-3.393.042-.343.08-.8-.002-1.302-.254-1.573-1.515-2.897-3.065-3.219-.27-.057-.557-.085-.85-.085h-.006v.002c-.287.001-.568.028-.833.084-1.55.322-2.811,1.646-3.065,3.219-.082.502-.044.959-.002,1.302.193,1.563-.178,2.577-.665,3.393Z"/>
</svg>
