<?xml version="1.0" encoding="UTF-8"?>
<svg xmlns="http://www.w3.org/2000/svg" id="Layer_1" data-name="Layer 1" viewBox="0 0 24 24">
  <path d="m23.707,23.707c-.195.195-.451.293-.707.293s-.512-.098-.707-.293L.293,1.707C-.098,1.316-.098.684.293.293S1.316-.098,1.707.293l6.046,6.046c.197-.226.472-.339.747-.339.277,0,.555.115.752.345.576.673,1.321,1.863,1.618,3.11l1.131,1.131,1.262-1.262c-1.363-.996-2.262-2.407-2.262-3.824,0-1.591,1.012-3.295,1.748-4.155.197-.23.474-.345.752-.345s.555.115.752.345c.736.86,1.748,2.564,1.748,4.155,0,.46-.104.918-.277,1.363l1.285-1.285c-.041-1.184.068-2.872.902-3.706C19.04.742,21.314.231,22.778.012c.707-.106,1.311.498,1.205,1.205-.219,1.464-.729,3.738-1.86,4.868-.841.841-2.519.949-3.7.906l-1.286,1.286c.445-.174.903-.277,1.363-.277,1.591,0,3.295,1.012,4.155,1.748.23.197.345.474.345.752s-.115.555-.345.752c-.86.736-2.564,1.748-4.155,1.748-1.417,0-2.829-.899-3.824-2.262l-1.262,1.262,1.131,1.131c1.248.297,2.438,1.042,3.11,1.618.23.197.345.474.345.752,0,.275-.113.55-.339.747l6.046,6.046c.391.391.391,1.023,0,1.414ZM6,10.5c0,1.417.899,2.829,2.262,3.824l-2.539,2.539c.174-.445.277-.903.277-1.363,0-1.591-1.012-3.295-1.748-4.155-.197-.23-.474-.345-.752-.345s-.555.115-.752.345c-.736.86-1.748,2.564-1.748,4.155,0,1.417.899,2.829,2.262,3.824l-2.969,2.969c-.391.391-.391,1.023,0,1.414.195.195.451.293.707.293s.512-.098.707-.293l2.969-2.969c.996,1.363,2.407,2.262,3.824,2.262,1.591,0,3.295-1.012,4.155-1.748.23-.197.345-.474.345-.752s-.115-.555-.345-.752c-.86-.736-2.564-1.748-4.155-1.748-.46,0-.918.104-1.363.277l2.539-2.539c.996,1.363,2.407,2.262,3.824,2.262.081,0,.163-.003.244-.008l-7.736-7.736c-.005.082-.008.163-.008.244Z"/>
</svg>
