<?xml version="1.0" encoding="UTF-8"?>
<svg xmlns="http://www.w3.org/2000/svg" id="Layer_1" data-name="Layer 1" viewBox="0 0 24 24">
  <path d="m23.693,17.779c.398.383.411,1.016.028,1.414-.196.205-.458.307-.721.307-.25,0-.499-.093-.693-.279l-1.307-1.257v1.536c0,2.481-2.019,4.5-4.5,4.5h-3.5c-.552,0-1-.448-1-1s.448-1,1-1h3.5c1.378,0,2.5-1.122,2.5-2.5v-1.529l-1.307,1.25c-.397.383-1.03.371-1.414-.028-.383-.398-.371-1.031.028-1.414l2.301-2.212c.762-.761,2.023-.76,2.798.013l2.287,2.199ZM11,0h-3.5C5.019,0,3,2.019,3,4.5v1.536l-1.307-1.257c-.397-.382-1.03-.371-1.414.028-.383.398-.371,1.031.028,1.414l2.287,2.199c.389.389.901.583,1.411.583.505,0,1.008-.19,1.387-.569l2.301-2.212c.398-.383.411-1.016.028-1.414-.382-.399-1.016-.41-1.414-.028l-1.307,1.25v-1.529c0-1.378,1.122-2.5,2.5-2.5h3.5c.552,0,1-.448,1-1s-.448-1-1-1Zm4.035,13h7.929c.572,0,1.035-.428,1.035-1,0-.365-.181-.963-.507-1.129-.248-.126-.493-.376-.493-.871v-4h0v-1.179S23,.479,18.423.005c-.456-.047-.901.218-1.053.65-.52,1.484-1.337,2.16-2.482,2.635-.531.22-.888.729-.888,1.304,0,.776.629,1.406,1.405,1.406h2.594c-.289,2.885-1.832,4.434-3.207,4.87-.456.145-.793.528-.793,1.007v.088c0,.572.464,1.035,1.035,1.035Zm-8.035,0c0-.718-.845-1.745-1.437-2.689-.26-.415-.867-.415-1.127,0-.591.944-1.437,1.971-1.437,2.689,0,1.105.895,2,2,2s2-.895,2-2Zm2,9h-.5s-2-2-2-5h.5c.552,0,1-.448,1-1s-.448-1-1-1H3c-.552,0-1,.448-1,1s.448,1,1,1h.5c0,3-2,5-2,5h-.5c-.552,0-1,.448-1,1s.448,1,1,1h8c.552,0,1-.448,1-1s-.448-1-1-1Z"/>
</svg>
