<?xml version="1.0" encoding="UTF-8"?>
<svg xmlns="http://www.w3.org/2000/svg" id="Layer_1" data-name="Layer 1" viewBox="0 0 24 24">
  <path d="m23.333.057c-.52-.186-1.092.089-1.276.61-.282.797-1.04,1.333-1.886,1.333h-5.156c-.011,0-.021,0-.032,0H3.993C2.005,2,.342,3.426.04,5.392c-.101.654.089,1.316.52,1.818s1.057.79,1.718.79h9.547c1.975,0,3.677-1.474,3.959-3.429l.083-.571h2.114c-.205,3.696-2.628,9.671-6.971,14.042-1.355,1.373-1.34,3.594.033,4.95.681.672,1.57,1.007,2.458,1.007.904,0,1.808-.347,2.492-1.039,5.653-5.727,5.58-17.143,5.519-19.199,1.113-.398,2.024-1.272,2.432-2.427.184-.521-.089-1.092-.61-1.276Zm-9.833,21.943c-.828,0-1.5-.672-1.5-1.5s.672-1.5,1.5-1.5,1.5.672,1.5,1.5-.672,1.5-1.5,1.5Z"/>
</svg>
