<?xml version="1.0" encoding="UTF-8"?>
<svg xmlns="http://www.w3.org/2000/svg" id="Layer_1" data-name="Layer 1" viewBox="0 0 24 24">
  <path d="m23.138,6.906c-1.466-.589-2.671-1.538-3.427-2.707l4.145-3.421c.349-.33.006-.904-.45-.752l-4.407,1.61V.605c0-.378-.353-.68-.72-.59-1.096.271-1.952,1.217-2.201,2.322-2.841.935-3.869,3.652-4.049,5.551-2.094-.465-4.87-3.822-6.086-5.533-.423-.595-1.232-.452-1.518.289-.127.331-.328,1.201-.397,2.048-.164,1.981.648,6.082,5.925,8.582.471.223.681.782.488,1.266-.216.539-.846.779-1.37.53-2.5-1.188-4.02-2.429-5.172-4.196C2.059,11.701.231,13.872.032,17.924c-.009.179-.019.63-.024,1.067-.007.556.442,1.009.998,1.009.548,0,.992-.441.997-.989.003-.355.01-.719.023-.934.137-2.301.804-3.931,1.976-4.89.046,1.593.644,3.32,1.133,4.72.146.417.284.812.396,1.172l-.366,2.646c-.166,1.202.768,2.274,1.981,2.274h.084c1.01,0,1.861-.753,1.985-1.755l.401-3.245h4.383v3c0,1.215,1.083,2.176,2.336,1.973.983-.16,1.664-1.083,1.664-2.08v-3.288l.385-1.811c.417-1.46.615-2.416.615-3.896v-1.994c0-.514.389-.944.901-.995l2.816-.282c.729-.073,1.283-.686,1.283-1.418,0-.568-.335-1.093-.862-1.305Z"/>
</svg>
