<?xml version="1.0" encoding="UTF-8"?>
<svg xmlns="http://www.w3.org/2000/svg" id="Layer_1" data-name="Layer 1" viewBox="0 0 24 24">
  <path d="m19.5,7H6.678c-.431.644-.678,1.409-.678,2.219v10.281c0,2.485,2.015,4.5,4.5,4.5h9c2.485,0,4.5-2.015,4.5-4.5v-8c0-2.485-2.015-4.5-4.5-4.5Zm-6.5,13c0,.552-.448,1-1,1h-2c-.552,0-1-.448-1-1v-2c0-.552.448-1,1-1h2c.552,0,1,.448,1,1v2Zm0-7c0,.552-.448,1-1,1h-2c-.552,0-1-.448-1-1v-2c0-.552.448-1,1-1h2c.552,0,1,.448,1,1v2Zm7,7h-4c-.552,0-1-.448-1-1s.448-1,1-1h4c.552,0,1,.448,1,1s-.448,1-1,1Zm0-7h-4c-.552,0-1-.448-1-1s.448-1,1-1h4c.552,0,1,.448,1,1s-.448,1-1,1Zm-1-8h-9.528L17.91.705c.66.55,1.09,1.369,1.09,2.295v2ZM14.884,0l-7.606,3.872c-2.011,1.024-3.278,3.09-3.278,5.347v8.68c-2.282-.463-4-2.48-4-4.899V5C0,2.239,2.239,0,5,0h9.884Z"/>
</svg>
