<?xml version="1.0" encoding="UTF-8"?>
<svg xmlns="http://www.w3.org/2000/svg" id="Layer_1" data-name="Layer 1" viewBox="0 0 24 24">
  <path d="m18,23c0,.553-.448,1-1,1H7c-.552,0-1-.447-1-1s.448-1,1-1h4v-4h-2.621l.5-8h6.242l.5,8h-2.621v4h4c.552,0,1,.447,1,1ZM14.5.062c-.001-.021-.002-.042-.002-.062h-4.996c0,.021,0,.042-.002.062l-.496,7.938h5.992L14.5.062Zm8.924,7.938l-.464-3.634c-.318-2.489-2.45-4.366-4.96-4.366h-1.5l.5,8h6.424Zm.557,4.366l-.302-2.366h-6.554s.498,7.979.498,8h1.399c1.436,0,2.804-.618,3.752-1.696.949-1.077,1.389-2.513,1.207-3.938ZM7.5,0h-1.478C3.513,0,1.381,1.877,1.063,4.366l-.464,3.634h6.401L7.5,0Zm-.625,10H.343L.041,12.366c-.182,1.425.258,2.86,1.208,3.938.949,1.078,2.316,1.696,3.752,1.696h1.377c0-.021.498-8,.498-8Z"/>
</svg>
