<?xml version="1.0" encoding="UTF-8"?>
<svg xmlns="http://www.w3.org/2000/svg" id="Layer_1" data-name="Layer 1" viewBox="0 0 24 24">
  <path d="m21.999,18.467c0,4.068-4.484,5.533-7.499,5.533h-2C6.427,24,.004,18.092,0,12.505h0s0-.002,0-.003c0,0,0,0,0-.001,0,0,0,0,0,0,0-2.054.425-4.742,2.076-7.495H.523c-.462,0-.696-.561-.367-.885C1.82,2.484,3.879.882,5.274.085c.429-.245.968.069.971.564.011,2.044-.423,4.446-.836,6.422-.112.534-.851.591-1.044.08l-.681-1.627c-.69,1.917-1.683,2.976-1.683,6.976,0,3.969,5.527,8,9.5,8,1.21,0,3.5-.313,3.5-1.5,0-.607-.711-1.212-1.639-1.836l-3.293.842c-.379.084-.686-.309-.512-.656l1.164-1.892c-.212-.147-.423-.299-.631-.458h-3.612c-.44,0-.66-.532-.349-.843l1.872-1.307c-.185-.28-.351-.575-.49-.889l-3.051-.238c-.428-.053-.567-.604-.216-.855l2.768-1.587c.038-.876.227-1.609.714-2.378.247-.389.788-.481,1.157-.206.507.378,1.013.692,1.504.951-.249.765-.384,1.569-.384,2.352,0,.569.077,1.191.192,1.776.122.618.815.935,1.364.626,1.002-.563,2.5-1.393,3.515-1.902.303-.152.65-.352,1.098-.273.455.081.866.516.89.541,3.18,2.535,4.834,4.502,4.939,7.699Zm-1.999-13.467h3c.553,0,1-.447,1-1s-.447-1-1-1h-3.473c-.471-.604-1.211-1-2.027-1h-.698c-.824-.863-.97-1.369-1.106-1.635-.092-.18-.164-.365-.365-.365s-.365.164-.365.365c0,.923.057,1.347.18,2.016-.931-.444-2.407-1.791-2.997-2.283-.303-.253-.752.018-.678.406.164.866,1.117,2.519,1.665,3.307-1.551-.173-3.676-.633-4.671-.811-.368-.066-.614.371-.362.648.776.854,2.779,2.332,5.007,2.966-.524.674-.969,2.041-1.133,2.81-.088.41.358.725.712.501.932-.589,2.579-1.926,3.777-1.926,2.505,0,4.142,1.094,4.875,1.746.19.17.428.253.665.253.275,0,.55-.113.747-.335.367-.412.33-1.045-.082-1.412-.723-.644-2.105-1.617-4.132-2.04.188-1.196,1.463-1.212,1.463-1.212Z"/>
</svg>
