<?xml version="1.0" encoding="UTF-8"?>
<svg xmlns="http://www.w3.org/2000/svg" id="Layer_1" data-name="Layer 1" viewBox="0 0 24 24">
  <path d="m15,18V6c0-2.761-2.239-5-5-5h-5C2.239,1,0,3.239,0,6v8c0,2.209,1.791,4,4,4h11ZM4.962,8.114s1.121-1.514,1.16-1.552c.76-.743,1.996-.743,2.756,0,.039.038,1.154,1.546,1.154,1.546.625.654.968,1.509.968,2.416,0,1.254-.657,2.391-1.757,3.04-.527.311-1.134.467-1.741.467-.594,0-1.188-.149-1.708-.447-1.123-.642-1.794-1.786-1.794-3.06,0-.908.341-1.761.962-2.41Zm3.98,11.886c.034.162.058.328.058.5,0,1.381-1.119,2.5-2.5,2.5s-2.5-1.119-2.5-2.5c0-.172.024-.338.058-.5h4.885Zm-2.942-9.476c0-.401.154-.775.433-1.054.036-.036,1.067-1.429,1.067-1.429,0,0,1.025,1.386,1.061,1.422.283.284.439.66.439,1.061,0,.547-.282,1.027-.773,1.317-.43.252-1.008.255-1.439.007-.5-.286-.788-.769-.788-1.324Zm18-.524v1h-7v-6h2c2.761,0,5,2.239,5,5Zm-4.058,10c.034.162.058.328.058.5,0,1.381-1.119,2.5-2.5,2.5s-2.5-1.119-2.5-2.5c0-.172.024-.338.058-.5h4.885Zm-2.942-7h7v1c0,2.209-1.791,4-4,4h-3v-5Z"/>
</svg>
