<?xml version="1.0" encoding="UTF-8"?>
<svg xmlns="http://www.w3.org/2000/svg" id="Layer_1" data-name="Layer 1" viewBox="0 0 24 24">
  <path d="m19,18c-1.379,0-2.5-1.121-2.5-2.5s1.121-2.5,2.5-2.5,2.5,1.121,2.5,2.5-1.121,2.5-2.5,2.5Zm4,6h-8c-.311,0-.604-.145-.793-.392-.189-.247-.253-.567-.172-.868.591-2.203,2.633-3.741,4.966-3.741s4.375,1.538,4.966,3.741c.081.3.017.621-.172.868-.189.247-.482.392-.793.392Zm1-8.5V7c0-1.654-1.346-3-3-3H5c-.859,0-1.671-.372-2.235-.999.55-.614,1.348-1.001,2.235-1.001h18c.552,0,1-.448,1-1s-.448-1-1-1H5C3.178,0,1.58.98.706,2.44c-.025.037-.047.076-.067.116-.407.723-.639,1.557-.639,2.444v10c0,2.757,2.243,5,5,5h8.162c.567-.795,1.297-1.453,2.133-1.955-.499-.725-.795-1.6-.795-2.545,0-2.481,2.019-4.5,4.5-4.5s4.5,2.019,4.5,4.5h.5Z"/>
</svg>
