<?xml version="1.0" encoding="UTF-8"?>
<svg xmlns="http://www.w3.org/2000/svg" id="Layer_1" data-name="Layer 1" viewBox="0 0 24 24">
  <path d="M17.792,13.137L12.994,3.14c-.475-.985-.082-2.148,.893-2.646l.312-.168c.787-.38,1.651-.427,2.454-.145,.802,.282,1.446,.859,1.813,1.625l.694,1.446c-.003-.061-.005-.117-.005-.166,0-.833,.675-1.508,1.508-1.508s1.508,.675,1.508,1.508c0,.729-.331,1.39-.752,1.938,.631-.043,1.29,.037,1.855,.38,.712,.432,.939,1.36,.506,2.072-.432,.712-1.36,.939-2.072,.506-.11-.067-.259-.174-.42-.296l.954,1.987c.757,1.577,.094,3.476-1.479,4.239l-.258,.141c-.966,.519-2.262,.081-2.714-.915Zm-5.792-.137c0-1.522,0-4.25,0-4.25,0-.32-.195-.597-.498-.706-.301-.107-.63-.015-.848,.252l-1.154,1.704-1.231-1.675c-.425-.421-1.124-.411-1.579,.045l-1.19,1.63s-1.305-1.85-1.337-1.873c-.191-.136-.482-.152-.729-.04-.268,.124-.434,.385-.434,.681v4.232c-1.654,0-3,1.346-3,3v5c0,1.654,1.346,3,3,3h3.5v-8c0-.552,.447-1,1-1s1,.448,1,1v8h3.5c1.654,0,3-1.346,3-3v-5c0-1.654-1.346-3-3-3ZM.382,3.047l1.099,.463,.438,1.097c.186,.515,.975,.515,1.161,0l.436-1.09,1.09-.436c.515-.186,.515-.975,0-1.161l-1.09-.436-.436-1.09C2.894-.122,2.106-.122,1.92,.393l-.433,1.084L.404,1.887c-.518,.177-.533,.965-.021,1.16Zm7,2l1.099,.463,.438,1.097c.186,.515,.975,.515,1.161,0l.436-1.09,1.09-.436c.515-.186,.515-.975,0-1.161l-1.09-.436-.436-1.09c-.186-.515-.975-.515-1.161,0l-.433,1.084-1.082,.41c-.518,.177-.533,.965-.021,1.16Zm16.146,14.256l-1.308-.523-.523-1.308c-.223-.618-1.17-.618-1.393,0l-.52,1.301-1.299,.492c-.622,.212-.64,1.158-.026,1.392l1.318,.556,.526,1.316c.223,.618,1.17,.618,1.393,0l.523-1.308,1.308-.523c.618-.223,.618-1.17,0-1.393Z"/>
</svg>
