<?xml version="1.0" encoding="UTF-8"?>
<svg xmlns="http://www.w3.org/2000/svg" id="Layer_1" data-name="Layer 1" viewBox="0 0 24 24">
  <path d="m23,9h-1.829c-.1-.574-.17-1.221-.17-2.013,0-2.5,2.651-4.031,2.891-4.519.364-.741-.203-1.441-.953-1.441-.121,0-.246.018-.374.057-3.595,1.105-7.446,3.521-8.922,7.916h-3.474c-.093-.5-.168-1.005-.168-1.513,0-4.5,4.333-5.464,4.841-6.065.524-.619.023-1.398-.741-1.398-.06,0-.122.005-.185.015C9.01.826,4.06,3.037,2.51,9h-1.51c-.552,0-1,.447-1,1s.448,1,1,1h1.143c-.081.684-.137,1.394-.137,2.162,0,2.299,1.499,4.411,3.771,4.768.245.038.487.057.725.057,2.482,0,4.5-2.018,4.5-4.5,0-.443-.097-.997-.23-1.763-.04-.231-.099-.478-.157-.724h2.553c-.095.632-.157,1.288-.157,1.988,0,2.458,1.697,4.803,4.148,4.986.115.009.23.013.343.013,2.482,0,4.5-2.018,4.5-4.5,0-.998-.16-1.75-.352-2.487h1.351c.552,0,1-.447,1-1s-.448-1-1-1Zm-15,13.5c0,.828-.672,1.5-1.5,1.5s-1.5-.672-1.5-1.5.672-1.5,1.5-1.5,1.5.672,1.5,1.5Zm11,0c0,.828-.672,1.5-1.5,1.5s-1.5-.672-1.5-1.5.672-1.5,1.5-1.5,1.5.672,1.5,1.5Zm-16-3c0,.828-.672,1.5-1.5,1.5s-1.5-.672-1.5-1.5.672-1.5,1.5-1.5,1.5.672,1.5,1.5Zm10.5,0c0,.828-.672,1.5-1.5,1.5s-1.5-.672-1.5-1.5.672-1.5,1.5-1.5,1.5.672,1.5,1.5Zm10.5,0c0,.828-.672,1.5-1.5,1.5s-1.5-.672-1.5-1.5.672-1.5,1.5-1.5,1.5.672,1.5,1.5Z"/>
</svg>
