<?xml version="1.0" encoding="UTF-8"?>
<svg xmlns="http://www.w3.org/2000/svg" id="Layer_1" data-name="Layer 1" viewBox="0 0 24 24">
  <path d="m12.731,24h-7.731C2.243,24,0,21.757,0,19v-9.276C0,8.059.824,6.51,2.203,5.579L9.203.855c1.699-1.146,3.895-1.146,5.594,0l7.203,4.88c1.252.942,2,2.41,2,3.989v2.998c-1.467-1.667-3.61-2.726-6-2.726-4.411,0-8,3.589-8,8,0,2.392,1.061,4.537,2.731,6.004Zm5.269-12c-3.314,0-6,2.686-6,6s2.686,6,6,6,6-2.686,6-6-2.686-6-6-6Zm-1,3c0-.553.448-1,1-1s1,.447,1,1v2c0,.553-.448,1-1,1s-1-.447-1-1v-2Zm1,7c-.828,0-1.5-.672-1.5-1.5s.672-1.5,1.5-1.5,1.5.672,1.5,1.5-.672,1.5-1.5,1.5Z"/>
</svg>
