<?xml version="1.0" encoding="UTF-8"?>
<svg xmlns="http://www.w3.org/2000/svg" id="Layer_1" data-name="Layer 1" viewBox="0 0 24 24">
  <path d="m10.765,15l7.702,7.702c-.541.783-1.443,1.298-2.467,1.298h-8c-1.657,0-3-1.343-3-3v-3c0-1.657,1.343-3,3-3h2.765Zm-2-2L3.135,7.37C1.301,8.111.003,9.9,0,12v4c.003,1.986,1.18,3.782,3,4.576v-2.576c.003-2.76,2.24-4.997,5-5h.765Zm12.883,7.234l2.059,2.059c.391.391.391,1.023,0,1.414-.195.195-.451.293-.707.293s-.512-.098-.707-.293L.293,1.707C-.098,1.316-.098.684.293.293S1.316-.098,1.707.293l3.331,3.331c.192-2.03,1.882-3.624,3.962-3.624h6c2.209,0,4,1.791,4,4v1H6.414l2,2h10.586c2.76.003,4.997,2.24,5,5v4c-.002,1.739-.905,3.332-2.352,4.234Zm-6.648-10.234c0,.552.448,1,1,1h2c.552,0,1-.448,1-1s-.448-1-1-1h-2c-.552,0-1,.448-1,1Zm6,9.586v-1.586c-.003-2.76-2.24-4.997-5-5h-1.586l2.046,2.046c1.285.2,2.293,1.208,2.493,2.493l2.046,2.046Z"/>
</svg>
