<?xml version="1.0" encoding="UTF-8"?>
<svg xmlns="http://www.w3.org/2000/svg" id="Layer_1" data-name="Layer 1" viewBox="0 0 24 24">
  <path d="m18.359,4.998c-.393-.472-.639-1.071-.639-1.733,0-.703.434-1.296.763-1.675.154-.178.447-.081.46.154.024.439-.019,1.254.308,1.254,1.051,0,.428-1.583.881-2.7.122-.301.507-.392.761-.189.932.746,2.272,1.8,2.272,3.155,0,.662-.246,1.261-.639,1.733h-4.166Zm3.868,1.002l-.606,6.233c-.044.453-.323.849-.734,1.042l-3.098,1.459c-.376.177-.769.315-1.174.41l-3.615.856v7c0,.552-.448,1-1,1H3c-.552,0-1-.448-1-1v-4c0-3.314,2.686-6,6-6h8.776l2.597-1.223-.601-5.777h3.455Zm-14.228,5c2.757,0,5-2.243,5-5S10.757,1,8,1,3,3.243,3,6s2.243,5,5,5Z"/>
</svg>
