<?xml version="1.0" encoding="UTF-8"?>
<svg xmlns="http://www.w3.org/2000/svg" id="Layer_1" data-name="Layer 1" viewBox="0 0 24 24">
  <path d="m5.5,11c1.93,0,3.5-1.57,3.5-3.5s-1.57-3.5-3.5-3.5-3.5,1.57-3.5,3.5,1.57,3.5,3.5,3.5Zm10-4c1.93,0,3.5-1.57,3.5-3.5s-1.57-3.5-3.5-3.5-3.5,1.57-3.5,3.5,1.57,3.5,3.5,3.5Zm2.5,5c-3.314,0-6,2.686-6,6s2.686,6,6,6,6-2.686,6-6-2.686-6-6-6Zm3.683,5.712l-2.703,2.614c-.452.446-1.052.671-1.653.671s-1.203-.225-1.663-.674l-1.354-1.332c-.395-.387-.4-1.02-.014-1.414.386-.395,1.019-.401,1.414-.014l1.354,1.331c.144.142.38.139.522-.002l2.713-2.624c.397-.381,1.031-.37,1.414.029.382.398.369,1.031-.029,1.414Zm-11.181-2.506c-.324.87-.502,1.811-.502,2.794-.009,0-.018,0-.027,0H1.027c-.284,0-.556-.121-.745-.333s-.28-.494-.249-.777c.309-2.787,2.659-4.89,5.467-4.89,2.206,0,4.129,1.298,5.002,3.206Zm1.124-2.04c-.386-.545-.842-1.036-1.355-1.458.747-2.179,2.808-3.708,5.202-3.708,1.804,0,3.418.868,4.425,2.227-.608-.148-1.244-.227-1.897-.227-2.602,0-4.913,1.242-6.374,3.166Z"/>
</svg>
