<?xml version="1.0" encoding="UTF-8"?>
<svg xmlns="http://www.w3.org/2000/svg" id="Layer_1" data-name="Layer 1" viewBox="0 0 24 24">
  <path d="m21.194,16.9l-1.26-12.598c-.245-2.453-2.289-4.302-4.754-4.302h-6.361c-2.465,0-4.509,1.85-4.754,4.302l-1.26,12.598c-.028.281.064.561.254.771.189.209.458.329.741.329h16.398c.283,0,.552-.12.741-.329.19-.209.282-.489.254-.771ZM11,6h-1.075l-.11,1.1c-.052.516-.486.9-.994.9-.033,0-.067-.001-.101-.005-.549-.055-.95-.545-.896-1.095l.2-2c.051-.511.481-.9.995-.9h1.979c.552,0,1,.448,1,1s-.448,1-1,1Zm10,14H3c-1.657,0-3,1.343-3,3h0c0,.552.448,1,1,1h22c.552,0,1-.448,1-1h0c0-1.657-1.343-3-3-3Z"/>
</svg>
