<?xml version="1.0" encoding="UTF-8"?>
<svg xmlns="http://www.w3.org/2000/svg" id="Layer_1" data-name="Layer 1" viewBox="0 0 24 24">
  <path d="M6,24c-1.654,0-3-1.346-3-3v-3c0-1.654,1.346-3,3-3s3,1.346,3,3v3c0,1.654-1.346,3-3,3Zm0-7c-.551,0-1,.449-1,1v3c0,.551,.449,1,1,1s1-.449,1-1v-3c0-.551-.449-1-1-1Zm12,7c-1.654,0-3-1.346-3-3v-3c0-1.654,1.346-3,3-3s3,1.346,3,3v3c0,1.654-1.346,3-3,3Zm0-7c-.551,0-1,.449-1,1v3c0,.551,.449,1,1,1s1-.449,1-1v-3c0-.551-.449-1-1-1Zm-5,6v-7c0-.552-.536-1-1.088-1-.276,0-.539,.114-.728,.314l-1.427,1.515c-.378,.402-.359,1.035,.042,1.414,.334,.313,.825,.354,1.2,.13v4.627c0,.552,.448,1,1,1s1-.448,1-1ZM6,13c1.3,0,2.476,.511,3.366,1.328l.362-.384c.564-.6,1.36-.943,2.184-.943,1.083,0,2.05,.579,2.603,1.426,.902-.879,2.129-1.426,3.485-1.426,2.264,0,4.159,1.522,4.773,3.59,.772-1.178,1.227-2.581,1.227-4.093,0-3.565-2.534-6.658-6.026-7.354-.332-.066-.603-.273-.742-.569C15.68,1.302,12.089-.528,8.497,.135,5.225,.734,2.66,3.346,2.113,6.635c-.162,.971-.15,1.943,.033,2.89,.06,.309-.073,.653-.346,.901-1.145,1.041-1.801,2.524-1.801,4.07,0,1.191,.385,2.292,1.031,3.192,.164-2.61,2.318-4.689,4.969-4.689Z"/>
</svg>
