<?xml version="1.0" encoding="UTF-8"?>
<svg xmlns="http://www.w3.org/2000/svg" id="Layer_1" data-name="Layer 1" viewBox="0 0 24 24">
  <path d="m22.535,1.464h0c-.945-.944-2.2-1.464-3.535-1.464s-2.592.52-3.535,1.464c-1.949,1.95-1.949,5.122.008,7.079l1.787,1.749c.488.477,1.114.715,1.74.715s1.252-.238,1.74-.715l1.795-1.756c1.949-1.95,1.949-5.122,0-7.071Zm-3.534,4.823c-.828,0-1.5-.672-1.5-1.5s.672-1.5,1.5-1.5,1.5.672,1.5,1.5-.672,1.5-1.5,1.5Z"/>
  <path d="m24,18c0-2.206-1.794-4-4-4h-8c-1.103,0-2-.897-2-2s.897-2,2-2c.553,0,1-.448,1-1s-.447-1-1-1c-2.206,0-4,1.794-4,4s1.794,4,4,4h8c1.103,0,2,.897,2,2s-.897,2-2,2h-7c-.553,0-1,.448-1,1s.447,1,1,1h7c2.206,0,4-1.794,4-4Z"/>
  <path d="m9.932,19.637l-.815-2.09c-.604-1.547-2.066-2.546-3.727-2.546h-.39v4c0,.552-.447,1-1,1s-1-.448-1-1v-4H1c-.553,0-1,.448-1,1v5c0,.552.447,1,1,1h1v.5c0,.828.672,1.5,1.5,1.5s1.5-.672,1.5-1.5c0,.828.672,1.5,1.5,1.5s1.5-.672,1.5-1.5v-.5c1.299,0,2-1.03,2-2,0-.125-.023-.248-.068-.363Z"/>
</svg>
