<?xml version="1.0" encoding="UTF-8"?>
<svg xmlns="http://www.w3.org/2000/svg" id="Layer_1" data-name="Layer 1" viewBox="0 0 24 24">
  <path d="M8.5,10.6c.496,0,.9,.404,.9,.9v3c0,.496-.404,.9-.9,.9s-.9-.404-.9-.9v-3c0-.496,.404-.9,.9-.9m0-1.6c-1.381,0-2.5,1.119-2.5,2.5v3c0,1.381,1.119,2.5,2.5,2.5h0c1.381,0,2.5-1.119,2.5-2.5v-3c0-1.381-1.119-2.5-2.5-2.5h0ZM2.437,15.399c-.478-.032-.838-.45-.838-.929,0-.741,0-2.195,0-2.936,0-.479,.36-.897,.838-.929,.374-.025,.705,.181,.863,.489,.132,.258,.409,.409,.699,.409h0c.606,0,.989-.647,.703-1.181-.414-.771-1.222-1.3-2.154-1.317C1.146,8.978,0,10.158,0,11.559v2.886C0,15.846,1.146,17.026,2.547,17c.932-.018,1.74-.546,2.154-1.317,.287-.534-.097-1.181-.703-1.181h0c-.29,0-.567,.151-.699,.409-.158,.308-.488,.514-.863,.488Zm13.563,.601c0-1.129-.935-2.039-2.073-1.999-.931,.033-1.684,.719-1.878,1.599-.002,.009-.004,.02-.006,.032-.057,.369,.233,.702,.607,.702h0c.356,0,.657-.247,.748-.592,.005-.018,.01-.032,.015-.042,.109-.21,.318-.359,.566-.366,.378-.011,.687,.291,.687,.666h0c0,1-2.667,1.84-2.667,3.346h0c0,.361,.293,.654,.654,.654h2.692c.361,0,.654-.293,.654-.654v-.025c0-.361-.293-.654-.654-.654h-1.346c.575-.526,2-1.244,2-2.667Zm2.593-11.859c.611-.017,1.103-.86,1.099-1.883-.004-1.023-.502-1.634-1.112-1.617-.611,.017-1.103,.655-1.099,1.678,.004,1.023,.502,1.838,1.113,1.821Zm-3-.641c.611-.017,1.103-.86,1.099-1.883-.004-1.023-.502-1.634-1.112-1.617-.611,.017-1.103,.655-1.099,1.678,.004,1.023,.502,1.838,1.113,1.821Zm5.845,2c.526-.015,.949-.737,.946-1.614-.004-.877-.432-1.4-.958-1.386-.526,.015-.95,.562-.946,1.438,.003,.877,.432,1.576,.958,1.561Zm-2.958,.5c-.371,0-.869-.221-1.35-.434-.628-.278-1.278-.566-1.988-.566-1.571,0-3.162,1.066-3.162,3.104,0,1.362,.857,2.367,1.614,3.254,.191,.224,.378,.444,.551,.667,.999,.05,1.916,.406,2.634,1.098,.776,.75,1.222,1.799,1.222,2.878,0,.716-.18,1.328-.448,1.847,.283,.422,.448,.93,.448,1.475,0,1.488-1.19,2.679-2.654,2.679h-1.015c.564,1.178,1.758,2,3.149,2,1.93,0,3.5-1.57,3.5-3.5v-2.104c0-1.606,.515-3.049,1.013-4.443,.485-1.358,.987-2.763,.987-4.271,0-3.682-3.153-3.682-4.5-3.682Zm4.885-1.038c-.349,.01-.631,.374-.628,.959s.287,1.05,.636,1.041c.349-.01,.63-.491,.628-1.076-.002-.585-.287-.934-.636-.924Zm-11.365,.531c.955-.112,1.608-1.502,1.459-3.105C13.309,.785,12.444-.102,11.489,.009c-.955,.112-1.638,1.181-1.489,2.784,.149,1.603,1.044,2.811,1.999,2.699Z"/>
</svg>
