<?xml version="1.0" encoding="UTF-8"?>
<svg xmlns="http://www.w3.org/2000/svg" id="Layer_1" data-name="Layer 1" viewBox="0 0 24 24">
  <path d="m21.982,10.541v-.002c-.086-1.58-.613-3.167-1.573-4.561l-.012-.012c.815.104,1.666-.145,2.291-.771,1.073-1.073,1.877-3.616.805-4.689-1.073-1.073-3.616-.268-4.689.805-.626.626-.875,1.477-.771,2.291l-.012-.012c-1.393-.96-2.981-1.487-4.561-1.573h-.002c-.665-.677-2.313-2.017-4.959-2.017h-1.5c-.553,0-1,.447-1,1s.447,1,1,1h1.5c.797,0,1.451.172,1.99.397-1.125.365-2.17.983-3.047,1.861-1.352,1.352-2.755,3.738-3.616,6.294h0s0,.001,0,.001c-1.735.261-3.826,1.536-3.826,4.447,0,.553.447,1,1,1s1-.447,1-1c0-1.262.604-1.878,1.227-2.188-.365,1.907-.334,3.765.318,5.237-.613.814-1.125,1.891-1.483,2.794-.272.689.406,1.367,1.095,1.095.904-.358,1.982-.87,2.796-1.484.86.381,1.849.555,2.906.555.752,0,1.537-.085,2.329-.237-.31.623-.925,1.227-2.188,1.227-.553,0-1,.447-1,1s.447,1,1,1c2.911,0,4.185-2.092,4.447-3.826h.001c2.557-.861,4.942-2.264,6.294-3.616.878-.878,1.496-1.923,1.861-3.047.225.539.397,1.193.397,1.989v1.5c0,.553.447,1,1,1s1-.447,1-1v-1.5c0-2.646-1.34-4.294-2.018-4.959Zm-3.071.459h-1.987l-.848,3.163.75.75c.442.442.378,1.187-.148,1.525-.006.004-.012.007-.017.011-.397.255-.918.209-1.252-.125l-1.036-1.036-2.374.636v1.814c0,.47-.332.87-.791.972-.007.002-.013.003-.02.004-.612.135-1.189-.345-1.189-.972v-2.916l-.827-.827h-2.917c-.627,0-1.108-.577-.973-1.189.002-.007.003-.013.005-.02.102-.459.502-.791.972-.791h1.865l.626-2.335-1.076-1.076c-.334-.334-.379-.855-.125-1.252.004-.006.007-.012.011-.017.338-.525,1.083-.589,1.524-.147l.79.79,3.124-.837v-2.036c0-.607.544-1.091,1.143-.985.007.001.013.002.02.004.48.087.837.497.837.985v3.081l.827.827h3.081c.488,0,.898.357.985.838.001.007.002.013.004.02.106.598-.378,1.142-.985,1.142Zm-5.758-1.846l1.731,1.731-.634,2.365-2.365.634-1.731-1.731.634-2.365,2.365-.634Z"/>
</svg>
