<?xml version="1.0" encoding="UTF-8"?>
<svg xmlns="http://www.w3.org/2000/svg" id="Layer_1" data-name="Layer 1" viewBox="0 0 24 24">
  <path d="m21.501,14H2.678c.12-.302.261-.596.423-.88l2.058-3.601c.888-1.554,2.551-2.52,4.341-2.52h5.179c1.79,0,3.453.966,4.341,2.52l2.058,3.601c.162.284.303.578.423.88Zm.473,2h-3.974v1c0,.553-.447,1-1,1s-1-.447-1-1v-1h-7.821v1c0,.553-.447,1-1,1s-1-.447-1-1v-1h-3.974c-.017.197-.026.395-.026.594v1.406c0,1.478.805,2.771,2,3.463v.537c0,1.105.895,2,2,2s2-.895,2-2h7.821c0,1.105.895,2,2,2s2-.895,2-2v-.537c1.195-.693,2-1.985,2-3.463v-1.406c0-.199-.009-.397-.026-.594ZM20,0H4C1.791,0,0,1.791,0,4v11c0,.34.044.676.128,1l.103-.789c.063-.483.191-.952.381-1.4.263-.618.629-1.466.754-1.684l2.057-3.6c1.246-2.181,3.565-3.527,6.077-3.527h5.179c2.511,0,4.83,1.346,6.077,3.526l2.058,3.602c.14.245.492,1.051.694,1.522.1.233.171.473.216.722l.227,1.259c.033-.207.05-.418.05-.63V4c0-2.209-1.791-4-4-4Z"/>
</svg>
