<?xml version="1.0" encoding="UTF-8"?>
<svg xmlns="http://www.w3.org/2000/svg" id="Layer_1" data-name="Layer 1" viewBox="0 0 24 24">
  <path d="m21,14h-4c-1.654,0-3,1.346-3,3v4c0,1.654,1.346,3,3,3h4c1.654,0,3-1.346,3-3v-4c0-1.654-1.346-3-3-3Zm1,3v1h-2v-2h1c.551,0,1,.448,1,1Zm-5-1h1v2h-2v-1c0-.552.449-1,1-1Zm-1,5v-1h2v2h-1c-.551,0-1-.448-1-1Zm5,1h-1v-2h2v1c0,.552-.449,1-1,1Zm-4-10c-2.761,0-5,2.239-5,5v2c0,.553-.448,1-1,1s-1-.447-1-1v-4.124l-3.879,4.526c-.078.091-.121.206-.121.325v1.022c0,.783-.374,1.531-1,2l-1.399,1.05c-.18.135-.391.2-.599.2-.304,0-.604-.138-.801-.4-.332-.441-.242-1.068.2-1.399l1.4-1.05c.125-.094.2-.244.2-.4v-1.022c0-.598.214-1.175.603-1.628l4.032-4.704c-1.643,1.614-3.447,3.255-4.269,3.48-.305.084-.611.124-.913.124-1.516,0-2.909-1.008-3.33-2.538-.244-.889-.127-1.82.329-2.621.456-.802,1.197-1.377,2.085-1.621.798-.22,2.177-.22,4.462-.22h2.029l-4.982-3.559c-.655-.468-1.047-1.229-1.047-2.034v-.786c0-.132-.053-.261-.146-.354l-1.561-1.561c-.391-.391-.391-1.023,0-1.414S2.316-.098,2.707.293l1.561,1.561c.465.466.732,1.109.732,1.768v.786c0,.161.078.313.209.407l3.831,2.737c-.338-.426-.54-.965-.54-1.551,0-.922.499-1.727,1.242-2.16l.746-3.428c.12-.55.904-.55,1.023,0l.746,3.428c.743.433,1.242,1.238,1.242,2.16,0,.593-.207,1.138-.552,1.567l3.859-2.746c.133-.096.212-.25.21-.415l-.009-.762c-.008-.669.259-1.324.733-1.798l1.553-1.553c.391-.391,1.023-.391,1.414,0s.391,1.023,0,1.414l-1.553,1.554c-.095.095-.148.226-.146.359l.009.763c.009.819-.384,1.592-1.05,2.066l-4.99,3.551h2.034c1.682,0,3.18.178,4.451.527.889.244,1.629.512,2.085,1.313.029.051.045.107.071.159h-4.619Z"/>
</svg>
