<?xml version="1.0" encoding="UTF-8"?>
<svg xmlns="http://www.w3.org/2000/svg" id="Layer_1" data-name="Layer 1" viewBox="0 0 24 24">
  <path d="m23.49,22.938c-.501.695-1.346,1.062-2.203,1.062h-1.287c-.552,0-1-.448-1-1h0c0-.552.448-1,1-1h1.387c.325,0,.481-.221.534-.315.052-.095.155-.345-.017-.619l-.83-1.344c-.294-.468-.153-1.085.315-1.379h0c.468-.294,1.085-.153,1.379.315l.83,1.343c.572.91.541,2.038-.107,2.937Zm-2.797-7.701l-1.021-1.486c-.477-.76-1.312-1.221-2.209-1.221h-.011c-.9,0-1.735.467-2.207,1.233l-.949,1.481c-.29.47-.143,1.086.327,1.376h0c.47.29,1.086.143,1.376-.327l.943-1.473c.161-.261.416-.29.518-.29.127.008.356.026.519.286l1.02,1.484c.294.468.911.609,1.379.315h0c.468-.294.608-.911.315-1.379Zm-7.614,6.451c-.053-.094-.157-.343.013-.618l.838-1.356c.29-.47.143-1.086-.327-1.376h0c-.47-.29-1.086-.143-1.375.326l-.785,1.269c-.447.726-.581,1.631-.258,2.42.417,1.021,1.356,1.646,2.427,1.646h1.387c.552,0,1-.448,1-1h0c0-.552-.448-1-1-1h-1.387c-.323,0-.48-.219-.533-.312Zm-3.746,1.424c-.549-1.343-.397-2.923.407-4.228l3.803-6.17c.83-1.347,2.328-2.184,3.91-2.184.78,0,1.523.193,2.181.543l.481-5.074h.886c.553,0,1-.447,1-1s-.447-1-1-1h-4.101c-.465-2.279-2.484-4-4.899-4h-2c-2.414,0-4.434,1.721-4.899,4H1c-.552,0-1,.447-1,1s.448,1,1,1h.86l1.296,13.479c.248,2.578,2.388,4.521,4.977,4.521h1.695c-.191-.276-.364-.568-.495-.889ZM7.184,4c.414-1.161,1.514-2,2.816-2h2c1.302,0,2.402.839,2.816,2h-7.631Z"/>
</svg>
