<?xml version="1.0" encoding="UTF-8"?>
<svg xmlns="http://www.w3.org/2000/svg" id="Layer_1" data-name="Layer 1" viewBox="0 0 24 24">
  <path d="m19,18h4.54c-.347.913-.88,1.754-1.591,2.465l-1.484,1.485c-.712.711-1.552,1.244-2.465,1.591v-4.54c0-.551.448-1,1-1ZM5.512,5.25h-.715l.005,1.473.71-.003c.413,0,.762-.336.762-.735s-.349-.735-.762-.735Zm18.488-.25v10.515c0,.163-.013.324-.024.485h-4.976c-1.654,0-3,1.346-3,3v4.976c-.161.011-.322.024-.485.024H5c-2.757,0-5-2.243-5-5V5C0,2.243,2.243,0,5,0h14c2.757,0,5,2.243,5,5Zm-16.476.985c0-1.094-.902-1.985-2.012-1.985h-1.342c-.345,0-.625.28-.625.625v4.819c0,.345.28.625.625.625s.625-.28.625-.625v-1.471l.717-.003c1.109,0,2.012-.891,2.012-1.985Zm4.726-1.385c0-.331-.269-.6-.6-.6s-.6.269-.6.6v2.447l-1.158-2.615c-.117-.263-.377-.432-.665-.432-.401,0-.727.325-.727.727v4.673c0,.331.269.6.6.6s.6-.269.6-.6v-2.441l1.158,2.609c.117.263.377.432.665.432.402,0,.727-.326.727-.727v-4.673Zm5,2.588c0-.311-.252-.562-.562-.562h-.75c-.311,0-.562.252-.562.562s.252.562.562.562h.113v.351c0,.359-.27.673-.629.697-.393.026-.721-.286-.721-.673v-2.228c0-.326.222-.619.541-.683.212-.043.401.019.544.138.11.092.246.149.389.149h.046c.541,0,.801-.671.396-1.029-.334-.296-.774-.474-1.257-.471-1.037.008-1.861.881-1.861,1.919v2.164c0,1.051.86,1.937,1.911,1.917,1.019-.019,1.839-.851,1.839-1.875v-.938Z"/>
</svg>
