<?xml version="1.0" encoding="UTF-8"?>
<svg xmlns="http://www.w3.org/2000/svg" id="Layer_1" data-name="Layer 1" viewBox="0 0 24 24">
  <path d="m20.546,9c1.904,0,3.454-1.55,3.454-3.454,0-2.704-2.02-5.08-4.696-5.463-2.725-.389-5.475.608-7.362,2.664-2.253,2.455-5.349,6.4-7.3,11.024-.096.23-.487.266-.812.199-.679-.138-1.829-.859-1.829-2.691v-2.278c0-.553-.448-1-1-1s-1,.447-1,1v3.51c0,4.826,3.578,8.833,8.324,9.321.543.056,1.104.097,1.676.128v1.041c0,.553.448,1,1,1s1-.447,1-1v-1.003c.694-.042,1.368-.188,2-.444v.447c0,1.103.897,2,2,2h2c.553,0,1-.447,1-1s-.447-1-1-1h-2v-2c-.002-.252-.106-6.254-6.125-7.008-.548-.068-.937-.568-.868-1.116.068-.548.565-.933,1.117-.868,4.73.593,6.814,3.872,7.545,6.63.214-.644.33-1.324.33-2.024v-2.19c.354.236.77.604,1.2,1.177.196.263.496.4.801.4.209,0,.419-.065.599-.2.442-.331.532-.958.2-1.399-1.018-1.358-2.059-1.937-2.8-2.194v-2.207h2.546Z"/>
</svg>
