<?xml version="1.0" encoding="UTF-8"?>
<svg xmlns="http://www.w3.org/2000/svg" id="Layer_1" data-name="Layer 1" viewBox="0 0 24 24">
  <path d="m13.498,2.671c-3.197,2.27-4.585,5.494-5.148,7.331-.665,1.178-1.1,2.501-1.287,3.998h-1.062c-.552,0-1,.448-1,1v1.298l-3.113,1.125c-1.386.554-2.159,2.064-1.797,3.513l.009.034c.445,1.78,2.045,3.029,3.88,3.029h8.043c1.835,0,3.434-1.248,3.88-3.028l.009-.036c.361-1.448-.412-2.958-1.829-3.525l-3.082-1.113v-1.298c0-.552-.448-1-1-1h-.927c.051-.341.112-.677.195-1h-.012c1.59-4.897,5.974-8.919,9.513-9.333-3.154,2.231-5.32,5.233-6.689,7.629,1.939-.285,4.286-.95,6.422-2.467,3.213-2.281,4.89-5.53,5.447-7.362.224-.736-.326-1.467-1.095-1.467-2.015,0-6.092.353-9.356,2.671Z"/>
</svg>
