<?xml version="1.0" encoding="UTF-8"?>
<svg xmlns="http://www.w3.org/2000/svg" id="Layer_1" data-name="Layer 1" viewBox="0 0 24 24">
  <path d="m12,24.036c-.801,0-1.555-.312-2.122-.879l-2.157-2.157h-1.721c-1.654,0-3-1.346-3-3v-1.721l-2.158-2.158c-1.169-1.17-1.169-3.072,0-4.242l2.158-2.158v-1.721c0-1.654,1.346-3,3-3h1.721l2.158-2.157c1.133-1.133,3.109-1.133,4.243,0l2.157,2.157h1.721c1.654,0,3,1.346,3,3v1.721l2.158,2.158h0c1.168,1.17,1.168,3.072,0,4.242l-2.158,2.158v1.721c0,1.654-1.346,3-3,3h-1.721l-2.158,2.157c-.566.566-1.32.879-2.121.879Z"/>
</svg>
