<?xml version="1.0" encoding="UTF-8"?>
<svg xmlns="http://www.w3.org/2000/svg" id="Layer_1" data-name="Layer 1" viewBox="0 0 24 24">
  <path d="m20.501,9.03c-.594,0-1.187-.149-1.707-.447-1.123-.642-1.794-1.786-1.794-3.06,0-.915.346-1.773.977-2.425,0,0,1.252-1.564,1.281-1.593.697-.68,1.787-.68,2.484,0,.03.029,1.275,1.587,1.275,1.587.634.656.982,1.517.982,2.431,0,1.254-.656,2.391-1.757,3.04-.527.311-1.135.467-1.742.467ZM.293,6.707c.195.195.451.293.707.293s.512-.098.707-.293l1.793-1.793,2.483,2.483c-1.434,1.955-1.285,4.715.481,6.481l5.071,5.071c1.322,1.322,3.08,2.05,4.95,2.05h3.101s2.707,2.707,2.707,2.707c.195.195.451.293.707.293s.512-.098.707-.293c.391-.391.391-1.023,0-1.414l-2.707-2.707v-3.101c0-1.157-.28-2.27-.806-3.265l-2.487,2.487c-.195.195-.451.293-.707.293s-.512-.098-.707-.293c-.391-.391-.391-1.023,0-1.414l2.705-2.705c-.017-.017-1.583-1.588-1.583-1.588l-2.707,2.707c-.195.195-.451.293-.707.293s-.512-.098-.707-.293c-.391-.391-.391-1.023,0-1.414l2.707-2.707-1.586-1.586-2.707,2.707c-.195.195-.451.293-.707.293s-.512-.098-.707-.293c-.391-.391-.391-1.023,0-1.414l2.583-2.583c-1.704-1.004-3.871-.919-5.487.265l-2.475-2.475,1.793-1.793c.391-.391.391-1.023,0-1.414s-1.023-.391-1.414,0L.293,5.293c-.391.391-.391,1.023,0,1.414Z"/>
</svg>
