<?xml version="1.0" encoding="UTF-8"?>
<svg xmlns="http://www.w3.org/2000/svg" id="Layer_1" data-name="Layer 1" viewBox="0 0 24 24">
  <path d="m12,6c-4.962,0-9,4.037-9,9s4.038,9,9,9,9-4.037,9-9-4.038-9-9-9Zm2,14h-3.26c-.726,0-1.362-.437-1.622-1.111-.263-.682-.081-1.44.464-1.934.228-.205.509-.434.815-.682,1.153-.933,2.732-2.209,2.591-3.479-.05-.444-.483-.794-.988-.794-.552,0-1,.448-1,1s-.447,1-1,1-1-.447-1-1c0-1.654,1.346-3,3-3,1.532,0,2.812,1.105,2.977,2.572.262,2.359-1.895,4.103-3.321,5.257-.072.058-.143.115-.212.171h2.557c.553,0,1,.447,1,1s-.447,1-1,1ZM3.99,7.477L1.718,2.87c-.306-.621-.271-1.343.095-1.932.365-.588.997-.938,1.689-.938h2.26c1.534,0,2.909.854,3.587,2.23l.945,1.915c-2.471.386-4.667,1.589-6.304,3.331ZM22.305,2.87l-2.281,4.622c-1.639-1.751-3.84-2.96-6.319-3.347l.945-1.915c.679-1.376,2.053-2.23,3.587-2.23h2.283c.692,0,1.324.351,1.689.939.366.588.401,1.31.095,1.931Z"/>
</svg>
