<?xml version="1.0" encoding="UTF-8"?>
<svg xmlns="http://www.w3.org/2000/svg" id="Layer_1" data-name="Layer 1" viewBox="0 0 24 24">
  <path d="M14.4,5.25c0,.358-.292,.65-.65,.65h-.65v-1.3h.65c.358,0,.65,.292,.65,.65Zm-3.4,11.212l5.829,2.292c1.913,.752,3.171,2.598,3.171,4.653v.593H3.538l-1.821-1.628c-.917-.858-.96-2.307-.098-3.23,.861-.922,2.313-.97,3.235-.109,.034,.032,1.069,.898,2.145,1.784V12c0-1.215,1.083-2.176,2.336-1.973,.983,.16,1.664,1.083,1.664,2.08v4.355ZM24,4.5v4c0,2.485-2.015,4.5-4.5,4.5h-6.5v-.893c0-.772-.217-1.502-.589-2.13,.387-.056,.689-.375,.689-.777v-1.7h.65c1.243,0,2.25-1.007,2.25-2.25s-1.007-2.25-2.25-2.25h-1.45c-.442,0-.8,.358-.8,.8v5.107c-.407-.339-.883-.587-1.4-.737V3.8c0-.442-.358-.8-.8-.8s-.8,.358-.8,.8v4.253c-.764,.097-1.493,.392-2.09,.9-.039,.034-.067,.076-.105,.111V4.6h.395c.442,0,.8-.358,.8-.8s-.358-.8-.8-.8h-2.4c-.442,0-.8,.358-.8,.8s.358,.8,.8,.8h.405v4.601c0,.442,.358,.8,.8,.8,.023,0,.042-.011,.065-.013-.356,.607-.57,1.292-.57,2.013v1h-.5c-2.485,0-4.5-2.015-4.5-4.5V4.5C0,2.015,2.015,0,4.5,0h15c2.485,0,4.5,2.015,4.5,4.5Zm-3,3.423c0-1.303-1.128-1.842-1.951-2.235-.618-.296-1.023-.509-1.023-.765,0-.443,.525-.456,.585-.456,.115,0,.296,.07,.486,.171,.333,.177,.741,.117,.985-.171l.028-.033c.317-.375,.217-.95-.214-1.185-.369-.202-.827-.381-1.285-.381-1.245,0-2.185,.884-2.185,2.056,0,1.283,1.117,1.817,1.933,2.208,.734,.352,1.042,.539,1.042,.792,0,.519-.664,.534-.739,.534-.242,0-.539-.124-.799-.275-.311-.18-.708-.098-.947,.17l-.028,.032c-.324,.363-.245,.94,.176,1.184,.431,.249,1.001,.489,1.599,.489,1.134,0,2.339-.748,2.339-2.134Z"/>
</svg>
