<?xml version="1.0" encoding="UTF-8"?>
<svg xmlns="http://www.w3.org/2000/svg" id="Layer_1" data-name="Layer 1" viewBox="0 0 24 24">
  <path d="m12.951,19.034l-1.838-1.955c-.177-.19-.333-.394-.47-.607-.275.323-.685.529-1.143.529-.828,0-1.5-.672-1.5-1.5s.672-1.5,1.5-1.5c.169,0,.331.028.483.08.005-.155.018-.31.04-.466.178-1.261.911-2.366,2.012-3.03.897-.541,1.957-.7,2.966-.498v-1.086c0-2.757-2.243-5-5-5H2c0-1.1.9-2,2-2h4.44c-.69-1.19-1.97-2-3.44-2h-1C1.79,0,0,1.79,0,4v16c0,2.21,1.79,4,4,4h1c1.47,0,2.75-.81,3.44-2h-4.44c-1.1,0-2-.9-2-2h8c1.103,0,2.123-.359,2.951-.966Zm-3.451-12.034c.828,0,1.5.672,1.5,1.5s-.672,1.5-1.5,1.5-1.5-.672-1.5-1.5.672-1.5,1.5-1.5ZM3.262,15.796c-.622.207-1.262-.289-1.262-.945,0-.416.237-.822.632-.953.794-.265,1.368-1.016,1.368-1.898s-.574-1.633-1.368-1.898c-.394-.132-.632-.537-.632-.953,0-.656.64-1.153,1.262-.945,1.589.53,2.738,2.031,2.738,3.796s-1.149,3.266-2.738,3.796Zm20.757-4.275v7.479c0,.552-.448,1-1,1h-3.82c-1.655,0-3.237-.684-4.371-1.89l-2.258-2.402c-.934-1.007-.748-2.66.498-3.412,0,0,0,0,0,0,.81-.488,1.855-.35,2.589.245l2.304,1.788c.436.339,1.064.26,1.403-.177.339-.436.26-1.064-.177-1.403l-2.187-1.698v-2.053c0-1.07-.242-2.085-.673-2.994,2.026.076,3.952.918,5.384,2.363l1.775,1.792c.343.37.533.855.533,1.36Z"/>
</svg>
