<?xml version="1.0" encoding="UTF-8"?>
<svg xmlns="http://www.w3.org/2000/svg" id="Layer_1" data-name="Layer 1" viewBox="0 0 24 24">
  <path d="M15.01,9.767c-.859-1.262-2.426-2.767-5.01-2.767s-4.149,1.504-5.01,2.767c-.097,.142-.097,.325,0,.466,.861,1.263,2.429,2.768,5.01,2.768s4.149-1.505,5.01-2.767c.097-.142,.097-.324,0-.465h0Zm-5.01,1.732c-.829,0-1.5-.671-1.5-1.5s.671-1.5,1.5-1.5,1.5,.671,1.5,1.5-.671,1.5-1.5,1.5Zm13.707,10.793l-5.969-5.969c1.412-1.725,2.262-3.927,2.262-6.324C20,4.486,15.514,0,10,0S0,4.486,0,10s4.486,10,10,10c2.397,0,4.599-.85,6.324-2.262l5.969,5.969c.195,.195,.451,.293,.707,.293s.512-.098,.707-.293c.391-.391,.391-1.023,0-1.414Zm-7.045-10.933c-.927,1.359-3.025,3.64-6.662,3.64s-5.734-2.281-6.662-3.64c-.564-.826-.564-1.894,0-2.72,.927-1.359,3.024-3.64,6.662-3.64s5.737,2.281,6.662,3.641c.564,.827,.563,1.894,0,2.72Z"/>
</svg>
