<?xml version="1.0" encoding="UTF-8"?>
<svg xmlns="http://www.w3.org/2000/svg" id="Layer_1" data-name="Layer 1" viewBox="0 0 24 24">
  <path d="M22,0H2c-.552,0-1,.448-1,1s.448,1,1,1h.093l1.717,17.488c.252,2.572,2.392,4.512,4.976,4.512h6.428c2.584,0,4.724-1.939,4.976-4.512l1.717-17.488h.094c.552,0,1-.448,1-1s-.448-1-1-1ZM13.919,22l-1.893-1.893-1.893,1.893h-1.348c-.434,0-.843-.099-1.216-.264l3.042-3.042-1.997-1.997-2.779,2.779c-.01-.062-.029-.12-.035-.183l-.233-2.377,1.634-1.634-1.978-1.978-.01,.01-.31-3.158,.32,.32,1.997-1.997-2.752-2.752-.308-3.136,4.474,4.474,1.977-1.977-3.088-3.088h2.828l1.674,1.674,1.674-1.674h2.828l-3.088,3.088,1.978,1.978,4.415-4.415-.308,3.136-2.694,2.694,1.997,1.997,.262-.262-.308,3.136-1.931,1.931,1.586,1.586-.238,2.425c-.005,.048-.02,.091-.027,.138l-2.735-2.735-1.997,1.997,3.025,3.025c-.383,.175-.803,.282-1.251,.282h-1.295Zm-1.893-11.543l-1.978-1.978,1.977-1.977,1.978,1.978-1.977,1.977Zm-1.414,1.414l-1.997,1.997-1.978-1.978,1.997-1.997,1.978,1.978Zm2.828,0l1.977-1.977,1.997,1.997-1.977,1.977-1.997-1.997Zm.583,3.411l-1.997,1.997-1.997-1.997,1.997-1.997,1.997,1.997Z"/>
</svg>
