<?xml version="1.0" encoding="UTF-8"?>
<svg xmlns="http://www.w3.org/2000/svg" id="Layer_1" data-name="Layer 1" viewBox="0 0 24 24">
  <path d="m5,17.974h17v1c0,2.761-2.239,5-5,5H5c-1.657,0-3-1.343-3-3s1.343-3,3-3Zm0-2h1V.074C3.672.55,2,2.598,2,4.974v12.025c.699-.527,1.525-.86,2.395-.964.199-.041.402-.061.605-.061ZM22,4.974v11h-14V-.026h9c2.761,0,5,2.239,5,5Zm-5.977,6.026l1.293-1.293c.391-.391.391-1.023,0-1.414s-1.023-.391-1.414,0l-1.293,1.293-1.293-1.293c-.391-.391-1.023-.391-1.414,0s-.391,1.023,0,1.414l1.293,1.293-1.293,1.293c-.391.391-.391,1.023,0,1.414.195.195.451.293.707.293s.512-.098.707-.293l1.293-1.293,1.293,1.293c.195.195.451.293.707.293s.512-.098.707-.293c.391-.391.391-1.023,0-1.414l-1.293-1.293Zm2.192-8.699c-.394-.403-1.042-.401-1.433.004l-2.22,2.202-1.138-1.183c-.392-.414-1.05-.417-1.445-.006-.37.384-.372.992-.006,1.379l1.131,1.175c.787.832,2.109.839,2.905.015l2.211-2.193c.376-.389.374-1.007-.004-1.394Z"/>
</svg>
