<?xml version="1.0" encoding="UTF-8"?>
<svg xmlns="http://www.w3.org/2000/svg" id="Layer_1" data-name="Layer 1" viewBox="0 0 24 24">
  <path d="m20,0H4C1.791,0,0,1.791,0,4v4h22c1.105,0,2-.895,2-2v-2c0-2.209-1.791-4-4-4Zm1.467,3.814l-2.435,2.23c-.301.301-.788.301-1.089,0l-2.435-2.23c-.485-.485-.141-1.314.544-1.314h4.87c.686,0,1.029.829.544,1.314ZM4,24h8c2.209,0,4-1.791,4-4v-10H0v10c0,2.209,1.791,4,4,4Zm0-12h8c.552,0,1,.448,1,1h0c0,.552-.448,1-1,1H4c-.552,0-1-.448-1-1h0c0-.552.448-1,1-1Zm0,4h8c.552,0,1,.448,1,1h0c0,.552-.448,1-1,1H4c-.552,0-1-.448-1-1h0c0-.552.448-1,1-1Zm0,4h8c.552,0,1,.448,1,1h0c0,.552-.448,1-1,1H4c-.552,0-1-.448-1-1h0c0-.552.448-1,1-1Z"/>
</svg>
