<?xml version="1.0" encoding="UTF-8"?>
<svg xmlns="http://www.w3.org/2000/svg" id="Layer_1" data-name="Layer 1" viewBox="0 0 24 24">
  <path d="m1.237,2.921c-.323-.611-.311-1.327.039-1.929.36-.621,1.004-.992,1.723-.992h18.002c.719,0,1.362.371,1.723.992.35.602.362,1.318.039,1.929l-.034.079H1.271l-.034-.079Zm21.488,18.079H1.275l-.045.106c-.321.612-.307,1.328.043,1.929.361.619,1.004.989,1.721.989h18.014c.717,0,1.359-.37,1.721-.989.35-.601.364-1.317.043-1.929l-.045-.106Zm-.725-16v14H2V5h20Zm-5.124,3.011c-3.513.527-4.546,3.456-4.874,4.981,0,0-.001,0-.002,0s-.001,0-.002,0c-.325-1.528-1.385-4.453-4.874-4.981-.632-.096-1.196.465-1.117,1.099.478,3.81,3.416,4.661,4.994,4.842,0,.013-.001.027-.001.041v1.008c0,.552.447,1,1,1s1-.448,1-1v-1.008c0-.015,0-.03-.001-.046,1.571-.179,4.496-1.028,4.993-4.832.083-.635-.482-1.198-1.116-1.103Z"/>
</svg>
