<?xml version="1.0" encoding="UTF-8"?>
<svg xmlns="http://www.w3.org/2000/svg" id="Layer_1" data-name="Layer 1" viewBox="0 0 24 24">
  <path d="M8.994,6.389c.022,.15-.021,.302-.118,.419-.247,.296-.716,.241-.888-.104l-1.142-2.32-1.363,1.437c-.289,.289-.775,.217-.968-.143l-1.812-3.624c-.147-.296-.088-.652,.145-.886L3.828,.189c.313-.313,.842-.224,1.034,.175l.966,2.24,1.428-1.428c.337-.337,.914-.163,1.009,.304l.729,4.909Zm6.011,0c-.022,.15,.021,.302,.118,.419,.247,.296,.716,.241,.888-.104l1.142-2.32,1.363,1.437c.289,.289,.775,.217,.968-.143l1.812-3.624c.147-.296,.088-.652-.145-.886l-.979-.979c-.313-.313-.842-.224-1.034,.175l-.966,2.24-1.428-1.428c-.337-.337-.914-.163-1.009,.304l-.729,4.909Zm7.865,10.751c-.525,2.3-2.685,3.859-5.045,3.859h-4.826v-3c0-.723-.114-1.434-.33-2.111-.199-.623-.965-.859-1.51-.496-.369,.246-.536,.705-.399,1.127,.154,.475,.239,.971,.239,1.48v5c0,.552-.448,1-1,1s-1-.448-1-1v-1.029c-.807,.608-1.795,.989-2.875,1.016-2.836-.068-5.125-2.386-5.125-5.237,0-1.694,.834-3.293,2.205-4.272,.588-2.229,2.443-3.938,4.72-4.355,.93-1.32,2.449-2.122,4.076-2.122s3.139,.804,4.071,2.128c1.331,.261,2.504,.993,3.316,2.069,2.471,.712,4.096,3.258,3.483,5.943Zm-3.87-1.141c0-.553-.448-1-1-1s-1-.448-1-1-.448-1-1-1-1,.447-1,1c0,1.654,1.346,3,3,3,.552,0,1-.447,1-1Z"/>
</svg>
