<?xml version="1.0" encoding="UTF-8"?>
<svg xmlns="http://www.w3.org/2000/svg" id="Layer_1" data-name="Layer 1" viewBox="0 0 24 24">
  <path d="m24,21.5c0,1.379-1.121,2.5-2.5,2.5H2.5c-1.379,0-2.5-1.121-2.5-2.5,0-1.208.861-2.218,2.001-2.45,0-.017-.001-.033-.001-.05v-2c0-2.206,1.794-4,4-4,.553,0,1,.447,1,1s-.447,1-1,1c-1.103,0-2,.897-2,2v2h3v2c0,.553.447,1,1,1s1-.447,1-1v-2h2v2c0,.553.447,1,1,1s1-.447,1-1v-2h2v2c0,.553.447,1,1,1s1-.447,1-1v-2h3v-2c0-1.103-.897-2-2-2-.553,0-1-.447-1-1s.447-1,1-1c2.206,0,4,1.794,4,4v2c0,.017,0,.034-.001.05,1.14.232,2.001,1.242,2.001,2.45Zm-6.879-10.611c-1.157,1.916-3.25,3.196-5.484,3.063-3.145-.188-5.637-2.797-5.637-5.989,0-1.139.882-3.11,1.465-4.139.32-.566.812-.498,1.062.103.208.501.428,2.035,1.104,2.035,1.82,0,1.433-3.302,2.37-5.492.234-.548.637-.61,1.083-.215,2.6,2.303,6.736,6.168,4.038,10.636Zm-3.794-2.43l-.769-1.097c-.308-.308-.807-.308-1.115,0l-.77,1.096c-.754.754-.889,1.99-.195,2.8.802.937,2.242.937,3.044,0,.693-.809.559-2.046-.195-2.8Z"/>
</svg>
