<?xml version="1.0" encoding="UTF-8"?>
<svg xmlns="http://www.w3.org/2000/svg" id="Layer_1" data-name="Layer 1" viewBox="0 0 24 24">
  <path d="m12.5,1.5c0-.828.672-1.5,1.5-1.5s1.5.672,1.5,1.5v.262c.716-.48,1.575-.762,2.5-.762s1.784.282,2.5.762v-.262c0-.828.672-1.5,1.5-1.5s1.5.672,1.5,1.5-.672,1.5-1.5,1.5h-.262c.48.716.762,1.575.762,2.5v.757c.944.708,1.5,1.808,1.5,2.993,0,1.433-.816,2.665-2,3.296v-1.046c0-.552-.448-1-1-1s-1,.448-1,1v1.5h-4v-1.5c0-.552-.448-1-1-1s-1,.448-1,1v1.046c-1.184-.631-2-1.864-2-3.296,0-1.185.556-2.284,1.5-2.993v-.757c0-.925.282-1.784.762-2.5h-.262c-.828,0-1.5-.672-1.5-1.5Zm3.226,13.5c-2.914,0-5.491-2.169-5.71-5.074-.154-2.036.805-3.855,2.328-4.926h-2.925c-3.16,0-6.164,1.678-7.579,4.503-1.019,2.036-1.049,4.151-.422,6.023l-1.288,1.982c-.272.481-.102,1.091.379,1.362h0c.481.272,1.091.102,1.362-.379l.642-.838c.421.587.913,1.126,1.487,1.586v2.26c0,1.381,1.119,2.5,2.5,2.5h0c1.381,0,2.5-1.119,2.5-2.5v-.5h5v.5c0,1.381,1.119,2.5,2.5,2.5h0c1.381,0,2.5-1.119,2.5-2.5v-1.58c1.782-1.034,3.08-2.722,3.659-4.661l.302-.845c-.741.372-1.575.587-2.461.587h-4.774Z"/>
</svg>
