<?xml version="1.0" encoding="UTF-8"?>
<svg xmlns="http://www.w3.org/2000/svg" id="Layer_1" data-name="Layer 1" viewBox="0 0 24 24">
  <path d="m17.162,9.183l5.032-5.032s-1.194,1.349-1.194,2.849c0,.427.263,1.099.526,1.436.269.346.489.498.489.814s-.382.558-.621.924c-.261.399-.393.898-.393,1.326,0,1.5,1.14,2.661,1.14,2.661l-4.978-4.978Zm-1.414,1.414l-3.273,3.273,5.005,5.005,3.273-3.273-5.005-5.005Zm-11.037-1.663l-2.151,2.151c-1.006,1.005-1.56,2.343-1.56,3.766s.554,2.76,1.56,3.766l3.824,3.823c1.005,1.006,2.343,1.56,3.766,1.56s2.76-.554,3.766-1.56l2.151-2.151L4.711,8.934Zm6.35,3.522l3.273-3.273-4.936-4.936-3.273,3.273,4.936,4.936Zm4.687-4.687l5.039-5.038-1.17-1.17c-1.005-1.006-2.343-1.56-3.766-1.56s-2.76.554-3.766,1.56l-1.273,1.273,4.936,4.936Z"/>
</svg>
