<?xml version="1.0" encoding="UTF-8"?>
<svg xmlns="http://www.w3.org/2000/svg" id="Layer_1" data-name="Layer 1" viewBox="0 0 24 24">
  <path d="M12.595,6.029c-2.74-.264-5.477,1.366-6.357,4.298-.177,.588-.238,1.208-.238,1.822v1.35c0,1.381,1.119,2.5,2.5,2.5h.55c.232,1.14,.743,2,1.95,2h2c1.207,0,1.718-.86,1.95-2h.55c1.381,0,2.5-1.119,2.5-2.5v-1.278c0-3.178-2.374-5.898-5.405-6.193Zm-3.095,7.971c-.828,0-1.5-.672-1.5-1.5s.672-1.5,1.5-1.5,1.5,.672,1.5,1.5-.672,1.5-1.5,1.5Zm5,0c-.828,0-1.5-.672-1.5-1.5s.672-1.5,1.5-1.5,1.5,.672,1.5,1.5-.672,1.5-1.5,1.5Zm6.717,5.976l-4.608,1.024,4.608,1.024c.539,.12,.879,.654,.76,1.193-.104,.466-.518,.783-.976,.783-.072,0-.145-.008-.218-.024l-8.783-1.952-8.783,1.952c-.073,.016-.146,.024-.218,.024-.458,0-.872-.317-.976-.783-.119-.539,.221-1.073,.76-1.193l4.608-1.024-4.608-1.024c-.539-.12-.879-.654-.76-1.193,.12-.54,.656-.875,1.193-.759l8.783,1.952,8.783-1.952c.538-.116,1.073,.219,1.193,.759,.119,.539-.221,1.073-.76,1.193ZM4,15.37C.545,11.179-1.334,6.527,1.11,2.856c.6-.9,1.442-1.629,2.438-2.108,2.237-1.077,4.644-.988,6.603,.243,.75,.472,1.372,1.076,1.842,1.768,.47-.692,1.092-1.296,1.842-1.768,1.05-.66,2.229-.991,3.44-.991,1.049,0,2.124,.249,3.162,.749,.996,.479,1.839,1.208,2.438,2.108,2.442,3.666,.571,8.31-2.875,12.497v-3.131c0-4.196-3.168-7.791-7.212-8.184h0c-3.869-.37-7.344,1.978-8.466,5.717-.216,.723-.321,1.506-.321,2.394v3.22Z"/>
</svg>
