<?xml version="1.0" encoding="UTF-8"?>
<svg xmlns="http://www.w3.org/2000/svg" id="Layer_1" data-name="Layer 1" viewBox="0 0 24 24">
  <path d="m23,22H5c-.719,0-1.37-.264-1.887-.687.95-7.917,8.454-14.313,16.887-14.313h1.025l-2.275,2.275c-.391.391-.391,1.023,0,1.414.195.195.451.293.707.293s.512-.098.707-.293l3.25-3.25c.395-.394.588-.914.584-1.431,0-.003.002-.005.002-.008,0-.008-.004-.014-.004-.022-.011-.494-.199-.984-.572-1.357l-3.207-3.293c-.385-.398-1.019-.402-1.414-.02-.396.386-.404,1.019-.019,1.414l2.218,2.277h-1.001c-8.096,0-15.419,5.313-18,12.451V1c0-.553-.448-1-1-1S0,.447,0,1v18c0,2.757,2.243,5,5,5h18c.552,0,1-.447,1-1s-.448-1-1-1Z"/>
</svg>
