<?xml version="1.0" encoding="UTF-8"?>
<svg xmlns="http://www.w3.org/2000/svg" id="Layer_1" data-name="Layer 1" viewBox="0 0 24 24">
  <path d="m19.18,7.494c-.529-.203-.941-.555-1.191-1.018-1.775-3.298-5.461-5.035-9.175-4.313-3.29.636-5.954,3.267-6.629,6.545-.177.86-.227,1.729-.148,2.584.062.674-.335,1.215-.577,1.478-.941,1.018-1.459,2.343-1.459,3.73,0,3.032,2.243,5.5,5,5.5h11.278c3.959,0,7.336-2.981,7.689-6.787.311-3.348-1.658-6.521-4.787-7.719Zm-8.593,10.668c-.195.195-.451.293-.707.293s-.512-.098-.707-.293l-2.44-2.44c-.472-.473-.732-1.1-.732-1.768s.26-1.297.733-1.769l2.394-2.394c.391-.391,1.023-.391,1.414,0s.391,1.023,0,1.414l-2.394,2.395c-.127.128-.146.276-.146.354s.019.226.146.354l2.44,2.44c.391.391.391,1.023,0,1.414Zm6.681-2.44l-2.44,2.44c-.195.195-.451.293-.707.293s-.512-.098-.707-.293c-.391-.391-.391-1.023,0-1.414l2.44-2.44c.127-.128.146-.276.146-.354s-.019-.226-.146-.353l-2.395-2.396c-.391-.391-.391-1.023,0-1.414s1.023-.391,1.414,0l2.394,2.395c.472.471.732,1.099.732,1.768s-.26,1.295-.732,1.768Z"/>
</svg>
