<?xml version="1.0" encoding="UTF-8"?>
<svg xmlns="http://www.w3.org/2000/svg" id="Layer_1" data-name="Layer 1" viewBox="0 0 24 24">
  <path d="M.051,12.949H3.059c.099,.887,.324,1.736,.662,2.526l-2.615,1.476C.536,15.715,.169,14.369,.051,12.949Zm18.949-1c0,3.859-3.14,7-7,7s-7-3.141-7-7,3.14-7,7-7,7,3.14,7,7Zm-5.586,0l2.293-2.242c.391-.39,.391-1.024,0-1.414h0c-.39-.39-1.024-.39-1.414,0l-2.293,2.242-2.293-2.242c-.39-.39-1.024-.39-1.414,0h0c-.39,.39-.39,1.024,0,1.414l2.293,2.242-2.293,2.344c-.391,.39-.391,1.024,0,1.414h0c.39,.39,1.024,.39,1.414,0l2.293-2.344,2.293,2.344c.39,.39,1.024,.39,1.414,0h0c.39-.39,.39-1.024,0-1.414l-2.293-2.344ZM.051,10.949H3.059c.099-.887,.324-1.736,.662-2.527l-2.615-1.476C.536,8.184,.169,9.53,.051,10.949Zm10.949,12.949v-3.008c-.993-.11-1.934-.388-2.804-.796l-1.57,2.57c1.336,.673,2.811,1.105,4.373,1.235Zm4.804-3.804c-.869,.408-1.811,.685-2.804,.796v3.008c1.562-.13,3.037-.562,4.373-1.235l-1.57-2.57ZM13,0V3.008c.993,.11,1.934,.388,2.804,.796l1.569-2.57c-1.336-.673-2.811-1.105-4.373-1.235ZM6.49,19.05c-.676-.526-1.273-1.144-1.776-1.838l-2.63,1.485c.771,1.13,1.736,2.112,2.837,2.921l1.568-2.568Zm12.795-1.838c-.503,.694-1.1,1.312-1.776,1.838l1.568,2.568c1.101-.808,2.066-1.791,2.837-2.921l-2.63-1.485ZM8.196,3.804c.869-.408,1.811-.686,2.804-.796V0c-1.562,.13-3.037,.562-4.373,1.235l1.569,2.57Zm-3.482,2.883c.503-.694,1.1-1.313,1.776-1.838l-1.568-2.568c-1.102,.809-2.067,1.792-2.838,2.921l2.63,1.485Zm12.795-1.838c.676,.526,1.273,1.144,1.776,1.838l2.63-1.485c-.771-1.13-1.736-2.113-2.838-2.921l-1.568,2.568Zm5.384,2.098l-2.615,1.476c.338,.791,.564,1.64,.662,2.527h3.008c-.118-1.419-.486-2.766-1.056-4.003Zm1.056,6.003h-3.008c-.099,.887-.324,1.736-.662,2.526l2.615,1.476c.57-1.237,.938-2.583,1.056-4.003Z"/>
</svg>
