<?xml version="1.0" encoding="UTF-8"?>
<svg xmlns="http://www.w3.org/2000/svg" id="Layer_1" data-name="Layer 1" viewBox="0 0 24 24">
  <path d="m6,7.273c0-1.437,1.012-2.679,2.424-2.946.955-.181,2.164-.327,3.576-.327s2.621.146,3.576.327c1.412.267,2.424,1.509,2.424,2.946v4.328c0,.685-.642,1.184-1.306,1.015-1.113-.282-2.827-.616-4.694-.616s-3.581.334-4.694.616c-.664.168-1.306-.33-1.306-1.015v-4.328Zm15,6.714s1.637-1.034,2.69-2.008c.509-.471.359-1.311-.272-1.598-.737-.336-2.014-.754-3.419-1.044v2.264c0,.947-.428,1.824-1.175,2.405-.532.414-1.17.632-1.825.641v.639c0,.948.662,1.77,1.592,1.957,1.353.272,3.013.71,4.317,1.165.698.244,1.346-.508.991-1.157-1.035-1.89-2.899-3.263-2.899-3.263Zm-15.825.019c-.747-.581-1.175-1.458-1.175-2.405v-2.264c-1.405.291-2.682.709-3.419,1.044-.631.287-.781,1.128-.272,1.598,1.053.974,2.69,2.008,2.69,2.008,0,0-1.864,1.373-2.899,3.263-.355.649.292,1.401.991,1.157,1.304-.456,2.964-.893,4.317-1.165.93-.187,1.592-1.008,1.592-1.957v-.646c-.655-.009-1.294-.22-1.825-.634Z"/>
</svg>
