<?xml version="1.0" encoding="UTF-8"?>
<svg xmlns="http://www.w3.org/2000/svg" id="Layer_1" data-name="Layer 1" viewBox="0 0 24 24">
  <path d="m12,15c-.552,0-1-.448-1-1v-4c0-.552.448-1,1-1s1,.448,1,1v4c0,.552-.448,1-1,1Zm-8-1c0-.26.232-.513.579-.631l2.485-.845c1.158-.393,1.936-1.408,1.936-2.524,0-.552-.448-1-1-1s-1,.448-1,1c0,.26-.232.513-.579.631l-2.485.845c-1.158.393-1.936,1.408-1.936,2.524,0,.552.448,1,1,1s1-.448,1-1Zm18,0c0-1.117-.777-2.131-1.936-2.524l-2.486-.845c-.346-.118-.578-.371-.578-.631,0-.552-.447-1-1-1s-1,.448-1,1c0,1.117.777,2.131,1.936,2.524l2.486.845c.346.118.578.371.578.631,0,.552.447,1,1,1s1-.448,1-1ZM3.5,20c1.105,0,2-.895,2-2s-.895-2-2-2-2,.895-2,2,.895,2,2,2Zm3.409,3.416c.163-.355.104-.773-.152-1.07-.119-.138-1.222-1.346-3.257-1.346s-3.138,1.208-3.257,1.346c-.256.296-.315.714-.152,1.07.163.356.518.584.909.584h5c.391,0,.747-.228.909-.584Zm13.591-3.416c1.105,0,2-.895,2-2s-.895-2-2-2-2,.895-2,2,.895,2,2,2Zm3.409,3.416c.163-.355.104-.773-.152-1.069-.119-.138-1.221-1.347-3.257-1.347s-3.138,1.208-3.257,1.347c-.256.296-.315.714-.152,1.069.163.356.518.584.909.584h5c.392,0,.746-.228.909-.584Zm-11.909-3.416c1.105,0,2-.895,2-2s-.895-2-2-2-2,.895-2,2,.895,2,2,2Zm3.409,3.416c.163-.355.104-.773-.152-1.069-.119-.138-1.221-1.347-3.257-1.347s-3.138,1.208-3.257,1.346c-.256.296-.315.714-.152,1.07.163.356.518.584.909.584h5c.392,0,.746-.228.909-.584Zm-3.409-19.416c1.105,0,2-.895,2-2s-.895-2-2-2-2,.895-2,2,.895,2,2,2Zm3.409,3.416c.163-.355.104-.773-.152-1.069-.119-.138-1.221-1.347-3.257-1.347s-3.138,1.208-3.257,1.346c-.256.296-.315.714-.152,1.07.163.356.518.584.909.584h5c.392,0,.746-.228.909-.584Z"/>
</svg>
