<?xml version="1.0" encoding="UTF-8"?>
<svg xmlns="http://www.w3.org/2000/svg" id="Layer_1" data-name="Layer 1" viewBox="0 0 24 24">
  <path d="m4,19c-1.379,0-2.5-1.121-2.5-2.5s1.121-2.5,2.5-2.5,2.5,1.121,2.5,2.5-1.121,2.5-2.5,2.5Zm10.5-2.5c0-1.381-1.119-2.5-2.5-2.5s-2.5,1.119-2.5,2.5,1.119,2.5,2.5,2.5,2.5-1.119,2.5-2.5Zm-2.5-11.5c1.381,0,2.5-1.119,2.5-2.5s-1.119-2.5-2.5-2.5-2.5,1.119-2.5,2.5,1.119,2.5,2.5,2.5Zm5.5,11.5c0,1.381,1.119,2.5,2.5,2.5s2.5-1.119,2.5-2.5-1.119-2.5-2.5-2.5-2.5,1.119-2.5,2.5Zm-1.5-8.073v3.467c0,.367-.201.705-.524.879-.149.081-.312.121-.476.121-.191,0-.381-.055-.546-.163-1.466-.955-3.441-.955-4.907,0-.308.201-.699.218-1.022.042-.323-.174-.524-.512-.524-.879v-3.467c-.659-.279-1.284-.639-1.835-1.111L.849,2.759c-.419-.359-.468-.99-.108-1.409.359-.42.991-.468,1.41-.108l5.315,4.556c.906.775,2.062,1.203,3.254,1.203h2.561c1.192,0,2.348-.428,3.254-1.204l5.314-4.555c.418-.36,1.05-.312,1.41.108.359.419.311,1.05-.108,1.409l-5.315,4.556c-.551.472-1.177.833-1.836,1.112Zm7.935,14.219c-.6-1.582-2.181-2.646-3.935-2.646s-3.335,1.063-3.935,2.646c-.117.308-.075.652.112.923.187.271.494.432.823.432h6c.329,0,.636-.161.823-.432.187-.271.229-.615.112-.923Zm-11.935-2.646c-1.754,0-3.335,1.063-3.935,2.646-.117.308-.075.652.112.923.187.271.494.432.823.432h6c.329,0,.636-.161.823-.432.187-.271.229-.615.112-.923-.6-1.582-2.181-2.646-3.935-2.646Zm-8,0c-1.754,0-3.335,1.063-3.935,2.646-.117.308-.075.652.112.923.187.271.494.432.823.432h6c.329,0,.636-.161.823-.432.187-.271.229-.615.112-.923-.6-1.582-2.181-2.646-3.935-2.646Z"/>
</svg>
