<?xml version="1.0" encoding="UTF-8"?>
<svg xmlns="http://www.w3.org/2000/svg" id="Layer_1" data-name="Layer 1" viewBox="0 0 24 24">
  <path d="M12.915,24c-.265,0-.53-.105-.727-.313l-2.224-2.354c-.364-.385-.364-.986,0-1.372l2.046-2.172-2.046-2.172c-.363-.385-.363-.986,0-1.371l2.045-2.171-2.045-2.171c-.363-.385-.363-.986,0-1.371l2.046-2.173-2.046-2.171c-.362-.384-.363-.982-.003-1.368L12.298,.317c.378-.404,1.01-.426,1.414-.048,.404,.377,.425,1.01,.048,1.413l-1.698,1.817,2.048,2.174c.363,.385,.363,.986,0,1.371l-2.046,2.173,2.045,2.171c.363,.385,.363,.986,0,1.371l-2.045,2.171,2.045,2.172c.363,.385,.363,.986,0,1.371l-2.045,2.171,1.577,1.669c.379,.401,.361,1.034-.041,1.413-.193,.183-.44,.273-.687,.273ZM5,5c1.381,0,2.5-1.119,2.5-2.5S6.381,0,5,0,2.5,1.119,2.5,2.5s1.119,2.5,2.5,2.5Zm14.001,0c1.381,0,2.5-1.119,2.5-2.5s-1.119-2.5-2.5-2.5-2.5,1.119-2.5,2.5,1.119,2.5,2.5,2.5Zm4.976,11.628l-.876-7.007c-.257-2.064-2.02-3.621-4.101-3.621-1.992,0-3.68,1.435-4.045,3.37l.61,.648c1.087,1.153,1.087,2.96,0,4.114l-.752,.799,.754,.801c.909,.964,1.048,2.381,.434,3.494v3.774c0,.553,.447,1,1,1s1-.447,1-1v-3h2v3c0,.553,.447,1,1,1s1-.447,1-1v-3.172c.476-.168,.908-.456,1.249-.843,.569-.646,.834-1.504,.728-2.357Zm-15.469-3.755l.752-.799-.753-.8c-1.087-1.152-1.087-2.96,0-4.114l.133-.141c-.706-.626-1.625-1.019-2.641-1.019h-2C1.794,6,0,7.794,0,10v3c0,1.478,.805,2.771,2,3.463v6.537c0,.553,.447,1,1,1s1-.447,1-1v-6h2v6c0,.553,.447,1,1,1s1-.447,1-1v-6.787c-.519-1.088-.361-2.419,.508-3.34Z"/>
</svg>
