<?xml version="1.0" encoding="UTF-8"?>
<svg xmlns="http://www.w3.org/2000/svg" id="Layer_1" data-name="Layer 1" viewBox="0 0 24 24">
  <path d="M14,7V.46c.913,.346,1.753,.879,2.465,1.59l3.484,3.486c.712,.711,1.245,1.551,1.591,2.464h-6.54c-.552,0-1-.449-1-1Zm.639,9.514c-.55,.077-1.089-.288-1.174-.827-.155-.978-.981-1.687-1.965-1.687-1.103,0-2,.897-2,2,0,.209,.04,.412,.129,.659,.119,.327,.059,.692-.158,.965-.217,.271-.561,.407-.906,.368-.341,.008-.565,.232-.565,.508s.224,.5,.5,.5h6.25c.689,0,1.25-.561,1.25-1.25,0-.727-.638-1.336-1.361-1.236Zm7.338-6.514h-6.976c-1.654,0-3-1.346-3-3V.024c-.161-.011-.322-.024-.485-.024H7C4.243,0,2,2.243,2,5v14c0,2.757,2.243,5,5,5h10c2.757,0,5-2.243,5-5V10.485c0-.163-.013-.324-.024-.485Zm-7.226,11h-6.25c-1.378,0-2.5-1.121-2.5-2.5,0-1.025,.621-1.908,1.506-2.294-.004-.068-.006-.137-.006-.206,0-2.206,1.794-4,4-4,1.678,0,3.126,1.025,3.713,2.533,1.573,.226,2.787,1.582,2.787,3.217,0,1.792-1.458,3.25-3.25,3.25Z"/>
</svg>
