<?xml version="1.0" encoding="UTF-8"?>
<svg xmlns="http://www.w3.org/2000/svg" id="Layer_1" data-name="Layer 1" viewBox="0 0 24 24">
  <path d="M23,11h-1c-.552,0-1-.448-1-1s.448-1,1-1h1c.552,0,1,.448,1,1s-.448,1-1,1ZM3,10c0-.552-.448-1-1-1H1c-.552,0-1,.448-1,1s.448,1,1,1h1c.552,0,1-.448,1-1ZM22.467,5.412l1-.528c.488-.258,.675-.863,.417-1.351-.257-.488-.862-.676-1.351-.417l-1,.528c-.488,.258-.675,.863-.417,1.351,.179,.339,.526,.533,.885,.533,.157,0,.317-.037,.466-.116Zm1.417,11.055c.258-.488,.071-1.093-.417-1.351l-1-.528c-.489-.259-1.093-.071-1.351,.417s-.071,1.093,.417,1.351l1,.528c.149,.079,.309,.116,.466,.116,.359,0,.706-.194,.885-.533ZM2.895,4.947c.247-.494,.047-1.095-.447-1.342l-1-.5c-.495-.247-1.095-.046-1.342,.447-.247,.494-.047,1.095,.447,1.342l1,.5c.144,.072,.296,.105,.446,.105,.367,0,.72-.202,.896-.553Zm-1.447,11.947l1-.5c.494-.247,.694-.848,.447-1.342-.247-.494-.846-.695-1.342-.447l-1,.5c-.494,.247-.694,.848-.447,1.342,.175,.351,.528,.553,.896,.553,.15,0,.303-.034,.446-.105Zm15.199-3.31l-10.656,4.715c-.802,.358-1.224,1.299-.857,2.192,.356,.868,1.411,1.22,2.269,.841l1.598-.707v1.375c0,1.105,.895,2,2,2h2c1.105,0,2-.895,2-2v-2h0c1.105,0,2-.895,2-2v-.915l1.009-.446c.603-.269,.991-.867,.991-1.527,0-1.211-1.247-2.021-2.354-1.527Zm2.354-3.954c0,.66-.388,1.258-.991,1.527L7.353,15.872c-1.106,.493-2.353-.316-2.353-1.527,0-.66,.388-1.258,.991-1.527l10.656-4.715c1.106-.493,2.354,.316,2.354,1.527Zm0-5.375c0,.66-.388,1.258-.991,1.527L7.353,10.497c-1.106,.493-2.353-.316-2.353-1.527,0-.66,.388-1.258,.991-1.527L16.646,2.728c1.106-.493,2.354,.316,2.354,1.527Zm-14-.768c0-.66,.388-1.258,.991-1.527L10.168,.147c1.106-.493,2.353,.316,2.353,1.527,0,.66-.388,1.258-.991,1.527l-4.177,1.813c-1.106,.493-2.353-.316-2.353-1.527Z"/>
</svg>
