<?xml version="1.0" encoding="UTF-8"?>
<svg xmlns="http://www.w3.org/2000/svg" id="Layer_1" data-name="Layer 1" viewBox="0 0 24 24">
  <path d="m11,0v6h-4V0h4Zm8,6h5v-2c0-2.209-1.791-4-4-4h-1v6Zm-2-6h-4v6h4V0ZM5,6V0h-1C1.791,0,0,1.791,0,4v2h5Zm-1,15v.083c0,1.608,1.346,2.917,3,2.917s3-1.309,3-2.917v-.083H4Zm15.083-10.708c-.446-.395-.849-.332-1.083.215-.937,2.191-.549,5.492-2.37,5.492-.676,0-.896-1.534-1.104-2.035-.25-.6-.741-.669-1.062-.103-.582,1.03-1.465,3-1.465,4.139,0,3.192,2.492,5.802,5.637,5.989,2.234.133,4.327-1.147,5.484-3.063,2.698-4.467-1.438-8.333-4.038-10.636Zm.439,11.005c-.802.936-2.242.936-3.044,0-.693-.81-.558-2.046.195-2.8l.77-1.096c.308-.308.807-.308,1.115,0l.769,1.097c.753.754.888,1.99.195,2.8Zm-9.522-3.296c0-2.021,1.548-4.813,1.725-5.125.529-.934,1.437-1.448,2.398-1.398.514.031.987.22,1.383.537.146-.749.335-1.544.655-2.293.497-1.163,1.371-1.516,1.847-1.623.479-.109,1.432-.162,2.4.696.834.738,2.052,1.826,3.142,3.172l.359-3.967H.091l.584,6.451c.233,2.576,2.393,4.549,4.98,4.549h4.415c-.041-.328-.07-.66-.07-.999Z"/>
</svg>
