<?xml version="1.0" encoding="UTF-8"?>
<svg xmlns="http://www.w3.org/2000/svg" id="Layer_1" data-name="Layer 1" viewBox="0 0 24 24">
  <path d="m24,7v10.792c0,2.417-1.727,4.486-4.105,4.919l-6.285,1.143c-.534.097-1.071.146-1.609.146s-1.075-.048-1.609-.146l-6.285-1.143c-2.379-.433-4.105-2.502-4.105-4.919V7c0-1.487.654-2.886,1.796-3.838.752-.628,1.657-1.006,2.605-1.12-.257.602-.401,1.263-.401,1.957v5c0,2.468,1.802,4.511,4.157,4.915l1.439,1.44c.406.405.891.675,1.403.839v5.734c.664.097,1.336.097,2,0v-5.692c.565-.155,1.103-.439,1.546-.882l1.455-1.455c2.279-.465,3.999-2.485,3.999-4.899v-5c0-.693-.143-1.353-.399-1.954.959.113,1.856.492,2.603,1.116,1.142.953,1.796,2.352,1.796,3.838Zm-18,2V3c0-1.657,1.343-3,3-3h6c1.657,0,3,1.343,3,3v6c0,1.657-1.343,3-3,3h.071l-1.939,1.939c-.586.586-1.536.586-2.121,0l-1.939-1.939h-.071c-1.657,0-3-1.343-3-3Zm6,1c.552,0,1-.448,1-1v-2c0-.552-.448-1-1-1s-1,.448-1,1v2c0,.552.448,1,1,1Zm-1.5-6.5c0,.828.672,1.5,1.5,1.5s1.5-.672,1.5-1.5-.672-1.5-1.5-1.5-1.5.672-1.5,1.5Z"/>
</svg>
