<?xml version="1.0" encoding="UTF-8"?>
<svg xmlns="http://www.w3.org/2000/svg" id="Layer_1" data-name="Layer 1" viewBox="0 0 24 24">
  <path d="m1.183,9.74c.343-1.25,1.186-2.315,2.355-2.925l1.019-.435c.195,1.672.94,3.223,2.163,4.445l1.833,1.793c.922.901,2.146,1.398,3.447,1.398s2.526-.497,3.448-1.398l1.855-1.815c1.212-1.211,1.954-2.766,2.145-4.445,0,0,.979.408.999.417,1.426.711,2.387,2.078,2.573,3.658l.242,2.053-12.617,5.844L1.183,9.74Zm22.323,4.838l-11.255,5.213,4.634,4.209h2.446c1.34,0,2.62-.574,3.51-1.576.891-1.001,1.312-2.339,1.156-3.671l-.491-4.175ZM.842,12.131L.063,18.753c-.157,1.331.264,2.67,1.155,3.671.891,1.002,2.17,1.576,3.51,1.576h9.184L.842,12.131Zm16.658-6.631c0,1.47-.572,2.851-1.611,3.889l-1.84,1.801c-.565.553-1.307.828-2.049.828s-1.483-.275-2.048-.828l-1.833-1.793c-1.047-1.046-1.619-2.428-1.619-3.896s.572-2.851,1.611-3.889c1.039-1.039,2.42-1.611,3.889-1.611s2.85.572,3.889,1.611h0c1.039,1.039,1.611,2.42,1.611,3.889Zm-4-.006c0-.828-.672-1.5-1.5-1.5s-1.5.672-1.5,1.5.672,1.5,1.5,1.5,1.5-.672,1.5-1.5Z"/>
</svg>
