<?xml version="1.0" encoding="UTF-8"?>
<svg xmlns="http://www.w3.org/2000/svg" id="Layer_1" data-name="Layer 1" viewBox="0 0 24 24">
  <path d="m12,23.999c-.512,0-1.024-.195-1.414-.585l-2.707-2.707c-.391-.391-.391-1.023,0-1.414s1.023-.391,1.414,0l2.707,2.707,2.596-2.596c.391-.391,1.023-.391,1.414,0s.391,1.023,0,1.414l-2.596,2.596c-.39.39-.902.585-1.414.585Zm12-15.999v4c0,2.757-2.243,5-5,5H5c-2.757,0-5-2.243-5-5v-4C0,5.243,2.243,3,5,3h14c2.757,0,5,2.243,5,5Zm-15,0c0,.552.447,1,1,1h1c.553,0,1-.448,1-1s-.447-1-1-1h-1c-.553,0-1,.448-1,1Zm-3,4c0-.552-.448-1-1-1s-1,.448-1,1,.448,1,1,1,1-.448,1-1Zm1-4c0-.552-.447-1-1-1h-1c-.553,0-1,.448-1,1s.447,1,1,1h1c.553,0,1-.448,1-1Zm9,4c0-.552-.447-1-1-1h-6c-.553,0-1,.448-1,1s.447,1,1,1h6c.553,0,1-.448,1-1Zm4,0c0-.552-.448-1-1-1s-1,.448-1,1,.448,1,1,1,1-.448,1-1Zm0-4c0-.552-.447-1-1-1h-4c-.553,0-1,.448-1,1s.447,1,1,1h4c.553,0,1-.448,1-1Z"/>
</svg>
