<?xml version="1.0" encoding="UTF-8"?>
<svg xmlns="http://www.w3.org/2000/svg" id="Layer_1" data-name="Layer 1" viewBox="0 0 24 24">
  <path d="m22.364,19.763l1.302,1.208c.446.446.446,1.17,0,1.616l-.522.6c-.551.552-1.277.813-2,.813-3.714,0-9.143-5.143-9.143-9.143,0-.723.261-1.449.813-2l.6-.522c.446-.446,1.17-.446,1.616,0l1.208,1.302c.446.446.446,1.17,0,1.616l-1.025,1.036c.901,2.244,2.429,3.71,4.5,4.5l1.036-1.025c.446-.446,1.17-.446,1.616,0Zm-12.364-4.906c0-1.301.497-2.514,1.4-3.416l.66-.581c1.194-1.13,3.217-1.107,4.384.061l1.259,1.354c1.173,1.171,1.173,3.166-.053,4.391l-.008.008c.443.698.998,1.259,1.674,1.691l.02-.02c1.187-1.185,3.256-1.183,4.441.003l.223.206v-8.555H0v9c0,2.757,2.243,5,5,5h10.724c-3.16-2.221-5.724-5.916-5.724-9.143Zm14-7.857c0-2.757-2.243-5-5-5h-1v-1c0-.552-.448-1-1-1s-1,.448-1,1v1h-8v-1c0-.552-.448-1-1-1s-1,.448-1,1v1h-1C2.243,2,0,4.243,0,7v1h24v-1Z"/>
</svg>
