<?xml version="1.0" encoding="UTF-8"?>
<svg xmlns="http://www.w3.org/2000/svg" id="Layer_1" data-name="Layer 1" viewBox="0 0 24 24">
  <path d="m18,0c-3.314,0-6,2.686-6,6s2.686,6,6,6,6-2.686,6-6S21.314,0,18,0Zm2.707,7.293c.391.391.391,1.023,0,1.414-.195.195-.451.293-.707.293s-.512-.098-.707-.293l-1.293-1.293-1.293,1.293c-.195.195-.451.293-.707.293s-.512-.098-.707-.293c-.391-.391-.391-1.023,0-1.414l1.293-1.293-1.293-1.293c-.391-.391-.391-1.023,0-1.414s1.023-.391,1.414,0l1.293,1.293,1.293-1.293c.391-.391,1.023-.391,1.414,0s.391,1.023,0,1.414l-1.293,1.293,1.293,1.293Zm-5.811,6.08l-.896,1.008v8.62c0,.379-.214.725-.553.895-.142.071-.295.105-.447.105-.212,0-.423-.068-.6-.2l-4-3c-.252-.188-.4-.485-.4-.8v-5.62L.984,6.488c-.635-.715-.984-1.634-.984-2.59C0,1.749,1.749,0,3.898,0h8.828c-1.667,1.467-2.726,3.61-2.726,6,0,3.311,2.022,6.158,4.896,7.373Z"/>
</svg>
