<?xml version="1.0" encoding="UTF-8"?>
<svg xmlns="http://www.w3.org/2000/svg" id="Layer_1" data-name="Layer 1" viewBox="0 0 24 24">
  <path d="m15.599,6.717c.253-.519.401-1.099.401-1.717h.581c1.336,0,2.419,1.083,2.419,2.419v2.999c-.644-.278-1.338-.416-2.034-.41v-.842c-.096-1-.606-1.874-1.367-2.45Zm-8.568,3.286v-.815c.091-1.009.603-1.891,1.369-2.471-.253-.519-.401-1.099-.401-1.717h-.581c-1.336,0-2.419,1.083-2.419,2.419v2.993s.002.001.005.003c.643-.278,1.335-.416,2.027-.412Zm3.299,1.272l1.093,1.006c.326.3.827.3,1.153,0l1.064-.979c.416-.372.876-.663,1.36-.874v-.008c0-1.336-1.083-2.419-2.419-2.419h-1.161c-1.336,0-2.419,1.083-2.419,2.419h0c.474.207.924.492,1.33.855Zm-2.33-7.275c1.105,0,2-.895,2-2S9.105,0,8,0s-2,.895-2,2,.895,2,2,2Zm4,3c1.105,0,2-.895,2-2s-.895-2-2-2-2,.895-2,2,.895,2,2,2Zm4-3c1.105,0,2-.895,2-2S17.105,0,16,0s-2,.895-2,2,.895,2,2,2Zm2.435,11.687l-2.487,2.532c-.122-1.225-.669-2.378-1.587-3.212l-.874-.794,1.813-1.646c1.017-.923,2.668-.721,3.407.533.48.815.331,1.858-.272,2.586Zm4.065-10.687c-.828,0-1.5.672-1.5,1.5v7.5h-.011c.05,1.022-.267,2.061-.956,2.893l-4.033,4.088v2.019c0,.552.448,1,1,1h3.309c.281,0,.549-.118.738-.326l.598-.654c1.515-1.659,2.355-3.824,2.355-6.07V6.5c0-.828-.672-1.5-1.5-1.5Zm-9.483,11.487l-4.317-3.92c-1.017-.923-2.668-.721-3.407.533-.48.815-.331,1.858.272,2.586l2.548,2.573c.384.388.383,1.014-.003,1.4h0c-.389.389-1.02.387-1.407-.004l-2.735-2.763c-.689-.832-1.005-1.871-.956-2.893h-.011v-7.5c0-.828-.672-1.5-1.5-1.5s-1.5.672-1.5,1.5v10.45c0,2.246.84,4.412,2.355,6.07l.598.654c.189.207.457.326.738.326h9.309c.552,0,1-.448,1-1v-4.292c0-.846-.357-1.652-.983-2.221Z"/>
</svg>
