<?xml version="1.0" encoding="UTF-8"?>
<svg xmlns="http://www.w3.org/2000/svg" id="Layer_1" data-name="Layer 1" viewBox="0 0 24 24">
  <path d="M1.853,19.368c-.237,0-.477-.046-.707-.14-.696-.287-1.146-.959-1.146-1.712V6.481c0-.753,.45-1.425,1.146-1.711,.695-.287,1.488-.127,2.019,.406l5.117,5.15c.45,.404,.719,1.011,.719,1.672,0,.647-.277,1.268-.761,1.701l-5.074,5.119c-.355,.358-.829,.549-1.312,.549Zm20.294,0c-.483,0-.957-.19-1.313-.549l-5.116-5.16c-.441-.393-.718-1.013-.718-1.66,0-.661,.269-1.268,.758-1.709l5.077-5.113c.531-.533,1.323-.693,2.019-.406,.696,.286,1.146,.958,1.146,1.711v11.035c0,.753-.45,1.425-1.146,1.712-.229,.094-.469,.14-.707,.14Zm-9.147,3.632V1c0-.553-.448-1-1-1s-1,.447-1,1V23c0,.553,.448,1,1,1s1-.447,1-1Z"/>
</svg>
