<?xml version="1.0" encoding="UTF-8"?>
<svg xmlns="http://www.w3.org/2000/svg" id="Layer_1" data-name="Layer 1" viewBox="0 0 24 24">
  <path d="m23.58,18.563l-3.528-3.528c.058-.426.045-.851-.05-1.269-.064-.284.072-.591.34-.764.498-.321.902-.758,1.202-1.298.285-.515.434-1.106.431-1.7.003-.604-.146-1.195-.431-1.71,0,0,0,0,0,0-.299-.539-.704-.976-1.202-1.297-.268-.173-.405-.479-.34-.765.134-.593.114-1.199-.059-1.804-.33-1.148-1.247-2.065-2.396-2.396-.606-.172-1.212-.191-1.803-.058-.287.059-.591-.073-.764-.341-.321-.498-.757-.902-1.297-1.202-1.044-.578-2.343-.579-3.388,0-.538.299-.974.703-1.295,1.201-.173.268-.476.405-.765.34-.59-.132-1.197-.113-1.804.06-1.148.329-2.066,1.247-2.394,2.394-.174.606-.194,1.214-.06,1.806.064.284-.072.591-.34.764-.499.322-.903.758-1.203,1.298-.285.515-.434,1.106-.431,1.7-.003.604.146,1.195.432,1.711.299.539.704.975,1.202,1.296.268.174.405.48.34.765-.094.413-.108.834-.052,1.256l-3.539,3.54c-.416.415-.535,1.01-.31,1.554.225.541.729.878,1.315.878h1.562v1.562c0,.894.729,1.427,1.435,1.427.376,0,.72-.145.997-.42l4.366-4.366s.006-.011.01-.016c.169.137.337.276.534.386.522.289,1.108.434,1.693.434s1.172-.145,1.695-.435c.194-.107.358-.244.524-.378.003.003.003.006.006.009l4.368,4.368c.275.273.619.418.995.418.705,0,1.434-.533,1.434-1.427v-1.562h1.562c.587,0,1.091-.337,1.316-.878.225-.544.106-1.139-.309-1.553ZM12,5c1.381,0,2.5,1.119,2.5,2.5s-1.119,2.5-2.5,2.5-2.5-1.119-2.5-2.5,1.119-2.5,2.5-2.5Zm0,6c1.866,0,3.42,1.283,3.862,3.011-.128,0-.226-.001-.259-.001-1.404,0-2.715.62-3.614,1.685-.899-1.065-2.212-1.685-3.616-1.685-.03,0-.118,0-.235.001.442-1.728,1.996-3.011,3.862-3.011Z"/>
</svg>
