<?xml version="1.0" encoding="UTF-8"?>
<svg xmlns="http://www.w3.org/2000/svg" id="Layer_1" data-name="Layer 1" viewBox="0 0 24 24">
  <path d="M13,3.245c0-.637,.599-1.123,1.216-.964,1.21,.312,2.349,.875,3.338,1.657,.567,.448,.433,1.349-.218,1.662h0c-.356,.171-.768,.102-1.08-.141-.755-.587-1.616-1.01-2.537-1.245-.428-.109-.719-.503-.719-.944v-.025Zm-1-3.245C5.935,0,1,4.935,1,11c0,4.162,1.591,8.74,2.492,11h-.492c-.552,0-1,.448-1,1h0c0,.552,.448,1,1,1H7.469c.99,0,1.718-.923,1.488-1.885-.686-2.859-1.957-8.26-1.957-11.115,0-2.761,2.239-5,5-5,1.367,0,2.595,.558,3.494,1.45,.303,.301,.724,.447,1.15,.412,.583-.048,1.403-.122,2.004-.177,.495-.045,.933-.332,1.173-.767l.727-1.312c.298-.537,.245-1.208-.148-1.681-.053-.064-.107-.127-.162-.19C18.222,1.451,15.28,0,12,0h0ZM6.85,3.632c.876-.615,1.866-1.079,2.931-1.351,.618-.158,1.219,.327,1.219,.965v.024c0,.443-.285,.842-.709,.949-.839,.211-1.618,.572-2.307,1.055-.333,.234-.784,.207-1.115-.03h0c-.55-.393-.572-1.225-.02-1.613Zm-3.781,6.254c.127-1.023,.427-1.993,.87-2.88,.269-.541,.967-.706,1.458-.355l.026,.018c.387,.276,.527,.792,.314,1.217-.35,.7-.588,1.466-.685,2.274-.059,.484-.48,.84-.967,.84h-.025c-.599,0-1.062-.524-.989-1.114Zm15.149,2.201c-.583-.291-1.266,.093-1.339,.74-.334,2.937-1.318,6.926-1.84,9.257-.22,.983,.53,1.915,1.537,1.915h4.424c.552,0,1-.448,1-1h0c0-.552-.448-1-1-1h-.492c.733-1.839,1.911-5.212,2.326-8.647,.084-.698-.616-1.232-1.27-.973l-1.522,.602c-.015,.007-.982-.473-1.825-.893Z"/>
</svg>
