<?xml version="1.0" encoding="UTF-8"?>
<svg xmlns="http://www.w3.org/2000/svg" id="Layer_1" data-name="Layer 1" viewBox="0 0 24 24">
  <path d="m5,0C2.243,0,0,2.243,0,5s2.243,5,5,5,5-2.243,5-5S7.757,0,5,0Zm.509,6.923l-1.216-1.216c-.188-.188-.293-.442-.293-.707v-2c0-.552.448-1,1-1h0c.552,0,1,.448,1,1v1.586l.923.923c.39.39.39,1.024,0,1.414h0c-.39.39-1.024.39-1.414,0Zm14.433,13.077c.034.162.058.328.058.5,0,1.381-1.119,2.5-2.5,2.5s-2.5-1.119-2.5-2.5c0-.172.024-.338.058-.5h4.885Zm-11,0c.034.162.058.328.058.5,0,1.381-1.119,2.5-2.5,2.5s-2.5-1.119-2.5-2.5c0-.172.024-.338.058-.5h4.885Zm-4.942-2c-2.209,0-4-1.791-4-4v-4.107c1.272,1.299,3.043,2.107,5,2.107,3.859,0,7-3.14,7-7,0-1.459-.449-2.816-1.216-3.939,2.389.376,4.216,2.444,4.216,4.939v12H4Zm13-5h7v1c0,2.209-1.791,4-4,4h-3v-5Zm7-3v1h-7v-6h2c2.761,0,5,2.239,5,5Z"/>
</svg>
