<?xml version="1.0" encoding="UTF-8"?>
<svg xmlns="http://www.w3.org/2000/svg" id="Layer_1" data-name="Layer 1" viewBox="0 0 24 24">
  <path d="m23.365,3.699l-1.322,1.322-3.064-3.064,1.234-1.234c.801-.801,2.108-.955,2.985-.237,1.009.825,1.064,2.316.166,3.214Zm-5.8-.328l-5.296,5.296c-.813.813-1.269,1.915-1.269,3.064v.769c0,.276.224.5.5.5h.769c1.149,0,2.251-.457,3.064-1.269l5.296-5.296-3.064-3.064Zm3.707,10.514l-.451-.26c.102-.544.153-1.088.153-1.625s-.051-1.081-.153-1.625l-.29-1.015-3.784,3.784c-1.196,1.196-2.786,1.855-4.478,1.855h-.77c-1.379,0-2.5-1.121-2.5-2.5v-.77c0-1.691.659-3.281,1.855-4.478l4.119-4.119v-.134c0-1.654-1.346-3-3-3s-3,1.346-3,3v.522c-1.047.37-2.016.929-2.857,1.649l-.45-.259c-.693-.398-1.501-.504-2.277-.295-.773.208-1.419.706-1.818,1.4-.4.694-.505,1.503-.296,2.277.208.773.706,1.419,1.401,1.819l.451.259c-.102.544-.153,1.088-.153,1.626s.051,1.082.153,1.626l-.451.259c-.695.4-1.192,1.046-1.401,1.819-.209.774-.104,1.583.295,2.276.399.695,1.045,1.193,1.819,1.401.776.21,1.584.104,2.277-.295l.45-.259c.841.721,1.81,1.279,2.857,1.649v.522c0,1.654,1.346,3,3,3s3-1.346,3-3v-.522c1.047-.37,2.016-.929,2.857-1.649l.45.259c.695.399,1.503.505,2.277.295.773-.208,1.419-.706,1.819-1.401.825-1.434.329-3.271-1.105-4.096Z"/>
</svg>
