<?xml version="1.0" encoding="UTF-8"?>
<svg xmlns="http://www.w3.org/2000/svg" id="Layer_1" data-name="Layer 1" viewBox="0 0 24 24">
  <path d="m4.737,11.273c-.979-.974-.984-2.556-.01-3.536.974-.979,2.556-.984,3.536-.01s.984,2.556.01,3.536c-.974.979-2.556.984-3.536.01Zm16.701,12.073c-.149.404-.532.654-.938.654-.115,0-.232-.02-.346-.062l-3.817-1.407c-.196-.072-.409-.082-.613-.024l-5.024,1.395c-1.464.333-2.91-.404-3.477-1.748l-3.056-7.153h-1.667c-1.378,0-2.5-1.121-2.5-2.5v-3.5c0-.552.448-1,1-1s1,.448,1,1v3.5c0,.276.224.5.5.5h2.934l6.132-.817c.248-.033.434-.247.434-.496v-3.687c0-.552.448-1,1-1s1,.448,1,1v3.687c0,1.248-.933,2.313-2.169,2.479l-1.592.212,2.102,5.08,2.45-2.54c.562-.583,1.35-.917,2.159-.917h3.05c.552,0,1,.447,1,1s-.448,1-1,1h-3.05c-.27,0-.532.111-.72.306l-2.615,2.711,1.574-.437c.611-.168,1.246-.143,1.839.075l3.818,1.407c.519.191.784.767.593,1.284Zm1.539-15.678l-2.189-1.122c-.295-.151-.44-.492-.345-.81l.709-2.356c.112-.372-.001-.774-.291-1.033s-.704-.327-1.059-.175l-2.091.89c-.346.15-.752-.014-.901-.363l-.89-2.091C15.768.251,15.423.015,15.036,0c-.399-.013-.748.199-.926.543l-1.122,2.189c-.151.296-.494.438-.81.345l-2.356-.708c-.376-.114-.78.003-1.038.296-.259.293-.323.71-.164,1.067l1.254,2.822c.113.129.229.257.325.395.427-1.136,1.516-1.951,2.8-1.951,1.654,0,3,1.346,3,3v3.687c0,1.002-.348,1.929-.916,2.686.59-.238,1.222-.372,1.866-.372h3.05c.413,0,.806.084,1.165.235.036-.163.037-.335-.013-.501l-.709-2.355c-.095-.317.05-.658.345-.809l2.189-1.122c.334-.171.544-.515.544-.89s-.21-.719-.544-.89Z"/>
</svg>
