<?xml version="1.0" encoding="UTF-8"?>
<svg xmlns="http://www.w3.org/2000/svg" id="Layer_1" data-name="Layer 1" viewBox="0 0 24 24">
  <path d="m23,17c.552,0,1-.448,1-1s-.448-1-1-1h-.964l.106-.881c.066-.548-.325-1.046-.874-1.112-.545-.072-1.046.325-1.112.874l-.134,1.119h-3.135l.106-.881c.066-.548-.325-1.046-.874-1.112-.546-.072-1.046.325-1.112.874l-.134,1.119h-1.373c-.552,0-1,.448-1,1s.448,1,1,1h1.133l-.36,3h-1.272c-.552,0-1,.448-1,1s.448,1,1,1h1.032l-.106.881c-.066.548.325,1.046.874,1.112.041.005.081.007.121.007.499,0,.93-.373.991-.881l.134-1.119h3.135l-.106.881c-.066.548.325,1.046.874,1.112.041.005.081.007.121.007.499,0,.93-.373.991-.881l.134-1.119h1.305c.552,0,1-.448,1-1s-.448-1-1-1h-1.065l.36-3h1.204Zm-3.579,3h-3.135l.36-3h3.135l-.36,3Zm-9.421,1c0-.679.169-1.939.311-3.063-.099.033-.201.063-.311.063-.552,0-1-.448-1-1v-2c0-.552.448-1,1-1,.391,0,.72.23.885.557.461-.823,1.294-1.41,2.276-1.522.186-.553.529-1.04,1.001-1.407.635-.494,1.539-.731,2.338-.627l3.074.007c-.505-1.15-1.423-2.078-2.574-2.583v-1.424c0-3.86-3.14-7-7-7S3,3.14,3,7v1.424c-1.763.774-3,2.531-3,4.576v6c0,2.757,2.243,5,5,5h7.103c-.021-.059-.051-.114-.068-.173-1.18-.404-2.035-1.512-2.035-2.827ZM5,7c0-2.757,2.243-5,5-5s5,2.243,5,5v1H5v-1Z"/>
</svg>
