<?xml version="1.0" encoding="UTF-8"?>
<svg xmlns="http://www.w3.org/2000/svg" id="Layer_1" data-name="Layer 1" viewBox="0 0 24 24">
  <path d="M10,23c0,.553-.447,1-1,1s-1-.447-1-1c0,0,.006-3.813,.008-4.061-3.945-.484-7.008-3.814-7.008-7.839v-3.101c-.553,0-1-.447-1-1s.447-1,1-1h3V1c0-.553,.447-1,1-1s1,.447,1,1V6h6V1c0-.553,.447-1,1-1s1,.447,1,1V6h3c.553,0,1,.447,1,1s-.447,1-1,1v2.069c-3.945,.493-7,3.852-7,7.931v5Zm14-5c0,3.314-2.686,6-6,6s-6-2.686-6-6,2.686-6,6-6,6,2.686,6,6Zm-7-1c0,.553,.448,1,1,1s1-.447,1-1v-2c0-.553-.448-1-1-1s-1,.447-1,1v2Zm2.5,3.5c0-.828-.672-1.5-1.5-1.5s-1.5,.672-1.5,1.5,.672,1.5,1.5,1.5,1.5-.672,1.5-1.5Z"/>
</svg>
