<?xml version="1.0" encoding="UTF-8"?>
<svg xmlns="http://www.w3.org/2000/svg" id="Layer_1" data-name="Layer 1" viewBox="0 0 24 24">
  <path d="m17,23c0,.553-.447,1-1,1h-5c-4.962,0-9-4.037-9-9v-7c0-.553.448-1,1-1s1,.447,1,1v7c0,3.859,3.14,7,7,7h5c.553,0,1,.447,1,1ZM11,0h4.757c1.068,0,2.072.416,2.829,1.172l2.242,2.242c.745.744,1.172,1.774,1.172,2.828v8.758c0,2.757-2.243,5-5,5h-6c-2.757,0-5-2.243-5-5V5C6,2.243,8.243,0,11,0Zm-1.948,12h5v-3h-3c-1.105,0-2,.895-2,2v1Zm3,2h-3v1c0,1.105.895,2,2,2h1v-3Zm7,0h-5v3h3c1.105,0,2-.895,2-2v-1Zm0-3c0-1.105-.895-2-2-2h-1v3h3v-1Z"/>
</svg>
