<?xml version="1.0" encoding="UTF-8"?>
<svg xmlns="http://www.w3.org/2000/svg" id="Layer_1" data-name="Layer 1" viewBox="0 0 24 24">
  <path d="M5.334,9.777l.583,2.624h-1.407l.646-2.678c.019-.068,.05-.122,.097-.122,.014,.01,.057,.063,.082,.176Zm18.666-3.776v10.792c0,2.417-1.727,4.486-4.105,4.919l-6.285,1.143c-.534,.097-1.071,.146-1.609,.146s-1.075-.048-1.609-.146l-6.285-1.143c-2.379-.433-4.105-2.502-4.105-4.919V6c0-1.487,.654-2.886,1.796-3.838,1.143-.953,2.635-1.344,4.099-1.081l1.88,.457c1.845,.334,3.226,1.99,3.226,3.923v15.467c.664,.097,1.336,.097,2,0V5.461c0-1.934,1.381-3.589,3.283-3.936l1.764-.432c1.528-.279,3.017,.116,4.157,1.069,1.142,.953,1.796,2.352,1.796,3.838ZM7.935,14.003l-1.04-4.581c-.311-1.853-2.97-1.844-3.303-.04l-1.072,4.664c-.112,.485,.257,.948,.755,.948,.358,0,.669-.245,.753-.593l.097-.401h2.148l.08,.358c.082,.371,.412,.636,.792,.636,.521,0,.907-.483,.791-.991Zm10.502-.602l2.329-3.35c.152-.219,.234-.479,.234-.745,0-.721-.585-1.306-1.306-1.306h-2.444c-.442,0-.8,.358-.8,.8s.358,.8,.8,.8h1.763l-2.329,3.349c-.152,.219-.234,.479-.234,.745,0,.721,.585,1.306,1.306,1.306h2.444c.442,0,.8-.358,.8-.8s-.358-.8-.8-.8h-1.763Z"/>
</svg>
