<?xml version="1.0" encoding="UTF-8"?>
<svg xmlns="http://www.w3.org/2000/svg" id="Layer_1" data-name="Layer 1" viewBox="0 0 24 24">
  <path d="m18,23c0,.553-.447,1-1,1H7c-.552,0-1-.447-1-1s.448-1,1-1h4v-2h-2.426l.286-4h6.281l.286,4h-2.426v2h4c.553,0,1,.447,1,1Zm-8.997-9h5.995l-.286-4h-5.424l-.286,4Zm7.714-4l.286,4h6.306l-.271-1.023c-.464-1.753-2.055-2.977-3.867-2.977h-2.454Zm-9.433,0h-2.453c-1.813,0-3.403,1.224-3.867,2.977l-.271,1.023h6.305l.286-4Zm-.428,6H.163l-.062.232c-.24.907-.05,1.854.523,2.598.572.743,1.438,1.17,2.377,1.17h3.568l.286-4Zm17.045.232l-.062-.232h-6.693l.286,4h3.568c.938,0,1.805-.427,2.378-1.17.572-.744.763-1.69.522-2.598ZM5,8h14c.553,0,1-.447,1-1s-.447-1-1-1h-2.101c-.188-.922-.64-1.744-1.26-2.406l1.359-2.039c.307-.46.182-1.081-.277-1.387-.462-.306-1.081-.182-1.387.277l-1.328,1.993c-.616-.272-1.289-.439-2.006-.439s-1.388.166-2.004.438l-1.318-1.99c-.306-.462-.926-.587-1.386-.282-.46.306-.586.926-.281,1.386l1.351,2.04c-.621.663-1.073,1.485-1.261,2.408h-2.101c-.552,0-1,.447-1,1s.448,1,1,1Z"/>
</svg>
