<?xml version="1.0" encoding="UTF-8"?>
<svg xmlns="http://www.w3.org/2000/svg" id="Layer_1" data-name="Layer 1" viewBox="0 0 24 24">
  <path d="m23.707,23.707c-.195.195-.451.293-.707.293s-.512-.098-.707-.293l-5.969-5.969c-1.725,1.412-3.927,2.262-6.324,2.262C4.486,20,0,15.514,0,10S4.486,0,10,0c3.009,0,5.705,1.342,7.54,3.452l-6.118,7.056-1.928-1.928c-.402-.402-.963-.616-1.524-.591-.566.026-1.1.291-1.462.726l-3.276,3.931c-.354.424-.296,1.055.128,1.408.188.156.414.232.64.232.287,0,.571-.123.77-.36l3.312-3.933,1.928,1.928c.396.396.948.606,1.505.592.561-.021,1.092-.276,1.458-.7l5.763-6.672c.804,1.44,1.267,3.095,1.267,4.858,0,2.398-.85,4.6-2.262,6.324l5.969,5.969c.391.391.391,1.023,0,1.414Zm-1.956-22.059c.361-.418.314-1.05-.104-1.411-.416-.359-1.048-.316-1.41.103l-2.698,3.111c.453.52.855,1.084,1.193,1.69l3.018-3.494Z"/>
</svg>
