<?xml version="1.0" encoding="UTF-8"?>
<svg xmlns="http://www.w3.org/2000/svg" id="Layer_1" data-name="Layer 1" viewBox="0 0 24 24">
  <path d="m9,12c-3.309,0-6-2.691-6-6S5.691,0,9,0s6,2.691,6,6-2.691,6-6,6Zm14.381,8.019c-.008-.009-.015-.017-.022-.024l-3.36-3.485v-2.509c.553,0,1-.447,1-1s-.447-1-1-1h-3c-.553,0-1,.447-1,1s.447,1,1,1v2.51l-3.455,3.594c-.592.719-.712,1.688-.314,2.53.398.843,1.225,1.366,2.156,1.366h6.227c.956,0,1.791-.543,2.179-1.416.388-.874.231-1.856-.409-2.565ZM-.002,22.615c0,1.077.752,1.385,1.425,1.385h10.284c-.105-.163-.203-.332-.287-.512-.731-1.55-.51-3.334.579-4.656l3.001-3.197s.009-.253-.051-.532c-.075-.349-.382-.621-.463-.689-.649-.546-1.615-.483-2.172.156l-3.312,3.623-3.376-3.663c-.523-.595-1.417-.709-2.054-.238C1.87,15.551-.002,17.454-.002,21.923v.692Z"/>
</svg>
