<?xml version="1.0" encoding="UTF-8"?>
<svg xmlns="http://www.w3.org/2000/svg" id="Layer_1" data-name="Layer 1" viewBox="0 0 24 24">
  <path d="m9,14H1c-.552,0-1-.447-1-1,0-2.757,2.243-5,5-5s5,2.243,5,5c0,.553-.448,1-1,1Zm-4-7c1.93,0,3.5-1.57,3.5-3.5S6.93,0,5,0,1.5,1.57,1.5,3.5s1.57,3.5,3.5,3.5Zm14,1c-2.757,0-5,2.243-5,5,0,.553.448,1,1,1h8c.552,0,1-.447,1-1,0-2.757-2.243-5-5-5Zm0-1c1.93,0,3.5-1.57,3.5-3.5s-1.57-3.5-3.5-3.5-3.5,1.57-3.5,3.5,1.57,3.5,3.5,3.5Zm1.351,8.548c-.73-.728-1.919-.729-2.625-.023l-2.407,2.244c-.404.377-.426,1.01-.049,1.413.197.212.464.318.731.318.245,0,.489-.089.682-.269l1.318-1.229v1.998c0,1.103-.897,2-2,2h-8c-1.103,0-2-.897-2-2v-3c0-.553-.448-1-1-1s-1,.447-1,1v3c0,2.206,1.794,4,4,4h8c2.206,0,4-1.794,4-4v-2.024l1.31,1.248c.401.381,1.033.368,1.414-.034.381-.399.366-1.032-.034-1.413l-2.339-2.229Z"/>
</svg>
