<?xml version="1.0" encoding="UTF-8"?>
<svg xmlns="http://www.w3.org/2000/svg" id="Layer_1" data-name="Layer 1" viewBox="0 0 24 24">
  <path d="m23.674,13.811c-.347-.508-.921-.811-1.536-.811H1.862c-.615,0-1.189.303-1.537.811s-.421,1.153-.198,1.726c0,0,.169.423.198.472,1.623,2.706,3.926,2.964,5.973,2.992h4.701v3h-3c-.552,0-1,.447-1,1s.448,1,1,1h8c.553,0,1-.447,1-1s-.447-1-1-1h-3v-3h4.715c2.032-.028,4.337-.286,5.959-2.992.029-.049.198-.472.198-.472.224-.572.149-1.218-.198-1.726ZM1.158,11c-.783,0-1.341-.75-1.102-1.48.857-2.619,3.365-4.52,6.322-4.52,2.368,0,4.445,1.222,5.622,3.052,1.177-1.83,3.254-3.052,5.622-3.052,2.957,0,5.465,1.902,6.322,4.52.239.73-.319,1.48-1.102,1.48H1.158ZM6.525,3c1.157-1.803,3.179-3,5.475-3s4.319,1.197,5.475,3c-2.044.006-3.968.735-5.475,2.024-1.508-1.289-3.432-2.018-5.475-2.024Z"/>
</svg>
