<?xml version="1.0" encoding="UTF-8"?>
<svg xmlns="http://www.w3.org/2000/svg" id="Layer_1" data-name="Layer 1" viewBox="0 0 24 24">
  <path d="m19.39,7.577c-.511-.212-1.095.028-1.309.537-.213.51.028,1.096.537,1.309,2.055.858,3.382,2.851,3.382,5.078,0,3.033-2.467,5.5-5.5,5.5H7.5c-3.033,0-5.5-2.467-5.5-5.5s2.467-5.5,5.5-5.5h6.133c-.033.04-.061.082-.098.119l-5.134,5.177c-.389.392-.386,1.025.006,1.414.195.193.45.29.704.29.257,0,.515-.099.71-.296l5.131-5.174c.676-.676,1.048-1.574,1.048-2.53s-.372-1.854-1.045-2.527L9.821.296c-.388-.392-1.022-.394-1.414-.006-.392.389-.395,1.022-.006,1.414l5.137,5.18c.036.036.063.077.095.116h-6.133C3.364,7,0,10.364,0,14.5s3.364,7.5,7.5,7.5h9c4.136,0,7.5-3.364,7.5-7.5,0-3.036-1.81-5.753-4.61-6.923Z"/>
</svg>
