<?xml version="1.0" encoding="UTF-8"?>
<svg xmlns="http://www.w3.org/2000/svg" id="Layer_1" data-name="Layer 1" viewBox="0 0 24 24">
  <path d="m12,14c6.627,0,12-3.134,12-7S18.627,0,12,0,0,3.134,0,7s5.373,7,12,7Zm-3.202-4.688c-.151.525-.382,1.204-.62,1.423-.406.374-1.039.348-1.413-.058-.374-.406-.348-1.039.058-1.413.238-.219.933-.394,1.469-.501.321-.064.596.234.506.549Zm3.202,2.688c-.552,0-1-.448-1-1,0-.323.343-.953.627-1.42.17-.28.576-.28.746,0,.284.467.627,1.097.627,1.42,0,.552-.448,1-1,1Zm7-6c.552,0,1,.448,1,1s-.448,1-1,1c-.323,0-.953-.343-1.42-.627-.28-.17-.28-.576,0-.746.467-.284,1.097-.627,1.42-.627Zm-3.798-1.312c.151-.525.382-1.204.62-1.423.406-.374,1.039-.348,1.413.058.374.406.348,1.039-.058,1.413-.238.219-.933.394-1.469.501-.321.064-.596-.234-.506-.549Zm.506,4.075c.536.107,1.232.282,1.469.501.406.374.432,1.007.058,1.413-.374.406-1.007.432-1.413.058-.238-.219-.469-.898-.62-1.423-.09-.315.185-.613.506-.549Zm-3.708-6.763c.552,0,1,.448,1,1,0,.323-.343.953-.627,1.42-.17.28-.576.28-.746,0-.284-.467-.627-1.097-.627-1.42,0-.552.448-1,1-1Zm0,4c1.657,0,3,.448,3,1s-1.343,1-3,1-3-.448-3-1,1.343-1,3-1Zm-5.235-2.678c.374-.406,1.007-.432,1.413-.058.238.219.469.898.62,1.423.09.315-.185.613-.506.549-.536-.107-1.232-.282-1.469-.501-.406-.374-.432-1.007-.058-1.413Zm-1.765,2.678c.323,0,.953.343,1.42.627.28.17.28.576,0,.746-.467.284-1.097.627-1.42.627-.552,0-1-.448-1-1s.448-1,1-1Zm7,10c5.161,0,9.573-1.715,12-4.319v.319c0,6.617-5.383,12-12,12S0,18.617,0,12v-.319c2.427,2.604,6.839,4.319,12,4.319Z"/>
</svg>
