<?xml version="1.0" encoding="UTF-8"?>
<svg xmlns="http://www.w3.org/2000/svg" id="Layer_1" data-name="Layer 1" viewBox="0 0 24 24">
  <path d="m11,18v-1h-.268c-1.067,0-2.063-.574-2.598-1.499-.276-.479-.113-1.09.365-1.366.477-.278,1.089-.114,1.366.364.179.31.511.501.867.501h2.268c.552,0,1-.448,1-1,0-.379-.271-.698-.645-.761l-3.04-.506c-1.342-.224-2.315-1.374-2.315-2.733,0-1.654,1.346-3,3-3v-1c0-.553.448-1,1-1s1,.447,1,1v1h.268c1.067,0,2.063.574,2.598,1.499.277.479.113,1.09-.364,1.366-.48.277-1.092.113-1.366-.364-.179-.31-.511-.501-.867-.501h-2.268c-.551,0-1,.448-1,1,0,.379.271.698.644.761l3.041.506c1.342.224,2.315,1.374,2.315,2.733,0,1.654-1.346,3-3,3v1c0,.553-.448,1-1,1s-1-.447-1-1Zm6-10c0,.553.447,1,1,1h3.991c1.107,0,2.009-.901,2.009-2.009v-3.991c0-.553-.447-1-1-1s-1,.447-1,1l-.005,2.345C19.805,2.034,16.104,0,12,0,5.383,0,0,5.383,0,12s5.383,12,12,12,12-5.383,12-12c0-.553-.447-1-1-1s-1,.447-1,1c0,5.514-4.486,10-10,10S2,17.514,2,12,6.486,2,12,2c3.64,0,6.901,1.921,8.666,5h-2.666c-.553,0-1,.447-1,1Z"/>
</svg>
