<?xml version="1.0" encoding="UTF-8"?>
<svg xmlns="http://www.w3.org/2000/svg" id="Layer_1" data-name="Layer 1" viewBox="0 0 24 24">
  <path d="M15.818,11.6c0,1.624-2.082,3.521-3.171,4.403-.379,.307-.915,.307-1.295,0-1.089-.882-3.171-2.779-3.171-4.403,0-1.16,.855-2.1,1.909-2.1s1.909,.94,1.909,2.1c0-1.16,.855-2.1,1.909-2.1s1.909,.94,1.909,2.1ZM24,1.607c0-.392-.223-.761-.584-.911-1.089-.455-2.266-.696-3.466-.696H9.5c-.828,0-1.5,.672-1.5,1.5s.672,1.5,1.5,1.5h7.5v.011c1.022-.05,2.061,.267,2.893,.956l1.683,1.655c.391,.387,.393,1.018,.004,1.407-.386,.386-1.012,.388-1.4,.003l-1.493-1.468c-.728-.603-1.772-.752-2.586-.272-1.254,.739-1.457,2.39-.533,3.407l3.92,4.317c.569,.626,1.375,.983,2.221,.983h1.292c.552,0,1-.448,1-1V1.607ZM0,22.393c0,.392,.223,.761,.584,.911,1.089,.455,2.266,.696,3.466,.696H14.5c.828,0,1.5-.672,1.5-1.5s-.672-1.5-1.5-1.5H7v-.011c-1.022,.05-2.061-.267-2.893-.956l-1.683-1.655c-.391-.387-.393-1.018-.004-1.407,.386-.386,1.012-.388,1.4-.003l1.493,1.468c.728,.603,1.772,.752,2.586,.272,1.254-.739,1.457-2.39,.533-3.407l-3.92-4.317c-.569-.626-1.375-.983-2.221-.983H1c-.552,0-1,.448-1,1v11.393Z"/>
</svg>
