<?xml version="1.0" encoding="UTF-8"?>
<svg xmlns="http://www.w3.org/2000/svg" id="Layer_1" data-name="Layer 1" viewBox="0 0 24 24">
  <path d="m14.231,5.065c-1.717.801-3.825,1.74-7.16,1.908-.578.029-1.07-.421-1.07-.999h0c0-.525.408-.971.933-.996,3.082-.149,4.957-1.026,6.63-1.808.116-.054.231-.108.346-.161-1.852-.442-4.32-.896-6.927-.991-.544-.02-.981-.455-.981-.999h0C6,.459,6.46-.002,7.019.018c5.494.191,10.27,1.846,10.784,2.029.209-.031.423-.047.641-.047,3.333,0,5.556,3.375,5.556,5.625,0,2.485-3.101,3.375-5.556,3.375s-4.444-2.015-4.444-4.5c0-.502.081-.984.231-1.435Zm8.769,16.935h-2v-9.258c-.782.169-1.638.258-2.556.258-2.723,0-5.058-1.713-6-4.127-7.408,2.366-9.004,8.84-9.347,11.456-.425-.28-.962-.402-1.529-.284-.758.159-1.38.79-1.529,1.55-.251,1.282.723,2.405,1.96,2.405h13v-3c0-2.206-1.794-4-4-4-.552,0-1-.448-1-1s.448-1,1-1c3.309,0,6,2.691,6,6v3h6c.552,0,1-.448,1-1s-.448-1-1-1Z"/>
</svg>
