<?xml version="1.0" encoding="UTF-8"?>
<svg xmlns="http://www.w3.org/2000/svg" id="Layer_1" data-name="Layer 1" viewBox="0 0 24 24">
  <path d="m21.386,10.088L23.979.751c.071-.259-.041-.534-.273-.669h0c-.283-.166-.646-.071-.812.211l-4.693,8.017c-.702-.201-1.443-.308-2.208-.308-.994,0-1.676,0-1.694.001,0,0-.001,0-.002,0-3.221.083-6.516,2.031-8.655,3.769-.663.538-1.653.067-1.653-.787v-.026c0-.308.13-.595.359-.791.575-.491,1.237-.896,1.95-1.369.033-.228.068-.455.106-.682l.466-2.765c2.186-.566,3.879-2.47,4.129-4.767.035-.324-.226-.606-.552-.585-3.714.243-4.948,2.775-4.948,2.775C5.499,2.775,4.219.231.523,0,.223-.019-.029.234.001.533c.203,2.041,1.543,3.781,3.356,4.555l-.503.754C.992,8.636-.001,11.918-.001,15.275H-.001c0,4.818,3.906,8.725,8.725,8.725h7.161c4.486,0,8.185-3.641,8.115-8.127-.036-2.291-1.037-4.348-2.613-5.784Zm-3.886,7.911c-.828,0-1.5-.672-1.5-1.5s.672-1.5,1.5-1.5,1.5.672,1.5,1.5-.672,1.5-1.5,1.5Z"/>
</svg>
