<?xml version="1.0" encoding="UTF-8"?>
<svg xmlns="http://www.w3.org/2000/svg" id="Layer_1" data-name="Layer 1" viewBox="0 0 24 24">
  <path d="m10,19c0,.552-.448,1-1,1h-5c-2.206,0-4-1.794-4-4v-7.5c0-.552.448-1,1-1s1,.448,1,1v7.5c0,1.103.897,2,2,2h5c.552,0,1,.448,1,1Zm4-1h-1c-.552,0-1,.448-1,1s.448,1,1,1h1c.552,0,1-.448,1-1s-.448-1-1-1Zm9.472-.304l-2.244-2.381c-.379-.403-1.012-.42-1.414-.042-.402.379-.421,1.012-.042,1.414l1.239,1.314h-3.011c-.552,0-1,.448-1,1s.448,1,1,1h3.01l-1.238,1.314c-.378.402-.36,1.035.042,1.414.193.182.439.272.686.272.266,0,.531-.105.728-.314l2.223-2.36c.731-.731.731-1.92.021-2.63Zm-9.472-9.696c.551,0,1-.449,1-1s-.449-1-1-1-1,.449-1,1,.449,1,1,1Zm-10,2v-6C4,1.794,5.794,0,8,0h12c2.206,0,4,1.794,4,4v6c0,2.206-1.794,4-4,4h-12c-2.206,0-4-1.794-4-4Zm15-6.5c0,.828.672,1.5,1.5,1.5s1.5-.672,1.5-1.5-.672-1.5-1.5-1.5-1.5.672-1.5,1.5Zm0,7c0,.828.672,1.5,1.5,1.5s1.5-.672,1.5-1.5-.672-1.5-1.5-1.5-1.5.672-1.5,1.5Zm-8-3.5c0,1.654,1.346,3,3,3s3-1.346,3-3-1.346-3-3-3-3,1.346-3,3Zm-5-3.5c0,.828.672,1.5,1.5,1.5s1.5-.672,1.5-1.5-.672-1.5-1.5-1.5-1.5.672-1.5,1.5Zm0,7c0,.828.672,1.5,1.5,1.5s1.5-.672,1.5-1.5-.672-1.5-1.5-1.5-1.5.672-1.5,1.5Z"/>
</svg>
