<?xml version="1.0" encoding="UTF-8"?>
<svg xmlns="http://www.w3.org/2000/svg" id="Layer_1" data-name="Layer 1" viewBox="0 0 24 24">
  <path d="M9,10v-.642c.712-.185,1.352-.551,1.852-1.061l.648,.374c.158,.091,.329,.134,.499,.134,.346,0,.682-.18,.867-.5,.276-.479,.111-1.091-.366-1.366l-.66-.381c.094-.339,.16-.689,.16-1.058s-.066-.719-.16-1.058l.66-.381c.478-.275,.643-.888,.366-1.366-.277-.478-.888-.642-1.366-.366l-.648,.374c-.5-.51-1.14-.876-1.852-1.061v-.642c0-.553-.447-1-1-1s-1,.447-1,1v.642c-.712,.185-1.352,.551-1.852,1.061l-.648-.374c-.48-.275-1.09-.111-1.366,.366-.276,.479-.111,1.091,.366,1.366l.66,.381c-.094,.339-.16,.689-.16,1.058s.066,.719,.16,1.058l-.66,.381c-.478,.275-.643,.888-.366,1.366,.186,.32,.521,.5,.867,.5,.17,0,.341-.043,.499-.134l.648-.374c.5,.51,1.14,.876,1.852,1.061v.642c0,.553,.447,1,1,1s1-.447,1-1Zm-3-4.5c0-1.103,.897-2,2-2s2,.897,2,2-.897,2-2,2-2-.897-2-2Zm17.341,6.845l-7.702,8.409c-1.894,2.068-4.57,3.246-7.374,3.246H4.003C1.794,24,.003,22.209,.003,20v-5C.003,12.791,1.794,11,4.003,11h7.787c1.374,0,2.46,1.26,2.164,2.685-.193,.926-1.004,1.598-1.94,1.732l-4.162,.583c-.547,.078-.927,.585-.848,1.131,.078,.547,.585,.926,1.131,.848l4.252-.596c2.062-.294,3.617-2.087,3.617-4.17,0-.219-.032-.429-.065-.638l3.541-3.737c.455-.5,1.097-.803,1.794-.835,.692-.034,1.363,.209,1.878,.678,1.052,.958,1.138,2.602,.189,3.665Z"/>
</svg>
