<?xml version="1.0" encoding="UTF-8"?>
<svg xmlns="http://www.w3.org/2000/svg" id="Layer_1" data-name="Layer 1" viewBox="0 0 24 24">
  <path d="m3.094,16h17.812s-.381.966-.41,1.014c-1.633,2.725-3.929,3.006-6.409,3.006-.317,0-.753-.006-1.077-.011-.001,0-.004,0-.01,0h0v1.991h3c.552,0,1,.448,1,1s-.448,1-1,1h-8c-.552,0-1-.448-1-1s.448-1,1-1h3v-1.991h0c-.006,0-.009,0-.01,0-2.844.042-5.644.078-7.486-2.995-.029-.048-.41-1.014-.41-1.014Zm18.406-7h-3.346c-.552,0-1-.448-1-1v-.107c0-.493.4-.893.893-.893h.953c.996,0,1.92-.681,2.08-1.664.204-1.253-.758-2.336-1.973-2.336h-3.084c-.523-1.5-1.219-2.113-2.372-2.846-.596-.379-1.373-.022-1.486.675-.242,1.492-1.164,2.171-1.164,2.171h-5.893c-.996,0-1.92.681-2.08,1.664-.204,1.253.758,2.336,1.973,2.336h7.154c.552,0,1,.448,1,1s-.448,1-1,1H2.643C1.335,9,.143,9.941.013,11.242c-.15,1.496,1.021,2.758,2.487,2.758h18.857c1.308,0,2.499-.941,2.63-2.242.15-1.497-1.021-2.758-2.487-2.758Z"/>
</svg>
