<?xml version="1.0" encoding="UTF-8"?>
<svg xmlns="http://www.w3.org/2000/svg" id="Layer_1" data-name="Layer 1" viewBox="0 0 24 24">
  <path d="M19,17.999h4.54c-.346,.914-.879,1.754-1.591,2.465l-1.484,1.485c-.712,.712-1.552,1.244-2.465,1.591v-4.541c0-.551,.448-1,1-1Zm5-12.999V15.515c0,.163-.013,.324-.024,.485h-4.976c-1.654,0-3,1.346-3,3v4.976c-.161,.011-.322,.024-.485,.024H5c-2.757,0-5-2.243-5-5V5C0,2.243,2.243,0,5,0h14c2.757,0,5,2.243,5,5Zm-16-.394c0-.335-.271-.606-.606-.606s-.606,.271-.606,.606v2.644l-1.247-2.774c-.13-.289-.418-.476-.735-.476-.445,0-.806,.361-.806,.806v4.579c0,.34,.276,.615,.615,.615h0c.34,0,.615-.276,.615-.615v-2.635l1.23,2.772c.129,.291,.417,.478,.735,.478,.444,0,.804-.36,.804-.804V4.606Zm2.75,2.114v-1.47h1.125c.345,0,.625-.28,.625-.625s-.28-.625-.625-.625h-1.75c-.345,0-.625,.28-.625,.625v4.75c0,.345,.28,.625,.625,.625s.625-.28,.625-.625v-1.405h1.125c.345,0,.625-.28,.625-.625s-.28-.625-.625-.625h-1.125Zm6.5-2.095c0-.345-.28-.625-.625-.625h-2.5c-.345,0-.625,.28-.625,.625s.28,.625,.625,.625h.625v4.125c0,.345,.28,.625,.625,.625s.625-.28,.625-.625V5.25h.625c.345,0,.625-.28,.625-.625Z"/>
</svg>
