<?xml version="1.0" encoding="UTF-8"?>
<svg xmlns="http://www.w3.org/2000/svg" id="Layer_1" data-name="Layer 1" viewBox="0 0 24 24">
  <path d="M19,10c2.761,0,5-2.239,5-5S21.761,0,19,0s-5,2.239-5,5,2.239,5,5,5Zm-2-6h1v-1c0-.552,.448-1,1-1h0c.552,0,1,.448,1,1v1h1c.552,0,1,.448,1,1h0c0,.552-.448,1-1,1h-1v1c0,.552-.448,1-1,1h0c-.552,0-1-.448-1-1v-1h-1c-.552,0-1-.448-1-1h0c0-.552,.448-1,1-1Zm-7.122,10.546L.744,5.411c.879-1.439,2.45-2.411,4.256-2.411h7.294c-.189,.634-.294,1.305-.294,2,0,3.159,2.094,5.828,4.969,6.698l-2.847,2.848c-.585,.584-1.353,.876-2.122,.876-.768,0-1.537-.292-2.122-.876Zm14.106-4.634l.016,9.088c0,2.757-2.243,5-5,5H5c-2.757,0-5-2.243-5-5V8c0-.157,.032-.305,.046-.458L8.464,15.96c.975,.975,2.255,1.462,3.536,1.462s2.561-.487,3.536-1.462l3.986-3.986c1.742-.129,3.308-.89,4.463-2.062Z"/>
</svg>
