<?xml version="1.0" encoding="UTF-8"?>
<svg xmlns="http://www.w3.org/2000/svg" id="Layer_1" data-name="Layer 1" viewBox="0 0 24 24">
  <path d="m9.5,2.5c0-1.381,1.119-2.5,2.5-2.5s2.5,1.119,2.5,2.5-1.119,2.5-2.5,2.5-2.5-1.119-2.5-2.5Zm.829,7.774l.864.795c.456.42,1.158.42,1.614,0l.834-.767c.669-.599,1.483-.987,2.338-1.17l.012-.02c-.413-1.782-2.043-3.112-3.991-3.112s-3.577,1.33-3.991,3.111l.012.019c.831.173,1.631.539,2.308,1.144Zm1.781,4.535c1.206,1.134,1.89,2.716,1.89,4.371v3.82c0,.552-.448,1-1,1h-7.479c-.504,0-.99-.19-1.36-.533l-1.792-1.775c-1.516-1.502-2.369-3.548-2.369-5.683V5.462c0-1.466,1.261-2.637,2.758-2.487,1.301.13,2.242,1.322,2.242,2.63v5.844c-.151.177-.293.363-.417.568-.906,1.503-.744,3.465.378,4.848l1.788,2.304c.339.436.967.515,1.403.177.436-.339.515-.967.177-1.403l-1.788-2.304c-.595-.734-.733-1.78-.245-2.589,0,0,0,0,0,0,.752-1.246,2.405-1.432,3.412-.498l2.402,2.258Zm11.89-9.347v10.548c0,2.135-.854,4.182-2.371,5.685l-1.79,1.772c-.37.343-.855.533-1.36.533h-2.664c.112-.314.184-.648.184-1v-3.112l3.038-3.024c1.122-1.383,1.285-3.345.378-4.848-.123-.204-.266-.391-.417-.568v-5.844c0-1.308.941-2.499,2.242-2.63,1.496-.15,2.758,1.021,2.758,2.487Zm-6.542,10.176l-1.695,1.682c-.362-1.504-1.143-2.895-2.283-3.968l-.02-.019.832-.782c1.007-.934,2.66-.748,3.412.498,0,0,0,0,0,0,.488.81.35,1.855-.245,2.589Z"/>
</svg>
