<?xml version="1.0" encoding="UTF-8"?>
<svg xmlns="http://www.w3.org/2000/svg" id="Layer_1" data-name="Layer 1" viewBox="0 0 24 24">
  <path d="m19.083,10.292c-.446-.395-.849-.332-1.083.215-.937,2.191-.549,5.492-2.37,5.492-.676,0-.896-1.534-1.104-2.035-.25-.6-.741-.669-1.062-.103-.582,1.03-1.465,3-1.465,4.139,0,3.192,2.492,5.802,5.637,5.989,2.234.133,4.327-1.147,5.484-3.063,2.698-4.467-1.438-8.333-4.038-10.636Zm.439,11.005c-.802.936-2.242.936-3.044,0-.693-.81-.558-2.046.195-2.8l.77-1.096c.308-.308.807-.308,1.115,0l.769,1.097c.753.754.888,1.99.195,2.8Zm-9.522-3.297c0-2.021,1.548-4.812,1.725-5.124.528-.934,1.416-1.453,2.398-1.399.513.031.987.22,1.383.538.146-.75.335-1.544.655-2.294.497-1.163,1.37-1.516,1.847-1.623.48-.107,1.431-.161,2.399.695h.002c.947.839,2.392,2.12,3.579,3.73.007-.174.012-.348.012-.524C24,5.373,18.627,0,12,0S0,5.373,0,12s5.373,12,12,12c.231,0,.46-.007.688-.02-1.652-1.47-2.688-3.612-2.688-5.979Zm3-10.001c0-.553.447-1,1-1s1,.447,1,1v2c0,.553-.447,1-1,1s-1-.447-1-1v-2Zm-6,2c0,.553-.447,1-1,1s-1-.447-1-1v-2c0-.553.447-1,1-1s1,.447,1,1v2Zm2,0v-2c0-.553.447-1,1-1s1,.447,1,1v2c0,.553-.447,1-1,1s-1-.447-1-1Z"/>
</svg>
