<?xml version="1.0" encoding="UTF-8"?>
<svg xmlns="http://www.w3.org/2000/svg" id="Layer_1" data-name="Layer 1" viewBox="0 0 24 24">
  <path d="m7.5,10h9c.828,0,1.5.672,1.5,1.5v4c0,1.381-1.119,2.5-2.5,2.5h-7c-1.381,0-2.5-1.119-2.5-2.5v-4c0-.828.672-1.5,1.5-1.5Zm13.389,0l2.919-2.539c.463-.595.039-1.461-.715-1.461h-4.093c-1.105,0-2,.895-2,2v.051c1.692.245,3,1.691,3,3.449v2.5h3.093c.753,0,1.177-.866.715-1.461l-2.919-2.539Zm-16.889,1.5c0-1.758,1.308-3.204,3-3.449v-.051c0-1.105-.895-2-2-2H.907c-.753,0-1.177.866-.715,1.461l2.919,2.539L.192,12.539c-.463.595-.039,1.461.715,1.461h3.093v-2.5Z"/>
</svg>
