<?xml version="1.0" encoding="UTF-8"?>
<svg xmlns="http://www.w3.org/2000/svg" id="Layer_1" data-name="Layer 1" viewBox="0 0 24 24">
  <path d="m8.5,11c0-2.206-1.794-4-4-4S.5,8.794.5,11c0,1.255.593,2.363,1.5,3.097v4.75c0,.623.791.89,1.169.395l1.331-1.743,1.331,1.743c.378.495,1.169.228,1.169-.395v-4.75c.907-.734,1.5-1.842,1.5-3.097Zm15.5-.515v8.515c0,2.757-2.243,5-5,5h-10c-2.103,0-3.899-1.309-4.636-3.151.043-.037.095-.06.136-.1.499.486,1.164.751,1.848.751.284,0,.571-.045.851-.14,1.028-.349,1.727-1.286,1.789-2.359h9.012c.552,0,1-.447,1-1s-.448-1-1-1h-9v-2h9c.552,0,1-.447,1-1s-.448-1-1-1h-7.858c.229-.635.358-1.308.358-2,0-3.309-2.691-6-6-6-.169,0-.335.012-.5.025v-.025C4,2.243,6.243,0,9,0h4.515c.163,0,.324.013.485.024v6.976c0,1.654,1.346,3,3,3h6.976c.011.161.024.322.024.485Zm-8-3.485V.46c.913.346,1.753.879,2.465,1.59l3.484,3.486c.712.711,1.245,1.551,1.591,2.464h-6.54c-.552,0-1-.449-1-1Z"/>
</svg>
