<?xml version="1.0" encoding="UTF-8"?>
<svg xmlns="http://www.w3.org/2000/svg" id="Layer_1" data-name="Layer 1" viewBox="0 0 24 24">
  <path d="M11,.101c.521,.131,1.006,.391,1.393,.778l1.729,1.729c.387,.387,.647,.871,.778,1.393h-3.899V.101Zm12.152,8.58c-1.007-.963-2.764-.882-3.672,.157l-3.541,3.737c.032,.21,.065,.42,.065,.638,0,2.083-1.555,3.876-3.617,4.17l-4.252,.596c-.547,.078-1.053-.302-1.131-.848-.078-.547,.302-1.053,.848-1.131l4.162-.583c.936-.134,1.748-.806,1.94-1.732,.296-1.425-.79-2.685-2.164-2.685H4.003C1.794,11,.003,12.791,.003,15v5C.003,22.209,1.794,24,4.003,24h4.262c2.805,0,5.48-1.178,7.374-3.246l7.702-8.409c.948-1.062,.862-2.707-.189-3.665Zm-19.149,.319h7.787c1.245,0,2.406,.55,3.21,1.499V6h-4c-1.105,0-2-.895-2-2V0H5c-1.657,0-3,1.343-3,3v6.351c.628-.223,1.3-.351,2.003-.351Z"/>
</svg>
