<?xml version="1.0" encoding="UTF-8"?>
<svg xmlns="http://www.w3.org/2000/svg" id="Layer_1" data-name="Layer 1" viewBox="0 0 24 24">
  <path d="M13,15c0,.552-.448,1-1,1s-1-.448-1-1,.448-1,1-1,1,.448,1,1Zm-1-7c-.552,0-1,.448-1,1v3c0,.552,.448,1,1,1s1-.448,1-1v-3c0-.552-.448-1-1-1Zm11.271,6.485c-1.551,2.433-5.078,6.515-11.271,6.515S2.279,16.918,.729,14.485c-.978-1.533-.978-3.438,0-4.971C2.28,7.081,5.81,3,12,3s9.72,4.081,11.271,6.514c.978,1.535,.978,3.439,0,4.972Zm-5.771-2.485c0-3.033-2.467-5.5-5.5-5.5s-5.5,2.467-5.5,5.5,2.467,5.5,5.5,5.5,5.5-2.467,5.5-5.5Z"/>
</svg>
