<?xml version="1.0" encoding="UTF-8"?>
<svg xmlns="http://www.w3.org/2000/svg" id="Layer_1" data-name="Layer 1" viewBox="0 0 24 24">
  <path d="m11.43,15.709l-2.258,2.402c-1.134,1.206-2.716,1.89-4.371,1.89H.981c-.552,0-1-.448-1-1v-7.479c0-.504.19-.99.533-1.36l1.775-1.792c1.432-1.445,3.358-2.287,5.384-2.363-.431.908-.673,1.923-.673,2.994v2.053l-2.187,1.698c-.436.339-.515.967-.177,1.403.339.436.967.515,1.403.177l2.304-1.788c.734-.595,1.78-.733,2.589-.245,0,0,0,0,0,0,1.246.752,1.432,2.405.498,3.412Zm8.57-3.709c0,1.103.897,2,2,2s2-.897,2-2-.897-2-2-2-2,.897-2,2Zm4,3.444v3.556c0,.552-.448,1-1,1h-9c-1.103,0-2.123-.359-2.951-.966l1.838-1.955c.177-.19.333-.394.47-.607.275.323.685.529,1.143.529.828,0,1.5-.672,1.5-1.5s-.672-1.5-1.5-1.5c-.169,0-.331.028-.483.08-.005-.155-.018-.31-.04-.466-.178-1.261-.911-2.366-2.012-3.03-.897-.541-1.957-.7-2.966-.498v-1.086c0-2.761,2.239-5,5-5h9c.552,0,1,.448,1,1v3.556c-.591-.345-1.268-.556-2-.556-2.206,0-4,1.794-4,4s1.794,4,4,4c.732,0,1.409-.212,2-.556Zm-8-6.944c0-.828-.672-1.5-1.5-1.5s-1.5.672-1.5,1.5.672,1.5,1.5,1.5,1.5-.672,1.5-1.5Z"/>
</svg>
