<?xml version="1.0" encoding="UTF-8"?>
<svg xmlns="http://www.w3.org/2000/svg" id="Layer_1" data-name="Layer 1" viewBox="0 0 24 24">
  <path d="m21.5,6.5c-.254,0-.508-.096-.703-.289-.393-.388-.396-1.021-.008-1.414l1.5-1.517c.388-.393,1.021-.396,1.414-.008s.396,1.021.008,1.414l-1.5,1.517c-.195.198-.453.297-.711.297Zm-3.255-3.265l.92-1.775c.254-.49.063-1.094-.427-1.348-.492-.254-1.095-.063-1.348.427l-.92,1.775c-.254.49-.063,1.094.427,1.348.147.076.305.112.459.112.362,0,.711-.197.889-.54ZM3.203,6.211c.393-.388.396-1.021.008-1.414l-1.5-1.517c-.388-.393-1.021-.396-1.414-.008s-.396,1.021-.008,1.414l1.5,1.517c.195.198.453.297.711.297.254,0,.508-.096.703-.289Zm3.9-2.548c.49-.254.682-.858.427-1.348l-.92-1.775c-.253-.489-.855-.681-1.348-.427-.49.254-.682.858-.427,1.348l.92,1.775c.178.343.527.54.889.54.155,0,.312-.036.459-.112Zm13.237,14.008c-.189.209-.458.329-.741.329H4.401c-.283,0-.552-.12-.741-.329-.19-.209-.282-.489-.254-.771l.66-6.598c.245-2.453,2.289-4.302,4.754-4.302h6.361c2.465,0,4.509,1.85,4.754,4.302l.66,6.598c.028.281-.064.561-.254.771Zm-8.34-6.671c0-.552-.448-1-1-1h-1.979c-.514,0-.944.389-.995.9l-.2,2c-.055.549.346,1.04.896,1.095.034.003.067.005.101.005.508,0,.942-.385.994-.9l.11-1.1h1.075c.552,0,1-.448,1-1Zm12,12h0c0,.552-.448,1-1,1H1c-.552,0-1-.448-1-1h0c0-1.657,1.343-3,3-3h18c1.657,0,3,1.343,3,3Z"/>
</svg>
