<?xml version="1.0" encoding="UTF-8"?>
<svg xmlns="http://www.w3.org/2000/svg" id="Layer_1" data-name="Layer 1" viewBox="0 0 24 24">
  <path d="M0,7v-1C0,3.243,2.243,1,5,1h2.528c.463,0,.927,.109,1.341,.316l3.156,1.578c.138,.069,.292,.105,.446,.105h6.528c2.467,0,4.51,1.647,4.914,4H0Zm14.007,6c-.486,0-.926,.409-1.021,.952-.084,.478-.499,.826-.984,.826s-.9-.348-.984-.825c-.097-.543-.53-.953-1.01-.953-.552,0-1,.539-1,1.2,0,1.044,1.512,2.804,3.006,4.002,1.481-1.2,2.994-2.959,2.994-4.002,0-.662-.448-1.2-1-1.2Zm9.993-4v9c0,2.757-2.243,5-5,5H5c-2.757,0-5-2.243-5-5V9H24Zm-6.993,5.2c0-1.765-1.346-3.2-3-3.2-.748,0-1.453,.301-1.996,.797-.538-.499-1.243-.797-2.004-.797-1.654,0-3,1.436-3,3.2,0,2.366,2.873,4.855,3.754,5.562,.361,.29,.804,.435,1.246,.435s.885-.145,1.246-.435c.881-.707,3.754-3.198,3.754-5.562Z"/>
</svg>
