<?xml version="1.0" encoding="UTF-8"?>
<svg xmlns="http://www.w3.org/2000/svg" id="Layer_1" data-name="Layer 1" viewBox="0 0 24 24">
  <path d="M24,22c0,1.105-.895,2-2,2-.738,0-1.376-.405-1.723-1h-1.277c-1.654,0-3-1.346-3-3v-5c0-.553,.448-1,1-1s1,.447,1,1v5c0,.552,.449,1,1,1h1.277c.346-.595,.984-1,1.723-1,1.105,0,2,.895,2,2Zm-11-1.723v-5.277c0-.553-.448-1-1-1s-1,.447-1,1v5.277c-.595,.346-1,.984-1,1.723,0,1.105,.895,2,2,2s2-.895,2-2c0-.738-.405-1.376-1-1.723Zm-6-6.277c-.552,0-1,.447-1,1v5c0,.552-.449,1-1,1h-1.277c-.346-.595-.984-1-1.723-1-1.105,0-2,.895-2,2s.895,2,2,2c.738,0,1.376-.405,1.723-1h1.277c1.654,0,3-1.346,3-3v-5c0-.553-.448-1-1-1Zm13,1v1.843c1.552-1.049,2.668-2.716,2.933-4.627,.509-3.669-1.935-6.87-5.297-7.572-.403-.084-.756-.348-.945-.714C15.425,1.476,12.803-.163,9.813,.013,6.691,.196,3.996,2.486,3.22,5.515c-.254,.99-.275,1.945-.132,2.845,.082,.517-.119,1.023-.509,1.372-1.131,1.013-1.777,2.552-1.525,4.243,.247,1.663,1.411,3.072,2.946,3.684v-2.659c0-1.654,1.346-3,3-3,1.044,0,1.962,.537,2.5,1.348,.538-.811,1.456-1.348,2.5-1.348s1.962,.537,2.5,1.348c.538-.811,1.456-1.348,2.5-1.348,1.654,0,3,1.346,3,3Z"/>
</svg>
