<?xml version="1.0" encoding="UTF-8"?>
<svg xmlns="http://www.w3.org/2000/svg" id="Layer_1" data-name="Layer 1" viewBox="0 0 24 24">
  <path d="m8.942,20c.034.162.058.328.058.5,0,1.381-1.119,2.5-2.5,2.5s-2.5-1.119-2.5-2.5c0-.172.024-.338.058-.5h4.885Zm-4.942-2c-2.209,0-4-1.791-4-4V5C0,2.791,1.791,1,4,1h7c2.209,0,4,1.791,4,4v13H4Zm-1-8c0,.553.447,1,1,1h2.5v2.5c0,.553.447,1,1,1s1-.447,1-1v-2.5h2.5c.553,0,1-.447,1-1s-.447-1-1-1h-2.5v-2.5c0-.553-.447-1-1-1s-1,.447-1,1v2.5h-2.5c-.553,0-1,.447-1,1Zm14,8h3c2.209,0,4-1.791,4-4v-1h-7v5Zm-1.942,2c-.034.162-.058.328-.058.5,0,1.381,1.119,2.5,2.5,2.5s2.5-1.119,2.5-2.5c0-.172-.024-.338-.058-.5h-4.885Zm3.942-15h-2v6h7v-1c0-2.761-2.239-5-5-5Z"/>
</svg>
