<?xml version="1.0" encoding="UTF-8"?>
<svg xmlns="http://www.w3.org/2000/svg" id="Layer_1" data-name="Layer 1" viewBox="0 0 24 24">
  <path d="m15.028.388c-.337-.088-.964.035-1.087.597-.192.876-1.003,1.515-1.941,1.515-.932,0-1.638-.661-1.937-1.5-.242-.682-.735-.704-1.063-.619C3.83,1.716,0,6.419,0,12s3.83,10.284,9,11.619c.328.085.821.062,1.063-.619.299-.839,1.005-1.5,1.937-1.5.937,0,1.749.639,1.941,1.515.123.562.75.685,1.087.597,5.155-1.345,8.972-6.041,8.972-11.612S20.184,1.733,15.028.388Zm-7.028,4.612h8c.552,0,1,.448,1,1s-.448,1-1,1h-8c-.552,0-1-.448-1-1s.448-1,1-1Zm-3,4h14c.552,0,1,.448,1,1s-.448,1-1,1H5c-.552,0-1-.448-1-1s.448-1,1-1Zm11,10h-8c-.552,0-1-.448-1-1s.448-1,1-1h8c.552,0,1,.448,1,1s-.448,1-1,1Zm3-4H5c-.552,0-1-.448-1-1s.448-1,1-1h14c.552,0,1,.448,1,1s-.448,1-1,1Z"/>
</svg>
