<?xml version="1.0" encoding="UTF-8"?>
<svg xmlns="http://www.w3.org/2000/svg" id="Layer_1" data-name="Layer 1" viewBox="0 0 24 24">
  <path d="m9.5,2.5c0-1.381,1.119-2.5,2.5-2.5s2.5,1.119,2.5,2.5c0,1.025-.618,1.903-1.5,2.289v1.211c0,.553-.447,1-1,1s-1-.447-1-1v-1.211c-.882-.386-1.5-1.264-1.5-2.289Zm7.309,6.962c.204,0,.41-.062.588-.191l.85-.619c.37.216.794.349,1.254.349,1.381,0,2.5-1.119,2.5-2.5s-1.119-2.5-2.5-2.5-2.5,1.119-2.5,2.5c0,.186.023.365.062.539l-.843.614c-.446.325-.545.951-.22,1.397.196.269.501.411.81.411Zm-11.055-.811l.85.619c.178.129.384.191.588.191.309,0,.613-.143.81-.411.325-.446.227-1.072-.22-1.397l-.843-.614c.038-.174.062-.354.062-.539,0-1.381-1.119-2.5-2.5-2.5s-2.5,1.119-2.5,2.5,1.119,2.5,2.5,2.5c.459,0,.884-.133,1.254-.349Zm14.076,10.102l-5.829-2.292v-5.462c0-.996-.681-1.92-1.664-2.08-1.253-.204-2.336.758-2.336,1.973v9.924c-1.076-.886-2.111-1.752-2.145-1.784-.922-.861-2.373-.813-3.235.109-.863.923-.819,2.372.098,3.23l1.821,1.628h16.462v-.593c0-2.055-1.258-3.901-3.171-4.653Z"/>
</svg>
