<?xml version="1.0" encoding="UTF-8"?>
<svg xmlns="http://www.w3.org/2000/svg" id="Layer_1" data-name="Layer 1" viewBox="0 0 24 24">
  <path d="M2.5,19h1c1.378,0,2.5-1.121,2.5-2.5v-7.673L11.307,1.592c.326-.445,.23-1.071-.215-1.398-.446-.327-1.071-.229-1.398,.215L4.193,7.908c-.021,.03-.041,.061-.06,.092h-1.134c-1.654,0-3,1.346-3,3v5.5c0,1.379,1.122,2.5,2.5,2.5ZM21,8h-1.134c-.019-.031-.038-.062-.06-.092L14.307,.408c-.328-.444-.953-.542-1.398-.215-.445,.327-.542,.953-.215,1.398l5.307,7.235v7.673c0,1.379,1.121,2.5,2.5,2.5h1c1.379,0,2.5-1.121,2.5-2.5v-5.5c0-1.654-1.346-3-3-3Zm2.744,13.565c.369,.41,.335,1.043-.076,1.412-.733,.659-1.681,1.022-2.668,1.022-1.128,0-2.222-.472-3-1.226-.778,.754-1.872,1.226-3,1.226s-2.222-.472-3-1.225c-.778,.753-1.873,1.225-3,1.225s-2.222-.472-3-1.225c-.778,.753-1.873,1.225-3,1.225-.987,0-1.935-.363-2.668-1.022-.411-.369-.444-1.002-.075-1.412,.369-.41,1.002-.443,1.412-.076,.366,.329,.839,.511,1.332,.511,.89,0,1.793-.586,2.057-1.333,.141-.399,.519-.667,.943-.667s.802,.268,.943,.667c.264,.747,1.167,1.333,2.057,1.333s1.793-.586,2.057-1.333c.141-.399,.519-.667,.943-.667s.802,.268,.943,.667c.264,.747,1.167,1.333,2.057,1.333s1.793-.586,2.058-1.333c.141-.4,.519-.667,.942-.667s.802,.267,.942,.667c.265,.747,1.169,1.333,2.058,1.333,.492,0,.966-.182,1.332-.511,.408-.367,1.04-.337,1.412,.076Z"/>
</svg>
