<?xml version="1.0" encoding="UTF-8"?>
<svg xmlns="http://www.w3.org/2000/svg" id="Layer_1" data-name="Layer 1" viewBox="0 0 24 24">
  <path d="m23.876,14.461c-.243.889-.819,1.63-1.621,2.086-.527.3-1.111.454-1.702.454-.307,0-.615-.041-.919-.125-1.126-.31-4.501-3.197-6.48-4.895l5.245,6.119c.388.451.602,1.029.602,1.627v1.022c0,.157.075.307.201.401l1.398,1.048c.442.332.532.958.2,1.4-.196.262-.496.4-.801.4-.209,0-.419-.065-.599-.2l-1.4-1.05c-.627-.472-1-1.219-1-2v-1.022c0-.119-.042-.234-.119-.324l-3.881-4.527v4.123c0,.552-.447,1-1,1s-1-.448-1-1v-4.123l-3.879,4.526c-.079.091-.121.206-.121.325v1.022c0,.781-.373,1.529-.998,1.999l-1.402,1.051c-.18.135-.39.2-.599.2-.305,0-.604-.138-.801-.4-.332-.442-.242-1.068.2-1.4l1.4-1.05c.124-.093.199-.243.199-.4v-1.022c0-.598.214-1.176.604-1.628l5.243-6.118c-1.979,1.698-5.354,4.585-6.48,4.895-.304.083-.612.125-.919.125-.591,0-1.175-.153-1.702-.454-.802-.456-1.378-1.197-1.621-2.086-.244-.889-.128-1.82.328-2.621s1.197-1.377,2.086-1.621c.747-.205,2.689-.209,5.462-.219h2.029l-4.982-3.559c-.655-.468-1.047-1.229-1.047-2.034v-.787c0-.131-.054-.26-.146-.354l-1.561-1.561c-.391-.391-.391-1.023,0-1.414S3.316-.098,3.707.293l1.561,1.561c.466.465.732,1.11.732,1.768v.787c0,.161.078.313.209.407l3.831,2.737c-.338-.426-.54-.965-.54-1.551,0-.922.499-1.727,1.242-2.16l.746-3.428c.12-.55.904-.55,1.023,0l.746,3.428c.743.433,1.242,1.238,1.242,2.16,0,.592-.206,1.136-.551,1.565l3.862-2.749c.134-.095.213-.25.21-.415l-.012-.751c-.01-.674.258-1.332.733-1.807l1.55-1.551c.391-.391,1.023-.391,1.414,0,.391.39.391,1.023,0,1.414l-1.551,1.551c-.096.095-.148.227-.146.362l.012.75c.013.822-.379,1.597-1.05,2.075l-4.994,3.555h2.023c2.77-.013,4.714.014,5.462.219.889.244,1.63.82,2.086,1.621s.572,1.732.328,2.621Z"/>
</svg>
