<?xml version="1.0" encoding="UTF-8"?>
<svg xmlns="http://www.w3.org/2000/svg" id="Layer_1" data-name="Layer 1" viewBox="0 0 24 24">
  <path d="m.052,2.114C-.217,1.04.595,0,1.702,0h20.595c1.107,0,1.919,1.04,1.651,2.114l-.948,1.886H1L.052,2.114Zm15.948,17.869h0c0,2.139-1.671,3.887-3.779,4.011-1.761.103-3.293-1.047-3.971-2.676-.633-1.522.054-3.081.77-3.965.187-.23.551-.188.671.082.169.383.113,1.004.472,1.004.758,0,.564-2.049,1.41-3.481.15-.254.499-.303.719-.108,1.366,1.219,3.708,3.021,3.708,5.132Zm-2.992.297h0l-.682-.682c-.19-.19-.497-.19-.687,0l-.682.682c-.582.582-.686,1.537-.15,2.162.62.723,1.732.723,2.351,0,.536-.625.432-1.58-.15-2.162Zm9.992,1.72V6H1v16c-.552,0-1,.448-1,1s.448,1,1,1h4c.552,0,1-.448,1-1v-8.921c0-1.495.927-2.847,2.307-3.364,2.535-.95,4.85-.95,7.385,0,1.38.517,2.307,1.869,2.307,3.364v8.921c0,.552.448,1,1,1h4c.552,0,1-.448,1-1s-.448-1-1-1Z"/>
</svg>
