<?xml version="1.0" encoding="UTF-8"?>
<svg xmlns="http://www.w3.org/2000/svg" id="Layer_1" data-name="Layer 1" viewBox="0 0 24 24">
  <path d="m14.503,12.339l-.518.524V3c0-1.657,1.343-3,3-3h4c1.657,0,3,1.343,3,3v8c0,1.4-.963,2.566-2.26,2.897-.292-.847-.82-1.589-1.572-2.123-1.723-1.225-4.095-.988-5.649.564Zm7.481,3.661h-.078c-.112.686-.366,1.347-.787,1.909l-2.445,2.416c-.389.389-1.021.381-1.4-.018-.365-.384-.358-.989.016-1.364l2.228-2.234c.775-1.033.572-2.526-.525-3.306-.942-.669-2.252-.475-3.069.342l-3.253,3.287c-.75.75-1.172,1.768-1.172,2.828v4.116l-.015.022h10.137l.329-.329c1.313-1.313,2.05-3.093,2.05-4.95v-3.286c-.594.35-1.277.565-2.016.565Zm-12.484,8h-4.5c-2.757,0-5-2.243-5-5V5C0,2.243,2.243,0,5,0h8.01c-.635.838-1.026,1.87-1.026,3v1h-6.984c-.552,0-1,.447-1,1v2c0,.553.448,1,1,1h6.984v6.885l-.727.734c-.679.679-1.171,1.493-1.46,2.381h-.798c-.552,0-1,.447-1,1s.448,1,1,1h.5v4Zm-1.5-13c0,.553.448,1,1,1h1c.552,0,1-.447,1-1s-.448-1-1-1h-1c-.552,0-1,.447-1,1Zm0,4c0,.553.448,1,1,1h1c.552,0,1-.447,1-1s-.448-1-1-1h-1c-.552,0-1,.447-1,1Zm-1,4c0-.553-.448-1-1-1h-1c-.552,0-1,.447-1,1s.448,1,1,1h1c.552,0,1-.447,1-1Zm0-4c0-.553-.448-1-1-1h-1c-.552,0-1,.447-1,1s.448,1,1,1h1c.552,0,1-.447,1-1Zm0-4c0-.553-.448-1-1-1h-1c-.552,0-1,.447-1,1s.448,1,1,1h1c.552,0,1-.447,1-1Z"/>
</svg>
