<?xml version="1.0" encoding="UTF-8"?>
<svg xmlns="http://www.w3.org/2000/svg" id="Layer_1" data-name="Layer 1" viewBox="0 0 24 24">
  <path d="m5,5C5,2.243,7.243,0,10,0s5,2.243,5,5-2.243,5-5,5-5-2.243-5-5ZM23,0h-5c-.552,0-1,.447-1,1s.448,1,1,1v5.347c0,.623.791.89,1.169.395l1.331-1.743,1.331,1.743c.378.495,1.169.228,1.169-.395V2c.552,0,1-.447,1-1s-.448-1-1-1Zm-4,20H1c-.552,0-1,.447-1,1s.448,1,1,1v1c0,.553.448,1,1,1h16c.552,0,1-.447,1-1v-1c.552,0,1-.447,1-1s-.448-1-1-1Zm-8.457-5.815l.956,3.815h5.431c.53,0,.926-.502.793-1.015-.691-2.657-2.705-4.783-5.306-5.61l-1.873,2.81Zm-7.474,3.815h5.431l.956-3.815-1.873-2.81c-2.601.826-4.616,2.952-5.306,5.61-.133.513.263,1.015.793,1.015Z"/>
</svg>
