<?xml version="1.0" encoding="UTF-8"?>
<svg xmlns="http://www.w3.org/2000/svg" id="Layer_1" data-name="Layer 1" viewBox="0 0 24 24">
  <path d="m23.995,17.024v2.875c0,1.523-1.084,2.84-2.522,3.063-.157.024-.314.036-.471.036-.711,0-1.399-.249-1.941-.713-.665-.57-1.047-1.404-1.046-2.288v-.998h-1.995v1.502c0,1.38-1.118,2.498-2.498,2.498h-.026c-1.382,0-2.501-1.122-2.498-2.504l.003-1.496h-6l-.004,1.508c-.003,1.377-1.121,2.492-2.498,2.492s-2.498-1.118-2.498-2.498v-11.502C0,5.8,2.519,3.186,5.677,3.016c-.43.907-.677,1.916-.677,2.984,0,3.86,3.141,7,7,7,.552,0,1-.448,1-1s-.448-1-1-1c-3.018,0-5.42-2.688-4.938-5.795.365-2.352,2.457-4.163,4.837-4.204,2.548-.044,4.853,1.576,5.719,3.957,1.488,1.012,2.397,2.7,2.396,4.494v10.547c0,.299.127.579.348.768.22.188.507.264.804.219.465-.072.829-.55.829-1.087v-2.899h.005c0-.552.448-1,1-1s1,.448,1,1c0,.009-.005.016-.005.024Z"/>
</svg>
