<?xml version="1.0" encoding="UTF-8"?>
<svg xmlns="http://www.w3.org/2000/svg" id="Layer_1" data-name="Layer 1" viewBox="0 0 24 24">
  <path d="M10.905,6.5h2.095v1.127c0,.661,.803,.989,1.266,.516l1.978-2.024c.342-.342,.342-.896,0-1.237l-1.978-2.024c-.462-.473-1.266-.146-1.266,.516v1.127h-2.095C10.434,1.941,8.196,0,5.5,0,2.462,0,0,2.462,0,5.5s2.462,5.5,5.5,5.5c2.696,0,4.934-1.941,5.405-4.5Zm-7.523,.925l-1.219-1.275c-.37-.387-.369-.998,.002-1.384,.394-.409,1.049-.409,1.442,.002l1.196,1.249,2.338-2.445c.391-.408,1.042-.412,1.437-.008h0c.377,.385,.38,1,.008,1.39l-2.377,2.487-.004,.004c-.744,.744-2.058,.746-2.823-.019Zm20.55,.399c-.253,1.036-1.213,1.745-2.28,1.745h-.304v.583c0,.469-.38,.848-.848,.848s-.848-.38-.848-.848v-.583h-.58c-.757,0-1.435-.346-1.882-.889-.44-.533-.066-1.338,.625-1.338,.268,0,.532,.1,.715,.295,.136,.145,.328,.235,.542,.235h2.598c.295,0,.564-.199,.622-.488,.067-.337-.155-.652-.478-.718l-2.922-.585c-.928-.186-1.68-.902-1.851-1.833-.269-1.462,.851-2.74,2.265-2.74h.347V.848c0-.469,.38-.848,.848-.848s.848,.38,.848,.848v.66h.212c.755,0,1.43,.344,1.878,.884,.443,.534,.067,1.343-.628,1.343-.268,.018-.523-.09-.704-.29-.136-.148-.331-.24-.546-.24h-2.229c-.294,0-.564,.198-.623,.486-.068,.337,.154,.654,.477,.719l2.961,.593c1.254,.25,2.106,1.505,1.785,2.821Zm-.932,15.583v.593H6.538l-1.821-1.628c-.917-.858-.96-2.307-.098-3.23,.861-.922,2.313-.97,3.235-.109,.034,.032,1.069,.898,2.145,1.784V12c0-1.215,1.083-2.176,2.336-1.973,.983,.16,1.664,1.083,1.664,2.08v4.355l5.83,2.292c1.913,.752,3.17,2.598,3.17,4.653Z"/>
</svg>
