<?xml version="1.0" encoding="UTF-8"?>
<svg xmlns="http://www.w3.org/2000/svg" id="Layer_1" data-name="Layer 1" viewBox="0 0 24 24">
  <path d="m24,22.5c0,.828-.672,1.5-1.5,1.5s-1.5-.672-1.5-1.5.672-1.5,1.5-1.5,1.5.672,1.5,1.5Zm-7.5-7.5c-.828,0-1.5.672-1.5,1.5s.672,1.5,1.5,1.5,1.5-.672,1.5-1.5-.672-1.5-1.5-1.5Zm1.591,8.541l4.5-7c.299-.465.164-1.084-.3-1.382-.466-.301-1.084-.165-1.382.3l-4.5,7c-.299.465-.164,1.084.3,1.382.168.108.354.159.54.159.329,0,.651-.162.842-.459Zm.909-21.541H5C2.239,2,0,4.239,0,7v6c0,2.761,2.239,5,5,5h7.373c.443,0,.783-.401.694-.834-.044-.215-.068-.437-.068-.666,0-1.762,1.306-3.255,3-3.5h8v-6c0-2.761-2.239-5-5-5ZM4.5,15c-.828,0-1.5-.672-1.5-1.5s.672-1.5,1.5-1.5,1.5.672,1.5,1.5-.672,1.5-1.5,1.5Zm0-7c-.828,0-1.5-.672-1.5-1.5s.672-1.5,1.5-1.5,1.5.672,1.5,1.5-.672,1.5-1.5,1.5Zm7.5,6c-2.206,0-4-1.794-4-4s1.794-4,4-4,4,1.794,4,4-1.794,4-4,4Zm7.5-6c-.828,0-1.5-.672-1.5-1.5s.672-1.5,1.5-1.5,1.5.672,1.5,1.5-.672,1.5-1.5,1.5Zm-5.5,2c0,1.103-.897,2-2,2s-2-.897-2-2,.897-2,2-2,2,.897,2,2Z"/>
</svg>
