<?xml version="1.0" encoding="UTF-8"?>
<svg xmlns="http://www.w3.org/2000/svg" id="Layer_1" data-name="Layer 1" viewBox="0 0 24 24">
  <path d="m21.5,23.941c-.213,0-.426-.081-.589-.244l-.69-.69c-.787-.787-1.221-1.833-1.221-2.947V2.5c0-1.379,1.121-2.5,2.5-2.5s2.5,1.121,2.5,2.5v17.559c0,1.113-.434,2.16-1.221,2.947l-.69.69c-.163.163-.376.244-.589.244ZM13,2h-.671c-.413-1.164-1.525-2-2.829-2h-2c-1.304,0-2.416.836-2.829,2h-.671C1.794,2,0,3.794,0,6v13c0,2.757,2.243,5,5,5h7c2.757,0,5-2.243,5-5V6c0-2.206-1.794-4-4-4Zm-3.273,12.207l-2.179,2.179c-.409.409-.946.613-1.483.613s-1.074-.204-1.483-.613l-1.288-1.289c-.391-.391-.391-1.024,0-1.414.391-.391,1.023-.391,1.414,0l1.288,1.289c.033.033.105.033.139,0l2.179-2.179c.391-.391,1.023-.391,1.414,0s.391,1.023,0,1.414Zm0-6l-2.179,2.179c-.409.409-.946.613-1.483.613s-1.074-.204-1.483-.613l-1.288-1.289c-.391-.391-.391-1.024,0-1.414.391-.391,1.023-.391,1.414,0l1.288,1.289c.033.033.105.033.139,0l2.179-2.179c.391-.391,1.023-.391,1.414,0s.391,1.023,0,1.414Z"/>
</svg>
