<?xml version="1.0" encoding="UTF-8"?>
<svg xmlns="http://www.w3.org/2000/svg" id="Layer_1" data-name="Layer 1" viewBox="0 0 24 24">
  <path d="m24.002,5.512c.001-.978-.579-1.823-1.479-2.153L14.621.459c-1.657-.607-3.48-.611-5.136-.007L1.486,3.362C.584,3.691.001,4.536.002,5.514c0,.979.584,1.823,1.486,2.15l7.954,2.886c.823.299,1.688.448,2.552.448s1.728-.149,2.55-.448l7.456-2.705v4.154c0,.552.448,1,1,1s1-.448,1-1c0,0,.002-6.483.002-6.488ZM2.203,16.041c2.087.523,6.052,1.652,8.797,1.904v4.11c-2.745.252-6.711,1.382-8.797,1.904-1.121.281-2.203-.571-2.203-1.727v-4.464c0-1.156,1.082-2.008,2.203-1.727Zm21.797,1.727v4.464c0,1.156-1.082,2.008-2.203,1.727-2.087-.523-6.052-1.652-8.797-1.904v-4.11c2.745-.252,6.711-1.382,8.797-1.904,1.121-.281,2.203.571,2.203,1.727Zm-19-3.071v-3.631l3.759,1.364c2.074.753,4.389.754,6.467,0l3.773-1.369v3.635c-1.954.501-4.5,1.332-7,1.332s-5.046-.831-7-1.332Z"/>
</svg>
