<?xml version="1.0" encoding="UTF-8"?>
<svg xmlns="http://www.w3.org/2000/svg" id="Layer_1" data-name="Layer 1" viewBox="0 0 24 24">
  <path d="m20,19v2.5c0,1.381-1.119,2.5-2.5,2.5h-8c-1.381,0-2.5-1.119-2.5-2.5v-7c0-1.381,1.119-2.5,2.5-2.5h5c1.381,0,2.5,1.119,2.5,2.5v7c0,.275.224.5.5.5s.5-.225.5-.5v-2.5c0-.553.448-1,1-1s1,.447,1,1ZM7,11c.215,0,.431-.068.613-.211.436-.339.515-.967.176-1.403l-2.252-2.8c.289-.461.462-1.001.462-1.585,0-1.657-1.343-3-3-3S0,3.343,0,5s1.343,3,3,3c.341,0,.663-.069.968-.174l2.242,2.788c.197.253.492.386.79.386Zm4-5.184v3.184c0,.553.448,1,1,1s1-.447,1-1v-3.184c1.163-.413,2-1.512,2-2.816,0-1.657-1.343-3-3-3s-3,1.343-3,3c0,1.304.837,2.403,2,2.816Zm10-3.816c-1.657,0-3,1.343-3,3,0,.536.152,1.032.399,1.468l-2.188,2.918c-.339.437-.26,1.064.176,1.403.182.143.398.211.613.211.298,0,.593-.133.79-.386l2.12-2.826c.339.133.705.212,1.091.212,1.657,0,3-1.343,3-3s-1.343-3-3-3Z"/>
</svg>
