<?xml version="1.0" encoding="UTF-8"?>
<svg xmlns="http://www.w3.org/2000/svg" id="Layer_1" data-name="Layer 1" viewBox="0 0 24 24">
  <circle cx="14.5" cy="2.5" r="2.5"/>
  <circle cx="3.5" cy="7.5" r="2.5"/>
  <path d="m22.481,13.646l-3.481,2.113v-.759c0-1.105-.895-2-2-2h-1v-5h4c.552,0,1-.448,1-1v-2.49l2.588-1.267c.549-.343.549-1.143,0-1.487l-2.627-1.573c-.201-.12-.431-.184-.666-.184-.716,0-1.296.58-1.296,1.296v4.704h-5c-.861,0-1.633.37-2.181.953-.005.004-3.013,2.916-3.013,2.916-.14.136-.313.227-.503.264,0,0-5.348,1.054-5.405,1.076-1.153.455-1.898,1.551-1.898,2.791v7.197l-.832,1.248c-.306.46-.182,1.08.277,1.387.17.113.363.168.554.168.323,0,.64-.156.833-.445l1-1.5c.109-.164.168-.357.168-.555v-1.5h4v3c0,.552.448,1,1,1h.72c.366,0,.725-.1,1.038-.29l13.761-8.355c.472-.286.623-.901.336-1.373-.287-.473-.901-.622-1.374-.336Zm-13.481,8.185v-1.83c0-1.103-.897-2-2-2h-1v-5.378l2.687-.526c.57-.111,1.093-.385,1.512-.791l.801-.777v10.088l-2,1.214Zm8-4.857l-4,2.429v-4.402h4v1.973Z"/>
</svg>
