<?xml version="1.0" encoding="UTF-8"?>
<svg xmlns="http://www.w3.org/2000/svg" id="Layer_1" data-name="Layer 1" viewBox="0 0 24 24">
  <path d="m24,8.141v10.859c0,2.757-2.243,5-5,5h-6.999c.523,0,1.026-.222,1.378-.61l1.707-1.884c.745-.721,1.068-1.797.841-2.812l-1.689-7.519,7.331-7.331.204.136c1.394.929,2.227,2.484,2.227,4.16Zm-13.977.468l.848-2.826L5.925.816c-.293.19-.569.406-.817.655l-1.109,1.114,6.025,6.025Zm3.952,10.523l-1.976-8.795-1.947,8.672c-.114.405-.017.781.24,1.038l1.708,1.886,1.649-1.817c.294-.287.401-.646.326-.983ZM18.872,1.458c-.235-.235-.492-.443-.767-.625l-4.975,4.954.847,2.823,6.023-6.023-1.128-1.128Zm-10.028,19.966c-.735-.734-1.028-1.863-.729-2.91l1.647-7.338L2.43,3.845l-.204.136c-1.394.929-2.227,2.484-2.227,4.16v10.859c0,2.757,2.243,5,5,5h7c-.524,0-1.026-.223-1.378-.612l-1.777-1.964Zm3.159-17.338L16.042.064c-.233-.034-.467-.071-.704-.071h-.005L8.646-.001c-.218,0-.433.037-.648.066l4.005,4.022Z"/>
</svg>
