<?xml version="1.0" encoding="UTF-8"?>
<svg xmlns="http://www.w3.org/2000/svg" id="Layer_1" data-name="Layer 1" viewBox="0 0 24 24">
  <path d="m18,12c-3.314,0-6,2.686-6,6s2.686,6,6,6,6-2.686,6-6-2.686-6-6-6Zm2.707,7.293c.391.391.391,1.023,0,1.414-.195.195-.451.293-.707.293s-.512-.098-.707-.293l-1.293-1.293-1.293,1.293c-.195.195-.451.293-.707.293s-.512-.098-.707-.293c-.391-.391-.391-1.023,0-1.414l1.293-1.293-1.293-1.293c-.391-.391-.391-1.023,0-1.414s1.023-.391,1.414,0l1.293,1.293,1.293-1.293c.391-.391,1.023-.391,1.414,0s.391,1.023,0,1.414l-1.293,1.293,1.293,1.293ZM12,7V.46c.913.346,1.753.879,2.465,1.59l3.484,3.486c.712.711,1.245,1.551,1.591,2.464h-6.54c-.552,0-1-.449-1-1Zm.721,17h-7.721c-2.757,0-5-2.243-5-5V5C0,2.243,2.243,0,5,0h4.515c.163,0,.324.013.485.024v6.976c0,1.654,1.346,3,3,3h5c-4.418,0-8,3.582-8,8,0,2.393,1.056,4.534,2.721,6Z"/>
</svg>
