<?xml version="1.0" encoding="UTF-8"?>
<svg xmlns="http://www.w3.org/2000/svg" id="Layer_1" data-name="Layer 1" viewBox="0 0 24 24">
  <path d="m20.932,15.264c-.245-.899-.878-1.616-1.738-1.965-1.454-.591-3.326-.944-4.593-1.124-.323-.046-.562-.322-.562-.648,0-.19.083-.37.227-.495,1.622-1.413,2.735-4.086,2.735-6.032,0-2.761-2.239-5-5-5s-5,2.239-5,5c0,1.98,1.151,4.718,2.82,6.11.138.115.218.285.217.465-.002.299-.221.551-.517.594-1.239.176-3.17.534-4.637,1.131-.626.254-1.127.706-1.45,1.278,2.302,1.309,5.371,2.135,6.796,2.312.559.054,1.316.111,1.771.111s1.212-.057,1.771-.111c.576-.072,1.645-.29,2.935-.688.525-.164,1.088.133,1.25.661.163.527-.132,1.087-.66,1.25-1.211.374-2.442.659-3.295.764-.04.005-1.358.124-2,.124s-1.586-.084-1.962-.12c-1.333-.162-4.359-.896-6.936-2.202.092.445.282.87.569,1.246.844,1.101,1.856,2.5,2.732,4.077h-.403c-.553,0-1,.448-1,1s.447,1,1,1h12c.553,0,1-.448,1-1s-.447-1-1-1h-.326c.876-1.577,1.888-2.975,2.732-4.077.586-.765.777-1.735.526-2.66Z"/>
</svg>
