<?xml version="1.0" encoding="UTF-8"?>
<svg xmlns="http://www.w3.org/2000/svg" id="Layer_1" data-name="Layer 1" viewBox="0 0 24 24">
  <path d="m12,2.5c0-.374.046-.737.132-1.084l-.903-.653h0c-1.722-1.219-4.039-1.164-5.701.136L1.919,3.724c-1.211.948-1.919,2.4-1.919,3.938v5.338c0,2.209,1.791,4,4,4h6.712c.104-.173.218-.339.342-.499-.206,0-.414-.022-.62-.066-.902-.19-1.657-.772-2.076-1.615-.686-1.382-.117-3.069,1.175-3.911l2.004-1.306.573-2.047c.229-.736.629-1.394,1.146-1.938-.778-.809-1.258-1.908-1.258-3.117Zm-6,9.5c0,.552-.448,1-1,1h-1c-.552,0-1-.448-1-1v-1c0-.552.448-1,1-1h1c.552,0,1,.448,1,1v1ZM14,2.5c0-1.381,1.119-2.5,2.5-2.5s2.5,1.119,2.5,2.5-1.119,2.5-2.5,2.5-2.5-1.119-2.5-2.5Zm7.425,20.121c.21.511-.034,1.095-.545,1.305-.125.051-.253.075-.38.075-.394,0-.767-.234-.925-.621l-1.641-4c-.21-.511.034-1.095.545-1.305.513-.209,1.096.035,1.305.546l1.641,4Zm1.268-13.542l-3.24-2.214c-.301-.274-1.104-.848-2.548-.848-1.244,0-2.5.9-2.867,2.078l-.675,2.411c-.065.233-.214.435-.417.568l-2.437,1.589c-.462.302-.593.921-.292,1.384.301.462.921.594,1.384.292l2.438-1.589c.4-.261.728-.612.962-1.019v4.25l-1.654,1.094c-.843.557-1.346,1.493-1.346,2.502v3.425c0,.552.448,1,1,1s1-.448,1-1v-3.425c0-.336.168-.648.449-.834l4.271-2.824c.802-.561,1.28-1.48,1.28-2.458v-3.797l1.564,1.069c.272.186.436.495.436.825v2.444c0,.552.447,1,1,1s1-.448,1-1v-2.444c0-.992-.489-1.918-1.308-2.477Z"/>
</svg>
