<?xml version="1.0" encoding="UTF-8"?>
<svg xmlns="http://www.w3.org/2000/svg" id="Layer_1" data-name="Layer 1" viewBox="0 0 24 24">
  <path d="M17.556,5.685c-.459-.307-1.081-.185-1.387,.275-.307,.459-.184,1.08,.275,1.387,1.253,.839,2.208,2,2.816,3.326l-5.604,1.158c-1.131,.226-2.297,.226-3.428,0l-5.504-1.124c.607-1.34,1.568-2.514,2.832-3.36,.459-.307,.582-.928,.275-1.387s-.928-.583-1.387-.275c-2.783,1.863-4.444,4.971-4.444,8.315,0,5.514,4.486,10,10,10s10-4.486,10-10c0-3.344-1.661-6.453-4.444-8.315ZM4.035,14.684l2.824,.583c.954,.191,1.773,.796,2.236,1.651l.511,.943c.259,.479,.395,1.014,.395,1.558v2.317c-3.231-.836-5.674-3.638-5.965-7.052Zm9.965,7.052v-2.317c0-.544,.136-1.08,.395-1.558l.511-.943c.463-.855,1.282-1.46,2.236-1.651l2.824-.593c-.287,3.419-2.732,6.226-5.966,7.063ZM8.312,4.387c-.401-.38-.418-1.013-.038-1.414L10.444,.683c.765-.854,2.331-.873,3.131,.021l2.138,2.17c.387,.394,.382,1.027-.011,1.415-.393,.387-1.027,.383-1.415-.011l-1.274-1.268-.013,4.994c-.001,.551-.449,.997-1,.997h-.003c-.552-.001-.999-.45-.997-1.003l.014-5.007-1.287,1.359c-.381,.401-1.014,.417-1.414,.038Z"/>
</svg>
