<?xml version="1.0" encoding="UTF-8"?>
<svg xmlns="http://www.w3.org/2000/svg" id="Layer_1" data-name="Layer 1" viewBox="0 0 24 24">
  <path d="M19.84,0c-3.813,0-11.867,0-15.681,0C2.176,0,.375,1.375,.055,3.333c-.287,1.75,.579,3.314,1.945,4.111v-3.444c0-1.103,.897-2,2-2V20c0,2.209,1.791,4,4,4h0V2h2V24h6c2.209,0,4-1.791,4-4V2c1.103,0,2,.897,2,2v3.444c1.366-.797,2.232-2.361,1.945-4.111C23.625,1.375,21.824,0,19.84,0Zm-4.34,20c-.828,0-1.5-.672-1.5-1.5s.672-1.5,1.5-1.5,1.5,.672,1.5,1.5-.672,1.5-1.5,1.5Z"/>
</svg>
