<?xml version="1.0" encoding="UTF-8"?>
<svg xmlns="http://www.w3.org/2000/svg" id="Layer_1" data-name="Layer 1" viewBox="0 0 24 24">
  <path d="M12.169,24.005c-1.157,.02-2.199-.977-2.169-2.152v-7.632l-4.427,3.098c-.452,.317-1.076,.206-1.393-.246-.316-.453-.207-1.076,.246-1.393l5.262-3.681-5.262-3.68c-.453-.316-.562-.94-.246-1.393,.316-.452,.94-.562,1.393-.246l4.427,3.097V2.147c0-.845,.476-1.59,1.242-1.946,.766-.355,1.643-.237,2.288,.308l5.635,3.908c.565,.472,.842,1.078,.835,1.719-.007,.642-.297,1.241-.796,1.645l-6.028,4.218,5.973,4.179c.555,.445,.845,1.044,.852,1.687,.007,.641-.27,1.247-.759,1.661l-5.786,4.023c-.346,.296-.806,.457-1.285,.457Zm-.169-10.389v8.237c0,.025,0,.092,.084,.131,.083,.04,.136-.004,.154-.021l5.785-4.022c-.037,.026-.022-.009-.023-.055s-.019-.083-.054-.111l-5.946-4.159Zm.144-11.615c-.019,0-.038,.005-.06,.015-.084,.039-.084,.106-.084,.131V10.382l6.001-4.199c-.021,.012-.002-.024-.001-.07s-.017-.083-.051-.112l-5.635-3.908c-.07-.055-.117-.093-.17-.093Z"/>
</svg>
