<?xml version="1.0" encoding="UTF-8"?>
<svg xmlns="http://www.w3.org/2000/svg" id="Layer_1" data-name="Layer 1" viewBox="0 0 24 24">
  <path d="m19,2C19,.895,19.895,0,21,0s2,.895,2,2-.895,2-2,2-2-.895-2-2ZM3,4c1.105,0,2-.895,2-2S4.105,0,3,0,1,.895,1,2s.895,2,2,2Zm20.341,4c.454,0,.76-.444.628-.878-.376-1.228-1.518-2.122-2.869-2.122h-1.169c.041.328.069.661.069,1,0,.692-.097,1.36-.262,2h3.603ZM4.069,5h-1.154C1.533,5,.368,5.935.021,7.208c-.11.403.229.792.647.792h3.594c-.165-.64-.262-1.308-.262-2,0-.339.028-.672.069-1Zm18.931,18.407v.593H6.538l-1.821-1.628c-.917-.858-.96-2.307-.098-3.23.861-.922,2.313-.97,3.235-.109.034.032,1.069.898,2.145,1.784v-9.817c0-1.215,1.083-2.176,2.336-1.973.983.16,1.664,1.083,1.664,2.08v5.355l5.829,2.292c1.913.752,3.171,2.598,3.171,4.653ZM12,0c-3.309,0-6,2.691-6,6,0,1.796.8,3.401,2.054,4.501.124-.984.588-1.897,1.355-2.548.896-.761,2.078-1.088,3.248-.899,1.709.278,3.033,1.711,3.289,3.447,1.254-1.1,2.054-2.705,2.054-4.5,0-3.309-2.691-6-6-6Zm0,6c-1.105,0-2-.895-2-2s.895-2,2-2,2,.895,2,2-.895,2-2,2Z"/>
</svg>
