<?xml version="1.0" encoding="UTF-8"?>
<svg xmlns="http://www.w3.org/2000/svg" id="Layer_1" data-name="Layer 1" viewBox="0 0 24 24">
  <path d="m13,10.537L1.564,21.401c-.572-.705-1.008-1.522-1.272-2.414l10.708-9.797v-.191c0-.552-.449-1-1-1h-.654L0,16.543v-3.539l5.5-5.004h-2.997L0,10.293v-1.293C0,7.343,1.343,6,3,6h7c1.657,0,3,1.343,3,3v1.537Zm8.372,5.781c-.143-.036-1.09-.234-1.372-.296v5.978h1.122c1.575,0,2.866-1.277,2.878-2.848.009-1.36-.973-2.42-2.628-2.834ZM11,0H2v4h9V0ZM3.035,22.762c1.128.779,2.494,1.238,3.965,1.238h1.386l-3.365-3.125-1.986,1.887Zm3.439-3.267l4.851,4.505h3.675c.066,0,.128-.015.193-.019l-6.797-6.311-1.922,1.826Zm9.114-6.797l-1.619-.324-.801.761,2.832,2.596v2.702l-4.285-3.917-1.866,1.773,7.279,6.825c.539-.542.872-1.288.872-2.113v-5.361c0-1.43-1.009-2.661-2.412-2.942Z"/>
</svg>
