<?xml version="1.0" encoding="UTF-8"?>
<svg xmlns="http://www.w3.org/2000/svg" id="Layer_1" data-name="Layer 1" viewBox="0 0 24 24">
  <path d="M24,12c0,6.617-5.383,12-12,12-.767,0-1.538-.073-2.29-.218-.542-.104-.897-.629-.793-1.171,.104-.542,.626-.894,1.171-.794,.628,.121,1.271,.183,1.912,.183,5.514,0,10-4.486,10-10S17.514,2,12,2c-.682,0-1.363,.068-2.023,.204-.543,.108-1.07-.238-1.181-.778-.111-.541,.237-1.069,.778-1.181,.792-.163,1.609-.245,2.426-.245,6.617,0,12,5.383,12,12Zm-13,5c0,.553,.448,1,1,1s1-.447,1-1V8.91l2.292,2.296c.196,.196,.452,.294,.708,.294s.511-.098,.707-.292c.391-.391,.392-1.023,.001-1.414l-3.137-3.143c-.84-.84-2.303-.841-3.143,0l-3.136,3.142c-.39,.391-.389,1.023,.001,1.414,.391,.389,1.024,.39,1.415-.002l2.292-2.296v8.09ZM5.099,2.182c-.669,.471-1.294,1.015-1.859,1.617-.378,.402-.357,1.035,.045,1.413,.193,.181,.438,.271,.684,.271,.267,0,.533-.106,.729-.316,.472-.502,.993-.956,1.551-1.348,.452-.318,.561-.941,.243-1.394-.317-.451-.941-.562-1.393-.243ZM2.139,7.02c-.516-.204-1.095,.048-1.298,.561-.285,.719-.5,1.469-.641,2.229-.1,.543,.259,1.064,.802,1.165,.061,.012,.122,.017,.182,.017,.473,0,.894-.337,.982-.818,.117-.634,.296-1.258,.533-1.854,.204-.514-.047-1.095-.561-1.299Zm2.56,11.814c-.379-.403-1.011-.423-1.414-.046-.403,.378-.423,1.011-.045,1.413,.565,.603,1.19,1.146,1.859,1.617,.175,.123,.375,.182,.574,.182,.314,0,.625-.148,.819-.425,.318-.452,.209-1.075-.243-1.394-.558-.392-1.079-.846-1.551-1.348Zm-2.532-5.007c-.101-.543-.624-.909-1.165-.802-.543,.101-.902,.622-.802,1.165,.14,.761,.356,1.511,.641,2.229,.156,.392,.532,.631,.93,.631,.123,0,.247-.022,.368-.07,.514-.204,.765-.785,.561-1.299-.237-.597-.417-1.221-.533-1.854Z"/>
</svg>
