<?xml version="1.0" encoding="UTF-8"?>
<svg xmlns="http://www.w3.org/2000/svg" id="Layer_1" data-name="Layer 1" viewBox="0 0 24 24">
  <path d="m22.014,5.156l-7.419-3.558c-1.65-.79-3.541-.79-5.189,0L1.986,5.156c-1.207.579-1.986,1.818-1.986,3.156v1.162c0,1.338.779,2.577,1.986,3.156l7.412,3.554c.515.247,1.054.407,1.602.5v-4.041l-7.997-3.839c-.498-.239-.708-.836-.469-1.334.238-.498.833-.708,1.334-.469l8.131,3.904,8.106-3.904c.5-.24,1.095-.028,1.334.469.239.498.029,1.096-.469,1.334l-7.971,3.839v4.038c.547-.094,1.087-.256,1.602-.505l7.42-3.583c1.202-.581,1.979-1.817,1.979-3.152v-1.13c0-1.338-.779-2.577-1.986-3.156Z"/>
  <path d="m11,23.173c-.547-.093-1.087-.253-1.602-.501l-8.263-3.962c-.694-.333-1.135-1.034-1.135-1.803v-1.313c0-.344.177-.663.467-.846.291-.183.655-.204.966-.056l8.831,4.234c.238.114.486.192.736.257v3.989Zm12.531-8.463c-.291-.184-.656-.204-.966-.053l-8.833,4.266c-.237.114-.484.192-.732.257v3.99c.547-.094,1.087-.256,1.602-.505l8.268-3.992c.691-.334,1.13-1.034,1.13-1.801v-1.315c0-.344-.177-.664-.469-.847Z"/>
</svg>
