<?xml version="1.0" encoding="UTF-8"?>
<svg xmlns="http://www.w3.org/2000/svg" id="Layer_1" data-name="Layer 1" viewBox="0 0 24 24">
  <path d="m21.5,21.019h-1.5c-1.381,0-2.5-1.119-2.5-2.5v-5c0-1.381,1.119-2.5,2.5-2.5h1.5c1.381,0,2.5,1.119,2.5,2.5v5c0,1.381-1.119,2.5-2.5,2.5ZM4,9.019h-1.5c-1.381,0-2.5,1.119-2.5,2.5v7c0,1.381,1.119,2.5,2.5,2.5h1.5c1.381,0,2.5-1.119,2.5-2.5v-7c0-1.381-1.119-2.5-2.5-2.5ZM13,3.019h-2c-1.381,0-2.5,1.119-2.5,2.5v13c0,1.381,1.119,2.5,2.5,2.5h2c1.381,0,2.5-1.119,2.5-2.5V5.519c0-1.381-1.119-2.5-2.5-2.5Z"/>
</svg>
