<?xml version="1.0" encoding="UTF-8"?>
<svg xmlns="http://www.w3.org/2000/svg" id="Layer_1" data-name="Layer 1" viewBox="0 0 24 24">
  <path d="m15.5,23c0,.552-.448,1-1,1h-5c-.552,0-1-.448-1-1,0-1.5,1.737-3,3.5-3s3.5,1.5,3.5,3Zm-12.269-4c1.381,0,2.5-1.119,2.5-2.5s-1.119-2.5-2.5-2.5-2.5,1.119-2.5,2.5,1.119,2.5,2.5,2.5Zm8.769,0c1.381,0,2.5-1.119,2.5-2.5s-1.119-2.5-2.5-2.5-2.5,1.119-2.5,2.5,1.119,2.5,2.5,2.5ZM19,0H5C2.239,0,0,2.239,0,5v8.381c.819-.848,1.962-1.381,3.231-1.381,2.143,0,3.934,1.508,4.385,3.517.451-2.009,2.242-3.517,4.385-3.517s3.934,1.508,4.385,3.517c.451-2.009,2.242-3.517,4.385-3.517,1.269,0,2.412.533,3.231,1.381V5c0-2.761-2.239-5-5-5Zm1.769,19c1.381,0,2.5-1.119,2.5-2.5s-1.119-2.5-2.5-2.5-2.5,1.119-2.5,2.5,1.119,2.5,2.5,2.5Zm-.019,1c-1.667,0-3.183,1.539-3.25,3,0,.552.448,1,1,1h4.5c.552,0,1-.448,1-1-.079-1.458-1.585-3-3.25-3Zm-17.5,0c-1.667,0-3.183,1.539-3.25,3,0,.552.448,1,1,1h4.5c.552,0,1-.448,1-1-.079-1.458-1.585-3-3.25-3Z"/>
</svg>
