<?xml version="1.0" encoding="UTF-8"?>
<svg xmlns="http://www.w3.org/2000/svg" id="Layer_1" data-name="Layer 1" viewBox="0 0 24 24">
  <path d="M12,12c-3.314,0-6,2.686-6,6s2.686,6,6,6,6-2.686,6-6-2.686-6-6-6Zm2.707,7.293c.391,.391,.391,1.023,0,1.414-.195,.195-.451,.293-.707,.293s-.512-.098-.707-.293l-1.293-1.293-1.293,1.293c-.195,.195-.451,.293-.707,.293s-.512-.098-.707-.293c-.391-.391-.391-1.023,0-1.414l1.293-1.293-1.293-1.293c-.391-.391-.391-1.023,0-1.414s1.023-.391,1.414,0l1.293,1.293,1.293-1.293c.391-.391,1.023-.391,1.414,0s.391,1.023,0,1.414l-1.293,1.293,1.293,1.293ZM3,12c0-.552,.448-1,1-1h4.153c.865-.477,1.823-.803,2.847-.931V3.5c0-1.933-1.567-3.5-3.5-3.5H3.5C1.567,0,0,1.567,0,3.5V12.5c0,1.933,1.567,3.5,3.5,3.5h.762c.287-1.112,.801-2.131,1.498-3h-1.76c-.552,0-1-.448-1-1Zm0-8c0-.552,.448-1,1-1h3c.552,0,1,.448,1,1s-.448,1-1,1H4c-.552,0-1-.448-1-1h0Zm1,3h3c.552,0,1,.448,1,1s-.448,1-1,1h-3c-.552,0-1-.448-1-1s.448-1,1-1ZM20.5,0h-4c-1.933,0-3.5,1.567-3.5,3.5v6.569c1.023,.128,1.981,.454,2.847,.931h4.153c.552,0,1,.448,1,1h0c0,.552-.448,1-1,1h-1.76c.698,.869,1.212,1.888,1.498,3h.762c1.933,0,3.5-1.567,3.5-3.5V3.5c0-1.933-1.567-3.5-3.5-3.5Zm-.5,9h-3c-.552,0-1-.448-1-1h0c0-.552,.448-1,1-1h3c.552,0,1,.448,1,1h0c0,.552-.448,1-1,1Zm0-4h-3c-.552,0-1-.448-1-1h0c0-.552,.448-1,1-1h3c.552,0,1,.448,1,1h0c0,.552-.448,1-1,1Z"/>
</svg>
