<?xml version="1.0" encoding="UTF-8"?>
<svg xmlns="http://www.w3.org/2000/svg" id="Layer_1" data-name="Layer 1" viewBox="0 0 24 24">
  <path d="M24,4.338v12.177c0,1.274-1.527,1.954-2.503,1.116l-2.278-2.04-2.612,5.294c-.569,1.106-2.004,1.479-3.055,.709-.824-.604-1.018-1.763-.556-2.675l2.426-4.956-3.118-.438c-1.236-.169-1.741-1.654-.857-2.519L20.071,2.572c1.539-1.306,3.929-.232,3.929,1.766ZM0,20.5c0,.828,.672,1.5,1.5,1.5s1.5-.672,1.5-1.5-.672-1.5-1.5-1.5-1.5,.672-1.5,1.5Zm4,0c0,.828,.672,1.5,1.5,1.5s1.5-.672,1.5-1.5-.672-1.5-1.5-1.5-1.5,.672-1.5,1.5Zm4,0c0,.828,.672,1.5,1.5,1.5s1.5-.672,1.5-1.5-.672-1.5-1.5-1.5-1.5,.672-1.5,1.5Z"/>
</svg>
