<?xml version="1.0" encoding="UTF-8"?>
<svg xmlns="http://www.w3.org/2000/svg" id="Layer_1" data-name="Layer 1" viewBox="0 0 24 24">
  <path d="m19.97,1.53c0,.828-.672,1.5-1.5,1.5s-1.5-.672-1.5-1.5S17.641.03,18.47.03s1.5.672,1.5,1.5Zm2.5,2.5c-.828,0-1.5.672-1.5,1.5s.672,1.5,1.5,1.5,1.5-.672,1.5-1.5-.672-1.5-1.5-1.5Zm1.207-3.707c-.391-.391-1.023-.391-1.414,0l-6.735,6.735c.27.19.53.402.771.643,0,0,0,0,0,0l.002.002s0,0,0,0c.241.241.453.501.643.771l6.735-6.735c.391-.391.391-1.023,0-1.414Zm-12.97,14.384l6.235-6.235c1.406,2.001,1.409,4.702-.039,6.731l-.012.018c-.313.459-.84.734-1.395.702-.747-.042-1.882.201-2.795,1.724-.82,1.366-.72,2.441-.461,3.134.252.675.018,1.44-.569,1.857-2.597,1.843-6.145,1.812-8.735-.159l1.772-1.772c.391-.391.391-1.023,0-1.414s-1.023-.391-1.414,0l-1.772,1.772c-1.971-2.59-2.002-6.14-.158-8.737.417-.587,1.18-.82,1.855-.57.692.257,1.765.354,3.13-.465,1.523-.914,1.768-2.046,1.727-2.792-.03-.554.244-1.08.703-1.392l.019-.013c2.029-1.448,4.73-1.445,6.731-.039l-6.235,6.235c-.391.391-.391,1.023,0,1.414.195.195.451.293.707.293s.512-.098.707-.293Zm-2.293,2.879l-2-2c-.391-.391-1.023-.391-1.414,0s-.391,1.023,0,1.414l2,2c.195.195.451.293.707.293s.512-.098.707-.293c.391-.391.391-1.023,0-1.414Zm7.884-9.886s0,0,0,0,0,0,0,0l-.002-.002Z"/>
</svg>
