<?xml version="1.0" encoding="UTF-8"?>
<svg xmlns="http://www.w3.org/2000/svg" id="Layer_1" data-name="Layer 1" viewBox="0 0 24 24">
  <path d="M21,22h-.492c.901-2.26,2.492-6.838,2.492-11C23,4.935,18.065,0,12,0S1,4.935,1,11c0,4.162,1.591,8.74,2.492,11h-.492c-.552,0-1,.448-1,1s.448,1,1,1H7.469c.99,0,1.719-.923,1.488-1.885-.686-2.859-1.957-8.26-1.957-11.115,0-2.761,2.239-5,5-5s5,2.239,5,5c0,2.854-1.271,8.255-1.957,11.115-.231,.963,.498,1.885,1.488,1.885h4.469c.552,0,1-.448,1-1s-.448-1-1-1ZM5.736,7.886c-.35,.7-.588,1.466-.685,2.274-.059,.484-.48,.84-.967,.84h-.025c-.599,0-1.062-.524-.989-1.114,.127-1.023,.427-1.993,.87-2.881,.269-.54,.967-.706,1.458-.355l.026,.018c.387,.276,.527,.792,.314,1.217ZM11,3.271c0,.443-.285,.842-.709,.949-.839,.211-1.618,.572-2.307,1.055-.333,.234-.784,.207-1.115-.03-.549-.392-.572-1.225-.02-1.613,.876-.615,1.866-1.079,2.931-1.351,.618-.158,1.219,.327,1.219,.965v.024Zm6.131,1.974c-.331,.236-.782,.263-1.115,.03-.688-.483-1.468-.845-2.307-1.055-.424-.106-.709-.506-.709-.949v-.024c0-.638,.601-1.123,1.219-.965,1.066,.272,2.055,.735,2.931,1.351,.553,.388,.53,1.221-.02,1.613Zm2.786,5.755c-.487,0-.909-.356-.967-.84-.098-.808-.335-1.574-.685-2.274-.213-.425-.073-.94,.314-1.217l.026-.018c.491-.351,1.189-.186,1.458,.355,.442,.888,.742,1.858,.87,2.881,.073,.589-.39,1.114-.989,1.114h-.025Z"/>
</svg>
