<?xml version="1.0" encoding="UTF-8"?>
<svg xmlns="http://www.w3.org/2000/svg" id="Layer_1" data-name="Layer 1" viewBox="0 0 24 24">
  <path d="m12.138,6.118l1.168,4.89h-2.571l1.129-4.899c.011-.046.025-.108.136-.108s.125.062.138.118Zm11.862-2.118v12c0,2.206-1.794,4-4,4h-2.853l-3.847,3.18c-.361.322-.824.484-1.292.484-.476,0-.955-.168-1.337-.508l-3.749-3.156h-2.923c-2.206,0-4-1.794-4-4V4C0,1.794,1.794,0,4,0h16c2.206,0,4,1.794,4,4Zm-7.739,10.768l-2.176-9.104c-.227-.995-1.064-1.663-2.085-1.663s-1.858.668-2.085,1.661l-2.102,9.114c-.124.538.212,1.075.75,1.199.538.126,1.075-.212,1.199-.75l.511-2.217h3.51l.532,2.225c.109.459.52.768.972.768.077,0,.155-.009.233-.027.537-.128.868-.668.74-1.205Z"/>
</svg>
