<?xml version="1.0" encoding="UTF-8"?>
<svg xmlns="http://www.w3.org/2000/svg" id="Layer_1" data-name="Layer 1" viewBox="0 0 24 24">
  <path d="m23.677,5.131c-.936-.732-1.709-1.069-1.709-1.069,0,0,1.062-1.049,1.355-2.353.139-.62-.414-1.173-1.034-1.033-1.305.294-2.354,1.354-2.354,1.354,0,0-.341-.77-1.073-1.706-.346-.442-1.028-.431-1.343.034-.257.38-.633,1.672-.633,1.672-.277-.227-.888-1.019-1.513-1.43-.483-.317-1.148-.05-1.264.516-.333,1.629-.503,3.694-.585,5.07-4.152-2.593-7.393-.402-10.066,2.272-3.164,3.164-5.679,7.116-.355,12.439,2.24,2.24,4.237,3.092,6.035,3.092,2.475,0,4.572-1.615,6.405-3.447,2.675-2.675,4.868-5.917,2.268-10.073,1.376-.082,3.444-.252,5.075-.586.566-.116.833-.781.516-1.264-.411-.626-1.206-1.233-1.433-1.509,0,0,1.295-.38,1.675-.637.465-.314.476-.997.034-1.343Zm-14.986,12.866h-1.691c-.552,0-1-.448-1-1v-1.69c0-.299.361-.448.572-.237l2.355,2.355c.211.211.062.572-.237.572Zm0-5h-1.691c-.552,0-1-.448-1-1v-1.69c0-.299.361-.448.572-.237l2.355,2.355c.211.211.062.572-.237.572Zm5,5h-1.691c-.552,0-1-.448-1-1v-1.69c0-.299.361-.448.572-.237l2.355,2.355c.211.211.062.572-.237.572Zm0-5h-1.691c-.552,0-1-.448-1-1v-1.69c0-.299.361-.448.572-.237l2.355,2.355c.211.211.062.572-.237.572Z"/>
</svg>
