<?xml version="1.0" encoding="UTF-8"?>
<svg xmlns="http://www.w3.org/2000/svg" id="Layer_1" data-name="Layer 1" viewBox="0 0 24 24">
  <path d="m23.309,15.776L15.355,2.883c-.78-1.266-2.039-1.939-3.527-1.88-1.334.053-2.536.819-3.236,1.955l-3.407,5.524,2.777,1.834.402-.99c.233-.651.736-1.172,1.377-1.43.642-.258,1.364-.229,1.984.079l.464.232c.875.435,1.541,1.182,1.875,2.101l.091.361c.198.786-.673,1.404-1.35.959h0c-.17-.112-.297-.279-.358-.473l-.059-.187c-.195-.535-.582-.968-1.089-1.22l-.198-.095c-.217-.107-.466-.116-.684-.026-.222.092-.389.265-.469.49l-.478,1.229,6.735,4.647,1.034-1.462c.321-.453,1.009-.401,1.257.096l2.155,4.309c.244.488-.111,1.063-.657,1.063h-5.173c-.593,0-.941-.666-.604-1.153l.798-1.152-10.935-7.417L.685,15.776c-.753,1.221-.904,2.764-.255,4.043.691,1.362,2.025,2.181,3.532,2.181h16.07c1.508,0,2.842-.819,3.533-2.181.649-1.279.497-2.822-.256-4.042ZM12,7c-.828,0-1.5-.672-1.5-1.5s.672-1.5,1.5-1.5,1.5.672,1.5,1.5-.672,1.5-1.5,1.5Zm-6.074,13h-.05c-.639,0-1.085-.633-.869-1.235l1.583-4.412,1.615,1.105-1.41,3.931c-.132.367-.479.611-.869.611Zm4.484,0h0c-.51,0-.923-.413-.923-.923v-2.724l1.846,1.342v1.382c0,.51-.413.923-.923.923Z"/>
</svg>
