<?xml version="1.0" encoding="UTF-8"?>
<svg xmlns="http://www.w3.org/2000/svg" id="Layer_1" data-name="Layer 1" viewBox="0 0 24 24">
  <path d="m8,12c-3.309,0-6-2.691-6-6S4.691,0,8,0s6,2.691,6,6-2.691,6-6,6Zm11.309-1.991c-2.089-.127-3.932,1.166-4.845,3.049-.643,1.327-.537,2.507-.171,3.565,0,0-.293.376-.293.876,0,1-.022,1.5-.022,1.5h-1c-.552,0-1,.448-1,1v1h-.978c-.552,0-1,.448-1,1v1c0,.552.448,1,1,1h.776c.53,0,1.039-.211,1.414-.586l3.827-3.827c.948.411,2.044.544,3.193.267,1.885-.454,3.373-2.035,3.71-3.945.538-3.055-1.7-5.723-4.611-5.9Zm.691,5.491c-.828,0-1.5-.672-1.5-1.5s.672-1.5,1.5-1.5,1.5.672,1.5,1.5-.672,1.5-1.5,1.5Zm-12,7.5v-1c0-1.343.887-2.482,2.105-2.863.279-.929.998-1.669,1.912-1.979.027-.259.082-.496.15-.707-.102-.457-.14-.908-.146-1.356-1.183-.692-2.554-1.095-4.021-1.095C3.589,14,0,17.589,0,22v1c0,.553.448,1,1,1h7.184c-.112-.314-.184-.648-.184-1Z"/>
</svg>
