<?xml version="1.0" encoding="UTF-8"?>
<svg xmlns="http://www.w3.org/2000/svg" id="Layer_1" data-name="Layer 1" viewBox="0 0 24 24">
  <path d="m3.064,20h17.873c-2.247,2.497-5.493,4-8.936,4s-6.69-1.503-8.936-4Zm6.548-6.999h1.261l-.638-3.295-.624,3.295ZM12,0c-3.444,0-6.69,1.503-8.936,4h17.873C18.69,1.503,15.444,0,12,0Zm-6.9,9.6h-.5v1.8h.5c.496,0,.9-.404.9-.9s-.404-.9-.9-.9Zm18.9-.1v5c0,1.933-1.567,3.5-3.5,3.5H3.5c-1.933,0-3.5-1.567-3.5-3.5v-5c0-1.933,1.567-3.5,3.5-3.5h17c1.933,0,3.5,1.567,3.5,3.5Zm-16.401,1.048c.026-1.401-1.154-2.548-2.556-2.548h-1.244c-.442,0-.8.358-.8.8v6.4c0,.442.358.8.8.8s.8-.358.8-.8v-2.2h.5c1.365,0,2.474-1.093,2.5-2.452Zm5.224,4.592l-1.221-5.947c-.12-.668-.589-1.192-1.346-1.192s-1.281.587-1.385,1.167l-1.2,5.976c-.089.443.25.857.702.857.345,0,.641-.246.704-.585l.166-.889h2.006l.157.883c.061.342.358.591.705.591h.01c.453,0,.793-.416.701-.86Zm2.577-6.34c0-.442-.358-.8-.8-.8s-.8.358-.8.8v6.4c0,.442.358.8.8.8s.8-.358.8-.8v-6.4Zm5.6,1.5c0-1.27-1.03-2.3-2.3-2.3h-1.5c-.442,0-.8.358-.8.8v6.4c0,.442.358.8.8.8h1.5c1.27,0,2.3-1.03,2.3-2.3v-3.4Zm-2.3-.7c-.386,0-.7,0-.7,0v4.802s.314,0,.7,0,.7-.314.7-.7v-3.4c0-.386-.314-.7-.7-.7Z"/>
</svg>
