<?xml version="1.0" encoding="UTF-8"?>
<svg xmlns="http://www.w3.org/2000/svg" id="Layer_1" data-name="Layer 1" viewBox="0 0 24 24">
  <path d="M21.768,13.803c-.146-.542-.361-1.056-.634-1.533-.216-.376-.138-.852,.169-1.159l.021-.021c.45-.45,1.22-.373,1.538,.178,.361,.625,.645,1.3,.838,2.012,.167,.616-.323,1.22-.962,1.22h-.031c-.433,0-.826-.279-.939-.697Zm-.465,6.086l.021,.021c.45,.45,1.22,.373,1.538-.178,.361-.625,.645-1.3,.838-2.012,.167-.616-.323-1.22-.962-1.22h-.031c-.433,0-.826,.279-.939,.697-.146,.542-.361,1.056-.634,1.533-.216,.376-.138,.852,.169,1.159Zm-10.192,1.414l-.021,.021c-.45,.45-.373,1.22,.178,1.538,.625,.361,1.3,.645,2.012,.838,.616,.167,1.22-.323,1.22-.962v-.031c0-.433-.279-.826-.697-.939-.542-.146-1.056-.361-1.533-.634-.376-.216-.852-.138-1.159,.169Zm5.389,1.404v.031c0,.639,.604,1.129,1.22,.962,.712-.193,1.387-.477,2.012-.838,.551-.318,.627-1.088,.178-1.538l-.021-.021c-.307-.307-.783-.385-1.159-.169-.476,.273-.99,.488-1.533,.634-.418,.113-.697,.506-.697,.939Zm3.228-14.572c-.866-.5-1.828-.847-2.851-1.016,.074,.451,.122,.91,.122,1.381,0,.228-.017,.451-.034,.675,.624,.146,1.215,.377,1.756,.689,.379,.218,.857,.144,1.166-.165,.007-.007,.014-.014,.021-.021,.451-.451,.371-1.223-.181-1.542ZM7.119,16.878c.169,1.022,.515,1.985,1.016,2.851,.319,.552,1.091,.632,1.542,.181,.007-.007,.014-.014,.021-.021,.31-.309,.384-.788,.165-1.167-.312-.541-.543-1.132-.689-1.756-.223,.018-.447,.034-.675,.034-.471,0-.93-.048-1.381-.122Zm-.016-2.717c.557-3.596,3.463-6.502,7.059-7.057,.936-.145,1.847-.128,2.715,.016C16.215,3.088,12.715,0,8.5,0,3.813,0,0,3.813,0,8.5c0,4.216,3.089,7.715,7.119,8.378-.143-.869-.161-1.78-.016-2.717Zm7.151-5.043c-2.574,.486-4.65,2.563-5.137,5.136-.179,.946-.143,1.86,.057,2.712,4.148-.328,7.463-3.643,7.791-7.791-.852-.199-1.765-.235-2.711-.057Z"/>
</svg>
