<?xml version="1.0" encoding="UTF-8"?>
<svg xmlns="http://www.w3.org/2000/svg" id="Layer_1" data-name="Layer 1" viewBox="0 0 24 24">
  <path d="m13.5,17c0,.828-.672,1.5-1.5,1.5s-1.5-.672-1.5-1.5.672-1.5,1.5-1.5,1.5.672,1.5,1.5Zm10.387-2.935c-.221.573-.727.971-1.32,1.037-2.537.287-2.566,2.312-2.566,2.397,0,4.313-2.187,6.5-6.5,6.5h-3c-4.313,0-6.5-2.187-6.5-6.5-.008-.345-.166-2.126-2.566-2.396-.594-.067-1.1-.465-1.32-1.038-.229-.596-.114-1.257.299-1.726.816-.923,2.166-1.664,3.588-2.05v-6.29c0-1.215,1.083-2.176,2.336-1.973.983.16,1.664,1.083,1.664,2.08v4.893c0,.552.448,1,1,1s1-.448,1-1V2C10,.785,11.083-.176,12.336.027c.983.16,1.664,1.083,1.664,2.08v6.893c0,.552.448,1,1,1s1-.448,1-1v-5c0-1.215,1.083-2.176,2.336-1.973.983.16,1.664,1.083,1.664,2.08v6.183c1.422.385,2.772,1.127,3.587,2.05.414.469.529,1.13.3,1.726Zm-7.387,2.935c0-.274-.079-.547-.237-.782-.643-.955-2.251-2.218-4.263-2.218s-3.62,1.263-4.263,2.218c-.158.235-.237.508-.237.782s.079.547.237.782c.642.954,2.25,2.218,4.263,2.218s3.62-1.263,4.263-2.218c.158-.235.237-.509.237-.782Z"/>
</svg>
