<?xml version="1.0" encoding="UTF-8"?>
<svg xmlns="http://www.w3.org/2000/svg" id="Layer_1" data-name="Layer 1" viewBox="0 0 24 24">
  <path d="m23.363,6.879c-.119.047-.242.068-.363.068-.4,0-.778-.241-.932-.637l-1.114-2.855c-3.657,7.752-10.274,12.966-19.694,15.511-.087.023-.175.034-.261.034-.441,0-.845-.293-.965-.739-.144-.533.171-1.082.705-1.227,8.859-2.393,15.057-7.279,18.45-14.532l-3.072,1.198c-.517.202-1.095-.055-1.295-.568-.201-.515.054-1.094.568-1.295L19.791.12c.957-.376,2.048.102,2.424,1.062l1.717,4.401c.201.515-.054,1.094-.568,1.295Zm-1.363,1.121c-.552,0-1,.447-1,1v14c0,.553.448,1,1,1s1-.447,1-1v-14c0-.553-.448-1-1-1Zm-5,5c-.552,0-1,.447-1,1v9c0,.553.448,1,1,1s1-.447,1-1v-9c0-.553-.448-1-1-1Zm-5,4c-.552,0-1,.447-1,1v5c0,.553.448,1,1,1s1-.447,1-1v-5c0-.553-.448-1-1-1Zm-5,2c-.552,0-1,.447-1,1v3c0,.553.448,1,1,1s1-.447,1-1v-3c0-.553-.448-1-1-1Zm-5,2c-.552,0-1,.447-1,1v1c0,.553.448,1,1,1s1-.447,1-1v-1c0-.553-.448-1-1-1ZM0,6C0,2.691,2.691,0,6,0s6,2.691,6,6-2.691,6-6,6S0,9.309,0,6Zm4-2c0,1.105.895,2,2,2s2-.895,2-2-.895-2-2-2-2,.895-2,2Zm-.966,4.66c.733.816,1.784,1.34,2.966,1.34s2.233-.524,2.966-1.34c-.618-.993-1.71-1.66-2.966-1.66s-2.348.667-2.966,1.66Z"/>
</svg>
