<?xml version="1.0" encoding="UTF-8"?>
<svg xmlns="http://www.w3.org/2000/svg" id="Layer_1" data-name="Layer 1" viewBox="0 0 24 24">
  <path d="m16,8h-2V3h2v5Zm7-1v5c0,2.206-1.794,4-4,4h-8c-2.206,0-4-1.794-4-4v-5c0-2.206,1.794-4,4-4h1v5c0,1.103.897,2,2,2h2c1.103,0,2-.897,2-2V3h1c2.206,0,4,1.794,4,4Zm0,11h-15c-1.654,0-3-1.346-3-3V4C5,1.794,3.206,0,1,0,.448,0,0,.447,0,1s.448,1,1,1c1.103,0,2,.897,2,2v11c0,2.045,1.237,3.802,3,4.576v1.424c0,1.654,1.346,3,3,3s3-1.346,3-3v-1h5v1c0,1.654,1.346,3,3,3s3-1.346,3-3v-1c.552,0,1-.447,1-1s-.448-1-1-1Z"/>
</svg>
