<?xml version="1.0" encoding="UTF-8"?>
<svg xmlns="http://www.w3.org/2000/svg" id="Layer_1" data-name="Layer 1" viewBox="0 0 24 24">
  <path d="m.426,12.332c.043-.187.021-.389-.067-.601-.442-1.066-.399-2.264.118-3.287.089-.177.192-.346.305-.504.242-.337.346-.738.303-1.162-.072-.708.06-1.417.38-2.052.458-.907,1.244-1.578,2.213-1.891l.237-.078c.446-.148.952-.316,1.771-.472.304-.058.578-.211.774-.432.237-.265.719-.744,1.406-1.148-.722.732-1.222,1.645-1.443,2.648-.079.355-.259.639-.537.842-.236.172-.458.362-.654.56-1.212,1.211-1.813,2.889-1.649,4.604.004.046-.02.117-.067.194C1.866,12.261.553,18.812.146,21.009c-.083-.314-.141-.637-.144-.976-.024-3.807.118-6.398.423-7.702Zm22.897,3.776c-.732.734-1.658,1.243-2.676,1.468-.355.079-.639.26-.842.538-.168.229-.353.447-.561.654-1.212,1.211-2.895,1.81-4.604,1.648-.038-.012-.117.021-.193.066-2.707,1.65-9.249,2.963-11.452,3.371.316.083.641.142.981.144.289.002.57.003.844.003,3.357,0,5.669-.142,6.877-.425.188-.044.39-.02.602.066,1.068.443,2.269.398,3.294-.117.181-.092.349-.193.507-.306.335-.239.73-.348,1.164-.301.706.071,1.42-.06,2.057-.38.909-.457,1.583-1.241,1.896-2.207l.078-.237c.148-.445.316-.95.475-1.768.058-.302.211-.576.432-.772.295-.262.854-.826,1.28-1.64-.057.062-.099.133-.159.193Zm-.776-14.654C20.186-.747,17.59-.01,16.165.82c-.549.32-1.185.456-1.815.373-1.183-.157-1.828-.128-2.539-.132-.906-.005-1.813.338-2.504,1.028-.485.485-.793,1.075-.93,1.696-.182.821-.63,1.527-1.309,2.023-.147.107-.288.227-.42.36-.822.822-1.174,1.927-1.072,2.999.048.503-.087.994-.35,1.426-1.248,2.048-2.361,7.008-2.892,9.66l7.668-7.668v-4.586c0-.553.448-1,1-1s1,.447,1,1v2.586l3.293-3.293c.391-.391,1.023-.391,1.414,0s.391,1.023,0,1.414l-3.293,3.293h2.586c.553,0,1,.447,1,1s-.447,1-1,1h-4.586l-7.668,7.668c2.652-.532,7.612-1.644,9.66-2.893.431-.263.923-.398,1.425-.35,1.072.102,2.177-.25,2.999-1.072.133-.133.253-.274.36-.42.496-.679,1.202-1.128,2.023-1.309.621-.138,1.212-.446,1.696-.93.691-.691,1.034-1.598,1.028-2.504-.004-.71.025-1.355-.132-2.539-.083-.63.053-1.266.373-1.815.83-1.425,1.568-4.021-.633-6.382Z"/>
</svg>
