<?xml version="1.0" encoding="UTF-8"?>
<svg xmlns="http://www.w3.org/2000/svg" id="Layer_1" data-name="Layer 1" viewBox="0 0 24 24">
  <path d="m21,20.414v.586c0,1.654-1.346,3-3,3h-7c-1.654,0-3-1.346-3-3h-.494c-2.498,0-4.629-1.868-4.957-4.344l-.219-1.656h-.33c-1.299,0-2-1.03-2-2,0-1.419,2.932-7.014,4.199-8.582C6.638,1.163,10.511-.448,14.547.106c4.996.686,8.952,4.839,9.407,9.876.25,2.768-.537,5.5-2.215,7.692-.094.123-.174.261-.251.4l-3.603-3.603c.699-.981,1.115-2.177,1.115-3.471,0-3.309-2.691-6-6-6s-6,2.691-6,6,2.691,6,6,6c1.294,0,2.49-.416,3.471-1.115l4.529,4.529ZM13,7c-2.206,0-4,1.794-4,4s1.794,4,4,4,4-1.794,4-4-1.794-4-4-4Z"/>
</svg>
