<?xml version="1.0" encoding="UTF-8"?>
<svg xmlns="http://www.w3.org/2000/svg" id="Layer_1" data-name="Layer 1" viewBox="0 0 24 24">
  <path d="M23.61,18.262c-.848-1.218-2.769-3.262-6.11-3.262s-5.262,2.044-6.11,3.262c-.523,.752-.523,1.724,0,2.476,.848,1.218,2.768,3.262,6.11,3.262s5.262-2.044,6.109-3.262c.523-.751,.524-1.724,0-2.476Zm-6.11,3.238c-1.105,0-2-.895-2-2s.895-2,2-2,2,.895,2,2-.895,2-2,2Zm6.5-14.5H0C0,4.243,2.243,2,5,2h14c2.757,0,5,2.243,5,5Zm-14.251,10.12c1.07-1.539,3.501-4.12,7.751-4.12,3.002,0,5.092,1.287,6.441,2.585,.023-.194,.059-.385,.059-.585v-6H0v6c0,2.757,2.243,5,5,5h4.032c-.122-.991,.112-2.012,.717-2.88Zm-4.249-1.12c-.828,0-1.5-.672-1.5-1.5s.672-1.5,1.5-1.5,1.5,.672,1.5,1.5-.672,1.5-1.5,1.5Z"/>
</svg>
