<?xml version="1.0" encoding="UTF-8"?>
<svg xmlns="http://www.w3.org/2000/svg" id="Layer_1" data-name="Layer 1" viewBox="0 0 24 24">
  <path d="M23.93,16.517c-2.039,7.338-11.52,7.48-11.922,7.483h-.013c-.402-.002-9.883-.145-11.922-7.483-.173-.62-.025-1.29,.394-1.792,.425-.509,1.067-.782,1.726-.716,5.148,.48,7.641,3.574,8.809,5.943v-5.046c-2.68-.465-5.001-2.721-5.001-5.405,0-2.034-.667-3.103-.97-4.306-.178-.708,.459-1.354,1.163-1.159,.589,.162,2.422,.542,3.574,1.273,1.976,1.178,4.086,4.067,4.548,7.763,.002,.013,.087,.569,.189,1.352-.481,.225-.989,.371-1.504,.466v5.062c1.168-2.368,3.66-5.462,8.809-5.942,.66-.066,1.3,.208,1.727,.716,.419,.501,.565,1.171,.394,1.792ZM13.356,5.858c.012,.016,.024,.028,.036,.044,1.419,1.747,2.559,4.127,2.904,6.892,.003,.019,.023,.148,.052,.348,.991-.981,1.643-2.265,1.652-3.642,.013-1.995,.672-3.141,.97-4.32,.178-.704-.466-1.338-1.166-1.145-.589,.162-2.193,.694-3.077,1.056-.456,.187-.917,.445-1.372,.767ZM7.273,2.271c1.559,.511,3.472,1.12,4.812,2.038,1.384-1.041,3.033-1.507,4.643-2.038,.107-.398,.22-.709,.261-1.004,.107-.767-.568-1.401-1.325-1.242-.924,.194-2.462,.754-3.663,1.475C10.798,.779,9.261,.219,8.337,.025c-.758-.159-1.432,.475-1.325,1.242,.041,.295,.154,.606,.261,1.004Z"/>
</svg>
