<?xml version="1.0" encoding="UTF-8"?>
<svg xmlns="http://www.w3.org/2000/svg" id="Layer_1" data-name="Layer 1" viewBox="0 0 24 24">
  <path d="m2.058,18.667c.141-.4.519-.667.942-.667s.802.267.942.667c.265.747,1.169,1.333,2.058,1.333,1.103,0,2-.897,2-2v-5c0-.266.105-.52.293-.707.132-.133,1.36-1.293,3.707-1.293s3.575,1.16,3.707,1.293c.188.188.293.441.293.707v5c0,1.103.897,2,2,2,.889,0,1.793-.586,2.058-1.333.141-.4.519-.667.942-.667s.802.267.942.667c.255.719,1.102,1.283,1.957,1.325.065-.321.1-.652.1-.992V5c0-2.757-2.243-5-5-5H5C2.243,0,0,2.243,0,5v14c0,.34.035.671.1.992.855-.042,1.703-.606,1.957-1.325ZM12,4c4.411,0,8,3.589,8,8,0,1.026-.192,2.027-.571,2.975-.157.391-.532.628-.929.628-.124,0-.25-.022-.372-.071-.513-.206-.762-.788-.557-1.301.284-.709.429-1.46.429-2.23,0-3.309-2.691-6-6-6s-6,2.691-6,6c0,.738.133,1.459.394,2.143.197.516-.061,1.094-.576,1.291-.518.197-1.094-.06-1.291-.576-.35-.913-.526-1.874-.526-2.857,0-4.411,3.589-8,8-8Zm0,9c.986,0,1.65.291,2,.499v4.501c0,1.103-.897,2-2,2s-2-.897-2-2v-4.499c.354-.212,1.017-.501,2-.501Zm11.069,8.885c-.907,1.275-2.389,2.115-4.069,2.115H5c-1.68,0-3.162-.84-4.069-2.115.782-.18,1.509-.568,2.069-1.111.778.754,1.872,1.226,3,1.226,1.201,0,2.266-.542,3-1.382.734.84,1.799,1.382,3,1.382s2.266-.542,3-1.382c.734.84,1.799,1.382,3,1.382,1.128,0,2.222-.472,3-1.226.56.543,1.287.931,2.069,1.111Z"/>
</svg>
