<?xml version="1.0" encoding="UTF-8"?>
<svg xmlns="http://www.w3.org/2000/svg" id="Layer_1" data-name="Layer 1" viewBox="0 0 24 24">
  <path d="M15.9,9.371c.056,.147,.052,.309-.017,.462-.587,1.358-3.286,6.236-3.33,6.316-.152,.299-.427,.332-.54,.332h-.002c-.112,0-.389-.034-.552-.357-2.515-4.735-3.169-5.967-3.352-6.306-.097-.213-.045-.467,.125-.642,.181-.182,.426-.203,.467-.187,.168,.084,2.845,1.454,2.845,1.454,.286,.147,.626,.146,.912,0,.405-.208,2.44-1.255,2.66-1.389,.148-.071,.321-.073,.478-.004,.141,.062,.249,.176,.306,.321Zm8.1,2.629c0,6.617-5.383,12-12,12S0,18.617,0,12,5.383,0,12,0s12,5.383,12,12Zm-6.233-3.348c-.249-.645-.733-1.153-1.364-1.432-.688-.304-1.47-.294-2.226,.071-.153,.091-1.248,.66-2.178,1.139-.777-.397-2.29-1.17-2.464-1.256-.901-.374-1.993-.136-2.727,.6-.759,.777-.962,1.906-.519,2.876,.008,.019,.019,.039,.028,.058,.055,.103,3.364,6.334,3.364,6.334,.443,.886,1.334,1.438,2.323,1.44h.008c.986,0,1.876-.545,2.307-1.395,.113-.204,2.773-5.013,3.396-6.453,.281-.634,.299-1.338,.051-1.982Z"/>
</svg>
