<?xml version="1.0" encoding="UTF-8"?>
<svg xmlns="http://www.w3.org/2000/svg" id="Layer_1" data-name="Layer 1" viewBox="0 0 24 24">
  <path d="m17.467.047c.329.58.533,1.24.533,1.953v8.376c0,1.167-.739,2.27-1.873,2.548-1.648.404-3.127-.841-3.127-2.423V3c0-.552.448-1,1-1s1,.448,1,1v7.5c0,.276.224.5.5.5s.5-.224.5-.5V2.089c0-.873-.512-1.717-1.344-1.984-1.38-.443-2.656.579-2.656,1.895v7c0,.552-.448,1-1,1s-1-.448-1-1V2c0-.732.212-1.409.556-2h-3.556C4.239,0,2,2.239,2,5v14c0,2.761,2.239,5,5,5h10c2.761,0,5-2.239,5-5V5c0-2.601-1.994-4.714-4.533-4.953ZM7,13h4c.552,0,1,.448,1,1s-.448,1-1,1h-4c-.552,0-1-.448-1-1s.448-1,1-1Zm10,6H7c-.552,0-1-.448-1-1s.448-1,1-1h10c.552,0,1,.448,1,1s-.448,1-1,1Z"/>
</svg>
