<?xml version="1.0" encoding="UTF-8"?>
<svg xmlns="http://www.w3.org/2000/svg" id="Layer_1" data-name="Layer 1" viewBox="0 0 24 24">
  <path d="m23.744,21.565c.369.41.335,1.043-.075,1.412-.734.659-1.682,1.022-2.668,1.022-1.127,0-2.222-.472-3-1.225-.778.753-1.873,1.225-3,1.225s-2.222-.472-3-1.225c-.778.753-1.873,1.225-3,1.225s-2.222-.472-3-1.225c-.778.753-1.873,1.225-3,1.225-.987,0-1.935-.363-2.668-1.022-.411-.369-.444-1.002-.075-1.412.369-.41,1.001-.444,1.412-.076.366.329.839.511,1.332.511.89,0,1.793-.586,2.057-1.333.141-.399.519-.667.943-.667s.802.268.943.667c.264.747,1.167,1.333,2.057,1.333s1.793-.586,2.057-1.333c.141-.399.519-.667.943-.667s.802.268.943.667c.264.747,1.167,1.333,2.057,1.333s1.793-.586,2.057-1.333c.141-.399.519-.667.943-.667s.802.268.943.667c.264.747,1.167,1.333,2.057,1.333.493,0,.965-.182,1.332-.511.411-.368,1.043-.336,1.412.076Zm0-6c-.369-.412-1.001-.444-1.412-.076-.366.329-.839.511-1.332.511-.89,0-1.793-.586-2.057-1.333-.141-.399-.519-.667-.943-.667v.011c-.412.002-.692.3-.943.656-.749,1.064-2.024,1.391-3.057,1.333-4.168.058-7-2.813-7-7,0-2.812,1.618-5.75,3.934-7.144.385-.231.568-.691.448-1.124s-.514-.732-.963-.732h-.918C4.084,0,0,3.869,0,9v4c0,.553.458,1,1.01,1,.906,0,1.793.317,2.565.917,1.812,1.406,5.092,3.083,10.425,3.083,1.462,0,2.988-.5,3.93-1.306.768.714,1.786,1.306,3.07,1.306.987,0,1.935-.363,2.668-1.022.411-.369.444-1.002.075-1.412Zm.256-8.567v5.004c-1.208.004-2.344.738-2.798,1.914-.105.084-.299.084-.405,0-.445-1.15-1.558-1.917-2.797-1.917-1.112,0-2.118.62-2.635,1.578-.382.443-1.217.429-1.365.422h0c-1.142.031-2.186-.262-3-.806v-6.194c0-1.274.586-2.478,1.59-3.263l2.357-1.845c1.5-1.174,3.607-1.174,5.106,0l2.358,1.846c1.003.785,1.589,1.987,1.589,3.261Zm-5,.002c0-.552-.448-1-1-1h-1c-.552,0-1,.448-1,1v1c0,.552.448,1,1,1h1c.552,0,1-.448,1-1v-1Z"/>
</svg>
