<?xml version="1.0" encoding="UTF-8"?>
<svg xmlns="http://www.w3.org/2000/svg" id="Layer_1" data-name="Layer 1" viewBox="0 0 24 24">
  <path d="m16.217,19.303h0c.39.391.389,1.024-.002,1.414l-2.344,2.34c-.628.627-1.454.941-2.279.941s-1.651-.313-2.28-.942c-1.141-1.14-1.236-2.924-.307-4.185l-1.207-1.207-3.091,3.044c-.39.39-1.024.39-1.414,0h0c-.39-.39-.39-1.024,0-1.414l3.091-3.044-1.191-1.191c-1.349,1.044-3.325.891-4.462-.489-1.074-1.302-.865-3.245.328-4.44l2.233-2.236c.39-.391,1.023-.391,1.414-.001h0c.391.391.391,1.024.001,1.415l-2.348,2.351c-.478.478-.478,1.255,0,1.732.479.479,1.254.479,1.732,0l3.141-3.183.002.002c3.372-3.371,7.41-4.745,10.003-5.188,1.031-.176,1.916.71,1.74,1.741-.442,2.593-1.817,6.632-5.188,10.003l.016.016-3.073,3.122c-.483.483-.483,1.261-.006,1.738s1.256.477,1.732,0l2.344-2.34c.391-.39,1.024-.39,1.414.002Zm7.783-15.303v6.822c0,1.142-.444,2.215-1.252,3.022-.751.751-1.803,1.156-2.909,1.156-.396,0-.8-.053-1.199-.159l-.639-.17c1.973-3.139,2.709-6.171,2.949-7.574.191-1.122-.173-2.271-.976-3.072-.802-.803-1.952-1.165-3.072-.976-1.404.24-4.434.976-7.574,2.95l-.17-.639c-.404-1.515-.022-3.089.997-4.108.808-.808,1.881-1.252,3.022-1.252h6.822c2.209,0,4,1.791,4,4Z"/>
</svg>
