<?xml version="1.0" encoding="UTF-8"?>
<svg xmlns="http://www.w3.org/2000/svg" id="Layer_1" data-name="Layer 1" viewBox="0 0 24 24">
  <path d="m23.432,8.293c-.364.449-.905.707-1.484.707h-1.23c-.123.844-.843,1.494-1.722,1.494s-1.598-.65-1.722-1.494h-1.223c-.578,0-1.118-.257-1.482-.705-.364-.448-.505-1.029-.388-1.594.178-.853.43-2.054.645-3.062.497-2.313,2.018-3.64,4.175-3.64,2.137,0,3.698,1.362,4.176,3.645l.641,3.054c.119.565-.021,1.146-.385,1.595Zm-.337,8.446c1.205,1.207,1.205,3.171,0,4.378l-.912,1.05c-1.194,1.199-2.748,1.833-4.421,1.833C10.126,24,0,13.874,0,6.238c0-1.673.633-3.227,1.784-4.375l1.15-1.004c1.157-1.159,3.12-1.16,4.327.047.031.03,1.883,2.438,1.883,2.438.553.579.857,1.335.857,2.138s-.306,1.565-.863,2.145l-1.6,1.897c1.458,3.309,3.733,5.588,6.932,6.945l1.906-1.606c1.19-1.144,3.087-1.147,4.28-.006,0,0,2.408,1.853,2.439,1.883Z"/>
</svg>
