<?xml version="1.0" encoding="UTF-8"?>
<svg xmlns="http://www.w3.org/2000/svg" id="Layer_1" data-name="Layer 1" viewBox="0 0 24 24">
  <path d="m4.5,2.5c0-1.381,1.119-2.5,2.5-2.5s2.5,1.119,2.5,2.5-1.119,2.5-2.5,2.5-2.5-1.119-2.5-2.5Zm19.5,15.5c0,3.314-2.686,6-6,6s-6-2.686-6-6,2.686-6,6-6,6,2.686,6,6Zm-2.288-1.702c-.383-.399-1.017-.41-1.414-.029l-2.713,2.624c-.143.141-.379.144-.522.002l-1.353-1.331c-.396-.388-1.028-.381-1.414.014-.387.395-.381,1.027.014,1.414l1.354,1.332c.46.449,1.062.674,1.663.674s1.201-.225,1.653-.671l2.703-2.614c.398-.383.411-1.016.029-1.414Zm-9.712-6.298c0-2.206-1.794-4-4-4h-2c-2.206,0-4,1.794-4,4v3c0,1.478.805,2.771,2,3.463v6.537c0,.553.447,1,1,1s1-.447,1-1v-6h2v6c0,.553.447,1,1,1s1-.447,1-1v-5c0-2.029.755-3.881,2-5.291v-2.709Z"/>
</svg>
