<?xml version="1.0" encoding="UTF-8"?>
<svg xmlns="http://www.w3.org/2000/svg" id="Layer_1" data-name="Layer 1" viewBox="0 0 24 24">
  <path d="M4,18v1c0,2.757,2.243,5,5,5h6c2.757,0,5-2.243,5-5v-1H4Zm9,4h-2c-.552,0-1-.447-1-1s.448-1,1-1h2c.552,0,1,.447,1,1s-.448,1-1,1Zm4.2-14h0c.442,0,.8,.358,.8,.8v6.4c0,.442-.358,.8-.8,.8h0c-.442,0-.8-.358-.8-.8v-1.2h-1.601c-.994,0-1.8-.806-1.8-1.8v-3.4c0-.442,.358-.8,.8-.8h0c.442,0,.8,.358,.8,.8v3.4c0,.111,.09,.2,.2,.2h1.601v-3.601c0-.442,.358-.8,.8-.8Zm4.3,4.3h0c0-.442,.358-.8,.8-.8h.9c.442,0,.8,.358,.8,.8v1.2c0,1.365-1.093,2.474-2.452,2.5-1.401,.027-2.548-1.154-2.548-2.556v-2.887c0-1.402,1.147-2.582,2.548-2.556,.933,.018,1.741,.546,2.155,1.318,.287,.534-.097,1.182-.703,1.182h0c-.29,0-.567-.151-.699-.409-.158-.308-.488-.514-.863-.489-.478,.032-.838,.451-.838,.93v2.968c0,.517,.438,.933,.962,.898,.478-.032,.838-.451,.838-.93v-.368h-.1c-.442,0-.8-.358-.8-.8Zm-6.982,3.7H4V5C4,2.243,6.243,0,9,0h6c2.757,0,5,2.243,5,5v1.278c-.325,.117-.64,.26-.931,.451-.497-.449-1.148-.73-1.868-.73-.639,0-1.229,.215-1.7,.577-.472-.362-1.062-.577-1.7-.577-1.544,0-2.8,1.256-2.8,2.8v3.4c0,1.999,1.552,3.643,3.514,3.789,.001,.004,.003,.007,.004,.011Z"/>
</svg>
