<?xml version="1.0" encoding="UTF-8"?>
<svg xmlns="http://www.w3.org/2000/svg" id="Layer_1" data-name="Layer 1" viewBox="0 0 24 24">
  <path d="m23.451,21.326l-2.223,2.36c-.197.209-.462.314-.728.314-.246,0-.493-.09-.686-.272-.402-.379-.421-1.012-.042-1.414l1.238-1.314h-3.01c-.552,0-1-.448-1-1s.448-1,1-1h3.011l-1.239-1.314c-.378-.402-.36-1.035.042-1.414.401-.377,1.034-.36,1.414.042l2.244,2.381c.71.709.71,1.899-.021,2.63ZM2.772,7.686c.197.209.462.314.728.314.246,0,.493-.09.686-.272.402-.379.421-1.012.042-1.414l-1.239-1.314h3.011c.552,0,1-.448,1-1s-.448-1-1-1h-3.01l1.238-1.314c.378-.402.36-1.035-.042-1.414-.401-.378-1.035-.36-1.414.042L.549,2.674c-.731.731-.731,1.92-.021,2.63l2.244,2.381Zm13.67,1.614h-2.095v1.9h2.095c.524,0,.95-.426.95-.95s-.426-.95-.95-.95Zm.763-2.55c0-.524-.426-.95-.95-.95h-1.908v1.9h1.908c.524,0,.95-.426.95-.95Zm-1.706-6.75C10.813,0,7,3.813,7,8.5s3.813,8.5,8.5,8.5,8.5-3.813,8.5-8.5S20.187,0,15.5,0Zm.942,12.8h-.143v.45c0,.442-.358.8-.8.8s-.8-.358-.8-.8v-.45h-.652c-.717,0-1.3-.583-1.3-1.3v-6c0-.717.583-1.3,1.3-1.3h.652v-.469c0-.442.358-.8.8-.8s.8.358.8.8v.474c1.385.024,2.505,1.154,2.505,2.545,0,.629-.229,1.206-.608,1.651.49.465.795,1.122.795,1.849,0,1.406-1.144,2.55-2.55,2.55Zm-.942,6.2c-5.799,0-10.5-4.701-10.5-10.5,0-.115.014-.227.017-.341C2.068,9.416,0,12.341,0,15.75c0,4.556,3.694,8.25,8.25,8.25,3.409,0,6.334-2.068,7.591-5.017-.114.004-.226.017-.341.017Z"/>
</svg>
