<?xml version="1.0" encoding="UTF-8"?>
<svg xmlns="http://www.w3.org/2000/svg" id="Layer_1" data-name="Layer 1" viewBox="0 0 24 24">
  <path d="M15,9.5c0,1.381-1.119,2.5-2.5,2.5s-2.5-1.119-2.5-2.5,1.119-2.5,2.5-2.5,2.5,1.119,2.5,2.5Zm5,.5c1.381,0,2.5-1.119,2.5-2.5s-1.119-2.5-2.5-2.5-2.5,1.119-2.5,2.5,1.119,2.5,2.5,2.5Zm4,5v2c0,1.105-.608,2.062-1.5,2.583v3.417c0,.553-.447,1-1,1s-1-.447-1-1v-3h-1v3c0,.553-.447,1-1,1s-1-.447-1-1v-3.417c-.892-.52-1.5-1.477-1.5-2.583v-2c0-2.206,1.794-4,4-4s4,1.794,4,4ZM5.5,9c-1.381,0-2.5,1.119-2.5,2.5s1.119,2.5,2.5,2.5,2.5-1.119,2.5-2.5-1.119-2.5-2.5-2.5Zm6.5-4c0,.553,.447,1,1,1s1-.447,1-1V1.5c0-.827-.673-1.5-1.5-1.5h-3.5c-.553,0-1,.447-1,1s.447,1,1,1h1.53l-3.143,3.006c-.066,.063-.173,.063-.238-.004l-.749-.747c-.846-.846-2.223-.846-3.068,0L.293,7.293c-.391,.391-.391,1.023,0,1.414s1.023,.391,1.414,0l3.038-3.038c.057-.057,.184-.058,.24,0l.748,.746c.827,.829,2.188,.845,3.035,.035l3.231-3.089v1.638Zm-5,13v-1c0-.335,.029-.664,.084-.983,.091-.535-.345-1.017-.888-1.017h-.696c-1.933,0-3.5,1.567-3.5,3.5v.5c0,1.302,.839,2.402,2,2.816v1.184c0,.553,.447,1,1,1s1-.447,1-1v-1h.561c.866,0,1.425-.919,1.018-1.683-.369-.691-.579-1.479-.579-2.317Zm7.803,1.435c.001-.006,.005-.025,.005-.025-.577-.705-.808-1.652-.808-2.41v-2c0-.206,.01-.409,.031-.61,.083-.814-.671-1.471-1.481-1.359-.436,.061-1.038,.21-1.524,.495-1.37,.804-2.026,2.115-2.026,3.487v.987c0,1.304,.837,2.403,2,2.816v2.184c0,.553,.447,1,1,1s1-.447,1-1v-2h1c.552,0,1-.448,1-1,0-.214-.082-.402-.197-.565Z"/>
</svg>
