<?xml version="1.0" encoding="UTF-8"?>
<svg xmlns="http://www.w3.org/2000/svg" id="Layer_1" data-name="Layer 1" viewBox="0 0 24 24">
  <path d="m23.126,9.868h0l-2.151-2.154v-1.718c0-1.651-1.342-2.995-2.991-2.995h-1.716l-2.151-2.153c-1.131-1.131-3.101-1.131-4.231,0l-2.151,2.153h-1.716c-1.65,0-2.991,1.343-2.991,2.995v1.718l-2.152,2.154c-1.165,1.168-1.165,3.067,0,4.235l2.151,2.154v1.718c0,1.651,1.342,2.995,2.991,2.995h1.716l2.151,2.153c.565.565,1.317.877,2.116.877s1.55-.312,2.115-.877l2.151-2.153h1.716c1.65,0,2.991-1.343,2.991-2.995v-1.718l2.152-2.154c1.165-1.168,1.165-3.067,0-4.235Zm-4.922.343l-5.054,4.995c-.614.61-1.423.916-2.231.916s-1.613-.305-2.229-.913l-2.599-2.499c-.392-.389-.396-1.021-.007-1.414.39-.391,1.021-.396,1.415-.007l2.598,2.498c.453.449,1.19.45,1.644,0l5.055-4.996c.394-.39,1.026-.386,1.415.007s.385,1.025-.007,1.414Z"/>
</svg>
