<?xml version="1.0" encoding="UTF-8"?>
<svg xmlns="http://www.w3.org/2000/svg" id="Layer_1" data-name="Layer 1" viewBox="0 0 24 24">
  <path d="m2,8.5c0-1.381,1.119-2.5,2.5-2.5s2.5,1.119,2.5,2.5-1.119,2.5-2.5,2.5-2.5-1.119-2.5-2.5Zm9.5-.5c1.381,0,2.5-1.119,2.5-2.5s-1.119-2.5-2.5-2.5-2.5,1.119-2.5,2.5,1.119,2.5,2.5,2.5Zm7-3c1.381,0,2.5-1.119,2.5-2.5s-1.119-2.5-2.5-2.5-2.5,1.119-2.5,2.5,1.119,2.5,2.5,2.5Zm.5,1h-1c-2.206,0-4,1.794-4,4v4c0,1.474.81,2.75,2,3.444v5.556c0,.552.448,1,1,1s1-.448,1-1v-5h1v5c0,.552.448,1,1,1s1-.448,1-1v-5.556c1.19-.694,2-1.97,2-3.444v-4c0-2.206-1.794-4-4-4Zm-7,8v-4c0-.338.035-.668.089-.991-.03,0-.058-.009-.089-.009h-1c-2.206,0-4,1.794-4,4v2c0,1.474.81,2.75,2,3.444v4.556c0,.552.448,1,1,1s1-.448,1-1v-4h1c.731,0,1.407-.211,1.997-.555-1.254-1.127-1.997-2.743-1.997-4.445Zm-7,1v-2c0-.341.035-.674.09-1h-1.59c-1.93,0-3.5,1.57-3.5,3.5v1c0,1.391.822,2.585,2,3.149v3.351c0,.552.448,1,1,1s1-.448,1-1v-3h1.5c.592,0,1.141-.162,1.63-.422-1.301-1.102-2.13-2.744-2.13-4.578Z"/>
</svg>
