<?xml version="1.0" encoding="UTF-8"?>
<svg xmlns="http://www.w3.org/2000/svg" id="Layer_1" data-name="Layer 1" viewBox="0 0 24 24">
  <path d="m24,8.217c0,.732-.555,1.345-1.283,1.418l-2.816.282c-.511.051-.901.481-.901.995v1.994c0,1.48-.198,2.436-.615,3.896l-.385,1.811v3.395c0,1.215-1.083,2.176-2.336,1.973-.983-.16-1.664-1.083-1.664-2.08v-2.893h-4.383l-.401,3.245c-.124,1.002-.884,1.748-2.255,1.748-1.214,0-1.962-1.065-1.795-2.267l.366-2.646c-.112-.36-.251-.755-.396-1.172-.489-1.4-1.087-3.127-1.133-4.72-1.323,1.083-2.003,3.02-2.003,5.812,0,.552-.448,1-1,1s-1-.448-1-1c0-5.683,2.546-7.73,4.682-8.448.734-.907,2.059-1.552,3.312-1.552h3.006c1,0,1.007-.829,1.021-1.007.152-1.903,1.165-4.703,4.058-5.655.237-1.048,1.019-2.003,2.033-2.315.441-.136.888.208.888.669v1.878c.477,1.907,2.04,3.493,4.138,4.335.527.212.862.737.862,1.305Z"/>
</svg>
