<?xml version="1.0" encoding="UTF-8"?>
<svg xmlns="http://www.w3.org/2000/svg" id="Layer_1" data-name="Layer 1" viewBox="0 0 24 24">
  <path d="m.816,12.806c.534-2.25,1.12-4.713,1.409-5.921.227,2.427,1.738,4.479,3.848,5.472-1.315.323-2.548.859-3.656,1.575-.802.518-1.821-.198-1.601-1.126ZM7.794,4.283c.648-.404,1.177-.946,1.557-1.584.237-.398.721-.595,1.158-.44.006.002.013.005.019.007.588.212.871.9.553,1.438-.542.917-1.3,1.696-2.229,2.276-1.081.674-2.609,1.02-3.852,1.02-.038,0-.41,0-.69,0,.361,2.264,2.327,3.999,4.69,3.999,1.751,0,3.284-.953,4.108-2.368.045.189.367,1.471.735,2.935.643-.839,1.603-1.407,2.7-1.533-.687-2.856-1.281-5.297-1.34-5.484-.855-2.722-3.348-4.55-6.202-4.55S3.652,1.829,2.798,4.55c-.017.054-.058.211-.117.45h2.088c1.25,0,2.214-.212,3.025-.717Zm10.206,16.717c-.552,0-1-.448-1-1h-5v.5c0,1.93,1.57,3.5,3.5,3.5h5c1.93,0,3.5-1.57,3.5-3.5v-.5h-5c0,.552-.448,1-1,1Zm-8-3.5c0-1.204.411-2.326,1.093-3.244-.673-.161-1.372-.256-2.093-.256C4.043,14,.009,18.028,0,22.983c-.001.557.443,1.017,1,1.017h10.261c-.787-.952-1.261-2.172-1.261-3.5v-3Zm11-3.449c0-1.103-.897-2.051-2-2.051h-2c-1.103,0-2,.948-2,2.051-1.692.245-3,1.691-3,3.449v.5h12v-.5c0-1.758-1.308-3.204-3-3.449Z"/>
</svg>
