<?xml version="1.0" encoding="UTF-8"?>
<svg xmlns="http://www.w3.org/2000/svg" id="Layer_1" data-name="Layer 1" viewBox="0 0 24 24">
  <path d="m8.433,15c.124-.44,1.247-3.231,1.247-3.231.701-1.682,2.332-2.769,4.154-2.769h4.333c1.822,0,3.453,1.087,4.154,2.769,0,0,1.123,2.791,1.247,3.231h-15.134Zm12.567,2v1c0,.553-.448,1-1,1s-1-.447-1-1v-1h-6v1c0,.553-.448,1-1,1s-1-.447-1-1v-1h-2.947c-.034.357-.053.716-.053,1.078,0,1.461.812,2.723,2,3.398v.524c0,1.103.897,2,2,2s2-.897,2-2h4c0,1.103.897,2,2,2s2-.897,2-2v-.524c1.188-.675,2-1.937,2-3.398,0-.362-.019-.721-.053-1.078h-2.947ZM10.43,7.973c1.003-.617,2.169-.973,3.404-.973h4.333c1.271,0,2.472.373,3.494,1.024l2.118-2.117c.274-.274.365-.683.233-1.048-.132-.365-.463-.62-.85-.656l-2.451-.223c-.33-.03-.591-.291-.621-.621l-.223-2.45c-.035-.387-.291-.718-.656-.85-.364-.132-.773-.042-1.047.233l-1.607,1.607c-.267.267-.704.267-.971,0l-1.607-1.607c-.274-.275-.683-.365-1.047-.233-.365.132-.621.463-.656.85l-.223,2.45c-.03.33-.291.591-.621.621l-2.451.223c-.386.036-.717.291-.85.656-.132.365-.041.773.233,1.047l2.065,2.066Zm-3.922,6.485c.161-.572,1.326-3.458,1.326-3.458.267-.641.633-1.218,1.068-1.726l-.914-.914-3.089.71.224.975c.124.539-.212,1.075-.751,1.198-.538.124-1.075-.212-1.198-.751l-.224-.975L.077,10.177c.047.355.109.71.19,1.063.327,1.424,1.401,2.472,2.71,2.863l.117.511c.247,1.075,1.322,1.748,2.397,1.501.23-.053.437-.15.625-.271l.39-1.387Zm-.257-10.278c.396-1.09,1.395-1.861,2.547-1.968l1.363-.124.124-1.36c.017-.187.057-.367.108-.544-.717-.206-1.486-.245-2.248-.07l-4.223.97c-1.776.408-3.122,1.833-3.428,3.629l-.351,2.058c-.078.456-.118.913-.14,1.37l6.453-1.483c-.415-.748-.502-1.654-.203-2.48Z"/>
</svg>
