<?xml version="1.0" encoding="UTF-8"?>
<svg xmlns="http://www.w3.org/2000/svg" id="Layer_1" data-name="Layer 1" viewBox="0 0 24 24">
  <path d="M0,14v-3C0,4.935,4.935,0,11,0c2.401,0,4.683,.763,6.601,2.206,.441,.333,.53,.959,.198,1.4-.332,.441-.959,.53-1.4,.198-1.569-1.18-3.436-1.804-5.399-1.804C6.038,2,2,6.038,2,11v3c0,.553-.448,1-1,1s-1-.447-1-1Zm24,4c0,3.314-2.686,6-6,6s-6-2.686-6-6,2.686-6,6-6,6,2.686,6,6Zm-2.5,0c0-.553-.447-1-1-1h-5c-.553,0-1,.447-1,1s.447,1,1,1h5c.553,0,1-.447,1-1ZM6,11c0-.28,.023-.562,.069-.834,.092-.545-.275-1.061-.82-1.152-.556-.085-1.062,.276-1.152,.82-.064,.383-.097,.774-.097,1.166,0,2.888-.553,6.436-3.188,6.937-.542,.104-.898,.627-.795,1.17,.092,.479,.511,.812,.981,.812,2.693-.534,5.001-2.319,5.001-8.919ZM.999,19.919c-.063,.013,.062,0,0,0H.999ZM12.006,11.028c.015,.539,.452,.972,.994,.972,.552,0,1-.448,1-1h0c0-1.654-1.346-3-3-3s-2.998,1.344-3,2.997c0,.001,0,.002,0,.003l.006,1c0,3.874-1.324,5.923-1.339,5.945-1.078,1.497-2.298,3.195-5.442,4.093-.531,.152-.838,.706-.687,1.236,.125,.439,.526,.726,.961,.726,.091,0,.184-.013,.275-.038,3.812-1.09,5.375-3.263,6.552-4.9,.069-.101,1.679-2.524,1.679-7.07l-.006-.991h0c0-.552,.448-1,1-1s1,.448,1,1.024c0,0,.005,.003,.005,.003Zm-1.005-7.028c-1.984,0-3.885,.851-5.213,2.332-.369,.412-.335,1.044,.076,1.412,.413,.37,1.044,.335,1.412-.076,.95-1.061,2.308-1.668,3.725-1.668,2.161,0,4.029,1.362,4.719,3.339,.163,.466,.624,.757,1.111,.675,.598-.101,.989-.712,.794-1.286-.952-2.797-3.58-4.728-6.624-4.728Zm8.958,6.132c.048,.498,.486,.868,.987,.868,.596,0,1.059-.519,.999-1.112-.157-1.544-.64-3.043-1.42-4.389-.276-.479-.89-.642-1.366-.364-.479,.276-.642,.889-.364,1.366,.645,1.113,1.041,2.353,1.165,3.631Zm-10.641,11.2c-.288,.32-.604,.618-.939,.885-.433,.344-.504,.974-.161,1.405,.197,.249,.489,.378,.783,.378,.218,0,.438-.071,.622-.217,.423-.337,.821-.712,1.184-1.115,.369-.411,.335-1.043-.076-1.412-.41-.369-1.042-.334-1.412,.076Z"/>
</svg>
