<?xml version="1.0" encoding="UTF-8"?>
<svg xmlns="http://www.w3.org/2000/svg" id="Layer_1" data-name="Layer 1" viewBox="0 0 24 24">
  <path d="m17,10H7v-5h10v5Zm6-5v9c0,2.761-2.239,5-5,5H6c-2.761,0-5-2.239-5-5V5C1,2.239,3.239,0,6,0h12c2.761,0,5,2.239,5,5Zm-15,10c0-.828-.672-1.5-1.5-1.5s-1.5.672-1.5,1.5.672,1.5,1.5,1.5,1.5-.672,1.5-1.5Zm11,0c0-.552-.448-1-1-1h-7c-.552,0-1,.448-1,1s.448,1,1,1h7c.552,0,1-.448,1-1Zm0-5v-5c0-1.105-.895-2-2-2H7c-1.105,0-2,.895-2,2v5c0,1.105.895,2,2,2h10c1.105,0,2-.895,2-2Zm-1,11H6c-1.075,0-2.089-.251-3-.685v1.185c0,1.381,1.119,2.5,2.5,2.5h13c1.381,0,2.5-1.119,2.5-2.5v-1.185c-.911.435-1.925.685-3,.685Z"/>
</svg>
