<?xml version="1.0" encoding="UTF-8"?>
<svg xmlns="http://www.w3.org/2000/svg" id="Layer_1" data-name="Layer 1" viewBox="0 0 24 24">
  <path d="m19,0H5C2.239,0,0,2.239,0,5v14c0,2.761,2.239,5,5,5h14c2.761,0,5-2.239,5-5V5c0-2.761-2.239-5-5-5ZM5.5,4c.828,0,1.5.672,1.5,1.5s-.672,1.5-1.5,1.5-1.5-.672-1.5-1.5.672-1.5,1.5-1.5Zm2,16H3.5c-.5,0-.5-.5-.5-.5,0-1.381,1.119-2.5,2.5-2.5s2.5,1.119,2.5,2.5c0,0,0,.5-.5.5Zm-3.5-5.5c0-.828.672-1.5,1.5-1.5s1.5.672,1.5,1.5-.672,1.5-1.5,1.5-1.5-.672-1.5-1.5Zm3.5-3.5H3.5c-.5,0-.5-.5-.5-.5,0-1.381,1.119-2.5,2.5-2.5s2.5,1.119,2.5,2.5c0,0,0,.5-.5.5Zm4.5,7h-1c-.552,0-1-.448-1-1s.448-1,1-1h1c.552,0,1,.448,1,1s-.448,1-1,1Zm0-9h-1c-.552,0-1-.448-1-1s.448-1,1-1h1c.552,0,1,.448,1,1s-.448,1-1,1Zm3.176-1.119c-.16-.136-.218-.357-.146-.553.072-.197.26-.328.469-.328h1.5l.531-1.49c.073-.196.26-.325.469-.325s.396.13.469.325l.531,1.49h1.5c.21,0,.398.131.47.329s.013.419-.148.554l-1.183.964.489,1.396c.067.202,0,.424-.169.553-.169.129-.4.138-.578.023l-1.377-.897-1.354.906c-.084.056-.181.084-.278.084-.106,0-.211-.033-.3-.1-.17-.127-.241-.348-.177-.55l.47-1.413-1.189-.967Zm3.324,11.119c-1.381,0-2.5-1.119-2.5-2.5s1.119-2.5,2.5-2.5,2.5,1.119,2.5,2.5-1.119,2.5-2.5,2.5Z"/>
</svg>
