<?xml version="1.0" encoding="UTF-8"?>
<svg xmlns="http://www.w3.org/2000/svg" id="Layer_1" data-name="Layer 1" viewBox="0 0 24 24">
  <path d="M0,18v1.5c0,2.485,2.015,4.5,4.5,4.5h7c2.485,0,4.5-2.015,4.5-4.5v-1.5H0Zm9,4h-2c-.552,0-1-.447-1-1s.448-1,1-1h2c.552,0,1,.447,1,1s-.448,1-1,1ZM21.5,5.001h-5c-1.376-.001-2.501,1.124-2.5,2.5l.002,7.411c0,.858,.949,1.378,1.672,.915l2.826-1.827h3c1.381,0,2.5-1.119,2.5-2.5v-3.999c0-1.381-1.119-2.5-2.5-2.5Zm-1.886,7.023c-.359,.296-.871,.296-1.23,0-.878-.725-2.385-2.148-2.385-3.372,0-.911,.672-1.65,1.5-1.65s1.5,.739,1.5,1.65c0-.911,.672-1.65,1.5-1.65s1.5,.739,1.5,1.65c0,1.225-1.507,2.648-2.385,3.372Zm-7.409,3.977H0V5C0,2.243,2.243,0,5,0h6c2.08,0,3.865,1.278,4.617,3.089-2.059,.412-3.617,2.233-3.617,4.413l.002,7.41c0,.379,.075,.745,.204,1.088Z"/>
</svg>
