<?xml version="1.0" encoding="UTF-8"?>
<svg xmlns="http://www.w3.org/2000/svg" id="Layer_1" data-name="Layer 1" viewBox="0 0 24 24">
  <path d="m8.37,3.79c-.697-.52-1.531-.77-2.369-.763v-.526c0-.828.672-1.5,1.5-1.5s1.5.672,1.5,1.5v1.875c-.186-.214-.396-.411-.631-.586Zm3.131,3.21c.828,0,1.5-.672,1.5-1.5V1.5c0-.828-.672-1.5-1.5-1.5s-1.5.672-1.5,1.5v4c0,.828.672,1.5,1.5,1.5Zm4,0c.828,0,1.5-.672,1.5-1.5V1.5c0-.828-.672-1.5-1.5-1.5s-1.5.672-1.5,1.5v4c0,.828.672,1.5,1.5,1.5Zm4-6c-.828,0-1.5.672-1.5,1.5v3c0,.828.672,1.5,1.5,1.5s1.5-.672,1.5-1.5v-3c0-.828-.672-1.5-1.5-1.5Zm-2,7.374c-.609.425-1.358.663-2.163.626-.678-.031-1.294-.273-1.81-.649-.572.408-1.273.649-2.028.649-.659,0-1.276-.183-1.803-.501-.059.147-.403.817-.827,1.269-.001-.002-.003-.003-.004-.004-.013.013-1.898,1.761-1.9,1.763-.392.369-1.005.367-1.389-.017-.39-.39-.39-1.023,0-1.414l1.839-1.698h0s0,0,0,0c.859-.859.773-2.304-.256-3.046-.808-.582-1.941-.412-2.646.291l-2.211,2.186c-1.73,1.71-1.738,4.502-.018,6.222l4.13,4.13c.375.375.586.884.586,1.414v3.404c0,.552.448,1,1,1h10c.552,0,1-.448,1-1v-2.199c0-1.233.248-2.475.862-3.545.746-1.3,1.138-2.773,1.138-4.272v-4.319c-.455.217-.964.338-1.5.338-.743,0-1.433-.233-2-.63Z"/>
</svg>
