<?xml version="1.0" encoding="UTF-8"?>
<svg xmlns="http://www.w3.org/2000/svg" id="Layer_1" data-name="Layer 1" viewBox="0 0 24 24">
  <path d="m23.454,5.598l-2.247-2.305c-.391-.391-1.024-.391-1.414,0-.39.391-.391,1.024,0,1.414l1.234,1.293h-2.752c-1.057-1.144-1.038-2.98.104-4.121.092-.092.191-.173.291-.251-.911-.997-2.213-1.628-3.67-1.628h-6c-2.761,0-5,2.239-5,5v2.056c.594.095,1.164.365,1.621.823,1.132,1.132,1.158,2.945.099,4.121h-2.747l1.234-1.293c.39-.391.39-1.024,0-1.414-.391-.391-1.024-.391-1.414,0l-2.247,2.305c-.729.729-.729,1.921,0,2.649l2.247,2.459c.391.391,1.024.391,1.414,0h0c.39-.39.391-1.024,0-1.414l-1.08-1.293h2.603c.496.551.77,1.253.77,2,0,.802-.313,1.556-.88,2.122-.457.457-1.026.729-1.62.829v.049c0,2.761,2.239,5,5,5h6c2.761,0,5-2.239,5-5v-6.055c-.596-.096-1.165-.367-1.621-.824-1.13-1.13-1.164-2.944-.109-4.121h2.603l-1.08,1.293c-.39.391-.39,1.024,0,1.414h0c.391.391,1.024.391,1.414,0l2.247-2.459c.729-.729.729-1.921,0-2.649Zm-10.454,15.402h-2c-.553,0-1-.448-1-1s.447-1,1-1h2c.553,0,1,.448,1,1s-.447,1-1,1Zm1.799-6.987c-.416.5-1.025.787-1.673.787h-.326v.7c0,.441-.358.8-.8.8s-.8-.359-.8-.8v-.7h-.278c-.66,0-1.289-.285-1.727-.783-.208-.236-.253-.55-.122-.84.104-.23.352-.477.732-.477.119,0,.41.021.552.213.131.179.342.287.564.287h2.204c.316,0,.574-.257.574-.574,0-.272-.194-.509-.462-.563l-2.688-.538c-.925-.185-1.652-.882-1.812-1.735-.12-.647.049-1.305.463-1.804.416-.5,1.025-.786,1.672-.786h.327v-.7c0-.441.358-.8.8-.8s.8.359.8.8v.7h.277c.66,0,1.29.285,1.728.782.207.236.253.551.121.841-.104.23-.352.476-.732.476-.119,0-.41-.021-.552-.213-.131-.179-.342-.287-.564-.287h-2.204c-.316,0-.573.257-.573.574,0,.272.194.509.461.562l2.688.539c.924.185,1.652.882,1.812,1.735.12.647-.049,1.305-.463,1.803Z"/>
</svg>
