<?xml version="1.0" encoding="UTF-8"?>
<svg xmlns="http://www.w3.org/2000/svg" id="Layer_1" data-name="Layer 1" viewBox="0 0 24 24">
  <path d="m18,12c-3.309,0-6,2.691-6,6s2.691,6,6,6,6-2.691,6-6-2.691-6-6-6Zm0,2c1.105,0,2,.895,2,2s-.895,2-2,2-2-.895-2-2,.895-2,2-2Zm3,6.643c-.734.832-1.806,1.357-3,1.357s-2.266-.526-3-1.357v-.143c0-.828.672-1.5,1.5-1.5h3c.828,0,1.5.672,1.5,1.5v.143ZM0,8v-1C0,4.243,2.243,2,5,2h1v-1c0-.552.448-1,1-1s1,.448,1,1v1h8v-1c0-.552.448-1,1-1s1,.448,1,1v1h1c2.757,0,5,2.243,5,5v1H0Zm12.709,16h-7.709c-2.757,0-5-2.243-5-5v-9h18c-4.418,0-8,3.582-8,8,0,2.39,1.048,4.534,2.709,6Z"/>
</svg>
