<?xml version="1.0" encoding="UTF-8"?>
<svg xmlns="http://www.w3.org/2000/svg" id="Layer_1" data-name="Layer 1" viewBox="0 0 24 24">
  <path d="m16.5,0H7.498C5.017,0,2.998,2.019,2.998,4.5v18.5c0,.371.205.711.533.885.328.172.725.15,1.031-.06l2.105-1.439,2.106,1.439c.17.116.367.175.564.175s.395-.059.565-.175l2.101-1.439,2.1,1.439c.341.232.79.232,1.13,0l2.101-1.438,2.1,1.438c.307.21.703.232,1.031.06s.534-.514.534-.885V4.5c0-2.481-2.019-4.5-4.5-4.5Zm-8.3,8.4c.442,0,.8.358.8.8s-.358.8-.8.8h-1.101v2.2c0,.442-.358.8-.8.8s-.8-.358-.8-.8v-6.4c0-.442.358-.8.8-.8h1.9c.442,0,.8.358.8.8s-.358.8-.8.8h-1.101v1.801h1.101Zm4.5,0c.442,0,.8.358.8.8s-.358.8-.8.8h-1.101v1.4h1.101c.442,0,.8.358.8.8s-.358.8-.8.8h-1.9c-.442,0-.8-.358-.8-.8v-6.4c0-.442.358-.8.8-.8h1.9c.442,0,.8.358.8.8s-.358.8-.8.8h-1.101v1.801h1.101Zm4.5,0c.442,0,.8.358.8.8s-.358.8-.8.8h-1.101v1.4h1.101c.442,0,.8.358.8.8s-.358.8-.8.8h-1.9c-.442,0-.8-.358-.8-.8v-6.4c0-.442.358-.8.8-.8h1.9c.442,0,.8.358.8.8s-.358.8-.8.8h-1.101v1.801h1.101Z"/>
</svg>
