<?xml version="1.0" encoding="UTF-8"?>
<svg xmlns="http://www.w3.org/2000/svg" id="Layer_1" data-name="Layer 1" viewBox="0 0 24 24">
  <path d="M21,11V3.529c.426,.352,.924,.711,1.503,1.043,.479,.274,1.09,.109,1.365-.37,.274-.479,.109-1.09-.371-1.364-1.774-1.018-2.643-2.358-2.649-2.368-.182-.291-.502-.466-.845-.468h-.004c-.342,0-.661,.176-.845,.464-.092,.145-2.309,3.534-7.154,3.534S4.938,.61,4.848,.47C4.666,.179,4.347,.004,4.003,.002h-.004C3.657,.002,3.338,.178,3.154,.466c-.008,.014-.877,1.354-2.651,2.372C.023,3.112-.142,3.724,.132,4.202c.275,.479,.886,.645,1.365,.37,.579-.332,1.077-.691,1.503-1.043v7.471c-1.654,0-3,1.346-3,3v1.585c0,1.224,.731,2.331,1.82,2.757,1.932,.755,3.18,2.583,3.18,4.658,0,.553,.448,1,1,1s1-.447,1-1c0-2.757,2.243-5,5-5s5,2.243,5,5c0,.553,.448,1,1,1s1-.447,1-1c0-2.075,1.248-3.903,3.18-4.658,1.089-.426,1.82-1.533,1.82-2.757v-1.585c0-1.654-1.346-3-3-3Zm-2-7.472v7.472h-6V5.938c2.739-.231,4.718-1.345,6-2.41Zm-14,.005c1.285,1.064,3.258,2.198,6,2.425v5.041H5V3.534Z"/>
</svg>
