<?xml version="1.0" encoding="UTF-8"?>
<svg xmlns="http://www.w3.org/2000/svg" id="Layer_1" data-name="Layer 1" viewBox="0 0 24 24">
  <path d="m21.72,17.248l-.193,2.19c-.228,2.601-2.369,4.562-4.98,4.562H7.284c-2.583,0-4.771-2.016-4.983-4.59l-.187-2.276c.82.536,1.838.866,2.886.866,1.327,0,2.617-.517,3.5-1.328.883.812,2.173,1.328,3.5,1.328s2.617-.517,3.5-1.328c.883.812,2.173,1.328,3.5,1.328.976,0,1.932-.28,2.72-.752ZM12,6.016c-.044,0-.081.018-.111.053-1.289,1.484-1.389,2.236-1.389,2.432,0,.827.673,1.5,1.5,1.5s1.5-.673,1.5-1.5c0-.195-.1-.948-1.389-2.432-.03-.035-.067-.052-.111-.052Zm10.95-2.753l-.958,10.898s-.992,1.839-2.992,1.839c-1.125,0-2.256-.606-2.576-1.381-.154-.375-.52-.619-.924-.619s-.77.244-.924.619c-.319.774-1.451,1.381-2.576,1.381s-2.256-.606-2.576-1.381c-.154-.375-.52-.619-.924-.619s-.77.244-.924.619c-.319.774-1.451,1.381-2.576,1.381-2.5,0-3.138-1.927-3.138-1.927L.972,3.246c-.068-.833.217-1.664.784-2.279s1.37-.967,2.206-.967h16c.839,0,1.645.355,2.212.973.567.619.85,1.454.776,2.29Zm-7.45,5.237c0-1.048-.632-2.307-1.878-3.743-.818-.942-2.426-.943-3.244,0-1.246,1.436-1.878,2.695-1.878,3.743,0,1.93,1.57,3.5,3.5,3.5s3.5-1.57,3.5-3.5Z"/>
</svg>
