<?xml version="1.0" encoding="UTF-8"?>
<svg xmlns="http://www.w3.org/2000/svg" id="Layer_1" data-name="Layer 1" viewBox="0 0 24 24">
  <path d="m22,23c0,.552-.448,1-1,1h-5v-5.887c0-.996.678-1.922,1.661-2.085,1.251-.207,2.339.758,2.339,1.972v4h1c.552,0,1,.448,1,1Zm0-19.5c-.126,0-.249.015-.368.037-.793-2.065-2.791-3.537-5.132-3.537s-4.339,1.472-5.132,3.537c-.12-.022-.242-.037-.368-.037-1.105,0-2,.895-2,2s.895,2,2,2c.126,0,.249-.015.368-.037.273.712.687,1.355,1.212,1.889-5.969,1.487-8.107,7.479-8.502,11.687-1.254-.909-2.079-2.376-2.079-4.039V6c0-2.467,1.533-4,4-4,.552,0,1-.448,1-1s-.448-1-1-1C2.411,0,0,2.411,0,6v11c0,3.86,3.14,7,7,7h7v-6c0-2.206,1.794-4,4-4,.732,0,1.409.212,2,.556v-4.817c.725-.599,1.289-1.384,1.632-2.276.12.022.242.037.368.037,1.105,0,2-.895,2-2s-.895-2-2-2Z"/>
</svg>
