<?xml version="1.0" encoding="UTF-8"?>
<svg xmlns="http://www.w3.org/2000/svg" id="Layer_1" data-name="Layer 1" viewBox="0 0 24 24">
  <path d="m23.861,18.104l-2.987,5.381c-.183.329-.523.515-.875.515-.164,0-.331-.04-.485-.126-.482-.269-.657-.877-.388-1.359l2.509-4.517h-4.153c-.517,0-.987-.263-1.259-.701-.272-.439-.296-.979-.066-1.441l2.97-5.342c.269-.481.879-.656,1.36-.388.483.269.657.877.388,1.36l-2.51,4.512h4.154c.509,0,.976.256,1.249.686.273.429.308.96.093,1.421Zm-6.379,1.894h.754l-.857,1.544c-.242.434-.363.903-.376,1.368-1.523.699-3.217,1.09-5.002,1.09C5.373,24,0,18.627,0,12S5.373,0,12,0s12,5.373,12,12c0,.765-.072,1.512-.209,2.237-.398-.156-.829-.239-1.272-.239h-.753l.857-1.54c.803-1.446.281-3.276-1.162-4.078-.782-.437-1.676-.484-2.461-.206v-.174c0-.552-.448-1-1-1s-1,.448-1,1v2.222l-2.634,4.742c-.542,1.088-.483,2.354.157,3.388.64,1.031,1.746,1.646,2.959,1.646ZM7,8c0-.553-.448-1-1-1s-1,.447-1,1v2c0,.553.448,1,1,1s1-.447,1-1v-2Zm4,0c0-.553-.448-1-1-1s-1,.447-1,1v2c0,.553.448,1,1,1s1-.447,1-1v-2Zm3,3c.552,0,1-.447,1-1v-2c0-.553-.448-1-1-1s-1,.447-1,1v2c0,.553.448,1,1,1Z"/>
  <path d="m23.861,18.104l-2.987,5.381c-.183.329-.523.515-.875.515-.164,0-.331-.04-.485-.126-.482-.269-.657-.877-.388-1.359l2.509-4.517h-4.153c-.517,0-.987-.263-1.259-.701-.272-.439-.296-.979-.066-1.441l2.97-5.342c.269-.481.879-.656,1.36-.388.483.269.657.877.388,1.36l-2.51,4.512h4.154c.509,0,.976.256,1.249.686.273.429.308.96.093,1.421Zm-6.379,1.894h.754l-.857,1.544c-.242.434-.363.903-.376,1.368-1.523.699-3.217,1.09-5.002,1.09C5.373,24,0,18.627,0,12S5.373,0,12,0s12,5.373,12,12c0,.765-.072,1.512-.209,2.237-.398-.156-.829-.239-1.272-.239h-.753l.857-1.54c.803-1.446.281-3.276-1.162-4.078-.782-.437-1.676-.484-2.461-.206v-.174c0-.552-.448-1-1-1s-1,.448-1,1v2.222l-2.634,4.742c-.542,1.088-.483,2.354.157,3.388.64,1.031,1.746,1.646,2.959,1.646ZM7,8c0-.553-.448-1-1-1s-1,.447-1,1v2c0,.553.448,1,1,1s1-.447,1-1v-2Zm4,0c0-.553-.448-1-1-1s-1,.447-1,1v2c0,.553.448,1,1,1s1-.447,1-1v-2Zm3,3c.552,0,1-.447,1-1v-2c0-.553-.448-1-1-1s-1,.447-1,1v2c0,.553.448,1,1,1Z"/>
</svg>
