<?xml version="1.0" encoding="UTF-8"?>
<svg xmlns="http://www.w3.org/2000/svg" id="Layer_1" data-name="Layer 1" viewBox="0 0 24 24">
  <path d="m17,0c1.381,0,2.5,1.119,2.5,2.5s-1.119,2.5-2.5,2.5-2.5-1.119-2.5-2.5,1.119-2.5,2.5-2.5Zm-5,5c.403,0,.778-.104,1.115-.273-.381-.659-.615-1.412-.615-2.227s.234-1.568.614-2.227c-.337-.169-.711-.273-1.114-.273-1.381,0-2.5,1.119-2.5,2.5s1.119,2.5,2.5,2.5Zm-5,0c.403,0,.778-.104,1.115-.273-.381-.659-.615-1.412-.615-2.227s.234-1.568.614-2.227c-.337-.169-.711-.273-1.114-.273-1.381,0-2.5,1.119-2.5,2.5s1.119,2.5,2.5,2.5Zm17,18v-7.238c0-.618-.314-1.18-.841-1.502-.528-.322-1.174-.347-1.728-.064l-.377.195c-1.757.912-5.026,2.609-9.055,2.609s-7.298-1.697-9.055-2.609l-.378-.195c-.552-.284-1.198-.259-1.727.064-.526.322-.841.884-.841,1.502v7.238c0,.552.447,1,1,1s1-.448,1-1v-6.846l.023.012c1.908.99,5.46,2.834,9.977,2.834s8.068-1.844,9.977-2.834l.023-.012v6.846c0,.552.447,1,1,1s1-.448,1-1Zm-20-3.681v3.681c0,.552.447,1,1,1s1-.448,1-1v-2.96c-.716-.226-1.389-.467-2-.721Zm5,1.427v2.254c0,.552.447,1,1,1s1-.448,1-1v-2.048c-.692-.037-1.36-.104-2-.206Zm9-.706v2.96c0,.552.447,1,1,1s1-.448,1-1v-3.68c-.611.254-1.284.495-2,.721Zm-4,.847v2.113c0,.552.447,1,1,1s1-.448,1-1v-2.435c-.64.135-1.302.249-2,.323Zm6.514-8.468c.474-.242.979-.374,1.486-.407v-2.012c0-2.206-1.794-4-4-4h-2c-2.206,0-4,1.794-4,4v5c3.54,0,6.528-1.551,8.133-2.384l.381-.197Zm-17.032-.002s1.069.549,1.478.748v-3.165c0-1.538.586-2.937,1.54-4h-.54c-2.206,0-4,1.794-4,4v2.008c.521.028,1.039.16,1.522.409Zm6.519,2.409v-4.826c0-1.538.586-2.937,1.54-4h-.54c-2.206,0-4,1.794-4,4v4.04c.902.332,1.912.614,3,.786Z"/>
</svg>
