<?xml version="1.0" encoding="UTF-8"?>
<svg xmlns="http://www.w3.org/2000/svg" id="Layer_1" data-name="Layer 1" viewBox="0 0 24 24">
  <path d="m23.975,22.634c-.141.811-.907,1.366-1.73,1.366h-11.245c-1.657,0-3-1.343-3-3v-2h11.504l-.022-.036c1.019-.153,1.855-.793,2.519-1.759v.795c0,1.264-.219,2.345.887,2.787.741.296,1.232,1.02,1.088,1.847Zm-1.975-14.134c0,4.694-1.343,8.5-3,8.5s-3-3.806-3-8.5S17.343,0,19,0s3,3.806,3,8.5Zm-2,0c0-1.105-.448-2-1-2s-1,.895-1,2,.448,2,1,2,1-.895,1-2Zm-15,8.5h10.868c-1.273-2.009-1.868-5.262-1.868-8.5s.595-6.491,1.868-8.5H5C2.196,0,0,3.5,0,8.5s2.196,8.5,5,8.5Z"/>
</svg>
