<?xml version="1.0" encoding="UTF-8"?>
<svg xmlns="http://www.w3.org/2000/svg" id="Layer_1" data-name="Layer 1" viewBox="0 0 24 24">
  <path d="M15.463,1.227C14.169,.177,12.475-.224,10.814,.125c-2.199,.463-3.906,2.278-4.249,4.518-.334,2.187,.661,4.35,2.534,5.511,.247,.153,.4,.46,.4,.846,0,1.103,.897,2,2,2h1c1.103,0,2-.897,2-2.046,0-.339,.158-.649,.412-.807,1.62-1.011,2.588-2.748,2.588-4.647,0-1.666-.742-3.223-2.037-4.273Zm-1.528,3.727c-.201,.407-.535,.727-.935,.939v3.107c0,.552-.447,1-1,1s-1-.448-1-1v-3.107c-.4-.212-.734-.532-.935-.939-.218-.44,.143-.954,.634-.954h2.602c.491,0,.852,.514,.634,.954Zm9.065,2.039V15.994c0,2.761-2.239,5-5,5H8.775l-4.479,2.669c-.332,.223-.73,.337-1.136,.337-.348,0-.702-.084-1.025-.257-.7-.375-1.135-1.1-1.135-1.894V6.994c0-2.535,1.893-4.607,4.339-4.933-.364,.705-.626,1.47-.75,2.281-.423,2.771,.721,5.516,2.943,7.164,.249,1.968,1.934,3.495,3.968,3.495h1c2.02,0,3.694-1.521,3.962-3.49,1.913-1.409,3.038-3.615,3.038-6.01,0-1.218-.3-2.39-.843-3.44,2.448,.325,4.343,2.397,4.343,4.934Z"/>
</svg>
