<?xml version="1.0" encoding="UTF-8"?>
<svg xmlns="http://www.w3.org/2000/svg" id="Layer_1" data-name="Layer 1" viewBox="0 0 24 24">
  <path d="m23.554,18.057c-.624-2.061-2.096-6.232-4.054-7.298-.891-.484-1.869-.684-2.831-.665.488-.807.786-1.735.786-2.728,0-2.182-3.025-5.468-4.569-7.004-.488-.485-1.283-.485-1.771,0-1.545,1.536-4.569,4.822-4.569,7.004,0,.992.298,1.92.786,2.728-.962-.02-1.941.18-2.831.665-1.958,1.065-3.43,5.237-4.054,7.298-.197.651.191,1.326.864,1.503,2.132.562,6.557,1.526,8.514.461.954-.519,1.688-1.285,2.175-2.167.488.882,1.221,1.648,2.175,2.167,1.958,1.065,6.382.101,8.514-.461.673-.177,1.061-.852.864-1.503Zm-11.554-4.057c-.828,0-1.5-.672-1.5-1.5s.672-1.5,1.5-1.5,1.5.672,1.5,1.5-.672,1.5-1.5,1.5Zm7.183-8.193c.82.083,1.705.298,2.403.505.717.213,1.098.991.826,1.687-.219.562-.518,1.228-.861,1.839-.357-.338-.72-.631-1.096-.835-.351-.19-.718-.353-1.098-.484.064-.382.097-.767.097-1.151,0-.486-.1-1.01-.271-1.56ZM1.588,8c-.272-.697.109-1.475.826-1.687.698-.207,1.583-.422,2.403-.505-.172.55-.271,1.074-.271,1.56,0,.385.033.77.097,1.151-.38.132-.748.294-1.099.484-.376.205-.739.497-1.095.835-.342-.611-.641-1.276-.861-1.838Zm12.537,14.144c-.443.68-.931,1.194-1.143,1.425-.529.575-1.434.575-1.963,0-.213-.231-.7-.744-1.142-1.422.327-.102.634-.221.905-.369.435-.236.842-.515,1.218-.829.376.314.785.593,1.22.83.27.147.579.264.905.366Z"/>
</svg>
