<?xml version="1.0" encoding="UTF-8"?>
<svg xmlns="http://www.w3.org/2000/svg" id="Layer_1" data-name="Layer 1" viewBox="0 0 24 24">
  <path d="M23.891,14.818l-1.547-6.704c-.559-2.422-2.686-4.114-5.172-4.114H6.829c-2.486,0-4.613,1.692-5.172,4.114L.109,14.818c-.291,1.264,.005,2.57,.812,3.585s2.014,1.597,3.311,1.597h15.536c1.296,0,2.503-.582,3.311-1.597s1.103-2.321,.812-3.585Zm-6.891-1.568c0,.966-.784,1.75-1.75,1.75s-1.75-.784-1.75-1.75c0-.086,.013-.168,.025-.25h-3.05c.012,.082,.025,.164,.025,.25,0,.966-.784,1.75-1.75,1.75s-1.75-.784-1.75-1.75c0-.49,.203-.932,.528-1.25-.325-.318-.528-.76-.528-1.25,0-.966,.784-1.75,1.75-1.75s1.75,.784,1.75,1.75c0,.086-.013,.168-.025,.25h3.05c-.012-.082-.025-.164-.025-.25,0-.966,.784-1.75,1.75-1.75s1.75,.784,1.75,1.75c0,.49-.203,.932-.528,1.25,.325,.318,.528,.76,.528,1.25Z"/>
</svg>
