<?xml version="1.0" encoding="UTF-8"?>
<svg xmlns="http://www.w3.org/2000/svg" id="Layer_1" data-name="Layer 1" viewBox="0 0 24 24">
  <path d="m24,15v4c0,.553-.447,1-1,1s-1-.447-1-1v-2.604l-4.346,4.345c-.949.951-2.608.952-3.56,0l-1.104-1.104c-.195-.195-.536-.194-.729,0l-4.052,4.07c-.195.195-.452.294-.709.294-.255,0-.511-.097-.706-.291-.391-.39-.393-1.023-.003-1.415l4.053-4.07c.953-.953,2.61-.953,3.562,0l1.104,1.104c.195.195.536.194.729,0l4.329-4.328h-2.568c-.553,0-1-.447-1-1s.447-1,1-1h4c1.103,0,2,.897,2,2Zm-14.573,1.812l-4.697,4.708C1.863,19.328,0,15.888,0,12,0,5.373,5.373,0,12,0c6.473,0,11.735,5.129,11.977,11.544-.586-.336-1.255-.544-1.977-.544h-4c-1.654,0-3,1.346-3,3,0,1.016.51,1.912,1.285,2.455l-.41.41-.054-.054c-.825-.826-1.989-1.301-3.193-1.302h-.003c-1.204,0-2.369.474-3.198,1.304Zm-1.313-1.387l4.408-2.696c.298-.183.479-.505.479-.854v-5.876c0-.553-.447-1-1-1s-1,.447-1,1v5.315l-3.93,2.403c-.472.289-.62.904-.332,1.375.189.309.518.479.854.479.178,0,.358-.047.521-.146Z"/>
</svg>
