<?xml version="1.0" encoding="UTF-8"?>
<svg xmlns="http://www.w3.org/2000/svg" id="Layer_1" data-name="Layer 1" viewBox="0 0 24 24">
  <path d="m21.985,19.439c-.021-1.424-.78-2.975-2.258-4.61-1.452-1.606-2.898-4.765-3.955-7.071l-.722-1.556c-.704-1.495-.963-2.045-1.039-3.703v-.013c-.061-1.39-1.206-2.486-2.598-2.486h0c-2.998,0-5.429,2.43-5.429,5.429v6.259c.858-.393,1.649-.677,2.239-.866.554-.178,1.14.16,1.273.726h0c.12.51-.171,1.023-.669,1.183-2.031.653-6.842,2.59-6.842,6.269,0,2.408,1.564,5,5,5h2.403c-.242-.341-.346-.674-.381-.945-.077-.595.138-1.029.205-1.148s.331-.526.88-.766c.47-.207,1.249-.327,2.282.259.644.365,1.157.799,1.652,1.219.847.715,1.535,1.286,2.685,1.366,1.958-.041,3.426-.581,4.337-1.632,1.024-1.182.972-2.542.936-2.912Z"/>
</svg>
