<?xml version="1.0" encoding="UTF-8"?>
<svg xmlns="http://www.w3.org/2000/svg" id="Layer_1" data-name="Layer 1" viewBox="0 0 24 24">
  <path d="m22.364,19.763l1.302,1.208c.446.446.446,1.17,0,1.616l-.522.6c-.551.552-1.277.813-2,.813-3.714,0-9.143-5.143-9.143-9.143,0-.723.261-1.449.813-2l.6-.522c.446-.446,1.17-.446,1.616,0l1.208,1.302c.446.446.446,1.17,0,1.616l-1.025,1.036c.901,2.244,2.429,3.71,4.5,4.5l1.036-1.025c.446-.446,1.17-.446,1.616,0Zm-19.364-3.763h1V.1C1.672.575,0,2.624,0,5v12.025c.699-.527,1.525-.86,2.395-.964.199-.041.402-.061.605-.061Zm7.717,2H3c-1.657,0-3,1.343-3,3s1.343,3,3,3h12c.216,0,.422-.037.631-.064-2.122-1.516-3.954-3.69-4.914-5.936Zm-.717-3.143c0-1.3.497-2.513,1.398-3.414l.662-.582c1.192-1.131,3.217-1.107,4.384.061l1.259,1.354c.979.978,1.129,2.525.441,3.724h1.855V5c0-2.761-2.239-5-5-5H6v16h4.111c-.066-.385-.111-.768-.111-1.143Z"/>
</svg>
