<?xml version="1.0" encoding="UTF-8"?>
<svg xmlns="http://www.w3.org/2000/svg" id="Layer_1" data-name="Layer 1" viewBox="0 0 24 24">
  <path d="M0,6v-1C0,2.243,2.243,0,5,0h2.528c.463,0,.927,.109,1.341,.316l3.156,1.578c.138,.069,.293,.105,.447,.105h6.528c2.414,0,4.434,1.721,4.899,4H0Zm24,12c0,3.314-2.686,6-6,6s-6-2.686-6-6,2.686-6,6-6,6,2.686,6,6Zm-2.5,0c0-.553-.447-1-1-1h-1.5v-1.5c0-.553-.447-1-1-1s-1,.447-1,1v1.5h-1.5c-.553,0-1,.447-1,1s.447,1,1,1h1.5v1.5c0,.553,.447,1,1,1s1-.447,1-1v-1.5h1.5c.553,0,1-.447,1-1Zm-11.5,0c0-4.411,3.589-8,8-8,2.39,0,4.533,1.059,6,2.726v-4.726H0v9c0,2.757,2.243,5,5,5h6.082c-.684-1.178-1.082-2.542-1.082-4Z"/>
</svg>
