<?xml version="1.0" encoding="UTF-8"?>
<svg xmlns="http://www.w3.org/2000/svg" id="Layer_1" data-name="Layer 1" viewBox="0 0 24 24">
  <path d="m23.123.031c-.528-.137-1.08.185-1.218.72-.341,1.324-1.535,2.249-2.905,2.249H4.874c-1.37,0-2.565-.925-2.906-2.249C1.831.217,1.287-.106.751.031.216.169-.106.714.032,1.249c.542,2.106,2.377,3.606,4.526,3.741l-2.333,6.187c-.664,1.895.19,4.001,1.986,4.899.038.019,1.928.682,1.928.682l.874,4.081c.393,1.831,2.038,3.161,3.912,3.161h2.15c1.874,0,3.519-1.33,3.91-3.161l.875-4.08s1.89-.664,1.928-.683c1.796-.898,2.65-3.005,1.979-4.922l-2.328-6.174c2.095-.183,3.872-1.665,4.404-3.732.138-.534-.185-1.08-.72-1.218Zm-14.623,11.969c-.828,0-1.5-.672-1.5-1.5s.672-1.5,1.5-1.5,1.5.672,1.5,1.5-.672,1.5-1.5,1.5Zm7,0c-.828,0-1.5-.672-1.5-1.5s.672-1.5,1.5-1.5,1.5.672,1.5,1.5-.672,1.5-1.5,1.5Z"/>
</svg>
