<?xml version="1.0" encoding="UTF-8"?>
<svg xmlns="http://www.w3.org/2000/svg" id="Layer_1" data-name="Layer 1" viewBox="0 0 24 24">
  <path d="m20.499,23c-.189,0-.38-.054-.55-.165-.461-.305-.588-.925-.284-1.386.022-.033,2.335-3.647,2.335-9.449s-2.313-9.416-2.336-9.451c-.301-.462-.172-1.082.289-1.384.462-.304,1.079-.176,1.383.284.108.165,2.665,4.114,2.665,10.551s-2.557,10.386-2.665,10.551c-.192.291-.511.449-.836.449Zm-5.499-11c0,2.451,1.971,4.442,4.411,4.491.165-.629.305-1.306.408-2.023-.105.014-.21.032-.319.032-1.381,0-2.5-1.119-2.5-2.5s1.119-2.5,2.5-2.5c.109,0,.213.019.319.032-.103-.717-.243-1.394-.408-2.023-2.44.049-4.411,2.04-4.411,4.491Zm-2,0c0-3.339,2.532-6.096,5.777-6.457-.169-.44-.341-.85-.506-1.205-.802-1.723-2.67-2.646-4.544-2.249C8.425,3.214,3.521,6.854.933,9.632c-1.237,1.328-1.237,3.408,0,4.736,2.588,2.777,7.492,6.418,12.792,7.543.292.062.582.092.869.092,1.56,0,2.999-.886,3.676-2.34.166-.356.338-.765.507-1.206-3.244-.361-5.777-3.118-5.777-6.457Z"/>
</svg>
