<?xml version="1.0" encoding="UTF-8"?>
<svg xmlns="http://www.w3.org/2000/svg" id="Layer_1" data-name="Layer 1" viewBox="0 0 24 24">
  <path d="m15.379,10.124c2.368.558,4.328-1.342,4.328-1.342C19.416,2.822,18.082.018,15.571.009h-.014C12.973.009,11.718,2.82,11.035,6.175c-.015.072,1.119,3.188,4.344,3.948Zm8.509,4.653c-.872-1.655-2.52-2.903-4.146-3.62,0,0-1.588,1.463-4.742.93-3.534-.597-4.601-3.794-4.743-3.83-.21-.053-.439-.1-.691-.143-1.893-.32-3.805.035-5.445,1-.358.211-.504.657-.38,1.053l.011.035c.137.438.577.718,1.028.636,2.576-.468,3.979.012,5.213,1.309-.206.594-.506,1.265-.925,1.954-.005-.005-.01-.01-.015-.015-.774,1.272-1.951,2.585-3.781,3.501-2.89,1.245-3.723,3.26-3.772,3.345l-.015.026h-.485c-.552,0-1,.448-1,1h0c0,.552.448,1,1,1h.432l.216.222c.296.305.809.817,3.35.817,0,0,.002,0,.002,0,4.73,0,7.924-1.364,10.086-3.127-.206-3.022-1.069-3.983-1.93-4.392-.447-.212-.701-.69-.574-1.168h0c.157-.593.813-.911,1.37-.654,1.544.713,2.808,2.193,3.113,5.799.033.39.296.727.673.831h0c.439.122.915-.088,1.09-.509.815-1.965,1.043-4.049.531-5.87.922.153,2.146.492,3.181,1.121.307.187.691.198.995.005l.039-.025c.414-.263.544-.802.315-1.236Z"/>
</svg>
