<?xml version="1.0" encoding="UTF-8"?>
<svg xmlns="http://www.w3.org/2000/svg" id="Layer_1" data-name="Layer 1" viewBox="0 0 24 24">
  <path d="M23.337,10.401c.878,.841,.878,2.356,0,3.198l-1.63,1.63c-.195,.195-.451,.293-.707,.293s-.512-.098-.707-.293c-.391-.39-.391-1.023,0-1.414l.815-.815h-2.108c-.552,0-1-.448-1-1s.448-1,1-1h2.108l-.815-.815c-.391-.391-.391-1.024,0-1.414,.391-.391,1.023-.391,1.414,0l1.63,1.631Zm-6.337-5.401h4.108l-.815,.815c-.391,.391-.391,1.024,0,1.414,.195,.195,.451,.293,.707,.293s.512-.098,.707-.293l1.63-1.63c.878-.842,.878-2.356,0-3.198l-1.63-1.631c-.391-.391-1.023-.391-1.414,0-.391,.39-.391,1.023,0,1.414l.815,.815h-4.108c-.552,0-1,.448-1,1s.448,1,1,1Zm4.707,11.771c-.391-.391-1.023-.391-1.414,0-.391,.39-.391,1.023,0,1.414l.815,.815h-4.108c-.552,0-1,.448-1,1s.448,1,1,1h4.108l-.815,.815c-.391,.391-.391,1.024,0,1.414,.195,.195,.451,.293,.707,.293s.512-.098,.707-.293l1.63-1.63c.878-.842,.878-2.356,0-3.198l-1.63-1.631Zm-7.707-4.808c0-1.06,.827-1.917,1.869-1.986-.117-1.012-.347-1.978-.628-2.936-2.395,.369-4.24,2.426-4.24,4.923s1.848,4.556,4.245,4.924c.269-.872,.498-1.856,.631-2.936-1.045-.065-1.876-.925-1.876-1.987Zm-5,0c0-3.355,2.374-6.164,5.529-6.842-.077-.175-.158-.35-.235-.51-1.14-2.295-3.016-2.272-4.403-1.833C4.957,4.337,1.465,8.92,.815,9.823c-1.026,1.399-1.027,2.955,0,4.354,.649,.903,4.141,5.486,9.075,7.046,1.777,.518,3.374,.292,4.47-1.962,.054-.142,.164-.299,.169-.456-3.156-.677-5.53-3.486-5.53-6.842Z"/>
</svg>
