<?xml version="1.0" encoding="UTF-8"?>
<svg xmlns="http://www.w3.org/2000/svg" id="Layer_1" data-name="Layer 1" viewBox="0 0 24 24">
  <path d="m23,10h-.257c-.728-2.737-2.957-4.91-5.743-5.689V1.939c0-.613-.587-1.071-1.176-.904-1.327.378-2.36,1.568-2.702,2.965h-4.856c-2.277,0-4.354.898-5.857,2.353-.213-.425-.352-.915-.416-1.469-.062-.548-.556-.945-1.108-.878C.336,4.07-.057,4.566.007,5.115c.131,1.134.494,2.107,1.082,2.905C.479,9.047.098,10.218.017,11.47c-.199,3.075,1.349,5.933,3.983,7.451v.079c0,1.654,1.346,3,3,3,1.304,0,2.416-.836,2.829-2h2.343c.413,1.164,1.525,2,2.829,2,1.51,0,2.762-1.121,2.97-2.573,2.053-.821,3.633-2.447,4.438-4.427h.592c.553,0,1-.448,1-1v-3c0-.552-.447-1-1-1Zm-6.5,2c-.828,0-1.5-.672-1.5-1.5s.672-1.5,1.5-1.5,1.5.672,1.5,1.5-.672,1.5-1.5,1.5Z"/>
</svg>
