<?xml version="1.0" encoding="UTF-8"?>
<svg xmlns="http://www.w3.org/2000/svg" id="Layer_1" data-name="Layer 1" viewBox="0 0 24 24">
  <path d="M20.919,4.46L13.925,.634c-1.207-.66-2.646-.658-3.85,.005L3.07,4.496c-1.277,.703-2.07,2.045-2.07,3.504v8.199c0,1.467,.801,2.814,2.09,3.515l6.996,3.801c.598,.325,1.254,.487,1.909,.487,.659,0,1.318-.164,1.919-.493l7.006-3.831c1.283-.703,2.08-2.047,2.08-3.51V7.969c0-1.463-.797-2.808-2.081-3.509ZM9.5,14.196c0,.444-.36,.804-.804,.804-.318,0-.606-.187-.735-.478l-1.23-2.772v2.635c0,.34-.276,.615-.615,.615h0c-.34,0-.615-.276-.615-.615v-4.579c0-.445,.361-.806,.806-.806,.317,0,.605,.186,.735,.476l1.247,2.774v-2.644c0-.335,.271-.606,.606-.606s.606,.271,.606,.606v4.59Zm3.875-2.476c.345,0,.625,.28,.625,.625s-.28,.625-.625,.625h-1.125v1.405c0,.345-.28,.625-.625,.625s-.625-.28-.625-.625v-4.75c0-.345,.28-.625,.625-.625h1.75c.345,0,.625,.28,.625,.625s-.28,.625-.625,.625h-1.125v1.47h1.125Zm4.75-1.47h-.625v4.125c0,.345-.28,.625-.625,.625s-.625-.28-.625-.625v-4.125h-.625c-.345,0-.625-.28-.625-.625s.28-.625,.625-.625h2.5c.345,0,.625,.28,.625,.625s-.28,.625-.625,.625Z"/>
</svg>
