<?xml version="1.0" encoding="UTF-8"?>
<svg xmlns="http://www.w3.org/2000/svg" id="Layer_1" data-name="Layer 1" viewBox="0 0 24 24">
  <path d="m18,5c-.011.117,0-.105,0,0h0Zm6,0c0,1.448-1.026,2.656-2.392,2.938-.759,1.797-2.538,3.062-4.608,3.062h-1v2h.843c1.336,0,2.592.521,3.536,1.465l.828.828c.391.391.391,1.023,0,1.414-.195.195-.451.293-.707.293s-.512-.098-.707-.293l-.828-.828c-.566-.566-1.32-.879-2.122-.879h-.843s-.003,3.508-.003,3.513l1.401,1.401c.497.496.602,1.02.602,1.371,0,.537-.235,1.057-.681,1.502-.682.683-1.85,1.246-3.106,1.246-.733,0-1.497-.192-2.213-.665-1.942,1.282-4.24.499-5.319-.581-.445-.445-.681-.965-.681-1.502,0-.352.104-.875.603-1.372l1.4-1.4s-.003-3.513-.003-3.513h-.843c-.802,0-1.556.312-2.122.879l-.828.828c-.391.391-1.023.391-1.414,0s-.391-1.023,0-1.414l.828-.828c.944-.944,2.2-1.465,3.536-1.465h.843v-2h-1c-2.07,0-3.85-1.265-4.608-3.062-1.365-.281-2.392-1.489-2.392-2.938C0,4.046.498,1.502.92.39c.193-.508.897-.522,1.123-.029.305.664.531,1.666.957,2.57.426-.904.652-1.905.957-2.57.227-.493.931-.479,1.123.029.422,1.112.92,3.656.92,4.61,0,1.119-.62,2.084-1.529,2.599.532.839,1.464,1.401,2.529,1.401h1v-3.2c0-2.765,2.094-5.8,4-5.8s4,3.035,4,5.8v3.2h1c1.065,0,1.996-.562,2.529-1.401-.909-.516-1.529-1.48-1.529-2.599,0-1.333.539-3.607.92-4.61.1-.265.339-.388.577-.382,0,0,.003-.008.003-.008,0,0,.003.008.003.009.217.007.433.118.54.352.305.664.531,1.666.957,2.57.426-.904.652-1.905.957-2.57.107-.234.324-.345.54-.352,0,0,.003-.009.003-.009,0,0,.003.006.003.008.238-.005.477.118.577.382.381,1.004.92,3.251.92,4.61Zm-10,10h-4v2h4v-2Zm0-4h-4v2h4v-2Z"/>
</svg>
