<?xml version="1.0" encoding="UTF-8"?>
<svg xmlns="http://www.w3.org/2000/svg" id="Layer_1" data-name="Layer 1" viewBox="0 0 24 24">
  <path d="m19,9c-.553,0-1-.448-1-1,0-3.309-2.691-6-6-6s-6,2.691-6,6c0,.552-.447,1-1,1s-1-.448-1-1C4,3.589,7.589,0,12,0s8,3.589,8,8c0,.552-.447,1-1,1Zm-3-1c0-2.206-1.794-4-4-4s-4,1.794-4,4c0,.552.447,1,1,1s1-.448,1-1c0-1.103.897-2,2-2s2,.897,2,2c0,.552.447,1,1,1s1-.448,1-1Zm8.026-1.932v10.792c0,2.417-1.727,4.486-4.105,4.919l-6.285,1.143c-.534.097-1.071.146-1.609.146s-1.075-.048-1.609-.146l-6.285-1.143C1.752,21.346.026,19.277.026,16.86V6.068C.026,4.581.68,3.182,1.822,2.229c.852-.711,1.898-1.107,2.982-1.155-1.732,1.799-2.803,4.238-2.803,6.926,0,1.654,1.346,3,3,3,.771,0,1.468-.301,2-.78.532.48,1.229.78,2,.78.783,0,1.491-.308,2.026-.801v10.796c.664.097,1.336.097,2,0v-10.754c.529.467,1.215.759,1.974.759.771,0,1.468-.301,2-.78.532.48,1.229.78,2,.78,1.654,0,3-1.346,3-3,0-2.687-1.071-5.125-2.802-6.924,1.12.036,2.174.437,3.031,1.153,1.142.953,1.796,2.352,1.796,3.838ZM7.46,14.785l-.968-.277-.277-.968c-.206-.719-1.225-.719-1.431,0l-.277.968-.968.277c-.72.206-.72,1.225,0,1.431l.968.277.277.968c.206.72,1.225.72,1.431,0l.277-.968.968-.277c.72-.206.72-1.225,0-1.431Zm13.008,1.008l-.968-.277-.277-.968c-.206-.72-1.225-.72-1.431,0l-.277.968-.968.277c-.719.206-.719,1.225,0,1.431l.968.277.277.968c.206.72,1.225.72,1.431,0l.277-.968.968-.277c.72-.206.72-1.225,0-1.431Z"/>
</svg>
