<?xml version="1.0" encoding="UTF-8"?>
<svg xmlns="http://www.w3.org/2000/svg" id="Layer_1" data-name="Layer 1" viewBox="0 0 24 24">
  <path d="M19,24c-.43,0-.827-.279-.957-.711-.16-.528,.139-1.086,.668-1.246,1.739-.526,2.828-1.613,3.329-3.324,.155-.53,.71-.836,1.241-.678,.53,.155,.834,.71,.679,1.241-.696,2.377-2.268,3.95-4.671,4.676-.097,.029-.193,.043-.289,.043ZM1.96,5.281c.487-1.664,1.639-2.813,3.329-3.324,.528-.16,.828-.718,.668-1.247-.158-.529-.714-.827-1.246-.668C2.376,.748,.718,2.408,.04,4.719c-.155,.53,.148,1.085,.679,1.241,.094,.028,.188,.041,.281,.041,.433,0,.832-.283,.96-.719Zm16.651,.273l-2.654,2.654c.017-.071,.046-.136,.059-.209,.215-1.166-.139-2.334-.869-3.224l1.342-1.342c.586-.586,1.536-.586,2.121,0s.586,1.536,0,2.121Zm-5.338-2.088c.425,.144,.806,.361,1.151,.619l.652-.652c.586-.586,.586-1.536,0-2.121-.586-.586-1.536-.586-2.121,0l-1.516,1.516,1.834,.639Zm4.629,12.118c-.525-.525-.848-1.178-.969-1.859-.731-.13-1.429-.492-1.972-1.087-.458-.502-.722-1.107-.821-1.739l-.003-.19c-.605,.364-1.308,.575-2.056,.575-.066,0-.555-.041-1.005-.151-.274-.067-1.387-.468-2.216-.772-.511-.187-.779-.746-.607-1.262h0c.178-.535,.76-.819,1.292-.631l2.2,.78c.072,.012,.152,.023,.238,.034,.964,.048,1.878-.611,2.069-1.648,.183-.993-.479-1.955-1.435-2.28l-3.307-1.151c-1.755-.611-3.671,.331-4.259,2.093l-1.786,5.353c-.295,.883-.791,1.685-1.449,2.344l-.936,.936c-.563,.563-.879,1.326-.879,2.121v3.95c0,1.657,1.343,3,3,3H7.536c.796,0,1.559-.316,2.121-.879h0c.647-.647,1.453-1.115,2.336-1.356l.34-.093c1.442-.393,2.757-1.157,3.814-2.214l3.053-3.053c-.475-.168-.92-.442-1.3-.821Zm5.659-5.659c-.586-.586-1.536-.586-2.121,0l-2.121,2.121c-.586,.586-.586,1.536,0,2.121s1.536,.586,2.121,0l2.121-2.121c.586-.586,.586-1.536,0-2.121Zm-4.95,1.414l2.828-2.828c.586-.586,.586-1.536,0-2.121-.586-.586-1.536-.586-2.121,0l-2.828,2.828c-.586,.586-.586,1.536,0,2.121s1.536,.586,2.121,0Z"/>
</svg>
