<?xml version="1.0" encoding="UTF-8"?>
<svg xmlns="http://www.w3.org/2000/svg" id="Layer_1" data-name="Layer 1" viewBox="0 0 24 24">
  <path d="m15.5,0h-7c-1.933,0-3.5,1.567-3.5,3.5v5c0,1.933,1.567,3.5,3.5,3.5h.654l1.835,1.617c.289.256.652.383,1.014.383.359,0,.716-.125,1-.375l1.878-1.625h.619c1.933,0,3.5-1.567,3.5-3.5V3.5c0-1.933-1.567-3.5-3.5-3.5Zm-.266,5.68l-2.531,2.734c-.392.387-.896.578-1.395.578-.485,0-.964-.182-1.331-.54l-1.202-1.263c-.381-.4-.365-1.033.036-1.414.4-.382,1.034-.363,1.414.035l1.096,1.153,2.445-2.644c.375-.406,1.007-.431,1.413-.054.405.375.43,1.008.055,1.413Zm-9.074,11.737l.732,2.139h-1.784l.725-2.121c.023-.047.112-.102.167-.102.057,0,.142.047.16.083Zm4.84,1.584c0,2.761-2.239,5-5,5s-5-2.239-5-5,2.239-5,5-5,5,2.239,5,5Zm-2.444,2.061l-1.362-4.055c-.286-.647-.685-.784-1.194-.784-.509,0-.909.137-1.202.804l-1.354,4.034c-.118.352.144.717.516.717h0c.233,0,.439-.148.515-.368l.254-.743h2.544l.254.743c.075.22.282.368.514.368h0c.372,0,.634-.365.515-.717Zm11.108-.893c-.029.288-.287.499-.577.499-.4,0-1.134,0-1.643,0-.307,0-.555-.249-.555-.556v-.556h2.222c.325,0,.586.281.553.612Zm-.556-2.335c-.029-.288-.288-.499-.578-.499h-1.086c-.307,0-.556.249-.556.556v.556h1.667c.325,0,.586-.281.553-.612Zm3.892,1.167c0,2.761-2.239,5-5,5s-5-2.239-5-5,2.239-5,5-5,5,2.239,5,5Zm-2.228,1.248c.052-.645-.267-1.222-.765-1.541.144-.254.222-.549.214-.863-.024-.911-.801-1.622-1.713-1.622h-.848c-1.088,0-1.883.796-1.883,1.778v2c0,.982.796,1.778,1.778,1.778h1.512c.876,0,1.635-.657,1.705-1.53Z"/>
</svg>
