<?xml version="1.0" encoding="UTF-8"?>
<svg xmlns="http://www.w3.org/2000/svg" id="Layer_1" data-name="Layer 1" viewBox="0 0 24 24">
  <path d="M4.942,20c.034,.162,.058,.328,.058,.5,0,1.381-1.119,2.5-2.5,2.5s-2.5-1.119-2.5-2.5c0-.172,.024-.338,.058-.5H4.942ZM22.632,7.735c-.545-1.636-2.07-2.735-3.794-2.735h-.838v6h5.716c-.024-.08-1.083-3.265-1.083-3.265ZM0,17V5.5C0,3.015,2.015,1,4.5,1h7c2.485,0,4.5,2.015,4.5,4.5v12.5H1c-.552,0-1-.448-1-1Zm11-2c0,.552,.448,1,1,1s1-.448,1-1v-1.615c.5-.885,1.5-2.539,1.5-4.385,0-2-.909-3.586-2.054-5.005-.462-.573-1.446-.277-1.446,.437V15ZM2,9.5c0,1.381,1.119,2.5,2.5,2.5h.5v3c0,.552,.448,1,1,1s1-.448,1-1v-3h.5c1.381,0,2.5-1.119,2.5-2.5V5c0-.552-.448-1-1-1s-1,.448-1,1v4.5c0,.276-.225,.5-.5,.5h-.5V5c0-.552-.448-1-1-1s-1,.448-1,1v5h-.5c-.275,0-.5-.224-.5-.5V5c0-.552-.448-1-1-1s-1,.448-1,1v4.5Zm4.058,10.5c-.034,.162-.058,.328-.058,.5,0,1.381,1.119,2.5,2.5,2.5s2.5-1.119,2.5-2.5c0-.172-.024-.338-.058-.5H6.058Zm11.942-7v5h2c2.209,0,4-1.791,4-4v-1h-6Zm-2.942,7c-.034,.162-.058,.328-.058,.5,0,1.381,1.119,2.5,2.5,2.5s2.5-1.119,2.5-2.5c0-.172-.024-.338-.058-.5h-4.885Z"/>
</svg>
