<?xml version="1.0" encoding="UTF-8"?>
<svg xmlns="http://www.w3.org/2000/svg" id="Layer_1" data-name="Layer 1" viewBox="0 0 24 24">
  <path d="M5.441,4.557c-.342,0-.674-.175-.861-.49l-.593-1c-.281-.475-.125-1.088,.351-1.37,.474-.281,1.088-.125,1.37,.351l.593,1c.281,.475,.125,1.088-.351,1.37-.16,.095-.335,.14-.509,.14Zm6.559,5.443c-1.103,0-2,.897-2,2s.897,2,2,2,2-.897,2-2-.897-2-2-2Zm9.19,4.274c-.846,1.108-4.01,4.726-9.19,4.726S3.845,15.741,2.795,14.339c-1.022-1.364-1.02-3.256,.005-4.601,.847-1.111,4.015-4.738,9.2-4.738,5.116,0,8.134,3.266,9.194,4.67,1.028,1.362,1.026,3.255-.004,4.604Zm-5.19-2.274c0-2.206-1.794-4-4-4s-4,1.794-4,4,1.794,4,4,4,4-1.794,4-4ZM13,2V1c0-.552-.448-1-1-1s-1,.448-1,1v1c0,.552,.448,1,1,1s1-.448,1-1Zm6.42,2.066l.593-1c.281-.475,.125-1.088-.351-1.37-.474-.281-1.088-.125-1.37,.351l-.593,1c-.281,.475-.125,1.088,.351,1.37,.467,.279,1.087,.129,1.37-.351Zm.242,18.237c.475-.282,.632-.895,.351-1.37l-.593-1c-.282-.476-.895-.632-1.37-.351s-.632,.895-.351,1.37l.593,1c.283,.479,.903,.629,1.37,.351Zm-6.662,.696v-1c0-.552-.448-1-1-1s-1,.448-1,1v1c0,.552,.448,1,1,1s1-.448,1-1Zm-7.292-1.047l.593-1c.281-.475,.125-1.088-.351-1.37s-1.088-.125-1.37,.351l-.593,1c-.281,.475-.125,1.088,.351,1.37,.467,.279,1.087,.129,1.37-.351Z"/>
</svg>
