<?xml version="1.0" encoding="UTF-8"?>
<svg xmlns="http://www.w3.org/2000/svg" id="Layer_1" data-name="Layer 1" viewBox="0 0 24 24">
  <path d="M23.265,19.379l-.983-.567c.129-.418,.218-.853,.218-1.313s-.09-.895-.218-1.313l.983-.567c.479-.275,.643-.887,.367-1.366-.276-.478-.886-.643-1.366-.367l-.977,.563c-.605-.652-1.393-1.126-2.289-1.33v-1.121c0-.552-.448-1-1-1s-1,.448-1,1v1.121c-.896,.205-1.685,.678-2.289,1.33l-.977-.563c-.48-.276-1.091-.112-1.366,.367-.276,.479-.112,1.09,.367,1.366l.983,.567c-.129,.418-.218,.853-.218,1.313s.09,.895,.218,1.313l-.983,.567c-.479,.275-.643,.887-.367,1.366,.185,.321,.521,.5,.867,.5,.169,0,.341-.043,.499-.134l.977-.563c.605,.652,1.393,1.126,2.289,1.33v1.121c0,.552,.448,1,1,1s1-.448,1-1v-1.121c.896-.205,1.685-.678,2.289-1.33l.977,.563c.158,.091,.329,.134,.499,.134,.346,0,.682-.18,.867-.5,.276-.479,.112-1.09-.367-1.366Zm-5.265-.379c-.827,0-1.5-.673-1.5-1.5s.673-1.5,1.5-1.5,1.5,.673,1.5,1.5-.673,1.5-1.5,1.5ZM7,7.721V2h-1c-.553,0-1-.448-1-1s.447-1,1-1h10c.553,0,1,.448,1,1s-.447,1-1,1h-1V7.721c0,.593,.182,1.167,.504,1.653-2.685,.824-4.803,2.941-5.629,5.626H1.721c1.299-2.043,3.07-3.896,4.35-5.11,.59-.56,.929-1.35,.929-2.169Zm5.528,16.279H4.192c-1.449,0-2.761-.676-3.508-1.809-.454-.687-.685-1.472-.685-2.334,0-.935,.247-1.901,.653-2.857H9.525c-.01,.166-.025,.331-.025,.5,0,2.609,1.178,4.941,3.028,6.5Z"/>
</svg>
