<?xml version="1.0" encoding="UTF-8"?>
<svg xmlns="http://www.w3.org/2000/svg" id="Layer_1" data-name="Layer 1" viewBox="0 0 24 24">
  <path d="M23.271,9.514c-1.55-2.433-5.076-6.514-11.271-6.514S2.279,7.081,.728,9.515c-.977,1.533-.977,3.438,0,4.971,1.551,2.433,5.078,6.515,11.273,6.515s9.718-4.081,11.27-6.514c.978-1.533,.978-3.438,0-4.973Zm-11.271,7.486c-1.658,0-3.117-.817-4.026-2.06l1.526-1.526,.793,.793c.391,.391,1.023,.391,1.414,0l1.556-1.556,.664,.664c.396,.396,1.072,.115,1.072-.444v-2.76c0-.337-.273-.611-.611-.611h-2.76c-.56,0-.84,.677-.444,1.072l.664,.664-.849,.849-.793-.793c-.391-.391-1.023-.391-1.414,0l-1.693,1.693c-.064-.319-.099-.649-.099-.986,0-2.761,2.239-5,5-5s5,2.239,5,5-2.239,5-5,5Z"/>
</svg>
