<?xml version="1.0" encoding="UTF-8"?>
<svg xmlns="http://www.w3.org/2000/svg" id="Layer_1" data-name="Layer 1" viewBox="0 0 24 24">
  <path d="m23.133,7.093l-2.4,2.585c-.196.212-.465.319-.732.319-.244,0-.488-.088-.681-.268-.404-.375-.428-1.008-.052-1.413l2.152-2.317H2.579l2.153,2.317c.376.405.353,1.038-.052,1.413-.192.179-.437.268-.681.268-.269,0-.535-.107-.732-.319L.842,7.067c-1.129-1.128-1.129-3.006.025-4.16L3.268.322c.376-.405,1.011-.426,1.413-.052.404.375.428,1.008.052,1.413l-2.152,2.317h18.841l-2.153-2.317c-.376-.405-.353-1.038.052-1.413.403-.377,1.035-.353,1.413.052l2.426,2.611c1.129,1.128,1.129,3.006-.025,4.16Zm-11.132,11.907c-.101,0-.348.029-.474.302l-2.542,4.698h6.034l-2.516-4.644c-.154-.327-.401-.356-.501-.356Zm3.781-9.69c-1.11-1.554-2.347-2.31-3.782-2.31-1.67,0-2.521.845-3.724,2.237-.026.03-5.85,8.65-5.873,8.698-.617,1.327-.516,2.856.271,4.09.789,1.236,2.135,1.975,3.603,1.975h.432l3.031-5.597c.391-.845,1.268-1.403,2.26-1.403s1.87.559,2.288,1.458l3.005,5.542h.432c1.468,0,2.814-.738,3.603-1.975.787-1.233.889-2.763.271-4.09-.022-.048-5.819-8.625-5.819-8.625Z"/>
</svg>
