<?xml version="1.0" encoding="UTF-8"?>
<svg xmlns="http://www.w3.org/2000/svg" id="Layer_1" data-name="Layer 1" viewBox="0 0 24 24">
  <path d="m23.772,7.581c-.522.54-1.395,1.278-2.268,1.278-.905,0-1.802-.787-2.317-1.331-.132.763-.188,1.569-.188,2.473,0,1.277.329,2.406.61,3.136.193.503-.018,1.07-.5,1.311-.558.278-1.238.01-1.44-.579-.272-.793-.569-1.973-.64-3.316l-2.039.764.005,5.558c0,1.369-.531,2.656-1.499,3.625-.967.968-2.254,1.501-3.623,1.501-1.313,0-2.686-.306-3.98-.962-.622.704-1.54,1.729-2.152,2.341-1,1-1.634.492-1.634.492-.698-.536-2.108-1.643-2.108-3.871,0,0,0-1,1-1h2.242c-1.906-2.129-3.242-5.507-3.242-10.5,0-.432.278-.814.688-.949.412-.133.861.009,1.118.356.023.031,2.335,3.119,5.354,3.605.117.019.228-.042.282-.144l.372-.819c-2.713-.793-4.494-2.807-4.57-2.896-.361-.418-.315-1.049.104-1.41.418-.362,1.048-.316,1.41.104.014.016,1.647,1.81,3.882,2.386l.435-.958c.796-1.588,2.693-2.218,4.247-1.44.841.422,1.392,1.226,1.586,2.261l2.113.826c.068-1.092.335-2.259.92-3.427-.735-.014-1.69-.146-2.239-.695-.617-.617-.713-1.756-.7-2.507.007-.436.354-.783.79-.79.751-.013,1.89.083,2.507.7.42.42.592,1.078.659,1.695.304-.389.653-.774,1.046-1.152-.017-.75.069-1.914.698-2.543C21.355.048,22.593-.021,23.337.004c.36.012.646.299.659.658.025.744-.043,1.982-.697,2.636-.642.642-1.838.718-2.586.696-.54.732-.928,1.45-1.187,2.19.525-.485,1.249-.999,1.979-.999.873,0,1.746.738,2.268,1.278.303.314.303.804,0,1.118Z"/>
</svg>
