<?xml version="1.0" encoding="UTF-8"?>
<svg xmlns="http://www.w3.org/2000/svg" id="Layer_1" data-name="Layer 1" viewBox="0 0 24 24">
  <path d="M19.757,12h-4.757c-1.657,0-3,1.343-3,3v6c0,1.657,1.343,3,3,3h6c1.657,0,3-1.343,3-3v-4.757c0-.796-.316-1.559-.879-2.121l-1.243-1.243c-.563-.563-1.326-.879-2.121-.879Zm-1.757,10c-1.105,0-2-.895-2-2s.895-2,2-2,2,.895,2,2-.895,2-2,2Zm1-6h-3c-.552,0-1-.448-1-1h0c0-.552,.448-1,1-1h3c.552,0,1,.448,1,1h0c0,.552-.448,1-1,1Zm-9,5v-6c0-2.757,2.243-5,5-5h-2c-1.654,0-3-1.346-3-3V.024c-.161-.011-.322-.024-.485-.024h-2.515V2c0,.552-.447,1-1,1s-1-.448-1-1V0C2.243,0,0,2.243,0,5v14c0,2.757,2.243,5,5,5h6.026c-.635-.838-1.026-1.87-1.026-3ZM5,5c0-.552,.447-1,1-1s1,.448,1,1v1c0,.552-.447,1-1,1s-1-.448-1-1v-1Zm0,4c0-.552,.447-1,1-1s1,.448,1,1v1c0,.552-.447,1-1,1s-1-.448-1-1v-1Zm1.915,8h-1.829c-.79,0-1.357-.762-1.13-1.519l.757-2.524c.171-.568,.694-.958,1.287-.958s1.117,.389,1.287,.958l.757,2.524c.227,.757-.34,1.519-1.13,1.519ZM12,7V.46c.913,.346,1.753,.879,2.465,1.59l3.484,3.486c.712,.711,1.245,1.551,1.591,2.464h-6.54c-.552,0-1-.449-1-1Z"/>
</svg>
