<?xml version="1.0" encoding="UTF-8"?>
<svg xmlns="http://www.w3.org/2000/svg" id="Layer_1" data-name="Layer 1" viewBox="0 0 24 24">
  <path d="m17.51,8.2h.001c-.385-.345-.995-.257-1.258.187-1.481,2.505-1.141,5.879-2.468,5.879-.628,0-.53-1.086-.826-1.756-.21-.475-.848-.548-1.175-.144-1.251,1.549-2.456,4.276-1.348,6.939,1.187,2.851,3.867,4.864,6.949,4.683,3.688-.215,6.614-3.275,6.614-7.018,0-3.696-4.098-6.637-6.49-8.77Zm1.387,12.748c-1.016,1.185-2.839,1.185-3.855,0-.878-1.024-.708-2.591.246-3.545l1.117-1.117c.311-.311.816-.311,1.127,0l1.117,1.117c.954.954,1.125,2.52.246,3.545h.001Zm-7.346,3.056h-6.552c-2.757,0-5-2.243-5-5v-9.276c0-1.665.824-3.214,2.203-4.145L9.203.859c1.699-1.146,3.895-1.146,5.594,0l7.203,4.88c1.252.942,2,2.41,2,3.989v1.973c-1.231-1.617-2.822-2.984-4.161-4.13-.352-.301-.688-.588-.994-.862h0c-.634-.568-1.48-.818-2.32-.688-.837.129-1.563.621-1.993,1.348-.576.975-.917,2-1.163,2.939-.215-.089-.444-.151-.683-.183-.947-.128-1.86.243-2.458.983-1.713,2.121-3.043,5.589-1.639,8.965.665,1.598,1.708,2.925,2.962,3.93Z"/>
</svg>
