<?xml version="1.0" encoding="UTF-8"?>
<svg xmlns="http://www.w3.org/2000/svg" id="Layer_1" data-name="Layer 1" viewBox="0 0 24 24">
  <path d="m24,14.764v4.236c0,2.757-2.243,5-5,5H5c-2.757,0-5-2.243-5-5v-4.235c.779.757,1.869,1.235,3,1.235s2.222-.472,3-1.225c.778.753,1.873,1.225,3,1.225s2.222-.472,3-1.225c.778.753,1.872,1.225,3,1.225s2.222-.472,3-1.226c.778.754,1.872,1.226,3,1.226s2.221-.479,3-1.236Zm0-9.764v7.01c-.411,0-.799.246-.942.657-.265.747-1.169,1.333-2.058,1.333s-1.793-.586-2.058-1.333c-.141-.4-.519-.667-.942-.667s-.802.267-.942.667c-.265.747-1.169,1.333-2.058,1.333s-1.793-.586-2.057-1.333c-.141-.399-.519-.667-.943-.667s-.802.268-.943.667c-.264.747-1.167,1.333-2.057,1.333s-1.793-.586-2.057-1.333c-.141-.399-.519-.667-.943-.667s-.802.268-.943.667c-.264.747-1.167,1.333-2.057,1.333s-1.793-.586-2.057-1.333c-.145-.411-.531-.655-.943-.656v-7.011C0,2.243,2.243,0,5,0h14c2.757,0,5,2.243,5,5Zm-9,1c0-.66-.23-1.598-.813-2.172l-1.097-1.338c-.553-.623-1.602-.653-2.208.03l-1.004,1.234c-.657.658-.884,1.606-.878,2.274.008.789.319,1.532.878,2.092.567.566,1.32.879,2.122.879s1.555-.312,2.121-.879c.566-.566.879-1.32.879-2.121Zm-2.999-1.688l-.642.784c-.233.24-.362.61-.359.914.002.264.106.511.293.697.377.377,1.036.377,1.414,0,.189-.189.293-.44.293-.707,0-.302-.129-.667-.293-.831l-.706-.857Z"/>
</svg>
