<?xml version="1.0" encoding="UTF-8"?>
<svg xmlns="http://www.w3.org/2000/svg" id="Layer_1" data-name="Layer 1" viewBox="0 0 24 24">
  <path d="m18.501,23.991c-.36,0-.648-.206-.648-.206-1.138-.569-4.853-2.704-4.853-6.272v-3.187c0-1.295.826-2.439,2.056-2.848h0l2.5-.829c.609-.201,1.28-.201,1.888,0l2.501.829c1.229.408,2.056,1.552,2.056,2.848v3.187c0,4.031-3.763,5.858-4.917,6.322,0,0-.222.156-.582.156ZM13,2h-.171c-.413-1.164-1.525-2-2.829-2h-2c-1.304,0-2.416.836-2.829,2h-.171C2.243,2,0,4.243,0,7v12c0,2.757,2.243,5,5,5h8c.447,0,.873-.078,1.286-.189-1.625-1.366-3.286-3.453-3.286-6.299v-.513h-6c-.552,0-1-.448-1-1s.448-1,1-1h6v-.674c0-.458.074-.9.191-1.326h-6.191c-.552,0-1-.448-1-1s.448-1,1-1h7.289c.567-.634,1.288-1.138,2.137-1.42l2.501-.83c.349-.115.71-.176,1.074-.212v-1.538c0-2.757-2.243-5-5-5Zm0,7H5c-.552,0-1-.448-1-1s.448-1,1-1h8c.552,0,1,.448,1,1s-.448,1-1,1Z"/>
</svg>
