<?xml version="1.0" encoding="UTF-8"?>
<svg xmlns="http://www.w3.org/2000/svg" id="Layer_1" data-name="Layer 1" viewBox="0 0 24 24">
  <path d="m23.707,22.293l-5.113-5.113c1.502-1.817,2.406-4.145,2.406-6.68C21,4.71,16.29,0,10.5,0S0,4.71,0,10.5s4.71,10.5,10.5,10.5c2.536,0,4.864-.904,6.68-2.406l5.113,5.113c.195.195.451.293.707.293s.512-.098.707-.293c.391-.391.391-1.023,0-1.414Zm-7.469-8.586c-.086.067-.143.159-.16.26-.388,2.299-2.532,4.033-4.987,4.033-4.461,0-8.091-3.629-8.091-8.091v-.48c0-3.12,2.192-5.782,5.211-6.328,2.558-.46,4.926.72,6.327,3.088,1.989.475,3.462,2.136,3.462,4.015,0,1.321-.675,2.663-1.762,3.502Zm-2.081-5.556h-.001c-.567-.136-1.059-.495-1.349-.985-.411-.693-1.515-2.167-3.479-2.167-.24,0-.493.022-.759.07-2.067.374-3.568,2.208-3.568,4.36v.48c0,3.358,2.732,6.091,6.091,6.091,1.467,0,2.791-1.04,3.015-2.366.101-.599.424-1.136.91-1.511.598-.461.984-1.214.984-1.918,0-1.109-.956-1.842-1.843-2.054Zm-5.157,3.85c-1.105,0-2-.895-2-2s.895-2,2-2,2,.895,2,2-.895,2-2,2Z"/>
</svg>
