<?xml version="1.0" encoding="UTF-8"?>
<svg xmlns="http://www.w3.org/2000/svg" id="Layer_1" data-name="Layer 1" viewBox="0 0 24 24">
  <path d="m15.037,23.998c-1.033,0-2.067-.393-2.854-1.18-.763-.762-1.183-1.776-1.183-2.855s.42-2.092,1.183-2.855l4.213-4.212c.391-.391,1.023-.391,1.414,0s.391,1.023,0,1.414l-4.213,4.212c-.385.385-.597.897-.597,1.441s.212,1.056.597,1.441c.796.794,2.088.793,2.882,0l5.37-5.37c.202-.202.202-.532,0-.734-.195-.195-.537-.196-.734,0l-4.407,4.407c-.391.391-1.023.391-1.414,0s-.391-1.023,0-1.414l4.407-4.407c.951-.95,2.609-.952,3.562,0,.981.982.981,2.581,0,3.562l-5.37,5.37c-.787.787-1.821,1.18-2.855,1.18Zm-5.377-11.594c-.51-.268-.965-.637-1.372-1.044L.296,3.367c-.179.514-.296,1.058-.296,1.633v9c0,2.761,2.239,5,5,5h4.083c.199-1.246.776-2.397,1.686-3.307l3.039-3.039c-1.258.488-2.704.506-4.147-.25ZM23.704,3.367c.179.514.296,1.058.296,1.633v6.93c-1.324-.877-3.047-.992-4.471-.328l-.116.11c-.063-.077-.119-.16-.19-.231-.775-.775-1.868-1.025-2.859-.774l7.34-7.34Zm-1.059-1.769l-8.524,8.524c-.567.566-1.344.849-2.122.85-.777,0-1.555-.283-2.122-.85L1.355,1.597c.913-.977,2.202-1.597,3.645-1.597h14c1.443,0,2.733.62,3.645,1.597Z"/>
</svg>
