<?xml version="1.0" encoding="UTF-8"?>
<svg xmlns="http://www.w3.org/2000/svg" id="Layer_1" data-name="Layer 1" viewBox="0 0 24 24">
  <path d="M23.447,23.895c-.144,.072-.296,.105-.446,.105-.367,0-.72-.202-.896-.553l-2.354-4.708-5.234-2.703c-1.148-.652-1.74-2.006-1.439-3.292l.844-3.513-3.19,2.007c-.153,.088-.325,.132-.497,.132-.136,0-.271-.027-.399-.083l-4.471-1.947,1.558,4.991c.214,.866-.043,1.737-.605,2.347l1.646,6.06c.145,.533-.17,1.083-.703,1.227-.088,.024-.176,.036-.263,.036-.44,0-.844-.293-.964-.738l-1.567-5.768c-1.173,.011-2.24-.785-2.513-1.979L.062,9.042c-.352-1.559,.834-3.042,2.432-3.042,.003,0,.007,0,.01,0,.007,0,.013,.002,.02,.002,.606,.007,1.166,.236,1.601,.614l6.051,2.636s1.414-.842,3.26-2.047c1.105-.722,1.82-1.22,2.616-1.22,.901,0,1.75,.425,2.298,1.14,.549,.714,.737,1.625,.515,2.498l-.05,.198,4.167,2.303c.484,.267,.66,.875,.394,1.358-.182,.331-.524,.518-.877,.518-.163,0-.329-.04-.481-.124l-3.709-2.043-.871,3.46,3.522,1.819c.188,.097,.341,.252,.436,.441l2.5,5c.247,.494,.047,1.095-.447,1.342Zm-9.469-6.583c-.529-.159-1.086,.143-1.244,.673l-1.41,4.73c-.158,.529,.144,1.086,.673,1.244,.095,.028,.191,.042,.286,.042,.431,0,.829-.281,.958-.715l1.41-4.73c.158-.529-.144-1.086-.673-1.244ZM2.5,5c1.381,0,2.5-1.119,2.5-2.5S3.881,0,2.5,0,0,1.119,0,2.5s1.119,2.5,2.5,2.5Zm15,0c1.381,0,2.5-1.119,2.5-2.5s-1.119-2.5-2.5-2.5-2.5,1.119-2.5,2.5,1.119,2.5,2.5,2.5Z"/>
</svg>
