<?xml version="1.0" encoding="UTF-8"?>
<svg xmlns="http://www.w3.org/2000/svg" id="Layer_1" data-name="Layer 1" viewBox="0 0 24 24">
  <path d="m24,7v1H0v-1C0,4.243,2.243,2,5,2h1v-1c0-.552.447-1,1-1s1,.448,1,1v1h8v-1c0-.552.447-1,1-1s1,.448,1,1v1h1c2.757,0,5,2.243,5,5Zm-.293,15.293c.391.391.391,1.023,0,1.414-.195.195-.451.293-.707.293s-.512-.098-.707-.293l-3.957-3.957-1.586,1.586.207.207c.391.391.391,1.023,0,1.414-.195.195-.451.293-.707.293s-.512-.098-.707-.293l-4.5-4.5c-.391-.391-.391-1.023,0-1.414s1.023-.391,1.414,0l.056.056,4.586-4.586-.056-.056c-.391-.391-.391-1.023,0-1.414s1.023-.391,1.414,0l4.5,4.5c.391.391.391,1.023,0,1.414-.195.195-.451.293-.707.293s-.512-.098-.707-.293l-.207-.207-1.586,1.586,3.957,3.957Zm-14.078-6.664c.623-.624,1.501-.892,2.355-.829l2.792-2.792c-.06-.701.12-1.413.55-2.008H0v9c0,2.757,2.243,5,5,5h8.758l-4.129-4.129c-1.17-1.169-1.17-3.073,0-4.242Z"/>
</svg>
