<?xml version="1.0" encoding="UTF-8"?>
<svg xmlns="http://www.w3.org/2000/svg" id="Layer_1" data-name="Layer 1" viewBox="0 0 24 24">
  <path d="m.213,9.145c-.341-.435-.264-1.063.171-1.404L8.919,1.062c1.814-1.419,4.348-1.42,6.162,0l8.535,6.679c.435.34.512.969.171,1.404-.197.252-.491.384-.788.384-.215,0-.433-.069-.615-.212L13.849,2.638c-1.088-.852-2.609-.852-3.697,0L1.616,9.316c-.436.34-1.063.262-1.403-.171Zm4.395,9.06c.247.189.393.483.393.795v4c0,.553-.447,1-1,1H1c-.553,0-1-.447-1-1,0-2.286,1.571-4.374,3.737-4.965.299-.08.622-.019.87.17Zm19.393,4.795c0,.553-.447,1-1,1h-3c-.553,0-1-.447-1-1v-4c0-.312.146-.605.393-.795.249-.188.573-.25.87-.17,2.166.591,3.737,2.679,3.737,4.965ZM4.5,11c-1.381,0-2.5,1.119-2.5,2.5s1.119,2.5,2.5,2.5,2.5-1.119,2.5-2.5-1.119-2.5-2.5-2.5Zm17.5,2.5c0-1.381-1.119-2.5-2.5-2.5s-2.5,1.119-2.5,2.5,1.119,2.5,2.5,2.5,2.5-1.119,2.5-2.5Zm-10-5.5c-1.381,0-2.5,1.119-2.5,2.5s1.119,2.5,2.5,2.5,2.5-1.119,2.5-2.5-1.119-2.5-2.5-2.5Zm5,12v3c0,.553-.447,1-1,1h-8c-.553,0-1-.447-1-1v-3c0-2.757,2.243-5,5-5s5,2.243,5,5Z"/>
</svg>
