<?xml version="1.0" encoding="UTF-8"?>
<svg xmlns="http://www.w3.org/2000/svg" id="Layer_1" data-name="Layer 1" viewBox="0 0 24 24">
  <path d="M23,22h-3.691l3.379-4.77c.302-.439,.331-.988,.08-1.463-.251-.48-.725-.768-1.268-.768h-2.382L23.942,1.714c.125-.391,.057-.809-.185-1.142-.424-.588-1.316-.751-1.903-.292-.048,.037-7.919,8.888-7.919,8.888,0,0-3.558-6.661-3.608-6.719-.252-.29-.602-.449-.982-.449-.661,0-1.344,.499-1.344,1.333v7.577l-5.307-1.843c-.569-.19-1.225,.068-1.53,.605-.226,.405-.214,.888,.073,1.354l3.575,4.973H2.403c-.553,0-1.04,.312-1.267,.805-.236,.5-.161,1.073,.188,1.489l3.055,3.706H1c-.552,0-1,.447-1,1s.448,1,1,1H9.167c.684,0,1.072-.783,.658-1.328l-2.187-2.873c-.114-.151-.132-.354-.047-.523,.085-.169,.258-.276,.447-.276h.962v-2.5c0-.209,.13-.396,.327-.469,.194-.075,.417-.016,.553,.144l1.345,1.55,1.836-2.464c.11-.2,.343-.304,.562-.245,.222,.057,.377,.256,.377,.484v3.5h1.538c.189,0,.362,.107,.447,.276,.084,.169,.066,.372-.047,.523l-2.132,2.881c-.404,.546-.014,1.319,.665,1.319h8.529c.552,0,1-.447,1-1s-.448-1-1-1Z"/>
</svg>
