<?xml version="1.0" encoding="UTF-8"?>
<svg xmlns="http://www.w3.org/2000/svg" id="Layer_1" data-name="Layer 1" viewBox="0 0 24 24">
  <path d="M18,12c-3.314,0-6,2.686-6,6s2.686,6,6,6,6-2.686,6-6-2.686-6-6-6Zm0,10c-.69,0-1.25-.56-1.25-1.25s.56-1.25,1.25-1.25,1.25,.56,1.25,1.25-.56,1.25-1.25,1.25Zm1.22-3.067c-.75-.442-1.69-.442-2.439,0-.31,.183-.702,.145-.956-.109l-.028-.028c-.356-.356-.295-.96,.136-1.22,1.267-.765,2.87-.765,4.136,0,.431,.26,.492,.864,.136,1.22l-.028,.028c-.255,.254-.646,.292-.956,.109Zm2.762-1.914c-.276,.275-.714,.31-1.024,.075-.847-.644-1.875-.993-2.958-.993s-2.111,.349-2.958,.993c-.31,.236-.748,.201-1.024-.075l-.021-.021c-.339-.339-.296-.897,.087-1.187,1.122-.85,2.483-1.311,3.916-1.311s2.794,.46,3.916,1.311c.382,.29,.426,.848,.087,1.187l-.021,.021Zm-11.982,.982c0-.7,.099-1.376,.268-2.023-.718-.112-1.268-.728-1.268-1.477,0-.828,.672-1.5,1.5-1.5,.377,0,.717,.144,.981,.374,.289-.407,.615-.786,.973-1.132-.978-.845-2.372-.963-3.457-.338-.402,.232-.903,.191-1.231-.137h0c-.473-.473-.352-1.259,.228-1.594,1.912-1.107,4.407-.843,6.041,.792l.068,.057c1.153-.647,2.48-1.022,3.897-1.022,1.06,0,2.07,.211,2.996,.585l.004-.003C21.048,4.359,15.68-.625,9.327,.064,4.507,.586,.586,4.506,.064,9.326c-.689,6.353,4.295,11.721,10.519,11.673l.003-.004c-.375-.926-.585-1.936-.585-2.996ZM5.249,9.249c-.427-.427-.386-1.139,.093-1.506,1.474-1.13,3.269-1.742,5.158-1.742s3.684,.612,5.158,1.742c.479,.367,.52,1.08,.093,1.506h0c-.35,.35-.906,.392-1.299,.09-1.129-.868-2.504-1.338-3.952-1.338s-2.823,.47-3.952,1.338c-.393,.302-.949,.261-1.299-.09h0Z"/>
</svg>
