<?xml version="1.0" encoding="UTF-8"?>
<svg xmlns="http://www.w3.org/2000/svg" id="Layer_1" data-name="Layer 1" viewBox="0 0 24 24">
  <path d="m22.083,6.548l-.083-.065v-3.483c0-.552-.448-1-1-1s-1,.448-1,1v1.916l-4.917-3.852c-1.815-1.422-4.352-1.422-6.167,0L1.917,6.548c-1.218.954-1.917,2.389-1.917,3.936v8.516c0,2.757,2.243,5,5,5h14c2.757,0,5-2.243,5-5v-8.516c0-1.547-.699-2.982-1.917-3.936Zm-15.083,4.952c0-.828.672-1.5,1.5-1.5s1.5.672,1.5,1.5-.672,1.5-1.5,1.5-1.5-.672-1.5-1.5Zm2.999,7.5c-.168,0-.339-.042-.495-.132-.479-.274-.646-.885-.372-1.364l4-7c.274-.479.885-.645,1.364-.372.479.274.646.885.372,1.364l-4,7c-.185.323-.522.504-.869.504Zm5.501,0c-.828,0-1.5-.672-1.5-1.5s.672-1.5,1.5-1.5,1.5.672,1.5,1.5-.672,1.5-1.5,1.5Z"/>
</svg>
