<?xml version="1.0" encoding="UTF-8"?>
<svg xmlns="http://www.w3.org/2000/svg" id="Layer_1" data-name="Layer 1" viewBox="0 0 24 24">
  <path d="m3.5,1c-.828,0-1.5.672-1.5,1.5s.672,1.5,1.5,1.5h6.938L1,7.086c-.781.277-1.19,1.134-.913,1.915.277.781,1.134,1.19,1.915.913l8.999-2.914-4.815,2.704c-.875.491-1.582,1.235-2.028,2.133l-1.987,3.995c-.369.741-.067,1.642.675,2.011.215.107.442.157.667.157.551,0,1.082-.305,1.344-.832l2.156-4.333c.095-.19.247-.345.436-.443l.862-.445c-.815.96-1.309,2.199-1.309,3.553v7c0,.828.672,1.5,1.5,1.5s1.5-.672,1.5-1.5v-6.853c0-1.308.939-2.501,2.239-2.634,1.495-.152,2.761,1.022,2.761,2.487v.5c0,.642-1.149,1.738-1.993,2.263s-1.241,1.622-.841,2.534c.338.77,1.077,1.203,1.836,1.203.349,0,.702-.091,1.023-.283.213-.127,1.293-.802,2.274-1.881l5.129-5.535c1.011-1.106,1.571-2.55,1.571-4.048v-4.253c0-2.761-2.239-5-5-5H3.5Z"/>
</svg>
