<?xml version="1.0" encoding="UTF-8"?>
<svg xmlns="http://www.w3.org/2000/svg" id="Layer_1" data-name="Layer 1" viewBox="0 0 24 24">
  <path d="m21,20.5c0,.828-.672,1.5-1.5,1.5s-1.5-.672-1.5-1.5.672-1.5,1.5-1.5,1.5.672,1.5,1.5ZM1.5,3c-.828,0-1.5.672-1.5,1.5s.672,1.5,1.5,1.5,1.5-.672,1.5-1.5-.672-1.5-1.5-1.5ZM6.5,0c-.828,0-1.5.672-1.5,1.5s.672,1.5,1.5,1.5,1.5-.672,1.5-1.5-.672-1.5-1.5-1.5Zm16.5,8.998c.42,0,.796.263.94.657.144.394.026.837-.295,1.107l-2.365,1.927.978,2.98c.134.403-.002.847-.339,1.107-.338.259-.801.277-1.156.046l-2.753-1.793-2.708,1.813c-.169.113-.363.169-.557.169-.211,0-.423-.066-.6-.199-.34-.254-.482-.696-.354-1.1l.94-3.015-2.377-1.934c-.32-.271-.437-.713-.292-1.107.145-.393.52-.655.939-.655h2.999l1.062-2.852c.146-.391.52-.651.937-.651s.791.259.937.651l1.062,2.852h3l.002-.002Zm-15.351.204c.249-.265.503-.527.764-.789,2.611-2.611,5.482-4.629,8.084-5.681,2.259-.914,4.099-.969,4.919-.149.809.809.597,2.367.399,3.224-.125.538.21,1.075.749,1.2.542.127,1.075-.211,1.2-.749.646-2.79-.151-4.308-.933-5.089-1.449-1.45-3.965-1.554-7.083-.291-2.845,1.15-5.952,3.324-8.749,6.122-.277.276-.546.555-.808.835-.378.402-.357,1.035.045,1.413.193.181.439.271.684.271.267,0,.533-.106.729-.316Zm5.569,11.063c.445-.328.54-.954.212-1.398-.327-.444-.954-.539-1.398-.213-4.076,3.002-8.049,4.163-9.451,2.763-.593-.593-.628-1.586-.553-2.314.057-.55-.343-1.041-.892-1.098-.548-.048-1.041.343-1.097.893-.171,1.664.219,3.024,1.129,3.934.777.777,1.866,1.155,3.175,1.155,2.409,0,5.561-1.281,8.875-3.721Zm-5.795-7.401l-1.899-.7-.725-1.924c-.148-.442-.626-.681-1.068-.533-.251.084-.449.281-.533.533l-.717,1.906-1.905.718c-.442.148-.681.626-.533,1.068.084.251.281.449.533.533l1.923.724.699,1.898c.084.251.281.449.533.533.442.148.92-.091,1.068-.533l.707-1.916,1.918-.706c.251-.084.449-.281.533-.533.148-.442-.091-.92-.533-1.068Z"/>
</svg>
