<?xml version="1.0" encoding="UTF-8"?>
<svg xmlns="http://www.w3.org/2000/svg" id="Layer_1" data-name="Layer 1" viewBox="0 0 24 24">
  <path d="m20,0H4C1.791,0,0,1.791,0,4v16c0,2.209,1.791,4,4,4h4c2.209,0,4-1.791,4-4V2h.028c.362,7.35,4.862,10.602,7.972,12h4V4c0-2.209-1.791-4-4-4ZM7,19h-2c-.552,0-1-.448-1-1s.448-1,1-1h2c.552,0,1,.448,1,1s-.448,1-1,1Zm3-9.5c0,1.381-1.119,2.5-2.5,2.5h-3c-1.381,0-2.5-1.119-2.5-2.5v-5c0-1.381,1.119-2.5,2.5-2.5h3c1.381,0,2.5,1.119,2.5,2.5v5Zm8.355.186c-1.469-1.319-2.831-3.368-3.262-6.535-.082-.606.389-1.152,1-1.152.493,0,.926.356.992.844.351,2.617,1.417,4.3,2.578,5.366.209.192.336.453.336.737,0,.853-1.01,1.309-1.645.739Zm1.388,6.314h4.256v4c0,2.209-1.791,4-4,4h-2.436c-.974,0-1.697-.881-1.541-1.842.428-2.632,2.555-4.717,3.721-6.158ZM8,4.5v5c0,.276-.224.5-.5.5h-3c-.276,0-.5-.224-.5-.5v-5c0-.276.224-.5.5-.5h3c.276,0,.5.224.5.5Z"/>
</svg>
