<?xml version="1.0" encoding="UTF-8"?>
<svg xmlns="http://www.w3.org/2000/svg" id="Layer_1" data-name="Layer 1" viewBox="0 0 24 24">
  <path d="m8.641,13.528c-.678,1.049-.766,2.16-.254,3.214.385.79,1.109,1.533,2.154,2.208,1.162.75,2.123,1.031,2.91,1.031,1.4,0,2.253-.887,2.71-1.594,1.016-1.572,1.581-6.662,1.755-8.487L23.609,1.564c.312-.456.194-1.078-.262-1.39-.457-.312-1.078-.195-1.391.262l-5.495,8.046c-1.239.6-6.702,3.314-7.822,5.047Zm1.68,1.086h0c.374-.579,1.969-1.613,3.739-2.614l-3.2,4.686c-.31-.278-.545-.554-.674-.819-.144-.295-.239-.675.135-1.253Zm4.161,2.688c-.238.368-.661.979-1.932.455l2.886-4.226c-.277,1.72-.614,3.244-.955,3.771ZM2.355,9.607c-.189-.247-.252-.569-.17-.87.283-1.036.955-1.926,1.856-2.496-.006-.081-.009-.161-.009-.24,0-2.351,2.053-4.266,4.437-3.974.742-1.24,2.083-2.027,3.564-2.027s2.822.787,3.564,2.027c.904-.11,1.76.11,2.479.544l-2.968,4.345c-1.814.893-3.833,1.979-5.45,3.084H3.15c-.312,0-.605-.146-.795-.394Zm17.914.394l1.447-2.12c.127.312.224.638.273.977.041.287-.045.578-.234.798-.19.219-.466.345-.756.345h-.73Zm3.731,4.993c0,5.077-7,9-9,9h-6C7,23.994,0,20.071,0,14.994c0-.641.223-1.293.636-1.826.578-.746,1.45-1.174,2.392-1.174h4.274c-.128.151-.246.301-.342.449-1.062,1.644-1.195,3.481-.372,5.176.547,1.123,1.511,2.136,2.867,3.013,1.388.896,2.731,1.351,3.995,1.351,1.786,0,3.345-.891,4.39-2.509.786-1.215,1.409-3.733,1.86-7.479h1.271c.941,0,1.813.428,2.392,1.174.413.533.636,1.185.636,1.826Z"/>
</svg>
