<?xml version="1.0" encoding="UTF-8"?>
<svg xmlns="http://www.w3.org/2000/svg" id="Layer_1" data-name="Layer 1" viewBox="0 0 24 24">
  <path d="m16,7c0-.552.447-1,1-1v-1c0-1.302.839-2.402,2-2.816v-1.184c0-.552.447-1,1-1s1,.448,1,1v1.184c1.161.414,2,1.514,2,2.816v1c.553,0,1,.448,1,1s-.447,1-1,1h-6c-.553,0-1-.448-1-1Zm-2.125,10c.724-.928,1.125-1.949,1.125-2.944,0-3.265-2.88-4.719-4.786-5.681-.636-.321-1.597-.806-1.714-1.01v-1.365c0-.552-.447-1-1-1s-1,.448-1,1v1.325c-.165.267-1.094.736-1.714,1.05-1.906.962-4.786,2.416-4.786,5.681,0,.98.409,2.012,1.132,2.944h12.743Zm9.125,5v-12h-6v12h-4v-3H2v3h-1c-.553,0-1,.448-1,1s.447,1,1,1h22c.553,0,1-.448,1-1s-.447-1-1-1Z"/>
</svg>
