<?xml version="1.0" encoding="UTF-8"?>
<svg xmlns="http://www.w3.org/2000/svg" id="Layer_1" data-name="Layer 1" viewBox="0 0 24 24">
  <path d="m23.603.166c-.354-.246-.831-.215-1.15.075l-.412.307c-1.124.937-2.55,1.453-4.013,1.453H5.972c-1.463,0-2.889-.516-4.013-1.453l-.412-.307C1.228-.05.751-.081.397.166-.012.45-.122,1.006.147,1.425l.986,1.543c.605,1.412,1.616,2.521,2.867,3.22v2.812h-1c-.552,0-1,.448-1,1s.448,1,1,1h1v12c0,.552.448,1,1,1s1-.448,1-1v-12h12v12c0,.552.448,1,1,1s1-.448,1-1v-12h1c.552,0,1-.448,1-1s-.448-1-1-1h-1v-2.812c1.251-.699,2.262-1.808,2.867-3.22l.986-1.543c.269-.419.159-.975-.25-1.259ZM6,6.901c.356.061.719.099,1.094.099h3.906v2h-5v-2.099Zm12,2.099h-5v-2h3.906c.375,0,.738-.039,1.094-.099v2.099Z"/>
</svg>
