<?xml version="1.0" encoding="UTF-8"?>
<svg xmlns="http://www.w3.org/2000/svg" id="Layer_1" data-name="Layer 1" viewBox="0 0 24 24">
  <path d="M13,3.856v-.856c0-.552,.447-1,1-1s1,.448,1,1v.856c0,1.048,.559,2.033,1.457,2.573l1.602,.961c1.197,.718,1.941,2.033,1.941,3.43v.18c0,.552-.447,1-1,1s-1-.448-1-1v-.18c0-.699-.372-1.355-.971-1.715l-1.602-.961c-1.497-.898-2.428-2.542-2.428-4.288ZM0,16.5v1c0,1.378,1.121,2.5,2.5,2.5H7v-6H2.5c-1.379,0-2.5,1.122-2.5,2.5ZM18.456,5.44l2.087,1.252c.98,.588,1.457,1.343,1.457,2.308,0,.552,.447,1,1,1s1-.448,1-1c0-1.679-.84-3.07-2.428-4.022l-2.087-1.252c-.3-.18-.485-.508-.485-.857V1c0-.552-.447-1-1-1s-1,.448-1,1v1.868c0,1.048,.558,2.034,1.456,2.572Zm4.544,8.56c-.553,0-1,.448-1,1v4c0,.552,.447,1,1,1s1-.448,1-1v-4c0-.552-.447-1-1-1Zm-3,4.586v-3.586c0-.552-.447-1-1-1h-3.586L1.707,.293C1.316-.098,.684-.098,.293,.293S-.098,1.316,.293,1.707L22.293,23.707c.195,.195,.451,.293,.707,.293s.512-.098,.707-.293c.391-.391,.391-1.023,0-1.414l-3.707-3.707Zm-11-4.586v6h6.758l-6-6h-.758Z"/>
</svg>
