<?xml version="1.0" encoding="UTF-8"?>
<svg xmlns="http://www.w3.org/2000/svg" id="Layer_1" data-name="Layer 1" viewBox="0 0 24 24">
  <path d="m10,2c0-1.105.895-2,2-2s2,.895,2,2-.895,2-2,2-2-.895-2-2Zm4,15c0-1.105-.895-2-2-2s-2,.895-2,2,.895,2,2,2,2-.895,2-2Zm6.5-9c-1.105,0-2,.895-2,2s.895,2,2,2,2-.895,2-2-.895-2-2-2Zm-15,2c0-1.105-.895-2-2-2s-2,.895-2,2,.895,2,2,2,2-.895,2-2Zm1.224,6.633c.19-.232.265-.538.206-.832-.33-1.623-1.772-2.801-3.43-2.801S.4,14.178.07,15.801c-.06.294.016.6.206.832s.474.367.774.367h4.899c.3,0,.584-.135.774-.367Zm5.276-11.633c-1.657,0-3.1,1.178-3.43,2.801-.06.294.016.6.206.832s.474.367.774.367h4.899c.3,0,.584-.135.774-.367s.265-.538.206-.832c-.33-1.623-1.772-2.801-3.43-2.801Zm0,15c-1.657,0-3.1,1.178-3.43,2.801-.06.294.016.6.206.832s.474.367.774.367h4.899c.3,0,.584-.135.774-.367s.265-.538.206-.832c-.33-1.623-1.772-2.801-3.43-2.801Zm8.5-7.5c-1.657,0-3.1,1.178-3.43,2.801-.06.294.016.6.206.832s.474.367.774.367h4.899c.3,0,.584-.135.774-.367s.265-.538.206-.832c-.33-1.623-1.772-2.801-3.43-2.801ZM7,2h-1c-2.206,0-4,1.794-4,4,0,.553.448,1,1,1s1-.447,1-1c0-1.103.897-2,2-2h1c.552,0,1-.447,1-1s-.448-1-1-1Zm11,2c1.103,0,2,.897,2,2,0,.553.448,1,1,1s1-.447,1-1c0-2.206-1.794-4-4-4h-1c-.552,0-1,.447-1,1s.448,1,1,1h1Zm3.162,14.057c-.52-.181-1.092.089-1.276.61-.282.797-1.04,1.333-1.886,1.333-.552,0-1,.447-1,1s.448,1,1,1c1.692,0,3.208-1.071,3.772-2.667.184-.521-.089-1.092-.61-1.276Zm-15.162,1.943c-.847,0-1.604-.536-1.886-1.333-.184-.521-.754-.79-1.276-.61-.521.185-.794.756-.61,1.276.563,1.596,2.08,2.667,3.772,2.667.552,0,1-.447,1-1s-.448-1-1-1Z"/>
</svg>
