<?xml version="1.0" encoding="UTF-8"?>
<svg xmlns="http://www.w3.org/2000/svg" id="Layer_1" data-name="Layer 1" viewBox="0 0 24 24">
  <path d="m12,16.462l5.829,2.292c1.913.752,3.171,2.598,3.171,4.653v.593H4.538l-1.821-1.628c-.917-.858-.96-2.307-.098-3.23.861-.922,2.313-.97,3.235-.109.034.032,1.069.898,2.145,1.784v-8.817c0-1.215,1.083-2.176,2.336-1.973.983.16,1.664,1.083,1.664,2.08v4.355ZM19.5,0H4.5C2.015,0,0,2.015,0,4.5v3c0,2.485,2.015,4.5,4.5,4.5h1.5c0-1.175.514-2.286,1.409-3.047.694-.591,1.563-.92,2.463-.949,0-.049.008-.099.023-.147l.47-1.508-1.189-.967c-.16-.136-.218-.357-.146-.553.072-.197.26-.328.469-.328h1.5l.531-1.49c.073-.196.26-.325.469-.325s.396.13.469.325l.531,1.49h1.5c.21,0,.398.131.47.329s.013.419-.148.554l-1.183.964.489,1.49c.067.202,0,.424-.169.553-.169.129-.4.138-.578.023l-1.377-.897-.938.628c1.666.466,2.886,2.045,2.933,3.856h5.501c2.485,0,4.5-2.015,4.5-4.5v-3c0-2.485-2.015-4.5-4.5-4.5Zm-10.678,5.383l-1.183.964.489,1.49c.067.202,0,.424-.169.553-.169.129-.4.138-.578.023l-1.377-.897-1.354.906c-.084.056-.181.084-.278.084-.106,0-.211-.033-.3-.1-.17-.127-.241-.348-.177-.55l.47-1.508-1.189-.967c-.16-.136-.218-.357-.146-.553.072-.197.26-.328.469-.328h1.5l.531-1.49c.073-.196.26-.325.469-.325s.396.13.469.325l.531,1.49h1.5c.21,0,.398.131.47.329s.013.419-.148.554Zm12,0l-1.183.964.489,1.49c.067.202,0,.424-.169.553-.169.129-.4.138-.578.023l-1.377-.897-1.354.906c-.084.056-.181.084-.278.084-.106,0-.211-.033-.3-.1-.17-.127-.241-.348-.177-.55l.47-1.508-1.189-.967c-.16-.136-.218-.357-.146-.553.072-.197.26-.328.469-.328h1.5l.531-1.49c.073-.196.26-.325.469-.325s.396.13.469.325l.531,1.49h1.5c.21,0,.398.131.47.329s.013.419-.148.554Z"/>
</svg>
