<?xml version="1.0" encoding="UTF-8"?>
<svg xmlns="http://www.w3.org/2000/svg" id="Layer_1" data-name="Layer 1" viewBox="0 0 24 24">
  <path d="M15,8h-6V3.118c0-1.451,.978-2.784,2.402-3.06,1.915-.372,3.598,1.092,3.598,2.942v5Zm3.745,3.674c-.948-1.064-2.309-1.674-3.733-1.674h-6.023c-2.915-.059-5.367,2.696-4.964,5.596l.676,4.862c.233,2.019,1.941,3.542,3.974,3.542h6.652c2.032,0,3.74-1.522,3.971-3.519l.682-4.908c.164-1.415-.286-2.836-1.233-3.899Zm-2.745,6.326c0,1.103-.897,2-2,2h-4c-1.103,0-2-.897-2-2v-2c0-1.103,.897-2,2-2h4c1.103,0,2,.897,2,2v2Zm-6-2h4v2h-4v-2Z"/>
</svg>
