<?xml version="1.0" encoding="UTF-8"?>
<svg xmlns="http://www.w3.org/2000/svg" id="Layer_1" data-name="Layer 1" viewBox="0 0 24 24">
  <path d="m4,23c0,.553-.448,1-1,1H1c-.552,0-1-.447-1-1s.448-1,1-1h2c.552,0,1,.447,1,1Zm5-1h-2c-.552,0-1,.447-1,1s.448,1,1,1h2c.552,0,1-.447,1-1s-.448-1-1-1Zm11-6H6c-2.206,0-4-1.794-4-4s1.794-4,4-4h2c.552,0,1-.447,1-1s-.448-1-1-1h-2c-3.309,0-6,2.691-6,6s2.691,6,6,6h14c1.103,0,2,.897,2,2s-.897,2-2,2h-7c-.552,0-1,.447-1,1s.448,1,1,1h7c2.206,0,4-1.794,4-4s-1.794-4-4-4Zm-1.303-8.63l-7.455,1.095-1.106,2.45c-.324.916-.052,1.913.691,2.538.436.366.968.552,1.496.552.375,0,.747-.094,1.08-.281l9.424-4.688c.734-.426,1.173-1.188,1.173-2.037,0-.849-.439-1.609-1.229-2.065L13.448.301c-.848-.476-1.875-.381-2.621.247-.744.625-1.015,1.622-.66,2.617l1.073,2.37,7.457,1.095c.404.081.404.659,0,.74Z"/>
</svg>
