<?xml version="1.0" encoding="UTF-8"?>
<svg xmlns="http://www.w3.org/2000/svg" id="Layer_1" data-name="Layer 1" viewBox="0 0 24 24">
  <path d="m22,11.5c0-.275-.224-.5-.5-.5h-.5c-.552,0-1-.447-1-1s.448-1,1-1c.276,0,.5-.225.5-.5s-.224-.5-.5-.5h-2c-.552,0-1-.447-1-1s.448-1,1-1h2c1.378,0,2.5,1.121,2.5,2.5,0,.424-.107.824-.294,1.175.488.456.794,1.105.794,1.825,0,1.379-1.122,2.5-2.5,2.5h-2.5c-.552,0-1-.447-1-1s.448-1,1-1h2.5c.276,0,.5-.225.5-.5ZM1.757,7.655c-.324.175-.626.338-.876.49-.691.421-1.018,1.126-.83,1.795.18.644.792,1.06,1.557,1.06h3.392c.552,0,1-.447,1-1s-.448-1-1-1h-1.538c1.271-.725,2.538-1.636,2.538-3,0-1.654-1.346-3-3-3S0,4.346,0,6c0,.553.448,1,1,1s1-.447,1-1,.449-1,1-1,1,.448,1,1c0,.444-1.688,1.355-2.243,1.655ZM10.707,3.08l.293-.293v4.213c0,.553.448,1,1,1s1-.447,1-1V1.445c0-.586-.35-1.109-.891-1.334-.542-.224-1.16-.102-1.574.312l-1.242,1.242c-.391.391-.391,1.023,0,1.414s1.024.391,1.414,0Zm2.293,6.92h-2c-1.381,0-2.5,1.119-2.5,2.5v9c0,1.381,1.119,2.5,2.5,2.5h2c1.381,0,2.5-1.119,2.5-2.5v-9c0-1.381-1.119-2.5-2.5-2.5Zm8.5,6h-1.5c-1.381,0-2.5,1.119-2.5,2.5v3c0,1.381,1.119,2.5,2.5,2.5h1.5c1.381,0,2.5-1.119,2.5-2.5v-3c0-1.381-1.119-2.5-2.5-2.5Zm-17.5-3h-1.5c-1.381,0-2.5,1.119-2.5,2.5v6c0,1.381,1.119,2.5,2.5,2.5h1.5c1.381,0,2.5-1.119,2.5-2.5v-6c0-1.381-1.119-2.5-2.5-2.5Z"/>
</svg>
