<?xml version="1.0" encoding="UTF-8"?>
<svg xmlns="http://www.w3.org/2000/svg" id="Layer_1" data-name="Layer 1" viewBox="0 0 24 24">
  <path d="m24,20.5c0,1.93-1.57,3.5-3.5,3.5s-3.5-1.57-3.5-3.5,1.57-3.5,3.5-3.5,3.5,1.57,3.5,3.5Zm-9.527-9.559L23.707,1.707c.391-.391.391-1.023,0-1.414s-1.023-.391-1.414,0l-9.234,9.234-1.159-1.159c-.606-.606-1.629-.441-2.012.327l-.703,2.593c-.54-.174-1.101-.288-1.685-.288-1.469,0-2.851.572-3.889,1.611C1.927,14.295.365,20.134.069,21.288c-.192.752.02,1.528.567,2.076.414.415.96.637,1.526.637.182,0,.366-.023.549-.07,1.153-.295,6.991-1.855,8.677-3.542,1.039-1.039,1.611-2.42,1.611-3.889,0-.586-.115-1.15-.291-1.693l2.586-.705c.767-.384.933-1.406.327-2.012l-1.149-1.149Z"/>
</svg>
