<?xml version="1.0" encoding="UTF-8"?>
<svg xmlns="http://www.w3.org/2000/svg" id="Layer_1" data-name="Layer 1" viewBox="0 0 24 24">
  <path d="M.12,2.04c-.241-.479-.045-1.063,.442-1.287C1.882,.146,4.864-.653,7.689,.905c1.534,.846,2.181,2.64,1.624,4.222,.149,.396,.279,.82,.38,1.286,.41-.378,.874-.705,1.354-.995-.071-1.214,.698-2.413,1.91-2.941,2.029-.885,4.363-.339,5.482,.111,.502,.202,.721,.789,.478,1.272-.773,1.541-2.225,2.952-3.709,3.781-1.102,.616-2.431,.402-3.302-.422-.981,.64-1.73,1.532-1.98,2.154-.154,.383-.525,.626-.927,.626-.732,0-.98-.488-1-.959-.04-.981-.165-1.836-.358-2.56-.259-1.288-1.43-2.376-1.496-2.494-1.629-1.728-3.63-1.986-3.63-1.986,2.179,2.49,3,3.5,3.471,5.484-.605,.008-1.218-.121-1.784-.433C2.295,5.999,.991,3.771,.12,2.04Zm23.032,6.641c-.515-.469-1.186-.712-1.878-.678-.697,.032-1.339,.334-1.794,.835l-3.541,3.737c.032,.21,.065,.42,.065,.638,0,2.083-1.555,3.876-3.617,4.17l-4.252,.596c-.547,.078-1.053-.302-1.131-.848-.078-.547,.302-1.053,.848-1.131l4.162-.583c.936-.134,1.748-.806,1.94-1.732,.296-1.425-.79-2.685-2.164-2.685H4.003C1.794,11,.003,12.791,.003,15v5C.003,22.209,1.794,24,4.003,24h4.262c2.805,0,5.48-1.178,7.374-3.246l7.702-8.409c.948-1.062,.862-2.707-.189-3.665Z"/>
</svg>
