<?xml version="1.0" encoding="UTF-8"?>
<svg xmlns="http://www.w3.org/2000/svg" id="Layer_1" data-name="Layer 1" viewBox="0 0 24 24">
  <path d="m23.327,12.673c.897.897.897,2.353,0,3.25l-6.807,6.807c-.813.813-1.915,1.27-3.065,1.27h-1.455v-1.455c0-1.15.457-2.252,1.27-3.065l6.807-6.807c.897-.897,2.353-.897,3.25,0Zm-12.827-.673c-.828,0-1.5.672-1.5,1.5s.672,1.5,1.5,1.5,1.5-.672,1.5-1.5-.672-1.5-1.5-1.5ZM14,0h-7v6h7V0Zm4.663,11.259l-6.808,6.807c-.823.823-1.392,1.833-1.667,2.934h-5.189c-2.757,0-5-2.243-5-5V5C0,2.243,2.243,0,5,0v6c0,1.103.897,2,2,2h7c1.103,0,2-.897,2-2V.277c.33.15.637.352.894.611l3.236,3.265c.561.564.87,1.315.87,2.112v3.792c-.881.144-1.693.557-2.337,1.201Zm-4.663,2.241c0-1.933-1.567-3.5-3.5-3.5s-3.5,1.567-3.5,3.5,1.567,3.5,3.5,3.5,3.5-1.567,3.5-3.5Z"/>
</svg>
