<?xml version="1.0" encoding="UTF-8"?>
<svg xmlns="http://www.w3.org/2000/svg" id="Layer_1" data-name="Layer 1" viewBox="0 0 24 24">
  <path d="m8,7c0,1.105-.895,2-2,2s-2-.895-2-2,.895-2,2-2,2,.895,2,2Zm4-2c-1.105,0-2,.895-2,2s.895,2,2,2,2-.895,2-2-.895-2-2-2ZM9,0c-1.105,0-2,.895-2,2s.895,2,2,2,2-.895,2-2-.895-2-2-2Zm14.148,8.681c-.515-.469-1.186-.712-1.878-.678-.697.032-1.339.334-1.794.835l-3.541,3.737c.032.21.065.42.065.638,0,2.083-1.555,3.876-3.617,4.17l-4.252.596c-.547.078-1.053-.302-1.131-.848-.078-.547.302-1.053.848-1.131l4.162-.583c.936-.134,1.748-.806,1.94-1.732.296-1.425-.79-2.685-2.164-2.685h-7.787c-2.209,0-4,1.791-4,4v5c0,2.209,1.791,4,4,4h4.262c2.805,0,5.48-1.178,7.374-3.246l7.702-8.409c.948-1.062.862-2.707-.189-3.665Z"/>
</svg>
