<?xml version="1.0" encoding="UTF-8"?>
<svg xmlns="http://www.w3.org/2000/svg" id="Layer_1" data-name="Layer 1" viewBox="0 0 24 24">
  <path d="m9,2.5c0-1.381,1.119-2.5,2.5-2.5s2.5,1.119,2.5,2.5-1.119,2.5-2.5,2.5-2.5-1.119-2.5-2.5Zm9.082,5.088c-.459-.307-1.081-.182-1.387.277l-1.292,1.941s-2.088-2.864-2.134-2.907c-.618-.58-1.424-.899-2.27-.899-1.654,0-3,1.346-3,3v4.646c0,1.525.848,2.896,2.211,3.578l.789.395v5.382c0,.552.447,1,1,1s1-.448,1-1v-9.678l-1.703-2.251c-.325-.447-.226-1.072.221-1.397.449-.326,1.073-.225,1.396.221l1.177,1.501c.333.385.902.604,1.409.604.526-.015.972-.264,1.332-.735l1.527-2.29c.307-.459.183-1.081-.277-1.387Z"/>
</svg>
