<?xml version="1.0" encoding="UTF-8"?>
<svg xmlns="http://www.w3.org/2000/svg" id="Layer_1" data-name="Layer 1" viewBox="0 0 24 24">
  <path d="m5.5,23h-3c-.828,0-1.5-.672-1.5-1.5v-3c0-.828.672-1.5,1.5-1.5h3c.828,0,1.5.672,1.5,1.5v3c0,.828-.672,1.5-1.5,1.5Zm9.5-1.5v-3c0-.828-.672-1.5-1.5-1.5h-3c-.828,0-1.5.672-1.5,1.5v3c0,.828.672,1.5,1.5,1.5h3c.828,0,1.5-.672,1.5-1.5Zm0-16v-3c0-.828-.672-1.5-1.5-1.5h-3c-.828,0-1.5.672-1.5,1.5v3c0,.828.672,1.5,1.5,1.5h3c.828,0,1.5-.672,1.5-1.5Zm8,16v-3c0-.828-.672-1.5-1.5-1.5h-3c-.828,0-1.5.672-1.5,1.5v3c0,.828.672,1.5,1.5,1.5h3c.828,0,1.5-.672,1.5-1.5Zm-12-8v-3c0-.828-.672-1.5-1.5-1.5h-3c-.828,0-1.5.672-1.5,1.5v3c0,.828.672,1.5,1.5,1.5h3c.828,0,1.5-.672,1.5-1.5Zm8,0v-3c0-.828-.672-1.5-1.5-1.5h-3c-.828,0-1.5.672-1.5,1.5v3c0,.828.672,1.5,1.5,1.5h3c.828,0,1.5-.672,1.5-1.5Z"/>
</svg>
