<?xml version="1.0" encoding="UTF-8"?>
<svg xmlns="http://www.w3.org/2000/svg" id="Layer_1" data-name="Layer 1" viewBox="0 0 24 24">
  <path d="m12,0C5.383,0,0,5.383,0,12s5.383,12,12,12,12-5.383,12-12S18.617,0,12,0Zm-5,16c0,.553-.448,1-1,1s-1-.447-1-1v-5.9l-.523.574c-.372.406-1.004.438-1.413.065-.408-.372-.438-1.004-.066-1.413l1.732-1.901c.372-.402.935-.532,1.439-.334.504.197.831.674.831,1.216v7.693Zm7-1c.553,0,1,.447,1,1s-.447,1-1,1h-4c-.552,0-1-.447-1-1,0-1.357,1.04-2.254,2.045-3.12,1.006-.867,1.955-1.687,1.955-2.88,0-.552-.448-1-1-1s-1,.448-1,1-.448,1-1,1-1-.447-1-1c0-1.654,1.346-3,3-3s3,1.346,3,3c0,2.109-1.469,3.376-2.649,4.394-.233.202-.471.407-.68.606h2.329Zm7-2h-1v1c0,.553-.447,1-1,1s-1-.447-1-1v-1h-1c-.553,0-1-.447-1-1s.447-1,1-1h1v-1c0-.553.447-1,1-1s1,.447,1,1v1h1c.553,0,1,.447,1,1s-.447,1-1,1Z"/>
</svg>
