<?xml version="1.0" encoding="UTF-8"?>
<svg xmlns="http://www.w3.org/2000/svg" id="Layer_1" data-name="Layer 1" viewBox="0 0 24 24">
  <path d="M17.282,22.987c-1.212,0-2.391-.332-3.44-.991-.75-.472-1.372-1.076-1.842-1.768-.47,.692-1.092,1.296-1.842,1.768-1.959,1.23-4.365,1.32-6.603,.243-.996-.479-1.839-1.208-2.438-2.108C-2.379,14.88,2.958,7.621,9.119,2.579c1.671-1.367,4.093-1.366,5.762,0,6.161,5.042,11.498,12.302,8.001,17.552-.599,.9-1.441,1.629-2.438,2.108-1.038,.5-2.113,.749-3.162,.749Z"/>
</svg>
