<?xml version="1.0" encoding="UTF-8"?>
<svg xmlns="http://www.w3.org/2000/svg" id="Layer_1" data-name="Layer 1" viewBox="0 0 24 24">
  <path d="M1.5,7.5c0-.828,.672-1.5,1.5-1.5s1.5,.672,1.5,1.5-.672,1.5-1.5,1.5-1.5-.672-1.5-1.5Zm6.5,1.5c.828,0,1.5-.672,1.5-1.5s-.672-1.5-1.5-1.5-1.5,.672-1.5,1.5,.672,1.5,1.5,1.5Zm5,0c.828,0,1.5-.672,1.5-1.5s-.672-1.5-1.5-1.5-1.5,.672-1.5,1.5,.672,1.5,1.5,1.5Zm-2.665,3c.54,0,.863-.513,.529-.86-.668-.693-1.699-1.14-2.864-1.14s-2.196,.446-2.864,1.14c-.334,.347-.011,.86,.529,.86h4.671Zm5.529-.86c-.668-.693-1.699-1.14-2.864-1.14-.167,0-.324,.029-.485,.046,.41,.574,.551,1.274,.396,1.954h2.424c.54,0,.863-.513,.529-.86ZM.665,12H3.089c-.156-.679-.014-1.38,.396-1.954-.161-.018-.318-.046-.485-.046-1.165,0-2.196,.446-2.864,1.14-.334,.347-.011,.86,.529,.86ZM6.875,5.222l1.128-.745,1.147,.737c.31,.215,.756-.116,.623-.473l-.408-1.224,.986-.792c.298-.232,.106-.738-.268-.725h-1.25l-.442-1.224c-.119-.35-.662-.35-.781,0l-.442,1.224h-1.25c-.374-.013-.566,.491-.27,.724l.991,.795-.392,1.239c-.127,.359,.323,.684,.629,.465Zm5.27,.225l.858-.566,.872,.56c.235,.163,.575-.088,.474-.36l-.31-.931,.749-.602c.227-.176,.081-.561-.204-.551h-.951l-.336-.931c-.09-.266-.503-.266-.594,0l-.336,.931h-.951c-.284-.01-.43,.374-.205,.55l.753,.604-.298,.942c-.096,.273,.245,.52,.478,.353Zm-9.998,0l.858-.566,.872,.56c.235,.163,.575-.088,.474-.36l-.31-.931,.749-.602c.227-.176,.081-.561-.204-.551h-.951l-.336-.931c-.09-.266-.503-.266-.594,0l-.336,.931h-.951c-.284-.01-.43,.374-.205,.55l.753,.604-.298,.942c-.096,.273,.245,.52,.478,.353ZM23.341,15.345l-6.44,7.032c-.947,1.034-2.285,1.623-3.687,1.623H4.003C1.794,24,.003,22.209,.003,20v-2C.003,15.791,1.794,14,4.003,14h7.787c1.374,0,2.46,1.26,2.164,2.685-.193,.926-1.004,1.598-1.94,1.732l-4.162,.583c-.547,.078-.927,.585-.848,1.131,.078,.547,.585,.926,1.131,.848l4.252-.596c2.062-.294,3.617-2.087,3.617-4.17,0-.219-.032-.429-.065-.638l3.541-3.737c.908-1.04,2.665-1.12,3.672-.157,1.052,.958,1.138,2.602,.189,3.665Z"/>
</svg>
