<?xml version="1.0" encoding="UTF-8"?>
<svg xmlns="http://www.w3.org/2000/svg" id="Layer_1" data-name="Layer 1" viewBox="0 0 24 24">
  <path d="m14,4c0-.552.447-1,1-1h2c2.206,0,4,1.794,4,4v2c0,.552-.447,1-1,1s-1-.448-1-1v-2c0-1.103-.897-2-2-2h-2c-.553,0-1-.448-1-1Zm-5,15h-2c-1.103,0-2-.897-2-2v-2c0-.552-.447-1-1-1s-1,.448-1,1v2c0,2.206,1.794,4,4,4h2c.553,0,1-.448,1-1s-.447-1-1-1Zm3-13c0,3.309-2.691,6-6,6S0,9.309,0,6,2.691,0,6,0s6,2.691,6,6Zm-8-2c0,1.105.895,2,2,2s2-.895,2-2-.895-2-2-2-2,.895-2,2Zm4.776,4.87c-.445-1.095-1.514-1.87-2.768-1.87h-.016c-1.254,0-2.325.774-2.769,1.868.72.698,1.698,1.132,2.778,1.132s2.055-.433,2.776-1.13Zm15.224,9.13c0,3.309-2.691,6-6,6s-6-2.691-6-6,2.691-6,6-6,6,2.691,6,6Zm-8-2c0,1.105.895,2,2,2s2-.895,2-2-.895-2-2-2-2,.895-2,2Zm4.776,4.87c-.445-1.095-1.514-1.87-2.768-1.87h-.016c-1.254,0-2.325.774-2.769,1.868.72.698,1.698,1.132,2.778,1.132s2.055-.433,2.776-1.13Z"/>
</svg>
