<?xml version="1.0" encoding="UTF-8"?>
<svg xmlns="http://www.w3.org/2000/svg" id="Layer_1" data-name="Layer 1" viewBox="0 0 24 24">
  <path d="m23.737,5.48c-.131-.457-1.126-1.18-1.946-.36-.82.82-3.316,3.316-3.316,3.316-.787.787-2.074.764-2.853-.036-.799-.779-.824-2.067-.037-2.854,0,0,2.496-2.496,3.316-3.316.82-.82.097-1.815-.36-1.946-.748-.214-1.523-.308-2.317-.279-3.773.134-6.953,3.199-7.207,6.965-.045.665-.005,1.317.117,1.95.182.94-.163,1.905-.84,2.583L.87,18.906c-1.162,1.163-1.155,3.059-.007,4.231,1.172,1.149,3.068,1.156,4.231-.006l7.424-7.404c.677-.677,1.642-1.022,2.583-.84.633.122,1.285.162,1.95.117,3.767-.254,6.831-3.434,6.965-7.207.028-.794-.065-1.569-.279-2.317Z"/>
</svg>
