<?xml version="1.0" encoding="UTF-8"?>
<svg xmlns="http://www.w3.org/2000/svg" id="Layer_1" data-name="Layer 1" viewBox="0 0 24 24">
  <path d="m2.809,16h18.382l-.611,3.794c-.39,2.424-2.482,4.206-4.936,4.206h-7.288c-2.455,0-4.546-1.782-4.937-4.206l-.611-3.794Zm18.691-7h-3.5c-.552,0-1-.448-1-1s.448-1,1-1h1c.996,0,1.92-.681,2.08-1.664.204-1.253-.758-2.336-1.973-2.336h-3.084c-.522-1.499-1.218-2.112-2.369-2.844-.584-.372-1.379-.04-1.485.644-.234,1.512-1.169,2.2-1.169,2.2h-5.893c-.996,0-1.92.681-2.08,1.664-.204,1.253.758,2.336,1.973,2.336h7.154c.552,0,1,.448,1,1s-.448,1-1,1H2.643C1.335,9,.143,9.941.013,11.242c-.15,1.496,1.021,2.758,2.487,2.758h18.857c1.308,0,2.499-.941,2.63-2.242.15-1.496-1.021-2.758-2.487-2.758Z"/>
</svg>
