<?xml version="1.0" encoding="UTF-8"?>
<svg xmlns="http://www.w3.org/2000/svg" id="Layer_1" data-name="Layer 1" viewBox="0 0 24 24">
  <path d="m22.797,16.004c-5.588.475-8.463,3.688-9.797,5.879v-7.968c3.372-.503,5.962-3.402,5.962-6.915,0-3.866-3.134-7-7-7s-7,3.134-7,7c0,3.539,2.629,6.457,6.038,6.926v7.938c-1.339-2.19-4.214-5.387-9.786-5.86-.744-.063-1.414.601-1.159,1.236,2.502,6.229,8.504,6.792,10.887,6.76.364-.005,1.677-.006,2.038,0,2.454.042,8.856-.479,10.975-6.76.219-.649-.416-1.299-1.159-1.236Zm-13.606-6.038c-.418-.504-.063-1.266.592-1.266h.076c.227,0,.434.107.588.274.128.139.312.226.515.226h2.103c.278,0,.532-.187.586-.46.063-.318-.146-.615-.451-.677l-2.791-.559c-1.112-.223-1.888-1.281-1.725-2.439.152-1.08,1.108-1.866,2.199-1.866h.28v-.4c0-.442.358-.8.8-.8s.8.358.8.8v.4h.2c.711,0,1.348.324,1.77.833.418.504.063,1.266-.592,1.266h-.076c-.227,0-.434-.107-.588-.274-.128-.139-.312-.226-.515-.226h-2.102c-.278,0-.532.186-.587.458-.064.318.146.617.449.678l2.792.559c1.112.222,1.889,1.282,1.725,2.439-.153,1.08-1.108,1.865-2.199,1.865h-.28v.4c0,.442-.358.8-.8.8s-.8-.358-.8-.8v-.4h-.2c-.711,0-1.348-.325-1.77-.833Z"/>
</svg>
