<?xml version="1.0" encoding="UTF-8"?>
<svg xmlns="http://www.w3.org/2000/svg" id="Layer_1" data-name="Layer 1" viewBox="0 0 24 24">
  <path d="M5,5.5c0-1.381,1.119-2.5,2.5-2.5s2.5,1.119,2.5,2.5-1.119,2.5-2.5,2.5-2.5-1.119-2.5-2.5Zm3.97,7.008c-.162,.948-.322,2.142-.406,3.492h5.436v1.032c-1.068,1.745-1.5,4.109-1.5,4.968,0,.753,.207,1.423,.551,2H7.304c-2.163,0-4.239-1.024-5.555-2.741l-1.287-1.678c-.52-.678-.608-1.574-.23-2.34s1.143-1.241,1.997-1.241h1.835c.12-1.945,.388-3.597,.609-4.698,.268-1.334,1.455-2.302,2.822-2.302,.966,0,1.862,.479,2.397,1.283l1.145,1.717h1.965c.553,0,1,.448,1,1s-.447,1-1,1h-1.965c-.67,0-1.292-.333-1.664-.891l-.401-.601ZM19.5,2c0-1.381-1.119-2-2.5-2s-2.5,.619-2.5,2c0,1.025,.617,3.281,1.5,4.377v11.247c-.883,1.096-1.5,3.352-1.5,4.377,0,1.381,1.119,2,2.5,2s2.5-.619,2.5-2c0-1.025-.617-3.281-1.5-4.377V6.377c.883-1.096,1.5-3.352,1.5-4.377Zm4.268,15.241c-.377-.766-1.143-1.241-1.996-1.241h-1.771v1.032c1.068,1.745,1.5,4.109,1.5,4.968,0,.028-.008,.054-.008,.082,.271-.255,.53-.524,.759-.823l1.288-1.678c.519-.678,.606-1.574,.229-2.34Z"/>
</svg>
