<?xml version="1.0" encoding="UTF-8"?>
<svg xmlns="http://www.w3.org/2000/svg" id="Layer_1" data-name="Layer 1" viewBox="0 0 24 24">
  <path d="m12,12c3.314,0,6-2.686,6-6S15.314,0,12,0s-6,2.686-6,6,2.686,6,6,6Zm-3.278-7.934c.152-1.08,1.108-1.866,2.199-1.866h.28v-.4c0-.442.358-.8.8-.8s.8.358.8.8v.4h.405c.711,0,1.348.324,1.77.833.418.504.063,1.266-.592,1.266-.227,0-.51-.107-.664-.274-.128-.139-.312-.226-.515-.226h-2.307c-.278,0-.532.186-.587.458-.064.318.146.617.449.678l2.792.559c1.112.222,1.889,1.282,1.725,2.439-.153,1.08-1.108,1.865-2.199,1.865h-.28v.4c0,.442-.358.8-.8.8s-.8-.358-.8-.8v-.4h-.431c-.711,0-1.348-.325-1.77-.833-.418-.504-.063-1.266.592-1.266.227,0,.51.107.664.274.128.139.312.226.515.226h2.334c.278,0,.532-.187.586-.46.063-.318-.146-.615-.451-.677l-2.791-.559c-1.112-.223-1.888-1.281-1.725-2.439Zm4.285,12.189l4.778,4.279-3.381,2.639c-.687.536-1.533.827-2.404.827s-1.717-.291-2.404-.827l-2.98-2.326c-.703-.549-1.569-.847-2.461-.847H1c-.552,0-1-.448-1-1v-7c0-.552.448-1,1-1h3.521c.389,0,.775-.04,1.154-.115.609.787,1.36,1.455,2.216,1.969-1.031,1.07-1.186,2.731-.353,3.884.52.724,1.163,1.262,2.333,1.262.792,0,1.667-.312,2.202-.85l.935-.895Zm-1.007-2.255c.189,0,.373-.015.559-.028l-1.869,1.734c-.207.208-.493.315-.788.29-.298-.024-.56-.175-.739-.425-.274-.38-.19-.975.181-1.347l.53-.52c.678.187,1.389.295,2.127.295Zm12-2v7c0,.552-.448,1-1,1h-2.814l-6.837-6.122c2.027-.345,3.791-1.449,4.993-3.014.403.084.813.137,1.227.137h3.431c.552,0,1,.448,1,1Z"/>
</svg>
