<?xml version="1.0" encoding="UTF-8"?>
<svg xmlns="http://www.w3.org/2000/svg" id="Layer_1" data-name="Layer 1" viewBox="0 0 24 24">
  <path d="m21.975,4.901l-.799,7.188c-.056.506-.484.889-.994.889H3.682c-.509,0-.937-.383-.994-.889l-.799-7.188C1.653,2.775,3.133.845,5.246.506c.355-.057.715-.102,1.073-.15l.509,9.674c.028.531.467.947.999.947h0c.573,0,1.029-.48.999-1.052L8.31.137c.87-.073,1.745-.116,2.622-.137v9.978c0,.552.448,1,1,1h0c.552,0,1-.448,1-1V0c.877.02,1.752.063,2.622.137l-.515,9.789c-.03.572.426,1.052.999,1.052h0c.532,0,.971-.416.999-.947l.509-9.674c.359.048.719.093,1.074.15,2.113.339,3.592,2.268,3.356,4.395Zm-13.132,10.099l-.465,8.842c.87.073,1.745.116,2.622.137v-8.978h-2.157Zm-6.532.89l-.354,3.188c-.236,2.127,1.244,4.057,3.357,4.395.355.057.714.102,1.072.15l.454-8.622h-3.535c-.51,0-.938.383-.994.89Zm18.383-.89h-3.535l.454,8.622c.359-.048.719-.093,1.074-.15,2.112-.339,3.592-2.268,3.356-4.395l-.355-3.188c-.056-.506-.484-.889-.994-.889Zm-7.695,0v8.978c.877-.02,1.752-.063,2.622-.137l-.465-8.842h-2.157Z"/>
</svg>
