<?xml version="1.0" encoding="UTF-8"?>
<svg xmlns="http://www.w3.org/2000/svg" id="Layer_1" data-name="Layer 1" viewBox="0 0 24 24">
  <path d="M20,9h-2.008c0-1.654-1.346-3-3-3H4.992c-.802,0-1.556,.312-2.123,.88-.566,.567-.878,1.321-.877,2.123l.002,3.186c1.472,.368,2.735,1.112,3.705,2.228,.763-.658,1.665-1.118,2.676-1.353h0c.936-.219,1.924,.033,2.638,.671,.716,.639,1.078,1.593,.969,2.552-.185,1.614-.841,2.824-1.714,3.713h.727c1.871,0,3.629-.729,4.952-2.053,.574-.575,1.029-1.235,1.367-1.947h2.686c2.28,0,4-1.521,4-3.538,0-2.006-1.682-3.462-4-3.462Zm0,5h-2.084c.047-.331,.079-.666,.079-1.006v-1.994s2.005,0,2.005,0c.743,0,2,.308,2,1.462,0,1.01-1.006,1.538-2,1.538ZM9.025,3V1c0-.553,.448-1,1-1s1,.447,1,1V3c0,.553-.448,1-1,1s-1-.447-1-1Zm4,0V1c0-.553,.448-1,1-1s1,.447,1,1V3c0,.553-.448,1-1,1s-1-.447-1-1Zm-8,0V1c0-.553,.448-1,1-1s1,.447,1,1V3c0,.553-.448,1-1,1s-1-.447-1-1Zm14.975,20c0,.553-.448,1-1,1H1c-.552,0-1-.447-1-1s.448-1,1-1H19c.552,0,1,.447,1,1ZM.002,14.987c-.038-.587,.5-1.073,1.08-.974,2.772,.473,3.947,2.629,4.431,4.187,.433-1.194,1.381-2.739,3.314-3.187,.654-.152,1.245,.381,1.169,1.048-.349,3.053-2.875,3.783-4.139,3.899,.051,.024-.757,.032-.733,.006C3.62,19.859,.271,19.089,.002,14.987Z"/>
</svg>
