<?xml version="1.0" encoding="UTF-8"?>
<svg xmlns="http://www.w3.org/2000/svg" id="Layer_1" data-name="Layer 1" viewBox="0 0 24 24">
  <path d="m5.16,3.416l.732,2.139h-1.784l.725-2.121c.023-.047.112-.102.167-.102.057,0,.142.047.16.083Zm4.84,1.584c0,2.761-2.239,5-5,5S0,7.761,0,5,2.239,0,5,0s5,2.239,5,5Zm-2.444,2.061l-1.362-4.055c-.286-.647-.685-.784-1.194-.784-.509,0-.909.137-1.202.804l-1.354,4.034c-.118.352.144.717.516.717h0c.233,0,.439-.148.515-.368l.254-.743h2.544l.254.743c.075.22.282.368.514.368h0c.372,0,.634-.365.515-.717Zm11.108-.893c-.029.288-.287.499-.577.499-.4,0-1.134,0-1.643,0-.307,0-.555-.249-.555-.556v-.556h2.222c.325,0,.586.281.553.612Zm-.556-2.335c-.029-.288-.288-.499-.578-.499h-1.086c-.307,0-.556.249-.556.556v.556h1.667c.325,0,.586-.281.553-.612Zm3.892,1.167c0,2.761-2.239,5-5,5s-5-2.239-5-5S14.239,0,17,0s5,2.239,5,5Zm-2.228,1.248c.052-.645-.267-1.222-.765-1.541.144-.254.222-.549.214-.863-.024-.911-.801-1.622-1.713-1.622h-.848c-1.088,0-1.883.796-1.883,1.778v2c0,.982.796,1.778,1.778,1.778h1.512c.876,0,1.635-.657,1.705-1.53Zm-6.772,10.214l5.829,2.292c1.913.752,3.171,2.598,3.171,4.653v.593H5.538l-1.821-1.628c-.917-.858-.96-2.307-.098-3.23.861-.922,2.313-.97,3.235-.109.034.032,1.069.898,2.145,1.784v-8.817c0-1.215,1.083-2.176,2.336-1.973.983.16,1.664,1.083,1.664,2.08v4.355Z"/>
</svg>
