<?xml version="1.0" encoding="UTF-8"?>
<svg xmlns="http://www.w3.org/2000/svg" id="Layer_1" data-name="Layer 1" viewBox="0 0 24 24">
  <path d="m9.5,21h5c.276,0,.5.225.5.5v2.5h-6v-2.5c0-.275.224-.5.5-.5ZM0,10h24v9c0,2.757-2.243,5-5,5h-2v-2.5c0-1.379-1.122-2.5-2.5-2.5h-1.5v-1c0-.553-.448-1-1-1s-1,.447-1,1v1h-1.5c-1.378,0-2.5,1.121-2.5,2.5v2.5h-2c-2.757,0-5-2.243-5-5v-9Zm10.5,4.5c0,.828.672,1.5,1.5,1.5s1.5-.672,1.5-1.5c0-.777-.716-1.96-1.158-2.366-.194-.178-.489-.178-.683,0-.443.406-1.158,1.589-1.158,2.366ZM19,2h-1v-1c0-.552-.448-1-1-1s-1,.448-1,1v1h-8v-1c0-.552-.448-1-1-1s-1,.448-1,1v1h-1C2.243,2,0,4.243,0,7v1h24v-1c0-2.757-2.243-5-5-5Z"/>
</svg>
