<?xml version="1.0" encoding="UTF-8"?>
<svg xmlns="http://www.w3.org/2000/svg" id="Layer_1" data-name="Layer 1" viewBox="0 0 24 24">
  <path d="m14.27,6.48c-.813.813-1.27,1.915-1.27,3.065v1.455h1.455c1.15,0,2.252-.457,3.065-1.27l5.807-5.807c.897-.897.897-2.353,0-3.25-.897-.897-2.353-.897-3.25,0l-5.807,5.807ZM3,1.5v3.5h-.5c-1.381,0-2.5-1.119-2.5-2.5v-1C0,.672.672,0,1.5,0s1.5.672,1.5,1.5Zm20.992,19.668c-.014.156-.03.275-.047.332-.43,1.446-1.77,2.5-3.355,2.5h-9.35c.48-.716.76-1.576.76-2.5,0-1.381,1.119-2.5,2.5-2.5h7.498c1.17,0,2.099,1.003,1.993,2.168Zm-3.992-11.09v6.922h-5.499c-2.488,0-4.497,2.017-4.501,4.505-.003,1.48-1.292,2.659-2.81,2.477-1.279-.154-2.19-1.335-2.19-2.624V1.5c0-.536-.122-1.045-.338-1.5h11.338c.566,0,1.102.12,1.59.332l-4.734,4.734c-1.196,1.196-1.855,2.787-1.855,4.479v3.455h3.455c1.691,0,3.282-.659,4.479-1.855l1.066-1.066Z"/>
</svg>
