<?xml version="1.0" encoding="UTF-8"?>
<svg xmlns="http://www.w3.org/2000/svg" id="Layer_1" data-name="Layer 1" viewBox="0 0 24 24">
  <path d="m24,1h0c0-.552-.448-1-1-1H1C.448,0,0,.448,0,1h0c0,.552.448,1,1,1h1.5v15.163c-1.646.495-2.795,2.152-2.433,4.027.253,1.315,1.291,2.407,2.596,2.712,2.291.535,4.337-1.199,4.337-3.402,0-1.58-1.059-2.903-2.5-3.337V2h5v15.163c-1.646.495-2.795,2.152-2.433,4.027.253,1.315,1.291,2.407,2.596,2.712,2.291.535,4.337-1.199,4.337-3.402,0-1.58-1.059-2.903-2.5-3.337V2h2.109l4.928,15.605c-1.117.76-1.775,2.148-1.457,3.653.273,1.291,1.307,2.351,2.593,2.647,2.287.527,4.327-1.205,4.327-3.405,0-1.93-1.57-3.5-3.5-3.5-.019,0-.036.005-.055.006L15.706,2h7.294c.552,0,1-.448,1-1Z"/>
</svg>
