<?xml version="1.0" encoding="UTF-8"?>
<svg xmlns="http://www.w3.org/2000/svg" id="Layer_1" data-name="Layer 1" viewBox="0 0 24 24">
  <path d="m19,24h-2c-.552,0-1-.448-1-1s.448-1,1-1h2c.552,0,1,.448,1,1s-.448,1-1,1Zm-6,0h-2c-.552,0-1-.448-1-1s.448-1,1-1h2c.552,0,1,.448,1,1s-.448,1-1,1Zm9.443-1.607c-.186,0-.373-.051-.541-.16-.464-.299-.598-.918-.298-1.382.259-.401.396-.869.396-1.351,0-.552.448-1,1-1h0c.553,0,1,.448,1,1,0,.868-.248,1.709-.715,2.434-.191.296-.513.458-.841.458Zm-1.489-5.077c-.139,0-.281-.029-.416-.091-.326-.149-.676-.225-1.04-.225h-.499c-.552,0-1-.448-1-1s.448-1,1-1h.5c.653,0,1.282.137,1.871.407.502.229.723.823.493,1.325-.168.367-.531.584-.91.584Zm-5.954-.316c-.894,0-1.772-.304-2.473-.856-.434-.342-.509-.971-.167-1.404.342-.434.972-.509,1.404-.167.355.279.782.427,1.235.427.552,0,1,.448,1,1s-.447,1-1,1Zm-2.73-4.246c-.139,0-.28-.029-.415-.091-.502-.229-.724-.823-.494-1.325.212-.464.508-.879.879-1.233.398-.38,1.033-.366,1.414.034.381.399.366,1.032-.034,1.414-.186.177-.333.385-.439.617-.168.368-.531.585-.91.585ZM22.536,1.464h0c-.945-.944-2.201-1.464-3.536-1.464s-2.591.52-3.536,1.464c-1.949,1.95-1.949,5.122.008,7.079l1.801,1.761c.476.466,1.102.699,1.727.699s1.251-.233,1.727-.699l1.809-1.769c1.949-1.95,1.949-5.122,0-7.071Zm-3.536,5.036c-.828,0-1.5-.672-1.5-1.5s.672-1.5,1.5-1.5,1.5.672,1.5,1.5-.672,1.5-1.5,1.5Zm-10.465,7.964c-.944-.944-2.2-1.464-3.535-1.464s-2.591.52-3.536,1.464c-1.949,1.95-1.949,5.122.008,7.079l1.801,1.761c.476.466,1.102.699,1.727.699s1.251-.233,1.727-.699l1.808-1.769c1.95-1.95,1.95-5.122,0-7.071Zm-3.535,5.036c-.828,0-1.5-.672-1.5-1.5s.672-1.5,1.5-1.5,1.5.672,1.5,1.5-.672,1.5-1.5,1.5Z"/>
</svg>
