<?xml version="1.0" encoding="UTF-8"?>
<svg xmlns="http://www.w3.org/2000/svg" id="Layer_1" data-name="Layer 1" viewBox="0 0 24 24">
  <path d="M12.434,9.985c0,.398-.349,.735-.762,.735l-.21,.003-.005-1.473h.215c.413,0,.762,.336,.762,.735Zm9.566-3.113v5.171c0,7.434-7.047,10.848-9.207,11.717-.533,.312-1.134,.289-1.641-.066-2.147-1.074-9.153-5.087-9.153-11.65V6.872c0-2.16,1.377-4.067,3.427-4.746L11.685,.051c.205-.067,.425-.067,.63,0l6.258,2.075c2.05,.679,3.427,2.586,3.427,4.746Zm-12.494,1.87c.078-.383-.215-.742-.606-.742-.293,0-.547,.206-.606,.494l-.838,4.057-.838-4.057c-.059-.287-.312-.494-.606-.494h-.041c-.394,0-.687,.363-.605,.748l.876,4.104c.081,.421,.317,.783,.645,.984,.332,.204,.722,.217,1.069,.042,.357-.178,.627-.574,.721-1.059l.83-4.077Zm4.178,1.243c0-1.094-.902-1.985-2.012-1.985h-.842c-.345,0-.625,.28-.625,.625v4.75c0,.345,.28,.625,.625,.625s.625-.28,.625-.625v-1.402l.217-.003c1.109,0,2.012-.891,2.012-1.985Zm4.521-1.345c0-.353-.287-.64-.64-.64s-.64,.286-.64,.64v2.407l-1.228-2.598c-.13-.274-.405-.449-.708-.449-.433,0-.784,.351-.784,.784v4.576c0,.353,.286,.64,.64,.64s.64-.287,.64-.64v-2.401l1.228,2.592c.13,.274,.405,.448,.708,.448h0c.433,0,.784-.351,.784-.784v-4.576Z"/>
</svg>
