<?xml version="1.0" encoding="UTF-8"?>
<svg xmlns="http://www.w3.org/2000/svg" id="Layer_1" data-name="Layer 1" viewBox="0 0 24 24">
  <path d="m23,24H3c-1.654,0-3-1.346-3-3s1.346-3,3-3h20c.419,0,.794.262.938.655.144.392.03.831-.287,1.103-.183.161-.652.694-.652,1.242,0,.647.641,1.232.647,1.238.319.271.436.713.291,1.106s-.519.655-.938.655ZM4,11.006c0-3.315,2.488-6.003,5.5-6.003h1.486c-.052-1.321-.584-2.852-.911-3.631-.196-.467.005-1.006.45-1.249h0c.517-.282,1.168-.066,1.397.477.322.765.816,2.149.975,3.308.154-.839.497-1.914,1.263-2.668C15.016.398,16.31.089,17.142.004c.516-.053.931.403.848.915-.142.874-.58,2.2-1.454,3.06-.576.567-1.295.866-1.954,1.029,2.975.049,5.418,2.714,5.418,5.998,0,3.315-2.442,6.003-5.455,6.003-.92,0-1.785-.253-2.545-.696-.76.443-1.626.696-2.545.696-3.013,0-5.455-2.688-5.455-6.003Z"/>
</svg>
