<?xml version="1.0" encoding="UTF-8"?>
<svg xmlns="http://www.w3.org/2000/svg" id="Layer_1" data-name="Layer 1" viewBox="0 0 24 24">
  <path d="m.522,5.253c-.308-.27-.522-.75-.522-1.253s.214-.983.588-1.318L2.766.321c.375-.405,1.008-.43,1.413-.055.405.375.43,1.007.055,1.413l-1.222,1.321h17.979l-1.225-1.321c-.375-.406-.351-1.038.055-1.413.405-.376,1.038-.351,1.413.055l2.244,2.426c.308.27.522.75.522,1.253s-.214.983-.588,1.318l-2.178,2.361c-.197.213-.465.321-.734.321-.243,0-.487-.088-.679-.266-.405-.375-.43-1.007-.055-1.413l1.222-1.321H3.009l1.225,1.321c.375.406.351,1.038-.055,1.413-.192.178-.436.266-.679.266-.269,0-.537-.108-.734-.321L.522,5.253Zm17.478,10.747v-1c0-1.459.789-2.723,1.956-3.421-.223-2.162-2.087-3.579-3.956-3.579h-8c-2.061,0-3.743,1.573-3.957,3.578,1.167.699,1.957,1.963,1.957,3.422v1h12Zm3.664-2.973c-.983.16-1.664,1.083-1.664,2.08v1.893c0,.552-.448,1-1,1H5c-.552,0-1-.448-1-1v-1.893c0-.996-.681-1.92-1.664-2.08-1.253-.204-2.336.758-2.336,1.973v2.5c0,1.56.795,2.933,2,3.74v1.76c0,.552.448,1,1,1s1-.448,1-1v-1.05c.166.019.329.05.5.05h15c.171,0,.334-.032.5-.05v1.05c0,.552.448,1,1,1s1-.448,1-1v-1.76c1.205-.807,2-2.18,2-3.74v-2.5c0-1.215-1.083-2.176-2.336-1.973Z"/>
</svg>
