<?xml version="1.0" encoding="UTF-8"?>
<svg xmlns="http://www.w3.org/2000/svg" id="Layer_1" data-name="Layer 1" viewBox="0 0 24 24">
  <path d="M22,14.556v-1.556c0-2.206-1.794-4-4-4s-4,1.794-4,4v1.556c-1.19,.694-2,1.97-2,3.444v2c0,2.206,1.794,4,4,4h4c2.206,0,4-1.794,4-4v-2c0-1.474-.81-2.75-2-3.444Zm-4,5.944c-.828,0-1.5-.672-1.5-1.5s.672-1.5,1.5-1.5,1.5,.672,1.5,1.5-.672,1.5-1.5,1.5Zm2-6.5h-4v-1c0-1.103,.897-2,2-2s2,.897,2,2v1Zm-15.657-3H0c0-2.757,2.243-5,5-5h6V1.636c0-.904,.732-1.636,1.636-1.636,.24,0,.476,.053,.693,.154l3.2,1.498c.627,.392,.627,1.304,0,1.696l-3.53,1.652v1h6c2.757,0,5,2.243,5,5h-.35c-.826-2.327-3.043-4-5.65-4-.981,0-1.905,.241-2.723,.66l-.449-.488c-1.511-1.512-4.117-1.542-5.687,.03l-2.678,2.919c-.559,.559-1.332,.879-2.121,.879Zm5.657,9v-2c0-1.703,.745-3.321,2-4.448v-.552c0-1.604,.637-3.06,1.666-4.138l-.282-.306c-.696-.695-2.043-.726-2.798,.03l-2.678,2.919c-.974,.975-2.23,1.495-3.565,1.495H0v8c0,1.654,1.346,3,3,3H11.54c-.954-1.063-1.54-2.462-1.54-4Zm-5,2h-1c-.552,0-1-.447-1-1s.448-1,1-1h1c.552,0,1,.447,1,1s-.448,1-1,1Zm0-4h-1c-.552,0-1-.447-1-1s.448-1,1-1h1c.552,0,1,.447,1,1s-.448,1-1,1Z"/>
</svg>
