<?xml version="1.0" encoding="UTF-8"?>
<svg xmlns="http://www.w3.org/2000/svg" id="Layer_1" data-name="Layer 1" viewBox="0 0 24 24">
  <path d="M10.77,12l4.23-2.897v5.793l-4.23-2.896Zm13.23-7v14c0,2.757-2.243,5-5,5H5c-2.757,0-5-2.243-5-5V5C0,2.243,2.243,0,5,0h14c2.757,0,5,2.243,5,5Zm-7,3.871c0-.693-.383-1.326-1-1.651-.624-.328-1.373-.286-1.954,.112l-4.569,3.128c-.195,.133-.348,.307-.478,.496v-2.957c0-.552-.448-1-1-1s-1,.448-1,1v8c0,.553,.448,1,1,1s1-.447,1-1v-2.957c.129,.189,.283,.363,.478,.497l4.569,3.129c.321,.22,.694,.332,1.069,.332,.302,0,.606-.073,.885-.22,.617-.325,1-.958,1-1.651v-6.258Z"/>
</svg>
