<?xml version="1.0" encoding="UTF-8"?>
<svg xmlns="http://www.w3.org/2000/svg" id="Layer_1" data-name="Layer 1" viewBox="0 0 24 24">
  <path d="m18.793,12.225l3.8,1.689c.132.059.27.086.405.086.384,0,.749-.222.915-.594.224-.505-.003-1.096-.508-1.32l-7.25-3.222,2.958-1.381c1.753-.818,2.886-2.597,2.886-4.531v-1.953c0-.552-.447-1-1-1s-1,.448-1,1v1.953c0,1.161-.68,2.228-1.731,2.718l-3.589,1.675c.204-.405.32-.862.32-1.346,0-1.654-1.346-3-3-3s-3,1.346-3,3c0,.484.116.941.32,1.346l-3.589-1.675c-1.052-.491-1.731-1.558-1.731-2.718v-1.953c0-.552-.448-1-1-1s-1,.448-1,1v1.953c0,1.934,1.133,3.712,2.886,4.531l2.958,1.381L.594,12.086c-.504.224-.732.815-.507,1.32.166.373.531.594.914.594.136,0,.273-.027.406-.086l3.8-1.689-3.806,5.075C.497,18.503,0,19.994,0,21.5v1.5c0,.553.448,1,1,1s1-.447,1-1v-1.5c0-1.075.355-2.141,1-3l3.315-4.42c-.204.603-.315,1.249-.315,1.92,0,3.309,2.691,6,6,6s6-2.691,6-6c0-.671-.111-1.317-.315-1.92l3.315,4.421c.645.858,1,1.924,1,2.999v1.5c0,.553.447,1,1,1s1-.447,1-1v-1.5c0-1.506-.497-2.997-1.4-4.199l-3.806-5.076Zm-4.429,5.775c.322.403.035,1-.481,1h-3.766c-.516,0-.803-.597-.481-1l1.719-2-1.719-2c-.322-.403-.035-1,.481-1h3.766c.516,0,.803.597.481,1l-1.719,2,1.719,2Z"/>
</svg>
