<?xml version="1.0" encoding="UTF-8"?>
<svg xmlns="http://www.w3.org/2000/svg" id="Layer_1" data-name="Layer 1" viewBox="0 0 24 24">
  <path d="M12,7V.46c.913,.346,1.753,.879,2.465,1.59l3.484,3.486c.712,.711,1.245,1.551,1.591,2.464h-6.54c-.552,0-1-.449-1-1Zm11.707,15.293c.391,.391,.391,1.023,0,1.414-.195,.195-.451,.293-.707,.293s-.512-.098-.707-.293l-3.957-3.957-1.586,1.586,.207,.207c.391,.391,.391,1.023,0,1.414-.195,.195-.451,.293-.707,.293s-.512-.098-.707-.293l-4.5-4.5c-.391-.391-.391-1.023,0-1.414s1.023-.391,1.414,0l.056,.056,4.586-4.586-.056-.056c-.391-.391-.391-1.023,0-1.414s1.023-.391,1.414,0l4.5,4.5c.391,.391,.391,1.023,0,1.414-.195,.195-.451,.293-.707,.293s-.512-.098-.707-.293l-.207-.207-1.586,1.586,3.957,3.957Zm-14.078-2.422c-1.17-1.169-1.17-3.073,0-4.242,.631-.632,1.508-.952,2.392-.867l2.741-2.741c-.008-.09-.012-.18-.012-.271,0-.639,.206-1.243,.574-1.75h-2.324c-1.654,0-3-1.346-3-3V.024c-.161-.011-.322-.024-.485-.024H5C2.243,0,0,2.243,0,5v14c0,2.757,2.243,5,5,5H13.758l-4.129-4.129Z"/>
</svg>
