<?xml version="1.0" encoding="UTF-8"?>
<svg xmlns="http://www.w3.org/2000/svg" id="Layer_1" data-name="Layer 1" viewBox="0 0 24 24">
  <path d="m23,24h-5c-.4,0-.761-.238-.919-.605s-.082-.794.194-1.084c.792-.833,1.967-1.311,3.225-1.311s2.433.478,3.225,1.311c.276.29.352.717.194,1.084s-.519.605-.919.605Zm-7.581-.605c.158-.367.082-.794-.194-1.084-.792-.833-1.967-1.311-3.225-1.311s-2.433.478-3.225,1.311c-.276.29-.352.717-.194,1.084s.519.605.919.605h5c.4,0,.761-.238.919-.605Zm-8.5,0c.158-.367.082-.794-.194-1.084-.792-.833-1.967-1.311-3.225-1.311s-2.433.478-3.225,1.311c-.276.29-.352.717-.194,1.084s.519.605.919.605h5c.4,0,.761-.238.919-.605Zm-3.419-3.395c1.105,0,2-.895,2-2s-.895-2-2-2-2,.895-2,2,.895,2,2,2Zm8.5,0c1.105,0,2-.895,2-2s-.895-2-2-2-2,.895-2,2,.895,2,2,2Zm8.5,0c1.105,0,2-.895,2-2s-.895-2-2-2-2,.895-2,2,.895,2,2,2ZM4.5,5c1.381,0,2.5-1.119,2.5-2.5S5.881,0,4.5,0s-2.5,1.119-2.5,2.5,1.119,2.5,2.5,2.5ZM20.5,0h-12.26c.479.715.76,1.575.76,2.5,0,.529-.108,1.029-.276,1.5h5.157c1.451,0,2.784.978,3.06,2.402.372,1.915-1.092,3.598-2.942,3.598h-4v3c0,.552.448,1,1,1h5v-1c0-.552.448-1,1-1h2c.552,0,1,.448,1,1v1h.5c1.933,0,3.5-1.567,3.5-3.5V3.5c0-1.933-1.567-3.5-3.5-3.5Zm-12.5,13v-5h6c.553,0,1-.448,1-1s-.447-1-1-1H4C1.791,6,0,7.791,0,10v3c0,.552.448,1,1,1h6c.552,0,1-.448,1-1Z"/>
</svg>
