<?xml version="1.0" encoding="UTF-8"?>
<svg xmlns="http://www.w3.org/2000/svg" id="Layer_1" data-name="Layer 1" viewBox="0 0 24 24">
  <path d="m0,8v-1C0,4.243,2.243,2,5,2h1v-1c0-.552.448-1,1-1s1,.448,1,1v1h8v-1c0-.552.448-1,1-1s1,.448,1,1v1h1c2.757,0,5,2.243,5,5v1H0Zm17.968,14.976c.124.424-.12.868-.543.993-.075.021-.15.032-.225.032-.346,0-.665-.227-.768-.576l-.241-.825h-2.968l-.255.825c-.125.424-.57.665-.993.543-.424-.124-.667-.568-.543-.993l1.684-5.759c.213-.728.85-1.216,1.584-1.216h0c.734,0,1.371.489,1.583,1.217l1.247,4.262c.007.016.008.033.014.049l.424,1.448Zm-2.245-1.976l-.975-3.334-1.03,3.334h2.005Zm6.464-1.005l1.697-2.789c.229-.377.11-.87-.268-1.1-.377-.229-.869-.109-1.1.268l-1.267,2.082-1.267-2.082c-.23-.377-.723-.499-1.1-.268-.377.23-.497.722-.268,1.1l1.697,2.789-1.697,2.789c-.229.377-.11.87.268,1.1.13.079.273.117.415.117.27,0,.534-.137.685-.384l1.267-2.082,1.267,2.082c.151.248.415.384.685.384.142,0,.285-.038.415-.117.377-.23.497-.722.268-1.1l-1.697-2.789Zm-10.187-3.195c0-.442-.358-.8-.8-.8h-4.4c-.442,0-.8.358-.8.8s.358.8.8.8h1.4v5.601c0,.442.358.8.8.8s.8-.358.8-.8v-5.601h1.4c.442,0,.8-.358.8-.8Zm-5.8,6.4v-3.665c-1.257-.275-2.2-1.397-2.2-2.735,0-1.544,1.256-2.8,2.8-2.8h4.4c.606,0,1.163.198,1.622.526.287-.174.597-.312.926-.401l1.052-.125,1.009.172c.514.164.971.453,1.361.819.19-.225.408-.432.673-.593.632-.388,1.383-.508,2.112-.331.496.12.94.366,1.296.713.726-.702,1.783-.95,2.749-.663v-4.117H0v9c0,2.757,2.243,5,5,5h1.331c-.077-.255-.13-.52-.13-.8Z"/>
</svg>
