<?xml version="1.0" encoding="UTF-8"?>
<svg xmlns="http://www.w3.org/2000/svg" id="Layer_1" data-name="Layer 1" viewBox="0 0 24 24">
  <path d="m18,0c-3.314,0-6,2.686-6,6s2.686,6,6,6,6-2.686,6-6S21.314,0,18,0Zm3.683,5.712l-2.703,2.614c-.452.446-1.052.671-1.653.671s-1.203-.225-1.663-.674l-1.354-1.332c-.395-.387-.4-1.02-.014-1.414.386-.395,1.019-.401,1.414-.014l1.354,1.331c.144.142.38.139.522-.002l2.713-2.624c.397-.381,1.031-.37,1.414.029.382.398.369,1.031-.029,1.414ZM3,1.5v3.5h-.5c-1.381,0-2.5-1.119-2.5-2.5v-1C0,.672.672,0,1.5,0s1.5.672,1.5,1.5Zm20.992,19.668c-.014.156-.03.275-.047.332-.43,1.446-1.77,2.5-3.355,2.5h-9.35c.48-.716.76-1.576.76-2.5,0-1.381,1.119-2.5,2.5-2.5h7.498c1.17,0,2.099,1.003,1.993,2.168Zm-13.992.332c0,1.466-1.261,2.637-2.758,2.487-1.301-.13-2.242-1.322-2.242-2.63V1.5c0-.536-.122-1.045-.338-1.5h8.065c-1.667,1.467-2.726,3.61-2.726,6,0,4.411,3.589,8,8,8,.692,0,1.359-.097,2-.263v3.263h-5.5c-2.485,0-4.5,2.015-4.5,4.5Z"/>
</svg>
