<?xml version="1.0" encoding="UTF-8"?>
<svg xmlns="http://www.w3.org/2000/svg" id="Layer_1" data-name="Layer 1" viewBox="0 0 24 24">
  <path d="m8.942,20c.034.162.058.328.058.5,0,1.381-1.119,2.5-2.5,2.5s-2.5-1.119-2.5-2.5c0-.172.024-.338.058-.5h4.885Zm6.115,0c-.034.162-.058.328-.058.5,0,1.381,1.119,2.5,2.5,2.5s2.5-1.119,2.5-2.5c0-.172-.024-.338-.058-.5h-4.885Zm3.942-15h-2v6h7v-1c0-2.761-2.239-5-5-5Zm-2,13h3c2.209,0,4-1.791,4-4v-1h-7v5Zm-2-13v13H4c-2.209,0-4-1.791-4-4V5C0,2.791,1.791,1,4,1h7c2.209,0,4,1.791,4,4Zm-4.193,3.845c-.279-.521-.821-.845-1.412-.845h-3.028l1.965-2.945c.307-.459.183-1.08-.277-1.387-.459-.307-1.079-.183-1.387.277,0,0-2.57,3.878-2.599,3.973-.147.486-.054,1.021.249,1.43.304.408.788.652,1.297.652h3.035l-1.979,2.941c-.309.458-.188,1.08.271,1.388.172.116.365.171.558.171.321,0,.638-.154.83-.441l2.403-3.569c.326-.493.355-1.124.075-1.645Z"/>
</svg>
