<?xml version="1.0" encoding="UTF-8"?>
<svg xmlns="http://www.w3.org/2000/svg" id="Layer_1" data-name="Layer 1" viewBox="0 0 24 24">
  <path d="M19,11.996V4.996C19,2.239,16.757-.004,14-.004H5C2.243-.004,0,2.239,0,4.996v12.854c-.053,1.663,1.983,2.754,3.34,1.788l3.963-2.643h6.697c2.757,0,5-2.243,5-5ZM7.7,7.7c.442,0,.8,.358,.8,.8s-.358,.8-.8,.8h-1.101v1.101h1.101c.442,0,.8,.358,.8,.8s-.358,.8-.8,.8h-1.7c-.552,0-1-.448-1-1V6c0-.552,.448-1,1-1h1.7c.442,0,.8,.358,.8,.8s-.358,.8-.8,.8h-1.101v1.101h1.101Zm4.726,3.777l-1.432-3.025v2.801c0,.412-.334,.747-.747,.747s-.747-.334-.747-.747V5.914c0-.505,.409-.914,.914-.914,.354,0,.675,.204,.827,.524l1.433,3.031v-2.808c0-.412,.334-.747,.747-.747s.747,.334,.747,.747v5.339c0,.505-.409,.914-.914,.914h0c-.353,0-.675-.204-.826-.523Zm11.574-2.481v12.854c.053,1.662-1.983,2.755-3.339,1.789l-3.964-2.644h-5.697c-1.45,0-2.747-.631-3.661-1.62l.569-.38h6.092c3.859,0,7-3.14,7-7V4.996c0-.193-.014-.383-.029-.573,1.776,.767,3.029,2.519,3.029,4.573Z"/>
</svg>
