<?xml version="1.0" encoding="UTF-8"?>
<svg xmlns="http://www.w3.org/2000/svg" id="Layer_1" data-name="Layer 1" viewBox="0 0 24 24">
  <path d="m8,12c-3.309,0-6-2.691-6-6S4.691,0,8,0s6,2.691,6,6-2.691,6-6,6Zm10.501,12c-.153,0-.307-.035-.447-.105l-.201-.101c-1.139-.569-4.853-2.704-4.853-6.272v-3.085c0-1.295.826-2.439,2.055-2.848l3.131-1.038c.203-.067.426-.067.629,0l3.13,1.038c1.229.408,2.056,1.553,2.056,2.848v3.085c0,4.032-3.764,5.858-4.917,6.322l-.209.084c-.12.048-.247.072-.373.072Zm-7.501-6.479v-2.042c0-.56-.373-1.057-.914-1.203-.956-.259-1.983-.344-3.044-.22C2.971,14.533,0,18.167,0,22.266v.734c0,.552.448,1,1,1h13.498c-1.689-1.359-3.498-3.508-3.498-6.479Z"/>
</svg>
