<?xml version="1.0" encoding="UTF-8"?>
<svg xmlns="http://www.w3.org/2000/svg" id="Layer_1" data-name="Layer 1" viewBox="0 0 24 24">
  <path d="m4.249,10.899c.474.38.751.954.751,1.562v11.539h-1.5c-1.933,0-3.5-1.567-3.5-3.5v-8.039c0-.608.276-1.182.751-1.562l1.125-.9c.365-.292.884-.292,1.249,0l1.125.9Zm7.751,7.101c-.551,0-1,.449-1,1v5h2v-5c0-.551-.449-1-1-1Zm11.249-7.101l-1.125-.9c-.365-.292-.884-.292-1.249,0l-1.125.9c-.474.38-.751.954-.751,1.562v11.539h1.5c1.933,0,3.5-1.567,3.5-3.5v-8.039c0-.608-.276-1.182-.751-1.562Zm-6.249-6.149v19.25h-2v-5c0-1.85-1.683-3.314-3.598-2.942-1.424.277-2.402,1.609-2.402,3.06v4.882h-2V4.75c0-.944.445-1.833,1.2-2.4l2.6-1.95c.711-.533,1.689-.533,2.4,0l2.6,1.95c.755.567,1.2,1.456,1.2,2.4Zm-2.837,5.25l.654-1.09c.213-.355-.043-.807-.457-.807h-1.336l-.568-.946c-.207-.345-.707-.345-.914,0l-.568.946h-1.336c-.414,0-.67.452-.457.807l.654,1.09-.654,1.09c-.213.355.043.807.457.807h1.336l.568.946c.207.345.707.345.914,0l.568-.946h1.336c.414,0,.67-.452.457-.807l-.654-1.09Z"/>
</svg>
