<?xml version="1.0" encoding="UTF-8"?>
<svg xmlns="http://www.w3.org/2000/svg" id="Layer_1" data-name="Layer 1" viewBox="0 0 24 24">
  <path d="m19,0h-4c-2.446,0-4.488,1.767-4.917,4.091l.032.062c1.134.308,2.108,1.069,2.676,2.14l1.392,2.708h.818c.553,0,1,.447,1,1,0,.485-.352.87-.809.962l3.215,6.255c.168-.127.367-.217.594-.217h1c.553,0,1,.447,1,1s-.447,1-1,1h-.678l.118.229c.753,1.43.705,3.13-.139,4.532-.047.078-.104.148-.155.223,2.688-.08,4.853-2.279,4.853-4.985V5c0-2.757-2.243-5-5-5Zm-4,7h-1c-.553,0-1-.447-1-1s.447-1,1-1h1c.553,0,1,.447,1,1s-.447,1-1,1Zm5,8h-1c-.553,0-1-.447-1-1s.447-1,1-1h1c.553,0,1,.447,1,1s-.447,1-1,1Zm0-4h-1c-.553,0-1-.447-1-1s.447-1,1-1h1c.553,0,1,.447,1,1s-.447,1-1,1Zm0-4h-1c-.553,0-1-.447-1-1s.447-1,1-1h1c.553,0,1,.447,1,1s-.447,1-1,1Zm-15.366,4.725l2.305-4.485c.407-.769,1.188-1.24,2.044-1.24h0c.856,0,1.638.471,2.04,1.229l2.394,4.657-1.622,3.094-1.72-2.776c-.185-.299-.524-.463-.866-.473-.352.006-.675.196-.851.501l-1.663,2.744-2.063-3.251Zm13.029,8.419c.434.823.405,1.79-.074,2.586-.479.795-1.317,1.27-2.244,1.27H2.624c-.927,0-1.766-.475-2.245-1.27-.48-.799-.507-1.768-.071-2.592l3.265-6.351,1.433,2.259c.377.598,1.024.954,1.731.954h.005c.708-.001,1.356-.361,1.75-.994l.763-1.326.84,1.356c.375.601,1.023.961,1.732.963h.005c.708,0,1.354-.356,1.775-1.03l.956-1.852,3.097,6.025Z"/>
</svg>
