<?xml version="1.0" encoding="UTF-8"?>
<svg xmlns="http://www.w3.org/2000/svg" id="Layer_1" data-name="Layer 1" viewBox="0 0 24 24">
  <path d="m19,17.5c0,.827-.673,1.5-1.5,1.5s-1.5-.673-1.5-1.5.673-1.5,1.5-1.5,1.5.673,1.5,1.5Zm-9,4.5c0-1.654-1.346-3-3-3h-.443c.682-1.687,1.443-3.738,1.443-4.5,0-1.381-1.119-2.45-2.5-2.45s-2.5,1.069-2.5,2.45c0,.762.761,2.813,1.443,4.5h-.443c-1.654,0-3,1.346-3,3-.553,0-1,.447-1,1s.447,1,1,1h9c.553,0,1-.447,1-1s-.447-1-1-1ZM24,5v14c0,2.757-2.243,5-5,5h-6.184c.112-.314.184-.648.184-1,0-.979-.472-1.85-1.199-2.397-.389-1.336-1.322-2.443-2.543-3.063.637-1.793.742-2.551.742-3.039,0-2.284-1.756-4.15-4-4.399v-5.101c0-2.757,2.243-5,5-5h8c2.757,0,5,2.243,5,5Zm-14,1c0,.553.447,1,1,1h8c.553,0,1-.447,1-1s-.447-1-1-1h-8c-.553,0-1,.447-1,1Zm7,5c.553,0,1-.447,1-1s-.447-1-1-1h-6c-.553,0-1,.447-1,1s.447,1,1,1h6Zm4,6.5c0-1.93-1.57-3.5-3.5-3.5s-3.5,1.57-3.5,3.5,1.57,3.5,3.5,3.5,3.5-1.57,3.5-3.5Z"/>
</svg>
