<?xml version="1.0" encoding="UTF-8"?>
<svg xmlns="http://www.w3.org/2000/svg" id="Layer_1" data-name="Layer 1" viewBox="0 0 24 24">
  <path d="m4,12v-2h16v2H4Zm-2,10.5c0,.828.672,1.5,1.5,1.5h3.5v-2H2v.5Zm1.021-14.5h17.958c.564,0,1.021-.436,1.021-1,0-.486-.35-.981-.818-1.109-2.045-.556-3.002-3.059-3.012-3.105l-.169-.768v-1.018c0-.552-.448-1-1-1s-1,.448-1,1v1h-8s0-1,0-1c0-.552-.448-1-1-1s-1,.448-1,1v1.016l-.169.77c-.01.046-.967,2.55-3.012,3.105-.469.127-.818.623-.818,1.109,0,.564.457,1,1.021,1Zm5.979,16h6v-2h-6v2Zm14.208-6.112c-1.762-.507-2.915-2.616-3.208-3.888H4c-.261,1.185-1.446,3.364-3.215,3.886-.451.133-.785.645-.785,1.114,0,.554.449,1,1.003,1h21.994c.554,0,1.003-.446,1.003-1,0-.473-.338-.982-.792-1.112Zm-6.208,6.112h3.5c.828,0,1.5-.672,1.5-1.5v-.5h-5v2Z"/>
</svg>
