<?xml version="1.0" encoding="UTF-8"?>
<svg xmlns="http://www.w3.org/2000/svg" id="Layer_1" data-name="Layer 1" viewBox="0 0 24 24">
  <path d="M20,12h3v-2h-3c-.552,0-1-.448-1-1s.448-1,1-1h2.91c-.477-2.837-2.938-5-5.91-5h-1.551c-.245-1.691-1.691-3-3.449-3s-3.204,1.309-3.449,3h-1.551c-2.972,0-5.433,2.163-5.91,5h14.91c.552,0,1,.448,1,1s-.448,1-1,1H1v6c0,3.314,2.686,6,6,6h2v1.079c0,.552,.448,1,1,1s1-.448,1-1v-1.079h2v1.079c0,.552,.448,1,1,1s1-.448,1-1v-1.079h2c2.611,0,4.827-1.671,5.651-4h-2.651c-.552,0-1-.448-1-1s.448-1,1-1h3v-2h-3c-.552,0-1-.448-1-1s.448-1,1-1ZM10.5,3.5c0-.827,.673-1.5,1.5-1.5s1.5,.673,1.5,1.5-.673,1.5-1.5,1.5-1.5-.673-1.5-1.5Z"/>
</svg>
