<?xml version="1.0" encoding="UTF-8"?>
<svg xmlns="http://www.w3.org/2000/svg" id="Layer_1" data-name="Layer 1" viewBox="0 0 24 24">
  <path d="m11.5,10.75c-.62,0-1.125-.505-1.125-1.125s.505-1.125,1.125-1.125,1.125.505,1.125,1.125-.505,1.125-1.125,1.125Zm0,2c-.758,0-1.375.617-1.375,1.375s.617,1.375,1.375,1.375,1.375-.617,1.375-1.375-.617-1.375-1.375-1.375Zm12.5-.75c0,6.617-5.383,12-12,12S0,18.617,0,12,5.383,0,12,0s12,5.383,12,12Zm-18-3.693c0-.542-.326-1.019-.831-1.216-.503-.198-1.067-.068-1.439.334l-1.732,1.901c-.372.409-.342,1.041.066,1.413.408.372,1.041.341,1.413-.065l.523-.574v5.9c0,.553.448,1,1,1s1-.447,1-1v-7.693Zm8.875,5.818c0-.958-.405-1.819-1.049-2.434.491-.552.799-1.271.799-2.066,0-1.723-1.402-3.125-3.125-3.125s-3.125,1.402-3.125,3.125c0,.795.308,1.514.799,2.066-.643.615-1.049,1.476-1.049,2.434,0,1.861,1.514,3.375,3.375,3.375s3.375-1.514,3.375-3.375Zm7.125-2.125c0-.553-.448-1-1-1h-1v-1c0-.553-.448-1-1-1s-1,.447-1,1v1h-1c-.552,0-1,.447-1,1s.448,1,1,1h1v1c0,.553.448,1,1,1s1-.447,1-1v-1h1c.552,0,1-.447,1-1Z"/>
</svg>
