<?xml version="1.0" encoding="UTF-8"?>
<svg xmlns="http://www.w3.org/2000/svg" id="Layer_1" data-name="Layer 1" viewBox="0 0 24 24">
  <path d="m15.654,13.773l-4.599,7.884c-.606,1.039.143,2.343,1.346,2.343h9.197c1.203,0,1.952-1.304,1.346-2.343l-4.599-7.884c-.601-1.031-2.091-1.031-2.692,0Zm1.346,9.227h0c-.552,0-1-.448-1-1h0c0-.552.448-1,1-1h0c.552,0,1,.448,1,1h0c0,.552-.448,1-1,1Zm-1-4v-2c0-.552.448-1,1-1h0c.552,0,1,.448,1,1v2c0,.552-.448,1-1,1h0c-.552,0-1-.448-1-1Zm-2.074-6.233c.645-1.106,1.794-1.767,3.074-1.767s2.429.66,3.074,1.767l1.211,2.076c.049-.114.097-.22.147-.343.444-1.101.568-2.302.568-3.499,0-3.127-1.338-6.117-3.671-8.203C15.998.714,12.859-.283,9.732.071,4.774.628.719,4.621.091,9.567c-.437,3.445.717,6.812,3.168,9.239.525.519,1.219.783,1.92.783.65,0,1.306-.227,1.839-.688l1.593-1.484h2.603l2.712-4.65Zm-4.926-1.767c0-.178.031-.347.074-.512l-3.781-3.781c-.391-.391-.391-1.023,0-1.414s1.023-.391,1.414,0l3.781,3.781c.164-.044.334-.074.512-.074,1.105,0,2,.895,2,2s-.895,2-2,2-2-.895-2-2Z"/>
</svg>
