<?xml version="1.0" encoding="UTF-8"?>
<svg xmlns="http://www.w3.org/2000/svg" id="Layer_1" data-name="Layer 1" viewBox="0 0 24 24">
  <path d="M24,8H0C0,4.691,2.691,2,6,2V1c0-.552,.448-1,1-1s1,.448,1,1v1h8V1c0-.552,.447-1,1-1s1,.448,1,1v1c3.309,0,6,2.691,6,6Zm0,2v8c0,3.309-2.691,6-6,6H6c-3.309,0-6-2.691-6-6V10H24ZM7,15c0,.553,.448,1,1,1h8c.404,0,.77-.243,.924-.617,.155-.374,.069-.804-.217-1.09l-2-2c-.391-.391-1.023-.391-1.414,0s-.391,1.023,0,1.414l.293,.293h-5.586c-.552,0-1,.447-1,1Zm10,4c0-.553-.447-1-1-1H8c-.404,0-.769,.243-.924,.617s-.069,.804,.217,1.09l2,2c.195,.195,.451,.293,.707,.293s.512-.098,.707-.293c.391-.391,.391-1.023,0-1.414l-.293-.293h5.586c.553,0,1-.447,1-1Z"/>
</svg>
