<?xml version="1.0" encoding="UTF-8"?>
<svg xmlns="http://www.w3.org/2000/svg" id="Layer_1" data-name="Layer 1" viewBox="0 0 24 24">
  <path d="M21.609,19.418c-.578-.578-1.586-.578-2.164,0l-1.289,1.289c-.187,.187-.444,.293-.707,.293h-2.449v-4h1v1.006c0,.422,.179,.826,.491,1.11,.312,.283,.737,.427,1.155,.383,.771-.075,1.354-.727,1.354-1.515v-1.484c0-1.379-1.121-2.5-2.5-2.5h-3.5V7.5c0-.829-.671-1.5-1.5-1.5s-1.5,.671-1.5,1.5v6.851c-1.178,.564-2,1.758-2,3.149v3c0,1.93,1.57,3.5,3.5,3.5h6.034c1.054,0,2.085-.427,2.829-1.172l1.246-1.246c.597-.597,.597-1.567,0-2.164Zm-15.256-3.824C3.161,13.973,1.121,11.44,.604,10.746c-.754-1.013-.807-2.357-.134-3.424C2.572,3.987,5.195,1.578,6.803,.528c.529-.345,1.184-.528,1.893-.528,.832,0,1.613,.323,2.2,.909l1.1,1.1,1.116-1.099C13.697,.324,14.496,.011,15.423,.004h.023c.633,0,1.244,.189,1.815,.562,1.712,1.118,4.264,3.481,6.289,6.763,.657,1.064,.599,2.4-.147,3.404-.362,.487-1.473,1.876-3.196,3.224-.812-1.18-2.169-1.958-3.707-1.958h-1.5v-1.127c3.352-.266,6.075-.865,6.221-.897,.486-.108,.796-.559,.758-1.055-.039-.497-.458-.889-.955-.921-.146-.009-.457-.07-.898-.15-1.145-.208-2.987-.537-5.163-.719-.187-1.755-1.659-3.131-3.463-3.131-1.832,0-3.323,1.42-3.471,3.214-2.889,.292-5.112,.78-5.243,.81-.457,.102-.782,.508-.782,.976s.325,.874,.782,.976c.131,.029,2.339,.515,5.215,.807v2.493c-.744,.617-1.309,1.422-1.646,2.319Z"/>
</svg>
