<?xml version="1.0" encoding="UTF-8"?>
<svg xmlns="http://www.w3.org/2000/svg" id="Layer_1" data-name="Layer 1" viewBox="0 0 24 24">
  <path d="m12,21c4.971,0,9-4.029,9-9v-.018c-.002-.704-.103-1.383-.258-2.041-.147.023-.292.06-.442.06-.77,0-1.542-.292-2.129-.88-1.132-1.132-1.158-2.945-.099-4.121h2.876l-1.363,1.293c-.39.391-.39,1.024,0,1.414.391.391,1.024.391,1.414,0l2.451-2.381c.729-.729.729-1.922,0-2.651l-2.451-2.381c-.391-.391-1.024-.391-1.414,0s-.391,1.024,0,1.414l1.363,1.293h-8.948C7.03,3,3,7.029,3,12v.018c.001.704.103,1.383.258,2.041.147-.023.292-.06.442-.06.77,0,1.542.292,2.129.88,1.132,1.132,1.158,2.945.099,4.121h-2.876l1.363-1.293c.39-.391.39-1.024,0-1.414-.391-.391-1.024-.391-1.414,0l-2.451,2.381c-.729.729-.729,1.922,0,2.651l2.451,2.381c.391.391,1.024.391,1.414,0s.391-1.024,0-1.414l-1.363-1.293h8.949Zm1.08-5.2h-.28s0,.4,0,.4c0,.442-.358.8-.8.8h0c-.442,0-.8-.358-.8-.8v-.4h-.2c-.712,0-1.348-.324-1.77-.833-.418-.504-.063-1.266.592-1.266h.076c.227,0,.434.107.588.274.128.139.312.226.515.226h2.103c.278,0,.532-.187.586-.46.063-.318-.146-.615-.451-.677l-2.791-.559c-1.112-.223-1.888-1.281-1.725-2.439.152-1.08,1.108-1.866,2.199-1.866h.28s0-.4,0-.4c0-.442.358-.8.8-.8h0c.442,0,.8.358.8.8v.4h.2c.712,0,1.348.324,1.77.833.418.504.063,1.266-.592,1.266h-.076c-.227,0-.434-.107-.588-.274-.128-.139-.312-.226-.515-.226h-2.101c-.278,0-.532.186-.587.458-.064.318.146.617.449.678l2.792.559c1.112.222,1.889,1.282,1.725,2.439-.152,1.08-1.108,1.865-2.199,1.865Z"/>
</svg>
