<?xml version="1.0" encoding="UTF-8"?>
<svg xmlns="http://www.w3.org/2000/svg" id="Layer_1" data-name="Layer 1" viewBox="0 0 24 24">
  <path d="m0,10v8c0,2.757,2.243,5,5,5h14c2.757,0,5-2.243,5-5v-8H0Zm7.293,6.207c-.391-.391-.391-1.023,0-1.414l.543-.543-.543-.543c-.391-.391-.391-1.023,0-1.414s1.023-.391,1.414,0l.543.543.543-.543c.391-.391,1.023-.391,1.414,0s.391,1.023,0,1.414l-.543.543.543.543c.391.391.391,1.023,0,1.414-.195.195-.451.293-.707.293s-.512-.098-.707-.293l-.543-.543-.543.543c-.195.195-.451.293-.707.293s-.512-.098-.707-.293Zm8.141,3.65c-.152.398-.532.644-.934.644-.119,0-.239-.021-.357-.066-1.53-.584-2.756-.584-4.286,0-.515.199-1.094-.061-1.291-.577-.197-.516.062-1.094.577-1.291,1.994-.762,3.72-.762,5.714,0,.516.197.774.775.577,1.291Zm1.273-5.064c.391.391.391,1.023,0,1.414-.195.195-.451.293-.707.293s-.512-.098-.707-.293l-.543-.543-.543.543c-.195.195-.451.293-.707.293s-.512-.098-.707-.293c-.391-.391-.391-1.023,0-1.414l.543-.543-.543-.543c-.391-.391-.391-1.023,0-1.414s1.023-.391,1.414,0l.543.543.543-.543c.391-.391,1.023-.391,1.414,0s.391,1.023,0,1.414l-.543.543.543.543Zm7.293-6.793v-2c0-2.757-2.243-5-5-5H5C2.243,1,0,3.243,0,6v2h24ZM8.5,3c.828,0,1.5.672,1.5,1.5s-.672,1.5-1.5,1.5-1.5-.672-1.5-1.5.672-1.5,1.5-1.5Zm-4,0c.828,0,1.5.672,1.5,1.5s-.672,1.5-1.5,1.5-1.5-.672-1.5-1.5.672-1.5,1.5-1.5Z"/>
</svg>
