<?xml version="1.0" encoding="UTF-8"?>
<svg xmlns="http://www.w3.org/2000/svg" id="Layer_1" data-name="Layer 1" viewBox="0 0 24 24">
  <path d="M24,4v5c0,2.209-1.791,4-4,4h-7.787c-1.374,0-2.46-1.26-2.164-2.685,.193-.926,1.004-1.598,1.94-1.732l4.162-.583c.547-.078,.927-.585,.848-1.131-.078-.547-.585-.926-1.131-.848l-4.252,.596c-.566,.081-1.087,.283-1.555,.564-1.275-1.339-3.068-2.18-5.062-2.18-.293,0-.58,.024-.863,.059L8.749,1.818c1.684-1.183,3.691-1.818,5.749-1.818h5.502c2.209,0,4,1.791,4,4ZM9.561,14.016c-.541,1.211-1.541,2.17-2.789,2.645v5.083c0,.53-.211,1.039-.586,1.414l-.548,.549c-.391,.391-1.024,.391-1.414,0l-.707-.707c-.391-.391-.391-1.024,0-1.414l.692-.692-.707-.707c-.391-.391-.391-1.024,0-1.414l.707-.707s-.338-.369-1.045-1.076c-.16-.16-.253-.34-.315-.494-1.68-.806-2.849-2.508-2.849-4.496,0-2.761,2.239-5,5-5,1.429,0,2.709,.607,3.621,1.568-.386,.64-.621,1.381-.621,2.182,0,1.321,.615,2.486,1.561,3.266Zm-3.061-3.516c0-.828-.672-1.5-1.5-1.5s-1.5,.672-1.5,1.5,.672,1.5,1.5,1.5,1.5-.672,1.5-1.5Z"/>
</svg>
