<?xml version="1.0" encoding="UTF-8"?>
<svg xmlns="http://www.w3.org/2000/svg" id="Layer_1" data-name="Layer 1" viewBox="0 0 24 24">
  <path d="m5.136,11.508l5.864,3.351v6.906c-.254-.075-.502-.175-.736-.309l-4.373-2.498-2.637,1.604,1.545.484c.526.166.819.727.654,1.254-.134.427-.528.7-.954.7-.099,0-.2-.015-.3-.046l-2.832-.89c-.94-.227-1.559-1.242-1.314-2.247l.993-3.121c.168-.527.732-.816,1.257-.649.526.168.816.731.649,1.257l-.436,1.365,2.483-1.51v-4.697c0-.327.048-.647.136-.954Zm12.101-2.085l-4.236-2.421v-3.026l1.311,1.248c.193.185.441.276.689.276.264,0,.527-.104.724-.311.381-.399.366-1.032-.034-1.413l-2.339-2.229c-.73-.728-1.92-.729-2.625-.023l-2.407,2.244c-.404.377-.427,1.01-.05,1.413.377.405,1.01.427,1.413.05l1.318-1.229v3l-4.236,2.421c-.199.114-.379.251-.549.398l5.785,3.306,5.785-3.306c-.17-.147-.35-.285-.549-.398Zm6.691,10.327l-.975-3.054c-.168-.527-.732-.817-1.257-.649-.526.168-.816.731-.649,1.257l.437,1.366-2.484-1.512v-4.696c0-.327-.048-.647-.136-.954l-5.864,3.351v6.906c.254-.075.502-.175.736-.309l4.373-2.499,2.635,1.603-1.544.485c-.526.166-.819.727-.654,1.254.134.427.528.7.954.7.099,0,.2-.015.3-.046l2.769-.872c1.004-.244,1.622-1.26,1.359-2.332Z"/>
</svg>
