<?xml version="1.0" encoding="UTF-8"?>
<svg xmlns="http://www.w3.org/2000/svg" id="Layer_1" data-name="Layer 1" viewBox="0 0 24 24">
  <path d="M10.9,10.5c0,.496-.404,.9-.9,.9h-.4v-1.8h.4c.496,0,.9,.404,.9,.9Zm13.1-2.5v8c0,2.757-2.243,5-5,5H5c-2.757,0-5-2.243-5-5V8C0,5.243,2.243,3,5,3h14c2.757,0,5,2.243,5,5ZM5.6,11.4v-1.801h.601c.442,0,.8-.358,.8-.8s-.358-.8-.8-.8h-1.4c-.442,0-.8,.358-.8,.8v6.4c0,.442,.358,.8,.8,.8s.8-.358,.8-.8v-2.2h.601c.442,0,.8-.358,.8-.8s-.358-.8-.8-.8h-.601Zm5.833,1.144c.657-.462,1.084-1.229,1.066-2.097-.028-1.37-1.187-2.447-2.556-2.447h-1.143c-.442,0-.8,.358-.8,.8v6.4c0,.442,.358,.8,.8,.8h0c.442,0,.8-.358,.8-.8v-2.2h.284l.705,2.423c.099,.342,.412,.577,.768,.577h.063c.537,0,.922-.519,.765-1.033l-.739-2.43c.023-.017,.024-.016,.042-.029-.019,.012-.031,.021-.055,.035Zm3.167-1.344v-1.601h.601c.442,0,.8-.358,.8-.8s-.358-.8-.8-.8h-1.4c-.442,0-.8,.358-.8,.8v6.4c0,.442,.358,.8,.8,.8h1.4c.442,0,.8-.358,.8-.8s-.358-.8-.8-.8h-.601v-1.601h.601c.442,0,.8-.358,.8-.8s-.358-.8-.8-.8h-.601Zm4,0v-1.601h.601c.442,0,.8-.358,.8-.8s-.358-.8-.8-.8h-1.4c-.442,0-.8,.358-.8,.8v6.4c0,.442,.358,.8,.8,.8h1.4c.442,0,.8-.358,.8-.8s-.358-.8-.8-.8h-.601v-1.601h.601c.442,0,.8-.358,.8-.8s-.358-.8-.8-.8h-.601Z"/>
</svg>
