<?xml version="1.0" encoding="UTF-8"?>
<svg xmlns="http://www.w3.org/2000/svg" id="Layer_1" data-name="Layer 1" viewBox="0 0 24 24">
  <path d="m17.6,16.8v6.4c0,.442-.358.8-.8.8h0c-.442,0-.8-.358-.8-.8v-6.4c0-.442.358-.8.8-.8h0c.442,0,.8.358.8.8Zm-3.3-.8h-4.5c-.442,0-.8.358-.8.8s.358.8.8.8h1.4v5.612c0,.441.358.8.8.8s.8-.358.8-.8v-5.612h1.5c.442,0,.8-.358.8-.8s-.358-.8-.8-.8Zm9.7,2.5c0,1.381-1.119,2.5-2.5,2.5h-.9v2.2c0,.442-.358.8-.8.8s-.8-.358-.8-.8v-6.4c0-.442.358-.8.8-.8h1.7c1.381,0,2.5,1.119,2.5,2.5Zm-1.6,0c0-.497-.403-.9-.9-.9h-.9v1.801h.9c.497,0,.9-.403.9-.9Zm-9.435-6.5H2.031c-1.225.912-2.031,2.359-2.031,4v4c0,2.209,1.791,4,4,4h5.2v-4.469c-1.414-.31-2.432-1.688-2.154-3.244.241-1.352,1.501-2.288,2.874-2.288h3.551c.525,0,.811-.605.491-1.02-.285-.37-.621-.699-.996-.98Zm.034-3.5c0-.828-.672-1.5-1.5-1.5h-.5c0-1.657-1.343-3-3-3s-3,1.343-3,3h-1.5c-.828,0-1.5.672-1.5,1.5v1.5h11v-1.5ZM15.025.05c-1.643,0-2.975,1.332-2.975,2.975s1.332,2.975,2.975,2.975,2.975-1.332,2.975-2.975S16.668.05,15.025.05Z"/>
</svg>
