<?xml version="1.0" encoding="UTF-8"?>
<svg xmlns="http://www.w3.org/2000/svg" id="Layer_1" data-name="Layer 1" viewBox="0 0 24 24">
  <path d="m13.5,17c-1.028,0-2.693.96-3.985,1.891.983.509,2.465,1.109,3.985,1.109.827,0,1.5-.673,1.5-1.5s-.673-1.5-1.5-1.5Zm7.115-6.026c-1.382,1.297-3.195,2.026-5.113,2.026-.527,0-1.062-.054-1.596-.166-1.674-.349-3.151-1.304-4.213-2.602-1.475,1.472-3.265,2.768-4.227,2.768-.428,0-1.021-1.092-1.306-1.617-.094-.174-.182-.336-.265-.475-.374-.634-1.095-.983-1.818-.894-.733.091-1.319.587-1.528,1.295C.177,12.574-.023,14.947.003,16.025c.117,4.696,3.673,7.975,8.646,7.975h6.944c3.591,0,7.406-2.559,7.406-7.3,0-2.108-1.252-4.256-2.384-5.726Zm-3.659,8.089c-.285,1.814-2.002,3.008-3.836,2.929-2.222-.097-4.161-1.018-5.428-1.802-.854-.528-.932-1.732-.152-2.364,1.477-1.196,3.873-2.826,5.96-2.826,2.114,0,3.797,1.885,3.456,4.063Zm7.044-12.813h0c0,.451-.28.855-.702,1.013l-3.152,1.182c-1.169,1.84-3.4,2.938-5.831,2.431-2.078-.434-3.758-2.114-4.191-4.192-.741-3.555,1.952-6.684,5.376-6.684,2.635,0,4.837,1.853,5.374,4.328l2.423.909c.422.158.702.562.702,1.013Z"/>
</svg>
